<svg width="45" height="45" viewBox="0 0 45 45" fill="none" xmlns="http://www.w3.org/2000/svg">
<g clip-path="url(#clip0)">
<path d="M8.99508 10.501C9.09567 10.501 9.19694 10.501 9.29513 10.4927C9.93541 10.4553 10.563 10.2991 11.1459 10.0313C12.0643 11.7091 13.8248 12.7517 15.7374 12.7507C15.8418 12.7507 15.9465 12.7507 16.0515 12.7411C17.8533 12.6388 19.4747 11.6143 20.3409 10.0313C21.0128 10.34 21.7433 10.5 22.4828 10.501C22.5879 10.501 22.6926 10.4979 22.7977 10.4921C23.4379 10.4546 24.0659 10.2984 24.6488 10.0306C25.5665 11.7077 27.3256 12.7504 29.2372 12.7507C29.3412 12.7507 29.4463 12.7507 29.5513 12.7411C30.9421 12.6639 32.2443 12.0328 33.1671 10.9892C33.4267 10.6963 33.6532 10.3753 33.8421 10.0324C34.5143 10.34 35.2445 10.5 35.984 10.501C36.0887 10.501 36.1948 10.501 36.2995 10.4921C38.8187 10.3485 40.8793 8.43355 41.2068 5.93182C41.534 3.43009 40.0358 1.04921 37.6384 0.262335C35.2411 -0.524196 32.6233 0.505402 31.4045 2.71463C30.033 2.09563 28.462 2.09563 27.0905 2.71463C26.1687 1.04063 24.4088 0.00038705 22.4976 0.00038705C20.5864 0.00038705 18.8266 1.04063 17.9048 2.71463C16.5332 2.09563 14.9619 2.09563 13.5903 2.71463C12.6091 0.949306 10.7065 -0.100891 8.68987 0.0103432C5.85547 0.176507 3.66685 2.56563 3.74958 5.4038C3.83198 8.24163 6.15587 10.5 8.99508 10.501ZM35.7746 1.50788C37.2896 1.41862 38.7089 2.25115 39.3704 3.61685C40.0317 4.98256 39.8047 6.61227 38.7954 7.74555C37.6844 8.99727 35.8762 9.35672 34.3708 8.62512C34.7807 6.77053 34.1541 4.83939 32.7335 3.57875C32.7126 3.55986 32.6892 3.54407 32.6683 3.52622C33.2705 2.34831 34.4535 1.57963 35.7746 1.50788ZM29.0247 3.75796C29.0999 3.75349 29.1747 3.75109 29.2499 3.75109C31.306 3.75109 32.9814 5.4014 33.0123 7.45716C33.0432 9.51292 31.4183 11.213 29.3629 11.2748C27.3078 11.3363 25.5837 9.73676 25.4913 7.68272C25.399 5.62867 26.9724 3.88086 29.0247 3.75796ZM22.2751 1.50788C23.7524 1.42377 25.1404 2.21716 25.8178 3.53274C24.5716 4.5929 23.899 6.17866 24.003 7.81146C24.0209 8.0892 24.0604 8.36488 24.1215 8.63644C23.681 8.85102 23.2021 8.9753 22.7129 9.00173C22.077 9.03881 21.4426 8.91144 20.8703 8.63198C21.283 6.77534 20.6564 4.84077 19.2337 3.57875C19.2128 3.55986 19.1894 3.54407 19.1685 3.52622C19.771 2.34797 20.9544 1.57929 22.2758 1.50788H22.2751ZM15.5252 3.75796C15.6001 3.75349 15.6753 3.75109 15.7501 3.75109C17.8062 3.75109 19.4816 5.4014 19.5128 7.45716C19.5437 9.51292 17.9185 11.213 15.8634 11.2748C13.808 11.3363 12.0839 9.73676 11.9915 7.68272C11.8992 5.62867 13.4729 3.88086 15.5252 3.75796ZM6.19398 2.75754C7.01381 1.8354 8.23567 1.37673 9.45992 1.53122C10.6842 1.68537 11.7536 2.43311 12.319 3.53C11.0728 4.58981 10.3999 6.17591 10.5039 7.80837C10.5218 8.08611 10.5616 8.36214 10.6224 8.63336C10.1826 8.84793 9.70368 8.97221 9.2148 8.99864C7.69838 9.08962 6.27706 8.25674 5.61515 6.88932C4.95324 5.5219 5.18189 3.89048 6.19398 2.75754Z" fill="#171C4E"/>
<path d="M3.74511 22.5004H8.24527C8.24527 23.7432 9.25255 24.7505 10.495 24.7505H13.4949V32.2615L12.7554 31.5227C12.2672 31.0249 11.5977 30.7461 10.9001 30.7502C10.1393 30.7485 9.41528 31.0771 8.91542 31.6504C8.01868 32.738 8.10966 34.3324 9.12415 35.3108L10.8836 37.0703C12.342 38.584 13.6744 40.2144 14.8674 41.9454C16.2428 43.8573 18.452 44.9933 20.8071 44.9998H22.4949C22.5264 44.9957 22.5577 44.9892 22.5886 44.9813C22.6195 44.9892 22.6507 44.9957 22.6823 44.9998C26.719 44.9954 29.9901 41.7243 29.9945 37.6876V29.6252C29.998 28.6413 29.449 27.7387 28.5736 27.2893C27.6985 26.8396 26.6448 26.9192 25.8473 27.4953C25.4679 26.8763 24.8479 26.4434 24.1362 26.3009C23.4242 26.1588 22.6854 26.3198 22.0973 26.7455C21.4011 25.6012 19.9481 25.1759 18.7448 25.7636V24.7505H20.9949C21.5501 24.7484 22.0846 24.54 22.4949 24.1655C22.9048 24.54 23.4393 24.7484 23.9948 24.7505H34.4944C35.7371 24.7505 36.7444 23.7432 36.7444 22.5004H41.2442C42.4867 22.5004 43.4943 21.4931 43.4943 20.2507V18.0006C43.4905 14.6887 40.8065 12.0046 37.4942 12.0009H34.4944C32.6775 12.0029 30.9599 12.831 29.8267 14.2509H28.6625C27.5292 12.831 25.8116 12.0029 23.9948 12.0009H20.9949C19.1781 12.0029 17.4608 12.8306 16.3276 14.2509H15.162C14.0291 12.8306 12.3118 12.0029 10.495 12.0009H7.49513C4.18318 12.0046 1.49915 14.6887 1.49538 18.0006V20.2507C1.49538 21.4931 2.50266 22.5004 3.74511 22.5004ZM19.8699 27.0006C20.1686 26.9989 20.4556 27.117 20.667 27.3281C20.8785 27.5396 20.9963 27.8266 20.9949 28.1253V33.0003C20.9949 33.4144 21.3307 33.7501 21.7447 33.7501C22.1591 33.7501 22.4949 33.4144 22.4949 33.0003V28.8754C22.4949 28.254 22.9985 27.7504 23.6195 27.7504C24.2409 27.7504 24.7446 28.254 24.7446 28.8754V33.0003C24.7446 33.4144 25.0803 33.7501 25.4947 33.7501C25.9088 33.7501 26.2445 33.4144 26.2445 33.0003V29.6252C26.2445 29.0042 26.7482 28.5005 27.3696 28.5005C27.991 28.5005 28.4946 29.0042 28.4946 29.6252V37.6876C28.4908 40.8962 25.8909 43.4965 22.6823 43.4999C22.6507 43.5044 22.6195 43.5105 22.5886 43.5188C22.5577 43.5105 22.5264 43.5044 22.4949 43.4999H20.8071C18.9347 43.4968 17.1773 42.5949 16.0824 41.0754C14.8434 39.2775 13.4585 37.5846 11.9417 36.0136L10.1822 34.2541C9.72941 33.8301 9.67002 33.1328 10.0442 32.6381C10.2519 32.4085 10.5438 32.2725 10.8534 32.2612C11.1627 32.2502 11.4638 32.3649 11.6877 32.5787L12.4316 33.3227C12.8601 33.7539 13.5066 33.8833 14.0682 33.6509C14.6302 33.4188 14.9958 32.8702 14.9948 32.2622V20.7457C14.9691 20.1257 15.4178 19.5874 16.0323 19.5005C16.3609 19.4762 16.6839 19.596 16.917 19.8291C17.1282 20.0402 17.2463 20.3269 17.2449 20.6256V33.0003C17.2449 33.4144 17.5807 33.7501 17.9947 33.7501C18.4091 33.7501 18.7448 33.4144 18.7448 33.0003V28.1253C18.7448 27.5042 19.2485 27.0006 19.8699 27.0006ZM20.9949 23.2506H18.7448V20.6256C18.7476 19.9287 18.4712 19.2599 17.9775 18.7679C17.4392 18.2289 16.6939 17.9495 15.9338 18.0006C14.5265 18.1338 13.4616 19.3323 13.4949 20.7457V23.2506H10.495C10.081 23.2506 9.74521 22.9148 9.74521 22.5004V20.2507C9.74761 17.7665 11.7608 15.7533 14.245 15.7509H17.2449C19.7291 15.7533 21.7423 17.7665 21.7447 20.2507V22.5004C21.7447 22.6995 21.6657 22.8901 21.525 23.0308C21.3846 23.1716 21.1937 23.2506 20.9949 23.2506ZM35.2445 22.5004C35.2445 22.9148 34.9087 23.2506 34.4944 23.2506H23.9948C23.5804 23.2506 23.2446 22.9148 23.2446 22.5004V20.2507C23.2477 17.7665 25.2606 15.7536 27.7445 15.7509H30.7447C33.2286 15.7536 35.2414 17.7665 35.2445 20.2507V22.5004ZM37.4942 13.5008C39.9784 13.5032 41.9916 15.5164 41.9944 18.0006V20.2507C41.9944 20.6647 41.6583 21.0005 41.2442 21.0005H36.7444V20.2507C36.7393 17.3696 34.69 14.8974 31.8598 14.3587C32.6257 13.8022 33.5478 13.5018 34.4944 13.5008H37.4942ZM23.9948 13.5008C24.9413 13.5018 25.8634 13.8022 26.6294 14.3587C24.875 14.6935 23.3603 15.7904 22.4949 17.3528C21.6294 15.7907 20.115 14.6935 18.361 14.3587C19.1263 13.8022 20.0484 13.5018 20.9949 13.5008H23.9948ZM2.99531 18.0006C2.99772 15.5164 5.01091 13.5032 7.49513 13.5008H10.495C11.4415 13.5018 12.3633 13.8022 13.1289 14.3587C10.299 14.8974 8.24973 17.3696 8.24527 20.2507V21.0005H3.74511C3.33108 21.0005 2.99531 20.6647 2.99531 20.2507V18.0006Z" fill="#171C4E"/>
<path d="M20.2448 42.0001H23.2446C23.659 42.0001 23.9948 41.6643 23.9948 41.2503C23.9948 40.8359 23.659 40.5001 23.2446 40.5001H20.2448C19.8307 40.5001 19.495 40.8359 19.495 41.2503C19.495 41.6643 19.8307 42.0001 20.2448 42.0001Z" fill="#171C4E"/>
</g>
<defs>
<clipPath id="clip0">
<rect width="45" height="45" fill="white"/>
</clipPath>
</defs>
</svg>
