<svg width="51" height="71" viewBox="0 0 51 71" fill="none" xmlns="http://www.w3.org/2000/svg">
<path d="M2.04641 10.8135C1.71923 10.8137 1.4055 10.9438 1.17413 11.1751C0.942768 11.4065 0.812701 11.7202 0.8125 12.0474V68.8292C0.812701 69.1564 0.942768 69.4702 1.17413 69.7015C1.4055 69.9328 1.71923 70.063 2.04641 70.0631H48.9525C49.2797 70.063 49.5935 69.9328 49.8248 69.7015C50.0562 69.4702 50.1863 69.1564 50.1865 68.8292C50.1865 51.3879 50.1865 31.4364 50.1865 12.0474C50.1863 11.7202 50.0562 11.4065 49.8248 11.1751C49.5935 10.9438 49.2797 10.8137 48.9525 10.8135H36.6091C36.4437 10.8082 36.2789 10.8363 36.1245 10.8959C35.9701 10.9555 35.8293 11.0454 35.7104 11.1605C35.5916 11.2756 35.497 11.4133 35.4324 11.5657C35.3679 11.7181 35.3346 11.8819 35.3346 12.0474C35.3346 12.2129 35.3679 12.3768 35.4324 12.5291C35.497 12.6815 35.5916 12.8192 35.7104 12.9343C35.8293 13.0494 35.9701 13.1394 36.1245 13.199C36.2789 13.2586 36.4437 13.2867 36.6091 13.2813H47.7186C47.7187 31.8497 47.7186 50.809 47.7186 67.5953H3.28032V13.2813H14.3899C14.5553 13.2867 14.7201 13.2586 14.8744 13.199C15.0288 13.1394 15.1696 13.0494 15.2885 12.9343C15.4074 12.8192 15.502 12.6815 15.5665 12.5291C15.6311 12.3768 15.6643 12.2129 15.6643 12.0474C15.6643 11.8819 15.6311 11.7181 15.5665 11.5657C15.502 11.4133 15.4074 11.2756 15.2885 11.1605C15.1696 11.0454 15.0288 10.9555 14.8744 10.8959C14.7201 10.8363 14.5553 10.8082 14.3899 10.8135H2.04641Z" fill="#FFC444"/>
<path d="M6.98196 15.7494C6.65478 15.7496 6.34105 15.8797 6.10968 16.1111C5.87831 16.3424 5.74825 16.6562 5.74805 16.9833V63.8895C5.74819 64.2167 5.87824 64.5304 6.10961 64.7617C6.34099 64.9931 6.65474 65.1232 6.98196 65.1234H44.0168C44.344 65.1232 44.6578 64.9931 44.8892 64.7617C45.1205 64.5304 45.2506 64.2167 45.2507 63.8895V16.9833C45.2505 16.6562 45.1205 16.3424 44.8891 16.1111C44.6577 15.8797 44.344 15.7496 44.0168 15.7494H36.609C36.4436 15.7441 36.2788 15.7722 36.1244 15.8318C35.9701 15.8914 35.8293 15.9814 35.7104 16.0965C35.5915 16.2116 35.4969 16.3492 35.4324 16.5016C35.3678 16.654 35.3345 16.8179 35.3345 16.9833C35.3345 17.1488 35.3678 17.3127 35.4324 17.4651C35.4969 17.6174 35.5915 17.7551 35.7104 17.8702C35.8293 17.9853 35.9701 18.0753 36.1244 18.1349C36.2788 18.1945 36.4436 18.2226 36.609 18.2172H42.7785V62.6556H8.22027V18.2172H14.3898C14.5552 18.2226 14.72 18.1945 14.8744 18.1349C15.0287 18.0753 15.1695 17.9853 15.2884 17.8702C15.4073 17.7551 15.5019 17.6174 15.5664 17.4651C15.631 17.3127 15.6642 17.1488 15.6642 16.9833C15.6642 16.8179 15.631 16.654 15.5664 16.5016C15.5019 16.3492 15.4073 16.2116 15.2884 16.0965C15.1695 15.9814 15.0287 15.8914 14.8744 15.8318C14.72 15.7722 14.5552 15.7441 14.3898 15.7494H6.98196Z" fill="#FFC444"/>
<path d="M11.9224 23.1573C11.5952 23.1575 11.2815 23.2877 11.0501 23.519C10.8187 23.7503 10.6887 24.0641 10.6885 24.3913V34.2669C10.6886 34.5941 10.8187 34.9078 11.05 35.1392C11.2814 35.3706 11.5952 35.5007 11.9224 35.5008H21.7981C22.1253 35.5007 22.439 35.3706 22.6704 35.1392C22.9018 34.9078 23.0318 34.5941 23.032 34.2669V24.3913C23.0318 24.0641 22.9017 23.7503 22.6703 23.519C22.439 23.2877 22.1252 23.1575 21.7981 23.1573H11.9224ZM13.1563 25.6252H20.5641V33.033H13.1563V25.6252Z" fill="black"/>
<path fill-rule="evenodd" clip-rule="evenodd" d="M26.7552 23.157C26.5898 23.1517 26.425 23.1798 26.2706 23.2394C26.1163 23.299 25.9754 23.3889 25.8565 23.5041C25.7376 23.6192 25.6431 23.7568 25.5786 23.9092C25.514 24.0616 25.4807 24.2254 25.4807 24.3909C25.4807 24.5564 25.514 24.7203 25.5786 24.8726C25.6431 25.025 25.7376 25.1627 25.8565 25.2778C25.9754 25.3929 26.1163 25.4829 26.2706 25.5425C26.425 25.6021 26.5898 25.6302 26.7552 25.6248H39.0546C39.22 25.6302 39.3848 25.6021 39.5391 25.5425C39.6935 25.4829 39.8343 25.3929 39.9532 25.2778C40.0721 25.1627 40.1667 25.025 40.2312 24.8726C40.2958 24.7203 40.329 24.5564 40.329 24.3909C40.329 24.2254 40.2958 24.0616 40.2312 23.9092C40.1667 23.7568 40.0721 23.6192 39.9532 23.5041C39.8343 23.3889 39.6935 23.299 39.5391 23.2394C39.3848 23.1798 39.22 23.1517 39.0546 23.157H26.7552ZM26.7552 28.0926C26.5898 28.0873 26.425 28.1154 26.2706 28.175C26.1163 28.2346 25.9754 28.3246 25.8565 28.4397C25.7376 28.5548 25.6431 28.6925 25.5786 28.8448C25.514 28.9972 25.4807 29.1611 25.4807 29.3266C25.4807 29.492 25.514 29.6559 25.5786 29.8083C25.6431 29.9606 25.7376 30.0983 25.8565 30.2134C25.9754 30.3285 26.1163 30.4185 26.2706 30.4781C26.425 30.5377 26.5898 30.5658 26.7552 30.5605H39.0546C39.22 30.5658 39.3848 30.5377 39.5391 30.4781C39.6935 30.4185 39.8343 30.3285 39.9532 30.2134C40.0721 30.0983 40.1667 29.9606 40.2312 29.8083C40.2958 29.6559 40.329 29.492 40.329 29.3266C40.329 29.1611 40.2958 28.9972 40.2312 28.8448C40.1667 28.6925 40.0721 28.5548 39.9532 28.4397C39.8343 28.3246 39.6935 28.2346 39.5391 28.175C39.3848 28.1154 39.22 28.0873 39.0546 28.0926H26.7552ZM11.9483 37.9683C11.7832 37.9635 11.6188 37.9917 11.4648 38.0515C11.3109 38.1113 11.1705 38.2014 11.052 38.3165C10.9335 38.4315 10.8393 38.5692 10.775 38.7213C10.7106 38.8735 10.6775 39.0371 10.6775 39.2022C10.6775 39.3674 10.7106 39.531 10.775 39.6831C10.8393 39.8353 10.9335 39.9729 11.052 40.088C11.1705 40.2031 11.3109 40.2931 11.4648 40.353C11.6188 40.4128 11.7832 40.441 11.9483 40.4361H39.0502C39.2153 40.441 39.3797 40.4128 39.5336 40.353C39.6876 40.2931 39.828 40.2031 39.9465 40.088C40.065 39.9729 40.1592 39.8353 40.2235 39.6831C40.2878 39.531 40.321 39.3674 40.321 39.2022C40.321 39.0371 40.2878 38.8735 40.2235 38.7213C40.1592 38.5692 40.065 38.4315 39.9465 38.3165C39.828 38.2014 39.6876 38.1113 39.5336 38.0515C39.3797 37.9917 39.2153 37.9635 39.0502 37.9683H11.9483ZM11.9483 42.904C11.6204 42.904 11.306 43.034 11.0742 43.2659C10.8424 43.4977 10.7122 43.8122 10.7122 44.1401C10.7122 44.4679 10.8424 44.7822 11.0742 45.014C11.306 45.2458 11.6204 45.3762 11.9483 45.3762H39.0502C39.378 45.3762 39.6924 45.2458 39.9243 45.014C40.1561 44.7822 40.2863 44.4679 40.2863 44.1401C40.2863 43.8122 40.1561 43.4977 39.9243 43.2659C39.6924 43.034 39.378 42.904 39.0502 42.904H11.9483ZM31.6644 57.7197C31.4993 57.7148 31.3349 57.743 31.1809 57.8028C31.027 57.8627 30.8866 57.9527 30.7681 58.0678C30.6496 58.1829 30.5554 58.3205 30.4911 58.4727C30.4267 58.6248 30.3935 58.7884 30.3935 58.9536C30.3935 59.1187 30.4267 59.2823 30.4911 59.4345C30.5554 59.5866 30.6496 59.7243 30.7681 59.8393C30.8866 59.9544 31.027 60.0445 31.1809 60.1043C31.3349 60.1641 31.4993 60.1923 31.6644 60.1875H39.1207C39.2858 60.1923 39.4502 60.1641 39.6041 60.1043C39.7581 60.0445 39.8985 59.9544 40.017 59.8393C40.1355 59.7243 40.2297 59.5866 40.294 59.4345C40.3583 59.2823 40.3915 59.1187 40.3915 58.9536C40.3915 58.7884 40.3583 58.6248 40.294 58.4727C40.2297 58.3205 40.1355 58.1829 40.017 58.0678C39.8985 57.9527 39.7581 57.8627 39.6041 57.8028C39.4502 57.743 39.2858 57.7148 39.1207 57.7197H31.6644ZM26.7552 33.0327C26.5901 33.0278 26.4257 33.056 26.2717 33.1159C26.1178 33.1757 25.9774 33.2658 25.8589 33.3808C25.7404 33.4959 25.6462 33.6336 25.5819 33.7857C25.5175 33.9378 25.4844 34.1014 25.4844 34.2666C25.4844 34.4318 25.5175 34.5954 25.5819 34.7475C25.6462 34.8996 25.7404 35.0373 25.8589 35.1524C25.9774 35.2674 26.1178 35.3575 26.2717 35.4173C26.4257 35.4772 26.5901 35.5054 26.7552 35.5005H39.0546C39.2197 35.5054 39.3841 35.4772 39.538 35.4173C39.692 35.3575 39.8324 35.2674 39.9509 35.1524C40.0694 35.0373 40.1636 34.8996 40.2279 34.7475C40.2922 34.5954 40.3254 34.4318 40.3254 34.2666C40.3254 34.1014 40.2922 33.9378 40.2279 33.7857C40.1636 33.6336 40.0694 33.4959 39.9509 33.3808C39.8324 33.2658 39.692 33.1757 39.538 33.1159C39.3841 33.056 39.2197 33.0278 39.0546 33.0327H26.7552ZM11.9439 47.844C11.7785 47.8386 11.6137 47.8667 11.4593 47.9263C11.3049 47.9859 11.1641 48.0759 11.0453 48.191C10.9264 48.3061 10.8318 48.4438 10.7672 48.5962C10.7027 48.7485 10.6694 48.9124 10.6694 49.0779C10.6694 49.2434 10.7027 49.4073 10.7672 49.5596C10.8318 49.712 10.9264 49.8497 11.0453 49.9648C11.1641 50.0799 11.3049 50.1699 11.4593 50.2295C11.6137 50.2891 11.7785 50.3172 11.9439 50.3118H21.7358C21.9012 50.3172 22.066 50.2891 22.2204 50.2295C22.3747 50.1699 22.5156 50.0799 22.6345 49.9648C22.7533 49.8497 22.8479 49.712 22.9124 49.5596C22.977 49.4073 23.0103 49.2434 23.0103 49.0779C23.0103 48.9124 22.977 48.7485 22.9124 48.5962C22.8479 48.4438 22.7533 48.3061 22.6345 48.191C22.5156 48.0759 22.3747 47.9859 22.2204 47.9263C22.066 47.8667 21.9012 47.8386 21.7358 47.844H11.9439Z" fill="black"/>
<path d="M14.3896 8.34143C14.2272 8.3438 14.0669 8.37835 13.9178 8.44279C13.7687 8.50723 13.6338 8.60045 13.5208 8.71711C13.4079 8.83377 13.319 8.97148 13.2594 9.12254C13.1997 9.2736 13.1705 9.43499 13.1733 9.59737L13.1553 9.57479V19.4461C13.1548 19.6084 13.1863 19.7693 13.2481 19.9195C13.3099 20.0697 13.4007 20.2061 13.5153 20.3211C13.6299 20.4361 13.7661 20.5276 13.9161 20.5899C14.066 20.6522 14.2268 20.6843 14.3892 20.6844H36.6084C36.7707 20.6843 36.9315 20.6522 37.0814 20.5899C37.2314 20.5276 37.3676 20.4361 37.4822 20.3211C37.5968 20.2061 37.6876 20.0697 37.7494 19.9195C37.8112 19.7693 37.8427 19.6084 37.8422 19.4461V9.57479L37.8242 9.59737C37.827 9.43499 37.7978 9.2736 37.7381 9.12254C37.6785 8.97148 37.5897 8.83377 37.4767 8.71711C37.3637 8.60045 37.2288 8.50723 37.0797 8.44279C36.9306 8.37835 36.7703 8.3438 36.6079 8.34143H29.817C29.4892 8.34143 29.1748 8.4718 28.9429 8.70362C28.7111 8.93543 28.5809 9.24971 28.5809 9.57754C28.5809 9.90538 28.7111 10.2199 28.9429 10.4517C29.1748 10.6836 29.4892 10.8137 29.817 10.8137H35.374V18.2171H15.6226V10.8137H21.1796C21.5075 10.8137 21.8219 10.6836 22.0537 10.4517C22.2855 10.2199 22.4158 9.90538 22.4158 9.57754C22.4158 9.24971 22.2855 8.93543 22.0537 8.70362C21.8219 8.4718 21.5075 8.34143 21.1796 8.34143H14.3887H14.3896Z" fill="black"/>
<path d="M25.7372 0.94679C24.354 0.894896 22.9514 1.30097 21.7843 2.1807C19.4502 3.94015 18.6701 7.11593 19.9246 9.75601C19.9909 9.90732 20.087 10.0438 20.207 10.1573C20.327 10.2708 20.4686 10.359 20.6234 10.4168C20.7781 10.4746 20.9429 10.5007 21.108 10.4936C21.273 10.4866 21.435 10.4465 21.5843 10.3757C21.7335 10.3049 21.8671 10.2049 21.977 10.0816C22.0869 9.95822 22.1709 9.8141 22.2241 9.65769C22.2773 9.50128 22.2985 9.33578 22.2865 9.17101C22.2746 9.00624 22.2297 8.84548 22.1545 8.69838C21.3967 7.10341 21.8595 5.21348 23.2694 4.15054C24.6794 3.08761 26.6248 3.16354 27.9494 4.33095C29.274 5.49858 29.5894 7.41705 28.7118 8.94929C28.6243 9.0902 28.5661 9.24727 28.5406 9.41118C28.5152 9.57509 28.523 9.74255 28.5637 9.90337C28.6043 10.0642 28.677 10.2152 28.7773 10.3474C28.8776 10.4795 29.0036 10.59 29.1475 10.6724C29.2915 10.7547 29.4506 10.8071 29.6153 10.8266C29.7801 10.8461 29.947 10.8323 30.1063 10.7858C30.2655 10.7394 30.4137 10.6612 30.5421 10.5561C30.6705 10.4511 30.7764 10.3215 30.8535 10.1747C32.3063 7.63814 31.7728 4.41305 29.58 2.48009C28.4836 1.51372 27.1205 0.999538 25.7372 0.946515V0.94679Z" fill="black"/>
</svg>
