<svg width="16" height="16" viewBox="0 0 16 16" fill="none" xmlns="http://www.w3.org/2000/svg">
<path d="M9.76221 8.00095L15.7444 2.01851C15.9089 1.85382 15.9997 1.63412 16 1.39984C16 1.16543 15.9092 0.945465 15.7444 0.781042L15.2202 0.256945C15.0553 0.0918714 14.8356 0.00146484 14.6011 0.00146484C14.367 0.00146484 14.1473 0.0918714 13.9824 0.256945L8.00026 6.239L2.01782 0.256945C1.85327 0.0918714 1.63343 0.00146484 1.39902 0.00146484C1.16488 0.00146484 0.945041 0.0918714 0.780488 0.256945L0.256 0.781042C-0.0853333 1.12238 -0.0853333 1.67756 0.256 2.01851L6.23831 8.00095L0.256 13.9831C0.0913171 14.1481 0.000650406 14.3678 0.000650406 14.6021C0.000650406 14.8363 0.0913171 15.056 0.256 15.2209L0.780358 15.7449C0.944911 15.9099 1.16488 16.0004 1.39889 16.0004C1.6333 16.0004 1.85314 15.9099 2.01769 15.7449L8.00013 9.76277L13.9823 15.7449C14.1471 15.9099 14.3668 16.0004 14.601 16.0004H14.6012C14.8355 16.0004 15.0552 15.9099 15.22 15.7449L15.7443 15.2209C15.9088 15.0562 15.9996 14.8363 15.9996 14.6021C15.9996 14.3678 15.9088 14.1481 15.7443 13.9833L9.76221 8.00095Z" fill="white"/>
</svg>
