<svg width="49" height="49" viewBox="0 0 49 49" fill="none" xmlns="http://www.w3.org/2000/svg">
<path d="M39.7655 42.6774L37.9359 37.1878C37.2965 35.2713 35.6653 33.8566 33.6768 33.4946L28.3951 32.5336V32.1242C29.3142 31.5907 30.1141 30.8771 30.7511 30.0322H32.3467C33.6539 30.0322 34.7177 28.9685 34.7177 27.6613V18.1774C34.7177 12.5124 30.1085 7.9032 24.4435 7.9032C18.7785 7.9032 14.1693 12.5124 14.1693 18.1774V23.7096C14.1693 25.2334 15.2528 26.5082 16.6896 26.8053C17.133 29.0767 18.5524 30.9988 20.4919 32.1242V32.5336L15.2094 33.4946C13.2217 33.8566 11.5897 35.2713 10.9511 37.1878L10.635 38.137L7.94313 35.4451C7.63491 35.1369 7.63491 34.6351 7.94313 34.3268L11.0649 31.2059L5.20546 25.3464L1.67746 28.8744C0.632652 29.9192 0.0572968 31.3086 0.0572968 32.7865C0.0572968 34.2644 0.632652 35.653 1.67746 36.6978L12.3587 47.379C13.4035 48.4238 14.7929 49 16.2708 49C17.7487 49 19.1373 48.4238 20.1576 47.4027L24.0072 43.8755L22.8067 42.6774H39.7655ZM33.137 27.6613C33.137 28.0975 32.7822 28.4516 32.3467 28.4516H31.6821C31.9112 27.9292 32.0851 27.3783 32.1973 26.8053C32.5356 26.735 32.847 26.6006 33.137 26.4315V27.6613ZM32.3467 25.0706V22.3487C32.817 22.623 33.137 23.1272 33.137 23.7096C33.137 24.2921 32.817 24.7963 32.3467 25.0706ZM16.5403 25.0706C16.07 24.7963 15.7499 24.2921 15.7499 23.7096C15.7499 23.1272 16.07 22.623 16.5403 22.3487V25.0706ZM16.5403 19.758V20.6606C16.2589 20.7341 15.9949 20.8447 15.7499 20.9878V18.1774C15.7499 13.3841 19.6502 9.48384 24.4435 9.48384C29.2368 9.48384 33.137 13.3841 33.137 18.1774V20.9878C32.892 20.8447 32.6281 20.7333 32.3467 20.6606V19.758H31.5564C29.2194 19.758 27.0223 18.8476 25.369 17.195L24.4435 16.2696L23.518 17.195C21.8647 18.8476 19.6676 19.758 17.3306 19.758H16.5403ZM18.1209 25.2903V21.3086C20.4942 21.13 22.7071 20.1508 24.4435 18.4998C26.1798 20.1508 28.3927 21.1308 30.7661 21.3086V25.2903C30.7661 26.4426 30.4515 27.5206 29.9109 28.4516H24.4435V30.0322H28.6117C27.4973 31.013 26.0407 31.6129 24.4435 31.6129C20.9574 31.6129 18.1209 28.7764 18.1209 25.2903ZM26.8145 32.8292V32.8663L24.4435 35.2373L22.0725 32.8663V32.8292C22.8217 33.0647 23.6176 33.1935 24.4435 33.1935C25.2694 33.1935 26.0652 33.0647 26.8145 32.8292ZM12.4496 37.6873C12.9056 36.3185 14.0713 35.3076 15.4915 35.0484L21.0159 34.0447L24.4435 37.4723L27.8703 34.0455L33.3939 35.0492C34.8141 35.3084 35.9798 36.3185 36.4358 37.6881L37.5731 41.0967H21.2261L18.1478 38.0184L14.7273 41.1126C14.4293 41.4121 13.9085 41.4121 13.6097 41.1126L11.8837 39.3865L12.4496 37.6873ZM5.20467 27.5814L8.82909 31.2059L7.9708 32.0641L4.34638 28.4397L5.20467 27.5814ZM19.063 46.2631C18.3169 47.0076 17.3243 47.4193 16.2692 47.4193C15.2141 47.4193 14.2215 47.0076 13.4746 46.2615L2.79339 35.5811C2.04733 34.835 1.63636 33.8424 1.63636 32.7873C1.63636 31.7314 2.04733 30.7388 2.79339 29.9927L3.22807 29.558L6.85249 33.1825L6.82404 33.2109C5.90015 34.1356 5.90015 35.6396 6.82404 36.5642L12.4914 42.2316C12.9396 42.679 13.5347 42.9263 14.1685 42.9263C14.8023 42.9263 15.3975 42.6798 15.8163 42.2593L15.8756 42.2064L19.5166 45.8474L19.063 46.2631ZM20.6831 44.7773L17.05 41.1442L18.094 40.2005L21.7208 43.8273L20.6831 44.7773Z" fill="#171C4E"/>
<path d="M46.5725 0H35.508C34.2008 0 33.137 1.06377 33.137 2.37097V8.69355C33.137 10.0007 34.2008 11.0645 35.508 11.0645H37.619L36.8018 15.831L44.4284 11.0645H46.5725C47.8797 11.0645 48.9435 10.0007 48.9435 8.69355V2.37097C48.9435 1.06377 47.8797 0 46.5725 0ZM47.3628 8.69355C47.3628 9.12902 47.008 9.48387 46.5725 9.48387H43.9747L38.9554 12.6207L39.4936 9.48387H35.508C35.0725 9.48387 34.7177 9.12902 34.7177 8.69355V2.37097C34.7177 1.9355 35.0725 1.58065 35.508 1.58065H46.5725C47.008 1.58065 47.3628 1.9355 47.3628 2.37097V8.69355Z" fill="#171C4E"/>
<path d="M45.7822 3.16125H36.2983V4.7419H45.7822V3.16125Z" fill="#171C4E"/>
<path d="M42.6209 6.32263H36.2983V7.90328H42.6209V6.32263Z" fill="#171C4E"/>
<path d="M45.7822 6.32263H44.2016V7.90328H45.7822V6.32263Z" fill="#171C4E"/>
<path d="M24.4435 2.37097C14.1171 2.37097 5.22207 9.51391 2.90958 19.4775L1.41192 16.9809L0.0565186 17.7941L2.8345 22.423L7.46342 19.6451L6.65018 18.2896L4.50841 19.5747C6.74818 10.4599 14.9446 3.95162 24.4435 3.95162C26.5197 3.95162 28.5682 4.25984 30.5321 4.86839L31 3.35887C28.8843 2.70291 26.6785 2.37097 24.4435 2.37097Z" fill="#171C4E"/>
<path d="M48.5594 17.4993L43.9305 14.7213L41.1533 19.351L42.5087 20.1643L43.8917 17.8589C44.6196 19.9888 44.9919 22.2167 44.9919 24.5C44.9919 29.2 43.3638 33.795 40.4088 37.4376L41.6362 38.4334C44.8196 34.5102 46.5725 29.5612 46.5725 24.5C46.5725 22.0824 46.1829 19.7217 45.4234 17.4614L47.7462 18.8547L48.5594 17.4993Z" fill="#171C4E"/>
</svg>
