<svg width="161" height="161" viewBox="0 0 161 161" fill="none" xmlns="http://www.w3.org/2000/svg">
<circle cx="79.8711" cy="81.1289" r="70.0664" stroke="#FFC444" stroke-width="2"/>
<circle cx="80.5" cy="80.5" r="80" stroke="#FFC444" stroke-opacity="0.5"/>
<circle cx="79.8711" cy="81.1289" r="62.2617" fill="#FFC444"/>
<path d="M105.488 113.241L104.012 104.692C103.909 104.094 103.341 103.692 102.742 103.796C102.144 103.899 101.743 104.467 101.847 105.066L103.322 113.615C103.416 114.159 103.266 114.714 102.91 115.137C102.554 115.56 102.033 115.803 101.48 115.803H96.8184L95.8067 110.451C95.6939 109.855 95.1191 109.463 94.523 109.576C93.9268 109.689 93.5348 110.263 93.6475 110.859L94.582 115.803H68.4176L69.3522 110.859C69.465 110.263 69.073 109.688 68.4766 109.576C67.8803 109.463 67.3058 109.855 67.193 110.451L66.1814 115.803H61.5201C60.9673 115.803 60.4459 115.56 60.0898 115.137C59.7337 114.714 59.5833 114.159 59.6775 113.614L62.3558 98.0993C62.6567 96.3569 63.8715 94.8873 65.5261 94.264L68.0786 93.3027L74.3174 101.957C74.7469 102.552 75.4121 102.938 76.1423 103.015C76.2324 103.024 76.3223 103.029 76.4118 103.029C77.0498 103.029 77.6704 102.792 78.1475 102.36L81.5 99.3204L84.8524 102.36C85.3294 102.793 85.95 103.029 86.5881 103.029C86.6777 103.029 86.7677 103.025 86.8576 103.015C87.5879 102.938 88.253 102.553 88.6825 101.957L94.9213 93.303L97.4738 94.2643C99.1285 94.8875 100.343 96.3572 100.644 98.0996L101.103 100.759C101.206 101.357 101.775 101.758 102.373 101.654C102.971 101.551 103.372 100.983 103.268 100.385L102.809 97.7258C102.377 95.219 100.629 93.1048 98.2484 92.2081L87.2893 88.1164C86.9287 87.984 86.6864 87.6368 86.6864 87.2526V85.5893C91.0261 83.6539 94.0601 79.3016 94.0601 74.2511V68.0211H95.082C95.6887 68.0211 96.1806 67.5292 96.1806 66.9225C96.1806 66.3157 95.6887 65.8238 95.082 65.8238H87.8735C85.7937 65.8238 83.7702 65.0883 82.1757 63.753L78.3484 60.5473C77.8985 60.1706 77.3076 60.0037 76.7269 60.089C76.1464 60.1745 75.6287 60.5048 75.3068 60.9954L74.7648 61.8207C73.2248 64.1659 70.6333 65.6574 67.8325 65.8106C67.2267 65.8438 66.7625 66.3617 66.7956 66.9676C66.8287 67.5734 67.3477 68.039 67.9525 68.0045C68.2843 67.9864 68.6137 67.953 68.94 67.9054V74.2512C68.94 79.3016 71.9741 83.654 76.3137 85.5894V87.2527C76.3137 87.637 76.0714 87.9841 75.7108 88.1165L64.7517 92.2083C62.3712 93.1049 60.6233 95.2191 60.1906 97.7259L57.5123 113.241C57.3078 114.426 57.6346 115.633 58.4092 116.553C59.1838 117.472 60.3177 118 61.5201 118H101.48C102.682 118 103.816 117.472 104.591 116.553C105.365 115.633 105.692 114.426 105.488 113.241ZM76.6717 100.732C76.5605 100.833 76.4363 100.837 76.3723 100.83C76.3081 100.823 76.1876 100.794 76.0998 100.672L70.209 92.5005L72.0218 91.8178L79.5141 98.1548L76.6717 100.732ZM86.9001 100.672C86.8124 100.794 86.6918 100.823 86.6277 100.83C86.5635 100.837 86.4394 100.833 86.3282 100.732L83.4857 98.155L90.9779 91.8179L92.7908 92.5007L86.9001 100.672ZM71.1372 74.2511V67.3481C73.3496 66.5384 75.2841 65.0331 76.6014 63.0267L77.0574 62.3322L80.7648 65.4374C82.7542 67.1035 85.2787 68.0211 87.8735 68.0211H91.8627V74.2511C91.8627 79.8825 87.2813 84.464 81.6498 84.464H81.35C75.7187 84.464 71.1372 79.8825 71.1372 74.2511ZM76.4684 90.1789C77.6902 89.7302 78.511 88.5541 78.511 87.2526V86.3297C79.4234 86.5442 80.3731 86.6612 81.35 86.6612H81.6498C82.6267 86.6612 83.5764 86.5442 84.4888 86.3297V87.2526C84.4888 88.5541 85.3097 89.7302 86.5314 90.1789L88.6103 90.9425L81.9541 96.5725C81.922 96.5996 81.888 96.6232 81.8528 96.6437C81.7462 96.7055 81.6245 96.7388 81.5 96.7388C81.3755 96.7388 81.2537 96.7055 81.1472 96.6438C81.1119 96.6233 81.0779 96.5996 81.0457 96.5725L74.3895 90.9425L76.4684 90.1789Z" fill="black"/>
<path d="M67.3943 82.5401C67.4816 82.5613 67.5689 82.5714 67.6549 82.5714C68.1499 82.5714 68.5993 82.2345 68.7216 81.7322C68.865 81.1426 68.5034 80.5483 67.9138 80.4049C66.214 79.9914 65.0269 78.4809 65.0269 76.7315V69.6752V66.26C65.0269 62.4514 66.9854 59.0937 69.9465 57.1347H93.053C96.0143 59.0935 97.9727 62.4514 97.9727 66.26V69.6752V76.7315C97.9727 78.4809 96.7855 79.9914 95.0857 80.4049C94.4963 80.5483 94.1345 81.1426 94.2779 81.7322C94.4 82.2345 94.8495 82.5714 95.3446 82.5714C95.4304 82.5714 95.5179 82.5612 95.6052 82.5401C98.2929 81.8863 100.17 79.4978 100.17 76.7317V69.6754V66.2601C100.17 61.9423 98.0749 58.1056 94.8487 55.7102L96.6839 52.526C97.6743 50.8078 97.2001 48.6411 95.581 47.4864C94.636 46.8124 93.618 46.196 92.5551 45.6544C92.0145 45.3791 91.3527 45.5938 91.0773 46.1345C90.802 46.6751 91.0168 47.3367 91.5574 47.6122C92.5239 48.1047 93.4483 48.6643 94.3051 49.2752C94.9984 49.7698 95.2026 50.6957 94.7802 51.4289L92.7578 54.9376H70.2443L68.2204 51.4289C67.7973 50.6956 68.0014 49.7695 68.695 49.2748C70.8304 47.752 75.3333 45.1973 81.4999 45.1973C83.4484 45.1973 85.3806 45.4511 87.2427 45.9517C87.8285 46.1091 88.4314 45.762 88.5889 45.176C88.7465 44.5901 88.3992 43.9873 87.8132 43.8298C85.7651 43.2792 83.6409 43 81.4999 43C74.7215 43 69.7684 45.8106 67.4192 47.4858C65.7994 48.641 65.3257 50.8081 66.3171 52.5268L68.1522 55.7081C64.925 58.1034 62.8296 61.9415 62.8296 66.2601V69.6754V76.7317C62.8296 79.4978 64.7066 81.8862 67.3943 82.5401Z" fill="black"/>
<path d="M78.4413 70.9902C78.4413 70.3834 77.9494 69.8915 77.3427 69.8915H76.4219C75.8151 69.8915 75.3232 70.3834 75.3232 70.9902C75.3232 71.5969 75.8151 72.0888 76.4219 72.0888H77.3427C77.9494 72.0888 78.4413 71.5969 78.4413 70.9902Z" fill="black"/>
<path d="M85.6572 72.0888H86.5779C87.1846 72.0888 87.6765 71.5969 87.6765 70.9902C87.6765 70.3834 87.1846 69.8915 86.5779 69.8915H85.6572C85.0505 69.8915 84.5586 70.3834 84.5586 70.9902C84.5586 71.5969 85.0505 72.0888 85.6572 72.0888Z" fill="black"/>
<path d="M81.5 52.9826C82.1068 52.9826 82.5987 52.4907 82.5987 51.8839V51.1659H83.3167C83.9235 51.1659 84.4154 50.674 84.4154 50.0672C84.4154 49.4605 83.9235 48.9686 83.3167 48.9686H82.5987V48.2505C82.5987 47.6438 82.1068 47.1519 81.5 47.1519C80.8933 47.1519 80.4014 47.6438 80.4014 48.2505V48.9686H79.6833C79.0766 48.9686 78.5847 49.4605 78.5847 50.0672C78.5847 50.674 79.0766 51.1659 79.6833 51.1659H80.4014V51.8839C80.4014 52.4907 80.8933 52.9826 81.5 52.9826Z" fill="black"/>
<path d="M82.5986 102.784C82.5986 102.178 82.1067 101.686 81.5 101.686C80.8933 101.686 80.4014 102.178 80.4014 102.784V103.545C80.4014 104.152 80.8933 104.644 81.5 104.644C82.1067 104.644 82.5986 104.152 82.5986 103.545V102.784Z" fill="black"/>
<path d="M82.5986 107.361C82.5986 106.754 82.1067 106.262 81.5 106.262C80.8933 106.262 80.4014 106.754 80.4014 107.361V108.122C80.4014 108.728 80.8933 109.22 81.5 109.22C82.1067 109.22 82.5986 108.728 82.5986 108.122V107.361Z" fill="black"/>
<path d="M81.5 111.061C80.8933 111.061 80.4014 111.553 80.4014 112.159V112.92C80.4014 113.527 80.8933 114.019 81.5 114.019C82.1067 114.019 82.5986 113.527 82.5986 112.92V112.159C82.5986 111.553 82.1067 111.061 81.5 111.061Z" fill="black"/>
<path d="M84.6105 79.6091L84.8793 79.4635C85.4129 79.1745 85.6111 78.5078 85.3221 77.9742C85.0331 77.4405 84.3663 77.2423 83.8328 77.5313L83.564 77.677C82.2716 78.3769 80.7283 78.3769 79.4356 77.677L79.1668 77.5313C78.633 77.2422 77.9665 77.4405 77.6775 77.9742C77.3885 78.5077 77.5867 79.1745 78.1203 79.4635L78.3891 79.6092C79.363 80.1366 80.4314 80.4002 81.4997 80.4002C82.5682 80.4002 83.6366 80.1366 84.6105 79.6091Z" fill="black"/>
<g clip-path="url(#clip0)">
<path d="M55.8842 70.771C55.728 70.5025 55.3837 70.4114 55.1152 70.5675L52.3684 72.1553C52.0999 72.3114 52.0088 72.6558 52.1649 72.9243C52.3211 73.1928 52.6654 73.284 52.9339 73.1278L55.6807 71.5401C55.9492 71.3838 56.0403 71.0396 55.8842 70.771Z" fill="black"/>
<path d="M55.6807 85.463L52.9339 83.8753C52.6654 83.7191 52.3211 83.8102 52.1649 84.0788C52.0088 84.3473 52.0999 84.6917 52.3684 84.8478L55.1152 86.4355C55.3837 86.5917 55.728 86.5006 55.8842 86.232C56.0403 85.9634 55.9492 85.6191 55.6807 85.463Z" fill="black"/>
<path d="M42.5434 89.6144C42.2319 89.5912 41.9608 89.825 41.9376 90.1365C41.9355 90.1643 41.9355 90.1923 41.9376 90.2202V93.3926C41.9145 93.7041 42.1482 93.9753 42.4597 93.9984C42.7712 94.0216 43.0424 93.7878 43.0655 93.4763C43.0676 93.4484 43.0676 93.4205 43.0655 93.3926V90.2202C43.0886 89.9088 42.8548 89.6375 42.5434 89.6144Z" fill="black"/>
<path d="M32.6318 72.1553L29.8851 70.5675C29.6166 70.4114 29.2722 70.5025 29.1161 70.771C28.96 71.0396 29.0511 71.3839 29.3196 71.5401L32.0663 73.1278C32.3349 73.284 32.6792 73.1928 32.8354 72.9243C32.9915 72.6557 32.9004 72.3114 32.6318 72.1553Z" fill="black"/>
<path d="M42.5434 63.0016C42.2319 62.9785 41.9608 63.2122 41.9376 63.5237C41.9355 63.5516 41.9355 63.5796 41.9376 63.6075V66.7799C41.9393 67.0897 42.1901 67.3406 42.5 67.3423C42.8123 67.3423 43.0655 67.0891 43.0655 66.7768V63.6075C43.0886 63.296 42.8548 63.0248 42.5434 63.0016Z" fill="black"/>
<path d="M37.1245 68.0662L35.5398 65.3194C35.3837 65.0509 35.0393 64.9598 34.7708 65.1159C34.5023 65.2721 34.4111 65.6164 34.5673 65.8849L36.1519 68.6317C36.3081 68.9002 36.6524 68.9913 36.9209 68.8352C37.1895 68.679 37.2806 68.3347 37.1245 68.0662Z" fill="black"/>
<path d="M42.5837 73.4819C42.5558 73.4798 42.5279 73.4798 42.5 73.4819C39.7286 73.4819 37.4819 75.7285 37.4819 78.5C37.4819 78.8123 37.7351 79.0655 38.0474 79.0655C38.3585 79.0638 38.6098 78.8111 38.6098 78.5C38.6081 76.3532 40.347 74.6115 42.4938 74.6098C42.4959 74.6098 42.4979 74.6098 42.5 74.6098C42.8115 74.633 43.0827 74.3992 43.1058 74.0877C43.129 73.7762 42.8952 73.505 42.5837 73.4819Z" fill="black"/>
<path d="M57.9147 78.4565C57.8939 78.1773 57.6719 77.9552 57.3926 77.9344H54.2202C53.9087 77.9113 53.6375 78.145 53.6144 78.4565C53.5912 78.768 53.825 79.0392 54.1365 79.0623C54.1643 79.0644 54.1924 79.0644 54.2203 79.0623H57.3927C57.7041 79.0393 57.9378 78.768 57.9147 78.4565Z" fill="black"/>
<path d="M30.8635 77.9377C30.8357 77.9356 30.8077 77.9356 30.7798 77.9377H27.6074C27.2959 77.9608 27.0622 78.2321 27.0853 78.5435C27.1061 78.8227 27.3281 79.0448 27.6074 79.0656H30.7798C31.0913 79.0887 31.3625 78.855 31.3856 78.5435C31.4088 78.232 31.175 77.9607 30.8635 77.9377Z" fill="black"/>
<path d="M42.5023 70.2007C37.9188 70.2001 34.2026 73.9152 34.2019 78.4987C34.2016 80.7007 35.0764 82.8126 36.6336 84.3693C38.1879 85.9275 40.2992 86.8019 42.5 86.7991C47.0835 86.7997 50.7997 83.0846 50.8003 78.5011C50.8009 73.9175 47.0858 70.2013 42.5023 70.2007ZM47.5708 83.5801C44.7703 86.3807 40.2296 86.3807 37.4291 83.5801C36.0819 82.2329 35.3262 80.405 35.3286 78.4999C35.3259 76.5974 36.0819 74.7723 37.4291 73.429V73.4383C40.2296 70.6378 44.7703 70.6378 47.5708 73.4383C50.3715 76.2389 50.3715 80.7795 47.5708 83.5801Z" fill="black"/>
<path d="M50.434 91.1177C50.4335 91.1169 50.4331 91.116 50.4325 91.1152L48.8447 88.3685C48.6886 88.1 48.3443 88.0089 48.0757 88.165C47.8072 88.3211 47.7161 88.6655 47.8722 88.934L49.46 91.6807C49.6155 91.9489 49.9588 92.0407 50.2274 91.8858C50.4966 91.7307 50.5891 91.3868 50.434 91.1177Z" fill="black"/>
<path d="M50.2477 65.1159C49.9791 64.9598 49.6348 65.0509 49.4787 65.3194L47.8909 68.0662C47.7337 68.3341 47.8235 68.6787 48.0913 68.8358C48.0919 68.8361 48.0923 68.8364 48.0929 68.8367C48.3612 68.9932 48.7055 68.9025 48.862 68.6341C48.8624 68.6333 48.863 68.6324 48.8634 68.6317L50.4512 65.8849C50.6073 65.6163 50.5162 65.2721 50.2477 65.1159Z" fill="black"/>
<path d="M36.9241 88.165C36.6555 88.0089 36.3112 88.1 36.155 88.3685L34.5673 91.1152C34.4111 91.3838 34.5023 91.7281 34.7708 91.8842C35.0393 92.0404 35.3837 91.9493 35.5398 91.6807L37.1276 88.934C37.2837 88.6654 37.1926 88.3211 36.9241 88.165Z" fill="black"/>
<path d="M32.8354 84.0758C32.6792 83.8072 32.3349 83.7161 32.0663 83.8723L29.3196 85.46C29.0511 85.6162 28.96 85.9605 29.1161 86.2291C29.2722 86.4976 29.6166 86.5887 29.8851 86.4326L32.6318 84.8448C32.9004 84.6886 32.9915 84.3443 32.8354 84.0758Z" fill="black"/>
</g>
<defs>
<clipPath id="clip0">
<rect width="31" height="31" fill="white" transform="translate(27 63)"/>
</clipPath>
</defs>
</svg>
