<svg width="114" height="104" viewBox="0 0 114 104" fill="none" xmlns="http://www.w3.org/2000/svg">
<path d="M5.33726 101.59C5.33726 102.066 5.19572 102.532 4.93055 102.929C4.66538 103.325 4.28848 103.634 3.84751 103.816C3.40654 103.999 2.92132 104.047 2.45319 103.954C1.98506 103.861 1.55506 103.631 1.21756 103.294C0.880056 102.957 0.650215 102.527 0.557098 102.06C0.463982 101.592 0.511773 101.108 0.694427 100.667C0.877081 100.227 1.1864 99.8502 1.58326 99.5853C1.98012 99.3205 2.4467 99.1791 2.92399 99.1791C3.56403 99.1791 4.17786 99.433 4.63043 99.8851C5.08301 100.337 5.33726 100.95 5.33726 101.59Z" fill="#444B8C"/>
<path d="M5.33726 87.4336C5.33726 87.9103 5.19572 88.3763 4.93055 88.7727C4.66538 89.1691 4.28848 89.4781 3.84751 89.6605C3.40654 89.843 2.92132 89.8907 2.45319 89.7977C1.98506 89.7047 1.55506 89.4751 1.21756 89.138C0.880056 88.8009 0.650215 88.3714 0.557098 87.9038C0.463982 87.4362 0.511773 86.9516 0.694427 86.5111C0.877081 86.0707 1.1864 85.6942 1.58326 85.4293C1.98011 85.1645 2.44669 85.0231 2.92399 85.0231C3.24172 85.0202 3.55685 85.0805 3.85096 85.2006C4.14508 85.3207 4.41228 85.4982 4.63696 85.7226C4.86163 85.947 5.03928 86.2139 5.15952 86.5077C5.27977 86.8014 5.34019 87.1162 5.33726 87.4336Z" fill="#444B8C"/>
<path d="M5.33726 73.2558C5.33726 73.7326 5.19572 74.1986 4.93055 74.595C4.66538 74.9914 4.28848 75.3004 3.84751 75.4828C3.40654 75.6652 2.92132 75.713 2.45319 75.62C1.98506 75.527 1.55506 75.2974 1.21756 74.9603C0.880056 74.6232 0.650215 74.1937 0.557098 73.7261C0.463982 73.2585 0.511773 72.7739 0.694427 72.3334C0.877081 71.893 1.1864 71.5165 1.58326 71.2516C1.98012 70.9868 2.4467 70.8454 2.92399 70.8454C3.56403 70.8454 4.17786 71.0994 4.63043 71.5514C5.08301 72.0034 5.33726 72.6166 5.33726 73.2558Z" fill="#444B8C"/>
<path d="M5.33723 59.1656C5.34158 59.6432 5.20375 60.1114 4.94123 60.5107C4.67872 60.9099 4.30335 61.2223 3.86279 61.4081C3.42222 61.5939 2.93632 61.6448 2.46675 61.5543C1.99719 61.4637 1.56514 61.2359 1.22544 60.8997C0.88574 60.5635 0.65371 60.134 0.558802 59.6659C0.463893 59.1977 0.510386 58.7119 0.692378 58.2702C0.87437 57.8285 1.18365 57.4507 1.58098 57.1848C1.9783 56.919 2.44574 56.7771 2.92397 56.777C3.56022 56.777 4.17074 57.028 4.62269 57.4753C5.07464 57.9226 5.33145 58.5301 5.33723 59.1656Z" fill="#444B8C"/>
<path d="M5.33726 44.922C5.33726 45.3988 5.19572 45.8648 4.93055 46.2612C4.66538 46.6576 4.28848 46.9666 3.84751 47.149C3.40654 47.3314 2.92132 47.3792 2.45319 47.2862C1.98506 47.1932 1.55506 46.9636 1.21756 46.6265C0.880056 46.2894 0.650215 45.8599 0.557098 45.3923C0.463982 44.9247 0.511773 44.44 0.694427 43.9996C0.877081 43.5591 1.1864 43.1827 1.58326 42.9178C1.98011 42.6529 2.44669 42.5116 2.92399 42.5116C3.24172 42.5087 3.55685 42.569 3.85096 42.6891C4.14508 42.8092 4.41228 42.9866 4.63696 43.2111C4.86163 43.4355 5.03928 43.7024 5.15952 43.9961C5.27977 44.2899 5.34019 44.6047 5.33726 44.922Z" fill="#444B8C"/>
<path d="M5.33726 30.6785C5.33726 31.1553 5.19572 31.6213 4.93055 32.0177C4.66538 32.4141 4.28848 32.723 3.84751 32.9055C3.40654 33.0879 2.92132 33.1357 2.45319 33.0426C1.98506 32.9496 1.55506 32.7201 1.21756 32.383C0.880056 32.0459 0.650215 31.6164 0.557098 31.1488C0.463982 30.6812 0.511773 30.1965 0.694427 29.7561C0.877081 29.3156 1.1864 28.9392 1.58326 28.6743C1.98012 28.4094 2.4467 28.2681 2.92399 28.2681C3.56403 28.2681 4.17786 28.522 4.63043 28.9741C5.08301 29.4261 5.33726 30.0392 5.33726 30.6785Z" fill="#444B8C"/>
<path d="M5.33723 16.5663C5.34158 17.044 5.20375 17.5122 4.94123 17.9114C4.67872 18.3107 4.30335 18.6231 3.86279 18.8089C3.42222 18.9947 2.93632 19.0455 2.46675 18.955C1.99719 18.8645 1.56514 18.6367 1.22544 18.3005C0.88574 17.9642 0.65371 17.5348 0.558802 17.0666C0.463893 16.5985 0.510386 16.1127 0.692378 15.6709C0.87437 15.2292 1.18365 14.8514 1.58098 14.5856C1.9783 14.3198 2.44574 14.1778 2.92397 14.1778C3.56022 14.1778 4.17074 14.4287 4.62269 14.876C5.07464 15.3234 5.33145 15.9308 5.33723 16.5663Z" fill="#444B8C"/>
<path d="M5.33726 2.41051C5.33726 2.88725 5.19572 3.35329 4.93055 3.74969C4.66538 4.14608 4.28848 4.45504 3.84751 4.63748C3.40654 4.81992 2.92132 4.86765 2.45319 4.77465C1.98506 4.68164 1.55506 4.45207 1.21756 4.11496C0.880056 3.77785 0.650215 3.34835 0.557098 2.88077C0.463982 2.41319 0.511773 1.92852 0.694427 1.48807C0.877081 1.04762 1.1864 0.671159 1.58326 0.406295C1.98012 0.141432 2.4467 6.10352e-05 2.92399 6.10352e-05C3.56403 6.10352e-05 4.17786 0.254019 4.63043 0.706066C5.08301 1.15811 5.33726 1.77122 5.33726 2.41051Z" fill="#444B8C"/>
<path d="M20.8699 101.59C20.8699 102.066 20.7284 102.532 20.4632 102.929C20.198 103.325 19.8211 103.634 19.3801 103.816C18.9392 103.999 18.4539 104.047 17.9858 103.954C17.5177 103.861 17.0877 103.631 16.7502 103.294C16.4127 102.957 16.1828 102.527 16.0897 102.06C15.9966 101.592 16.0444 101.108 16.2271 100.667C16.4097 100.227 16.719 99.8502 17.1159 99.5853C17.5127 99.3205 17.9793 99.1791 18.4566 99.1791C19.0967 99.1791 19.7105 99.433 20.1631 99.8851C20.6156 100.337 20.8699 100.95 20.8699 101.59Z" fill="#444B8C"/>
<path d="M20.8699 87.4336C20.8699 87.9103 20.7284 88.3763 20.4632 88.7727C20.198 89.1691 19.8211 89.4781 19.3801 89.6605C18.9392 89.843 18.4539 89.8907 17.9858 89.7977C17.5177 89.7047 17.0877 89.4751 16.7502 89.138C16.4127 88.8009 16.1828 88.3714 16.0897 87.9038C15.9966 87.4362 16.0444 86.9516 16.2271 86.5111C16.4097 86.0707 16.719 85.6942 17.1159 85.4293C17.5127 85.1645 17.9793 85.0231 18.4566 85.0231C18.7744 85.0202 19.0895 85.0805 19.3836 85.2006C19.6777 85.3207 19.9449 85.4982 20.1696 85.7226C20.3943 85.947 20.5719 86.2139 20.6922 86.5077C20.8124 86.8014 20.8728 87.1162 20.8699 87.4336Z" fill="#444B8C"/>
<path d="M20.8699 73.2558C20.8699 73.7326 20.7284 74.1986 20.4632 74.595C20.198 74.9914 19.8211 75.3004 19.3801 75.4828C18.9392 75.6652 18.4539 75.713 17.9858 75.62C17.5177 75.527 17.0877 75.2974 16.7502 74.9603C16.4127 74.6232 16.1828 74.1937 16.0897 73.7261C15.9966 73.2585 16.0444 72.7739 16.2271 72.3334C16.4097 71.893 16.719 71.5165 17.1159 71.2516C17.5127 70.9868 17.9793 70.8454 18.4566 70.8454C19.0967 70.8454 19.7105 71.0994 20.1631 71.5514C20.6156 72.0034 20.8699 72.6166 20.8699 73.2558Z" fill="#444B8C"/>
<path d="M20.8699 59.1656C20.8743 59.6432 20.7364 60.1114 20.4739 60.5107C20.2114 60.9099 19.836 61.2223 19.3955 61.4081C18.9549 61.5939 18.469 61.6448 17.9994 61.5543C17.5299 61.4637 17.0978 61.2359 16.7581 60.8997C16.4184 60.5635 16.1864 60.134 16.0915 59.6659C15.9966 59.1977 16.0431 58.7119 16.2251 58.2702C16.4071 57.8285 16.7163 57.4507 17.1137 57.1848C17.511 56.919 17.9784 56.7771 18.4567 56.777C19.0929 56.777 19.7034 57.028 20.1554 57.4753C20.6073 57.9226 20.8641 58.5301 20.8699 59.1656Z" fill="#444B8C"/>
<path d="M20.8699 44.922C20.8699 45.3988 20.7284 45.8648 20.4632 46.2612C20.198 46.6576 19.8211 46.9666 19.3801 47.149C18.9392 47.3314 18.4539 47.3792 17.9858 47.2862C17.5177 47.1932 17.0877 46.9636 16.7502 46.6265C16.4127 46.2894 16.1828 45.8599 16.0897 45.3923C15.9966 44.9247 16.0444 44.44 16.2271 43.9996C16.4097 43.5591 16.719 43.1827 17.1159 42.9178C17.5127 42.6529 17.9793 42.5116 18.4566 42.5116C18.7744 42.5087 19.0895 42.569 19.3836 42.6891C19.6777 42.8092 19.9449 42.9866 20.1696 43.2111C20.3943 43.4355 20.5719 43.7024 20.6922 43.9961C20.8124 44.2899 20.8728 44.6047 20.8699 44.922Z" fill="#444B8C"/>
<path d="M20.8699 30.6785C20.8699 31.1553 20.7284 31.6213 20.4632 32.0177C20.198 32.4141 19.8211 32.723 19.3801 32.9055C18.9392 33.0879 18.4539 33.1357 17.9858 33.0426C17.5177 32.9496 17.0877 32.7201 16.7502 32.383C16.4127 32.0459 16.1828 31.6164 16.0897 31.1488C15.9966 30.6812 16.0444 30.1965 16.2271 29.7561C16.4097 29.3156 16.719 28.9392 17.1159 28.6743C17.5127 28.4094 17.9793 28.2681 18.4566 28.2681C19.0967 28.2681 19.7105 28.522 20.1631 28.9741C20.6156 29.4261 20.8699 30.0392 20.8699 30.6785Z" fill="#444B8C"/>
<path d="M20.8699 16.5663C20.8743 17.044 20.7364 17.5122 20.4739 17.9114C20.2114 18.3107 19.836 18.6231 19.3955 18.8089C18.9549 18.9947 18.469 19.0455 17.9994 18.955C17.5299 18.8645 17.0978 18.6367 16.7581 18.3005C16.4184 17.9642 16.1864 17.5348 16.0915 17.0666C15.9966 16.5985 16.0431 16.1127 16.2251 15.6709C16.4071 15.2292 16.7163 14.8514 17.1137 14.5856C17.511 14.3198 17.9784 14.1778 18.4567 14.1778C19.0929 14.1778 19.7034 14.4287 20.1554 14.876C20.6073 15.3234 20.8641 15.9308 20.8699 16.5663Z" fill="#444B8C"/>
<path d="M20.8699 2.41045C20.8699 2.88719 20.7284 3.35323 20.4632 3.74963C20.198 4.14602 19.8211 4.45498 19.3801 4.63742C18.9392 4.81986 18.4539 4.86759 17.9858 4.77459C17.5177 4.68158 17.0877 4.45201 16.7502 4.1149C16.4127 3.77779 16.1828 3.34829 16.0897 2.88071C15.9966 2.41313 16.0444 1.92846 16.2271 1.48801C16.4097 1.04756 16.719 0.671098 17.1159 0.406234C17.5127 0.14137 17.9793 0 18.4566 0C19.0967 0 19.7105 0.253958 20.1631 0.706005C20.6156 1.15805 20.8699 1.77116 20.8699 2.41045Z" fill="#444B8C"/>
<path d="M36.3806 101.59C36.3806 102.067 36.2385 102.534 35.9723 102.931C35.7062 103.328 35.328 103.637 34.8857 103.819C34.4435 104 33.9571 104.047 33.4884 103.952C33.0197 103.857 32.5898 103.625 32.2531 103.286C31.9165 102.947 31.6884 102.515 31.5978 102.046C31.5072 101.577 31.5581 101.092 31.7441 100.652C31.9302 100.212 32.2429 99.8369 32.6426 99.5747C33.0424 99.3124 33.5111 99.1748 33.9893 99.1791C34.3052 99.1791 34.6179 99.2416 34.9095 99.363C35.2011 99.4844 35.4657 99.6623 35.688 99.8864C35.9104 100.111 36.086 100.376 36.2049 100.669C36.3238 100.961 36.3835 101.274 36.3806 101.59Z" fill="#444B8C"/>
<path d="M36.3806 87.4336C36.3806 87.9112 36.2385 88.3781 35.9723 88.775C35.7062 89.1718 35.328 89.4808 34.8857 89.6625C34.4435 89.8443 33.9571 89.8908 33.4884 89.796C33.0197 89.7012 32.5898 89.4694 32.2531 89.1301C31.9165 88.7908 31.6884 88.3593 31.5978 87.8902C31.5072 87.4212 31.5581 86.9359 31.7441 86.4958C31.9302 86.0558 32.2429 85.6809 32.6426 85.4187C33.0424 85.1564 33.5111 85.0188 33.9893 85.0231C34.3052 85.0231 34.6179 85.0856 34.9095 85.207C35.2011 85.3284 35.4657 85.5063 35.688 85.7304C35.9104 85.9545 36.086 86.2205 36.2049 86.5128C36.3238 86.8051 36.3835 87.1181 36.3806 87.4336Z" fill="#444B8C"/>
<path d="M36.3806 73.2558C36.3806 73.7334 36.2385 74.2003 35.9723 74.5972C35.7062 74.994 35.328 75.303 34.8857 75.4847C34.4435 75.6665 33.9571 75.713 33.4884 75.6182C33.0197 75.5234 32.5898 75.2916 32.2531 74.9523C31.9165 74.613 31.6884 74.1815 31.5978 73.7124C31.5072 73.2434 31.5581 72.7581 31.7441 72.318C31.9302 71.878 32.2429 71.5031 32.6426 71.2408C33.0424 70.9786 33.5111 70.841 33.9893 70.8453C34.3052 70.8453 34.6179 70.9078 34.9095 71.0292C35.2011 71.1506 35.4657 71.3285 35.688 71.5526C35.9104 71.7768 36.086 72.0427 36.2049 72.335C36.3238 72.6273 36.3835 72.9403 36.3806 73.2558Z" fill="#444B8C"/>
<path d="M36.3806 59.1656C36.3849 59.6442 36.2465 60.1132 35.983 60.513C35.7195 60.9127 35.3429 61.2251 34.901 61.4102C34.4592 61.5954 33.9721 61.6449 33.502 61.5526C33.0318 61.4603 32.5998 61.2303 32.261 60.8919C31.9222 60.5535 31.6919 60.122 31.5995 59.6523C31.5071 59.1827 31.5567 58.6963 31.7421 58.2549C31.9274 57.8136 32.2401 57.4374 32.6403 57.1742C33.0405 56.911 33.5101 56.7727 33.9893 56.7771C34.6235 56.7771 35.2317 57.0287 35.6802 57.4767C36.1286 57.9246 36.3806 58.5321 36.3806 59.1656Z" fill="#444B8C"/>
<path d="M36.3806 44.922C36.3806 45.3997 36.2385 45.8666 35.9723 46.2635C35.7062 46.6603 35.328 46.9692 34.8857 47.151C34.4435 47.3328 33.9571 47.3792 33.4884 47.2844C33.0197 47.1896 32.5898 46.9579 32.2531 46.6186C31.9165 46.2793 31.6884 45.8477 31.5978 45.3787C31.5072 44.9097 31.5581 44.4244 31.7441 43.9843C31.9302 43.5442 32.2429 43.1693 32.6426 42.9071C33.0424 42.6449 33.5111 42.5072 33.9893 42.5116C34.3052 42.5116 34.6179 42.5741 34.9095 42.6955C35.2011 42.8169 35.4657 42.9948 35.688 43.2189C35.9104 43.443 36.086 43.7089 36.2049 44.0012C36.3238 44.2936 36.3835 44.6065 36.3806 44.922Z" fill="#444B8C"/>
<path d="M36.3806 30.6785C36.3806 31.1562 36.2385 31.6231 35.9723 32.0199C35.7062 32.4168 35.328 32.7257 34.8857 32.9075C34.4435 33.0893 33.9571 33.1357 33.4884 33.0409C33.0197 32.9461 32.5898 32.7143 32.2531 32.375C31.9165 32.0357 31.6884 31.6042 31.5978 31.1352C31.5072 30.6662 31.5581 30.1808 31.7441 29.7408C31.9302 29.3007 32.2429 28.9258 32.6426 28.6636C33.0424 28.4014 33.5111 28.2637 33.9893 28.268C34.3052 28.268 34.6179 28.3305 34.9095 28.4519C35.2011 28.5733 35.4657 28.7512 35.688 28.9754C35.9104 29.1995 36.086 29.4654 36.2049 29.7577C36.3238 30.05 36.3835 30.363 36.3806 30.6785Z" fill="#444B8C"/>
<path d="M36.3806 16.5664C36.3849 17.0449 36.2465 17.514 35.983 17.9137C35.7195 18.3135 35.3429 18.6258 34.901 18.811C34.4592 18.9961 33.9721 19.0457 33.502 18.9534C33.0318 18.8611 32.5998 18.6311 32.261 18.2926C31.9222 17.9542 31.6919 17.5227 31.5995 17.0531C31.5071 16.5835 31.5567 16.097 31.7421 15.6557C31.9274 15.2143 32.2401 14.8381 32.6403 14.5749C33.0405 14.3117 33.5101 14.1735 33.9893 14.1778C34.6235 14.1778 35.2317 14.4295 35.6802 14.8774C36.1286 15.3254 36.3806 15.9329 36.3806 16.5664Z" fill="#444B8C"/>
<path d="M36.3806 2.41043C36.3806 2.8881 36.2385 3.355 35.9723 3.75185C35.7062 4.14871 35.328 4.45763 34.8857 4.63941C34.4435 4.82119 33.9571 4.86763 33.4884 4.77283C33.0197 4.67804 32.5898 4.44628 32.2531 4.10697C31.9165 3.76767 31.6884 3.33612 31.5978 2.86711C31.5072 2.39809 31.5581 1.91276 31.7441 1.4727C31.9302 1.03265 32.2429 0.657726 32.6426 0.395516C33.0424 0.133306 33.5111 -0.00436488 33.9893 -2.24204e-05C34.6255 0.00575497 35.2337 0.262261 35.6816 0.713683C36.1294 1.16511 36.3806 1.77492 36.3806 2.41043Z" fill="#444B8C"/>
<path d="M51.9132 101.59C51.9132 102.066 51.7717 102.532 51.5065 102.929C51.2414 103.325 50.8645 103.634 50.4235 103.816C49.9825 103.999 49.4973 104.047 49.0292 103.954C48.561 103.861 48.131 103.631 47.7935 103.294C47.456 102.957 47.2262 102.527 47.1331 102.06C47.04 101.592 47.0878 101.108 47.2704 100.667C47.4531 100.227 47.7624 99.8502 48.1592 99.5853C48.5561 99.3205 49.0227 99.1791 49.5 99.1791C50.14 99.1791 50.7538 99.433 51.2064 99.8851C51.659 100.337 51.9132 100.95 51.9132 101.59Z" fill="#444B8C"/>
<path d="M51.9132 87.4336C51.9132 87.9103 51.7717 88.3763 51.5065 88.7727C51.2414 89.1691 50.8645 89.4781 50.4235 89.6605C49.9825 89.843 49.4973 89.8907 49.0292 89.7977C48.561 89.7047 48.131 89.4751 47.7935 89.138C47.456 88.8009 47.2262 88.3714 47.1331 87.9038C47.04 87.4362 47.0878 86.9516 47.2704 86.5111C47.4531 86.0707 47.7624 85.6942 48.1592 85.4293C48.5561 85.1645 49.0227 85.0231 49.5 85.0231C49.8177 85.0202 50.1328 85.0805 50.4269 85.2006C50.7211 85.3207 50.9883 85.4982 51.2129 85.7226C51.4376 85.947 51.6153 86.2139 51.7355 86.5077C51.8558 86.8014 51.9162 87.1162 51.9132 87.4336Z" fill="#444B8C"/>
<path d="M51.9132 73.2558C51.9132 73.7326 51.7717 74.1986 51.5065 74.595C51.2414 74.9914 50.8645 75.3004 50.4235 75.4828C49.9825 75.6652 49.4973 75.713 49.0292 75.62C48.561 75.527 48.131 75.2974 47.7935 74.9603C47.456 74.6232 47.2262 74.1937 47.1331 73.7261C47.04 73.2585 47.0878 72.7739 47.2704 72.3334C47.4531 71.893 47.7624 71.5165 48.1592 71.2516C48.5561 70.9868 49.0227 70.8454 49.5 70.8454C50.14 70.8454 50.7538 71.0994 51.2064 71.5514C51.659 72.0034 51.9132 72.6166 51.9132 73.2558Z" fill="#444B8C"/>
<path d="M51.9133 59.1656C51.9176 59.6432 51.7798 60.1114 51.5173 60.5107C51.2548 60.9099 50.8794 61.2223 50.4388 61.4081C49.9983 61.5939 49.5124 61.6448 49.0428 61.5543C48.5732 61.4637 48.1412 61.2359 47.8015 60.8997C47.4618 60.5635 47.2297 60.134 47.1348 59.6659C47.0399 59.1977 47.0864 58.7119 47.2684 58.2702C47.4504 57.8285 47.7597 57.4507 48.157 57.1848C48.5543 56.919 49.0218 56.7771 49.5 56.777C50.1363 56.777 50.7468 57.028 51.1987 57.4753C51.6507 57.9226 51.9075 58.5301 51.9133 59.1656Z" fill="#444B8C"/>
<path d="M51.9132 44.922C51.9132 45.3988 51.7717 45.8648 51.5065 46.2612C51.2414 46.6576 50.8645 46.9666 50.4235 47.149C49.9825 47.3314 49.4973 47.3792 49.0292 47.2862C48.561 47.1932 48.131 46.9636 47.7935 46.6265C47.456 46.2894 47.2262 45.8599 47.1331 45.3923C47.04 44.9247 47.0878 44.44 47.2704 43.9996C47.4531 43.5591 47.7624 43.1827 48.1592 42.9178C48.5561 42.6529 49.0227 42.5116 49.5 42.5116C49.8177 42.5087 50.1328 42.569 50.4269 42.6891C50.7211 42.8092 50.9883 42.9866 51.2129 43.2111C51.4376 43.4355 51.6153 43.7024 51.7355 43.9961C51.8558 44.2899 51.9162 44.6047 51.9132 44.922Z" fill="#444B8C"/>
<path d="M51.9132 30.6785C51.9132 31.1553 51.7717 31.6213 51.5065 32.0177C51.2414 32.4141 50.8645 32.723 50.4235 32.9055C49.9825 33.0879 49.4973 33.1357 49.0292 33.0426C48.561 32.9496 48.131 32.7201 47.7935 32.383C47.456 32.0459 47.2262 31.6164 47.1331 31.1488C47.04 30.6812 47.0878 30.1965 47.2704 29.7561C47.4531 29.3156 47.7624 28.9392 48.1592 28.6743C48.5561 28.4094 49.0227 28.2681 49.5 28.2681C50.14 28.2681 50.7538 28.522 51.2064 28.9741C51.659 29.4261 51.9132 30.0392 51.9132 30.6785Z" fill="#444B8C"/>
<path d="M51.9133 16.5663C51.9176 17.044 51.7798 17.5122 51.5173 17.9114C51.2548 18.3107 50.8794 18.6231 50.4388 18.8089C49.9983 18.9947 49.5124 19.0455 49.0428 18.955C48.5732 18.8645 48.1412 18.6367 47.8015 18.3005C47.4618 17.9642 47.2297 17.5348 47.1348 17.0666C47.0399 16.5985 47.0864 16.1127 47.2684 15.6709C47.4504 15.2292 47.7597 14.8514 48.157 14.5856C48.5543 14.3198 49.0218 14.1778 49.5 14.1778C50.1363 14.1778 50.7468 14.4287 51.1987 14.876C51.6507 15.3234 51.9075 15.9308 51.9133 16.5663Z" fill="#444B8C"/>
<path d="M51.9132 2.41045C51.9132 2.88719 51.7717 3.35323 51.5065 3.74963C51.2414 4.14602 50.8645 4.45498 50.4235 4.63742C49.9825 4.81986 49.4973 4.86759 49.0292 4.77459C48.561 4.68158 48.131 4.45201 47.7935 4.1149C47.456 3.77779 47.2262 3.34829 47.1331 2.88071C47.04 2.41313 47.0878 1.92846 47.2704 1.48801C47.4531 1.04756 47.7624 0.671098 48.1592 0.406234C48.5561 0.14137 49.0227 0 49.5 0C50.14 0 50.7538 0.253958 51.2064 0.706005C51.659 1.15805 51.9132 1.77116 51.9132 2.41045Z" fill="#444B8C"/>
<path d="M67.4459 101.59C67.4459 102.066 67.3044 102.532 67.0392 102.929C66.774 103.325 66.3972 103.634 65.9562 103.816C65.5152 103.999 65.03 104.047 64.5619 103.954C64.0937 103.861 63.6637 103.631 63.3262 103.294C62.9887 102.957 62.7589 102.527 62.6658 102.06C62.5727 101.592 62.6205 101.108 62.8031 100.667C62.9858 100.227 63.2951 99.8502 63.6919 99.5853C64.0888 99.3205 64.5554 99.1791 65.0327 99.1791C65.6727 99.1791 66.2865 99.433 66.7391 99.8851C67.1917 100.337 67.4459 100.95 67.4459 101.59Z" fill="#444B8C"/>
<path d="M67.4459 87.4336C67.4459 87.9103 67.3044 88.3764 67.0392 88.7728C66.774 89.1692 66.3972 89.4781 65.9562 89.6605C65.5152 89.843 65.03 89.8907 64.5619 89.7977C64.0937 89.7047 63.6637 89.4751 63.3262 89.138C62.9887 88.8009 62.7589 88.3714 62.6658 87.9038C62.5727 87.4363 62.6205 86.9516 62.8031 86.5111C62.9858 86.0707 63.2951 85.6942 63.6919 85.4294C64.0888 85.1645 64.5554 85.0231 65.0327 85.0231C65.3496 85.0231 65.6634 85.0855 65.9562 85.2066C66.249 85.3278 66.515 85.5053 66.7391 85.7291C66.9632 85.953 67.141 86.2187 67.2622 86.5111C67.3835 86.8036 67.4459 87.117 67.4459 87.4336Z" fill="#444B8C"/>
<path d="M67.4459 73.2558C67.4459 73.7326 67.3044 74.1986 67.0392 74.595C66.774 74.9914 66.3972 75.3004 65.9562 75.4828C65.5152 75.6652 65.03 75.713 64.5619 75.62C64.0937 75.527 63.6637 75.2974 63.3262 74.9603C62.9887 74.6232 62.7589 74.1937 62.6658 73.7261C62.5727 73.2585 62.6205 72.7739 62.8031 72.3334C62.9858 71.893 63.2951 71.5165 63.6919 71.2516C64.0888 70.9868 64.5554 70.8454 65.0327 70.8454C65.6727 70.8454 66.2865 71.0994 66.7391 71.5514C67.1917 72.0034 67.4459 72.6166 67.4459 73.2558Z" fill="#444B8C"/>
<path d="M67.4459 59.1656C67.4503 59.6432 67.3124 60.1114 67.0499 60.5107C66.7874 60.9099 66.412 61.2223 65.9715 61.4081C65.5309 61.5939 65.045 61.6448 64.5754 61.5543C64.1059 61.4637 63.6738 61.2359 63.3341 60.8997C62.9944 60.5635 62.7624 60.134 62.6675 59.6659C62.5726 59.1977 62.6191 58.7119 62.8011 58.2702C62.983 57.8285 63.2923 57.4507 63.6897 57.1848C64.087 56.919 64.5544 56.7771 65.0326 56.777C65.6689 56.777 66.2794 57.028 66.7314 57.4753C67.1833 57.9226 67.4401 58.5301 67.4459 59.1656Z" fill="#444B8C"/>
<path d="M67.4459 44.9221C67.4459 45.3988 67.3044 45.8649 67.0392 46.2613C66.774 46.6577 66.3972 46.9666 65.9562 47.1491C65.5152 47.3315 65.03 47.3792 64.5619 47.2862C64.0937 47.1932 63.6637 46.9637 63.3262 46.6266C62.9887 46.2894 62.7589 45.8599 62.6658 45.3924C62.5727 44.9248 62.6205 44.4401 62.8031 43.9997C62.9858 43.5592 63.2951 43.1828 63.6919 42.9179C64.0888 42.653 64.5554 42.5117 65.0327 42.5117C65.3496 42.5117 65.6634 42.574 65.9562 42.6951C66.249 42.8163 66.515 42.9938 66.7391 43.2177C66.9632 43.4415 67.141 43.7072 67.2622 43.9997C67.3835 44.2921 67.4459 44.6056 67.4459 44.9221Z" fill="#444B8C"/>
<path d="M67.4459 30.6785C67.4459 31.1553 67.3044 31.6213 67.0392 32.0177C66.774 32.4141 66.3972 32.723 65.9562 32.9055C65.5152 33.0879 65.03 33.1357 64.5619 33.0426C64.0937 32.9496 63.6637 32.7201 63.3262 32.383C62.9887 32.0459 62.7589 31.6164 62.6658 31.1488C62.5727 30.6812 62.6205 30.1965 62.8031 29.7561C62.9858 29.3156 63.2951 28.9392 63.6919 28.6743C64.0888 28.4094 64.5554 28.2681 65.0327 28.2681C65.6727 28.2681 66.2865 28.522 66.7391 28.9741C67.1917 29.4261 67.4459 30.0392 67.4459 30.6785Z" fill="#444B8C"/>
<path d="M67.4459 16.5663C67.4503 17.044 67.3124 17.5122 67.0499 17.9114C66.7874 18.3107 66.412 18.6231 65.9715 18.8089C65.5309 18.9947 65.045 19.0455 64.5754 18.955C64.1059 18.8645 63.6738 18.6367 63.3341 18.3005C62.9944 17.9642 62.7624 17.5348 62.6675 17.0666C62.5726 16.5985 62.6191 16.1127 62.8011 15.6709C62.983 15.2292 63.2923 14.8514 63.6897 14.5856C64.087 14.3198 64.5544 14.1778 65.0326 14.1778C65.6689 14.1778 66.2794 14.4287 66.7314 14.876C67.1833 15.3234 67.4401 15.9308 67.4459 16.5663Z" fill="#444B8C"/>
<path d="M67.4459 2.41045C67.4459 3.04974 67.1917 3.66285 66.7391 4.1149C66.2865 4.56694 65.6727 4.8209 65.0327 4.8209C64.3926 4.8209 63.7788 4.56694 63.3262 4.1149C62.8737 3.66285 62.6194 3.04974 62.6194 2.41045C62.6194 1.77116 62.8737 1.15805 63.3262 0.706005C63.7788 0.253957 64.3926 0 65.0327 0C65.6727 0 66.2865 0.253957 66.7391 0.706005C67.1917 1.15805 67.4459 1.77116 67.4459 2.41045Z" fill="#444B8C"/>
<path d="M82.9566 101.59C82.9566 102.066 82.8151 102.532 82.5499 102.929C82.2847 103.325 81.9078 103.634 81.4669 103.816C81.0259 103.999 80.5407 104.047 80.0726 103.954C79.6044 103.861 79.1744 103.631 78.8369 103.294C78.4994 102.957 78.2696 102.527 78.1765 102.06C78.0834 101.592 78.1311 101.108 78.3138 100.667C78.4964 100.227 78.8058 99.8502 79.2026 99.5853C79.5995 99.3205 80.0661 99.1791 80.5434 99.1791C81.1834 99.1791 81.7972 99.433 82.2498 99.8851C82.7024 100.337 82.9566 100.95 82.9566 101.59Z" fill="#444B8C"/>
<path d="M82.9566 87.4336C82.9566 87.9103 82.8151 88.3763 82.5499 88.7727C82.2847 89.1691 81.9079 89.4781 81.4669 89.6605C81.0259 89.843 80.5407 89.8907 80.0726 89.7977C79.6044 89.7047 79.1744 89.4751 78.8369 89.138C78.4994 88.8009 78.2696 88.3714 78.1765 87.9038C78.0834 87.4362 78.1311 86.9516 78.3138 86.5111C78.4965 86.0707 78.8058 85.6942 79.2026 85.4293C79.5995 85.1645 80.0661 85.0231 80.5434 85.0231C80.8611 85.0202 81.1762 85.0805 81.4703 85.2006C81.7645 85.3207 82.0317 85.4982 82.2563 85.7226C82.481 85.947 82.6587 86.2139 82.7789 86.5077C82.8991 86.8014 82.9596 87.1162 82.9566 87.4336Z" fill="#444B8C"/>
<path d="M82.9566 73.2558C82.9566 73.7326 82.8151 74.1986 82.5499 74.595C82.2847 74.9914 81.9078 75.3004 81.4669 75.4828C81.0259 75.6652 80.5407 75.713 80.0726 75.62C79.6044 75.527 79.1744 75.2974 78.8369 74.9603C78.4994 74.6232 78.2696 74.1937 78.1765 73.7261C78.0834 73.2585 78.1311 72.7739 78.3138 72.3334C78.4964 71.893 78.8058 71.5165 79.2026 71.2516C79.5995 70.9868 80.0661 70.8454 80.5434 70.8454C81.1834 70.8454 81.7972 71.0994 82.2498 71.5514C82.7024 72.0034 82.9566 72.6166 82.9566 73.2558Z" fill="#444B8C"/>
<path d="M82.9566 59.1656C82.961 59.6432 82.8232 60.1114 82.5606 60.5107C82.2981 60.9099 81.9228 61.2223 81.4822 61.4081C81.0416 61.5939 80.5557 61.6448 80.0862 61.5543C79.6166 61.4637 79.1845 61.2359 78.8448 60.8997C78.5051 60.5635 78.2731 60.134 78.1782 59.6659C78.0833 59.1977 78.1298 58.7119 78.3118 58.2702C78.4938 57.8285 78.8031 57.4507 79.2004 57.1848C79.5977 56.919 80.0651 56.7771 80.5434 56.777C81.1796 56.777 81.7901 57.028 82.2421 57.4753C82.694 57.9226 82.9509 58.5301 82.9566 59.1656Z" fill="#444B8C"/>
<path d="M82.9566 44.922C82.9566 45.3988 82.8151 45.8648 82.5499 46.2612C82.2847 46.6576 81.9079 46.9666 81.4669 47.149C81.0259 47.3314 80.5407 47.3792 80.0726 47.2862C79.6044 47.1932 79.1744 46.9636 78.8369 46.6265C78.4994 46.2894 78.2696 45.8599 78.1765 45.3923C78.0834 44.9247 78.1311 44.44 78.3138 43.9996C78.4965 43.5591 78.8058 43.1827 79.2026 42.9178C79.5995 42.6529 80.0661 42.5116 80.5434 42.5116C80.8611 42.5087 81.1762 42.569 81.4703 42.6891C81.7645 42.8092 82.0317 42.9866 82.2563 43.2111C82.481 43.4355 82.6587 43.7024 82.7789 43.9961C82.8991 44.2899 82.9596 44.6047 82.9566 44.922Z" fill="#444B8C"/>
<path d="M82.9566 30.6785C82.9566 31.1553 82.8151 31.6213 82.5499 32.0177C82.2847 32.4141 81.9078 32.723 81.4669 32.9055C81.0259 33.0879 80.5407 33.1357 80.0726 33.0426C79.6044 32.9496 79.1744 32.7201 78.8369 32.383C78.4994 32.0459 78.2696 31.6164 78.1765 31.1488C78.0834 30.6812 78.1311 30.1965 78.3138 29.7561C78.4964 29.3156 78.8058 28.9392 79.2026 28.6743C79.5995 28.4094 80.0661 28.2681 80.5434 28.2681C81.1834 28.2681 81.7972 28.522 82.2498 28.9741C82.7024 29.4261 82.9566 30.0392 82.9566 30.6785Z" fill="#444B8C"/>
<path d="M82.9566 16.5663C82.961 17.044 82.8232 17.5122 82.5606 17.9114C82.2981 18.3107 81.9228 18.6231 81.4822 18.8089C81.0416 18.9947 80.5557 19.0455 80.0862 18.955C79.6166 18.8645 79.1845 18.6367 78.8448 18.3005C78.5051 17.9642 78.2731 17.5348 78.1782 17.0666C78.0833 16.5985 78.1298 16.1127 78.3118 15.6709C78.4938 15.2292 78.8031 14.8514 79.2004 14.5856C79.5977 14.3198 80.0651 14.1778 80.5434 14.1778C81.1796 14.1778 81.7901 14.4287 82.2421 14.876C82.694 15.3234 82.9509 15.9308 82.9566 16.5663Z" fill="#444B8C"/>
<path d="M82.9566 2.41045C82.9566 2.88719 82.8151 3.35323 82.5499 3.74963C82.2847 4.14602 81.9078 4.45498 81.4669 4.63742C81.0259 4.81986 80.5407 4.86759 80.0726 4.77459C79.6044 4.68158 79.1744 4.45201 78.8369 4.1149C78.4994 3.77779 78.2696 3.34829 78.1765 2.88071C78.0834 2.41313 78.1311 1.92846 78.3138 1.48801C78.4964 1.04756 78.8058 0.671098 79.2026 0.406234C79.5995 0.14137 80.0661 0 80.5434 0C81.1834 0 81.7972 0.253958 82.2498 0.706005C82.7024 1.15805 82.9566 1.77116 82.9566 2.41045Z" fill="#444B8C"/>
<path d="M98.4893 101.59C98.4893 102.066 98.3478 102.532 98.0826 102.929C97.8174 103.325 97.4405 103.634 96.9995 103.816C96.5586 103.999 96.0733 104.047 95.6052 103.954C95.1371 103.861 94.7071 103.631 94.3696 103.294C94.0321 102.957 93.8022 102.527 93.7091 102.06C93.616 101.592 93.6638 101.108 93.8464 100.667C94.0291 100.227 94.3384 99.8502 94.7353 99.5853C95.1321 99.3205 95.5987 99.1791 96.076 99.1791C96.7161 99.1791 97.3299 99.433 97.7825 99.8851C98.235 100.337 98.4893 100.95 98.4893 101.59Z" fill="#444B8C"/>
<path d="M98.4893 87.4336C98.4893 87.9103 98.3478 88.3763 98.0826 88.7727C97.8174 89.1691 97.4405 89.4781 96.9995 89.6605C96.5586 89.843 96.0733 89.8907 95.6052 89.7977C95.1371 89.7047 94.7071 89.4751 94.3696 89.138C94.0321 88.8009 93.8022 88.3714 93.7091 87.9038C93.616 87.4362 93.6638 86.9516 93.8464 86.5111C94.0291 86.0707 94.3384 85.6942 94.7353 85.4293C95.1321 85.1645 95.5987 85.0231 96.076 85.0231C96.3938 85.0202 96.7089 85.0805 97.003 85.2006C97.2971 85.3207 97.5643 85.4982 97.789 85.7226C98.0137 85.947 98.1913 86.2139 98.3116 86.5077C98.4318 86.8014 98.4922 87.1162 98.4893 87.4336Z" fill="#444B8C"/>
<path d="M98.4893 73.2558C98.4893 73.7326 98.3478 74.1986 98.0826 74.595C97.8174 74.9914 97.4405 75.3004 96.9995 75.4828C96.5586 75.6652 96.0733 75.713 95.6052 75.62C95.1371 75.527 94.7071 75.2974 94.3696 74.9603C94.0321 74.6232 93.8022 74.1937 93.7091 73.7261C93.616 73.2585 93.6638 72.7739 93.8464 72.3334C94.0291 71.893 94.3384 71.5165 94.7353 71.2516C95.1321 70.9868 95.5987 70.8454 96.076 70.8454C96.7161 70.8454 97.3299 71.0994 97.7825 71.5514C98.235 72.0034 98.4893 72.6166 98.4893 73.2558Z" fill="#444B8C"/>
<path d="M98.4893 59.1656C98.4936 59.6432 98.3558 60.1114 98.0933 60.5107C97.8308 60.9099 97.4554 61.2223 97.0148 61.4081C96.5743 61.5939 96.0884 61.6448 95.6188 61.5543C95.1492 61.4637 94.7172 61.2359 94.3775 60.8997C94.0378 60.5635 93.8058 60.134 93.7109 59.6659C93.616 59.1977 93.6624 58.7119 93.8444 58.2702C94.0264 57.8285 94.3357 57.4507 94.733 57.1848C95.1303 56.919 95.5978 56.7771 96.076 56.777C96.7123 56.777 97.3228 57.028 97.7747 57.4753C98.2267 57.9226 98.4835 58.5301 98.4893 59.1656Z" fill="#444B8C"/>
<path d="M98.4893 44.922C98.4893 45.3988 98.3478 45.8648 98.0826 46.2612C97.8174 46.6576 97.4405 46.9666 96.9995 47.149C96.5586 47.3314 96.0733 47.3792 95.6052 47.2862C95.1371 47.1932 94.7071 46.9636 94.3696 46.6265C94.0321 46.2894 93.8022 45.8599 93.7091 45.3923C93.616 44.9247 93.6638 44.44 93.8464 43.9996C94.0291 43.5591 94.3384 43.1827 94.7353 42.9178C95.1321 42.6529 95.5987 42.5116 96.076 42.5116C96.3938 42.5087 96.7089 42.569 97.003 42.6891C97.2971 42.8092 97.5643 42.9866 97.789 43.2111C98.0137 43.4355 98.1913 43.7024 98.3116 43.9961C98.4318 44.2899 98.4922 44.6047 98.4893 44.922Z" fill="#444B8C"/>
<path d="M98.4893 30.6785C98.4893 31.1553 98.3478 31.6213 98.0826 32.0177C97.8174 32.4141 97.4405 32.723 96.9995 32.9055C96.5586 33.0879 96.0733 33.1357 95.6052 33.0426C95.1371 32.9496 94.7071 32.7201 94.3696 32.383C94.0321 32.0459 93.8022 31.6164 93.7091 31.1488C93.616 30.6812 93.6638 30.1965 93.8464 29.7561C94.0291 29.3156 94.3384 28.9392 94.7353 28.6743C95.1321 28.4094 95.5987 28.2681 96.076 28.2681C96.7161 28.2681 97.3299 28.522 97.7825 28.9741C98.235 29.4261 98.4893 30.0392 98.4893 30.6785Z" fill="#444B8C"/>
<path d="M98.4893 16.5663C98.4936 17.044 98.3558 17.5122 98.0933 17.9114C97.8308 18.3107 97.4554 18.6231 97.0148 18.8089C96.5743 18.9947 96.0884 19.0455 95.6188 18.955C95.1492 18.8645 94.7172 18.6367 94.3775 18.3005C94.0378 17.9642 93.8058 17.5348 93.7109 17.0666C93.616 16.5985 93.6624 16.1127 93.8444 15.6709C94.0264 15.2292 94.3357 14.8514 94.733 14.5856C95.1303 14.3198 95.5978 14.1778 96.076 14.1778C96.7123 14.1778 97.3228 14.4287 97.7747 14.876C98.2267 15.3234 98.4835 15.9308 98.4893 16.5663Z" fill="#444B8C"/>
<path d="M98.4893 2.41045C98.4893 2.88719 98.3478 3.35323 98.0826 3.74963C97.8174 4.14602 97.4405 4.45498 96.9995 4.63742C96.5586 4.81986 96.0733 4.86759 95.6052 4.77459C95.1371 4.68158 94.7071 4.45201 94.3696 4.1149C94.0321 3.77779 93.8022 3.34829 93.7091 2.88071C93.616 2.41313 93.6638 1.92846 93.8464 1.48801C94.0291 1.04756 94.3384 0.671098 94.7353 0.406234C95.1321 0.14137 95.5987 0 96.076 0C96.7161 0 97.3299 0.253958 97.7825 0.706005C98.235 1.15805 98.4893 1.77116 98.4893 2.41045Z" fill="#444B8C"/>
<path d="M114 101.59C114 102.066 113.858 102.532 113.593 102.929C113.328 103.325 112.951 103.634 112.51 103.816C112.069 103.999 111.584 104.047 111.116 103.954C110.648 103.861 110.218 103.631 109.88 103.294C109.543 102.957 109.313 102.527 109.22 102.06C109.127 101.592 109.175 101.108 109.357 100.667C109.54 100.227 109.849 99.8502 110.246 99.5853C110.643 99.3205 111.109 99.1791 111.587 99.1791C111.904 99.1791 112.217 99.2414 112.51 99.3626C112.803 99.4837 113.069 99.6613 113.293 99.8851C113.517 100.109 113.695 100.375 113.816 100.667C113.938 100.96 114 101.273 114 101.59Z" fill="#444B8C"/>
<path d="M114 87.4336C114 87.9103 113.858 88.3763 113.593 88.7727C113.328 89.1691 112.951 89.4781 112.51 89.6605C112.069 89.843 111.584 89.8907 111.116 89.7977C110.648 89.7047 110.218 89.4751 109.88 89.138C109.543 88.8009 109.313 88.3714 109.22 87.9038C109.127 87.4362 109.175 86.9516 109.357 86.5111C109.54 86.0707 109.849 85.6942 110.246 85.4293C110.643 85.1645 111.109 85.0231 111.587 85.0231C111.904 85.0202 112.22 85.0805 112.514 85.2006C112.808 85.3207 113.075 85.4982 113.3 85.7226C113.524 85.947 113.702 86.2139 113.822 86.5077C113.943 86.8014 114.003 87.1162 114 87.4336Z" fill="#444B8C"/>
<path d="M114 73.2558C114 73.7326 113.858 74.1986 113.593 74.595C113.328 74.9914 112.951 75.3004 112.51 75.4828C112.069 75.6652 111.584 75.713 111.116 75.62C110.648 75.527 110.218 75.2974 109.88 74.9603C109.543 74.6232 109.313 74.1937 109.22 73.7261C109.127 73.2585 109.175 72.7739 109.357 72.3334C109.54 71.893 109.849 71.5165 110.246 71.2516C110.643 70.9868 111.109 70.8454 111.587 70.8454C111.904 70.8454 112.217 70.9077 112.51 71.0289C112.803 71.15 113.069 71.3276 113.293 71.5514C113.517 71.7752 113.695 72.041 113.816 72.3334C113.938 72.6259 114 72.9393 114 73.2558Z" fill="#444B8C"/>
<path d="M114 59.1656C114.004 59.6432 113.867 60.1114 113.604 60.5107C113.341 60.9099 112.966 61.2223 112.526 61.4081C112.085 61.5939 111.599 61.6448 111.13 61.5543C110.66 61.4637 110.228 61.2359 109.888 60.8997C109.548 60.5635 109.316 60.134 109.222 59.6659C109.127 59.1977 109.173 58.7119 109.355 58.2702C109.537 57.8285 109.846 57.4507 110.244 57.1848C110.641 56.919 111.108 56.7771 111.587 56.777C112.223 56.777 112.834 57.028 113.285 57.4753C113.737 57.9226 113.994 58.5301 114 59.1656Z" fill="#444B8C"/>
<path d="M114 44.922C114 45.3988 113.858 45.8648 113.593 46.2612C113.328 46.6576 112.951 46.9666 112.51 47.149C112.069 47.3314 111.584 47.3792 111.116 47.2862C110.648 47.1932 110.218 46.9636 109.88 46.6265C109.543 46.2894 109.313 45.8599 109.22 45.3923C109.127 44.9247 109.175 44.44 109.357 43.9996C109.54 43.5591 109.849 43.1827 110.246 42.9178C110.643 42.6529 111.109 42.5116 111.587 42.5116C111.904 42.5087 112.22 42.569 112.514 42.6891C112.808 42.8092 113.075 42.9866 113.3 43.2111C113.524 43.4355 113.702 43.7024 113.822 43.9961C113.943 44.2899 114.003 44.6047 114 44.922Z" fill="#444B8C"/>
<path d="M114 30.6785C114 31.1553 113.858 31.6213 113.593 32.0177C113.328 32.4141 112.951 32.723 112.51 32.9055C112.069 33.0879 111.584 33.1357 111.116 33.0426C110.648 32.9496 110.218 32.7201 109.88 32.383C109.543 32.0459 109.313 31.6164 109.22 31.1488C109.127 30.6812 109.175 30.1965 109.357 29.7561C109.54 29.3156 109.849 28.9392 110.246 28.6743C110.643 28.4094 111.109 28.2681 111.587 28.2681C111.904 28.2681 112.217 28.3304 112.51 28.4516C112.803 28.5727 113.069 28.7502 113.293 28.9741C113.517 29.1979 113.695 29.4636 113.816 29.7561C113.938 30.0485 114 30.362 114 30.6785Z" fill="#444B8C"/>
<path d="M114 16.5663C114.004 17.044 113.867 17.5122 113.604 17.9114C113.341 18.3107 112.966 18.6231 112.526 18.8089C112.085 18.9947 111.599 19.0455 111.13 18.955C110.66 18.8645 110.228 18.6367 109.888 18.3005C109.548 17.9642 109.316 17.5348 109.222 17.0666C109.127 16.5985 109.173 16.1127 109.355 15.6709C109.537 15.2292 109.846 14.8514 110.244 14.5856C110.641 14.3198 111.108 14.1778 111.587 14.1778C112.223 14.1778 112.834 14.4287 113.285 14.876C113.737 15.3234 113.994 15.9308 114 16.5663Z" fill="#444B8C"/>
<path d="M114 2.41045C114 2.88719 113.858 3.35323 113.593 3.74963C113.328 4.14602 112.951 4.45498 112.51 4.63742C112.069 4.81986 111.584 4.86759 111.116 4.77459C110.648 4.68158 110.218 4.45201 109.88 4.1149C109.543 3.77779 109.313 3.34829 109.22 2.88071C109.127 2.41313 109.175 1.92846 109.357 1.48801C109.54 1.04756 109.849 0.671098 110.246 0.406234C110.643 0.14137 111.109 0 111.587 0C112.227 0 112.841 0.253958 113.293 0.706005C113.746 1.15805 114 1.77116 114 2.41045Z" fill="#444B8C"/>
</svg>
