<svg width="77" height="77" viewBox="0 0 77 77" fill="none" xmlns="http://www.w3.org/2000/svg">
<path d="M71.7178 46.511L66.8362 30.6166C66.778 22.5509 63.6341 14.954 57.9689 9.20175C52.2565 3.40199 44.6319 0.135677 36.4997 0.00438677C30.7188 -0.0920129 25.0626 1.41324 20.1462 4.34854C19.4331 4.77429 19.2001 5.69753 19.626 6.41068C20.0519 7.12382 20.9752 7.35678 21.6882 6.93087C26.1239 4.28252 31.2307 2.92871 36.4512 3.01157C51.5474 3.25536 63.8291 15.7413 63.8291 30.8448C63.8291 30.9944 63.8514 31.1433 63.8954 31.2863L68.8389 47.3822H62.0932C61.2626 47.3822 60.5893 48.0555 60.5893 48.8861V57.1901C60.5893 61.1473 57.3699 64.3667 53.4127 64.3667H41.9267C38.351 64.3667 34.9895 62.9743 32.4612 60.4459C31.8739 59.8588 30.9216 59.8588 30.3342 60.4459C29.7469 61.0332 29.7469 61.9854 30.3342 62.5727C33.3265 65.565 37.2718 67.2578 41.4854 67.3683L39.2759 75.0814C39.0472 75.8799 39.509 76.7125 40.3074 76.9412C40.4458 76.9809 40.5852 76.9997 40.7224 76.9997C41.3764 76.9997 41.9783 76.5696 42.1673 75.9095L44.6123 67.3743H53.4125C59.0282 67.3743 63.5969 62.8057 63.5969 57.19V50.3898H68.8512C69.8125 50.3898 70.6915 49.9465 71.2629 49.1733C71.8343 48.4005 72.0001 47.43 71.7178 46.511Z" fill="#FFC444"/>
<path d="M8.15948 30.3602C8.24776 25.1647 9.75992 20.1307 12.5322 15.8026C12.9802 15.1033 12.7764 14.1732 12.0771 13.7252C11.3778 13.2773 10.4477 13.4809 9.99964 14.1802C6.92613 18.9783 5.24989 24.5555 5.15229 30.3091C5.05303 36.1428 6.56926 42.6532 9.31221 48.171C11.9491 53.4758 12.654 59.4969 11.2969 65.1251L8.8812 75.1433C8.68644 75.9508 9.18318 76.7632 9.99062 76.9578C10.1091 76.9863 10.2276 77 10.3445 77C11.0232 77 11.639 76.5373 11.8052 75.8483L14.2209 65.8302C15.7435 59.5157 14.9568 52.7688 12.0057 46.8321C9.47012 41.7317 8.06819 35.7279 8.15948 30.3602Z" fill="#FFC444"/>
<path d="M14.4578 10.7942C14.7532 11.1044 15.1492 11.2605 15.5459 11.2605C15.9186 11.2605 16.2918 11.1226 16.5831 10.8453C17.1847 10.2725 17.2071 9.31976 16.6343 8.71835C16.0613 8.11679 15.1095 8.09363 14.5081 8.66646C13.9065 9.2393 13.8833 10.1913 14.4562 10.7927L14.4578 10.7942Z" fill="#FFC444"/>
<path d="M41.7386 42.6244C44.5241 42.6244 47.3017 41.9047 49.7681 40.4808C54.2208 37.91 57.1914 33.3149 57.7145 28.1888C57.7804 27.544 57.4256 26.9296 56.8343 26.6642C54.773 25.739 52.5649 25.2725 50.3596 25.257C50.3415 23.0323 49.8619 20.8198 48.9448 18.7766C48.6794 18.1852 48.0658 17.8299 47.4202 17.8963C45.4296 18.0994 43.4839 18.6785 41.7072 19.586C40.5182 17.3166 38.8148 15.3134 36.691 13.7692C36.1667 13.3881 35.457 13.3857 34.9303 13.7633C32.7795 15.3051 31.0524 17.3158 29.8469 19.599C28.0633 18.6841 26.108 18.1003 24.1085 17.8963C23.4628 17.83 22.8493 18.1852 22.5838 18.7766C21.6667 20.8196 21.1872 23.0321 21.1691 25.257C18.9646 25.2729 16.7571 25.7393 14.6966 26.6642C14.1053 26.9296 13.7506 27.5441 13.8164 28.1888C14.3395 33.3149 17.3101 37.91 21.7628 40.4808C24.2295 41.905 27.0065 42.6244 29.7923 42.6244C31.8174 42.6244 33.8471 42.2427 35.7655 41.4762C37.684 42.2427 39.713 42.6244 41.7386 42.6244ZM54.5604 28.9933C53.8543 32.7081 51.5582 35.9741 48.264 37.8759C44.9699 39.7779 40.9934 40.1332 37.4234 38.8874C38.1294 35.1728 40.4254 31.9068 43.7197 30.0048C47.0138 28.1028 50.9906 27.7476 54.5604 28.9933ZM46.6159 21.05C47.1184 22.4868 47.3677 24.0015 47.3522 25.5188C46.0725 25.7516 44.8178 26.1396 43.6183 26.6819C43.5561 25.2078 43.2992 23.7609 42.8647 22.3749C44.0378 21.7484 45.3062 21.2986 46.6159 21.05ZM35.8 16.8962C38.8543 19.5208 40.6408 23.3815 40.6272 27.4309C40.626 27.7813 40.6101 28.1331 40.5827 28.4829C38.5191 30.0412 36.8717 32.0739 35.7655 34.384C34.6581 32.0716 33.0087 30.037 30.9422 28.4782C30.9157 28.1194 30.9014 27.7583 30.9026 27.3984C30.916 23.3489 32.7283 19.5004 35.8 16.8962ZM24.9126 21.05C26.2285 21.2998 27.5026 21.7531 28.6803 22.3844C28.2421 23.7666 27.9813 25.2108 27.9139 26.6825C26.7132 26.1396 25.4573 25.7513 24.1763 25.5184C24.1608 24.0011 24.4102 22.4865 24.9126 21.05ZM23.2667 37.8759C19.9726 35.9741 17.6765 32.7079 16.9704 28.9933C20.5403 27.7475 24.5169 28.103 27.8111 30.0048C31.1052 31.9066 33.4012 35.1728 34.1074 38.8874C30.5376 40.1332 26.5609 39.7779 23.2667 37.8759Z" fill="black"/>
</svg>
