<svg width="72" height="72" viewBox="0 0 72 72" fill="none" xmlns="http://www.w3.org/2000/svg">
<path d="M35.9999 71.8501C16.1999 71.8501 0.149902 55.8001 0.149902 36.0001C0.149902 16.2001 16.1999 0.150085 35.9999 0.150085C55.7999 0.150085 71.8499 16.2001 71.8499 36.0001C71.8499 55.8001 55.7999 71.8501 35.9999 71.8501ZM35.9999 4.05009C18.4499 4.05009 4.04989 18.4501 4.04989 36.0001C4.04989 53.5501 18.4499 67.9501 35.9999 67.9501C53.5499 67.9501 67.9499 53.5501 67.9499 36.0001C67.9499 18.4501 53.5499 4.05009 35.9999 4.05009Z" fill="#FF4A4A"/>
<path d="M33.8999 50.8499H38.0999V55.0499H33.8999V50.8499Z" fill="#FF4A4A"/>
<path d="M37.1999 46.6503H34.7999L33.8999 29.7003V16.9502H38.0999V29.7003L37.1999 46.6503Z" fill="#FF4A4A"/>
</svg>
