<svg width="79" height="69" viewBox="0 0 79 69" fill="none" xmlns="http://www.w3.org/2000/svg">
<g clip-path="url(#clip0)">
<path d="M31.0171 13.7099H30.3614V13.0541C30.3614 12.5783 29.9757 12.1926 29.4999 12.1926C29.0241 12.1926 28.6384 12.5783 28.6384 13.0541V13.7099H27.9828C27.507 13.7099 27.1213 14.0956 27.1213 14.5714C27.1213 15.0472 27.507 15.4329 27.9828 15.4329H28.6384V16.0886C28.6384 16.5644 29.0241 16.9501 29.4999 16.9501C29.9757 16.9501 30.3614 16.5644 30.3614 16.0886V15.4329H31.0171C31.4929 15.4329 31.8786 15.0472 31.8786 14.5714C31.8786 14.0956 31.4929 13.7099 31.0171 13.7099Z" fill="#FFC444"/>
<path d="M54.7306 66.0534L52.2128 51.313C51.9397 49.7143 50.8055 48.4301 49.2527 47.9617L37.9503 44.5515C37.4518 44.4012 36.9345 44.4666 36.5049 44.7011C36.1032 44.3434 35.8103 43.7318 35.8103 43.1654V40.344C35.8395 40.3189 35.8687 40.2937 35.8978 40.2687C35.9412 40.2313 35.9874 40.1908 36.0349 40.1488H37.142C38.6786 40.1488 40.1041 39.5318 41.1557 38.4115C42.2073 37.2912 42.7332 35.8297 42.636 34.2961L42.3293 29.4492V29.3766C42.3293 29.2444 42.3192 29.1145 42.3 28.9874L41.9564 23.5591C41.9263 23.0843 41.5158 22.7239 41.0422 22.7536C40.5673 22.7837 40.2067 23.193 40.2368 23.6679L40.4401 26.8796C40.2154 26.816 39.9786 26.7811 39.7337 26.7811H39.6857C39.4325 26.3969 39.0125 26.1318 38.5184 26.0873C29.5755 25.2825 27.0009 22.6118 25.1207 20.6616C24.7299 20.2563 24.089 20.2253 23.2159 20.5695C21.6981 21.1677 19.1144 23.1009 19.058 26.5527C19.058 26.5574 19.0579 26.5622 19.0579 26.5669V26.7894C18.8866 26.8031 18.7202 26.834 18.5598 26.8794L18.8255 22.6816C18.9669 20.4485 20.0912 18.4578 21.8846 17.1917L21.9498 17.3622C22.3823 18.4923 23.4859 19.2516 24.6959 19.2516H34.5289C35.7389 19.2516 36.8425 18.4923 37.2751 17.3622L37.2902 17.3228C38.221 18.0242 38.9684 18.934 39.4773 19.9972C39.6254 20.3064 39.9336 20.487 40.255 20.487C40.3797 20.487 40.5064 20.4597 40.6263 20.4023C41.0556 20.1969 41.2369 19.6824 41.0315 19.2533C40.3305 17.7888 39.2647 16.5593 37.9263 15.6606L38.5195 14.1104C38.745 13.5211 38.6999 12.8659 38.3961 12.313C38.0922 11.7603 37.5634 11.3711 36.9451 11.2456L32.0007 10.2415C30.4158 9.91951 28.8089 9.91951 27.2241 10.2415L22.2797 11.2454C21.6615 11.3709 21.1325 11.7599 20.8287 12.3129C20.5248 12.8659 20.4797 13.5209 20.7054 14.1102L21.2532 15.5416C18.8242 17.0869 17.2902 19.6628 17.106 22.5726L16.6977 29.0216C16.6817 29.1379 16.6707 29.2556 16.6707 29.3763V29.4489L16.3639 34.2958C16.2668 35.8292 16.7926 37.2908 17.8442 38.4111C18.8958 39.5315 20.3213 40.1484 21.8579 40.1484H22.965C23.0125 40.1904 23.0587 40.2309 23.1021 40.2684C23.1312 40.2934 23.1604 40.3185 23.1896 40.3436V43.165C23.1896 43.7314 22.8967 44.3432 22.495 44.7008C22.0654 44.4663 21.548 44.4006 21.0497 44.5511L9.74724 47.9613C8.19457 48.4298 7.06031 49.7141 6.78709 51.3127L5.84136 56.8498C5.76127 57.3188 6.07656 57.764 6.54556 57.8441C7.0141 57.9249 7.45972 57.609 7.5398 57.1399L8.48554 51.6027C8.6479 50.6526 9.32202 49.8893 10.2448 49.6109L21.5474 46.2005C21.6214 46.1783 21.7001 46.2122 21.735 46.2809C21.735 46.281 21.7352 46.2812 21.7352 46.2813L27.1315 56.9426C27.2735 57.2232 27.4598 57.4706 27.6795 57.678C28.1628 58.1346 28.8078 58.3981 29.4997 58.3981C29.94 58.3981 30.3613 58.2914 30.7341 58.0961C31.2134 57.845 31.6123 57.4476 31.868 56.9425L37.2646 46.2809C37.2994 46.212 37.3782 46.1777 37.4523 46.2005L48.7547 49.6108C49.6777 49.8892 50.3518 50.6525 50.514 51.6026L53.0318 66.3429C53.0863 66.6615 52.9443 66.8869 52.8548 66.9929C52.7652 67.0989 52.567 67.2768 52.2438 67.2768H46.9068L45.4988 59.0339C45.4187 58.5649 44.9739 58.2492 44.5045 58.3297C44.0355 58.4098 43.7202 58.8549 43.8003 59.3239L45.1588 67.2767H13.8409L15.1994 59.3239C15.2795 58.8549 14.9643 58.4098 14.4953 58.3297C14.0265 58.2495 13.5811 58.5648 13.501 59.0339L12.093 67.2768H6.75586C6.43263 67.2768 6.23431 67.0989 6.14489 66.9929C6.05547 66.8869 5.9135 66.6614 5.96789 66.3429L6.84436 61.2116C6.92445 60.7426 6.60917 60.2974 6.14017 60.2173C5.67139 60.1369 5.22601 60.4525 5.14592 60.9215L4.26945 66.0528C4.14407 66.7871 4.34758 67.5348 4.82787 68.1041C5.30817 68.6734 6.01087 68.9999 6.75586 68.9999C6.75679 68.9999 6.75586 68.9999 6.75679 68.9999H52.2443C52.9891 68.9999 53.6918 68.6734 54.1723 68.1041C54.6524 67.5353 54.8561 66.7876 54.7306 66.0534ZM22.3389 13.1431C22.3738 13.0796 22.4572 12.9679 22.6227 12.9343L27.5671 11.9302C28.2459 11.7925 28.9291 11.7236 29.6125 11.7236C30.2958 11.7236 30.9793 11.7925 31.6578 11.9302L36.6023 12.9343C36.6023 12.9343 36.6023 12.9343 36.6024 12.9344C36.7679 12.9679 36.8512 13.0796 36.8861 13.1431C36.9211 13.2067 36.9707 13.3368 36.9103 13.4947L35.6659 16.7464C35.4868 17.2142 35.0299 17.5286 34.529 17.5286H24.6961C24.1951 17.5286 23.7382 17.2142 23.5591 16.7464L22.3147 13.4947C22.2543 13.3369 22.304 13.2067 22.3389 13.1431ZM40.9165 34.405C40.9831 35.4586 40.6219 36.4625 39.8994 37.2322C39.3128 37.8572 38.5567 38.2542 37.7279 38.3813C38.6752 37.2087 39.6052 35.6592 39.8677 33.8903C40.225 33.8721 40.5625 33.7798 40.8675 33.6309L40.9165 34.405ZM19.1006 37.2322C18.3781 36.4625 18.0169 35.4585 18.0835 34.405L18.1325 33.631C18.4375 33.7799 18.7751 33.8721 19.1323 33.8904C19.3947 35.6592 20.3249 37.2087 21.2721 38.3814C20.4433 38.2542 19.6873 37.8572 19.1006 37.2322ZM30.439 55.9512L30.3309 56.1648C30.3156 56.1951 30.2976 56.2232 30.2797 56.2511C30.274 56.2599 30.2694 56.2699 30.2635 56.2785C30.2527 56.2943 30.2399 56.3079 30.2282 56.3229C30.1869 56.3758 30.1419 56.4251 30.0913 56.4669C30.0807 56.4757 30.0687 56.4827 30.0578 56.491C29.9012 56.6088 29.7093 56.6755 29.5 56.6755C29.1416 56.6755 28.8309 56.4845 28.669 56.1649L25.0912 49.096H33.9089L30.439 55.9512ZM34.781 47.3729H24.219L23.5535 46.0581C24.3653 45.379 24.9128 44.2704 24.9128 43.1653V41.6787C26.0406 42.404 27.4519 42.9666 29.4905 42.9894C29.4937 42.9894 29.4968 42.9894 29.5001 42.9894C29.5033 42.9894 29.5064 42.9894 29.5096 42.9894C31.5482 42.9666 32.9595 42.404 34.0873 41.6789V43.1654C34.0873 44.2706 34.6347 45.3792 35.4466 46.0582L34.781 47.3729ZM34.7735 38.963C33.1804 40.335 31.9521 41.2367 29.5001 41.2663C27.0481 41.2367 25.8198 40.3349 24.2266 38.963C22.1116 37.142 20.8244 34.9179 20.7835 33.0137C20.7735 32.5452 20.3908 32.1706 19.9222 32.1706H19.2664C18.7853 32.1706 18.394 31.7793 18.394 31.2982V29.3766C18.394 29.3364 18.3977 29.2972 18.403 29.2584C18.4054 29.2453 18.4072 29.232 18.4091 29.2188C18.4836 28.8129 18.8394 28.5042 19.2665 28.5042H19.9197C20.3955 28.5042 20.7812 28.1185 20.7812 27.6427V26.5744C20.8328 23.6584 23.3147 22.2957 24.1007 22.0842C26.6273 24.6616 29.7324 27.0053 38.232 27.7915C38.3024 28.1963 38.6556 28.5042 39.0807 28.5042H39.7338C40.1609 28.5042 40.5166 28.8129 40.5913 29.2188C40.5931 29.2321 40.595 29.2454 40.5974 29.2584C40.6027 29.2971 40.6064 29.3364 40.6064 29.3766V31.2982C40.6064 31.7792 40.215 32.1706 39.7339 32.1706H39.0781C38.6095 32.1706 38.2269 32.5451 38.2169 33.0137C38.1757 34.9178 36.8886 37.1418 34.7735 38.963Z" fill="#FFC444"/>
</g>
<path d="M73.9465 17.4706C74.3038 17.4706 74.5935 17.1809 74.5935 16.8236C74.5935 16.4662 74.3038 16.1765 73.9465 16.1765C73.5891 16.1765 73.2994 16.4662 73.2994 16.8236C73.2994 17.1809 73.5891 17.4706 73.9465 17.4706Z" fill="black"/>
<path d="M50.9752 17.4706C51.3326 17.4706 51.6223 17.1809 51.6223 16.8236C51.6223 16.4662 51.3326 16.1765 50.9752 16.1765C50.6179 16.1765 50.3282 16.4662 50.3282 16.8236C50.3282 17.1809 50.6179 17.4706 50.9752 17.4706Z" fill="black"/>
<path d="M62.6223 28.7941C62.9797 28.7941 63.2694 28.5044 63.2694 28.1471C63.2694 27.7897 62.9797 27.5 62.6223 27.5C62.2649 27.5 61.9752 27.7897 61.9752 28.1471C61.9752 28.5044 62.2649 28.7941 62.6223 28.7941Z" fill="black"/>
<path d="M78.0294 15.5294C77.4933 15.5294 77.0588 15.9639 77.0588 16.5C77.0588 24.5277 70.5277 31.0588 62.5 31.0588C54.4723 31.0588 47.9412 24.5277 47.9412 16.5C47.9412 8.47227 54.4723 1.94118 62.5 1.94118C65.7596 1.94118 68.8409 2.99394 71.4103 4.98526C71.8338 5.31332 72.4437 5.23665 72.7721 4.81282C73.1004 4.389 73.0234 3.77947 72.5996 3.45109C69.6866 1.19318 66.1941 0 62.5 0C53.402 0 46 7.40171 46 16.5C46 25.598 53.402 33 62.5 33C71.598 33 79 25.598 79 16.5C79 15.9639 78.5655 15.5294 78.0294 15.5294Z" fill="black"/>
<path d="M73.5 0.277588C72.9639 0.277588 72.5294 0.712088 72.5294 1.24818V4.85294H68.9706C68.4345 4.85294 68 5.28744 68 5.82353C68 6.35962 68.4345 6.79412 68.9706 6.79412H73.5C74.0361 6.79412 74.4706 6.35929 74.4706 5.82353V1.24818C74.4706 0.712088 74.0361 0.277588 73.5 0.277588Z" fill="black"/>
<path d="M62.6223 6.14715C62.9797 6.14715 63.2694 5.85745 63.2694 5.50009C63.2694 5.14273 62.9797 4.85303 62.6223 4.85303C62.2649 4.85303 61.9752 5.14273 61.9752 5.50009C61.9752 5.85745 62.2649 6.14715 62.6223 6.14715Z" fill="black"/>
<path d="M65.8344 13.5419V25.4419H63.0804V15.7519H60.7004V13.5419H65.8344Z" fill="black"/>
<defs>
<clipPath id="clip0">
<rect width="59" height="59" fill="white" transform="translate(0 10)"/>
</clipPath>
</defs>
</svg>
