<svg width="85" height="85" viewBox="0 0 85 85" fill="none" xmlns="http://www.w3.org/2000/svg">
<path d="M83.5833 76.5H79.3334V49.5833C79.3328 48.801 78.698 48.1672 77.9156 48.1677C77.454 48.1681 77.0214 48.3933 76.7564 48.7716L56.9231 77.1049C56.4747 77.7461 56.6311 78.6294 57.2723 79.0776C57.5101 79.2439 57.7931 79.3331 58.0833 79.3333H76.5V83.5833C76.5 84.3657 77.1343 85 77.9167 85C78.699 85 79.3334 84.3657 79.3334 83.5833V79.3333H83.5833C84.3657 79.3333 85 78.699 85 77.9166C85 77.1343 84.3657 76.5 83.5833 76.5ZM76.5 76.5H60.8033L76.5 54.077V76.5Z" fill="black"/>
<path d="M58.0833 82.1668H41.3114L56.9047 63.8053C56.9401 63.7632 56.9732 63.7193 57.0038 63.6736C59.9374 59.3319 58.9603 53.4536 54.7797 50.2946C49.6965 46.6422 42.6149 47.8023 38.9628 52.8855C37.5778 54.8131 36.833 57.1266 36.8333 59.5001C36.8333 60.2824 37.4677 60.9168 38.25 60.9168C39.0324 60.9168 39.6667 60.2824 39.6667 59.5001C39.6661 54.8056 43.4715 50.9997 48.1658 50.9992C49.9451 50.999 51.6797 51.5572 53.125 52.5953C56.0534 54.8391 56.7354 58.9715 54.6833 62.0373L37.1705 82.6669C36.6642 83.2634 36.7375 84.1574 37.3341 84.6636C37.59 84.8807 37.9144 84.9999 38.25 85.0001H58.0833C58.8657 85.0001 59.5 84.3658 59.5 83.5834C59.5 82.8011 58.8657 82.1668 58.0833 82.1668Z" fill="black"/>
<path d="M38.2812 75.1103C38.3107 74.3284 37.7007 73.6707 36.9189 73.6412C36.9187 73.6412 36.9185 73.6412 36.9183 73.6412C18.4361 72.9551 3.60205 58.1476 2.88292 39.6667H8.5C9.28235 39.6667 9.91667 39.0324 9.91667 38.25C9.91667 37.4676 9.28235 36.8333 8.5 36.8333H2.88292C3.59178 18.385 18.3848 3.59249 36.8333 2.88433V7.08333C36.8333 7.86569 37.4676 8.5 38.25 8.5C39.0324 8.5 39.6667 7.86569 39.6667 7.08333V2.88433C57.8627 3.58806 72.5486 17.9966 73.5987 36.176L68.0737 30.651C67.5109 30.1074 66.6142 30.1229 66.0705 30.6857C65.5403 31.2347 65.5403 32.105 66.0705 32.6542L73.9783 40.562C74.1273 40.7423 74.3192 40.882 74.5365 40.9686C74.5919 40.9852 74.6482 40.999 74.7051 41.0097C74.8023 41.0447 74.9029 41.069 75.0054 41.0819C75.0196 41.0819 75.0323 41.0819 75.0465 41.0819C75.0607 41.0819 75.0734 41.0819 75.0862 41.0819C75.194 41.0738 75.3006 41.0529 75.4035 41.0196C75.4618 41.0125 75.5195 41.0017 75.5763 40.987C75.7681 40.9188 75.9427 40.8096 76.0878 40.6668L84.1033 32.6542C84.6467 32.0914 84.6313 31.1946 84.0685 30.651C83.5196 30.1208 82.6492 30.1208 82.1001 30.651L76.4377 36.3092C75.4256 16.003 58.6819 0.0497604 38.3506 0.0198333C38.3152 0.0184167 38.2854 0 38.25 0C38.2146 0 38.1848 0.0184167 38.1494 0.0198333C17.1031 0.0486979 0.0486979 17.1031 0.0198333 38.1494C0.0198333 38.1848 0 38.2146 0 38.25C0 38.2854 0.0184167 38.3152 0.0198333 38.3506C0.0550729 58.8776 16.3007 75.7099 36.8135 76.4731H36.8659C37.6272 76.4729 38.2523 75.871 38.2812 75.1103Z" fill="#FFC444"/>
<path d="M57.2829 19.2171C56.7297 18.6641 55.833 18.6641 55.2798 19.2171L40.0563 34.4392C38.9061 33.9264 37.5923 33.9264 36.4423 34.4392L29.2343 27.2312C28.6716 26.6878 27.7746 26.7033 27.2312 27.2661C26.701 27.8151 26.701 28.6854 27.2312 29.2344L34.425 36.4282C33.4149 38.5426 34.3102 41.0756 36.4248 42.0855C38.0478 42.8608 39.9833 42.5284 41.2548 41.2562C42.5331 39.9887 42.8623 38.0478 42.0736 36.4296L57.2829 21.2203C57.836 20.6671 57.836 19.7703 57.2829 19.2171ZM39.2519 39.2513C39.2518 39.2515 39.2518 39.2515 39.2516 39.2516C38.6913 39.7873 37.8087 39.7873 37.2484 39.2516C36.695 38.6984 36.695 37.8015 37.2481 37.2481C37.8013 36.6947 38.6982 36.6947 39.2516 37.2478C39.805 37.801 39.805 38.6981 39.2519 39.2513Z" fill="black"/>
</svg>
