<svg width="150" height="52" viewBox="0 0 150 52" fill="none" xmlns="http://www.w3.org/2000/svg">
<path d="M66.2518 21.6001V44.0001H63.0375V34.0161H50.1161V44.0001H46.9018V21.6001H50.1161V31.2321H63.0375V21.6001H66.2518ZM87.9328 35.6161C87.9328 35.8508 87.9114 36.1601 87.8685 36.5441H74.0471C74.24 38.0374 74.8935 39.2428 76.0078 40.1601C77.1435 41.0561 78.5471 41.5041 80.2185 41.5041C82.2542 41.5041 83.8935 40.8214 85.1364 39.4561L86.84 41.4401C86.0685 42.3361 85.1042 43.0188 83.9471 43.4881C82.8114 43.9574 81.5364 44.1921 80.1221 44.1921C78.3221 44.1921 76.7257 43.8294 75.3328 43.1041C73.94 42.3574 72.8578 41.3228 72.0864 40.0001C71.3364 38.6774 70.9614 37.1841 70.9614 35.5201C70.9614 33.8774 71.3257 32.3948 72.0542 31.0721C72.8042 29.7494 73.8221 28.7254 75.1078 28.0001C76.415 27.2534 77.8828 26.8801 79.5114 26.8801C81.1399 26.8801 82.5864 27.2534 83.8507 28.0001C85.1364 28.7254 86.1328 29.7494 86.84 31.0721C87.5685 32.3948 87.9328 33.9094 87.9328 35.6161ZM79.5114 29.4721C78.0328 29.4721 76.79 29.9201 75.7828 30.8161C74.7971 31.7121 74.2185 32.8854 74.0471 34.3361H84.9757C84.8042 32.9068 84.215 31.7441 83.2078 30.8481C82.2221 29.9308 80.99 29.4721 79.5114 29.4721ZM92.2179 20.2561H95.3036V44.0001H92.2179V20.2561Z" fill="#6165D7"/>
<path d="M110.227 26.8799C111.877 26.8799 113.356 27.2425 114.663 27.9679C115.97 28.6932 116.988 29.7066 117.717 31.0079C118.467 32.3092 118.842 33.8132 118.842 35.5199C118.842 37.2265 118.467 38.7412 117.717 40.0639C116.988 41.3652 115.97 42.3785 114.663 43.1039C113.356 43.8292 111.877 44.1919 110.227 44.1919C109.006 44.1919 107.881 43.9572 106.852 43.4879C105.845 43.0186 104.988 42.3359 104.281 41.4399V50.2079H101.195V27.0399H104.152V29.7279C104.838 28.7892 105.706 28.0852 106.756 27.6159C107.806 27.1252 108.963 26.8799 110.227 26.8799ZM109.97 41.5039C111.063 41.5039 112.038 41.2585 112.895 40.7679C113.774 40.2559 114.459 39.5519 114.952 38.6559C115.467 37.7386 115.724 36.6932 115.724 35.5199C115.724 34.3465 115.467 33.3119 114.952 32.4159C114.459 31.4985 113.774 30.7946 112.895 30.3039C112.038 29.8132 111.063 29.5679 109.97 29.5679C108.899 29.5679 107.924 29.8239 107.045 30.3359C106.188 30.8266 105.502 31.5199 104.988 32.4159C104.495 33.3119 104.249 34.3465 104.249 35.5199C104.249 36.6932 104.495 37.7386 104.988 38.6559C105.481 39.5519 106.167 40.2559 107.045 40.7679C107.924 41.2585 108.899 41.5039 109.97 41.5039Z" fill="black"/>
<path d="M129.244 26.8799C131.602 26.8799 133.402 27.4559 134.644 28.6079C135.909 29.7599 136.541 31.4772 136.541 33.7599V43.9999H133.616V41.7599C133.102 42.5492 132.362 43.1572 131.398 43.5839C130.455 43.9892 129.33 44.1919 128.023 44.1919C126.116 44.1919 124.584 43.7332 123.427 42.8159C122.291 41.8985 121.723 40.6932 121.723 39.1999C121.723 37.7065 122.269 36.5119 123.362 35.6159C124.455 34.6985 126.191 34.2399 128.569 34.2399H133.455V33.6319C133.455 32.3092 133.069 31.2959 132.298 30.5919C131.527 29.8879 130.391 29.5359 128.891 29.5359C127.884 29.5359 126.898 29.7065 125.934 30.0479C124.969 30.3679 124.155 30.8052 123.491 31.3599L122.205 29.0559C123.084 28.3519 124.134 27.8185 125.355 27.4559C126.577 27.0719 127.873 26.8799 129.244 26.8799ZM128.537 41.8239C129.716 41.8239 130.734 41.5679 131.591 41.0559C132.448 40.5225 133.069 39.7759 133.455 38.8159V36.4479H128.698C126.084 36.4479 124.777 37.3226 124.777 39.0719C124.777 39.9252 125.109 40.5972 125.773 41.0879C126.437 41.5786 127.359 41.8239 128.537 41.8239Z" fill="#262626"/>
<path d="M26.2416 8.93747H24.1699V6.875C24.1699 6.69267 24.0972 6.51779 23.9676 6.38887C23.8381 6.25993 23.6625 6.1875 23.4793 6.1875H20.7171C20.5339 6.1875 20.3583 6.25993 20.2288 6.38887C20.0993 6.51779 20.0265 6.69267 20.0265 6.875V8.93747H17.9548C17.7716 8.93747 17.596 9.00993 17.4665 9.13887C17.337 9.2678 17.2642 9.44267 17.2642 9.625V12.375C17.2642 12.5573 17.337 12.7322 17.4665 12.8611C17.596 12.9901 17.7716 13.0625 17.9548 13.0625H20.0265V15.125C20.0265 15.3073 20.0993 15.4822 20.2288 15.6111C20.3583 15.7401 20.5339 15.8125 20.7171 15.8125H23.4793C23.6625 15.8125 23.8381 15.7401 23.9676 15.6111C24.0972 15.4822 24.1699 15.3073 24.1699 15.125V13.0625H26.2416C26.4248 13.0625 26.6004 12.9901 26.7299 12.8611C26.8594 12.7322 26.9322 12.5573 26.9322 12.375V9.625C26.9322 9.44267 26.8594 9.2678 26.7299 9.13887C26.6004 9.00993 26.4248 8.93747 26.2416 8.93747ZM25.551 11.6875H23.4793C23.2962 11.6875 23.1206 11.7599 22.991 11.8889C22.8615 12.0178 22.7887 12.1927 22.7887 12.375V14.4375H21.4077V12.375C21.4077 12.1927 21.3349 12.0178 21.2054 11.8889C21.0759 11.7599 20.9002 11.6875 20.7171 11.6875H18.6454V10.3125H20.7171C20.9002 10.3125 21.0759 10.2401 21.2054 10.1111C21.3349 9.9822 21.4077 9.80733 21.4077 9.625V7.56253H22.7887V9.625C22.7887 9.80733 22.8615 9.9822 22.991 10.1111C23.1206 10.2401 23.2962 10.3125 23.4793 10.3125H25.551V11.6875Z" fill="black"/>
<path d="M41.2477 12.6224C41.2617 12.5015 41.2686 12.3798 41.2684 12.258C41.2651 11.6279 41.0455 11.0177 40.6461 10.5288C40.2467 10.0399 39.6914 9.7016 39.0724 9.56987C38.3722 9.4372 37.6475 9.57427 37.0449 9.95333C36.4424 10.3324 36.0069 10.9252 35.8267 11.6118L32.7882 20.3155C32.7432 20.3333 32.6994 20.354 32.657 20.3774L26.5524 23.9387C25.6183 24.4849 24.8434 25.2644 24.3045 26.2C23.7656 27.1357 23.4812 28.1951 23.4794 29.2737V35.7499C23.2962 35.7499 23.1206 35.8223 22.9911 35.9513C22.8615 36.0802 22.7888 36.2551 22.7888 36.4374V41.9374C22.7888 42.1197 22.8615 42.2946 22.9911 42.4235C23.1206 42.5525 23.2962 42.6249 23.4794 42.6249H33.1473C33.3305 42.6249 33.5061 42.5525 33.6356 42.4235C33.7651 42.2946 33.8379 42.1197 33.8379 41.9374V36.4374C33.8379 36.2551 33.7651 36.0802 33.6356 35.9513C33.5061 35.8223 33.3305 35.7499 33.1473 35.7499V34.2374C33.1486 33.947 33.2107 33.6601 33.3296 33.3949C33.4485 33.1298 33.6216 32.8922 33.8379 32.6974L38.5061 28.5655C39.0167 28.1207 39.3823 27.5342 39.5558 26.8811L42.5529 15.723C42.6169 15.49 42.6494 15.2496 42.6496 15.008C42.6468 14.5229 42.5158 14.0469 42.2698 13.6282C42.0237 13.2094 41.6712 12.8625 41.2477 12.6224ZM37.1457 12.0174C37.2305 11.6619 37.4468 11.3512 37.7513 11.1473C38.0559 10.9435 38.4266 10.8613 38.7893 10.9174C39.0988 10.9819 39.3767 11.1503 39.5766 11.3943C39.7764 11.6383 39.8861 11.9432 39.8873 12.258V12.2718C39.2704 12.2832 38.6742 12.4949 38.1893 12.8746C37.7044 13.2543 37.3574 13.7814 37.2009 14.3755L35.2743 20.2949C34.9826 20.1571 34.6698 20.0689 34.3489 20.0337L37.1457 12.0174ZM32.4567 41.2499H24.1699V37.1249H32.4567V41.2499ZM41.2201 15.3655L38.2161 26.5305C38.1122 26.9185 37.896 27.2675 37.5946 27.5343L32.9194 31.6661C32.5577 31.9909 32.2682 32.3875 32.0695 32.8303C31.8709 33.2731 31.7676 33.7524 31.7662 34.2374V35.7499H24.8605V29.2737C24.8639 28.4349 25.0859 27.6113 25.5047 26.8835C25.9235 26.1556 26.5248 25.5484 27.2499 25.1211L33.3476 21.5668C33.5048 21.4756 33.6786 21.4162 33.859 21.3921C34.0393 21.3679 34.2226 21.3795 34.3984 21.4262C34.5743 21.4728 34.7391 21.5536 34.8835 21.6639C35.0279 21.7741 35.149 21.9117 35.2398 22.0687C35.4191 22.3863 35.4686 22.7606 35.3778 23.1137C35.3299 23.288 35.2479 23.4512 35.1365 23.5939C35.0251 23.7367 34.8865 23.8561 34.7288 23.9455L30.7718 26.2211C30.6214 26.3163 30.5139 26.4655 30.4715 26.6378C30.4291 26.81 30.4552 26.9919 30.5444 27.1454C30.6335 27.2989 30.7788 27.4122 30.9498 27.4616C31.1209 27.511 31.3045 27.4927 31.4623 27.4105L35.4193 25.1349C35.7356 24.9563 36.0128 24.7164 36.2345 24.4295C36.4563 24.1426 36.6182 23.8144 36.7106 23.4643C36.8987 22.7609 36.7994 22.0119 36.4344 21.3811L36.393 21.3193L38.5268 14.7674C38.6116 14.4119 38.8279 14.1012 39.1325 13.8973C39.4371 13.6935 39.8077 13.6113 40.1704 13.6674C40.4799 13.7319 40.7578 13.9003 40.9577 14.1443C41.1575 14.3883 41.2672 14.6932 41.2684 15.008C41.2708 15.1289 41.2544 15.2495 41.2201 15.3655Z" fill="black"/>
<path d="M20.717 35.75V29.2738C20.7153 28.1952 20.4308 27.1358 19.8919 26.2001C19.3529 25.2645 18.5782 24.485 17.644 23.9388L11.5393 20.3706C11.498 20.35 11.4496 20.3362 11.4082 20.3156L8.39035 11.66C8.21497 10.9634 7.77957 10.3596 7.17274 9.97129C6.56593 9.58295 5.83331 9.43949 5.12397 9.56995C4.50494 9.70169 3.9497 10.04 3.55029 10.5289C3.15089 11.0178 2.93132 11.628 2.92797 12.2581C2.92779 12.3799 2.9347 12.5016 2.94868 12.6225C2.5252 12.8626 2.17269 13.2095 1.9266 13.6282C1.68052 14.047 1.54953 14.523 1.54683 15.0081C1.54817 15.2492 1.5783 15.4892 1.6366 15.7231L4.64058 26.8744C4.81224 27.5302 5.17795 28.1194 5.69024 28.5656L10.3516 32.6975C10.57 32.891 10.7451 33.1281 10.8652 33.3934C10.9854 33.6588 11.048 33.9464 11.049 34.2375V35.75C10.8659 35.75 10.6902 35.8224 10.5607 35.9514C10.4312 36.0803 10.3585 36.2552 10.3585 36.4375V41.9375C10.3585 42.1198 10.4312 42.2947 10.5607 42.4236C10.6902 42.5526 10.8659 42.625 11.049 42.625H20.717C20.9002 42.625 21.0758 42.5526 21.2053 42.4236C21.3348 42.2947 21.4076 42.1198 21.4076 41.9375V36.4375C21.4076 36.2552 21.3348 36.0803 21.2053 35.9514C21.0758 35.8224 20.9002 35.75 20.717 35.75ZM4.30911 12.2581C4.30996 11.9442 4.41865 11.6401 4.61714 11.3962C4.81562 11.1524 5.09194 10.9834 5.4002 10.9175C5.77288 10.8636 6.15222 10.952 6.46216 11.165C6.77209 11.3779 6.98973 11.6996 7.07136 12.0656L9.84749 20.0338C9.52653 20.069 9.21381 20.1572 8.92211 20.295L7.00921 14.41C6.85352 13.81 6.50583 13.2768 6.01866 12.891C5.53149 12.5052 4.93138 12.2879 4.30911 12.2719V12.2581ZM11.27 31.6662L6.6018 27.5344C6.29867 27.2662 6.08236 26.9144 5.98028 26.5238L2.9694 15.3656C2.94081 15.2486 2.9269 15.1285 2.92797 15.0081C2.92882 14.6942 3.03751 14.3901 3.236 14.1462C3.43449 13.9024 3.71081 13.7334 4.01906 13.6675C4.38911 13.6122 4.76647 13.6984 5.07523 13.9089C5.384 14.1194 5.60126 14.4384 5.68333 14.8019L7.80341 21.3194L7.76196 21.3812C7.39707 22.012 7.29776 22.7609 7.48573 23.4644C7.57821 23.8145 7.74006 24.1427 7.96185 24.4296C8.18363 24.7165 8.4608 24.9564 8.77707 25.135L12.7341 27.4106C12.8919 27.4928 13.0755 27.5111 13.2465 27.4617C13.4176 27.4123 13.5629 27.299 13.652 27.1455C13.7411 26.992 13.7672 26.8101 13.7249 26.6379C13.6825 26.4656 13.5749 26.3164 13.4246 26.2212L9.46767 23.9456C9.30984 23.8562 9.17129 23.7368 9.05993 23.594C8.9485 23.4513 8.86647 23.2881 8.81852 23.1138C8.72778 22.7607 8.77727 22.3864 8.95667 22.0688C9.04687 21.9121 9.1672 21.7747 9.31078 21.6643C9.45435 21.554 9.61834 21.4729 9.79345 21.4256C9.9685 21.3784 10.1512 21.366 10.3311 21.389C10.511 21.412 10.6845 21.4702 10.8419 21.56L16.9465 25.1212C17.6716 25.5485 18.2729 26.1557 18.6917 26.8836C19.1105 27.6114 19.3324 28.435 19.3359 29.2738V35.75H12.4302V34.2375C12.429 33.7518 12.3251 33.2718 12.1252 32.8288C11.9253 32.3858 11.634 31.9897 11.27 31.6662ZM20.0265 41.25H11.7396V37.125H20.0265V41.25Z" fill="black"/>
<path d="M31.8676 3.52816C31.2265 2.88881 30.4651 2.38159 29.6269 2.03555C28.7887 1.6895 27.8902 1.51141 26.9827 1.51147C26.0754 1.51154 25.1768 1.68975 24.3386 2.03592C23.5005 2.38209 22.7391 2.88941 22.0981 3.52885C21.4572 2.88939 20.6959 2.38207 19.8578 2.03591C19.0196 1.68977 18.1211 1.51159 17.2138 1.51159C16.3063 1.51159 15.4079 1.68977 14.5698 2.03591C13.7316 2.38207 12.9703 2.88939 12.3293 3.52885C11.0369 4.81837 10.311 6.56569 10.311 8.38739C10.311 10.2091 11.0369 11.9565 12.3293 13.246L21.6106 22.486C21.7401 22.6149 21.9157 22.6873 22.0988 22.6873C22.282 22.6873 22.4575 22.6149 22.5871 22.486L31.8683 13.246C33.1608 11.9563 33.8865 10.2087 33.8864 8.38692C33.8863 6.56509 33.1602 4.81771 31.8676 3.52816ZM22.0981 21.0278L13.3051 12.2739C12.5332 11.5043 12.0077 10.5241 11.7952 9.45725C11.5827 8.39045 11.6927 7.28479 12.1112 6.28019C12.5298 5.27557 13.2382 4.41705 14.1467 3.81315C15.0553 3.20925 16.1233 2.88709 17.2158 2.88741C17.9415 2.88493 18.6605 3.02633 19.3307 3.30336C20.001 3.58039 20.6091 3.98751 21.1196 4.50097L21.6099 4.9891C21.7394 5.11798 21.9151 5.19039 22.0981 5.19039C22.2813 5.19039 22.4569 5.11798 22.5864 4.9891L23.078 4.4996C23.5908 3.98827 24.1997 3.58261 24.87 3.30583C25.5403 3.02905 26.2589 2.88659 26.9846 2.88659C27.7103 2.88659 28.4289 3.02905 29.0992 3.30583C29.7696 3.58261 30.3785 3.98827 30.8912 4.4996C31.9256 5.53083 32.5066 6.92865 32.5066 8.38605C32.5066 9.84345 31.9256 11.2413 30.8912 12.2725L22.0981 21.0278Z" fill="#FFC444"/>
<path d="M143.638 22.6667C147.152 22.6667 150 19.8311 150 16.3333C150 12.8355 147.152 10 143.638 10C140.125 10 137.277 12.8355 137.277 16.3333C137.277 19.8311 140.125 22.6667 143.638 22.6667Z" fill="#FFC444" fill-opacity="0.5"/>
</svg>
