<svg width="26" height="42" viewBox="0 0 26 42" fill="none" xmlns="http://www.w3.org/2000/svg">
<path d="M25.2812 5.34375C25.2812 2.75625 23.1812 0.65625 20.5938 0.65625H5.40625C2.81875 0.65625 0.71875 2.75625 0.71875 5.34375V36.75C0.71875 39.3375 2.81875 41.4375 5.40625 41.4375H20.5938C23.1812 41.4375 25.2812 39.3375 25.2812 36.75V5.34375ZM5.39687 2.53125H20.6031C22.1313 2.5125 23.3875 3.74062 23.4062 5.26875C23.4062 5.27812 23.4062 5.2875 23.4062 5.29688V6.375H2.59375V5.29688C2.59375 3.76875 3.84063 2.53125 5.36875 2.53125C5.37813 2.53125 5.3875 2.53125 5.39687 2.53125ZM23.4062 8.25V31.5938H2.59375V8.25H23.4062ZM20.6031 39.4688H5.39687C3.86875 39.4875 2.6125 38.2594 2.59375 36.7312C2.59375 36.7219 2.59375 36.7125 2.59375 36.7031V33.4688H23.4062V36.7031C23.4062 38.2313 22.1594 39.4688 20.6312 39.4688C20.6219 39.4688 20.6125 39.4688 20.6031 39.4688Z" fill="#6165D7"/>
<path d="M16.0281 35.1562H10.0094C9.49374 35.1562 9.07187 35.5781 9.07187 36.0938C9.07187 36.6094 9.49374 37.0312 10.0094 37.0312H16.0281C16.5437 37.0312 16.9656 36.6094 16.9656 36.0938C16.9656 35.5781 16.5531 35.1562 16.0281 35.1562ZM11.8844 5.625H14.1531C14.6687 5.625 15.0906 5.20312 15.0906 4.6875C15.0906 4.17188 14.6687 3.75 14.1531 3.75H11.8844C11.3687 3.75 10.9469 4.17188 10.9469 4.6875C10.9469 5.20312 11.3687 5.625 11.8844 5.625Z" fill="#6165D7"/>
</svg>
