<svg width="161" height="161" viewBox="0 0 161 161" fill="none" xmlns="http://www.w3.org/2000/svg">
<circle cx="79.8711" cy="81.1289" r="70.0664" stroke="#FFC444" stroke-width="2"/>
<circle cx="80.5" cy="80.5" r="80" stroke="#FFC444" stroke-opacity="0.5"/>
<circle cx="79.8711" cy="81.1289" r="62.2617" fill="#FFC444"/>
<path d="M105.488 111.241L104.012 102.692C103.909 102.094 103.341 101.692 102.742 101.796C102.144 101.899 101.743 102.467 101.847 103.066L103.322 111.615C103.416 112.159 103.266 112.714 102.91 113.137C102.554 113.56 102.033 113.803 101.48 113.803H96.8184L95.8067 108.451C95.6939 107.855 95.1191 107.463 94.523 107.576C93.9268 107.689 93.5348 108.263 93.6475 108.859L94.582 113.803H68.4176L69.3522 108.859C69.465 108.263 69.073 107.688 68.4766 107.576C67.8803 107.463 67.3058 107.855 67.193 108.451L66.1814 113.803H61.5201C60.9673 113.803 60.4459 113.56 60.0898 113.137C59.7337 112.714 59.5833 112.159 59.6775 111.614L62.3558 96.0993C62.6567 94.3569 63.8715 92.8873 65.5261 92.264L68.0786 91.3027L74.3174 99.9567C74.7469 100.552 75.4121 100.938 76.1423 101.015C76.2324 101.024 76.3223 101.029 76.4118 101.029C77.0498 101.029 77.6704 100.792 78.1475 100.36L81.5 97.3204L84.8524 100.36C85.3294 100.793 85.95 101.029 86.5881 101.029C86.6777 101.029 86.7677 101.025 86.8576 101.015C87.5879 100.938 88.253 100.553 88.6825 99.9568L94.9213 91.303L97.4738 92.2643C99.1285 92.8875 100.343 94.3572 100.644 96.0996L101.103 98.7586C101.206 99.3565 101.775 99.7579 102.373 99.6543C102.971 99.5511 103.372 98.9828 103.268 98.3848L102.809 95.7258C102.377 93.219 100.629 91.1048 98.2484 90.2081L87.2893 86.1164C86.9287 85.984 86.6864 85.6368 86.6864 85.2526V83.5893C91.0261 81.6539 94.0601 77.3016 94.0601 72.2511V66.0211H95.082C95.6887 66.0211 96.1806 65.5292 96.1806 64.9225C96.1806 64.3157 95.6887 63.8238 95.082 63.8238H87.8735C85.7937 63.8238 83.7702 63.0883 82.1757 61.753L78.3484 58.5473C77.8985 58.1706 77.3076 58.0037 76.7269 58.089C76.1464 58.1745 75.6287 58.5048 75.3068 58.9954L74.7648 59.8207C73.2248 62.1659 70.6333 63.6574 67.8325 63.8106C67.2267 63.8438 66.7625 64.3617 66.7956 64.9676C66.8287 65.5734 67.3477 66.039 67.9525 66.0045C68.2843 65.9864 68.6137 65.953 68.94 65.9054V72.2512C68.94 77.3016 71.9741 81.654 76.3137 83.5894V85.2527C76.3137 85.637 76.0714 85.9841 75.7108 86.1165L64.7517 90.2083C62.3712 91.1049 60.6233 93.2191 60.1906 95.7259L57.5123 111.241C57.3078 112.426 57.6346 113.633 58.4092 114.553C59.1838 115.472 60.3177 116 61.5201 116H101.48C102.682 116 103.816 115.472 104.591 114.553C105.365 113.633 105.692 112.426 105.488 111.241ZM76.6717 98.7321C76.5605 98.8328 76.4363 98.8368 76.3723 98.8298C76.3081 98.823 76.1876 98.7936 76.0998 98.6719L70.209 90.5005L72.0218 89.8178L79.5141 96.1548L76.6717 98.7321ZM86.9001 98.6719C86.8124 98.7937 86.6918 98.8232 86.6277 98.8299C86.5635 98.8368 86.4394 98.8328 86.3282 98.7322L83.4857 96.155L90.9779 89.8179L92.7908 90.5007L86.9001 98.6719ZM71.1372 72.2511V65.3481C73.3496 64.5384 75.2841 63.0331 76.6014 61.0267L77.0574 60.3322L80.7648 63.4374C82.7542 65.1035 85.2787 66.0211 87.8735 66.0211H91.8627V72.2511C91.8627 77.8825 87.2813 82.464 81.6498 82.464H81.35C75.7187 82.464 71.1372 77.8825 71.1372 72.2511ZM76.4684 88.1789C77.6902 87.7302 78.511 86.5541 78.511 85.2526V84.3297C79.4234 84.5442 80.3731 84.6612 81.35 84.6612H81.6498C82.6267 84.6612 83.5764 84.5442 84.4888 84.3297V85.2526C84.4888 86.5541 85.3097 87.7302 86.5314 88.1789L88.6103 88.9425L81.9541 94.5725C81.922 94.5996 81.888 94.6232 81.8528 94.6437C81.7462 94.7055 81.6245 94.7388 81.5 94.7388C81.3755 94.7388 81.2537 94.7055 81.1472 94.6438C81.1119 94.6233 81.0779 94.5996 81.0457 94.5725L74.3895 88.9425L76.4684 88.1789Z" fill="black"/>
<path d="M67.3943 80.5401C67.4816 80.5613 67.5689 80.5714 67.6549 80.5714C68.1499 80.5714 68.5993 80.2345 68.7216 79.7322C68.865 79.1426 68.5034 78.5483 67.9138 78.4049C66.214 77.9914 65.0269 76.4809 65.0269 74.7315V67.6752V64.26C65.0269 60.4514 66.9854 57.0937 69.9465 55.1347H93.053C96.0143 57.0935 97.9727 60.4514 97.9727 64.26V67.6752V74.7315C97.9727 76.4809 96.7855 77.9914 95.0857 78.4049C94.4963 78.5483 94.1345 79.1426 94.2779 79.7322C94.4 80.2345 94.8495 80.5714 95.3446 80.5714C95.4304 80.5714 95.5179 80.5612 95.6052 80.5401C98.2929 79.8863 100.17 77.4978 100.17 74.7317V67.6754V64.2601C100.17 59.9423 98.0749 56.1056 94.8487 53.7102L96.6839 50.526C97.6743 48.8078 97.2001 46.6411 95.581 45.4864C94.636 44.8124 93.618 44.196 92.5551 43.6544C92.0145 43.3791 91.3527 43.5938 91.0773 44.1345C90.802 44.6751 91.0168 45.3367 91.5574 45.6122C92.5239 46.1047 93.4483 46.6643 94.3051 47.2752C94.9984 47.7698 95.2026 48.6957 94.7802 49.4289L92.7578 52.9376H70.2443L68.2204 49.4289C67.7973 48.6956 68.0014 47.7695 68.695 47.2748C70.8304 45.752 75.3333 43.1973 81.4999 43.1973C83.4484 43.1973 85.3806 43.4511 87.2427 43.9517C87.8285 44.1091 88.4314 43.762 88.5889 43.176C88.7465 42.5901 88.3992 41.9873 87.8132 41.8298C85.7651 41.2792 83.6409 41 81.4999 41C74.7215 41 69.7684 43.8106 67.4192 45.4858C65.7994 46.641 65.3257 48.8081 66.3171 50.5268L68.1522 53.7081C64.925 56.1034 62.8296 59.9415 62.8296 64.2601V67.6754V74.7317C62.8296 77.4978 64.7066 79.8862 67.3943 80.5401Z" fill="black"/>
<path d="M78.4413 68.9902C78.4413 68.3834 77.9494 67.8915 77.3427 67.8915H76.4219C75.8151 67.8915 75.3232 68.3834 75.3232 68.9902C75.3232 69.5969 75.8151 70.0888 76.4219 70.0888H77.3427C77.9494 70.0888 78.4413 69.5969 78.4413 68.9902Z" fill="black"/>
<path d="M85.6572 70.0888H86.5779C87.1846 70.0888 87.6765 69.5969 87.6765 68.9902C87.6765 68.3834 87.1846 67.8915 86.5779 67.8915H85.6572C85.0505 67.8915 84.5586 68.3834 84.5586 68.9902C84.5586 69.5969 85.0505 70.0888 85.6572 70.0888Z" fill="black"/>
<path d="M81.5 50.9826C82.1068 50.9826 82.5987 50.4907 82.5987 49.8839V49.1659H83.3167C83.9235 49.1659 84.4154 48.674 84.4154 48.0672C84.4154 47.4605 83.9235 46.9686 83.3167 46.9686H82.5987V46.2505C82.5987 45.6438 82.1068 45.1519 81.5 45.1519C80.8933 45.1519 80.4014 45.6438 80.4014 46.2505V46.9686H79.6833C79.0766 46.9686 78.5847 47.4605 78.5847 48.0672C78.5847 48.674 79.0766 49.1659 79.6833 49.1659H80.4014V49.8839C80.4014 50.4907 80.8933 50.9826 81.5 50.9826Z" fill="black"/>
<path d="M82.5986 100.784C82.5986 100.178 82.1067 99.6858 81.5 99.6858C80.8933 99.6858 80.4014 100.178 80.4014 100.784V101.545C80.4014 102.152 80.8933 102.644 81.5 102.644C82.1067 102.644 82.5986 102.152 82.5986 101.545V100.784Z" fill="black"/>
<path d="M82.5986 105.361C82.5986 104.754 82.1067 104.262 81.5 104.262C80.8933 104.262 80.4014 104.754 80.4014 105.361V106.122C80.4014 106.728 80.8933 107.22 81.5 107.22C82.1067 107.22 82.5986 106.728 82.5986 106.122V105.361Z" fill="black"/>
<path d="M81.5 109.061C80.8933 109.061 80.4014 109.553 80.4014 110.159V110.92C80.4014 111.527 80.8933 112.019 81.5 112.019C82.1067 112.019 82.5986 111.527 82.5986 110.92V110.159C82.5986 109.553 82.1067 109.061 81.5 109.061Z" fill="black"/>
<path d="M84.6105 77.6091L84.8793 77.4635C85.4129 77.1745 85.6111 76.5078 85.3221 75.9742C85.0331 75.4405 84.3663 75.2423 83.8328 75.5313L83.564 75.677C82.2716 76.3769 80.7283 76.3769 79.4356 75.677L79.1668 75.5313C78.633 75.2422 77.9665 75.4405 77.6775 75.9742C77.3885 76.5077 77.5867 77.1745 78.1203 77.4635L78.3891 77.6092C79.363 78.1366 80.4314 78.4002 81.4997 78.4002C82.5682 78.4002 83.6366 78.1366 84.6105 77.6091Z" fill="black"/>
<g clip-path="url(#clip0)">
<path d="M56.4592 79.9523C56.2988 79.8518 56.0903 79.8742 55.9549 80.0065C55.3552 80.5923 54.6787 81.1043 53.944 81.5285C51.6114 82.8755 48.8938 83.2335 46.2917 82.5362C43.6897 81.839 41.515 80.1702 40.1682 77.8372C39.2026 76.1647 38.7383 74.2659 38.8257 72.346C38.9108 70.476 39.51 68.6706 40.5588 67.1249C40.686 66.9374 40.6371 66.6823 40.4497 66.5552C40.2622 66.4281 40.0072 66.4769 39.88 66.6643C38.7461 68.3355 38.0981 70.2872 38.0062 72.3087C37.9117 74.3854 38.4136 76.4389 39.4578 78.2474C40.9141 80.7701 43.2657 82.5746 46.0794 83.3286C48.8931 84.0825 51.8318 83.6955 54.3542 82.2389C54.6635 82.0603 54.9634 81.8672 55.2525 81.6606C54.1123 84.0599 52.2675 86.0681 49.9419 87.4113C47.6161 88.7541 44.9774 89.3508 42.3109 89.1367C39.7055 88.9276 37.2468 87.9662 35.2004 86.3564C35.0224 86.2164 34.7645 86.247 34.6244 86.4252C34.4844 86.6032 34.5152 86.8611 34.6932 87.0011C36.8668 88.7111 39.4783 89.7323 42.2452 89.9544C42.6213 89.9846 42.9968 89.9996 43.3711 89.9996C45.8166 89.9996 48.2095 89.3587 50.3521 88.1217C53.3187 86.4083 55.5484 83.6766 56.6306 80.4295C56.6905 80.25 56.6197 80.0527 56.4592 79.9523Z" fill="black"/>
<path d="M36.7636 64.5862C39.0896 63.2435 41.7506 62.6503 44.3987 62.8624C44.0754 63.0094 43.7585 63.1724 43.4492 63.3508C42.6005 63.8409 41.8241 64.4394 41.1417 65.13C40.9825 65.2911 40.984 65.5508 41.1451 65.71C41.3062 65.8692 41.5659 65.8676 41.7251 65.7066C42.356 65.0682 43.0741 64.5146 43.8593 64.0612C44.5941 63.6373 45.3758 63.3077 46.1828 63.0815C46.3651 63.0304 46.4888 62.8612 46.482 62.672C46.4753 62.4828 46.3399 62.3227 46.1544 62.2848C42.8012 61.5979 39.3205 62.163 36.3534 63.8758C33.1153 65.7452 30.799 68.7639 29.8313 72.3756C28.8637 75.9873 29.3603 79.7598 31.2299 82.9979C31.7911 83.97 32.4656 84.8713 33.2349 85.6766C33.3155 85.7609 33.4234 85.8034 33.5315 85.8034C33.6333 85.8034 33.7353 85.7657 33.8147 85.6899C33.9786 85.5334 33.9845 85.2737 33.828 85.11C33.104 84.3519 32.4688 83.5033 31.9403 82.5878C30.1803 79.5393 29.7128 75.9879 30.6237 72.5879C31.5347 69.1878 33.7152 66.3461 36.7636 64.5862Z" fill="black"/>
<path d="M46.3258 70.6493C46.1993 70.8372 46.2491 71.0921 46.437 71.2186C46.5418 71.2891 46.651 71.3545 46.7635 71.4144C45.9519 71.8461 45.3247 72.5662 45.0099 73.4354C44.6956 72.5663 44.0682 71.8462 43.256 71.4142C44.0682 70.9823 44.6956 70.262 45.0099 69.3929C45.0327 69.4557 45.0571 69.5177 45.0827 69.5779C45.1713 69.7864 45.412 69.8837 45.6206 69.7951C45.829 69.7066 45.9263 69.4658 45.8377 69.2573C45.808 69.1874 45.7815 69.1173 45.7569 69.0441L45.3992 67.9706C45.3434 67.8031 45.1867 67.6901 45.0102 67.69C45.0101 67.69 45.0101 67.69 45.0101 67.69C44.8336 67.69 44.6769 67.8029 44.621 67.9703L44.2627 69.0441C44.0009 69.8302 43.4136 70.4684 42.6516 70.7951L42.0866 71.0374C41.9359 71.102 41.8381 71.2503 41.8381 71.4144C41.8381 71.5784 41.9359 71.7267 42.0866 71.7913L42.6516 72.0336C43.4138 72.3604 44.001 72.9986 44.2628 73.7848L44.621 74.8584C44.6769 75.0258 44.8336 75.1387 45.0101 75.1387H45.0102C45.1867 75.1387 45.3434 75.0257 45.3992 74.8582L45.7569 73.7848C46.0191 72.9984 46.6064 72.3601 47.3679 72.0337L47.9334 71.7914C48.0842 71.7268 48.182 71.5785 48.182 71.4144C48.182 71.2502 48.0842 71.1019 47.9334 71.0373L47.3678 70.795C47.2016 70.7239 47.0426 70.6374 46.8951 70.5381C46.7072 70.4116 46.4524 70.4613 46.3258 70.6493Z" fill="black"/>
<path d="M48.5492 77.4806L49.0014 77.6744C49.5893 77.9264 50.0425 78.4189 50.2448 79.0257L50.5311 79.8847C50.587 80.0522 50.7437 80.1652 50.9202 80.1652C51.0968 80.1652 51.2535 80.0522 51.3093 79.8847L51.5956 79.0257C51.7979 78.4189 52.2511 77.9264 52.8389 77.6744L53.2912 77.4806C53.442 77.416 53.5398 77.2676 53.5398 77.1036C53.5398 76.9395 53.442 76.7912 53.2912 76.7266L52.8389 76.5327C52.251 76.2808 51.7979 75.7883 51.5956 75.1814L51.3093 74.3225C51.2535 74.155 51.0967 74.0421 50.9202 74.0421C50.7436 74.0421 50.5869 74.155 50.5311 74.3225L50.2447 75.1815C50.0425 75.7883 49.5893 76.2808 49.0014 76.5327L48.5492 76.7266C48.3983 76.7912 48.3005 76.9395 48.3005 77.1036C48.3005 77.2676 48.3984 77.416 48.5492 77.4806ZM50.9202 75.7072C51.1772 76.2901 51.6102 76.7786 52.1561 77.1036C51.6103 77.4286 51.1773 77.917 50.9202 78.5C50.6633 77.917 50.2302 77.4286 49.6843 77.1036C50.2302 76.7786 50.6633 76.2901 50.9202 75.7072Z" fill="black"/>
<path d="M50.0405 69.5818L50.3797 69.7271C50.7937 69.9045 51.1129 70.2514 51.2554 70.6787L51.4701 71.3229C51.526 71.4904 51.6827 71.6034 51.8592 71.6034C52.0358 71.6034 52.1925 71.4904 52.2483 71.3229L52.463 70.6787C52.6055 70.2514 52.9246 69.9045 53.3387 69.7271L53.6778 69.5818C53.8286 69.5171 53.9264 69.3688 53.9264 69.2047C53.9264 69.0407 53.8286 68.8923 53.6778 68.8277L53.3387 68.6823C52.9246 68.5049 52.6055 68.158 52.463 67.7308L52.2483 67.0865C52.1925 66.919 52.0358 66.806 51.8592 66.806C51.6827 66.806 51.526 66.919 51.4701 67.0865L51.2554 67.7307C51.1129 68.158 50.7938 68.5049 50.3797 68.6823L50.0406 68.8277C49.8898 68.8923 49.792 69.0407 49.792 69.2047C49.792 69.3688 49.8897 69.5171 50.0405 69.5818ZM51.8592 68.3884C52.0385 68.7138 52.2912 68.9935 52.5965 69.2047C52.2912 69.4159 52.0385 69.6955 51.8592 70.021C51.6799 69.6955 51.4272 69.4159 51.1219 69.2047C51.4271 68.9936 51.6799 68.7138 51.8592 68.3884Z" fill="black"/>
</g>
<defs>
<clipPath id="clip0">
<rect width="28" height="28" fill="white" transform="translate(29 62)"/>
</clipPath>
</defs>
</svg>
