<svg width="43" height="43" viewBox="0 0 43 43" fill="none" xmlns="http://www.w3.org/2000/svg">
<g clip-path="url(#clip0)">
<path d="M42.6461 5.42705C42.6206 5.40303 37.5697 0.586105 37.5697 0.586105C37.3766 0.400835 37.1769 0.209351 36.804 0.209351H16.4697C15.8757 0.209351 15.3925 0.692513 15.3925 1.28645V4.59401L8.22569 5.82253C7.65123 5.92331 7.26491 6.47307 7.36443 7.04694L7.72816 9.16771C5.39869 9.95162 3.00707 10.7597 0.69825 11.5891C0.152688 11.7885 -0.133615 12.3951 0.0610607 12.944L4.65375 25.711C4.74613 25.9679 4.98826 26.1279 5.24651 26.1279C5.31722 26.1279 5.38928 26.1158 5.45966 26.0905C5.78703 25.9727 5.95693 25.6119 5.83919 25.2846L1.31444 12.7064C3.48964 11.9276 5.74227 11.1654 7.94375 10.4244L10.1081 23.0426L12.5986 37.5746C12.6885 38.0876 13.1394 38.4526 13.6484 38.4526C13.706 38.4526 13.7645 38.4479 13.8231 38.4382L20.5684 37.2806L25.8392 36.3771L17.9119 39.2265L11.6605 41.4741L6.80551 27.9704C6.68785 27.643 6.32714 27.4731 5.99968 27.5908C5.67231 27.7084 5.50241 28.0692 5.62007 28.3966L10.5439 42.0923C10.7014 42.5229 11.1094 42.7907 11.5406 42.7907C11.6598 42.7907 11.7808 42.7702 11.8987 42.7271L18.3379 40.412L32.9591 35.1568L35.7523 34.678H41.9227C42.5167 34.678 42.9999 34.1937 42.9999 33.5984V6.1368C43 5.75979 42.7954 5.56747 42.6461 5.42705ZM40.9772 5.5762H37.8253L37.7472 5.57654C37.5963 5.57755 37.243 5.58015 37.1534 5.49113C37.1327 5.47055 37.1085 5.40185 37.1085 5.27428L37.1012 1.88005L40.9772 5.5762ZM41.7402 33.418H16.6523V21.1423C16.6523 20.7944 16.3702 20.5124 16.0224 20.5124C15.6745 20.5124 15.3925 20.7944 15.3925 21.1423V33.5983C15.3925 34.1935 15.8757 34.6778 16.4697 34.6778H28.2957L20.3554 36.0388L13.8061 37.1628L11.3497 22.8296L8.63965 7.02964L15.3924 5.87208V18.2196C15.3924 18.5675 15.6744 18.8495 16.0223 18.8495C16.3702 18.8495 16.6522 18.5675 16.6522 18.2196V1.46903H35.8405L35.8487 5.27571C35.8487 5.73712 35.9891 6.11034 36.2658 6.38514C36.691 6.80733 37.2921 6.83673 37.6652 6.83673C37.6973 6.83673 37.7277 6.83647 37.7562 6.83631L41.7402 6.83605V33.418Z" fill="#171C4E"/>
<path d="M19.6885 9.98987C19.6885 10.3377 19.9705 10.6198 20.3183 10.6198H38.3276C38.6755 10.6198 38.9575 10.3377 38.9575 9.98987C38.9575 9.642 38.6755 9.35999 38.3276 9.35999H20.3183C19.9705 9.35999 19.6885 9.642 19.6885 9.98987Z" fill="#171C4E"/>
<path d="M38.3276 13.8348H20.3183C19.9705 13.8348 19.6885 14.1169 19.6885 14.4647C19.6885 14.8126 19.9705 15.0946 20.3183 15.0946H38.3276C38.6755 15.0946 38.9575 14.8126 38.9575 14.4647C38.9575 14.1169 38.6755 13.8348 38.3276 13.8348Z" fill="#171C4E"/>
<path d="M38.3276 18.3097H20.3183C19.9705 18.3097 19.6885 18.5917 19.6885 18.9396C19.6885 19.2874 19.9705 19.5695 20.3183 19.5695H38.3276C38.6755 19.5695 38.9575 19.2874 38.9575 18.9396C38.9575 18.5917 38.6755 18.3097 38.3276 18.3097Z" fill="#171C4E"/>
<path d="M38.3276 22.7845H20.3183C19.9705 22.7845 19.6885 23.0666 19.6885 23.4144C19.6885 23.7623 19.9705 24.0443 20.3183 24.0443H38.3276C38.6755 24.0443 38.9575 23.7623 38.9575 23.4144C38.9575 23.0666 38.6755 22.7845 38.3276 22.7845Z" fill="#171C4E"/>
<path d="M38.3276 27.2595H20.3183C19.9705 27.2595 19.6885 27.5415 19.6885 27.8894C19.6885 28.2373 19.9705 28.5193 20.3183 28.5193H38.3276C38.6755 28.5193 38.9575 28.2373 38.9575 27.8894C38.9575 27.5415 38.6755 27.2595 38.3276 27.2595Z" fill="#171C4E"/>
</g>
<defs>
<clipPath id="clip0">
<rect width="43" height="43" fill="white"/>
</clipPath>
</defs>
</svg>
