<svg fill="none" version="1.1" viewBox="0 0 99 99" xmlns="http://www.w3.org/2000/svg">
 <circle cx="49.5" cy="49.5" r="49" stroke="#ffc444" stroke-opacity=".5"/>
 <circle cx="49.5" cy="49.5" r="42.699" stroke="#ffc444" stroke-width="2"/>
 <circle cx="49.5" cy="49.5" r="38.285" fill="#ffc444"/>
 <g transform="translate(29.32 29)" fill="#171c4e">
  <path d="m31.856 25.305c-0.8234-0.8574-1.8165-1.3157-2.8691-1.3157-1.0441 0-2.0457 0.4498-2.903 1.3072l-2.6824 2.6738c-0.2207-0.1188-0.4414-0.2292-0.6536-0.3395-0.3056-0.1528-0.5942-0.2971-0.8403-0.4499-2.5126-1.5958-4.796-3.6755-6.986-6.3663-1.0611-1.3412-1.7741-2.4702-2.2919-3.6161 0.696-0.6366 1.3412-1.2987 1.9693-1.9354 0.2377-0.2376 0.4754-0.4838 0.713-0.7215 1.7826-1.7826 1.7826-4.0914 0-5.874l-2.3173-2.3174c-0.2632-0.26314-0.5348-0.53477-0.7894-0.8064-0.5093-0.52628-1.0441-1.0695-1.5959-1.5788-0.82335-0.81489-1.808-1.2478-2.8436-1.2478s-2.0372 0.43291-2.8861 1.2478c-0.00849 0.00849-0.00849 0.00849-0.01697 0.01698l-2.8861 2.9115c-1.0865 1.0865-1.7062 2.4107-1.842 3.9472-0.20372 2.4786 0.52628 4.7874 1.0865 6.2984 1.3751 3.7094 3.4293 7.1473 6.4937 10.831 3.7179 4.4395 8.1913 7.9452 13.301 10.415 1.9523 0.9252 4.5583 2.0202 7.4698 2.207 0.1783 0.0084 0.365 0.0169 0.5348 0.0169 1.9608 0 3.6076-0.7045 4.8978-2.1051 0.0085-0.017 0.0255-0.0255 0.034-0.0424 0.4414-0.5348 0.9507-1.0187 1.4854-1.5365 0.365-0.348 0.7385-0.713 1.1035-1.095 0.8404-0.8743 1.2818-1.8929 1.2818-2.937 0-1.0525-0.4499-2.0627-1.3072-2.9115zm3.0389 8.9383c-0.0085 0-0.0085 0.0085 0 0-0.3311 0.3565-0.6706 0.6791-1.0356 1.0356-0.5518 0.5263-1.112 1.078-1.6383 1.6977-0.8573 0.9167-1.8674 1.3496-3.1916 1.3496-0.1274 0-0.2632 0-0.3905-0.0085-2.5211-0.1612-4.8639-1.1459-6.621-1.9862-4.8045-2.3259-9.0232-5.6279-12.529-9.8127-2.8946-3.4887-4.8299-6.7143-6.1117-10.178-0.78943-2.1137-1.078-3.7604-0.95071-5.3138 0.08489-0.9931 0.46687-1.8165 1.1714-2.5211l2.8946-2.8946c0.41593-0.39047 0.85733-0.60268 1.2902-0.60268 0.53477 0 0.96768 0.32256 1.2393 0.59419l0.02547 0.02547c0.51779 0.48384 1.0101 0.98465 1.5279 1.5194 0.2631 0.27163 0.5348 0.54326 0.8064 0.82338l2.3173 2.3173c0.8998 0.8998 0.8998 1.7317 0 2.6314-0.2461 0.2462-0.4838 0.4924-0.73 0.73-0.713 0.73-1.3921 1.4091-2.1306 2.0712-0.017 0.017-0.0339 0.0255-0.0424 0.0425-0.73 0.73-0.5942 1.443-0.4414 1.9268 0.0085 0.0255 0.017 0.051 0.0254 0.0764 0.6027 1.46 1.4516 2.8352 2.7418 4.4734l0.0085 0.0085c2.3428 2.8861 4.8129 5.1355 7.5377 6.8587 0.3481 0.2207 0.7046 0.3989 1.0441 0.5687 0.3056 0.1528 0.5942 0.2971 0.8404 0.4499 0.0339 0.017 0.0679 0.0424 0.1018 0.0594 0.2886 0.1443 0.5603 0.2122 0.8404 0.2122 0.7045 0 1.1459-0.4414 1.2902-0.5857l2.9031-2.903c0.2886-0.2886 0.747-0.6367 1.2817-0.6367 0.5263 0 0.9592 0.3311 1.2224 0.6197l4.6941 4.6941c0.8743 0.8658 0.8743 1.7571 0.0085 2.6569z"/>
  <path d="m21.806 9.9576c2.224 0.37351 4.2442 1.4261 5.857 3.0389s2.6569 3.633 3.0389 5.857c0.0934 0.5602 0.5772 0.9507 1.1289 0.9507 0.068 0 0.1274-0.0085 0.1953-0.017 0.6281-0.1019 1.0441-0.696 0.9422-1.3242-0.4584-2.6908-1.7316-5.144-3.6755-7.0878-1.9439-1.9439-4.397-3.2172-7.0878-3.6755-0.6282-0.10186-1.2139 0.31407-1.3242 0.93373-0.1104 0.61965 0.2971 1.2223 0.9252 1.3242z"/>
  <path d="m40.242 18.132c-0.7555-4.431-2.8436-8.463-6.0523-11.672-3.2086-3.2086-7.2406-5.2968-11.672-6.0523-0.6196-0.11035-1.2053 0.31407-1.3157 0.93372-0.1019 0.62815 0.3141 1.2138 0.9422 1.3242 3.9556 0.67059 7.5632 2.5465 10.432 5.4071 2.8691 2.8691 4.7366 6.4766 5.4072 10.432 0.0933 0.5602 0.5772 0.9507 1.1289 0.9507 0.0679 0 0.1273-0.0085 0.1953-0.017 0.6196-0.0934 1.044-0.6876 0.9337-1.3072z"/>
 </g>
</svg>
