<svg fill="none" version="1.1" viewBox="0 0 99 99" xmlns="http://www.w3.org/2000/svg">
 <defs>
  <clipPath id="a">
   <rect width="45" height="45" fill="#fff"/>
  </clipPath>
 </defs>
 <circle cx="49.5" cy="49.5" r="49" stroke="#ffc444" stroke-opacity=".5"/>
 <circle cx="49.5" cy="49.5" r="42.699" stroke="#ffc444" stroke-width="2"/>
 <circle cx="49.5" cy="49.5" r="38.285" fill="#ffc444"/>
 <g transform="translate(27.005 27)" clip-path="url(#a)" fill="#171c4e">
  <path d="m8.9951 10.501c0.10059 0 0.20186 0 0.30005-0.0083 0.64028-0.0374 1.2679-0.1936 1.8508-0.4614 0.9184 1.6778 2.6789 2.7204 4.5915 2.7194 0.1044 0 0.2091 0 0.3141-0.0096 1.8018-0.1023 3.4232-1.1268 4.2894-2.7098 0.6719 0.3087 1.4024 0.4687 2.1419 0.4697 0.1051 0 0.2098-0.0031 0.3149-0.0089 0.6402-0.0375 1.2682-0.1937 1.8511-0.4615 0.9177 1.6771 2.6768 2.7198 4.5884 2.7201 0.104 0 0.2091 0 0.3141-0.0096 1.3908-0.0772 2.693-0.7083 3.6158-1.7519 0.2596-0.2929 0.4861-0.6139 0.675-0.9568 0.6722 0.3076 1.4024 0.4676 2.1419 0.4686 0.1047 0 0.2108 0 0.3155-0.0089 2.5192-0.1436 4.5798-2.0586 4.9073-4.5603 0.3272-2.5017-1.171-4.8826-3.5684-5.6695-2.3973-0.78653-5.0151 0.24307-6.2339 2.4523-1.3715-0.619-2.9425-0.619-4.314 0-0.9218-1.674-2.6817-2.7142-4.5929-2.7142s-3.671 1.0402-4.5928 2.7142c-1.3716-0.619-2.9429-0.619-4.3145 0-0.9812-1.7653-2.8838-2.8155-4.9004-2.7043-2.8344 0.16616-5.023 2.5553-4.9403 5.3935 0.0824 2.8378 2.4063 5.0962 5.2455 5.0972zm26.78-8.9931c1.515-0.08926 2.9343 0.74327 3.5958 2.109 0.6613 1.3657 0.4343 2.9954-0.575 4.1287-1.111 1.2517-2.9192 1.6112-4.4246 0.87957 0.4099-1.8546-0.2167-3.7857-1.6373-5.0464-0.0209-0.01889-0.0443-0.03468-0.0652-0.05253 0.6022-1.1779 1.7852-1.9466 3.1063-2.0183zm-6.7499 2.2501c0.0752-0.00447 0.15-0.00687 0.2252-0.00687 2.0561 0 3.7315 1.6503 3.7624 3.7061s-1.594 3.7558-3.6494 3.8176c-2.0551 0.0615-3.7792-1.538-3.8716-3.5921-0.0923-2.054 1.4811-3.8019 3.5334-3.9248zm-6.7496-2.2501c1.4773-0.08411 2.8653 0.70928 3.5427 2.0249-1.2462 1.0602-1.9188 2.6459-1.8148 4.2787 0.0179 0.27774 0.0574 0.55342 0.1185 0.82498-0.4405 0.21458-0.9194 0.33886-1.4086 0.36529-0.6359 0.03708-1.2703-0.09029-1.8426-0.36975 0.4127-1.8566-0.2139-3.7912-1.6366-5.0532-0.0209-0.01889-0.0443-0.03468-0.0652-0.05253 0.6025-1.1782 1.7859-1.9469 3.1073-2.0183zm-6.7499 2.2501c0.0749-0.00447 0.1501-0.00687 0.2249-0.00687 2.0561 0 3.7315 1.6503 3.7627 3.7061 0.0309 2.0558-1.5943 3.7558-3.6494 3.8176-2.0554 0.0615-3.7795-1.538-3.8719-3.5921-0.0923-2.054 1.4814-3.8019 3.5337-3.9248zm-9.3312-1.0004c0.81983-0.92214 2.0417-1.3808 3.2659-1.2263 1.2243 0.15415 2.2937 0.90189 2.8591 1.9988-1.2462 1.0598-1.9191 2.6459-1.8151 4.2784 0.0179 0.27774 0.0577 0.55377 0.1185 0.82499-0.4398 0.21457-0.91872 0.33885-1.4076 0.36528-1.5164 0.09098-2.9377-0.7419-3.5996-2.1093s-0.43326-2.9988 0.57883-4.1318z"/>
  <path d="m3.7451 22.5h4.5002c0 1.2428 1.0073 2.2501 2.2497 2.2501h2.9999v7.511l-0.7395-0.7388c-0.4882-0.4978-1.1577-0.7766-1.8553-0.7725-0.7608-0.0017-1.4848 0.3269-1.9847 0.9002-0.89674 1.0876-0.80576 2.682 0.20873 3.6604l1.7594 1.7595c1.4584 1.5137 2.7908 3.1441 3.9838 4.8751 1.3754 1.9119 3.5846 3.0479 5.9397 3.0544h1.6878c0.0315-0.0041 0.0628-0.0106 0.0937-0.0185 0.0309 0.0079 0.0621 0.0144 0.0937 0.0185 4.0367-0.0044 7.3078-3.2755 7.3122-7.3122v-8.0624c0.0035-0.9839-0.5455-1.8865-1.4209-2.3359-0.8751-0.4497-1.9288-0.3701-2.7263 0.206-0.3794-0.619-0.9994-1.0519-1.7111-1.1944-0.712-0.1421-1.4508 0.0189-2.0389 0.4446-0.6962-1.1443-2.1492-1.5696-3.3525-0.9819v-1.0131h2.2501c0.5552-0.0021 1.0897-0.2105 1.5-0.585 0.4099 0.3745 0.9444 0.5829 1.4999 0.585h10.5c1.2427 0 2.25-1.0073 2.25-2.2501h4.4998c1.2425 0 2.2501-1.0073 2.2501-2.2497v-2.2501c-0.0038-3.3119-2.6878-5.996-6.0001-5.9997h-2.9998c-1.8169 2e-3 -3.5345 0.8301-4.6677 2.25h-1.1642c-1.1333-1.4199-2.8509-2.248-4.6677-2.25h-2.9999c-1.8168 2e-3 -3.5341 0.8297-4.6673 2.25h-1.1656c-1.1329-1.4203-2.8502-2.248-4.667-2.25h-2.9999c-3.312 0.0037-5.996 2.6878-5.9998 5.9997v2.2501c0 1.2424 1.0073 2.2497 2.2497 2.2497zm16.125 4.5002c0.2987-0.0017 0.5857 0.1164 0.7971 0.3275 0.2115 0.2115 0.3293 0.4985 0.3279 0.7972v4.875c0 0.4141 0.3358 0.7498 0.7498 0.7498 0.4144 0 0.7502-0.3357 0.7502-0.7498v-4.1249c0-0.6214 0.5036-1.125 1.1246-1.125 0.6214 0 1.1251 0.5036 1.1251 1.125v4.1249c0 0.4141 0.3357 0.7498 0.7501 0.7498 0.4141 0 0.7498-0.3357 0.7498-0.7498v-3.3751c0-0.621 0.5037-1.1247 1.1251-1.1247s1.125 0.5037 1.125 1.1247v8.0624c-0.0038 3.2086-2.6037 5.8089-5.8123 5.8123-0.0316 0.0045-0.0628 0.0106-0.0937 0.0189-0.0309-0.0083-0.0622-0.0144-0.0937-0.0189h-1.6878c-1.8724-0.0031-3.6298-0.905-4.7247-2.4245-1.239-1.7979-2.6239-3.4908-4.1407-5.0618l-1.7595-1.7595c-0.45279-0.424-0.51218-1.1213-0.138-1.616 0.2077-0.2296 0.4996-0.3656 0.8092-0.3769 0.3093-0.011 0.6104 0.1037 0.8343 0.3175l0.7439 0.744c0.4285 0.4312 1.075 0.5606 1.6366 0.3282 0.562-0.2321 0.9276-0.7807 0.9266-1.3887v-11.516c-0.0257-0.62 0.423-1.1583 1.0375-1.2452 0.3286-0.0243 0.6516 0.0955 0.8847 0.3286 0.2112 0.2111 0.3293 0.4978 0.3279 0.7965v12.375c0 0.4141 0.3358 0.7498 0.7498 0.7498 0.4144 0 0.7501-0.3357 0.7501-0.7498v-4.875c0-0.6211 0.5037-1.1247 1.1251-1.1247zm1.125-3.75h-2.2501v-2.625c0.0028-0.6969-0.2736-1.3657-0.7673-1.8577-0.5383-0.539-1.2836-0.8184-2.0437-0.7673-1.4073 0.1332-2.4722 1.3317-2.4389 2.7451v2.5049h-2.9999c-0.414 0-0.74979-0.3358-0.74979-0.7502v-2.2497c0.0024-2.4842 2.0156-4.4974 4.4998-4.4998h2.9999c2.4842 0.0024 4.4974 2.0156 4.4998 4.4998v2.2497c0 0.1991-0.079 0.3897-0.2197 0.5304-0.1404 0.1408-0.3313 0.2198-0.5301 0.2198zm14.25-0.7502c0 0.4144-0.3358 0.7502-0.7501 0.7502h-10.5c-0.4144 0-0.7502-0.3358-0.7502-0.7502v-2.2497c0.0031-2.4842 2.016-4.4971 4.4999-4.4998h3.0002c2.4839 0.0027 4.4967 2.0156 4.4998 4.4998zm2.2497-8.9996c2.4842 0.0024 4.4974 2.0156 4.5002 4.4998v2.2501c0 0.414-0.3361 0.7498-0.7502 0.7498h-4.4998v-0.7498c-0.0051-2.8811-2.0544-5.3533-4.8846-5.892 0.7659-0.5565 1.688-0.8569 2.6346-0.8579zm-13.499 0c0.9465 1e-3 1.8686 0.3014 2.6346 0.8579-1.7544 0.3348-3.2691 1.4317-4.1345 2.9941-0.8655-1.5621-2.3799-2.6593-4.1339-2.9941 0.7653-0.5565 1.6874-0.8569 2.6339-0.8579zm-20.999 4.4998c0.00241-2.4842 2.0156-4.4974 4.4998-4.4998h2.9999c0.9465 1e-3 1.8683 0.3014 2.6339 0.8579-2.8299 0.5387-4.8792 3.0109-4.8836 5.892v0.7498h-4.5002c-0.41403 0-0.7498-0.3358-0.7498-0.7498z"/>
  <path d="m20.245 42h2.9998c0.4144 0 0.7502-0.3358 0.7502-0.7498 0-0.4144-0.3358-0.7502-0.7502-0.7502h-2.9998c-0.4141 0-0.7498 0.3358-0.7498 0.7502 0 0.414 0.3357 0.7498 0.7498 0.7498z"/>
 </g>
</svg>
