<svg fill="none" version="1.1" viewBox="0 0 99 99" xmlns="http://www.w3.org/2000/svg">
 <circle cx="49.5" cy="49.5" r="49" stroke="#ffc444" stroke-opacity=".5"/>
 <circle cx="49.5" cy="49.5" r="42.699" stroke="#ffc444" stroke-width="2"/>
 <circle cx="49.5" cy="49.5" r="38.285" fill="#ffc444"/>
 <g transform="translate(111.17 3.6643)" fill="#171c4e">
  <path d="m-46.404 64.013-1.8296-5.4896c-0.6394-1.9165-2.2706-3.3312-4.2591-3.6932l-5.2817-0.961v-0.4094c0.9191-0.5335 1.719-1.2471 2.356-2.092h1.5956c1.3072 0 2.371-1.0637 2.371-2.3709v-9.4839c0-5.665-4.6092-10.274-10.274-10.274s-10.274 4.6092-10.274 10.274v5.5322c0 1.5238 1.0835 2.7986 2.5203 3.0957 0.4434 2.2714 1.8628 4.1935 3.8023 5.3189v0.4094l-5.2825 0.961c-1.9877 0.362-3.6197 1.7767-4.2583 3.6932l-0.3161 0.9492-2.6919-2.6919c-0.30822-0.3082-0.30822-0.81 0-1.1183l3.1218-3.1209-5.8594-5.8595-3.528 3.528c-1.0448 1.0448-1.6202 2.4342-1.6202 3.9121s0.57536 2.8665 1.6202 3.9113l10.681 10.681c1.0448 1.0448 2.4342 1.621 3.9121 1.621s2.8665-0.5762 3.8868-1.5973l3.8496-3.5272-1.2005-1.1981zm-6.6285-15.016c0 0.4362-0.3548 0.7903-0.7903 0.7903h-0.6646c0.2291-0.5224 0.403-1.0733 0.5152-1.6463 0.3383-0.0703 0.6497-0.2047 0.9397-0.3738zm-0.7903-2.5907v-2.7219c0.4703 0.2743 0.7903 0.7785 0.7903 1.3609 0 0.5825-0.32 1.0867-0.7903 1.361zm-15.806 0c-0.4703-0.2743-0.7904-0.7785-0.7904-1.361 0-0.5824 0.3201-1.0866 0.7904-1.3609zm0-5.3126v0.9026c-0.2814 0.0735-0.5454 0.1841-0.7904 0.3272v-2.8104c0-4.7933 3.9003-8.6936 8.6936-8.6936s8.6935 3.9003 8.6935 8.6936v2.8104c-0.245-0.1431-0.5089-0.2545-0.7903-0.3272v-0.9026h-0.7903c-2.337 0-4.5341-0.9104-6.1874-2.563l-0.9255-0.9254-0.9255 0.9254c-1.6533 1.6526-3.8504 2.563-6.1874 2.563zm1.5806 5.5323v-3.9817c2.3733-0.1786 4.5862-1.1578 6.3226-2.8088 1.7363 1.651 3.9492 2.631 6.3226 2.8088v3.9817c0 1.1523-0.3146 2.2303-0.8552 3.1613h-5.4674v1.5806h4.1682c-1.1144 0.9808-2.571 1.5807-4.1682 1.5807-3.4861 0-6.3226-2.8365-6.3226-6.3226zm8.6936 7.5389v0.0371l-2.371 2.371-2.371-2.371v-0.0371c0.7492 0.2355 1.5451 0.3643 2.371 0.3643s1.6217-0.1288 2.371-0.3643zm-14.365 4.8581c0.456-1.3688 1.6217-2.3797 3.0419-2.6389l5.5244-1.0037 3.4276 3.4276 3.4268-3.4268 5.5236 1.0037c1.4202 0.2592 2.5859 1.2693 3.0419 2.6389l1.1373 3.4086h-16.347l-3.0783-3.0783-3.4205 3.0942c-0.298 0.2995-0.8188 0.2995-1.1176 0l-1.726-1.7261zm-7.2449-10.106 3.6244 3.6245-0.85829 0.8582-3.6244-3.6244zm13.858 18.682c-0.7461 0.7445-1.7387 1.1562-2.7938 1.1562s-2.0477-0.4117-2.7946-1.1578l-10.681-10.68c-0.74606-0.7461-1.157-1.7387-1.157-2.7938 0-1.0559 0.41097-2.0485 1.157-2.7946l0.43468-0.4347 3.6244 3.6245-0.02845 0.0284c-0.92389 0.9247-0.92389 2.4287 0 3.3533l5.6674 5.6674c0.4482 0.4474 1.0433 0.6947 1.6771 0.6947s1.229-0.2465 1.6478-0.667l0.0593-0.0529 3.641 3.641zm1.6201-1.4858-3.6331-3.6331 1.044-0.9437 3.6268 3.6268z"/>
  <path d="m-39.597 21.336h-11.064c-1.3072 0-2.371 1.0638-2.371 2.371v6.3226c0 1.3072 1.0638 2.371 2.371 2.371h2.111l-0.8172 4.7665 7.6266-4.7665h2.1441c1.3072 0 2.371-1.0638 2.371-2.371v-6.3226c0-1.3072-1.0638-2.371-2.371-2.371zm0.7903 8.6936c0 0.43547-0.3548 0.79032-0.7903 0.79032h-2.5978l-5.0193 3.1368 0.5382-3.1368h-3.9856c-0.4355 0-0.7903-0.35485-0.7903-0.79032v-6.3226c0-0.43547 0.3548-0.79032 0.7903-0.79032h11.064c0.4355 0 0.7903 0.35485 0.7903 0.79032z"/>
  <path d="m-40.388 24.497h-9.4839v1.5806h9.4839z"/>
  <path d="m-43.549 27.658h-6.3226v1.5806h6.3226z"/>
  <path d="m-40.388 27.658h-1.5806v1.5806h1.5806z"/>
  <path d="m-61.726 23.707c-10.326 0-19.221 7.1429-21.534 17.107l-1.4977-2.4966-1.3554 0.8132 2.778 4.6289 4.6289-2.7779-0.81324-1.3555-2.1418 1.2851c2.2398-9.1148 10.436-15.623 19.935-15.623 2.0762 0 4.1247 0.30822 6.0886 0.91677l0.4679-1.5095c-2.1157-0.65596-4.3215-0.9879-6.5565-0.9879z"/>
  <path d="m-37.61 38.835-4.6289-2.778-2.7772 4.6297 1.3554 0.8133 1.383-2.3054c0.7279 2.1299 1.1002 4.3578 1.1002 6.6411 0 4.7-1.6281 9.295-4.5831 12.938l1.2274 0.9958c3.1834-3.9232 4.9363-8.8722 4.9363-13.933 0-2.4176-0.3896-4.7783-1.1491-7.0386l2.3228 1.3933z"/>
 </g>
</svg>
