<svg fill="none" version="1.1" viewBox="0 0 88 88" xmlns="http://www.w3.org/2000/svg">
 <circle cx="44" cy="44" r="43.5" stroke="#FFC444"/>
 <circle cx="44" cy="44" r="40" fill="#ffc444"/>
 <g transform="translate(25 19)">
  <path d="m19 44.141c-0.4045 0-0.7324 0.328-0.7324 0.7324 0 0.4045 0.3279 0.7325 0.7324 0.7325s0.7324-0.328 0.7324-0.7325c0-0.4044-0.3279-0.7324-0.7324-0.7324zm0-4.3945c-0.4045 0-0.7324 0.3279-0.7324 0.7324s0.3279 0.7324 0.7324 0.7324 0.7324-0.3279 0.7324-0.7324-0.3279-0.7324-0.7324-0.7324zm0 8.7891c-0.4045 0-0.7324 0.3279-0.7324 0.7324s0.3279 0.7324 0.7324 0.7324 0.7324-0.3279 0.7324-0.7324-0.3279-0.7324-0.7324-0.7324zm14.389-15.026-3.2602-1.0971c1.8023-1.2837 2.9318-3.3905 2.9318-5.6647 0.0047-0.0094 0-12.687 0-12.687 0-3.7544-1.4624-7.2852-4.1178-9.9416-2.656-2.6562-6.187-4.119-9.9427-4.119-2.4123 0-4.7923 0.62139-6.8828 1.7971-0.3526 0.19824-0.4777 0.64482-0.2794 0.99736 0.1982 0.35264 0.6449 0.47754 0.9974 0.2794 1.8717-1.0525 4.0035-1.609 6.1648-1.609 3.3644 0 6.5275 1.3104 8.9068 3.6896 2.3788 2.3798 3.6889 5.5427 3.6889 8.906v0.0034c-0.4254-0.2442-0.9176-0.3846-1.4422-0.3846h-0.7038c-1.9596-0.3365-3.8815-0.8919-5.7134-1.6522-1.3941-0.5786-2.7489-1.2816-4.0266-2.0894-0.4475-0.28301-1.0313-0.25674-1.4527 0.0653-0.9967 0.7615-2.0731 1.4199-3.1994 1.9571-2.0235 0.965-4.201 1.5432-6.4722 1.7192h-0.73886c-0.52461 0-1.0168 0.1404-1.4422 0.3846v-0.0034c0-3.408 1.3394-6.6 3.7717-8.9881 0.2886-0.28339 0.2928-0.74707 0.0094-1.0357-0.28326-0.28857-0.74703-0.29297-1.0357-0.00947-2.715 2.6657-4.2102 6.229-4.2102 10.033v12.687c0 2.2742 1.1296 4.3811 2.9318 5.6647l-3.2602 1.0972c-2.6856 0.9039-4.4899 3.4147-4.4899 6.2478v9.5108c0 0.4045 0.32793 0.7324 0.73242 0.7324 0.40449 0 0.73242-0.3279 0.73242-0.7324v-9.5108c0-2.2035 1.4035-4.1564 3.4924-4.8594l1.2728-0.4284c-0.18837 0.7742-0.27167 1.5721-0.24238 2.3621 0.02774 0.75 0.1543 1.4872 0.37334 2.2021-1.4228 0.4272-2.4626 1.7482-2.4626 3.3083v2.9808c0 0.7374 0.59991 1.3372 1.3372 1.3372h0.8208c0.40449 0 0.73242-0.328 0.73242-0.7324 0-0.4045-0.32793-0.7325-0.73242-0.7325h-0.69326v-2.8532c0-1.0964 0.8916-1.9884 1.9878-1.9891 5.9e-4 0 0.00108 1e-4 0.00166 1e-4 5.9e-4 0 0.00118-1e-4 0.00176-1e-4 1.0959 0.0012 1.9871 0.893 1.9871 1.9891v2.8532h-0.69316c-0.40449 0-0.73242 0.328-0.73242 0.7325 0 0.4044 0.32793 0.7324 0.73242 0.7324h0.8208c0.73727 0 1.3372-0.5999 1.3372-1.3372v-2.9808c0-1.7293-1.2774-3.1656-2.9382-3.4153-0.24853-0.6933-0.38955-1.4141-0.4168-2.1493-0.03603-0.975 0.13418-1.9656 0.49258-2.8846l4.9962-1.6814 5.2423 5.2422c0.4282 0.4323 1.1585 0.4344 1.5883 0l1.4468-1.4468c0.286-0.286 0.286-0.7498 0-1.0357-0.2861-0.286-0.7498-0.286-1.0358 0l-1.2052 1.205-4.6427-4.6427c0.6884-0.5984 1.002-1.5106 0.9317-2.431 1.1218 0.3912 2.324 0.6059 3.5741 0.6103 1.26 0.0044 2.4938-0.2012 3.6525-0.5983-0.1196 0.9341 0.3131 1.9506 1.0398 2.5062l-0.9384 0.9384c-0.286 0.286-0.286 0.7498 0 1.0357 0.2861 0.2861 0.7498 0.2861 1.0358 0l1.3343-1.3342 4.4602 1.5009c0.3373 0.8579 0.5114 1.7857 0.5028 2.7038-8e-3 0.8325-0.1669 1.6731-0.4601 2.4568-1.904 0.2492-3.3793 1.8809-3.3793 3.8518 0 2.1428 1.7433 3.8861 3.886 3.8861 2.1428 0 3.8861-1.7432 3.8861-3.886 0-1.7938-1.2221-3.307-2.8772-3.7524 0.2608-0.8219 0.4012-1.6857 0.4093-2.5423 0.0068-0.7171-0.0789-1.4391-0.2503-2.1399l1.6594 0.5584c2.0889 0.7031 3.4924 2.656 3.4924 4.8595v9.5108c0 0.4045 0.3279 0.7324 0.7324 0.7324s0.7324-0.3279 0.7324-0.7324v-9.5108c0-2.833-1.8044-5.3437-4.49-6.2477zm-3.273-18.365h0.0376c0.7935 0 1.4391 0.6442 1.4422 1.4369v0.0112c-0.0035 0.8033-0.6729 1.4599-1.4798 1.4368zm-23.712 1.437c0.00235-0.8039 0.67373-1.4595 1.4798-1.4369v2.885c-0.80694 0.0223-1.4764-0.6316-1.4798-1.4368zm7.5176 12.918c0 0.5249-0.3338 0.9896-0.8313 1.1565l-3.3602 1.1308c-1.9993-0.8558-3.326-2.8493-3.326-5.0391v-7.6376c0.45957 0.2656 0.96748 0.3935 1.5254 0.3845 0.34775 3.9091 2.6918 7.2528 5.9921 8.9746zm5.0439-1.2516c-5.3027-0.0184-9.6169-4.3984-9.6169-9.7637v-3.4045c2.2171-0.2435 4.3466-0.8468 6.3393-1.797 1.1778-0.5616 2.305-1.246 3.3523-2.0349 1.3145 0.8221 2.7048 1.5395 4.1343 2.1328 1.7605 0.7307 3.5999 1.2826 5.4762 1.6434v3.5729c0 2.5842-1.0081 5.0119-2.8386 6.8361-1.8616 1.8553-4.187 2.8241-6.8466 2.8149zm9.3039 3.5388-3.361-1.131c-0.4968-0.1666-0.8306-0.6313-0.8306-1.1562v-1.0091c1.0084-0.5189 1.9418-1.1961 2.7684-2.0198 1.8949-1.8884 3.0241-4.3385 3.2334-6.9762 0.5386 0.0078 1.0747-0.1282 1.5159-0.3845v7.6376c-1e-4 2.1899-1.3268 4.1835-3.3261 5.0392zm4.2459 10.987c0 1.3351-1.0861 2.4212-2.4211 2.4212s-2.4212-1.0861-2.4212-2.4212c0-1.334 1.0847-2.4195 2.4184-2.4211 8e-4 0 0.0016 1e-4 0.0023 1e-4s0.0014-1e-4 0.0021-1e-4c1.3343 8e-4 2.4195 1.0866 2.4195 2.4211zm-8.7796-27.032c-0.4045 0-0.7324 0.3279-0.7324 0.7324v1.6755c0 0.4045 0.3279 0.7324 0.7324 0.7324s0.7325-0.3279 0.7325-0.7324v-1.6755c0-0.4045-0.328-0.7324-0.7325-0.7324zm-3.6961 6.9588c-0.1648 0.1171-0.5107 0.316-0.9754 0.3326-0.5243 0.0183-0.9181-0.2007-1.1051-0.3332-0.33-0.2339-0.7872-0.1559-1.0211 0.1742-0.2339 0.33-0.1559 0.7872 0.1742 1.0211 0.3241 0.2297 0.9902 0.6039 1.8881 0.6039 0.7866 0 1.5171-0.3412 1.8876-0.6044 0.3298-0.2342 0.4072-0.6915 0.1729-1.0213-0.2342-0.3297-0.6914-0.4072-1.0212-0.1729zm-5.7759-6.9588c-0.4045 0-0.7325 0.3279-0.7325 0.7324v1.6755c0 0.4045 0.328 0.7324 0.7325 0.7324s0.7324-0.3279 0.7324-0.7324v-1.6755c0-0.4045-0.3278-0.7324-0.7324-0.7324z" fill="#000"/>
 </g>
</svg>
