<svg width="72" height="72" viewBox="0 0 72 72" fill="none" xmlns="http://www.w3.org/2000/svg">
<path d="M65.5692 58.2659C65.0578 57.8784 64.4623 57.617 63.8309 57.5028C63.1996 57.3886 62.5502 57.4248 61.9355 57.6085L45.5358 62.4375H36.4514L29.9967 58.8516H42.1172C42.4342 58.8516 42.7382 58.7256 42.9624 58.5015C43.1866 58.2773 43.3125 57.9733 43.3125 57.6563V54.0703C43.3101 53.7534 43.186 53.4496 42.9659 53.2217L40.5752 50.831C40.4076 50.6667 40.1958 50.5546 39.9656 50.5083L22.0359 46.9224C21.957 46.9085 21.877 46.9005 21.7969 46.8985H14.625C14.4734 46.8961 14.323 46.9246 14.1827 46.9821L9.84375 48.7153V46.8985C9.84457 46.614 9.74392 46.3386 9.55988 46.1217C9.37584 45.9048 9.12048 45.7606 8.83969 45.7151L1.66781 44.5198C1.49618 44.4955 1.32136 44.5074 1.15461 44.5548C0.987863 44.6021 0.83287 44.6839 0.699609 44.7947C0.569075 44.9075 0.464202 45.0469 0.39204 45.2036C0.319879 45.3603 0.282102 45.5306 0.28125 45.7031V69.6094C0.28125 69.9264 0.407184 70.2304 0.631349 70.4546C0.855513 70.6788 1.15955 70.8047 1.47656 70.8047C1.54055 70.8067 1.60457 70.8027 1.66781 70.7928L8.83969 69.5974C9.12048 69.5519 9.37584 69.4078 9.55988 69.1909C9.74392 68.974 9.84457 68.6985 9.84375 68.4141V67.2188H13.2384L27.3909 71.9403C27.5151 71.9776 27.6438 71.9977 27.7734 72H45.7031C45.8379 72.0005 45.9716 71.9762 46.0976 71.9283L64.4695 65.4497C65.2731 65.1658 65.969 64.6398 66.4613 63.9441C66.9536 63.2484 67.2183 62.4172 67.2188 61.5649C67.2224 60.9241 67.075 60.2914 66.7884 59.7182C66.5018 59.145 66.0841 58.6474 65.5692 58.2659ZM7.45312 67.3981L2.67188 68.1989V47.1136L7.45312 47.9145V67.3981ZM63.6806 63.1906L45.4999 69.6094H27.9647L13.8122 64.8879C13.688 64.8506 13.5593 64.8305 13.4297 64.8281H9.84375V51.2972L14.8521 49.2891H21.6773L39.1409 52.7794L40.9219 54.5604V56.461H25.3828C25.1192 56.4618 24.8632 56.5497 24.6547 56.7111C24.4463 56.8725 24.297 57.0983 24.2302 57.3533C24.1633 57.6083 24.1827 57.8783 24.2852 58.1212C24.3878 58.364 24.5677 58.5662 24.7971 58.6962L35.5549 64.6728C35.7324 64.7768 35.9349 64.8305 36.1406 64.8281H45.7031C45.8166 64.8307 45.9296 64.8146 46.0378 64.7803L62.6168 59.9035C62.8735 59.8254 63.1451 59.8097 63.409 59.8575C63.673 59.9053 63.9218 60.0153 64.1348 60.1784C64.3852 60.3655 64.5801 60.6171 64.6988 60.9062C64.8175 61.1954 64.8555 61.5113 64.8089 61.8204C64.7623 62.1294 64.6328 62.4201 64.4341 62.6614C64.2354 62.9026 63.975 63.0855 63.6806 63.1906Z" fill="#FFC444"/>
<path d="M36.1406 45.7032C46.6857 45.7032 55.2656 34.4421 55.2656 20.6016V6.25785C55.2656 5.99458 55.1786 5.73868 55.0183 5.52989C54.8579 5.32111 54.6331 5.1711 54.3787 5.10318L36.449 0.321931C36.247 0.267974 36.0343 0.267974 35.8322 0.321931L17.9025 5.10318C17.6482 5.1711 17.4234 5.32111 17.263 5.52989C17.1026 5.73868 17.0157 5.99458 17.0156 6.25785V20.6016C17.0156 34.4421 25.5956 45.7032 36.1406 45.7032ZM19.4062 7.17705L36.1406 2.71375L52.875 7.17705V20.6016C52.875 33.1249 45.3684 43.3125 36.1406 43.3125C26.9128 43.3125 19.4062 33.1249 19.4062 20.6016V7.17705Z" fill="#FFC444"/>
<path d="M31.3594 27.7734V31.3594C31.3594 31.9934 31.6112 32.6015 32.0596 33.0498C32.5079 33.4981 33.116 33.75 33.75 33.75H38.5312C39.1653 33.75 39.7733 33.4981 40.2217 33.0498C40.67 32.6015 40.9219 31.9934 40.9219 31.3594V27.7734H44.5078C45.1418 27.7734 45.7499 27.5216 46.1982 27.0732C46.6466 26.6249 46.8984 26.0168 46.8984 25.3828V20.6016C46.8984 19.9675 46.6466 19.3595 46.1982 18.9111C45.7499 18.4628 45.1418 18.2109 44.5078 18.2109H40.9219V14.625C40.9219 13.991 40.67 13.3829 40.2217 12.9346C39.7733 12.4862 39.1653 12.2344 38.5312 12.2344H33.75C33.116 12.2344 32.5079 12.4862 32.0596 12.9346C31.6112 13.3829 31.3594 13.991 31.3594 14.625V18.2109H27.7734C27.1394 18.2109 26.5313 18.4628 26.083 18.9111C25.6347 19.3595 25.3828 19.9675 25.3828 20.6016V25.3828C25.3828 26.0168 25.6347 26.6249 26.083 27.0732C26.5313 27.5216 27.1394 27.7734 27.7734 27.7734H31.3594ZM27.7734 20.6016H31.3594C31.9934 20.6016 32.6015 20.3497 33.0498 19.9014C33.4981 19.453 33.75 18.845 33.75 18.2109V14.625H38.5312V18.2109C38.5312 18.845 38.7831 19.453 39.2314 19.9014C39.6798 20.3497 40.2878 20.6016 40.9219 20.6016H44.5078V25.3828H40.9219C40.2878 25.3828 39.6798 25.6347 39.2314 26.083C38.7831 26.5313 38.5312 27.1394 38.5312 27.7734V31.3594H33.75V27.7734C33.75 27.1394 33.4981 26.5313 33.0498 26.083C32.6015 25.6347 31.9934 25.3828 31.3594 25.3828H27.7734V20.6016Z" fill="black"/>
<path d="M60.0469 7.45312H62.4375V5.0625H64.8281V2.67188H62.4375V0.28125H60.0469V2.67188H57.6562V5.0625H60.0469V7.45312Z" fill="black"/>
<path d="M72 9.84375H69.6094V7.45312H67.2188V9.84375H64.8281V12.2344H67.2188V14.625H69.6094V12.2344H72V9.84375Z" fill="black"/>
<path d="M55.2656 37.3359V39.7266H52.875V42.1172H55.2656V44.5078H57.6562V42.1172H60.0469V39.7266H57.6562V37.3359H55.2656Z" fill="black"/>
<path d="M64.8281 30.1641H62.4375V32.5547H60.0469V34.9453H62.4375V37.3359H64.8281V34.9453H67.2188V32.5547H64.8281V30.1641Z" fill="black"/>
<path d="M9.84375 7.45312H12.2344V5.0625H14.625V2.67188H12.2344V0.28125H9.84375V2.67188H7.45312V5.0625H9.84375V7.45312Z" fill="black"/>
<path d="M2.67188 14.625H5.0625V12.2344H7.45312V9.84375H5.0625V7.45312H2.67188V9.84375H0.28125V12.2344H2.67188V14.625Z" fill="black"/>
<path d="M14.625 37.3359V39.7266H12.2344V42.1172H14.625V44.5078H17.0156V42.1172H19.4062V39.7266H17.0156V37.3359H14.625Z" fill="black"/>
<path d="M9.84375 37.3359V34.9453H12.2344V32.5547H9.84375V30.1641H7.45312V32.5547H5.0625V34.9453H7.45312V37.3359H9.84375Z" fill="black"/>
</svg>
