<svg width="23" height="25" viewBox="0 0 23 25" fill="none" xmlns="http://www.w3.org/2000/svg">
<g clip-path="url(#clip0)">
<path d="M12.1685 2.0174V1.19168C12.1685 0.735639 11.8267 0.365967 11.405 0.365967H0.763564C0.341848 0.365967 0 0.735639 0 1.19168V2.0174C0 2.47344 0.341848 2.84311 0.763564 2.84311H11.405C11.8267 2.84311 12.1685 2.47344 12.1685 2.0174Z" fill="#6165D7"/>
<path d="M9.97108 5.5686H0.763564C0.341848 5.5686 0 5.93828 0 6.39432V7.22003C0 7.67608 0.341848 8.04575 0.763564 8.04575H9.97108C10.3928 8.04575 10.7346 7.67608 10.7346 7.22003V6.39432C10.7346 5.93828 10.3928 5.5686 9.97108 5.5686Z" fill="#6165D7"/>
<path d="M8.53703 10.7705H0.763564C0.341848 10.7705 0 11.1402 0 11.5962V12.4219C0 12.878 0.341848 13.2477 0.763564 13.2477H8.53703C8.95875 13.2477 9.30059 12.878 9.30059 12.4219V11.5962C9.30059 11.1402 8.95875 10.7705 8.53703 10.7705Z" fill="#6165D7"/>
<path d="M7.10306 16.5505H0.763564C0.341848 16.5505 0 16.9202 0 17.3763V18.202C0 18.658 0.341848 19.0277 0.763564 19.0277H7.10306C7.5247 19.0277 7.86662 18.658 7.86662 18.202V17.3763C7.86662 16.9202 7.52477 16.5505 7.10306 16.5505Z" fill="#6165D7"/>
<path d="M5.669 21.7527H0.763564C0.341848 21.7527 0 22.1224 0 22.5784V23.4041C0 23.8602 0.341848 24.2298 0.763564 24.2298H5.669C6.09064 24.2298 6.43257 23.8602 6.43257 23.4041V22.5784C6.43257 22.1224 6.09072 21.7527 5.669 21.7527Z" fill="#6165D7"/>
<path d="M22.7764 17.9648L22.2365 17.381C22.0933 17.2261 21.8991 17.1391 21.6966 17.1391C21.4941 17.1391 21.2998 17.2261 21.1566 17.381L18.5305 20.2209V1.60404C18.5305 1.14799 18.1886 0.77832 17.7669 0.77832H17.0033C16.5816 0.77832 16.2398 1.14799 16.2398 1.60404V20.2208L13.6137 17.3809C13.4704 17.2261 13.2762 17.139 13.0737 17.139C12.8712 17.139 12.677 17.2261 12.5338 17.3809L11.9938 17.9648C11.6957 18.2872 11.6957 18.81 11.9938 19.1325L16.8452 24.3787C16.9943 24.54 17.1897 24.6206 17.3851 24.6206C17.5805 24.6206 17.776 24.54 17.925 24.3787L22.7764 19.1325C23.0746 18.81 23.0746 18.2872 22.7764 17.9648Z" fill="#6165D7"/>
</g>
<defs>
<clipPath id="clip0">
<rect width="23" height="24.8721" fill="white" transform="translate(0 0.0581055)"/>
</clipPath>
</defs>
</svg>
