<svg width="72" height="77" viewBox="0 0 72 77" fill="none" xmlns="http://www.w3.org/2000/svg">
<circle cx="46" cy="51" r="26" fill="#FFC444" fill-opacity="0.5"/>
<g clip-path="url(#clip0)">
<path d="M60.9666 55.7999H57.8666V36.1666C57.8662 35.5959 57.4032 35.1336 56.8325 35.134C56.4958 35.1343 56.1802 35.2986 55.987 35.5745L41.5203 56.2411C41.1933 56.7089 41.3073 57.3531 41.775 57.6801C41.9485 57.8014 42.1549 57.8665 42.3666 57.8666H55.8V60.9666C55.8 61.5372 56.2626 61.9999 56.8333 61.9999C57.404 61.9999 57.8666 61.5372 57.8666 60.9666V57.8666H60.9666C61.5373 57.8666 62 57.4039 62 56.8332C62 56.2626 61.5373 55.7999 60.9666 55.7999ZM55.8 55.7999H44.3506L55.8 39.4443V55.7999Z" fill="black"/>
<path d="M42.3667 59.9334H30.1331L41.507 46.5404C41.5328 46.5096 41.557 46.4776 41.5793 46.4443C43.7191 43.2773 43.0063 38.9897 39.957 36.6854C36.2492 34.0214 31.0839 34.8676 28.4199 38.5753C27.4097 39.9813 26.8664 41.6688 26.8667 43.4C26.8667 43.9707 27.3294 44.4334 27.9 44.4334C28.4707 44.4334 28.9334 43.9707 28.9334 43.4C28.933 39.9758 31.7086 37.1998 35.1327 37.1994C36.4306 37.1993 37.6958 37.6064 38.75 38.3636C40.8861 40.0003 41.3835 43.0145 39.8867 45.2508L27.1126 60.2982C26.7433 60.7333 26.7968 61.3854 27.232 61.7546C27.4186 61.913 27.6553 61.9999 27.9 62.0001H42.3667C42.9374 62.0001 43.4 61.5374 43.4 60.9667C43.4 60.3961 42.9374 59.9334 42.3667 59.9334Z" fill="black"/>
<path d="M27.9227 54.7863C27.9443 54.216 27.4993 53.7363 26.9291 53.7147C26.9289 53.7147 26.9288 53.7147 26.9287 53.7147C13.4475 53.2143 2.62738 42.4136 2.10283 28.9333H6.2C6.77066 28.9333 7.23333 28.4707 7.23333 27.9C7.23333 27.3293 6.77066 26.8667 6.2 26.8667H2.10283C2.61989 13.4102 13.4101 2.6204 26.8667 2.10387V5.16667C26.8667 5.73733 27.3293 6.2 27.9 6.2C28.4707 6.2 28.9333 5.73733 28.9333 5.16667V2.10387C42.2057 2.61718 52.9178 13.127 53.6837 26.3872L49.6537 22.3572C49.2432 21.9607 48.5891 21.972 48.1926 22.3825C47.8059 22.7829 47.8059 23.4178 48.1926 23.8183L53.9607 29.5864C54.0693 29.7179 54.2093 29.8198 54.3678 29.883C54.4082 29.8951 54.4493 29.9052 54.4908 29.9129C54.5617 29.9385 54.6351 29.9562 54.7098 29.9656C54.7202 29.9656 54.7295 29.9656 54.7398 29.9656C54.7501 29.9656 54.7594 29.9656 54.7687 29.9656C54.8474 29.9597 54.9252 29.9445 55.0002 29.9202C55.0427 29.915 55.0848 29.9071 55.1263 29.8964C55.2662 29.8467 55.3935 29.767 55.4993 29.6629L61.3459 23.8183C61.7423 23.4078 61.7311 22.7537 61.3206 22.3572C60.9202 21.9705 60.2853 21.9705 59.8848 22.3572L55.7545 26.4843C55.0164 11.6728 42.8033 0.0362958 27.9734 0.0144667C27.9475 0.0134333 27.9258 0 27.9 0C27.8742 0 27.8525 0.0134333 27.8266 0.0144667C12.4752 0.0355208 0.0355208 12.4752 0.0144667 27.8266C0.0144667 27.8525 0 27.8742 0 27.9C0 27.9258 0.0134333 27.9475 0.0144667 27.9734C0.0401708 42.946 11.8899 55.2237 26.8522 55.7804H26.8904C27.4457 55.7802 27.9017 55.3412 27.9227 54.7863Z" fill="black"/>
<path d="M41.7829 14.0171C41.3794 13.6138 40.7253 13.6138 40.3218 14.0171L29.2176 25.1203C28.3786 24.7462 27.4203 24.7462 26.5815 25.1203L21.3239 19.8627C20.9134 19.4663 20.2592 19.4777 19.8628 19.8882C19.4761 20.2886 19.4761 20.9234 19.8628 21.3238L25.1101 26.5711C24.3733 28.1134 25.0264 29.961 26.5687 30.6976C27.7526 31.2631 29.1643 31.0206 30.0918 30.0927C31.0242 29.1681 31.2643 27.7525 30.689 26.5721L41.7829 15.4783C42.1863 15.0748 42.1863 14.4207 41.7829 14.0171ZM28.6309 28.6303C28.6308 28.6304 28.6308 28.6304 28.6306 28.6305C28.2219 29.0213 27.5782 29.0213 27.1695 28.6305C26.7658 28.227 26.7659 27.5728 27.1692 27.1691C27.5728 26.7655 28.227 26.7655 28.6306 27.1689C29.0343 27.5724 29.0343 28.2268 28.6309 28.6303Z" fill="#FFC444"/>
</g>
<defs>
<clipPath id="clip0">
<rect width="62" height="62" fill="white"/>
</clipPath>
</defs>
</svg>
