<svg width="31" height="27" viewBox="0 0 31 27" fill="none" xmlns="http://www.w3.org/2000/svg">
<path d="M0.547551 12.9468L7.69057 15.6128L10.4554 24.5043C10.6323 25.0738 11.3286 25.2843 11.7908 24.9064L15.7725 21.6605C16.1898 21.3204 16.7843 21.3035 17.2205 21.6201L24.4019 26.834C24.8964 27.1934 25.5969 26.9224 25.7209 26.325L30.9817 1.01956C31.1171 0.366907 30.4758 -0.177556 29.8543 0.0627974L0.539181 11.3717C-0.184255 11.6507 -0.177952 12.6749 0.547551 12.9468ZM10.0098 14.1936L23.9699 5.59557C24.2208 5.4415 24.4789 5.78075 24.2635 5.98059L12.7423 16.6901C12.3374 17.067 12.0761 17.5715 12.0022 18.1191L11.6097 21.0275C11.5577 21.4158 11.0122 21.4543 10.9051 21.0785L9.39567 15.7749C9.2228 15.17 9.47472 14.5239 10.0098 14.1936Z" fill="white"/>
</svg>
