<svg width="115" height="95" viewBox="0 0 115 95" fill="none" xmlns="http://www.w3.org/2000/svg">
<circle cx="90.5" cy="56.5" r="24.5" fill="#FFC444" fill-opacity="0.5"/>
<g clip-path="url(#clip0)">
<path d="M91.8211 55.4038V64.9015H88.6551V1.58299C88.6551 0.708797 87.9464 2.52433e-05 87.0722 2.52433e-05H79.1574C78.7367 -0.0023492 78.3322 0.162873 78.0334 0.459085L75.9914 2.51694L73.9494 0.459085L71.7016 2.70689L74.4085 5.39793V7.91484H71.2425C70.3683 7.91484 69.6596 8.62362 69.6596 9.49781V22.1615C69.6596 23.0357 70.3683 23.7445 71.2425 23.7445V25.3274H74.4085V23.7445H77.5744V25.3274H80.7403V23.7445C81.6145 23.7445 82.3233 23.0357 82.3233 22.1615V9.49781C82.3233 8.62362 81.6145 7.91484 80.7403 7.91484H77.5744V5.39793L79.8064 3.16595H85.4892V58.8546C84.9817 58.6704 84.4462 58.574 83.9062 58.5697H80.7403V50.6549C80.7403 48.0321 78.6142 45.906 75.9914 45.906H19.0047C16.7884 45.9107 14.87 47.448 14.3825 49.6101L6.46765 45.2411C5.46484 44.6802 4.2794 44.5434 3.17508 44.8612V41.1571H0.00915527V72.8164C0.00915527 73.6906 0.717927 74.3993 1.59212 74.3993H9.50694V82.5358C6.12098 83.4099 4.08489 86.8636 4.95908 90.2495C5.83328 93.6355 9.28691 95.6716 12.6729 94.7974C16.0588 93.9232 18.0949 90.4696 17.2207 87.0836C16.6449 84.8532 14.9033 83.1116 12.6729 82.5358V80.7312H82.3233V82.5358C78.9373 83.4099 76.9012 86.8636 77.7754 90.2495C78.6496 93.6355 82.1032 95.6716 85.4892 94.7974C88.8752 93.9232 90.9113 90.4696 90.0371 87.0836C89.4613 84.8532 87.7196 83.1116 85.4892 82.5358V74.3993H93.404C94.2782 74.3993 94.987 73.6906 94.987 72.8164V55.4038H91.8211ZM79.1574 11.0808V20.5786H72.8255V11.0808H79.1574ZM80.7403 63.3186V61.7356H83.9062C84.7804 61.7356 85.4892 62.4444 85.4892 63.3186C85.4892 64.1928 84.7804 64.9015 83.9062 64.9015H80.4554C80.6396 64.394 80.736 63.8586 80.7403 63.3186ZM68.0766 49.0719H75.9914C76.8656 49.0719 77.5744 49.7807 77.5744 50.6549V58.5697H68.0766V49.0719ZM68.0766 61.7356H77.5744V63.3186C77.5744 64.1928 76.8656 64.9015 75.9914 64.9015H68.0766V61.7356ZM55.4129 49.0719H64.9107V58.5697H55.4129V49.0719ZM55.4129 61.7356H64.9107V64.9015H55.4129V61.7356ZM42.7492 49.0719H52.247V58.5697H42.7492V49.0719ZM42.7492 61.7356H52.247V64.9015H42.7492V61.7356ZM30.0855 49.0719H39.5833V58.5697H30.497L30.0855 58.3481V49.0719ZM30.0855 61.7356H39.5833V64.9015H30.0855V61.7356ZM17.4218 50.6549C17.4218 49.7807 18.1305 49.0719 19.0047 49.0719H26.9195V56.5752L17.4218 51.3039V50.6549ZM17.4218 54.9605L26.9195 60.1526V63.7143L17.4218 58.1265V54.9605ZM17.4218 61.7356L22.693 64.9015H19.0047C18.1305 64.9015 17.4218 64.1928 17.4218 63.3186V61.7356ZM3.77661 48.0271C4.14208 47.8083 4.59837 47.8083 4.96383 48.0271L14.2558 53.1718V56.3377L3.77661 50.1641C3.38839 49.9406 3.15648 49.5197 3.17508 49.0719C3.15985 48.6374 3.39314 48.2321 3.77661 48.0271ZM3.17508 53.425L14.2558 59.9469V63.3186C14.2602 63.8586 14.3565 64.394 14.5408 64.9015H3.17508V53.425ZM14.2558 88.646C14.2663 90.3944 12.8575 91.8204 11.1089 91.8309C9.36051 91.8414 7.93446 90.4326 7.92397 88.684C7.91705 87.5462 8.52135 86.4922 9.50674 85.9233V88.646H12.6727V85.9233C13.6466 86.4855 14.2491 87.5217 14.2558 88.646ZM12.6729 77.5653V74.3993H82.3233V77.5653H12.6729ZM87.0722 88.646C87.0827 90.3944 85.6738 91.8204 83.9254 91.8309C82.1771 91.8414 80.751 90.4326 80.7405 88.684C80.7336 87.5462 81.3379 86.4922 82.3233 85.9233V88.646H85.4892V85.9233C86.4629 86.4855 87.0654 87.5217 87.0722 88.646ZM91.8211 71.2334H83.9062H3.17508V68.0675H91.8211V71.2334Z" fill="black"/>
</g>
<defs>
<clipPath id="clip0">
<rect width="95" height="95" fill="white"/>
</clipPath>
</defs>
</svg>
