<svg width="101" height="89" viewBox="0 0 101 89" fill="none" xmlns="http://www.w3.org/2000/svg">
<circle cx="72" cy="60" r="29" fill="#FFC444" fill-opacity="0.5"/>
<g clip-path="url(#clip0)">
<path d="M46.7885 5.59593H45.7995V4.60667C45.7995 3.88893 45.2176 3.30713 44.4999 3.30713C43.7822 3.30713 43.2004 3.88893 43.2004 4.60667V5.59593H42.2113C41.4935 5.59593 40.9117 6.17773 40.9117 6.89547C40.9117 7.61321 41.4935 8.19501 42.2113 8.19501H43.2004V9.1841C43.2004 9.90183 43.7822 10.4836 44.4999 10.4836C45.2176 10.4836 45.7995 9.90183 45.7995 9.1841V8.19501H46.7885C47.5063 8.19501 48.0881 7.61321 48.0881 6.89547C48.0881 6.17773 47.5063 5.59593 46.7885 5.59593Z" fill="#FFC444"/>
<path d="M82.5597 84.5551L78.7617 62.3197C78.3497 59.908 76.6387 57.9708 74.2964 57.2642L57.2471 52.1201C56.4951 51.8933 55.7148 51.992 55.0668 52.3457C54.4608 51.8062 54.0189 50.8835 54.0189 50.0291V45.7731C54.0629 45.7352 54.1071 45.6973 54.1509 45.6596C54.2164 45.6031 54.2861 45.5421 54.3577 45.4786H56.0277C58.3457 45.4786 60.496 44.548 62.0823 42.858C63.6687 41.1681 64.4619 38.9634 64.3153 36.6501L63.8526 29.3387V29.2292C63.8526 29.0296 63.8375 28.8337 63.8084 28.642L63.2901 20.4536C63.2447 19.7373 62.6255 19.1937 61.9111 19.2386C61.1947 19.2839 60.6508 19.9014 60.6962 20.6177L61.0028 25.4625C60.6639 25.3665 60.3067 25.3139 59.9373 25.3139H59.8648C59.4829 24.7343 58.8493 24.3343 58.1041 24.2672C44.6139 23.0532 40.7301 19.0246 37.8939 16.0827C37.3045 15.4713 36.3376 15.4246 35.0205 15.9438C32.731 16.8462 28.8336 19.7623 28.7484 24.9693C28.7484 24.9765 28.7483 24.9836 28.7483 24.9907V25.3264C28.49 25.3471 28.239 25.3936 27.997 25.4621L28.3978 19.1299C28.6111 15.7613 30.307 12.7584 33.0123 10.8485L33.1107 11.1056C33.7631 12.8104 35.4278 13.9557 37.2532 13.9557H52.086C53.9112 13.9557 55.5759 12.8104 56.2285 11.1056L56.2512 11.0462C57.6554 12.1043 58.7829 13.4767 59.5505 15.0806C59.7739 15.547 60.2389 15.8193 60.7237 15.8193C60.9118 15.8193 61.1028 15.7781 61.2837 15.6916C61.9313 15.3818 62.2049 14.6057 61.8949 13.9583C60.8375 11.7492 59.2298 9.89458 57.2108 8.53889L58.1056 6.20037C58.4458 5.31142 58.3779 4.3232 57.9195 3.48917C57.4611 2.65532 56.6634 2.0683 55.7308 1.879L48.2722 0.364258C45.8815 -0.121419 43.4575 -0.121419 41.0668 0.364258L33.6083 1.87865C32.6758 2.06795 31.8779 2.65479 31.4195 3.489C30.9611 4.3232 30.8931 5.31124 31.2335 6.2002L32.0599 8.35932C28.3957 10.6904 26.0817 14.5761 25.804 18.9655L25.1881 28.6936C25.1639 28.869 25.1472 29.0466 25.1472 29.2286V29.3382L24.6845 36.6496C24.538 38.9627 25.3312 41.1675 26.9175 42.8575C28.5039 44.5475 30.6541 45.4781 32.9721 45.4781H34.6421C34.7137 45.5414 34.7834 45.6026 34.849 45.6591C34.8928 45.6968 34.9369 45.7347 34.9809 45.7726V50.0286C34.9809 50.883 34.539 51.8058 33.9331 52.3452C33.285 51.9915 32.5045 51.8924 31.7529 52.1194L14.7035 57.2637C12.3613 57.9703 10.6503 59.9076 10.2381 62.3192L8.81154 70.6718C8.69073 71.3793 9.16632 72.0508 9.8738 72.1716C10.5806 72.2934 11.2528 71.817 11.3736 71.1093L12.8002 62.7567C13.0451 61.3235 14.062 60.172 15.454 59.752L32.5037 54.6076C32.6153 54.574 32.734 54.6252 32.7867 54.7288C32.7867 54.7289 32.787 54.7293 32.787 54.7295L40.9272 70.8117C41.1414 71.235 41.4225 71.6082 41.7538 71.9211C42.4828 72.6098 43.4559 73.0073 44.4996 73.0073C45.1638 73.0073 45.7993 72.8464 46.3616 72.5517C47.0846 72.173 47.6864 71.5734 48.0721 70.8115L56.2127 54.7288C56.2651 54.6248 56.384 54.5732 56.4958 54.6076L73.5453 59.7519C74.9375 60.1718 75.9544 61.3233 76.1991 62.7565L79.9971 84.9918C80.0793 85.4724 79.8651 85.8124 79.7301 85.9723C79.595 86.1323 79.296 86.4007 78.8084 86.4007H70.7577L68.6337 73.9664C68.5129 73.2589 67.8419 72.7828 67.1339 72.9041C66.4265 73.0249 65.9509 73.6964 66.0717 74.4039L68.1209 86.4005H20.8787L22.928 74.4039C23.0488 73.6964 22.5732 73.0249 21.8657 72.9041C21.1586 72.7831 20.4867 73.2587 20.3659 73.9664L18.2419 86.4007H10.191C9.70345 86.4007 9.40429 86.1323 9.2694 85.9723C9.13451 85.8124 8.92035 85.4722 9.0024 84.9918L10.3245 77.2514C10.4454 76.5439 9.96976 75.8724 9.26227 75.7516C8.55514 75.6302 7.88329 76.1064 7.76248 76.8138L6.44034 84.5542C6.25122 85.6619 6.5582 86.7898 7.28272 87.6486C8.00723 88.5073 9.06724 88.9999 10.191 88.9999C10.1924 88.9999 10.191 88.9999 10.1924 88.9999H78.8091C79.9328 88.9999 80.9928 88.5073 81.7175 87.6486C82.4418 86.7905 82.749 85.6626 82.5597 84.5551ZM33.6977 4.74126C33.7504 4.64548 33.876 4.47704 34.1258 4.42628L41.5843 2.91171C42.6081 2.70399 43.6388 2.60004 44.6697 2.60004C45.7004 2.60004 46.7315 2.70399 47.755 2.91171L55.2137 4.42628C55.2137 4.42628 55.2137 4.42628 55.2138 4.42645C55.4634 4.47704 55.5891 4.64548 55.6418 4.74126C55.6945 4.83721 55.7694 5.03346 55.6783 5.27161L53.8011 10.1767C53.531 10.8824 52.8418 11.3566 52.0861 11.3566H37.2534C36.4977 11.3566 35.8085 10.8824 35.5384 10.1767L33.6612 5.27161C33.5701 5.03364 33.645 4.83721 33.6977 4.74126ZM61.7215 36.8143C61.8219 38.4037 61.2771 39.9181 60.1872 41.0791C59.3023 42.0219 58.1618 42.6207 56.9116 42.8125C58.3405 41.0436 59.7435 38.7063 60.1394 36.0379C60.6783 36.0104 61.1874 35.8712 61.6476 35.6466L61.7215 36.8143ZM28.8128 41.0791C27.7229 39.9181 27.1781 38.4035 27.2786 36.8143L27.3524 35.6467C27.8126 35.8713 28.3217 36.0104 28.8606 36.038C29.2564 38.7063 30.6595 41.0436 32.0884 42.8126C30.8382 42.6207 29.6977 42.0219 28.8128 41.0791ZM45.9164 69.3163L45.7534 69.6384C45.7303 69.6841 45.7032 69.7265 45.6762 69.7686C45.6675 69.782 45.6606 69.7969 45.6517 69.8099C45.6354 69.8337 45.6161 69.8543 45.5985 69.8769C45.5361 69.9566 45.4683 70.0311 45.392 70.0941C45.376 70.1074 45.3579 70.118 45.3414 70.1305C45.1052 70.3081 44.8158 70.4088 44.4999 70.4088C43.9593 70.4088 43.4907 70.1207 43.2464 69.6385L37.8494 58.9754H51.1508L45.9164 69.3163ZM52.4663 56.3761H36.5337L35.5298 54.3927C36.7545 53.3684 37.5803 51.696 37.5803 50.029V47.7866C39.2816 48.8806 41.4105 49.7293 44.4857 49.7637C44.4905 49.7637 44.4952 49.7637 44.5001 49.7637C44.505 49.7637 44.5096 49.7637 44.5145 49.7637C47.5897 49.7293 49.7186 48.8806 51.4198 47.7867V50.0291C51.4198 51.6963 52.2455 53.3686 53.4703 54.3929L52.4663 56.3761ZM52.455 43.69C50.0518 45.7596 48.199 47.1198 44.5001 47.1644C40.8014 47.1198 38.9485 45.7594 36.5452 43.69C33.3547 40.9429 31.4131 37.5881 31.3514 34.7155C31.3362 34.0089 30.7589 33.4438 30.0522 33.4438H29.0629C28.3372 33.4438 27.7468 32.8535 27.7468 32.1278V29.2292C27.7468 29.1685 27.7524 29.1094 27.7604 29.0508C27.7641 29.031 27.7668 29.011 27.7696 28.991C27.8821 28.3788 28.4187 27.9131 29.0631 27.9131H30.0483C30.7661 27.9131 31.3479 27.3313 31.3479 26.6136V25.002C31.4258 20.6033 35.1697 18.5478 36.3554 18.2288C40.1665 22.1166 44.8505 25.6521 57.6719 26.838C57.7781 27.4486 58.3109 27.9131 58.9522 27.9131H59.9374C60.5817 27.9131 61.1183 28.3788 61.2309 28.991C61.2337 29.0112 61.2365 29.0312 61.2401 29.0508C61.2481 29.1092 61.2537 29.1685 61.2537 29.2292V32.1278C61.2537 32.8533 60.6634 33.4438 59.9376 33.4438H58.9484C58.2414 33.4438 57.6643 34.0088 57.6492 34.7155C57.5871 37.5879 55.6454 40.9428 52.455 43.69Z" fill="black"/>
</g>
<defs>
<clipPath id="clip0">
<rect width="89" height="89" fill="white"/>
</clipPath>
</defs>
</svg>
