<svg width="110" height="100" viewBox="0 0 110 100" fill="none" xmlns="http://www.w3.org/2000/svg">
<circle cx="86" cy="45" r="24" fill="#FFC444" fill-opacity="0.5"/>
<path d="M24.1432 69.3335C23.099 69.3343 22.0784 69.6447 21.2106 70.2254C20.3428 70.8061 19.6666 71.6311 19.2676 72.5961C18.8685 73.561 18.7645 74.6226 18.9688 75.6466C19.173 76.6707 19.6762 77.6112 20.4149 78.3493C21.1535 79.0873 22.0944 79.5898 23.1186 79.7933C24.1428 79.9967 25.2043 79.8919 26.169 79.4921C27.1336 79.0923 27.9581 78.4155 28.5381 77.5472C29.1181 76.6789 29.4277 75.6582 29.4277 74.614C29.4257 73.2134 28.8681 71.8709 27.8774 70.8809C26.8867 69.891 25.5437 69.3345 24.1432 69.3335ZM24.1432 77.5507C23.5625 77.5499 22.9951 77.3769 22.5127 77.0538C22.0303 76.7306 21.6546 76.2716 21.4329 75.735C21.2113 75.1983 21.1537 74.6079 21.2675 74.0385C21.3812 73.4691 21.6613 72.9462 22.0721 72.5359C22.483 72.1256 23.0063 71.8464 23.5758 71.7334C24.1454 71.6204 24.7357 71.6788 25.272 71.9012C25.8084 72.1236 26.2668 72.5 26.5893 72.9828C26.9118 73.4657 27.084 74.0333 27.084 74.614C27.0826 75.3931 26.7722 76.1399 26.2209 76.6905C25.6696 77.2411 24.9223 77.5504 24.1432 77.5507Z" fill="#FFC444"/>
<path d="M79.1719 69.3335C78.1277 69.3343 77.1072 69.6447 76.2393 70.2254C75.3715 70.8061 74.6953 71.6311 74.2963 72.5961C73.8972 73.561 73.7933 74.6226 73.9975 75.6466C74.2017 76.6707 74.7049 77.6112 75.4436 78.3493C76.1822 79.0873 77.1231 79.5898 78.1473 79.7933C79.1715 79.9967 80.233 79.8919 81.1977 79.4921C82.1623 79.0923 82.9868 78.4155 83.5668 77.5472C84.1469 76.6789 84.4564 75.6582 84.4564 74.614C84.4544 73.2134 83.8968 71.8709 82.9061 70.8809C81.9154 69.891 80.5724 69.3345 79.1719 69.3335ZM79.1719 77.5507C78.5912 77.5499 78.0238 77.3769 77.5414 77.0538C77.059 76.7306 76.6833 76.2716 76.4616 75.735C76.24 75.1983 76.1824 74.6079 76.2962 74.0385C76.41 73.4691 76.69 72.9462 77.1009 72.5359C77.5117 72.1256 78.035 71.8464 78.6046 71.7334C79.1741 71.6204 79.7644 71.6788 80.3008 71.9012C80.8371 72.1236 81.2955 72.5 81.6181 72.9828C81.9406 73.4657 82.1127 74.0333 82.1127 74.614C82.1113 75.3931 81.8009 76.1399 81.2496 76.6904C80.6982 77.241 79.951 77.5504 79.1719 77.5507Z" fill="#FFC444"/>
<path d="M6.875 75.8463H14.1686C14.4707 78.2788 15.6513 80.5171 17.4883 82.14C19.3253 83.7629 21.6921 84.6586 24.1433 84.6586C26.5945 84.6586 28.9612 83.7629 30.7982 82.14C32.6352 80.5171 33.8158 78.2788 34.118 75.8463H69.1973C69.4994 78.2788 70.6801 80.5171 72.517 82.14C74.354 83.7629 76.7208 84.6586 79.172 84.6586C81.6232 84.6586 83.9899 83.7629 85.8269 82.14C87.6639 80.5171 88.8445 78.2788 89.1467 75.8463H93.098C93.7474 75.8463 94.3903 75.7178 94.9898 75.4683C95.5892 75.2187 96.1334 74.853 96.5909 74.3922C97.0484 73.9314 97.4102 73.3847 97.6555 72.7834C97.9007 72.1822 98.0246 71.5384 98.0199 70.8891L97.9367 59.2363C97.9291 58.375 97.6962 57.5306 97.2613 56.7871C96.8263 56.0436 96.2045 55.4269 95.4574 54.998L86.7883 50.0432C86.4825 49.8679 86.2157 49.6319 86.0045 49.3498C85.7932 49.0676 85.6418 48.7453 85.5596 48.4025C84.7527 45.0117 83.1236 37.14 82.2242 32.7498C81.994 31.6404 81.3891 30.6439 80.5111 29.9277C79.6331 29.2116 78.5354 28.8193 77.4023 28.8168H77.3869L59.8527 28.8721V26.7236C59.8527 25.5012 59.3671 24.3287 58.5027 23.4643C57.6382 22.5999 56.4658 22.1143 55.2434 22.1143C54.0209 22.1143 52.8485 22.5999 51.984 23.4643C51.1196 24.3287 50.634 25.5012 50.634 26.7236V28.9016L6.85937 29.0393C5.55745 29.0458 4.31094 29.5669 3.39179 30.489C2.47265 31.411 1.95548 32.6592 1.95312 33.9611V70.9242C1.95457 72.2292 2.47358 73.4802 3.3963 74.403C4.31901 75.3257 5.57006 75.8448 6.875 75.8463ZM24.1432 82.315C22.6205 82.3133 21.1324 81.8602 19.8672 81.013C18.6019 80.1658 17.6162 78.9625 17.0347 77.5553C16.4532 76.148 16.3019 74.5999 16.6 73.1066C16.8981 71.6134 17.6322 70.2421 18.7095 69.1659C19.7868 68.0898 21.159 67.3573 22.6526 67.0608C24.1461 66.7644 25.6941 66.9174 27.1007 67.5005C28.5073 68.0836 29.7095 69.0706 30.5553 70.3368C31.4011 71.603 31.8525 73.0915 31.8525 74.6143C31.8491 76.6571 31.0355 78.6151 29.5902 80.0588C28.1449 81.5025 26.186 82.3139 24.1432 82.315ZM79.1719 82.315C77.6492 82.3133 76.1611 81.8602 74.8959 81.013C73.6306 80.1658 72.6449 78.9625 72.0634 77.5553C71.4819 76.148 71.3306 74.5999 71.6287 73.1066C71.9268 71.6134 72.6609 70.2421 73.7382 69.1659C74.8155 68.0898 76.1877 67.3573 77.6813 67.0608C79.1748 66.7644 80.7228 66.9174 82.1294 67.5005C83.536 68.0836 84.7382 69.0706 85.584 70.3368C86.4298 71.603 86.8812 73.0915 86.8812 74.6143C86.8778 76.6571 86.0642 78.6151 84.6189 80.0588C83.1736 81.5025 81.2147 82.3139 79.1719 82.315ZM95.633 64.8697H92.8125C92.8088 64.8698 92.8051 64.8691 92.8016 64.8678C92.7981 64.8664 92.795 64.8644 92.7923 64.8618C92.7896 64.8593 92.7875 64.8562 92.786 64.8528C92.7845 64.8494 92.7837 64.8457 92.7836 64.842V61.5217C92.7837 61.518 92.7845 61.5143 92.786 61.5109C92.7875 61.5075 92.7896 61.5044 92.7923 61.5018C92.795 61.4992 92.7981 61.4972 92.8016 61.4959C92.8051 61.4945 92.8088 61.4939 92.8125 61.4939H95.6088L95.633 64.8697ZM83.3283 49.1275H68.6623V38.7398C68.663 38.2373 68.8631 37.7555 69.2187 37.4003C69.5742 37.0451 70.0562 36.8455 70.5588 36.8453H80.676L83.3283 49.1275ZM55.2435 24.4609C55.6323 24.4615 56.0144 24.5621 56.353 24.7531C56.6917 24.9441 56.9755 25.219 57.1771 25.5514H53.3092C53.5109 25.2189 53.7948 24.9439 54.1336 24.7529C54.4724 24.5619 54.8546 24.4614 55.2435 24.4609ZM52.9779 27.8951H57.5092V28.8795L52.9779 28.8937V27.8951ZM4.29687 33.9611C4.2981 33.2792 4.569 32.6254 5.05045 32.1424C5.5319 31.6594 6.18484 31.3864 6.8668 31.383L77.3941 31.1605H77.4023C77.9957 31.1618 78.5706 31.3672 79.0304 31.7423C79.4903 32.1173 79.8071 32.6391 79.9277 33.2201C80.0098 33.6205 80.098 34.0504 80.191 34.5023H70.5582C69.4342 34.5033 68.3566 34.95 67.5616 35.7446C66.7667 36.5392 66.3194 37.6167 66.318 38.7406V49.1283H4.29687V33.9611ZM4.29687 51.4713H84.7851C85.0429 51.7027 85.3244 51.9062 85.625 52.0783L87.6793 53.2523H4.29687V51.4713ZM4.29687 60.6465H6.93184V64.8262H4.29687V60.6465ZM4.29687 67.1699H7.33242C7.84761 67.1693 8.34153 66.9644 8.70582 66.6002C9.07011 66.2359 9.27502 65.7419 9.27559 65.2268V60.2459C9.27502 59.7307 9.07011 59.2368 8.70582 58.8725C8.34153 58.5082 7.84761 58.3033 7.33242 58.3027H4.29687V55.5961H91.7799L94.2941 57.0332C94.6702 57.2492 94.9858 57.5564 95.2121 57.9264C95.4383 58.2964 95.5678 58.7174 95.5887 59.1506H92.8125C92.1836 59.1512 91.5806 59.4011 91.1358 59.8457C90.691 60.2903 90.4407 60.8932 90.4398 61.5221V64.8424C90.4408 65.4712 90.6912 66.074 91.136 66.5185C91.5807 66.963 92.1837 67.2129 92.8125 67.2135H95.6494L95.6758 70.9061C95.6782 71.2462 95.6133 71.5834 95.4848 71.8983C95.3563 72.2132 95.1668 72.4996 94.9272 72.7409C94.6875 72.9823 94.4025 73.1738 94.0885 73.3045C93.7745 73.4353 93.4378 73.5025 93.0976 73.5025H89.1619C88.887 71.0453 87.7162 68.7755 85.8732 67.1271C84.0302 65.4788 81.6443 64.5675 79.1717 64.5675C76.6991 64.5675 74.3132 65.4788 72.4702 67.1271C70.6272 68.7755 69.4563 71.0453 69.1814 73.5025H34.1334C33.8581 71.0456 32.6871 68.7762 30.8441 67.1281C29.0012 65.4801 26.6155 64.569 24.1432 64.569C21.6708 64.569 19.2852 65.4801 17.4422 67.1281C15.5992 68.7762 14.4282 71.0456 14.1529 73.5025H6.875C6.19149 73.5017 5.53622 73.2298 5.0529 72.7465C4.56959 72.2632 4.2977 71.6079 4.29687 70.9244V67.1699Z" fill="black"/>
<path d="M60.6408 34.502H43.6439C43.0737 34.5026 42.5271 34.7294 42.1239 35.1326C41.7206 35.5358 41.4938 36.0825 41.4932 36.6527V46.3236C41.4938 46.8938 41.7207 47.4405 42.1239 47.8436C42.5271 48.2468 43.0737 48.4736 43.6439 48.4742H60.6406C61.2108 48.4736 61.7575 48.2468 62.1607 47.8436C62.5639 47.4405 62.7907 46.8938 62.7914 46.3236V36.6527C62.7908 36.0825 62.564 35.5359 62.1608 35.1327C61.7577 34.7294 61.211 34.5026 60.6408 34.502ZM45.7328 46.1305H43.8369V36.8457H45.7328V46.1305ZM60.4477 46.1305H48.0766V36.8457H60.4477V46.1305Z" fill="black"/>
<path d="M41.6119 67.3859H45.0373V70.8061C45.0373 71.1169 45.1608 71.4149 45.3805 71.6347C45.6003 71.8545 45.8984 71.9779 46.2092 71.9779H49.952C50.2628 71.9779 50.5608 71.8545 50.7806 71.6347C51.0004 71.4149 51.1238 71.1169 51.1238 70.8061V67.3859H54.5494C54.8602 67.3859 55.1583 67.2625 55.3781 67.0427C55.5978 66.8229 55.7213 66.5249 55.7213 66.2141V62.475C55.7213 62.1642 55.5978 61.8661 55.3781 61.6464C55.1583 61.4266 54.8602 61.3031 54.5494 61.3031H51.1238V57.8828C51.1238 57.572 51.0004 57.2739 50.7806 57.0542C50.5608 56.8344 50.2628 56.7109 49.952 56.7109H46.2092C45.8984 56.7109 45.6003 56.8344 45.3805 57.0542C45.1608 57.2739 45.0373 57.572 45.0373 57.8828V61.3031H41.6119C41.3011 61.3031 41.003 61.4266 40.7833 61.6464C40.5635 61.8661 40.44 62.1642 40.44 62.475V66.2141C40.44 66.5249 40.5635 66.8229 40.7833 67.0427C41.003 67.2625 41.3011 67.3859 41.6119 67.3859ZM42.7838 63.6469H46.2092C46.52 63.6469 46.818 63.5234 47.0378 63.3036C47.2576 63.0839 47.3811 62.7858 47.3811 62.475V59.0547H48.7801V62.475C48.7801 62.7858 48.9035 63.0839 49.1233 63.3036C49.3431 63.5234 49.6412 63.6469 49.952 63.6469H53.3775V65.0422H49.952C49.6412 65.0422 49.3431 65.1657 49.1233 65.3854C48.9035 65.6052 48.7801 65.9033 48.7801 66.2141V69.6342H47.3811V66.2141C47.3811 65.9033 47.2576 65.6052 47.0378 65.3854C46.818 65.1657 46.52 65.0422 46.2092 65.0422H42.7838V63.6469Z" fill="#FFC444"/>
<path d="M48.8992 23.4716C49.0078 23.5818 49.137 23.6694 49.2796 23.7294C49.4222 23.7894 49.5753 23.8206 49.73 23.8212C49.8847 23.8217 50.0379 23.7917 50.1809 23.7327C50.3239 23.6737 50.4539 23.587 50.5632 23.4776C50.6725 23.3681 50.7591 23.2381 50.818 23.0951C50.8768 22.952 50.9067 22.7987 50.906 22.644C50.9053 22.4893 50.874 22.3363 50.8139 22.1938C50.7537 22.0512 50.666 21.922 50.5557 21.8136L48.3307 19.5899C48.2223 19.4788 48.093 19.3902 47.9502 19.3294C47.8073 19.2686 47.6538 19.2368 47.4986 19.2359C47.3434 19.2349 47.1895 19.2648 47.0459 19.3238C46.9023 19.3828 46.7719 19.4697 46.6622 19.5795C46.5525 19.6893 46.4657 19.8199 46.4069 19.9635C46.348 20.1072 46.3183 20.2611 46.3194 20.4163C46.3206 20.5715 46.3525 20.725 46.4135 20.8677C46.4744 21.0105 46.5631 21.1397 46.6744 21.248L48.8992 23.4716Z" fill="#FFC444"/>
<path d="M55.21 21.0968C55.5208 21.0968 55.8188 20.9733 56.0386 20.7535C56.2584 20.5338 56.3818 20.2357 56.3818 19.9249V16.5132C56.3818 16.2024 56.2584 15.9043 56.0386 15.6845C55.8188 15.4648 55.5208 15.3413 55.21 15.3413C54.8992 15.3413 54.6011 15.4648 54.3813 15.6845C54.1616 15.9043 54.0381 16.2024 54.0381 16.5132V19.9249C54.0381 20.2357 54.1616 20.5338 54.3813 20.7535C54.6011 20.9733 54.8992 21.0968 55.21 21.0968Z" fill="#FFC444"/>
<path d="M60.7199 23.8142C60.8737 23.8144 61.0261 23.7842 61.1682 23.7254C61.3103 23.6665 61.4394 23.5802 61.5481 23.4714L63.7731 21.2485C63.99 21.0283 64.1111 20.7312 64.11 20.4221C64.1089 20.1129 63.9856 19.8167 63.7671 19.598C63.5486 19.3793 63.2526 19.2558 62.9434 19.2544C62.6343 19.253 62.3371 19.3738 62.1166 19.5905L59.8918 21.8134C59.7278 21.9772 59.6162 22.186 59.5709 22.4133C59.5256 22.6406 59.5487 22.8763 59.6374 23.0905C59.726 23.3046 59.8762 23.4877 60.0689 23.6165C60.2616 23.7453 60.4881 23.8141 60.7199 23.8142Z" fill="#FFC444"/>
<path d="M70.3607 42.7803C70.5006 42.8445 70.6517 42.8807 70.8055 42.8866C70.9593 42.8924 71.1127 42.868 71.257 42.8146C71.4014 42.7612 71.5337 42.6798 71.6467 42.5753C71.7596 42.4707 71.8508 42.3449 71.915 42.2051L72.7824 40.3189C72.9049 40.0378 72.9122 39.7198 72.8029 39.4333C72.6935 39.1468 72.4763 38.9145 72.1976 38.7864C71.919 38.6583 71.6013 38.6444 71.3126 38.7479C71.0239 38.8514 70.7873 39.0639 70.6535 39.3398L69.7863 41.226C69.6564 41.5083 69.644 41.8306 69.7517 42.122C69.8594 42.4135 70.0785 42.6503 70.3607 42.7803Z" fill="black"/>
<path d="M72.1521 45.908C72.289 45.9784 72.4384 46.0212 72.5918 46.0338C72.7452 46.0465 72.8995 46.0288 73.0461 45.9818C73.1926 45.9348 73.3285 45.8594 73.4459 45.7598C73.5633 45.6603 73.6599 45.5387 73.7303 45.4018L76.2207 40.5594C76.2911 40.4226 76.3338 40.2732 76.3465 40.1198C76.3591 39.9664 76.3414 39.812 76.2944 39.6655C76.2474 39.519 76.172 39.3831 76.0725 39.2657C75.973 39.1483 75.8513 39.0517 75.7144 38.9813C75.5776 38.9109 75.4282 38.8682 75.2748 38.8555C75.1215 38.8429 74.9671 38.8606 74.8205 38.9076C74.674 38.9546 74.5382 39.03 74.4208 39.1295C74.3034 39.229 74.2067 39.3507 74.1363 39.4875L71.6459 44.3299C71.5755 44.4668 71.5328 44.6162 71.5201 44.7695C71.5075 44.9229 71.5252 45.0773 71.5722 45.2238C71.6192 45.3704 71.6946 45.5062 71.7941 45.6236C71.8936 45.741 72.0153 45.8377 72.1521 45.908Z" fill="black"/>
<path d="M38.1408 34.502H21.1439C20.5738 34.5026 20.0271 34.7294 19.6239 35.1327C19.2208 35.5359 18.994 36.0825 18.9934 36.6527V46.3236C18.994 46.8938 19.2208 47.4405 19.6239 47.8436C20.0271 48.2468 20.5738 48.4736 21.1439 48.4742H38.1408C38.711 48.4736 39.2577 48.2468 39.6608 47.8436C40.064 47.4405 40.2908 46.8938 40.2914 46.3236V36.6527C40.2908 36.0825 40.064 35.5359 39.6609 35.1327C39.2577 34.7294 38.711 34.5026 38.1408 34.502ZM23.2328 46.1305H21.3371V36.8457H23.2328V46.1305ZM37.9477 46.1305H25.5766V36.8457H37.9477V46.1305Z" fill="black"/>
<path d="M15.6408 34.502H7.83203C7.26183 34.5026 6.71518 34.7294 6.31201 35.1327C5.90883 35.5359 5.68206 36.0825 5.68144 36.6527V46.3236C5.68206 46.8938 5.90884 47.4405 6.31202 47.8436C6.7152 48.2468 7.26185 48.4736 7.83203 48.4742H15.6408C16.211 48.4735 16.7576 48.2467 17.1608 47.8436C17.5639 47.4404 17.7907 46.8938 17.7914 46.3236V36.6527C17.7908 36.0825 17.564 35.5359 17.1608 35.1327C16.7577 34.7294 16.211 34.5026 15.6408 34.502ZM15.4477 46.1305H8.02461V36.8457H15.4477V46.1305Z" fill="black"/>
<path d="M12.1189 60.4512H12.5803C12.8911 60.4512 13.1891 60.3277 13.4089 60.1079C13.6287 59.8882 13.7521 59.5901 13.7521 59.2793C13.7521 58.9685 13.6287 58.6704 13.4089 58.4507C13.1891 58.2309 12.8911 58.1074 12.5803 58.1074H12.1189C11.8081 58.1074 11.5101 58.2309 11.2903 58.4507C11.0705 58.6704 10.9471 58.9685 10.9471 59.2793C10.9471 59.5901 11.0705 59.8882 11.2903 60.1079C11.5101 60.3277 11.8081 60.4512 12.1189 60.4512Z" fill="#FFC444"/>
<path d="M15.9395 60.4512H27.7949C28.1057 60.4512 28.4038 60.3277 28.6236 60.1079C28.8433 59.8882 28.9668 59.5901 28.9668 59.2793C28.9668 58.9685 28.8433 58.6704 28.6236 58.4507C28.4038 58.2309 28.1057 58.1074 27.7949 58.1074H15.9395C15.6287 58.1074 15.3306 58.2309 15.1108 58.4507C14.891 58.6704 14.7676 58.9685 14.7676 59.2793C14.7676 59.5901 14.891 59.8882 15.1108 60.1079C15.3306 60.3277 15.6287 60.4512 15.9395 60.4512Z" fill="#FFC444"/>
</svg>
