<svg width="79" height="78" viewBox="0 0 79 78" fill="none" xmlns="http://www.w3.org/2000/svg">
<circle cx="54.5" cy="24.5" r="24.5" fill="#FFC444" fill-opacity="0.5"/>
<path d="M60.2709 18.1445H54.4516V12.3253C54.4517 10.4963 52.9551 9 51.127 9H8.72877C6.89986 9 5.40356 10.4963 5.40356 12.3253V65.53C5.40356 67.3589 6.89986 68.8554 8.7289 68.8554H14.5482V74.6747C14.5482 76.5036 16.0438 78 17.8735 78H46.1377C47.9658 78 50.5529 76.9742 51.8839 75.7214L61.1731 66.9775C62.5057 65.7248 63.5947 63.2025 63.5947 61.3736L63.5963 21.4701C63.5962 19.6409 62.0998 18.1445 60.2709 18.1445ZM14.5479 21.47V66.3614H8.72877C8.27824 66.3614 7.89753 65.9807 7.89753 65.5302V12.3253C7.89753 11.8748 8.27824 11.4941 8.72877 11.4941H51.1272C51.5769 11.4941 51.9584 11.8748 51.9584 12.3253V18.1446H17.8733C16.0436 18.1446 14.5479 19.6409 14.5479 21.47ZM59.4637 65.1617L50.1745 73.9049C49.9842 74.0837 49.7364 74.259 49.4628 74.426V66.777C49.4628 66.2059 49.6931 65.692 50.073 65.3097C50.4563 64.9298 50.97 64.6988 51.5412 64.6988H59.8586C59.7296 64.874 59.5976 65.0353 59.4637 65.1617ZM61.1005 61.3733C61.1005 61.6202 61.0555 61.9062 60.9874 62.2046H51.541C49.0181 62.2095 46.9738 64.2538 46.9687 66.7769V75.4051C46.672 75.4651 46.386 75.5056 46.1375 75.5056H17.8733V75.5058C17.4218 75.5058 17.042 75.1251 17.042 74.6745V21.4698C17.042 21.0193 17.4219 20.6386 17.8733 20.6386H60.2707C60.7212 20.6386 61.102 21.0193 61.102 21.4698L61.1005 61.3733Z" fill="black"/>
<path d="M38.8843 44.3666C40.7243 44.6667 42.1343 45.3567 43.1143 46.4366C44.0943 47.4966 44.5843 48.8166 44.5843 50.3966C44.5843 51.6166 44.2643 52.7467 43.6243 53.7867C42.9843 54.8067 42.0043 55.6267 40.6843 56.2467C39.3843 56.8667 37.7843 57.1767 35.8843 57.1767C34.4043 57.1767 32.9443 56.9867 31.5043 56.6067C30.0843 56.2067 28.8743 55.6467 27.8743 54.9267L29.7643 51.2067C30.5643 51.8067 31.4843 52.2767 32.5243 52.6167C33.5843 52.9367 34.6643 53.0967 35.7643 53.0967C36.9843 53.0967 37.9443 52.8667 38.6443 52.4067C39.3443 51.9267 39.6943 51.2567 39.6943 50.3966C39.6943 48.6766 38.3843 47.8167 35.7643 47.8167H33.5443V44.6067L37.8643 39.7166H28.9243V35.8166H43.6243V38.9666L38.8843 44.3666Z" fill="black"/>
</svg>
