<svg width="26" height="26" viewBox="0 0 26 26" fill="none" xmlns="http://www.w3.org/2000/svg">
<path d="M25.9037 12.6923C25.699 12.3944 20.7784 5.4165 12.9999 5.4165C6.3254 5.4165 0.377806 12.3543 0.127552 12.6501C-0.0425173 12.8516 -0.0425173 13.1473 0.127552 13.3499C0.377806 13.6456 6.3254 20.5834 12.9999 20.5834C19.6745 20.5834 25.622 13.6456 25.8723 13.3499C26.0294 13.1636 26.0435 12.8938 25.9037 12.6923ZM12.9999 19.5001C7.64929 19.5001 2.56184 14.3975 1.26944 13C2.55971 11.6014 7.64172 6.49989 12.9999 6.49989C19.2606 6.49989 23.6796 11.5949 24.7586 12.9707C23.5127 14.3238 18.3961 19.5001 12.9999 19.5001Z" fill="#6165D7"/>
<path d="M12.9999 8.66663C10.61 8.66663 8.6665 10.6102 8.6665 13C8.6665 15.3899 10.61 17.3334 12.9999 17.3334C15.3897 17.3334 17.3333 15.3899 17.3333 13C17.3333 10.6102 15.3897 8.66663 12.9999 8.66663ZM12.9999 16.2501C11.208 16.2501 9.74984 14.7919 9.74984 13.0001C9.74984 11.2082 11.208 9.75001 12.9999 9.75001C14.7917 9.75001 16.2499 11.2082 16.2499 13.0001C16.2499 14.7919 14.7917 16.2501 12.9999 16.2501Z" fill="#6165D7"/>
</svg>
