<svg width="42" height="41" viewBox="0 0 42 41" fill="none" xmlns="http://www.w3.org/2000/svg">
<g clip-path="url(#clip0)">
<rect x="8.14746" y="8" width="28" height="24" fill="white"/>
<path d="M20.6526 0H20.6423C9.33915 0 0.147461 9.19425 0.147461 20.5C0.147461 24.9844 1.59271 29.1408 4.05015 32.5156L1.49534 40.1313L9.37502 37.6124C12.6166 39.7598 16.4834 41 20.6526 41C31.9558 41 41.1475 31.8032 41.1475 20.5C41.1475 9.19681 31.9558 0 20.6526 0ZM32.581 28.9486C32.0865 30.3451 30.1236 31.5034 28.5579 31.8416C27.4868 32.0697 26.0876 32.2516 21.3778 30.299C15.3533 27.8031 11.4737 21.6813 11.1713 21.2841C10.8818 20.8869 8.73696 18.0426 8.73696 15.1008C8.73696 12.1591 10.2309 10.7266 10.8331 10.1116C11.3276 9.60681 12.1451 9.37619 12.9292 9.37619C13.1829 9.37619 13.411 9.389 13.616 9.39925C14.2181 9.42488 14.5205 9.46075 14.9177 10.4114C15.4123 11.603 16.6166 14.5448 16.7601 14.8471C16.9062 15.1495 17.0523 15.5595 16.8473 15.9567C16.6551 16.3667 16.486 16.5486 16.1836 16.8971C15.8812 17.2456 15.5942 17.5121 15.2918 17.8862C15.0151 18.2117 14.7025 18.5602 15.051 19.1624C15.3995 19.7518 16.6038 21.7172 18.3771 23.2957C20.6654 25.3329 22.5206 25.9838 23.1843 26.2605C23.6789 26.4655 24.2683 26.4168 24.6296 26.0324C25.0883 25.5379 25.6546 24.7179 26.2311 23.9107C26.6411 23.3316 27.1588 23.2598 27.702 23.4648C28.2555 23.657 31.1845 25.1048 31.7866 25.4046C32.3888 25.707 32.786 25.8505 32.9321 26.1042C33.0756 26.3579 33.0756 27.5494 32.581 28.9486Z" fill="#51C65E"/>
</g>
<defs>
<clipPath id="clip0">
<rect width="41" height="41" fill="white" transform="translate(0.147461)"/>
</clipPath>
</defs>
</svg>
