<svg width="161" height="161" viewBox="0 0 161 161" fill="none" xmlns="http://www.w3.org/2000/svg">
<circle cx="79.8711" cy="81.1289" r="70.0664" stroke="#FFC444" stroke-width="2"/>
<circle cx="80.5" cy="80.5" r="80" stroke="#FFC444" stroke-opacity="0.5"/>
<circle cx="79.8711" cy="81.1289" r="62.2617" fill="#FFC444"/>
<path d="M55.8102 79.6674L51.1975 75.7283C51.2028 75.7014 51.2082 75.6744 51.2136 75.6421V70.4906C51.2082 70.1834 50.9657 69.9355 50.6586 69.9247H48.0828C47.7864 69.9247 47.5439 70.1888 47.5439 70.4906V72.6245L43.8527 69.4775C43.6533 69.3051 43.357 69.3051 43.1522 69.4775L31.1947 79.6621C30.963 79.8507 30.9361 80.1901 31.1247 80.4219C31.3133 80.6536 31.6528 80.6805 31.8845 80.4919C31.8899 80.4865 31.8899 80.4865 31.8953 80.4811L43.5024 70.5983L47.6571 74.1387L50.1413 76.251L55.115 80.4865C55.3413 80.6805 55.6808 80.6536 55.8748 80.4272C56.0634 80.2009 56.0365 79.8614 55.8102 79.6674ZM50.1305 74.8177L48.6217 73.5459V71.0079H50.1305V74.8177Z" fill="black"/>
<path d="M53.4338 80.7559L51.9196 79.4626L43.8528 72.5705C43.6534 72.3981 43.357 72.3981 43.1523 72.5705L35.0854 79.4626L33.5712 80.7559C33.3449 80.9499 33.318 81.2894 33.512 81.5157C33.7006 81.742 34.0347 81.769 34.2556 81.5804L34.261 81.575L34.9346 80.993V91.0967C34.94 91.3985 35.1878 91.6464 35.4896 91.6518H51.5101C51.8119 91.6464 52.0597 91.4039 52.0651 91.0967V80.993L52.7387 81.575C52.8357 81.6558 52.9543 81.7043 53.0836 81.7043C53.2399 81.7043 53.3907 81.6343 53.4931 81.5157C53.6925 81.284 53.6602 80.9445 53.4338 80.7559ZM45.658 90.5687H41.3471V84.7489H45.658V90.5687ZM46.7357 90.5687V84.2262C46.7357 83.9298 46.5148 83.6712 46.2184 83.6712H40.7867C40.4903 83.6712 40.2693 83.9298 40.2693 84.2262V90.5687H36.0123V80.0715L43.5025 73.6914L50.9928 80.0715V90.5687H46.7357Z" fill="black"/>
<path d="M107.488 110.241L106.012 101.692C105.909 101.094 105.341 100.692 104.742 100.796C104.144 100.899 103.743 101.467 103.847 102.066L105.322 110.615C105.416 111.159 105.266 111.714 104.91 112.137C104.554 112.56 104.033 112.803 103.48 112.803H98.8184L97.8067 107.451C97.6939 106.855 97.1191 106.463 96.523 106.576C95.9268 106.689 95.5348 107.263 95.6475 107.859L96.582 112.803H70.4176L71.3522 107.859C71.465 107.263 71.073 106.688 70.4766 106.576C69.8803 106.463 69.3058 106.855 69.193 107.451L68.1814 112.803H63.5201C62.9673 112.803 62.4459 112.56 62.0898 112.137C61.7337 111.714 61.5833 111.159 61.6775 110.614L64.3558 95.0993C64.6567 93.3569 65.8715 91.8873 67.5261 91.264L70.0786 90.3027L76.3174 98.9567C76.7469 99.5523 77.4121 99.938 78.1423 100.015C78.2324 100.024 78.3223 100.029 78.4118 100.029C79.0498 100.029 79.6704 99.7922 80.1475 99.3597L83.5 96.3204L86.8524 99.3599C87.3294 99.7925 87.95 100.029 88.5881 100.029C88.6777 100.029 88.7677 100.025 88.8576 100.015C89.5879 99.9383 90.253 99.5526 90.6825 98.9568L96.9213 90.303L99.4738 91.2643C101.128 91.8875 102.343 93.3572 102.644 95.0996L103.103 97.7586C103.206 98.3565 103.775 98.7579 104.373 98.6543C104.971 98.5511 105.372 97.9828 105.268 97.3848L104.809 94.7258C104.377 92.219 102.629 90.1048 100.248 89.2081L89.2893 85.1164C88.9287 84.984 88.6864 84.6368 88.6864 84.2526V82.5893C93.0261 80.6539 96.0601 76.3016 96.0601 71.2511V65.0211H97.082C97.6887 65.0211 98.1806 64.5292 98.1806 63.9225C98.1806 63.3157 97.6887 62.8238 97.082 62.8238H89.8735C87.7937 62.8238 85.7702 62.0883 84.1757 60.753L80.3484 57.5473C79.8985 57.1706 79.3076 57.0037 78.7269 57.089C78.1464 57.1745 77.6287 57.5048 77.3068 57.9954L76.7648 58.8207C75.2248 61.1659 72.6333 62.6574 69.8325 62.8106C69.2267 62.8438 68.7625 63.3617 68.7956 63.9676C68.8287 64.5734 69.3477 65.039 69.9525 65.0045C70.2843 64.9864 70.6137 64.953 70.94 64.9054V71.2512C70.94 76.3016 73.9741 80.654 78.3137 82.5894V84.2527C78.3137 84.637 78.0714 84.9841 77.7108 85.1165L66.7517 89.2083C64.3712 90.1049 62.6233 92.2191 62.1906 94.7259L59.5123 110.241C59.3078 111.426 59.6346 112.633 60.4092 113.553C61.1838 114.472 62.3177 115 63.5201 115H103.48C104.682 115 105.816 114.472 106.591 113.553C107.365 112.633 107.692 111.426 107.488 110.241ZM78.6717 97.7321C78.5605 97.8328 78.4363 97.8368 78.3723 97.8298C78.3081 97.823 78.1876 97.7936 78.0998 97.6719L72.209 89.5005L74.0218 88.8178L81.5141 95.1548L78.6717 97.7321ZM88.9001 97.6719C88.8124 97.7937 88.6918 97.8232 88.6277 97.8299C88.5635 97.8368 88.4394 97.8328 88.3282 97.7322L85.4857 95.155L92.9779 88.8179L94.7908 89.5007L88.9001 97.6719ZM73.1372 71.2511V64.3481C75.3496 63.5384 77.2841 62.0331 78.6014 60.0267L79.0574 59.3322L82.7648 62.4374C84.7542 64.1035 87.2787 65.0211 89.8735 65.0211H93.8627V71.2511C93.8627 76.8825 89.2813 81.464 83.6498 81.464H83.35C77.7187 81.464 73.1372 76.8825 73.1372 71.2511ZM78.4684 87.1789C79.6902 86.7302 80.511 85.5541 80.511 84.2526V83.3297C81.4234 83.5442 82.3731 83.6612 83.35 83.6612H83.6498C84.6267 83.6612 85.5764 83.5442 86.4888 83.3297V84.2526C86.4888 85.5541 87.3097 86.7302 88.5314 87.1789L90.6103 87.9425L83.9541 93.5725C83.922 93.5996 83.888 93.6232 83.8528 93.6437C83.7462 93.7055 83.6245 93.7388 83.5 93.7388C83.3755 93.7388 83.2537 93.7055 83.1472 93.6438C83.1119 93.6233 83.0779 93.5996 83.0457 93.5725L76.3895 87.9425L78.4684 87.1789Z" fill="black"/>
<path d="M69.3943 79.5401C69.4816 79.5613 69.5689 79.5714 69.6549 79.5714C70.1499 79.5714 70.5993 79.2345 70.7216 78.7322C70.865 78.1426 70.5034 77.5483 69.9138 77.4049C68.214 76.9914 67.0269 75.4809 67.0269 73.7315V66.6752V63.26C67.0269 59.4514 68.9854 56.0937 71.9465 54.1347H95.053C98.0143 56.0935 99.9727 59.4514 99.9727 63.26V66.6752V73.7315C99.9727 75.4809 98.7855 76.9914 97.0857 77.4049C96.4963 77.5483 96.1345 78.1426 96.2779 78.7322C96.4 79.2345 96.8495 79.5714 97.3446 79.5714C97.4304 79.5714 97.5179 79.5612 97.6052 79.5401C100.293 78.8863 102.17 76.4978 102.17 73.7317V66.6754V63.2601C102.17 58.9423 100.075 55.1056 96.8487 52.7102L98.6839 49.526C99.6743 47.8078 99.2001 45.6411 97.581 44.4864C96.636 43.8124 95.618 43.196 94.5551 42.6544C94.0145 42.3791 93.3527 42.5938 93.0773 43.1345C92.802 43.6751 93.0168 44.3367 93.5574 44.6122C94.5239 45.1047 95.4483 45.6643 96.3051 46.2752C96.9984 46.7698 97.2026 47.6957 96.7802 48.4289L94.7578 51.9376H72.2443L70.2204 48.4289C69.7973 47.6956 70.0014 46.7695 70.695 46.2748C72.8304 44.752 77.3333 42.1973 83.4999 42.1973C85.4484 42.1973 87.3806 42.4511 89.2427 42.9517C89.8285 43.1091 90.4314 42.762 90.5889 42.176C90.7465 41.5901 90.3992 40.9873 89.8132 40.8298C87.7651 40.2792 85.6409 40 83.4999 40C76.7215 40 71.7684 42.8106 69.4192 44.4858C67.7994 45.641 67.3257 47.8081 68.3171 49.5268L70.1522 52.7081C66.925 55.1034 64.8296 58.9415 64.8296 63.2601V66.6754V73.7317C64.8296 76.4978 66.7066 78.8862 69.3943 79.5401Z" fill="black"/>
<path d="M80.4413 67.9902C80.4413 67.3834 79.9494 66.8915 79.3427 66.8915H78.4219C77.8151 66.8915 77.3232 67.3834 77.3232 67.9902C77.3232 68.5969 77.8151 69.0888 78.4219 69.0888H79.3427C79.9494 69.0888 80.4413 68.5969 80.4413 67.9902Z" fill="black"/>
<path d="M87.6572 69.0888H88.5779C89.1846 69.0888 89.6765 68.5969 89.6765 67.9902C89.6765 67.3834 89.1846 66.8915 88.5779 66.8915H87.6572C87.0505 66.8915 86.5586 67.3834 86.5586 67.9902C86.5586 68.5969 87.0505 69.0888 87.6572 69.0888Z" fill="black"/>
<path d="M83.5 49.9826C84.1068 49.9826 84.5987 49.4907 84.5987 48.8839V48.1659H85.3167C85.9235 48.1659 86.4154 47.674 86.4154 47.0672C86.4154 46.4605 85.9235 45.9686 85.3167 45.9686H84.5987V45.2505C84.5987 44.6438 84.1068 44.1519 83.5 44.1519C82.8933 44.1519 82.4014 44.6438 82.4014 45.2505V45.9686H81.6833C81.0766 45.9686 80.5847 46.4605 80.5847 47.0672C80.5847 47.674 81.0766 48.1659 81.6833 48.1659H82.4014V48.8839C82.4014 49.4907 82.8933 49.9826 83.5 49.9826Z" fill="black"/>
<path d="M84.5986 99.7844C84.5986 99.1777 84.1067 98.6858 83.5 98.6858C82.8933 98.6858 82.4014 99.1777 82.4014 99.7844V100.545C82.4014 101.152 82.8933 101.644 83.5 101.644C84.1067 101.644 84.5986 101.152 84.5986 100.545V99.7844Z" fill="black"/>
<path d="M84.5986 104.361C84.5986 103.754 84.1067 103.262 83.5 103.262C82.8933 103.262 82.4014 103.754 82.4014 104.361V105.122C82.4014 105.728 82.8933 106.22 83.5 106.22C84.1067 106.22 84.5986 105.728 84.5986 105.122V104.361Z" fill="black"/>
<path d="M83.5 108.061C82.8933 108.061 82.4014 108.553 82.4014 109.159V109.92C82.4014 110.527 82.8933 111.019 83.5 111.019C84.1067 111.019 84.5986 110.527 84.5986 109.92V109.159C84.5986 108.553 84.1067 108.061 83.5 108.061Z" fill="black"/>
<path d="M86.6105 76.6091L86.8793 76.4635C87.4129 76.1745 87.6111 75.5078 87.3221 74.9742C87.0331 74.4405 86.3663 74.2423 85.8328 74.5313L85.564 74.677C84.2716 75.3769 82.7283 75.3769 81.4356 74.677L81.1668 74.5313C80.633 74.2422 79.9665 74.4405 79.6775 74.9742C79.3885 75.5077 79.5867 76.1745 80.1203 76.4635L80.3891 76.6092C81.363 77.1366 82.4314 77.4002 83.4997 77.4002C84.5682 77.4002 85.6366 77.1366 86.6105 76.6091Z" fill="black"/>
</svg>
