<svg width="161" height="161" viewBox="0 0 161 161" fill="none" xmlns="http://www.w3.org/2000/svg">
<circle cx="79.8711" cy="81.1289" r="70.0664" stroke="#FFC444" stroke-width="2"/>
<circle cx="80.5" cy="80.5" r="80" stroke="#FFC444" stroke-opacity="0.5"/>
<circle cx="79.8711" cy="81.1289" r="62.2617" fill="#FFC444"/>
<path d="M105.488 112.241L104.012 103.692C103.909 103.094 103.341 102.692 102.742 102.796C102.144 102.899 101.743 103.467 101.847 104.066L103.322 112.615C103.416 113.159 103.266 113.714 102.91 114.137C102.554 114.56 102.033 114.803 101.48 114.803H96.8184L95.8067 109.451C95.6939 108.855 95.1191 108.463 94.523 108.576C93.9268 108.689 93.5348 109.263 93.6475 109.859L94.582 114.803H68.4176L69.3522 109.859C69.465 109.263 69.073 108.688 68.4766 108.576C67.8803 108.463 67.3058 108.855 67.193 109.451L66.1814 114.803H61.5201C60.9673 114.803 60.4459 114.56 60.0898 114.137C59.7337 113.714 59.5833 113.159 59.6775 112.614L62.3558 97.0993C62.6567 95.3569 63.8715 93.8873 65.5261 93.264L68.0786 92.3027L74.3174 100.957C74.7469 101.552 75.4121 101.938 76.1423 102.015C76.2324 102.024 76.3223 102.029 76.4118 102.029C77.0498 102.029 77.6704 101.792 78.1475 101.36L81.5 98.3204L84.8524 101.36C85.3294 101.793 85.95 102.029 86.5881 102.029C86.6777 102.029 86.7677 102.025 86.8576 102.015C87.5879 101.938 88.253 101.553 88.6825 100.957L94.9213 92.303L97.4738 93.2643C99.1285 93.8875 100.343 95.3572 100.644 97.0996L101.103 99.7586C101.206 100.357 101.775 100.758 102.373 100.654C102.971 100.551 103.372 99.9828 103.268 99.3848L102.809 96.7258C102.377 94.219 100.629 92.1048 98.2484 91.2081L87.2893 87.1164C86.9287 86.984 86.6864 86.6368 86.6864 86.2526V84.5893C91.0261 82.6539 94.0601 78.3016 94.0601 73.2511V67.0211H95.082C95.6887 67.0211 96.1806 66.5292 96.1806 65.9225C96.1806 65.3157 95.6887 64.8238 95.082 64.8238H87.8735C85.7937 64.8238 83.7702 64.0883 82.1757 62.753L78.3484 59.5473C77.8985 59.1706 77.3076 59.0037 76.7269 59.089C76.1464 59.1745 75.6287 59.5048 75.3068 59.9954L74.7648 60.8207C73.2248 63.1659 70.6333 64.6574 67.8325 64.8106C67.2267 64.8438 66.7625 65.3617 66.7956 65.9676C66.8287 66.5734 67.3477 67.039 67.9525 67.0045C68.2843 66.9864 68.6137 66.953 68.94 66.9054V73.2512C68.94 78.3016 71.9741 82.654 76.3137 84.5894V86.2527C76.3137 86.637 76.0714 86.9841 75.7108 87.1165L64.7517 91.2083C62.3712 92.1049 60.6233 94.2191 60.1906 96.7259L57.5123 112.241C57.3078 113.426 57.6346 114.633 58.4092 115.553C59.1838 116.472 60.3177 117 61.5201 117H101.48C102.682 117 103.816 116.472 104.591 115.553C105.365 114.633 105.692 113.426 105.488 112.241ZM76.6717 99.7321C76.5605 99.8328 76.4363 99.8368 76.3723 99.8298C76.3081 99.823 76.1876 99.7936 76.0998 99.6719L70.209 91.5005L72.0218 90.8178L79.5141 97.1548L76.6717 99.7321ZM86.9001 99.6719C86.8124 99.7937 86.6918 99.8232 86.6277 99.8299C86.5635 99.8368 86.4394 99.8328 86.3282 99.7322L83.4857 97.155L90.9779 90.8179L92.7908 91.5007L86.9001 99.6719ZM71.1372 73.2511V66.3481C73.3496 65.5384 75.2841 64.0331 76.6014 62.0267L77.0574 61.3322L80.7648 64.4374C82.7542 66.1035 85.2787 67.0211 87.8735 67.0211H91.8627V73.2511C91.8627 78.8825 87.2813 83.464 81.6498 83.464H81.35C75.7187 83.464 71.1372 78.8825 71.1372 73.2511ZM76.4684 89.1789C77.6902 88.7302 78.511 87.5541 78.511 86.2526V85.3297C79.4234 85.5442 80.3731 85.6612 81.35 85.6612H81.6498C82.6267 85.6612 83.5764 85.5442 84.4888 85.3297V86.2526C84.4888 87.5541 85.3097 88.7302 86.5314 89.1789L88.6103 89.9425L81.9541 95.5725C81.922 95.5996 81.888 95.6232 81.8528 95.6437C81.7462 95.7055 81.6245 95.7388 81.5 95.7388C81.3755 95.7388 81.2537 95.7055 81.1472 95.6438C81.1119 95.6233 81.0779 95.5996 81.0457 95.5725L74.3895 89.9425L76.4684 89.1789Z" fill="black"/>
<path d="M67.3943 81.5401C67.4816 81.5613 67.5689 81.5714 67.6549 81.5714C68.1499 81.5714 68.5993 81.2345 68.7216 80.7322C68.865 80.1426 68.5034 79.5483 67.9138 79.4049C66.214 78.9914 65.0269 77.4809 65.0269 75.7315V68.6752V65.26C65.0269 61.4514 66.9854 58.0937 69.9465 56.1347H93.053C96.0143 58.0935 97.9727 61.4514 97.9727 65.26V68.6752V75.7315C97.9727 77.4809 96.7855 78.9914 95.0857 79.4049C94.4963 79.5483 94.1345 80.1426 94.2779 80.7322C94.4 81.2345 94.8495 81.5714 95.3446 81.5714C95.4304 81.5714 95.5179 81.5612 95.6052 81.5401C98.2929 80.8863 100.17 78.4978 100.17 75.7317V68.6754V65.2601C100.17 60.9423 98.0749 57.1056 94.8487 54.7102L96.6839 51.526C97.6743 49.8078 97.2001 47.6411 95.581 46.4864C94.636 45.8124 93.618 45.196 92.5551 44.6544C92.0145 44.3791 91.3527 44.5938 91.0773 45.1345C90.802 45.6751 91.0168 46.3367 91.5574 46.6122C92.5239 47.1047 93.4483 47.6643 94.3051 48.2752C94.9984 48.7698 95.2026 49.6957 94.7802 50.4289L92.7578 53.9376H70.2443L68.2204 50.4289C67.7973 49.6956 68.0014 48.7695 68.695 48.2748C70.8304 46.752 75.3333 44.1973 81.4999 44.1973C83.4484 44.1973 85.3806 44.4511 87.2427 44.9517C87.8285 45.1091 88.4314 44.762 88.5889 44.176C88.7465 43.5901 88.3992 42.9873 87.8132 42.8298C85.7651 42.2792 83.6409 42 81.4999 42C74.7215 42 69.7684 44.8106 67.4192 46.4858C65.7994 47.641 65.3257 49.8081 66.3171 51.5268L68.1522 54.7081C64.925 57.1034 62.8296 60.9415 62.8296 65.2601V68.6754V75.7317C62.8296 78.4978 64.7066 80.8862 67.3943 81.5401Z" fill="black"/>
<path d="M78.4413 69.9901C78.4413 69.3834 77.9494 68.8915 77.3427 68.8915H76.4219C75.8151 68.8915 75.3232 69.3834 75.3232 69.9901C75.3232 70.5969 75.8151 71.0887 76.4219 71.0887H77.3427C77.9494 71.0887 78.4413 70.5969 78.4413 69.9901Z" fill="black"/>
<path d="M85.6572 71.0887H86.5779C87.1846 71.0887 87.6765 70.5969 87.6765 69.9901C87.6765 69.3834 87.1846 68.8915 86.5779 68.8915H85.6572C85.0505 68.8915 84.5586 69.3834 84.5586 69.9901C84.5586 70.5969 85.0505 71.0887 85.6572 71.0887Z" fill="black"/>
<path d="M81.5 51.9825C82.1068 51.9825 82.5987 51.4906 82.5987 50.8839V50.1658H83.3167C83.9235 50.1658 84.4154 49.6739 84.4154 49.0672C84.4154 48.4604 83.9235 47.9686 83.3167 47.9686H82.5987V47.2505C82.5987 46.6438 82.1068 46.1519 81.5 46.1519C80.8933 46.1519 80.4014 46.6438 80.4014 47.2505V47.9686H79.6833C79.0766 47.9686 78.5847 48.4604 78.5847 49.0672C78.5847 49.6739 79.0766 50.1658 79.6833 50.1658H80.4014V50.8839C80.4014 51.4906 80.8933 51.9825 81.5 51.9825Z" fill="black"/>
<path d="M82.5986 101.784C82.5986 101.178 82.1067 100.686 81.5 100.686C80.8933 100.686 80.4014 101.178 80.4014 101.784V102.545C80.4014 103.152 80.8933 103.644 81.5 103.644C82.1067 103.644 82.5986 103.152 82.5986 102.545V101.784Z" fill="black"/>
<path d="M82.5986 106.361C82.5986 105.754 82.1067 105.262 81.5 105.262C80.8933 105.262 80.4014 105.754 80.4014 106.361V107.122C80.4014 107.728 80.8933 108.22 81.5 108.22C82.1067 108.22 82.5986 107.728 82.5986 107.122V106.361Z" fill="black"/>
<path d="M81.5 110.061C80.8933 110.061 80.4014 110.553 80.4014 111.159V111.92C80.4014 112.527 80.8933 113.019 81.5 113.019C82.1067 113.019 82.5986 112.527 82.5986 111.92V111.159C82.5986 110.553 82.1067 110.061 81.5 110.061Z" fill="black"/>
<path d="M84.6105 78.6091L84.8793 78.4635C85.4129 78.1745 85.6111 77.5078 85.3221 76.9742C85.0331 76.4405 84.3663 76.2423 83.8328 76.5313L83.564 76.677C82.2716 77.3769 80.7283 77.3769 79.4356 76.677L79.1668 76.5313C78.633 76.2422 77.9665 76.4405 77.6775 76.9742C77.3885 77.5077 77.5867 78.1745 78.1203 78.4635L78.3891 78.6092C79.363 79.1366 80.4314 79.4002 81.4997 79.4002C82.5682 79.4002 83.6366 79.1366 84.6105 78.6091Z" fill="black"/>
<path d="M53.8102 81.6674L49.1975 77.7283C49.2028 77.7014 49.2082 77.6744 49.2136 77.6421V72.4905C49.2082 72.1834 48.9657 71.9355 48.6586 71.9247H46.0828C45.7864 71.9247 45.5439 72.1888 45.5439 72.4905V74.6245L41.8527 71.4775C41.6533 71.305 41.357 71.305 41.1522 71.4775L29.1947 81.662C28.963 81.8506 28.9361 82.1901 29.1247 82.4218C29.3133 82.6536 29.6528 82.6805 29.8845 82.4919C29.8899 82.4865 29.8899 82.4865 29.8953 82.4811L41.5024 72.5983L45.6571 76.1387L48.1413 78.251L53.115 82.4865C53.3413 82.6805 53.6808 82.6536 53.8748 82.4272C54.0634 82.2009 54.0365 81.8614 53.8102 81.6674ZM48.1305 76.8176L46.6217 75.5459V73.0079H48.1305V76.8176Z" fill="black"/>
<path d="M51.4338 82.7559L49.9196 81.4626L41.8528 74.5705C41.6534 74.3981 41.357 74.3981 41.1523 74.5705L33.0854 81.4626L31.5712 82.7559C31.3449 82.9499 31.318 83.2893 31.512 83.5157C31.7006 83.742 32.0347 83.7689 32.2556 83.5803L32.261 83.5749L32.9346 82.993V93.0967C32.94 93.3985 33.1878 93.6464 33.4896 93.6517H49.5101C49.8119 93.6464 50.0597 93.4039 50.0651 93.0967V82.993L50.7387 83.5749C50.8357 83.6558 50.9543 83.7043 51.0836 83.7043C51.2399 83.7043 51.3907 83.6342 51.4931 83.5157C51.6925 83.284 51.6602 82.9445 51.4338 82.7559ZM43.658 92.5686H39.3471V86.7489H43.658V92.5686ZM44.7357 92.5686V86.2262C44.7357 85.9298 44.5148 85.6711 44.2184 85.6711H38.7867C38.4903 85.6711 38.2693 85.9298 38.2693 86.2262V92.5686H34.0123V82.0715L41.5025 75.6913L48.9928 82.0715V92.5686H44.7357Z" fill="black"/>
<path d="M30 74L56 91" stroke="black" stroke-width="2"/>
</svg>
