<svg width="75" height="75" viewBox="0 0 75 75" fill="none" xmlns="http://www.w3.org/2000/svg">
<path d="M67.2812 13.986H62.7133V9.41895C62.7133 9.18585 62.6207 8.96229 62.4559 8.79746C62.2911 8.63264 62.0675 8.54004 61.8344 8.54004H57.1973C56.9642 8.54004 56.7407 8.63264 56.5758 8.79746C56.411 8.96229 56.3184 9.18585 56.3184 9.41895V13.986H51.7507C51.5176 13.986 51.2941 14.0786 51.1293 14.2435C50.9644 14.4083 50.8718 14.6318 50.8718 14.8649V19.502C50.8718 19.7352 50.9644 19.9587 51.1293 20.1235C51.2941 20.2884 51.5176 20.381 51.7507 20.381H56.3184V24.9486C56.3184 25.1817 56.411 25.4053 56.5758 25.5701C56.7407 25.7349 56.9642 25.8275 57.1973 25.8275H61.8344C62.0675 25.8275 62.2911 25.7349 62.4559 25.5701C62.6207 25.4053 62.7133 25.1817 62.7133 24.9486V20.381H67.2812C67.5142 20.381 67.7378 20.2884 67.9026 20.1235C68.0675 19.9587 68.1601 19.7352 68.1601 19.502V14.8649C68.1601 14.6318 68.0675 14.4083 67.9026 14.2435C67.7378 14.0786 67.5142 13.986 67.2812 13.986ZM66.4022 18.6231H61.8344C61.6013 18.6231 61.3778 18.7157 61.2129 18.8806C61.0481 19.0454 60.9555 19.2689 60.9555 19.502V24.0697H58.0762V19.502C58.0762 19.2689 57.9836 19.0454 57.8188 18.8806C57.654 18.7157 57.4304 18.6231 57.1973 18.6231H52.6296V15.7438H57.1973C57.4304 15.7438 57.654 15.6512 57.8188 15.4864C57.9836 15.3216 58.0762 15.098 58.0762 14.8649V10.2979H60.9555V14.8657C60.9555 15.0988 61.0481 15.3223 61.2129 15.4872C61.3778 15.652 61.6013 15.7446 61.8344 15.7446H66.4022V18.6231Z" fill="black"/>
<path d="M40.5097 44.1358C40.0093 44.3009 39.5371 44.5416 39.1093 44.8493C39.0156 44.9168 38.9362 45.002 38.8754 45.1002C38.8147 45.1984 38.7739 45.3076 38.7553 45.4215C38.7368 45.5355 38.7408 45.652 38.7673 45.7643C38.7938 45.8767 38.8421 45.9828 38.9096 46.0765C38.9771 46.1702 39.0623 46.2496 39.1605 46.3104C39.2587 46.3711 39.3679 46.4119 39.4818 46.4305C39.5958 46.449 39.7123 46.445 39.8246 46.4185C39.937 46.392 40.0431 46.3437 40.1368 46.2762C40.5718 45.9628 41.0745 45.7562 41.6042 45.6731C42.1338 45.5901 42.6756 45.633 43.1857 45.7983C43.6957 45.9637 44.1596 46.2468 44.5399 46.6247C44.9202 47.0027 45.2061 47.4649 45.3745 47.974C45.5372 48.461 45.5868 48.9787 45.5195 49.4877C45.4891 49.7189 45.5518 49.9526 45.6938 50.1376C45.8357 50.3225 46.0454 50.4435 46.2765 50.4739C46.5077 50.5042 46.7414 50.4415 46.9264 50.2996C47.1113 50.1576 47.2323 49.948 47.2627 49.7168C47.4013 48.6529 47.2058 47.5723 46.7033 46.6243C46.2007 45.6764 45.416 44.9081 44.4576 44.4258C44.3753 44.3845 44.2923 44.3454 44.2086 44.3086C43.9664 43.7407 43.8825 43.1177 43.9659 42.5059C44.0493 41.8941 44.2969 41.3163 44.6823 40.8339C44.7562 40.744 44.8115 40.6404 44.845 40.529C44.8785 40.4177 44.8895 40.3008 44.8775 40.1851C44.8655 40.0694 44.8307 39.9573 44.775 39.8552C44.7194 39.753 44.644 39.663 44.5533 39.5902C44.4625 39.5175 44.3583 39.4634 44.2465 39.4312C44.1348 39.399 44.0177 39.3894 43.9022 39.4027C43.7867 39.4161 43.675 39.4523 43.5735 39.5092C43.4721 39.566 43.3829 39.6425 43.3112 39.7341C42.8511 40.3093 42.5191 40.9761 42.3372 41.6898C42.1553 42.4036 42.1278 43.148 42.2566 43.8733C41.6635 43.8601 41.0727 43.9488 40.5097 44.1358Z" fill="#FFC444"/>
<path d="M53.1444 40.2026C53.225 40.2852 53.3212 40.3511 53.4273 40.3965C53.5334 40.4419 53.6474 40.466 53.7628 40.4674C53.8782 40.4687 53.9928 40.4474 54.0999 40.4044C54.2071 40.3615 54.3047 40.2979 54.3873 40.2173C54.7378 39.8742 55.0258 39.4727 55.2384 39.0308C55.3414 39.0925 55.4477 39.1501 55.5571 39.2036C55.7667 39.3057 56.0083 39.3203 56.2286 39.2443C56.449 39.1683 56.6302 39.0079 56.7322 38.7983C56.8343 38.5887 56.849 38.3472 56.773 38.1268C56.6969 37.9064 56.5365 37.7253 56.3269 37.6232C55.8184 37.3732 55.4113 36.956 55.174 36.4415C54.9366 35.927 54.8834 35.3466 55.0232 34.7975C55.0812 34.5717 55.0472 34.3321 54.9286 34.1315C54.8099 33.9308 54.6165 33.7855 54.3907 33.7274C54.1649 33.6694 53.9253 33.7035 53.7247 33.8221C53.524 33.9407 53.3786 34.1342 53.3206 34.36C53.178 34.9195 53.1515 35.5023 53.2427 36.0725C53.3339 36.6426 53.5409 37.1881 53.851 37.6752C53.7554 38.1635 53.5139 38.6113 53.1585 38.9594C53.0759 39.0401 53.01 39.1363 52.9646 39.2424C52.9192 39.3486 52.8952 39.4627 52.8939 39.5781C52.8925 39.6936 52.914 39.8081 52.957 39.9153C53 40.0224 53.0637 40.1201 53.1444 40.2026Z" fill="#FFC444"/>
<path d="M51.0978 57.8579C51.3025 57.1632 51.6784 56.531 52.1909 56.0194C52.3558 55.8547 52.4486 55.6312 52.4487 55.3981C52.4489 55.1649 52.3564 54.9413 52.1917 54.7764C52.027 54.6114 51.8035 54.5187 51.5704 54.5186C51.3373 54.5184 51.1137 54.6109 50.9487 54.7756C50.2982 55.4245 49.8031 56.2123 49.5006 57.0799C48.7974 57.4512 48.0055 57.6216 47.2118 57.5725C46.4181 57.5234 45.6533 57.2567 45.0012 56.8016C44.9067 56.7337 44.7997 56.6853 44.6864 56.6591C44.5731 56.6328 44.4557 56.6294 44.341 56.6489C44.2264 56.6684 44.1167 56.7104 44.0184 56.7726C43.9201 56.8348 43.8351 56.9158 43.7684 57.0111C43.7017 57.1064 43.6545 57.2139 43.6297 57.3276C43.6048 57.4412 43.6028 57.5586 43.6236 57.673C43.6445 57.7875 43.6879 57.8966 43.7512 57.9942C43.8146 58.0917 43.8967 58.1757 43.9928 58.2413C44.7425 58.7675 45.6022 59.116 46.5067 59.2603C47.3927 59.4041 48.2995 59.35 49.1621 59.1019C49.1681 60.5085 49.6597 61.8698 50.5537 62.9559C50.702 63.1357 50.9156 63.2493 51.1477 63.2716C51.3797 63.2939 51.6111 63.2231 51.791 63.0748C51.9709 62.9265 52.0844 62.7128 52.1067 62.4808C52.129 62.2487 52.0583 62.0173 51.91 61.8374C51.4714 61.3045 51.1663 60.6746 51.0202 60C50.874 59.3255 50.8909 58.6258 51.0696 57.9591C51.0811 57.926 51.0905 57.8922 51.0978 57.8579Z" fill="#FFC444"/>
<path d="M26.2839 44.8498C25.3685 44.1925 24.2646 43.8498 23.1379 43.8734C23.2667 43.1481 23.2392 42.4038 23.0574 41.69C22.8755 40.9762 22.5434 40.3095 22.0832 39.7343C22.0115 39.6427 21.9223 39.5663 21.8209 39.5094C21.7195 39.4525 21.6077 39.4164 21.4922 39.403C21.3767 39.3896 21.2596 39.3993 21.1479 39.4315C21.0361 39.4637 20.9319 39.5177 20.8412 39.5905C20.7504 39.6632 20.6751 39.7533 20.6194 39.8554C20.5637 39.9575 20.5289 40.0697 20.5169 40.1853C20.5049 40.301 20.5159 40.4179 20.5495 40.5293C20.583 40.6407 20.6382 40.7443 20.7121 40.8341C21.0976 41.3165 21.3452 41.8943 21.4287 42.5061C21.5121 43.1179 21.4281 43.7409 21.1858 44.3089C21.102 44.3456 21.019 44.3846 20.9368 44.4261C19.9784 44.9084 19.1937 45.6767 18.6912 46.6246C18.1886 47.5725 17.9931 48.6532 18.1318 49.7171C18.1621 49.9482 18.2831 50.1578 18.468 50.2998C18.653 50.4418 18.8867 50.5045 19.1179 50.4741C19.349 50.4437 19.5587 50.3228 19.7006 50.1378C19.8426 49.9529 19.9053 49.7191 19.8749 49.488C19.8005 48.9153 19.8725 48.3331 20.0843 47.7958C20.296 47.2585 20.6406 46.7838 21.0858 46.4159C21.5309 46.048 22.0621 45.7991 22.6297 45.6924C23.1972 45.5856 23.7826 45.6246 24.331 45.8056C24.6615 45.9147 24.9735 46.0735 25.2562 46.2767C25.3497 46.3456 25.456 46.3952 25.5689 46.4227C25.6817 46.4502 25.7989 46.455 25.9136 46.4369C26.0284 46.4189 26.1384 46.3783 26.2373 46.3174C26.3363 46.2566 26.4222 46.1767 26.4901 46.0825C26.558 45.9882 26.6065 45.8815 26.6329 45.7684C26.6593 45.6552 26.663 45.538 26.6438 45.4235C26.6246 45.3089 26.5829 45.1993 26.521 45.101C26.4592 45.0026 26.3785 44.9175 26.2836 44.8506L26.2839 44.8498Z" fill="#FFC444"/>
<path d="M11.5412 37.6758C11.8513 37.1887 12.0584 36.6433 12.1496 36.0731C12.2408 35.503 12.2143 34.9202 12.0717 34.3607C12.0136 34.1349 11.8683 33.9414 11.6676 33.8228C11.4669 33.7042 11.2274 33.6701 11.0016 33.7282C10.7758 33.7862 10.5823 33.9315 10.4637 34.1322C10.3451 34.3329 10.311 34.5725 10.3691 34.7982C10.5089 35.3473 10.4557 35.9278 10.2184 36.4423C9.98098 36.9568 9.57388 37.374 9.06536 37.6239C8.96159 37.6745 8.86879 37.745 8.79226 37.8314C8.71573 37.9178 8.65697 38.0184 8.61933 38.1275C8.58169 38.2366 8.56592 38.3521 8.5729 38.4673C8.57988 38.5825 8.60949 38.6952 8.66004 38.799C8.71058 38.9028 8.78107 38.9956 8.86748 39.0721C8.95389 39.1487 9.05452 39.2074 9.16364 39.245C9.27276 39.2827 9.38822 39.2985 9.50344 39.2915C9.61865 39.2845 9.73136 39.2549 9.83514 39.2043C9.94451 39.151 10.0507 39.0934 10.1537 39.0315C10.3663 39.4735 10.6543 39.875 11.0048 40.218C11.1715 40.381 11.3961 40.471 11.6292 40.4683C11.7446 40.467 11.8587 40.443 11.9648 40.3976C12.0709 40.3522 12.1671 40.2864 12.2477 40.2038C12.3284 40.1213 12.392 40.0236 12.435 39.9165C12.4779 39.8094 12.4994 39.6948 12.498 39.5794C12.4967 39.464 12.4727 39.35 12.4273 39.2438C12.3819 39.1377 12.3161 39.0416 12.2335 38.9609C11.878 38.6125 11.6366 38.1644 11.5412 37.6758Z" fill="#FFC444"/>
<path d="M17.373 28.2181C17.7768 28.1149 18.2002 28.1159 18.6036 28.221C19.0069 28.3261 19.377 28.5318 19.6791 28.8189C19.9813 29.1059 20.2057 29.465 20.3313 29.8624C20.4569 30.2598 20.4796 30.6826 20.3973 31.0912C20.3478 31.3375 20.2611 31.5749 20.1401 31.7951C20.0836 31.8962 20.0477 32.0075 20.0345 32.1225C20.0212 32.2376 20.0308 32.3541 20.0627 32.4655C20.0946 32.5768 20.1482 32.6808 20.2204 32.7713C20.2926 32.8619 20.382 32.9373 20.4834 32.9932C20.5848 33.049 20.6963 33.0843 20.8115 33.097C20.9266 33.1097 21.0431 33.0995 21.1542 33.0669C21.2654 33.0344 21.369 32.9803 21.4592 32.9076C21.5494 32.8349 21.6243 32.7451 21.6796 32.6433C22.0846 31.9061 22.2615 31.0653 22.1881 30.2274H22.1917C22.7538 30.2274 23.3102 30.1152 23.8283 29.8975C24.3465 29.6798 24.816 29.3608 25.2093 28.9594C25.3702 28.7923 25.4586 28.5684 25.4551 28.3365C25.4516 28.1045 25.3565 27.8834 25.1906 27.7212C25.0248 27.559 24.8015 27.469 24.5695 27.4708C24.3376 27.4726 24.1157 27.566 23.9523 27.7307C23.649 28.0402 23.2693 28.264 22.8516 28.3794C22.434 28.4949 21.9932 28.498 21.574 28.3883C21.5493 28.3483 21.5249 28.3081 21.4987 28.2686C21.0138 27.5394 20.3143 26.979 19.4969 26.6648C18.6794 26.3507 17.7846 26.2985 16.9362 26.5153C16.8244 26.544 16.7193 26.5945 16.627 26.6638C16.5347 26.7331 16.457 26.8199 16.3983 26.9192C16.2796 27.1199 16.2455 27.3595 16.3035 27.5852C16.3615 27.811 16.5068 28.0045 16.7074 28.1232C16.9081 28.2418 17.1477 28.2759 17.3734 28.2179L17.373 28.2181Z" fill="#FFC444"/>
<path d="M20.3919 56.8021C19.7398 57.2573 18.975 57.524 18.1813 57.5731C17.3876 57.6222 16.5957 57.4517 15.8925 57.0804C15.5899 56.2129 15.0949 55.4252 14.4445 54.7762C14.3628 54.6947 14.2659 54.63 14.1592 54.5859C14.0525 54.5418 13.9382 54.5191 13.8228 54.5192C13.7074 54.5192 13.5931 54.542 13.4865 54.5863C13.3799 54.6305 13.283 54.6953 13.2014 54.777C13.1198 54.8586 13.0552 54.9556 13.011 55.0623C12.9669 55.1689 12.9443 55.2832 12.9443 55.3987C12.9444 55.5141 12.9672 55.6284 13.0114 55.735C13.0557 55.8416 13.1205 55.9385 13.2021 56.02C13.7148 56.5317 14.0907 57.164 14.2952 57.8589C14.303 57.8931 14.3128 57.9269 14.3245 57.9601C14.5032 58.6268 14.5201 59.3265 14.374 60.0011C14.2279 60.6756 13.9228 61.3056 13.4843 61.8385C13.4108 61.9276 13.3557 62.0303 13.3219 62.1406C13.2881 62.251 13.2764 62.367 13.2875 62.4819C13.2985 62.5968 13.3321 62.7084 13.3863 62.8103C13.4404 62.9122 13.5142 63.0025 13.6032 63.0759C13.6923 63.1493 13.7949 63.2045 13.9053 63.2383C14.0157 63.272 14.1316 63.2837 14.2465 63.2727C14.3614 63.2616 14.473 63.2281 14.575 63.1739C14.6769 63.1197 14.7671 63.046 14.8406 62.957C15.7342 61.8709 16.2254 60.5096 16.2313 59.1031C17.1027 59.3534 18.0189 59.406 18.9132 59.2571C19.8075 59.1082 20.6573 58.7615 21.4006 58.2424C21.4966 58.1768 21.5787 58.0928 21.6421 57.9953C21.7055 57.8977 21.7488 57.7886 21.7697 57.6742C21.7906 57.5597 21.7885 57.4423 21.7637 57.3287C21.7388 57.215 21.6917 57.1075 21.6249 57.0122C21.5582 56.9169 21.4732 56.8359 21.3749 56.7737C21.2767 56.7115 21.167 56.6695 21.0523 56.65C20.9377 56.6305 20.8203 56.6339 20.7069 56.6602C20.5936 56.6864 20.4866 56.7348 20.3922 56.8027L20.3919 56.8021Z" fill="#FFC444"/>
<path d="M24.7032 13.1362C23.7476 13.1352 22.8037 13.3474 21.9405 13.7574C21.0773 14.1673 20.3164 14.7648 19.7134 15.5062C19.1104 16.2475 18.6804 17.1141 18.4548 18.0427C18.2292 18.9713 18.2137 19.9386 18.4093 20.874C16.726 20.3683 14.9374 20.3266 13.2323 20.7531C11.5271 21.1796 9.96882 22.0586 8.72179 23.2972C7.47475 24.5359 6.58527 26.0882 6.14724 27.7904C5.70921 29.4926 5.73888 31.2814 6.23312 32.9682C5.83977 33.1387 5.46232 33.3438 5.10519 33.5811C4.17818 34.1975 3.40601 35.0196 2.84884 35.9833C2.29167 36.9471 1.96454 38.0265 1.89295 39.1374C1.82136 40.2484 2.00723 41.3608 2.43609 42.3881C2.86495 43.4155 3.52522 44.3299 4.36544 45.0602C3.01826 46.1461 1.98422 47.5709 1.36939 49.1883C0.754561 50.8058 0.581084 52.5577 0.866753 54.2643C1.15242 55.9709 1.88695 57.5708 2.99499 58.8999C4.10304 60.2289 5.5447 61.2393 7.17208 61.8273V64.4176C7.17125 65.7478 7.52253 67.0544 8.19024 68.2048C8.85795 69.3553 9.81829 70.3084 10.9737 70.9675C12.1291 71.6266 13.4383 71.968 14.7684 71.9572C16.0985 71.9464 17.4021 71.5837 18.5466 70.906C19.6294 71.8823 20.9721 72.5236 22.412 72.7524C23.852 72.9811 25.3273 72.7874 26.6594 72.1947C27.9914 71.602 29.1231 70.6358 29.9172 69.4131C30.7113 68.1903 31.1338 66.7636 31.1336 65.3056V19.566C31.1316 17.8612 30.4535 16.2268 29.248 15.0214C28.0424 13.816 26.408 13.138 24.7032 13.1362ZM29.3752 65.3058C29.3754 66.3961 29.0673 67.4643 28.4864 68.3871C27.9056 69.3098 27.0756 70.0495 26.0923 70.5207C25.109 70.992 24.0125 71.1755 22.9294 71.0502C21.8462 70.9249 20.8206 70.4959 19.9709 69.8126C20.6926 69.1118 21.2664 68.2731 21.658 67.3464C22.0497 66.4197 22.2513 65.4238 22.2509 64.4178C22.2509 64.1847 22.1583 63.9611 21.9935 63.7963C21.8286 63.6315 21.6051 63.5389 21.372 63.5389C21.1389 63.5389 20.9153 63.6315 20.7505 63.7963C20.5857 63.9611 20.4931 64.1847 20.4931 64.4178C20.4931 65.9513 19.8839 67.422 18.7995 68.5064C17.7151 69.5908 16.2444 70.1999 14.7109 70.1999C13.1774 70.1999 11.7067 69.5908 10.6223 68.5064C9.53791 67.422 8.92872 65.9513 8.92872 64.4178V62.2833C9.44563 62.3674 9.96845 62.4098 10.4921 62.4102C10.7252 62.4102 10.9488 62.3176 11.1136 62.1528C11.2785 61.9879 11.3711 61.7644 11.3711 61.5313C11.3711 61.2982 11.2785 61.0746 11.1136 60.9098C10.9488 60.745 10.7252 60.6524 10.4921 60.6524C8.37564 60.6433 6.34891 59.7962 4.85551 58.2964C3.3621 56.7966 2.52365 54.7663 2.52365 52.6497C2.52365 50.5332 3.3621 48.5029 4.85551 47.0031C6.34891 45.5033 8.37564 44.6561 10.4921 44.6471C10.7252 44.6471 10.9488 44.5545 11.1136 44.3896C11.2785 44.2248 11.3711 44.0013 11.3711 43.7682C11.3711 43.5351 11.2785 43.3115 11.1136 43.1467C10.9488 42.9819 10.7252 42.8893 10.4921 42.8893C8.89111 42.8877 7.31457 43.2825 5.90323 44.0384C5.18619 43.521 4.60525 42.8375 4.21016 42.0465C3.81507 41.2554 3.6176 40.3804 3.63468 39.4963C3.65176 38.6122 3.88287 37.7455 4.30822 36.9703C4.73356 36.1951 5.34047 35.5345 6.07696 35.0452C6.33107 34.8771 6.59869 34.7304 6.87706 34.6066C6.96188 34.7753 7.05094 34.9422 7.14586 35.1061C7.20272 35.2078 7.27923 35.2972 7.37095 35.369C7.46267 35.4409 7.56776 35.4938 7.68011 35.5247C7.79246 35.5556 7.90983 35.5638 8.02539 35.5489C8.14095 35.534 8.2524 35.4963 8.35324 35.4379C8.45409 35.3795 8.54233 35.3017 8.61282 35.2089C8.68331 35.1162 8.73465 35.0103 8.76386 34.8975C8.79306 34.7847 8.79955 34.6672 8.78294 34.5519C8.76633 34.4366 8.72695 34.3257 8.6671 34.2257C7.74837 32.6335 7.40572 30.7735 7.69673 28.9584C7.98775 27.1433 8.8947 25.4837 10.2652 24.2584C11.6356 23.0332 13.386 22.3171 15.2223 22.2304C17.0585 22.1437 18.8687 22.6917 20.3485 23.7823C20.4412 23.8523 20.5469 23.9033 20.6595 23.9322C20.772 23.9611 20.8892 23.9674 21.0042 23.9507C21.1192 23.934 21.2298 23.8947 21.3295 23.8351C21.4292 23.7754 21.5161 23.6965 21.5851 23.6031C21.6542 23.5096 21.704 23.4034 21.7317 23.2905C21.7594 23.1777 21.7645 23.0604 21.7466 22.9456C21.7287 22.8308 21.6882 22.7206 21.6275 22.6216C21.5668 22.5225 21.487 22.4365 21.3928 22.3684C21.1463 22.1863 20.8922 22.0183 20.6328 21.8616C20.2813 21.239 20.0772 20.5441 20.0365 19.8303C19.9957 19.1165 20.1193 18.4028 20.3977 17.7443C20.6761 17.0857 21.1019 16.4999 21.6423 16.0318C22.1827 15.5637 22.8234 15.2258 23.5149 15.0442C24.2064 14.8626 24.9304 14.8421 25.6311 14.9843C26.3317 15.1265 26.9905 15.4276 27.5565 15.8644C28.1225 16.3012 28.5808 16.8621 28.896 17.5038C29.2112 18.1455 29.3749 18.851 29.3746 19.566L29.3752 65.3058Z" fill="#FFC444"/>
<path d="M59.0905 2.15405C55.6093 2.15868 52.2352 3.35786 49.5319 5.55121C46.8287 7.74457 44.96 10.7992 44.2383 14.2047C43.2694 13.5633 42.1449 13.1964 40.9841 13.1431C39.8234 13.0898 38.6699 13.3521 37.6464 13.9021C36.6228 14.4521 35.7675 15.2692 35.1713 16.2665C34.5751 17.2638 34.2603 18.4041 34.2605 19.5661V31.033C34.2605 31.2661 34.3531 31.4897 34.5179 31.6545C34.6828 31.8193 34.9063 31.9119 35.1394 31.9119C35.3725 31.9119 35.5961 31.8193 35.7609 31.6545C35.9257 31.4897 36.0183 31.2661 36.0183 31.033V19.6617C36.0183 17.1795 37.9168 15.0609 40.3939 14.9035C41.0469 14.8624 41.7012 14.9588 42.3145 15.1866C42.9277 15.4144 43.4864 15.7683 43.9542 16.2256C43.9279 16.5909 43.9144 16.9594 43.9138 17.3313C43.9102 20.606 44.9714 23.7931 46.9373 26.412C46.8171 26.4258 46.697 26.4431 46.5771 26.4674C46.0333 26.5755 45.5164 26.7904 45.0562 27.0997C44.5961 27.409 44.2019 27.8065 43.8964 28.2691C43.8702 28.3087 43.8457 28.3488 43.8209 28.3888C43.4018 28.4985 42.961 28.4954 42.5434 28.3799C42.1258 28.2645 41.7461 28.0407 41.4428 27.7312C41.2794 27.5666 41.0575 27.4732 40.8256 27.4714C40.5936 27.4696 40.3703 27.5596 40.2045 27.7218C40.0386 27.8839 39.9435 28.1051 39.94 28.337C39.9365 28.569 40.0249 28.7929 40.1858 28.96C40.5792 29.3614 41.0487 29.6803 41.5668 29.898C42.085 30.1157 42.6413 30.2279 43.2034 30.2279H43.207C43.1336 31.0658 43.3106 31.9067 43.7155 32.6439C43.8287 32.8467 44.0176 32.9965 44.2408 33.0605C44.4641 33.1245 44.7037 33.0975 44.9071 32.9854C45.1105 32.8733 45.2613 32.6852 45.3265 32.4623C45.3917 32.2393 45.366 31.9996 45.255 31.7956C45.0683 31.4569 44.9639 31.0789 44.9504 30.6923C44.9369 30.3057 45.0146 29.9214 45.1772 29.5704C45.3398 29.2195 45.5827 28.9117 45.8864 28.6721C46.19 28.4324 46.5458 28.2676 46.925 28.1911C47.2879 28.1167 47.663 28.1261 48.0217 28.2186C48.1833 28.2603 48.3534 28.2547 48.512 28.2025C50.9451 30.5784 54.1075 32.0656 57.4893 32.4245C57.3103 33.0542 57.054 33.6594 56.7264 34.2262C56.6674 34.3262 56.6287 34.4368 56.6127 34.5518C56.5967 34.6667 56.6036 34.7837 56.6331 34.896C56.6625 35.0082 56.7139 35.1136 56.7843 35.2059C56.8546 35.2982 56.9426 35.3756 57.043 35.4338C57.1435 35.4919 57.2545 35.5295 57.3695 35.5445C57.4846 35.5596 57.6016 35.5516 57.7136 35.5212C57.8256 35.4908 57.9304 35.4385 58.0221 35.3673C58.1138 35.2962 58.1905 35.2076 58.2478 35.1066C58.3428 34.9424 58.4309 34.7752 58.5158 34.6068C58.7945 34.7308 59.0623 34.8778 59.3166 35.0462C60.0531 35.5356 60.66 36.1962 61.0853 36.9714C61.5106 37.7466 61.7417 38.6134 61.7587 39.4974C61.7758 40.3815 61.5783 41.2565 61.1833 42.0475C60.7882 42.8386 60.2073 43.5221 59.4902 44.0395C58.0789 43.2835 56.5024 42.8887 54.9013 42.8903C54.6682 42.8903 54.4447 42.9829 54.2798 43.1478C54.115 43.3126 54.0224 43.5361 54.0224 43.7692C54.0224 44.0023 54.115 44.2259 54.2798 44.3907C54.4447 44.5555 54.6682 44.6481 54.9013 44.6481C57.0178 44.6572 59.0446 45.5043 60.538 47.0041C62.0314 48.5039 62.8698 50.5343 62.8698 52.6508C62.8698 54.7673 62.0314 56.7977 60.538 58.2975C59.0446 59.7973 57.0178 60.6444 54.9013 60.6535C54.6682 60.6535 54.4447 60.7461 54.2798 60.9109C54.115 61.0757 54.0224 61.2993 54.0224 61.5324C54.0224 61.7655 54.115 61.989 54.2798 62.1539C54.4447 62.3187 54.6682 62.4113 54.9013 62.4113C55.4251 62.4109 55.9479 62.3685 56.4649 62.2844V64.4188C56.4572 65.9474 55.8446 67.4106 54.7611 68.4887C53.6775 69.5668 52.2112 70.1721 50.6826 70.1721C49.1541 70.1721 47.6878 69.5668 46.6042 68.4887C45.5207 67.4106 44.9081 65.9474 44.9004 64.4188C44.9004 64.1857 44.8078 63.9622 44.643 63.7974C44.4781 63.6325 44.2546 63.5399 44.0215 63.5399C43.7884 63.5399 43.5648 63.6325 43.4 63.7974C43.2352 63.9622 43.1426 64.1857 43.1426 64.4188C43.1422 65.4248 43.3438 66.4207 43.7354 67.3473C44.127 68.2739 44.7007 69.1126 45.4223 69.8134C44.5726 70.4966 43.5471 70.9256 42.4641 71.0508C41.381 71.1761 40.2846 70.9925 39.3015 70.5213C38.3183 70.0501 37.4884 69.3105 36.9076 68.3879C36.3267 67.4652 36.0187 66.3971 36.0189 65.3068V37.1854C36.0189 36.9523 35.9263 36.7287 35.7615 36.5639C35.5966 36.399 35.3731 36.3064 35.14 36.3064C34.9069 36.3064 34.6833 36.399 34.5185 36.5639C34.3537 36.7287 34.2611 36.9523 34.2611 37.1854V65.3058C34.2608 66.7638 34.6834 68.1905 35.4775 69.4133C36.2716 70.636 37.4032 71.6022 38.7353 72.1949C40.0673 72.7876 41.5427 72.9813 42.9826 72.7526C44.4225 72.5238 45.7652 71.8825 46.848 70.9062C47.9926 71.5839 49.2961 71.9466 50.6262 71.9574C51.9563 71.9682 53.2656 71.6267 54.421 70.9677C55.5764 70.3086 56.5367 69.3554 57.2045 68.205C57.8722 67.0546 58.2235 65.748 58.2227 64.4178V61.8275C59.8501 61.2395 61.2917 60.2291 62.3997 58.9C63.5077 57.571 64.2422 55.9711 64.5279 54.2645C64.8135 52.5579 64.6401 50.806 64.0253 49.1885C63.4105 47.5711 62.3765 46.1463 61.0293 45.0604C61.952 44.259 62.6564 43.2368 63.0767 42.0893C63.4971 40.9419 63.6198 39.7066 63.4332 38.4988C63.2467 37.2911 62.757 36.1504 62.01 35.1833C61.2629 34.2161 60.2829 33.4541 59.1615 32.9685C59.2055 32.8156 59.2466 32.6609 59.2843 32.5059C63.2892 32.4504 67.1099 30.814 69.9134 27.9533C72.7168 25.0927 74.2758 21.2397 74.2503 17.2345C74.2249 13.2292 72.6172 9.39636 69.7776 6.57153C66.938 3.7467 63.0969 2.15893 59.0915 2.15435L59.0905 2.15405ZM59.0905 30.7506C56.4363 30.7506 53.8418 29.9636 51.635 28.4891C49.4281 27.0145 47.7081 24.9187 46.6924 22.4666C45.6767 20.0145 45.411 17.3163 45.9287 14.7132C46.4465 12.1101 47.7246 9.71893 49.6014 7.84218C51.4781 5.96543 53.8692 4.68735 56.4724 4.16956C59.0755 3.65178 61.7737 3.91754 64.2258 4.93324C66.6779 5.94894 68.7737 7.66897 70.2482 9.8758C71.7228 12.0826 72.5098 14.6772 72.5098 17.3313C72.5057 20.8891 71.0906 24.3 68.5749 26.8157C66.0592 29.3314 62.6483 30.7466 59.0905 30.7506Z" fill="#FFC444"/>
</svg>
