<svg width="13" height="19" viewBox="0 0 13 19" fill="none" xmlns="http://www.w3.org/2000/svg">
<path d="M11.7782 10.2414L3.32297 18.6965C3.12741 18.8922 2.86635 19 2.588 19C2.30964 19 2.04859 18.8922 1.85303 18.6965L1.23036 18.074C0.825182 17.6683 0.825182 17.009 1.23036 16.604L8.33043 9.50394L1.22248 2.39599C1.02692 2.20028 0.918945 1.93937 0.918945 1.66117C0.918945 1.38266 1.02692 1.12176 1.22248 0.925894L1.84515 0.303534C2.04086 0.107819 2.30176 0 2.58012 0C2.85847 0 3.11953 0.107819 3.31509 0.303534L11.7782 8.76634C11.9742 8.96268 12.0819 9.22481 12.0813 9.50348C12.0819 9.78322 11.9742 10.0452 11.7782 10.2414Z" fill="#6165D7"/>
</svg>
