<svg width="161" height="161" viewBox="0 0 161 161" fill="none" xmlns="http://www.w3.org/2000/svg">
<circle cx="79.8711" cy="81.1289" r="70.0664" stroke="#FFC444" stroke-width="2"/>
<circle cx="80.5" cy="80.5" r="80" stroke="#FFC444" stroke-opacity="0.5"/>
<circle cx="79.8711" cy="81.1289" r="62.2617" fill="#FFC444"/>
<path d="M107.488 109.241L106.012 100.692C105.909 100.094 105.341 99.6922 104.742 99.7959C104.144 99.8992 103.743 100.467 103.847 101.066L105.322 109.615C105.416 110.159 105.266 110.714 104.91 111.137C104.554 111.56 104.033 111.803 103.48 111.803H98.8184L97.8067 106.451C97.6939 105.855 97.1191 105.463 96.523 105.576C95.9268 105.689 95.5348 106.263 95.6475 106.859L96.582 111.803H70.4176L71.3522 106.859C71.465 106.263 71.073 105.688 70.4766 105.576C69.8803 105.463 69.3058 105.855 69.193 106.451L68.1814 111.803H63.5201C62.9673 111.803 62.4459 111.56 62.0898 111.137C61.7337 110.714 61.5833 110.159 61.6775 109.614L64.3558 94.0993C64.6567 92.3569 65.8715 90.8873 67.5261 90.264L70.0786 89.3027L76.3174 97.9567C76.7469 98.5523 77.4121 98.938 78.1423 99.0149C78.2324 99.0243 78.3223 99.0291 78.4118 99.0291C79.0498 99.0291 79.6704 98.7922 80.1475 98.3597L83.5 95.3204L86.8524 98.3599C87.3294 98.7925 87.95 99.0294 88.5881 99.0294C88.6777 99.0294 88.7677 99.0247 88.8576 99.0152C89.5879 98.9383 90.253 98.5526 90.6825 97.9568L96.9213 89.303L99.4738 90.2643C101.128 90.8875 102.343 92.3572 102.644 94.0996L103.103 96.7586C103.206 97.3565 103.775 97.7579 104.373 97.6543C104.971 97.5511 105.372 96.9828 105.268 96.3848L104.809 93.7258C104.377 91.219 102.629 89.1048 100.248 88.2081L89.2893 84.1164C88.9287 83.984 88.6864 83.6368 88.6864 83.2526V81.5893C93.0261 79.6539 96.0601 75.3016 96.0601 70.2511V64.0211H97.082C97.6887 64.0211 98.1806 63.5292 98.1806 62.9225C98.1806 62.3157 97.6887 61.8238 97.082 61.8238H89.8735C87.7937 61.8238 85.7702 61.0883 84.1757 59.753L80.3484 56.5473C79.8985 56.1706 79.3076 56.0037 78.7269 56.089C78.1464 56.1745 77.6287 56.5048 77.3068 56.9954L76.7648 57.8207C75.2248 60.1659 72.6333 61.6574 69.8325 61.8106C69.2267 61.8438 68.7625 62.3617 68.7956 62.9676C68.8287 63.5734 69.3477 64.039 69.9525 64.0045C70.2843 63.9864 70.6137 63.953 70.94 63.9054V70.2512C70.94 75.3016 73.9741 79.654 78.3137 81.5894V83.2527C78.3137 83.637 78.0714 83.9841 77.7108 84.1165L66.7517 88.2083C64.3712 89.1049 62.6233 91.2191 62.1906 93.7259L59.5123 109.241C59.3078 110.426 59.6346 111.633 60.4092 112.553C61.1838 113.472 62.3177 114 63.5201 114H103.48C104.682 114 105.816 113.472 106.591 112.553C107.365 111.633 107.692 110.426 107.488 109.241ZM78.6717 96.7321C78.5605 96.8328 78.4363 96.8368 78.3723 96.8298C78.3081 96.823 78.1876 96.7936 78.0998 96.6719L72.209 88.5005L74.0218 87.8178L81.5141 94.1548L78.6717 96.7321ZM88.9001 96.6719C88.8124 96.7937 88.6918 96.8232 88.6277 96.8299C88.5635 96.8368 88.4394 96.8328 88.3282 96.7322L85.4857 94.155L92.9779 87.8179L94.7908 88.5007L88.9001 96.6719ZM73.1372 70.2511V63.3481C75.3496 62.5384 77.2841 61.0331 78.6014 59.0267L79.0574 58.3322L82.7648 61.4374C84.7542 63.1035 87.2787 64.0211 89.8735 64.0211H93.8627V70.2511C93.8627 75.8825 89.2813 80.464 83.6498 80.464H83.35C77.7187 80.464 73.1372 75.8825 73.1372 70.2511ZM78.4684 86.1789C79.6902 85.7302 80.511 84.5541 80.511 83.2526V82.3297C81.4234 82.5442 82.3731 82.6612 83.35 82.6612H83.6498C84.6267 82.6612 85.5764 82.5442 86.4888 82.3297V83.2526C86.4888 84.5541 87.3097 85.7302 88.5314 86.1789L90.6103 86.9425L83.9541 92.5725C83.922 92.5996 83.888 92.6232 83.8528 92.6437C83.7462 92.7055 83.6245 92.7388 83.5 92.7388C83.3755 92.7388 83.2537 92.7055 83.1472 92.6438C83.1119 92.6233 83.0779 92.5996 83.0457 92.5725L76.3895 86.9425L78.4684 86.1789Z" fill="black"/>
<path d="M69.3943 78.5401C69.4816 78.5613 69.5689 78.5714 69.6549 78.5714C70.1499 78.5714 70.5993 78.2345 70.7216 77.7322C70.865 77.1426 70.5034 76.5483 69.9138 76.4049C68.214 75.9914 67.0269 74.4809 67.0269 72.7315V65.6752V62.26C67.0269 58.4514 68.9854 55.0937 71.9465 53.1347H95.053C98.0143 55.0935 99.9727 58.4514 99.9727 62.26V65.6752V72.7315C99.9727 74.4809 98.7855 75.9914 97.0857 76.4049C96.4963 76.5483 96.1345 77.1426 96.2779 77.7322C96.4 78.2345 96.8495 78.5714 97.3446 78.5714C97.4304 78.5714 97.5179 78.5612 97.6052 78.5401C100.293 77.8863 102.17 75.4978 102.17 72.7317V65.6754V62.2601C102.17 57.9423 100.075 54.1056 96.8487 51.7102L98.6839 48.526C99.6743 46.8078 99.2001 44.6411 97.581 43.4864C96.636 42.8124 95.618 42.196 94.5551 41.6544C94.0145 41.3791 93.3527 41.5938 93.0773 42.1345C92.802 42.6751 93.0168 43.3367 93.5574 43.6122C94.5239 44.1047 95.4483 44.6643 96.3051 45.2752C96.9984 45.7698 97.2026 46.6957 96.7802 47.4289L94.7578 50.9376H72.2443L70.2204 47.4289C69.7973 46.6956 70.0014 45.7695 70.695 45.2748C72.8304 43.752 77.3333 41.1973 83.4999 41.1973C85.4484 41.1973 87.3806 41.4511 89.2427 41.9517C89.8285 42.1091 90.4314 41.762 90.5889 41.176C90.7465 40.5901 90.3992 39.9873 89.8132 39.8298C87.7651 39.2792 85.6409 39 83.4999 39C76.7215 39 71.7684 41.8106 69.4192 43.4858C67.7994 44.641 67.3257 46.8081 68.3171 48.5268L70.1522 51.7081C66.925 54.1034 64.8296 57.9415 64.8296 62.2601V65.6754V72.7317C64.8296 75.4978 66.7066 77.8862 69.3943 78.5401Z" fill="black"/>
<path d="M80.4413 66.9901C80.4413 66.3834 79.9494 65.8915 79.3427 65.8915H78.4219C77.8151 65.8915 77.3232 66.3834 77.3232 66.9901C77.3232 67.5969 77.8151 68.0887 78.4219 68.0887H79.3427C79.9494 68.0887 80.4413 67.5969 80.4413 66.9901Z" fill="black"/>
<path d="M87.6572 68.0887H88.5779C89.1846 68.0887 89.6765 67.5969 89.6765 66.9901C89.6765 66.3834 89.1846 65.8915 88.5779 65.8915H87.6572C87.0505 65.8915 86.5586 66.3834 86.5586 66.9901C86.5586 67.5969 87.0505 68.0887 87.6572 68.0887Z" fill="black"/>
<path d="M83.5 48.9825C84.1068 48.9825 84.5987 48.4906 84.5987 47.8839V47.1658H85.3167C85.9235 47.1658 86.4154 46.6739 86.4154 46.0672C86.4154 45.4604 85.9235 44.9686 85.3167 44.9686H84.5987V44.2505C84.5987 43.6438 84.1068 43.1519 83.5 43.1519C82.8933 43.1519 82.4014 43.6438 82.4014 44.2505V44.9686H81.6833C81.0766 44.9686 80.5847 45.4604 80.5847 46.0672C80.5847 46.6739 81.0766 47.1658 81.6833 47.1658H82.4014V47.8839C82.4014 48.4906 82.8933 48.9825 83.5 48.9825Z" fill="black"/>
<path d="M84.5986 98.7844C84.5986 98.1777 84.1067 97.6858 83.5 97.6858C82.8933 97.6858 82.4014 98.1777 82.4014 98.7844V99.5453C82.4014 100.152 82.8933 100.644 83.5 100.644C84.1067 100.644 84.5986 100.152 84.5986 99.5453V98.7844Z" fill="black"/>
<path d="M84.5986 103.361C84.5986 102.754 84.1067 102.262 83.5 102.262C82.8933 102.262 82.4014 102.754 82.4014 103.361V104.122C82.4014 104.728 82.8933 105.22 83.5 105.22C84.1067 105.22 84.5986 104.728 84.5986 104.122V103.361Z" fill="black"/>
<path d="M83.5 107.061C82.8933 107.061 82.4014 107.553 82.4014 108.159V108.92C82.4014 109.527 82.8933 110.019 83.5 110.019C84.1067 110.019 84.5986 109.527 84.5986 108.92V108.159C84.5986 107.553 84.1067 107.061 83.5 107.061Z" fill="black"/>
<path d="M86.6105 75.6091L86.8793 75.4635C87.4129 75.1745 87.6111 74.5078 87.3221 73.9742C87.0331 73.4405 86.3663 73.2423 85.8328 73.5313L85.564 73.677C84.2716 74.3769 82.7283 74.3769 81.4356 73.677L81.1668 73.5313C80.633 73.2422 79.9665 73.4405 79.6775 73.9742C79.3885 74.5077 79.5867 75.1745 80.1203 75.4635L80.3891 75.6092C81.363 76.1366 82.4314 76.4002 83.4997 76.4002C84.5682 76.4002 85.6366 76.1366 86.6105 75.6091Z" fill="black"/>
<path d="M33.3514 86.7162H31.6757C31.4535 86.7162 31.2404 86.6279 31.0833 86.4708C30.9262 86.3137 30.8379 86.1005 30.8379 85.8783V69.9594C30.8379 69.7372 30.9262 69.5241 31.0833 69.367C31.2404 69.2099 31.4535 69.1216 31.6757 69.1216H33.3514C33.5736 69.1216 33.7867 69.2099 33.9438 69.367C34.101 69.5241 34.1892 69.7372 34.1892 69.9594V85.8783C34.1892 86.1005 34.101 86.3137 33.9438 86.4708C33.7867 86.6279 33.5736 86.7162 33.3514 86.7162ZM31.6757 69.9594V85.8783H33.3514V69.9594H31.6757Z" fill="black"/>
<path d="M59.3243 86.7162H57.6486C57.4264 86.7162 57.2133 86.6279 57.0562 86.4708C56.8991 86.3137 56.8108 86.1006 56.8108 85.8784V72.473C56.8108 72.2508 56.8991 72.0377 57.0562 71.8805C57.2133 71.7234 57.4264 71.6351 57.6486 71.6351H59.3243C59.5465 71.6351 59.7596 71.7234 59.9167 71.8805C60.0739 72.0377 60.1621 72.2508 60.1621 72.473V85.8784C60.1621 86.1006 60.0739 86.3137 59.9167 86.4708C59.7596 86.6279 59.5465 86.7162 59.3243 86.7162ZM57.6486 72.473V85.8784H59.3243V72.473H57.6486Z" fill="black"/>
<path d="M44.5408 84.6217H43.3259C43.2148 84.6217 43.1082 84.5775 43.0297 84.499C42.9511 84.4204 42.907 84.3138 42.907 84.2027C42.907 84.0916 42.9511 83.9851 43.0297 83.9065C43.1082 83.8279 43.2148 83.7838 43.3259 83.7838H44.5408C44.6519 83.7838 44.7584 83.8279 44.837 83.9065C44.9155 83.9851 44.9597 84.0916 44.9597 84.2027C44.9597 84.3138 44.9155 84.4204 44.837 84.499C44.7584 84.5775 44.6519 84.6217 44.5408 84.6217Z" fill="black"/>
<path d="M57.2297 84.6215H51.6497C51.5386 84.6215 51.432 84.5774 51.3535 84.4988C51.2749 84.4202 51.2308 84.3137 51.2308 84.2026C51.2308 84.0915 51.2749 83.9849 51.3535 83.9064C51.432 83.8278 51.5386 83.7837 51.6497 83.7837H56.8108V82.108H34.1892V83.7837H40.3933C40.5044 83.7837 40.611 83.8278 40.6896 83.9064C40.7681 83.9849 40.8123 84.0915 40.8123 84.2026C40.8123 84.3137 40.7681 84.4202 40.6896 84.4988C40.611 84.5774 40.5044 84.6215 40.3933 84.6215H33.7702C33.6591 84.6215 33.5526 84.5774 33.474 84.4988C33.3955 84.4202 33.3513 84.3137 33.3513 84.2026V81.6891C33.3513 81.578 33.3955 81.4714 33.474 81.3928C33.5526 81.3143 33.6591 81.2701 33.7702 81.2701H57.2297C57.3408 81.2701 57.4474 81.3143 57.5259 81.3928C57.6045 81.4714 57.6486 81.578 57.6486 81.6891V84.2026C57.6486 84.3137 57.6045 84.4202 57.5259 84.4988C57.4474 84.5774 57.3408 84.6215 57.2297 84.6215Z" fill="black"/>
<path d="M48.7173 84.6217H47.4731C47.362 84.6217 47.2555 84.5775 47.1769 84.499C47.0983 84.4204 47.0542 84.3138 47.0542 84.2027C47.0542 84.0916 47.0983 83.9851 47.1769 83.9065C47.2555 83.8279 47.362 83.7838 47.4731 83.7838H48.7173C48.8284 83.7838 48.935 83.8279 49.0135 83.9065C49.0921 83.9851 49.1362 84.0916 49.1362 84.2027C49.1362 84.3138 49.0921 84.4204 49.0135 84.499C48.935 84.5775 48.8284 84.6217 48.7173 84.6217Z" fill="black"/>
<path d="M57.2297 82.1082H33.7702C33.6591 82.1082 33.5526 82.064 33.474 81.9855C33.3955 81.9069 33.3513 81.8004 33.3513 81.6893V77.0811C33.3513 76.97 33.3955 76.8635 33.474 76.7849C33.5526 76.7064 33.6591 76.6622 33.7702 76.6622H55.1351C55.8015 76.6629 56.4405 76.9279 56.9117 77.3992C57.3829 77.8704 57.648 78.5093 57.6486 79.1757V81.6893C57.6486 81.8004 57.6045 81.9069 57.5259 81.9855C57.4474 82.064 57.3408 82.1082 57.2297 82.1082ZM34.1892 81.2703H56.8108V79.1757C56.8108 78.7313 56.6342 78.3051 56.32 77.9909C56.0057 77.6766 55.5795 77.5001 55.1351 77.5001H34.1892V81.2703Z" fill="black"/>
<path d="M38.7973 77.5002H33.7702C33.6591 77.5002 33.5526 77.456 33.474 77.3775C33.3955 77.2989 33.3513 77.1923 33.3513 77.0812V74.5677C33.3513 74.4566 33.3955 74.3501 33.474 74.2715C33.5526 74.1929 33.6591 74.1488 33.7702 74.1488H38.1689C38.4466 74.1488 38.713 74.2591 38.9094 74.4556C39.1058 74.652 39.2162 74.9183 39.2162 75.1961V77.0812C39.2162 77.1923 39.172 77.2989 39.0935 77.3775C39.0149 77.456 38.9084 77.5002 38.7973 77.5002ZM34.1892 76.6623H38.3783V75.1961C38.3783 75.1406 38.3563 75.0873 38.317 75.048C38.2777 75.0087 38.2244 74.9866 38.1689 74.9866H34.1892V76.6623Z" fill="black"/>
</svg>
