<svg width="87" height="83" viewBox="0 0 87 83" fill="none" xmlns="http://www.w3.org/2000/svg">
<path d="M83.2858 6C82.773 6 82.3573 6.41573 82.3573 6.92859V10.3206C77.5766 5.69227 69.9491 5.81577 65.3208 10.5964C63.1395 12.8494 61.9227 15.8641 61.9287 19C61.9287 19.5128 62.3445 19.9286 62.8573 19.9286C63.3702 19.9286 63.7859 19.5128 63.7859 19C63.787 13.3588 68.361 8.78658 74.0022 8.78773C76.8672 8.78827 79.6002 9.99206 81.5346 12.1053L77.421 13.4768C76.9339 13.6389 76.6703 14.1652 76.8323 14.6524C76.9944 15.1395 77.5207 15.4031 78.0079 15.2411L83.5793 13.3839C83.9596 13.2573 84.2157 12.9008 84.2145 12.5V6.92853C84.2144 6.41573 83.7987 6 83.2858 6Z" fill="black"/>
<path d="M85.1429 18.0713C84.63 18.0713 84.2143 18.487 84.2143 18.9999C84.2131 24.6411 79.6392 29.2133 73.9979 29.2121C71.133 29.2116 68.4 28.0078 66.4655 25.8945L70.5791 24.523C71.0663 24.361 71.3299 23.8347 71.1678 23.3475C71.0057 22.8603 70.4794 22.5967 69.9922 22.7588L64.4208 24.6159C64.0405 24.7426 63.7844 25.0991 63.7856 25.4999V31.0713C63.7856 31.5842 64.2014 31.9999 64.7142 31.9999C65.2271 31.9999 65.6428 31.5842 65.6428 31.0713V27.6792C70.4235 32.3076 78.051 32.1841 82.6793 27.4035C84.8605 25.1505 86.0774 22.1358 86.0713 18.9999C86.0714 18.487 85.6557 18.0713 85.1429 18.0713Z" fill="black"/>
<ellipse cx="60.1518" cy="60.1517" rx="22.8483" ry="22.8483" fill="#FFC444" fill-opacity="0.5"/>
<path d="M38.9155 14.0765H40.5246V15.6886C40.5246 15.8164 40.5498 15.9428 40.5987 16.0608C40.6475 16.1789 40.7192 16.2861 40.8095 16.3764C40.8998 16.4667 41.0071 16.5384 41.1251 16.5872C41.2431 16.6361 41.3695 16.6613 41.4973 16.6613C41.625 16.6613 41.7515 16.6361 41.8695 16.5872C41.9875 16.5384 42.0947 16.4667 42.1851 16.3764C42.2754 16.2861 42.347 16.1789 42.3959 16.0608C42.4448 15.9428 42.4699 15.8164 42.4699 15.6886V14.0765H44.0792C44.3372 14.0765 44.5846 13.974 44.767 13.7916C44.9494 13.6092 45.0519 13.3618 45.0519 13.1038C45.0519 12.8458 44.9494 12.5984 44.767 12.416C44.5846 12.2336 44.3372 12.1311 44.0792 12.1311H42.4699V10.5193C42.4699 10.2613 42.3675 10.0139 42.1851 9.83152C42.0026 9.64911 41.7552 9.54663 41.4973 9.54663C41.2393 9.54663 40.9919 9.64911 40.8095 9.83152C40.6271 10.0139 40.5246 10.2613 40.5246 10.5193V12.1311H38.9155C38.6576 12.1311 38.4102 12.2336 38.2278 12.416C38.0453 12.5984 37.9429 12.8458 37.9429 13.1038C37.9429 13.3618 38.0453 13.6092 38.2278 13.7916C38.4102 13.974 38.6576 14.0765 38.9155 14.0765Z" fill="#FFC444"/>
<path d="M44.8533 36.0641C45.1112 36.0641 45.3586 35.9616 45.541 35.7792C45.7235 35.5968 45.8259 35.3494 45.8259 35.0914C45.8259 34.8158 45.9354 34.5514 46.1303 34.3565C46.3252 34.1616 46.5896 34.0521 46.8652 34.0521C47.1408 34.0521 47.4052 34.1616 47.6001 34.3565C47.795 34.5514 47.9045 34.8158 47.9045 35.0914C47.9045 35.3494 48.007 35.5968 48.1894 35.7792C48.3718 35.9616 48.6192 36.0641 48.8771 36.0641C49.1351 36.0641 49.3825 35.9616 49.5649 35.7792C49.7473 35.5968 49.8498 35.3494 49.8498 35.0914C49.8498 34.2998 49.5354 33.5407 48.9756 32.981C48.4159 32.4213 47.6568 32.1068 46.8652 32.1068C46.0736 32.1068 45.3145 32.4213 44.7548 32.981C44.1951 33.5407 43.8806 34.2998 43.8806 35.0914C43.8806 35.3494 43.9831 35.5968 44.1655 35.7792C44.3479 35.9616 44.5953 36.0641 44.8533 36.0641Z" fill="black"/>
<path d="M41.5 44.9903C42.251 44.9922 42.995 44.8452 43.6888 44.5577C44.3826 44.2703 45.0125 43.8481 45.542 43.3155C45.6324 43.2252 45.704 43.118 45.7529 42.9999C45.8018 42.8819 45.8269 42.7554 45.8269 42.6276C45.8269 42.4999 45.8018 42.3734 45.7529 42.2554C45.704 42.1374 45.6323 42.0301 45.542 41.9398C45.4516 41.8495 45.3444 41.7778 45.2264 41.7289C45.1083 41.6801 44.9818 41.6549 44.8541 41.6549C44.7263 41.6549 44.5998 41.6801 44.4818 41.729C44.3638 41.7779 44.2565 41.8495 44.1662 41.9399C43.8161 42.29 43.4004 42.5678 42.943 42.7573C42.4855 42.9468 41.9952 43.0443 41.5 43.0443C41.0048 43.0443 40.5145 42.9468 40.0571 42.7573C39.5996 42.5678 39.1839 42.29 38.8338 41.9399C38.6514 41.7574 38.404 41.6549 38.1459 41.6549C37.8879 41.6549 37.6405 41.7574 37.4581 41.9398C37.2756 42.1222 37.1731 42.3696 37.1731 42.6276C37.1731 42.8856 37.2756 43.1331 37.458 43.3155C37.9875 43.8481 38.6174 44.2703 39.3113 44.5577C40.0051 44.8452 40.749 44.9922 41.5 44.9903Z" fill="black"/>
<path d="M57.737 55.7762C58.339 52.5025 58.0751 49.1284 56.9717 45.988L55.4751 39.848C55.5075 39.8361 55.5399 39.8271 55.5724 39.8142C56.246 39.5378 56.8085 39.045 57.1712 38.4136C57.5339 37.7822 57.6762 37.048 57.5757 36.3268C57.446 35.4376 57.0629 34.667 56.2524 34.1456V28.3247C56.2646 24.5444 54.85 20.8986 52.2913 18.1157L56.5752 9.21286C56.7502 8.84974 56.8507 8.45524 56.8708 8.05264C56.8909 7.65004 56.8301 7.2475 56.6921 6.86877C56.554 6.49004 56.3415 6.14281 56.067 5.84756C55.7926 5.55232 55.4618 5.31504 55.0941 5.14975C49.8447 2.79495 46.1473 1.77787 42.3313 1.63716C38.2516 1.4877 33.9935 2.35044 28.0981 4.52611C27.7118 4.66895 27.3588 4.88909 27.0606 5.17308C26.7624 5.45707 26.5253 5.79892 26.3639 6.17771C26.2024 6.5565 26.1199 6.96427 26.1214 7.37605C26.123 7.78783 26.2085 8.19496 26.3729 8.57252L30.3177 17.721C27.5298 20.5486 25.9579 24.354 25.9375 28.3247V37.3411C25.9505 38.3872 25.7955 39.4287 25.4785 40.4257L23.5027 46.4624C22.4763 49.6113 22.1784 52.9522 22.6314 56.233C20.4829 56.8985 18.6034 58.2336 17.2676 60.0433C15.9319 61.8529 15.2097 64.0423 15.2068 66.2916V80.4063C15.2068 80.6642 15.3093 80.9116 15.4917 81.094C15.6741 81.2765 15.9215 81.3789 16.1794 81.3789H66.8198C67.0778 81.3789 67.3252 81.2765 67.5076 81.094C67.69 80.9116 67.7925 80.6642 67.7925 80.4063V66.2916C67.7892 63.5823 66.7427 60.9784 64.8703 59.0204C62.9979 57.0623 60.4434 55.9005 57.737 55.7762ZM55.7593 55.7642H48.3695V50.6059C49.8603 49.6384 51.1307 48.3678 52.098 46.8768C53.0653 45.3858 53.7078 43.7079 53.9837 41.9521L55.0922 46.4954C55.1 46.527 55.1099 46.5591 55.1206 46.5899C56.1642 49.533 56.3848 52.705 55.7588 55.7642H55.7593ZM34.1217 36.064C34.3797 36.064 34.6271 35.9615 34.8095 35.7791C34.9919 35.5967 35.0944 35.3493 35.0944 35.0914C35.0978 34.8179 35.2088 34.5568 35.4034 34.3646C35.598 34.1725 35.8604 34.0647 36.1339 34.0647C36.4074 34.0647 36.6698 34.1725 36.8644 34.3646C37.059 34.5568 37.17 34.8179 37.1734 35.0914C37.1734 35.3493 37.2759 35.5967 37.4583 35.7791C37.6407 35.9615 37.8881 36.064 38.1461 36.064C38.404 36.064 38.6514 35.9615 38.8338 35.7791C39.0163 35.5967 39.1187 35.3493 39.1187 35.0914C39.1195 34.4614 38.9206 33.8473 38.5507 33.3374C38.1808 32.8274 37.6588 32.4478 37.0597 32.2529C36.4605 32.0581 35.8151 32.0581 35.216 32.2529C34.6169 32.4476 34.0948 32.8272 33.7249 33.3372C33.8739 32.6899 33.9497 32.0279 33.9507 31.3636C33.9519 29.5423 34.6742 27.7955 35.9597 26.5053C37.2452 25.2151 38.9894 24.4864 40.8107 24.4785H43.1859C43.8597 26.5744 45.0318 28.4755 46.6016 30.0189C48.1715 31.5622 50.0922 32.7018 52.1992 33.3399V40.0094C52.1992 42.847 51.0719 45.5684 49.0654 47.5749C47.059 49.5814 44.3376 50.7086 41.5 50.7086C38.6623 50.7086 35.941 49.5814 33.9345 47.5749C31.928 45.5684 30.8007 42.847 30.8007 40.0094V38.2092C31.7923 37.3199 32.5914 36.237 33.1489 35.0273C33.1489 35.0487 33.1479 35.0698 33.1479 35.0922C33.1484 35.3501 33.2512 35.5973 33.4338 35.7795C33.6164 35.9617 33.8638 36.0641 34.1217 36.064ZM55.1029 35.7022C55.2975 35.8378 55.452 36.0232 55.5504 36.239C55.6487 36.4548 55.6871 36.6931 55.6617 36.9289C55.6363 37.1647 55.5479 37.3894 55.4058 37.5793C55.2638 37.7692 55.0732 37.9174 54.8542 38.0083C54.6285 38.0958 54.384 38.1233 54.1445 38.0883V35.6534C54.294 35.575 54.4618 35.5381 54.6304 35.5467C54.799 35.5553 54.9621 35.609 55.1029 35.7022ZM54.3066 28.3247V33.6095C54.3066 33.615 54.1445 33.6239 54.1445 33.6333V32.7255C54.1445 32.2449 53.8934 31.7842 53.4116 31.6636C50.9202 31.0421 48.6978 29.6288 47.0785 27.636C45.4592 25.6433 44.5304 23.1787 44.4319 20.6129C46.0581 20.774 47.6693 21.0617 49.2507 21.4735C49.3814 21.5077 49.5159 21.5251 49.651 21.5251C49.9516 21.5249 50.2461 21.4399 50.5007 21.28C50.7553 21.12 50.9597 20.8916 51.0904 20.6208L51.3716 20.0265C53.2796 22.3702 54.3168 25.3026 54.3066 28.3247ZM28.1553 7.79618C28.0966 7.66144 28.0659 7.51613 28.0653 7.36914C28.0647 7.22216 28.094 7.07659 28.1516 6.94134C28.2091 6.80609 28.2937 6.68401 28.4001 6.58256C28.5064 6.4811 28.6323 6.40241 28.7702 6.3513C40.2285 2.12495 45.6803 3.05886 54.2979 6.92468C54.4285 6.9836 54.546 7.06807 54.6435 7.17312C54.741 7.27816 54.8164 7.40166 54.8655 7.53633C54.9145 7.671 54.936 7.81412 54.9289 7.95725C54.9217 8.10038 54.8859 8.24063 54.8237 8.36973L54.4596 9.12678C47.5682 5.06464 40.7975 5.2 36.2476 6.07231C33.5702 6.58213 30.9756 7.45744 28.5366 8.67368L28.1553 7.79618ZM29.3155 10.4619C31.622 9.30168 34.0783 8.46733 36.6143 7.98277C42.7346 6.80942 48.4483 7.7871 53.6139 10.8855L49.461 19.5204C47.2397 18.9616 44.9668 18.6334 42.6782 18.541C42.2351 18.5231 41.7924 18.5142 41.35 18.5142C38.6212 18.515 35.9027 18.8506 33.2556 19.5133L29.3155 10.4619ZM27.8828 28.3247C27.9013 25.1388 29.0661 22.0659 31.164 19.6681L31.5716 20.5613C31.7242 20.9113 31.997 21.1951 32.3406 21.3616C32.6842 21.5281 33.076 21.5662 33.4452 21.4691C36.3907 20.6954 39.4329 20.3535 42.4767 20.4543C42.4926 21.1519 42.5642 21.8471 42.6908 22.5332H40.8103C38.4733 22.5417 36.2348 23.4755 34.5847 25.1305C32.9346 26.7854 32.0073 29.0266 32.0057 31.3636C32.0057 34.0809 30.2976 36.6427 27.9102 37.8067C27.9165 37.6475 27.8824 37.5009 27.8824 37.3411L27.8828 28.3247ZM25.3686 47.0727L27.3626 41.0361C27.4721 40.7042 27.5607 40.3685 27.6401 40.0299C28.0618 39.9079 28.4693 39.7411 28.8554 39.5323V40.0094C28.8569 42.121 29.3877 44.1986 30.3993 46.0521C31.4108 47.9057 32.8709 49.4761 34.646 50.6198V55.7642H25.7347L24.543 55.8329C24.1578 52.8879 24.44 49.8939 25.3686 47.0727ZM40.5273 79.4336H25.39V69.0374C25.39 68.7794 25.2875 68.532 25.1051 68.3496C24.9227 68.1672 24.6753 68.0647 24.4174 68.0647C24.1594 68.0647 23.912 68.1672 23.7296 68.3496C23.5472 68.532 23.4447 68.7794 23.4447 69.0374V79.4336H17.1527V66.2916C17.1553 64.0163 18.0603 61.8349 19.6692 60.226C21.278 58.6171 23.4594 57.7121 25.7347 57.7095H34.6531C34.7205 59.3091 35.3442 60.8349 36.4167 62.0236C37.4892 63.2123 38.9431 63.9892 40.5273 64.2201V79.4336ZM36.5913 57.4295V51.6544C38.1478 52.3101 39.82 52.6469 41.5089 52.6448C43.1979 52.6428 44.8693 52.302 46.4242 51.6426V57.4299C46.4242 58.7338 45.9062 59.9843 44.9842 60.9063C44.0622 61.8283 42.8117 62.3463 41.5077 62.3463C40.2038 62.3463 38.9533 61.8283 38.0313 60.9063C37.1093 59.9843 36.5913 58.7338 36.5913 57.4299V57.4295ZM65.8472 79.4336H59.5552V69.0374C59.5552 68.7794 59.4527 68.532 59.2703 68.3496C59.0879 68.1672 58.8405 68.0647 58.5826 68.0647C58.3246 68.0647 58.0772 68.1672 57.8948 68.3496C57.7124 68.532 57.6099 68.7794 57.6099 69.0374V79.4336H42.4726V64.2221C44.06 63.9944 45.5178 63.2187 46.5935 62.0293C47.6691 60.8399 48.2949 59.3117 48.3624 57.7095H57.2653C59.5406 57.7121 61.7219 58.6171 63.3308 60.226C64.9396 61.8349 65.8446 64.0163 65.8472 66.2916V79.4336Z" fill="black"/>
<path d="M20.1846 63.6521C19.9266 63.6521 19.6792 63.7546 19.4968 63.937C19.3144 64.1194 19.2119 64.3668 19.2119 64.6248V65.0077C19.2119 65.2656 19.3144 65.513 19.4968 65.6954C19.6792 65.8778 19.9266 65.9803 20.1846 65.9803C20.4425 65.9803 20.6899 65.8778 20.8723 65.6954C21.0547 65.513 21.1572 65.2656 21.1572 65.0077V64.6248C21.1572 64.3668 21.0547 64.1194 20.8723 63.937C20.6899 63.7546 20.4425 63.6521 20.1846 63.6521Z" fill="black"/>
<path d="M20.1846 66.8232C19.9266 66.8232 19.6792 66.9257 19.4968 67.1081C19.3144 67.2905 19.2119 67.5379 19.2119 67.7959V77.6359C19.2119 77.8939 19.3144 78.1413 19.4968 78.3237C19.6792 78.5061 19.9266 78.6086 20.1846 78.6086C20.4425 78.6086 20.6899 78.5061 20.8723 78.3237C21.0547 78.1413 21.1572 77.8939 21.1572 77.6359V67.7959C21.1572 67.5379 21.0547 67.2905 20.8723 67.1081C20.6899 66.9257 20.4425 66.8232 20.1846 66.8232Z" fill="black"/>
</svg>
