<svg width="23" height="23" viewBox="0 0 23 23" fill="none" xmlns="http://www.w3.org/2000/svg">
<path d="M20.1681 4.16163C19.7495 2.58561 18.2966 1.42822 16.6467 1.42822H3.64454C1.64989 1.42822 0 3.05349 0 5.07276V11.106C0 12.8051 1.20664 14.2826 2.83191 14.652C3.22591 16.228 4.65418 17.3854 6.35332 17.3854H6.89507V21.0299C6.89507 21.2269 7.0182 21.4239 7.19058 21.5224C7.26445 21.5471 7.33833 21.5717 7.43683 21.5717C7.55996 21.5717 7.65846 21.5224 7.75696 21.4486L13.0268 17.3854H19.3555C21.3501 17.3854 23 15.7601 23 13.7409V7.70766C23 5.9839 21.7934 4.53101 20.1681 4.16163ZM2.70878 7.70766V13.4946C1.74839 13.1252 1.08351 12.1895 1.08351 11.106V5.07276C1.08351 3.66912 2.2409 2.51173 3.64454 2.51173H16.6713C17.7056 2.51173 18.6167 3.15199 19.0107 4.06313H6.35332C4.35867 4.06313 2.70878 5.68839 2.70878 7.70766ZM21.9411 13.7409H21.9165C21.9165 15.1445 20.7591 16.3019 19.3555 16.3019H12.8544C12.7313 16.3019 12.6081 16.3511 12.5343 16.425L7.97859 19.9464V16.8436C7.97859 16.5481 7.73233 16.3019 7.43683 16.3019H6.35332C4.94968 16.3019 3.79229 15.1445 3.79229 13.7409V7.70766C3.79229 6.30403 4.94968 5.14664 6.35332 5.14664H19.3801C20.7837 5.14664 21.9411 6.30403 21.9411 7.70766V13.7409Z" fill="#6165D7"/>
<path d="M18.3951 7.53528H7.31373C7.01823 7.53528 6.77197 7.78153 6.77197 8.07704C6.77197 8.37254 7.01823 8.61879 7.31373 8.61879H18.3951C18.6906 8.61879 18.9369 8.37254 18.9369 8.07704C18.9369 7.78153 18.6906 7.53528 18.3951 7.53528Z" fill="#6165D7"/>
<path d="M18.3951 9.89929H7.31373C7.01823 9.89929 6.77197 10.1455 6.77197 10.441C6.77197 10.7366 7.01823 10.9828 7.31373 10.9828H18.3951C18.6906 10.9828 18.9369 10.7366 18.9369 10.441C18.9369 10.1455 18.6906 9.89929 18.3951 9.89929Z" fill="#6165D7"/>
<path d="M18.3951 12.288H7.31373C7.01823 12.288 6.77197 12.5342 6.77197 12.8297C6.77197 13.1252 7.01823 13.3715 7.31373 13.3715H18.3951C18.6906 13.3715 18.9369 13.1252 18.9369 12.8297C18.9369 12.5096 18.6906 12.288 18.3951 12.288Z" fill="#6165D7"/>
</svg>
