<svg width="77" height="77" viewBox="0 0 77 77" fill="none" xmlns="http://www.w3.org/2000/svg">
<path d="M25.6667 55.1833H23.1C22.3913 55.1833 21.8167 55.758 21.8167 56.4667C21.8167 57.1754 22.3913 57.75 23.1 57.75H25.6667C26.3754 57.75 26.95 57.1754 26.95 56.4667C26.95 55.758 26.3754 55.1833 25.6667 55.1833Z" fill="black"/>
<path d="M61.5999 55.1833H30.7999C30.0912 55.1833 29.5166 55.758 29.5166 56.4667C29.5166 57.1754 30.0912 57.75 30.7999 57.75H61.5999C62.3087 57.75 62.8833 57.1754 62.8833 56.4667C62.8833 55.758 62.3087 55.1833 61.5999 55.1833Z" fill="black"/>
<path d="M25.6667 47.4833H23.1C22.3913 47.4833 21.8167 48.0579 21.8167 48.7667C21.8167 49.4754 22.3913 50.05 23.1 50.05H25.6667C26.3754 50.05 26.95 49.4754 26.95 48.7667C26.95 48.0579 26.3754 47.4833 25.6667 47.4833Z" fill="black"/>
<path d="M61.5999 47.4833H30.7999C30.0912 47.4833 29.5166 48.0579 29.5166 48.7667C29.5166 49.4754 30.0912 50.05 30.7999 50.05H61.5999C62.3087 50.05 62.8833 49.4754 62.8833 48.7667C62.8833 48.0579 62.3087 47.4833 61.5999 47.4833Z" fill="black"/>
<path d="M25.6667 39.7833H23.1C22.3913 39.7833 21.8167 40.3579 21.8167 41.0667C21.8167 41.7754 22.3913 42.35 23.1 42.35H25.6667C26.3754 42.35 26.95 41.7754 26.95 41.0667C26.95 40.3579 26.3754 39.7833 25.6667 39.7833Z" fill="black"/>
<path d="M61.5999 39.7833H30.7999C30.0912 39.7833 29.5166 40.3579 29.5166 41.0667C29.5166 41.7754 30.0912 42.35 30.7999 42.35H61.5999C62.3087 42.35 62.8833 41.7754 62.8833 41.0667C62.8833 40.3579 62.3087 39.7833 61.5999 39.7833Z" fill="black"/>
<path d="M25.6667 32.0833H23.1C22.3913 32.0833 21.8167 32.6579 21.8167 33.3667C21.8167 34.0754 22.3913 34.65 23.1 34.65H25.6667C26.3754 34.65 26.95 34.0754 26.95 33.3667C26.95 32.6579 26.3754 32.0833 25.6667 32.0833Z" fill="black"/>
<path d="M61.5999 32.0833H30.7999C30.0912 32.0833 29.5166 32.6579 29.5166 33.3667C29.5166 34.0754 30.0912 34.65 30.7999 34.65H61.5999C62.3087 34.65 62.8833 34.0754 62.8833 33.3667C62.8833 32.6579 62.3087 32.0833 61.5999 32.0833Z" fill="black"/>
<path d="M25.6667 24.3833H23.1C22.3913 24.3833 21.8167 24.9579 21.8167 25.6667C21.8167 26.3754 22.3913 26.95 23.1 26.95H25.6667C26.3754 26.95 26.95 26.3754 26.95 25.6667C26.95 24.9579 26.3754 24.3833 25.6667 24.3833Z" fill="black"/>
<path d="M61.5999 24.3833H30.7999C30.0912 24.3833 29.5166 24.9579 29.5166 25.6667C29.5166 26.3754 30.0912 26.95 30.7999 26.95H61.5999C62.3087 26.95 62.8833 26.3754 62.8833 25.6667C62.8833 24.9579 62.3087 24.3833 61.5999 24.3833Z" fill="black"/>
<path d="M70.5665 19.1691C70.5601 19.0567 70.5381 18.9457 70.501 18.8393C70.4869 18.7983 70.4767 18.7585 70.4587 18.7187C70.3963 18.5791 70.3093 18.4518 70.202 18.3427L52.2354 0.376017C52.1263 0.268698 51.9989 0.181752 51.8593 0.11935C51.8196 0.101383 51.7798 0.0911167 51.74 0.077C51.6327 0.0401042 51.5209 0.0176458 51.4076 0.0102667C51.3858 0.0141167 51.3614 0 51.3332 0H15.3998C14.6911 0 14.1165 0.574612 14.1165 1.28333V5.13333H7.69984C6.99112 5.13333 6.4165 5.70795 6.4165 6.41667V75.7167C6.4165 76.4254 6.99112 77 7.69984 77H61.5998C62.3086 77 62.8832 76.4254 62.8832 75.7167V69.3H69.2998C70.0086 69.3 70.5832 68.7254 70.5832 68.0167V19.25C70.5832 19.2218 70.5691 19.1974 70.5665 19.1691ZM52.6165 4.3813L66.2019 17.9667H52.6165V4.3813ZM60.3165 74.4333H8.98317V7.7H14.1165V68.0167C14.1165 68.7254 14.6911 69.3 15.3998 69.3H60.3165V74.4333ZM68.0165 66.7333H16.6832V2.56667H50.0498V19.25C50.0498 19.9587 50.6245 20.5333 51.3332 20.5333H68.0165V66.7333Z" fill="#FFC444"/>
<path d="M30.8 11.55H23.1C22.3913 11.55 21.8167 12.1246 21.8167 12.8333V20.5333C21.8167 21.2421 22.3913 21.8167 23.1 21.8167H30.8C31.5087 21.8167 32.0833 21.2421 32.0833 20.5333V12.8333C32.0833 12.1246 31.5087 11.55 30.8 11.55ZM29.5167 19.25H24.3833V14.1167H29.5167V19.25Z" fill="black"/>
</svg>
