<svg width="69" height="69" viewBox="0 0 69 69" fill="none" xmlns="http://www.w3.org/2000/svg">
<g clip-path="url(#clip0)">
<path d="M46 37.95C42.1946 37.95 39.1 41.0446 39.1 44.8499C39.1 48.6553 42.1946 51.75 46 51.75C49.8053 51.75 52.9 48.6553 52.9 44.8499C52.9 41.0446 49.8053 37.95 46 37.95ZM46 49.4499C43.463 49.4499 41.4 47.3868 41.4 44.8499C41.4 42.313 43.4631 40.25 46 40.25C48.5369 40.25 50.5999 42.3131 50.5999 44.8499C50.6 47.3869 48.5369 49.4499 46 49.4499Z" fill="#FFC444"/>
<path d="M48.3 49.45V54.2018L46.6371 53.0932C46.2508 52.8345 45.7482 52.8345 45.3617 53.0932L43.6999 54.2018V49.45H41.4V56.3499C41.4 56.7743 41.6334 57.1642 42.0083 57.3642C42.381 57.5643 42.8363 57.5413 43.1882 57.3066L46 55.4322L48.8117 57.3066C49.0037 57.4343 49.2269 57.4999 49.45 57.4999C49.6362 57.4999 49.8226 57.455 49.9928 57.3642C50.3665 57.1641 50.6 56.7742 50.6 56.3499V49.45H48.3Z" fill="#FFC444"/>
<path d="M41.4 11.5H26.45V13.8H41.4V11.5Z" fill="black"/>
<path d="M52.9001 18.3999H16.1V20.6999H52.9001V18.3999Z" fill="black"/>
<path d="M41.4 25.3H16.1V27.6001H41.4V25.3Z" fill="black"/>
<path d="M52.9 25.3H46V27.6001H52.9V25.3Z" fill="black"/>
<path d="M52.9001 32.2H16.1V34.5H52.9001V32.2Z" fill="black"/>
<path d="M29.9 39.0999H16.1V41.3999H29.9V39.0999Z" fill="black"/>
<path d="M21.8501 44.8499H16.1V47.1499H21.8501V44.8499Z" fill="black"/>
<path d="M29.9 44.8499H26.45V47.1499H29.9V44.8499Z" fill="black"/>
<path d="M63.25 0C60.0795 0 57.4999 2.57941 57.4999 5.75004V8.05009C57.4999 8.68484 58.0139 9.20004 58.6499 9.20004H67.8499C68.4859 9.20004 68.9999 8.68484 68.9999 8.05009V5.75004C69 2.57941 66.4206 0 63.25 0ZM66.7 6.9H59.8V5.75004C59.8 3.84796 61.3479 2.30004 63.25 2.30004C65.152 2.30004 66.7 3.84796 66.7 5.75004V6.9Z" fill="#FFC444"/>
<path d="M63.25 0H14.95C11.7795 0 9.20004 2.57941 9.20004 5.75004V60.95H11.5001V5.75004C11.5001 3.84796 13.048 2.30004 14.9501 2.30004H58.6524C57.9291 3.26146 57.5002 4.4563 57.5002 5.75004V63.2501C57.5002 65.1522 55.9523 66.7001 54.0502 66.7001H10.35V69H54.05C57.2205 69 59.8001 66.4206 59.8001 63.25V5.75004C59.8001 3.84796 61.348 2.30004 63.2501 2.30004C63.8861 2.30004 64.4001 1.78484 64.4001 1.15009C64.4001 0.515344 63.8859 0 63.25 0Z" fill="#FFC444"/>
<path d="M54.05 66.7001C52.148 66.7001 50.6001 65.1521 50.6001 63.2501V60.95C50.6001 60.314 50.0861 59.8 49.4501 59.8H1.14996C0.515209 59.8 0 60.314 0 60.95V63.2501C0 66.4207 2.57941 69.0001 5.75005 69.0001H54.05C54.686 69.0001 55.2 68.4861 55.2 67.8501C55.2 67.2142 54.686 66.7001 54.05 66.7001ZM5.75005 66.7001C3.84796 66.7001 2.30005 65.1521 2.30005 63.2501V62.1001H48.3V63.2501C48.3 64.5438 48.729 65.7386 49.4523 66.7001H5.75005Z" fill="#FFC444"/>
</g>
<defs>
<clipPath id="clip0">
<rect width="69" height="69" fill="white"/>
</clipPath>
</defs>
</svg>
