<svg width="93" height="85" viewBox="0 0 93 85" fill="none" xmlns="http://www.w3.org/2000/svg">
<g clip-path="url(#clip0)">
<path d="M92.6925 25.208L86.1032 18.6188C87.741 16.6492 88.7278 14.12 88.7278 11.3643C88.7278 5.09798 83.63 0 77.364 0C71.0978 0 66 5.09798 66 11.3643C66 17.6301 71.0978 22.7277 77.364 22.7277C80.1196 22.7277 82.6489 21.7411 84.6185 20.1032L91.208 26.6925C91.4129 26.8975 91.6817 27 91.9502 27C92.2188 27 92.4876 26.8975 92.6926 26.6925C93.1026 26.2825 93.1026 25.618 92.6925 25.208ZM68.0995 11.3643C68.0995 6.25564 72.2555 2.09949 77.364 2.09949C82.4723 2.09949 86.6282 6.25564 86.6282 11.3643C86.6282 16.4725 82.4723 20.6282 77.364 20.6282C72.2555 20.6282 68.0995 16.4725 68.0995 11.3643Z" fill="black"/>
</g>
<path d="M37.5089 18.5678H39.0598V20.1217C39.0598 20.2448 39.0841 20.3667 39.1312 20.4804C39.1783 20.5942 39.2474 20.6975 39.3344 20.7846C39.4215 20.8716 39.5248 20.9407 39.6386 20.9878C39.7523 21.0349 39.8742 21.0592 39.9973 21.0592C40.1205 21.0592 40.2424 21.0349 40.3561 20.9878C40.4699 20.9407 40.5732 20.8716 40.6603 20.7846C40.7473 20.6975 40.8164 20.5942 40.8635 20.4804C40.9106 20.3667 40.9348 20.2448 40.9348 20.1217V18.5678H42.4859C42.7346 18.5678 42.973 18.469 43.1489 18.2932C43.3247 18.1173 43.4234 17.8789 43.4234 17.6303C43.4234 17.3816 43.3247 17.1432 43.1489 16.9673C42.973 16.7915 42.7346 16.6928 42.4859 16.6928H40.9348V15.1392C40.9348 14.8905 40.8361 14.6521 40.6603 14.4762C40.4844 14.3004 40.246 14.2017 39.9973 14.2017C39.7487 14.2017 39.5103 14.3004 39.3344 14.4762C39.1586 14.6521 39.0598 14.8905 39.0598 15.1392V16.6928H37.5089C37.2603 16.6928 37.0218 16.7915 36.846 16.9673C36.6702 17.1432 36.5714 17.3816 36.5714 17.6303C36.5714 17.8789 36.6702 18.1173 36.846 18.2932C37.0218 18.469 37.2603 18.5678 37.5089 18.5678Z" fill="black"/>
<path d="M43.232 39.7605C43.4807 39.7605 43.7191 39.6617 43.8949 39.4859C44.0708 39.3101 44.1695 39.0716 44.1695 38.823C44.1695 38.5573 44.2751 38.3025 44.4629 38.1147C44.6508 37.9268 44.9056 37.8213 45.1712 37.8213C45.4369 37.8213 45.6917 37.9268 45.8796 38.1147C46.0674 38.3025 46.173 38.5573 46.173 38.823C46.173 39.0716 46.2717 39.3101 46.4476 39.4859C46.6234 39.6617 46.8618 39.7605 47.1105 39.7605C47.3591 39.7605 47.5976 39.6617 47.7734 39.4859C47.9492 39.3101 48.048 39.0716 48.048 38.823C48.048 38.0601 47.7449 37.3283 47.2054 36.7889C46.6659 36.2494 45.9342 35.9463 45.1712 35.9463C44.4083 35.9463 43.6766 36.2494 43.1371 36.7889C42.5976 37.3283 42.2945 38.0601 42.2945 38.823C42.2945 39.0716 42.3933 39.3101 42.5691 39.4859C42.7449 39.6617 42.9834 39.7605 43.232 39.7605Z" fill="#FFC444"/>
<path d="M40 48.3642C40.7239 48.3661 41.4409 48.2244 42.1096 47.9473C42.7784 47.6703 43.3855 47.2633 43.8959 46.75C43.983 46.663 44.0521 46.5596 44.0992 46.4458C44.1463 46.3321 44.1705 46.2101 44.1705 46.087C44.1705 45.9639 44.1463 45.8419 44.0991 45.7282C44.052 45.6144 43.9829 45.5111 43.8959 45.424C43.8088 45.3369 43.7054 45.2679 43.5917 45.2208C43.4779 45.1736 43.356 45.1494 43.2328 45.1494C43.1097 45.1494 42.9878 45.1737 42.874 45.2208C42.7603 45.2679 42.6569 45.337 42.5698 45.4241C42.2324 45.7616 41.8317 46.0293 41.3908 46.2119C40.9499 46.3946 40.4773 46.4886 40 46.4886C39.5227 46.4886 39.0501 46.3946 38.6092 46.2119C38.1683 46.0293 37.7676 45.7616 37.4302 45.4241C37.2543 45.2482 37.0158 45.1494 36.7672 45.1494C36.5185 45.1494 36.28 45.2482 36.1041 45.424C35.9283 45.5998 35.8295 45.8383 35.8295 46.087C35.8295 46.3357 35.9282 46.5742 36.1041 46.75C36.6145 47.2633 37.2216 47.6703 37.8904 47.9473C38.5591 48.2244 39.2761 48.3661 40 48.3642Z" fill="#FFC444"/>
<path d="M55.6502 58.76C56.2304 55.6047 55.9761 52.3525 54.9125 49.3257L53.47 43.4075C53.5012 43.3961 53.5325 43.3874 53.5637 43.375C54.213 43.1085 54.7552 42.6336 55.1048 42.025C55.4544 41.4164 55.5916 40.7088 55.4947 40.0136C55.3697 39.1566 55.0005 38.4138 54.2192 37.9113V32.3008C54.231 28.6571 52.8675 25.1431 50.4012 22.4608L54.5303 13.8797C54.699 13.5297 54.7959 13.1495 54.8153 12.7614C54.8346 12.3734 54.776 11.9854 54.643 11.6204C54.5099 11.2553 54.3051 10.9206 54.0406 10.6361C53.776 10.3515 53.4572 10.1228 53.1028 9.96348C48.0431 7.69379 44.4794 6.71348 40.8012 6.57785C36.8691 6.43379 32.7648 7.26535 27.0825 9.36238C26.7102 9.50005 26.37 9.71224 26.0826 9.98596C25.7952 10.2597 25.5666 10.5892 25.411 10.9543C25.2553 11.3194 25.1758 11.7124 25.1773 12.1093C25.1788 12.5062 25.2613 12.8986 25.4197 13.2625L29.2219 22.0804C26.5348 24.8057 25.0197 28.4736 25 32.3008V40.9913C25.0125 41.9996 24.8632 43.0034 24.5577 43.9644L22.6533 49.7829C21.6639 52.8179 21.3768 56.0381 21.8134 59.2004C19.7425 59.8418 17.931 61.1287 16.6435 62.8729C15.356 64.6172 14.66 66.7274 14.6572 68.8954V82.4999C14.6572 82.7485 14.756 82.987 14.9318 83.1628C15.1076 83.3386 15.346 83.4374 15.5947 83.4374H64.4047C64.6533 83.4374 64.8918 83.3386 65.0676 83.1628C65.2434 82.987 65.3422 82.7485 65.3422 82.4999V68.8954C65.339 66.284 64.3304 63.7743 62.5257 61.887C60.7209 59.9997 58.2587 58.8799 55.6502 58.76ZM53.7439 58.7485H46.6212V53.7766C48.0582 52.8441 49.2827 51.6194 50.215 50.1823C51.1473 48.7452 51.7666 47.1279 52.0325 45.4357L53.1009 49.8147C53.1084 49.8452 53.118 49.8761 53.1283 49.9058C54.1342 52.7425 54.3469 55.7999 53.7434 58.7485H53.7439ZM32.8884 39.7604C33.1371 39.7604 33.3755 39.6616 33.5513 39.4858C33.7272 39.3099 33.8259 39.0715 33.8259 38.8229C33.8292 38.5593 33.9362 38.3076 34.1238 38.1224C34.3113 37.9372 34.5643 37.8333 34.8279 37.8333C35.0915 37.8333 35.3444 37.9372 35.532 38.1224C35.7195 38.3076 35.8265 38.5593 35.8298 38.8229C35.8298 39.0715 35.9286 39.3099 36.1044 39.4858C36.2802 39.6616 36.5187 39.7604 36.7673 39.7604C37.016 39.7604 37.2544 39.6616 37.4302 39.4858C37.6061 39.3099 37.7048 39.0715 37.7048 38.8229C37.7056 38.2156 37.5139 37.6238 37.1573 37.1323C36.8008 36.6407 36.2976 36.2748 35.7202 36.087C35.1427 35.8992 34.5206 35.8992 33.9431 36.087C33.3657 36.2747 32.8625 36.6406 32.5059 37.1321C32.6496 36.5082 32.7226 35.8701 32.7236 35.2299C32.7247 33.4744 33.4209 31.7908 34.66 30.5472C35.8991 29.3036 37.5801 28.6012 39.3356 28.5936H41.625C42.2744 30.6137 43.4041 32.4461 44.9172 33.9337C46.4303 35.4213 48.2817 36.5197 50.3125 37.1347V43.5632C50.3125 46.2982 49.226 48.9212 47.292 50.8552C45.3581 52.7892 42.735 53.8757 40 53.8757C37.2649 53.8757 34.6419 52.7892 32.708 50.8552C30.774 48.9212 29.6875 46.2982 29.6875 43.5632V41.828C30.6432 40.9708 31.4135 39.9271 31.9508 38.7611C31.9508 38.7818 31.9498 38.8021 31.9498 38.8236C31.9503 39.0723 32.0494 39.3105 32.2254 39.4862C32.4013 39.6618 32.6398 39.7604 32.8884 39.7604ZM53.1112 39.4116C53.2988 39.5423 53.4478 39.721 53.5425 39.929C53.6373 40.137 53.6744 40.3667 53.6499 40.594C53.6254 40.8213 53.5402 41.0378 53.4032 41.2208C53.2663 41.4039 53.0827 41.5467 52.8716 41.6344C52.654 41.7187 52.4183 41.7452 52.1875 41.7114V39.3646C52.3316 39.289 52.4933 39.2535 52.6558 39.2617C52.8183 39.27 52.9756 39.3218 53.1112 39.4116ZM52.3437 32.3008V37.3946C52.3437 37.3999 52.1875 37.4085 52.1875 37.4175V36.5425C52.1875 36.0793 51.9455 35.6352 51.4811 35.5189C49.0797 34.92 46.9377 33.5577 45.3769 31.637C43.8161 29.7162 42.9209 27.3408 42.8259 24.8677C44.3934 25.023 45.9463 25.3003 47.4706 25.6972C47.5966 25.7302 47.7262 25.7469 47.8564 25.7469C48.1462 25.7467 48.43 25.6648 48.6754 25.5107C48.9208 25.3565 49.1178 25.1363 49.2437 24.8754L49.5148 24.3025C51.3539 26.5615 52.3535 29.3879 52.3437 32.3008ZM27.1376 12.5143C27.0811 12.3844 27.0515 12.2443 27.0509 12.1027C27.0503 11.961 27.0786 11.8207 27.1341 11.6903C27.1896 11.56 27.2711 11.4423 27.3736 11.3445C27.4761 11.2467 27.5975 11.1709 27.7303 11.1216C38.7745 7.04801 44.0292 7.94816 52.3353 11.6743C52.4612 11.731 52.5745 11.8125 52.6685 11.9137C52.7624 12.015 52.8352 12.134 52.8824 12.2638C52.9296 12.3936 52.9504 12.5315 52.9435 12.6695C52.9366 12.8075 52.9021 12.9426 52.8422 13.0671L52.4912 13.7968C45.8489 9.88144 39.323 10.0119 34.9375 10.8527C32.3569 11.3441 29.8561 12.1878 27.5051 13.36L27.1376 12.5143ZM28.2559 15.0836C30.479 13.9653 32.8466 13.1611 35.2909 12.6941C41.19 11.5632 46.6972 12.5055 51.6761 15.4919L47.6733 23.8147C45.5323 23.2761 43.3415 22.9597 41.1356 22.8707C40.7085 22.8535 40.2818 22.8449 39.8555 22.8449C37.2252 22.8457 34.6051 23.1691 32.0536 23.8079L28.2559 15.0836ZM26.875 32.3008C26.8929 29.23 28.0155 26.2682 30.0376 23.9571L30.4305 24.818C30.5776 25.1553 30.8405 25.4289 31.1717 25.5894C31.5028 25.7498 31.8805 25.7866 32.2364 25.693C35.0754 24.9472 38.0077 24.6177 40.9414 24.7149C40.9567 25.3872 41.0257 26.0573 41.1478 26.7186H39.3353C37.0828 26.7268 34.9252 27.6269 33.3347 29.222C31.7443 30.8171 30.8505 32.9773 30.8489 35.2299C30.8489 37.8489 29.2025 40.3182 26.9014 41.44C26.9075 41.2866 26.8747 41.1454 26.8747 40.9913L26.875 32.3008ZM24.4517 50.3711L26.3736 44.5527C26.4792 44.2329 26.5645 43.9093 26.6411 43.5829C27.0476 43.4653 27.4403 43.3046 27.8125 43.1033V43.5632C27.8139 45.5985 28.3255 47.6009 29.3005 49.3875C30.2755 51.174 31.6828 52.6877 33.3937 53.79V58.7485H24.8045L23.6559 58.8147C23.2847 55.9761 23.5566 53.0904 24.4517 50.3711ZM39.0625 81.5624H24.4723V71.5419C24.4723 71.2933 24.3736 71.0548 24.1978 70.879C24.0219 70.7032 23.7835 70.6044 23.5348 70.6044C23.2862 70.6044 23.0477 70.7032 22.8719 70.879C22.6961 71.0548 22.5973 71.2933 22.5973 71.5419V81.5624H16.5328V68.8954C16.5353 66.7023 17.4076 64.5998 18.9583 63.049C20.509 61.4983 22.6115 60.626 24.8045 60.6235H33.4006C33.4655 62.1652 34.0668 63.6359 35.1005 64.7816C36.1342 65.9274 37.5355 66.6762 39.0625 66.8988V81.5624ZM35.2687 60.3536V54.7872C36.769 55.4192 38.3807 55.7438 40.0086 55.7419C41.6366 55.7399 43.2475 55.4114 44.7462 54.7758V60.3539C44.7462 61.6107 44.247 62.8161 43.3583 63.7047C42.4696 64.5934 41.2643 65.0927 40.0075 65.0927C38.7507 65.0927 37.5454 64.5934 36.6567 63.7047C35.768 62.8161 35.2687 61.6107 35.2687 60.3539V60.3536ZM63.4672 81.5624H57.4027V71.5419C57.4027 71.2933 57.3039 71.0548 57.1281 70.879C56.9522 70.7032 56.7138 70.6044 56.4652 70.6044C56.2165 70.6044 55.9781 70.7032 55.8022 70.879C55.6264 71.0548 55.5277 71.2933 55.5277 71.5419V81.5624H40.9375V66.9007C42.4675 66.6812 43.8726 65.9336 44.9094 64.7871C45.9462 63.6407 46.5493 62.1678 46.6144 60.6235H55.1955C57.3885 60.626 59.491 61.4983 61.0417 63.049C62.5924 64.5998 63.4647 66.7023 63.4672 68.8954V81.5624Z" fill="#FFC444"/>
<path d="M19.455 66.3513C19.2064 66.3513 18.9679 66.4501 18.7921 66.6259C18.6163 66.8017 18.5175 67.0402 18.5175 67.2888V67.6579C18.5175 67.9065 18.6163 68.145 18.7921 68.3208C18.9679 68.4966 19.2064 68.5954 19.455 68.5954C19.7036 68.5954 19.9421 68.4966 20.1179 68.3208C20.2937 68.145 20.3925 67.9065 20.3925 67.6579V67.2888C20.3925 67.0402 20.2937 66.8017 20.1179 66.6259C19.9421 66.4501 19.7036 66.3513 19.455 66.3513Z" fill="black"/>
<path d="M19.455 69.408C19.2064 69.408 18.9679 69.5067 18.7921 69.6825C18.6163 69.8584 18.5175 70.0968 18.5175 70.3455V79.8298C18.5175 80.0785 18.6163 80.3169 18.7921 80.4928C18.9679 80.6686 19.2064 80.7673 19.455 80.7673C19.7036 80.7673 19.9421 80.6686 20.1179 80.4928C20.2937 80.3169 20.3925 80.0785 20.3925 79.8298V70.3455C20.3925 70.0968 20.2937 69.8584 20.1179 69.6825C19.9421 69.5067 19.7036 69.408 19.455 69.408Z" fill="black"/>
<defs>
<clipPath id="clip0">
<rect width="27" height="27" fill="white" transform="translate(66)"/>
</clipPath>
</defs>
</svg>
