<svg width="161" height="161" viewBox="0 0 161 161" fill="none" xmlns="http://www.w3.org/2000/svg">
<circle cx="79.8711" cy="81.1289" r="70.0664" stroke="#FFC444" stroke-width="2"/>
<circle cx="80.5" cy="80.5" r="80" stroke="#FFC444" stroke-opacity="0.5"/>
<circle cx="79.8711" cy="81.1289" r="62.2617" fill="#FFC444"/>
<path d="M104.488 111.241L103.012 102.692C102.909 102.094 102.341 101.692 101.742 101.796C101.144 101.899 100.743 102.467 100.847 103.066L102.322 111.615C102.416 112.159 102.266 112.714 101.91 113.137C101.554 113.56 101.033 113.803 100.48 113.803H95.8184L94.8067 108.451C94.6939 107.855 94.1191 107.463 93.523 107.576C92.9268 107.689 92.5348 108.263 92.6475 108.859L93.582 113.803H67.4176L68.3522 108.859C68.465 108.263 68.073 107.688 67.4766 107.576C66.8803 107.463 66.3058 107.855 66.193 108.451L65.1814 113.803H60.5201C59.9673 113.803 59.4459 113.56 59.0898 113.137C58.7337 112.714 58.5833 112.159 58.6775 111.614L61.3558 96.0993C61.6567 94.3569 62.8715 92.8873 64.5261 92.264L67.0786 91.3027L73.3174 99.9567C73.7469 100.552 74.4121 100.938 75.1423 101.015C75.2324 101.024 75.3223 101.029 75.4118 101.029C76.0498 101.029 76.6704 100.792 77.1475 100.36L80.5 97.3204L83.8524 100.36C84.3294 100.793 84.95 101.029 85.5881 101.029C85.6777 101.029 85.7677 101.025 85.8576 101.015C86.5879 100.938 87.253 100.553 87.6825 99.9568L93.9213 91.303L96.4738 92.2643C98.1285 92.8875 99.3433 94.3572 99.6442 96.0996L100.103 98.7586C100.206 99.3565 100.775 99.7579 101.373 99.6543C101.971 99.5511 102.372 98.9828 102.268 98.3848L101.809 95.7258C101.377 93.219 99.6289 91.1048 97.2484 90.2081L86.2893 86.1164C85.9287 85.984 85.6864 85.6368 85.6864 85.2526V83.5893C90.0261 81.6539 93.0601 77.3016 93.0601 72.2511V66.0211H94.082C94.6887 66.0211 95.1806 65.5292 95.1806 64.9225C95.1806 64.3157 94.6887 63.8238 94.082 63.8238H86.8735C84.7937 63.8238 82.7702 63.0883 81.1757 61.753L77.3484 58.5473C76.8985 58.1706 76.3076 58.0037 75.7269 58.089C75.1464 58.1745 74.6287 58.5048 74.3068 58.9954L73.7648 59.8207C72.2248 62.1659 69.6333 63.6574 66.8325 63.8106C66.2267 63.8438 65.7625 64.3617 65.7956 64.9676C65.8287 65.5734 66.3477 66.039 66.9525 66.0045C67.2843 65.9864 67.6137 65.953 67.94 65.9054V72.2512C67.94 77.3016 70.9741 81.654 75.3137 83.5894V85.2527C75.3137 85.637 75.0714 85.9841 74.7108 86.1165L63.7517 90.2083C61.3712 91.1049 59.6233 93.2191 59.1906 95.7259L56.5123 111.241C56.3078 112.426 56.6346 113.633 57.4092 114.553C58.1838 115.472 59.3177 116 60.5201 116H100.48C101.682 116 102.816 115.472 103.591 114.553C104.365 113.633 104.692 112.426 104.488 111.241ZM75.6717 98.7321C75.5605 98.8328 75.4363 98.8368 75.3723 98.8298C75.3081 98.823 75.1876 98.7936 75.0998 98.6719L69.209 90.5005L71.0218 89.8178L78.5141 96.1548L75.6717 98.7321ZM85.9001 98.6719C85.8124 98.7937 85.6918 98.8232 85.6277 98.8299C85.5635 98.8368 85.4394 98.8328 85.3282 98.7322L82.4857 96.155L89.9779 89.8179L91.7908 90.5007L85.9001 98.6719ZM70.1372 72.2511V65.3481C72.3496 64.5384 74.2841 63.0331 75.6014 61.0267L76.0574 60.3322L79.7648 63.4374C81.7542 65.1035 84.2787 66.0211 86.8735 66.0211H90.8627V72.2511C90.8627 77.8825 86.2813 82.464 80.6498 82.464H80.35C74.7187 82.464 70.1372 77.8825 70.1372 72.2511ZM75.4684 88.1789C76.6902 87.7302 77.511 86.5541 77.511 85.2526V84.3297C78.4234 84.5442 79.3731 84.6612 80.35 84.6612H80.6498C81.6267 84.6612 82.5764 84.5442 83.4888 84.3297V85.2526C83.4888 86.5541 84.3097 87.7302 85.5314 88.1789L87.6103 88.9425L80.9541 94.5725C80.922 94.5996 80.888 94.6232 80.8528 94.6437C80.7462 94.7055 80.6245 94.7388 80.5 94.7388C80.3755 94.7388 80.2537 94.7055 80.1472 94.6438C80.1119 94.6233 80.0779 94.5996 80.0457 94.5725L73.3895 88.9425L75.4684 88.1789Z" fill="black"/>
<path d="M66.3943 80.5401C66.4816 80.5613 66.5689 80.5714 66.6549 80.5714C67.1499 80.5714 67.5993 80.2345 67.7216 79.7322C67.865 79.1426 67.5034 78.5483 66.9138 78.4049C65.214 77.9914 64.0269 76.4809 64.0269 74.7315V67.6752V64.26C64.0269 60.4514 65.9854 57.0937 68.9465 55.1347H92.053C95.0143 57.0935 96.9727 60.4514 96.9727 64.26V67.6752V74.7315C96.9727 76.4809 95.7855 77.9914 94.0857 78.4049C93.4963 78.5483 93.1345 79.1426 93.2779 79.7322C93.4 80.2345 93.8495 80.5714 94.3446 80.5714C94.4304 80.5714 94.5179 80.5612 94.6052 80.5401C97.2929 79.8863 99.1699 77.4978 99.1699 74.7317V67.6754V64.2601C99.1699 59.9423 97.0749 56.1056 93.8487 53.7102L95.6839 50.526C96.6743 48.8078 96.2001 46.6411 94.581 45.4864C93.636 44.8124 92.618 44.196 91.5551 43.6544C91.0145 43.3791 90.3527 43.5938 90.0773 44.1345C89.802 44.6751 90.0168 45.3367 90.5574 45.6122C91.5239 46.1047 92.4483 46.6643 93.3051 47.2752C93.9984 47.7698 94.2026 48.6957 93.7802 49.4289L91.7578 52.9376H69.2443L67.2204 49.4289C66.7973 48.6956 67.0014 47.7695 67.695 47.2748C69.8304 45.752 74.3333 43.1973 80.4999 43.1973C82.4484 43.1973 84.3806 43.4511 86.2427 43.9517C86.8285 44.1091 87.4314 43.762 87.5889 43.176C87.7465 42.5901 87.3992 41.9873 86.8132 41.8298C84.7651 41.2792 82.6409 41 80.4999 41C73.7215 41 68.7684 43.8106 66.4192 45.4858C64.7994 46.641 64.3257 48.8081 65.3171 50.5268L67.1522 53.7081C63.925 56.1034 61.8296 59.9415 61.8296 64.2601V67.6754V74.7317C61.8296 77.4978 63.7066 79.8862 66.3943 80.5401Z" fill="black"/>
<path d="M77.4413 68.9902C77.4413 68.3834 76.9494 67.8915 76.3427 67.8915H75.4219C74.8151 67.8915 74.3232 68.3834 74.3232 68.9902C74.3232 69.5969 74.8151 70.0888 75.4219 70.0888H76.3427C76.9494 70.0888 77.4413 69.5969 77.4413 68.9902Z" fill="black"/>
<path d="M84.6572 70.0888H85.5779C86.1846 70.0888 86.6765 69.5969 86.6765 68.9902C86.6765 68.3834 86.1846 67.8915 85.5779 67.8915H84.6572C84.0505 67.8915 83.5586 68.3834 83.5586 68.9902C83.5586 69.5969 84.0505 70.0888 84.6572 70.0888Z" fill="black"/>
<path d="M80.5 50.9826C81.1068 50.9826 81.5987 50.4907 81.5987 49.8839V49.1659H82.3167C82.9235 49.1659 83.4154 48.674 83.4154 48.0672C83.4154 47.4605 82.9235 46.9686 82.3167 46.9686H81.5987V46.2505C81.5987 45.6438 81.1068 45.1519 80.5 45.1519C79.8933 45.1519 79.4014 45.6438 79.4014 46.2505V46.9686H78.6833C78.0766 46.9686 77.5847 47.4605 77.5847 48.0672C77.5847 48.674 78.0766 49.1659 78.6833 49.1659H79.4014V49.8839C79.4014 50.4907 79.8933 50.9826 80.5 50.9826Z" fill="black"/>
<path d="M81.5986 100.784C81.5986 100.178 81.1067 99.6858 80.5 99.6858C79.8933 99.6858 79.4014 100.178 79.4014 100.784V101.545C79.4014 102.152 79.8933 102.644 80.5 102.644C81.1067 102.644 81.5986 102.152 81.5986 101.545V100.784Z" fill="black"/>
<path d="M81.5986 105.361C81.5986 104.754 81.1067 104.262 80.5 104.262C79.8933 104.262 79.4014 104.754 79.4014 105.361V106.122C79.4014 106.728 79.8933 107.22 80.5 107.22C81.1067 107.22 81.5986 106.728 81.5986 106.122V105.361Z" fill="black"/>
<path d="M80.5 109.061C79.8933 109.061 79.4014 109.553 79.4014 110.159V110.92C79.4014 111.527 79.8933 112.019 80.5 112.019C81.1067 112.019 81.5986 111.527 81.5986 110.92V110.159C81.5986 109.553 81.1067 109.061 80.5 109.061Z" fill="black"/>
<path d="M83.6105 77.6091L83.8793 77.4635C84.4129 77.1745 84.6111 76.5078 84.3221 75.9742C84.0331 75.4405 83.3663 75.2423 82.8328 75.5313L82.564 75.677C81.2716 76.3769 79.7283 76.3769 78.4356 75.677L78.1668 75.5313C77.633 75.2422 76.9665 75.4405 76.6775 75.9742C76.3885 76.5077 76.5867 77.1745 77.1203 77.4635L77.3891 77.6092C78.363 78.1366 79.4314 78.4002 80.4997 78.4002C81.5682 78.4002 82.6366 78.1366 83.6105 77.6091Z" fill="black"/>
</svg>
