<svg fill="none" version="1.1" viewBox="0 0 88 88" xmlns="http://www.w3.org/2000/svg">
 <defs>
  <clipPath id="a">
   <rect width="42" height="42" fill="#fff"/>
  </clipPath>
 </defs>
 <circle cx="44" cy="44" r="43.5" stroke="#ffc444"/>
 <circle cx="44" cy="44" r="40" fill="#ffc444"/>
 <g transform="translate(23 23)" clip-path="url(#a)" fill="#000">
  <path d="m17.5 13.125v5.2499c0 2.4162-1.9587 4.3749-4.3749 4.3749s-4.3749-1.9587-4.3749-4.3749v-5.2499h-1.75v5.2499c0.00385 3.3811 2.7438 6.1211 6.125 6.125 3.3811-0.0039 6.1211-2.7439 6.1249-6.125v-5.2499z"/>
  <path d="m13.125 11.375c0-0.4832-0.3918-0.875-0.875-0.875-0.4833 0-0.8751 0.3918-0.8751 0.875 0 0.1427-0.0393 3.5-3.4999 3.5v1.75c1.8503 0.1155 3.6031-0.8386 4.5106-2.4553 0.9144 1.253 2.6643 2.4553 5.9892 2.4553v-1.75c-5.0407 0-5.2437-3.15-5.2498-3.5z"/>
  <path d="m4.7803 21.875c0.95787-3.1163 1.4118-6.3655 1.3449-9.6249-0.00673-1.6023 0.54279-3.1572 1.5549-4.3994l-1.3607-1.1008c-1.2565 1.5579-1.9425 3.4987-1.9442 5.5002 0 6.6657-1.6423 10.077-1.6581 10.109-0.06078 0.1216-0.09236 0.2556-0.09228 0.3915 2.4e-4 0.4833 0.39218 0.8748 0.87543 0.8746h6.9998v-1.7499h-5.7198z"/>
  <path d="m23.538 22.362c-0.0201-0.0341-1.6625-3.4457-1.6625-10.111-0.0014-2.0015-0.6874-3.9423-1.9442-5.5002l-1.3607 1.1008c1.0122 1.2422 1.5617 2.7971 1.5549 4.3994-0.067 3.2595 0.387 6.5086 1.3449 9.6249h-5.7198v1.7499h6.9999c0.1359 6e-4 0.2701-0.0305 0.392-0.0909 0.433-0.2145 0.6101-0.7395 0.3955-1.1725z"/>
  <path d="m14.875 22.75v3.1377l-1.1313 1.1314c-0.3464 0.33-0.8909 0.33-1.2373 0l-1.1313-1.1314v-3.1377h-1.75v3.5c8e-5 0.232 0.09228 0.4545 0.25634 0.6186l1.3878 1.3877c0.4919 0.4925 1.1598 0.7686 1.8558 0.7674 0.696 0.0013 1.3639-0.2749 1.8559-0.7674l1.3877-1.3877c0.1641-0.1641 0.2563-0.3866 0.2563-0.6186v-3.5z"/>
  <path d="m18.375 25.375h-2.6249v1.7499h2.6249c3.3812 0.0039 6.1211 2.7439 6.125 6.125v6.9999h-22.75v-6.9999c0.00386-3.3811 2.7438-6.1211 6.125-6.125h2.6249v-1.7499h-2.6249c-4.347 0.0053-7.8696 3.5279-7.8749 7.8749v7.8749c0 0.4832 0.39178 0.875 0.87502 0.875h24.5c0.4833 0 0.875-0.3918 0.875-0.875v-7.8749c-0.0054-4.347-3.528-7.8696-7.875-7.8749z"/>
  <path d="m16.625 26.25c0 0.07-0.105 6.9999-3.5 6.9999-3.395 0-3.5-6.9308-3.5-6.9999h-1.7499c0 0.357 0.05947 8.75 5.2499 8.75 5.1905 0 5.2499-8.393 5.2499-8.75z"/>
  <path d="m21.875 36.75h-1.7499v4.3749h1.7499z"/>
  <path d="m6.1251 36.75h-1.75v4.3749h1.75z"/>
  <path d="m14 34.125h-1.7499v6.9999h1.7499z"/>
  <path d="m19.736 2.5773-6.2859-2.5147c-0.2-0.07998-0.4224-0.083425-0.6248-0.0095975l-7.0427 2.5611c-0.36044 0.13117-0.68782 0.33977-0.95901 0.61104-1.0249 1.0254-1.0245 2.6874 9e-4 3.7123l2.4316 2.4316c0.16406 0.16414 0.38661 0.25634 0.61859 0.25634h9.6248c0.2321-8e-5 0.4545-0.09228 0.6186-0.25634l2.499-2.4981c0.2515-0.25142 0.4493-0.55133 0.5812-0.8815 0.5385-1.3461-0.1163-2.8738-1.4623-3.4121zm-0.357 3.0564-2.2417 2.2417h-8.9004l-2.1753-2.1726c-0.0904-0.0904-0.15996-0.1995-0.20368-0.31968-0.16521-0.45412 0.0689-0.95622 0.52302-1.1214l6.7287-2.45 5.9761 2.3887c0.1112 0.0443 0.2121 0.11099 0.2966 0.19581 0.3408 0.34272 0.3392 0.89667-0.0034 1.2375z"/>
  <path d="m14 3.5004h-1.7499v3.5h1.7499z"/>
  <path d="m14.875 4.3754h-3.4999v1.75h3.4999z"/>
  <path d="m37.625 20.125h-13.125v1.75h13.125c1.4497 0 2.6249 1.1752 2.6249 2.625v13.125c0 1.4497-1.1752 2.625-2.6249 2.625h-9.6249v1.7499h9.6249c2.415-0.0028 4.372-1.9599 4.3749-4.3749v-13.125c-0.0029-2.415-1.9599-4.3721-4.3749-4.375z"/>
  <path d="m41.125 23.625h-15.75v1.75h15.75z"/>
  <path d="m31.5 15.75h-7.8749v1.75h7.8749c0.4832 0 0.875 0.3917 0.875 0.875v2.625h1.7499v-2.625c0-1.4498-1.1752-2.625-2.6249-2.625z"/>
  <path d="m30.625 16.625h-1.75v4.375h1.75z"/>
  <path d="m27.125 16.625h-1.75v4.375h1.75z"/>
  <path d="m36.75 27.125h-1.7499v5.25h1.7499z"/>
  <path d="m38.5 28.875h-5.25v1.7499h5.25z"/>
  <path d="m38.5 36.75h-1.75v1.75h1.75z"/>
  <path d="m35 36.75h-1.75v1.75h1.75z"/>
  <path d="m31.5 36.75h-1.75v1.75h1.75z"/>
  <path d="m37.625 7.8754h-5.25c-0.4832 0-0.875 0.39177-0.875 0.87501v5.25h1.75v-4.3749h3.4999v8.7499h1.75v-9.625c1e-4 -0.48324-0.3916-0.87493-0.8749-0.87493z"/>
  <path d="m35.875 0.87543h-1.75v7.8749h1.75z"/>
  <path d="m35.875 6.1254h-1.75c-0.4832 0-0.875 0.39177-0.875 0.87501v1.75h3.5v-1.75c0-0.48324-0.3918-0.87501-0.875-0.87501z"/>
  <path d="m37.625 11.375h-2.625v1.75h2.625z"/>
  <path d="m37.625 14.875h-2.625v1.75h2.625z"/>
 </g>
</svg>
