<svg width="55" height="50" viewBox="0 0 55 50" fill="none" xmlns="http://www.w3.org/2000/svg">
<path d="M54.8771 21.0272C54.5676 20.0755 53.7235 19.4017 52.7288 19.3117L39.1613 18.0799L33.7993 5.52651C33.4034 4.60423 32.5027 4.00897 31.5001 4.00897C30.4975 4.00897 29.5963 4.60423 29.203 5.52651L23.841 18.0799L10.2713 19.3117C9.2766 19.4035 8.43428 20.0773 8.12302 21.0272C7.81356 21.9789 8.09936 23.0227 8.85167 23.6825L19.1076 32.6755L16.0837 45.9942C15.8624 46.9735 16.2425 47.9861 17.0551 48.5735C17.4918 48.8909 18.005 49.0494 18.5199 49.0494C18.9624 49.0494 19.4053 48.9317 19.8008 48.6951L31.5001 41.6997L43.1972 48.6951C44.0553 49.2079 45.1343 49.1609 45.945 48.5735C46.7576 47.9861 47.1377 46.9735 46.9165 45.9942L43.8925 32.6755L54.1485 23.6825C54.9004 23.0227 55.1866 21.981 54.8771 21.0272Z" fill="#EBEBEB"/>
<path d="M46.8771 17.0272C46.5676 16.0755 45.7235 15.4017 44.7288 15.3117L31.1613 14.0799L25.7993 1.52651C25.4034 0.604227 24.5027 0.00897217 23.5001 0.00897217C22.4975 0.00897217 21.5963 0.604227 21.203 1.52651L15.841 14.0799L2.27132 15.3117C1.2766 15.4035 0.434278 16.0773 0.123024 17.0272C-0.186437 17.9789 0.0993571 19.0227 0.851674 19.6825L11.1076 28.6755L8.08367 41.9942C7.86242 42.9735 8.24252 43.9861 9.05508 44.5735C9.49184 44.8909 10.005 45.0494 10.5199 45.0494C10.9624 45.0494 11.4053 44.9317 11.8008 44.6951L23.5001 37.6997L35.1972 44.6951C36.0553 45.2079 37.1343 45.1609 37.945 44.5735C38.7576 43.9861 39.1377 42.9735 38.9165 41.9942L35.8925 28.6755L46.1485 19.6825C46.9004 19.0227 47.1866 17.981 46.8771 17.0272Z" fill="#FFC444"/>
</svg>
