<svg width="42" height="41" viewBox="0 0 42 41" fill="none" xmlns="http://www.w3.org/2000/svg">
<g clip-path="url(#clip0)">
<path d="M0.871657 19.7681L10.3189 23.2941L13.9755 35.0539C14.2095 35.807 15.1305 36.0854 15.7418 35.5856L21.0078 31.2927C21.5598 30.8429 22.3461 30.8205 22.923 31.2392L32.421 38.135C33.075 38.6103 34.0014 38.252 34.1654 37.4618L41.1233 3.99336C41.3023 3.13017 40.4541 2.41008 39.6322 2.72796L0.860587 17.6849C-0.0962161 18.0539 -0.0878795 19.4085 0.871657 19.7681ZM13.3862 21.4171L31.8496 10.0455C32.1814 9.84174 32.5228 10.2904 32.2379 10.5547L17.0002 24.7189C16.4646 25.2174 16.1191 25.8846 16.0213 26.6088L15.5022 30.4554C15.4335 30.969 14.712 31.02 14.5703 30.523L12.574 23.5085C12.3454 22.7085 12.6786 21.8539 13.3862 21.4171Z" fill="#53D8FF"/>
</g>
<defs>
<clipPath id="clip0">
<rect width="41" height="41" fill="white" transform="translate(0.147461)"/>
</clipPath>
</defs>
</svg>
