<svg width="76" height="76" viewBox="0 0 76 76" fill="none" xmlns="http://www.w3.org/2000/svg">
<path d="M7.81598 53.4439C13.3986 53.9549 19.1765 55.3807 24.9299 57.7208V63.739L1.33594 59.5423V9.63818L7.81598 10.7898V53.4439ZM37.9858 64.7953V66.0609L33.2438 65.2172V61.7623C34.8341 62.6645 36.4122 63.639 37.9764 64.6845V64.8077C37.9795 64.8031 37.9826 64.7999 37.9858 64.7953Z" stroke="#51C65E" stroke-width="2" stroke-miterlimit="10" stroke-linecap="round" stroke-linejoin="round"/>
<path d="M38.1629 17.4724V64.8081L38.0742 64.7925L38.0231 64.7836L37.9965 64.7791L37.9854 64.7769L37.9765 64.7747V17.6945C37.9787 17.69 37.9832 17.6855 37.9854 17.6811V17.4412L37.9988 17.4434L38.0232 17.4479L38.0743 17.4568L38.1343 17.4679L38.1629 17.4724ZM12.4331 48.4727C16.0912 48.3941 20.5005 49.6428 24.9299 52.2185V57.7209C19.1764 55.3808 13.3984 53.9551 7.81592 53.444V6.1095C9.34171 6.24799 10.8828 6.45743 12.4331 6.73457V48.4727ZM37.9762 64.5259V64.6844C36.412 63.639 34.8339 62.6645 33.2436 61.7623V58.7647C34.9078 60.4721 36.5013 62.3934 37.9762 64.5259Z" stroke="#51C65E" stroke-width="2" stroke-miterlimit="10" stroke-linecap="round" stroke-linejoin="round"/>
<path d="M38.1627 17.4724V64.8081C38.1494 64.7992 38.1382 64.7904 38.125 64.7836C38.1073 64.7702 38.0918 64.7591 38.0739 64.7479C38.0606 64.739 38.0474 64.7303 38.0339 64.7235C38.0183 64.7101 38.0006 64.699 37.985 64.6902C37.9828 64.688 37.9784 64.6858 37.9761 64.6835V17.6944C37.9784 17.69 37.9828 17.6855 37.985 17.6811V17.4256C37.9561 17.3811 37.9273 17.3369 37.894 17.2946C37.9252 17.3122 37.9539 17.3323 37.985 17.3544C38.0138 17.372 38.0449 17.3921 38.0738 17.4121C38.0915 17.4233 38.107 17.4342 38.1249 17.4477C38.1293 17.45 38.136 17.4544 38.1404 17.4566C38.1473 17.4636 38.1562 17.4681 38.1627 17.4724Z" stroke="#51C65E" stroke-width="2" stroke-miterlimit="10" stroke-linecap="round" stroke-linejoin="round"/>
<path d="M37.9854 17.4253V17.6809C37.9823 17.6855 37.9793 17.6901 37.9762 17.6948V64.5257C36.5014 62.3934 34.9079 60.4721 33.2436 58.7646C30.5909 56.0425 27.7565 53.8595 24.9299 52.2183C20.5005 49.6427 16.0912 48.394 12.4331 48.4725V1.35831C19.5505 1.20898 29.5147 6.08026 36.9401 15.9705C37.2634 16.4016 37.5836 16.8435 37.8947 17.2946C37.9268 17.3376 37.9562 17.3808 37.9854 17.4253Z" stroke="#51C65E" stroke-width="2" stroke-miterlimit="10" stroke-linecap="round" stroke-linejoin="round"/>
<path d="M38.1721 17.6945V64.808C38.1698 64.8035 38.1654 64.799 38.1631 64.7946C38.1587 64.7901 38.1565 64.7835 38.152 64.779C38.1387 64.7613 38.1275 64.7413 38.1143 64.7235C38.1009 64.7034 38.0877 64.6858 38.0742 64.668C38.0453 64.6236 38.0165 64.5814 37.9855 64.5391C37.9855 64.5347 37.981 64.5302 37.9766 64.5258V17.6945C37.9788 17.69 37.9832 17.6856 37.9855 17.6811V17.4257C37.9921 17.4323 37.9966 17.4368 37.9988 17.4433C38.0033 17.4478 38.0055 17.4522 38.0077 17.4567C38.0122 17.4611 38.0144 17.4634 38.0144 17.4678C38.0365 17.4968 38.0566 17.5256 38.0742 17.5545C38.1054 17.5967 38.1341 17.6388 38.163 17.6811C38.1652 17.6856 38.1697 17.69 38.1721 17.6945Z" stroke="#51C65E" stroke-width="2" stroke-miterlimit="10" stroke-linecap="round" stroke-linejoin="round"/>
<path d="M74.8125 9.6377V59.5428L38.1631 66.0607V64.7948C38.1653 64.7993 38.1698 64.8037 38.172 64.8082V64.6838C48.0278 58.0948 58.4854 54.3462 68.3323 53.4446V10.7902L74.8125 9.6377Z" stroke="#51C65E" stroke-width="2" stroke-miterlimit="10" stroke-linecap="round" stroke-linejoin="round"/>
<path d="M38.1723 17.6946V64.7749L38.1634 64.7771L38.1522 64.7793L38.1257 64.7838L38.0746 64.7927L37.9858 64.8083V17.4726L38.0146 17.4681L38.0745 17.457L38.1255 17.4481L38.15 17.4436L38.1634 17.4414V17.6813C38.1655 17.6857 38.1699 17.6902 38.1723 17.6946Z" stroke="#51C65E" stroke-width="2" stroke-miterlimit="10" stroke-linecap="round" stroke-linejoin="round"/>
<path d="M68.3321 6.10876V53.4444C58.4852 54.3461 48.0277 58.0947 38.1719 64.6837V64.5261C45.6825 53.6643 56.26 48.3145 63.7151 48.4721V6.73502C65.2653 6.45744 66.8065 6.24859 68.3321 6.10876Z" stroke="#51C65E" stroke-width="2" stroke-miterlimit="10" stroke-linecap="round" stroke-linejoin="round"/>
<path d="M38.163 17.6809C38.1653 17.6854 38.1697 17.6898 38.1719 17.6943V64.6834C38.1697 64.6856 38.1653 64.6878 38.163 64.6901C38.1474 64.699 38.1298 64.7101 38.1142 64.7233C38.1008 64.73 38.0876 64.7389 38.0741 64.7478C38.0565 64.7589 38.0409 64.7699 38.0231 64.7834C38.0097 64.7901 37.9986 64.799 37.9854 64.8079V17.4722C37.992 17.4678 38.0009 17.4633 38.0075 17.4566C38.0119 17.4544 38.0186 17.45 38.0231 17.4477C38.0407 17.4344 38.0563 17.4233 38.0741 17.4121C38.1031 17.3921 38.1339 17.372 38.1629 17.3544C38.1941 17.3323 38.2229 17.3122 38.2539 17.2946C38.2206 17.3367 38.1917 17.3811 38.1629 17.4256V17.6809H38.163Z" stroke="#51C65E" stroke-width="2" stroke-miterlimit="10" stroke-linecap="round" stroke-linejoin="round"/>
<path d="M63.7154 1.35853V48.472C56.2603 48.3144 45.6828 53.664 38.1721 64.526V17.6945C38.1699 17.6901 38.1655 17.6856 38.1632 17.6812V17.4257C38.1922 17.3812 38.221 17.3369 38.2542 17.2946C38.5674 16.8438 38.8849 16.4018 39.2113 15.971C46.6355 6.08003 56.598 1.2098 63.7154 1.35853ZM33.2439 58.7648V74.7934L29.087 70.6365L24.9302 74.7934V52.2184C27.7569 53.8597 30.5911 56.0428 33.2439 58.7648Z" stroke="#51C65E" stroke-width="2" stroke-miterlimit="10" stroke-linecap="round" stroke-linejoin="round"/>
</svg>
