<svg width="26" height="26" viewBox="0 0 26 26" fill="none" xmlns="http://www.w3.org/2000/svg">
<path d="M22.3168 0.866667H21.0168V0.433333C21.0168 0.194025 20.8228 0 20.5835 0C20.3442 0 20.1502 0.194025 20.1502 0.433333V0.866667H19.2835V0.433333C19.2835 0.194025 19.0895 0 18.8502 0C18.6109 0 18.4168 0.194025 18.4168 0.433333V0.866667H17.5502V0.433333C17.5502 0.194025 17.3561 0 17.1168 0C16.8775 0 16.6835 0.194025 16.6835 0.433333V0.866667H15.8168V0.433333C15.8168 0.194025 15.6228 0 15.3835 0C15.1442 0 14.9502 0.194025 14.9502 0.433333V0.866667H8.8835V0.433333C8.8835 0.194025 8.68947 0 8.45016 0C8.21085 0 8.01683 0.194025 8.01683 0.433333V0.866667H7.15016V0.433333C7.15016 0.194025 6.95614 0 6.71683 0C6.47752 0 6.2835 0.194025 6.2835 0.433333V0.866667H5.41683V0.433333C5.41683 0.194025 5.2228 0 4.9835 0C4.74419 0 4.55016 0.194025 4.55016 0.433333V0.866667H3.6835V0.433333C3.6835 0.194025 3.48947 0 3.25016 0C3.01085 0 2.81683 0.194025 2.81683 0.433333V0.866667H1.51683C1.27752 0.866667 1.0835 1.06069 1.0835 1.3V21.6667C1.0835 21.906 1.27752 22.1 1.51683 22.1H14.1052C14.3445 22.1006 14.539 21.9071 14.5396 21.6677C14.5396 21.6573 14.5393 21.6468 14.5385 21.6363L14.535 21.5861C14.5255 21.4691 14.5168 21.3521 14.5168 21.2333C14.5182 20.8044 14.5688 20.3771 14.6676 19.9598C14.764 19.5443 14.9081 19.1414 15.0971 18.759C15.1157 18.7209 15.1326 18.6823 15.1521 18.6446C15.2097 18.5345 15.2721 18.4279 15.3367 18.3218C15.3571 18.2884 15.377 18.2542 15.3982 18.2212C15.4684 18.1112 15.5424 18.0039 15.6201 17.8993C15.6361 17.8772 15.6526 17.8559 15.6691 17.8334C15.7557 17.7201 15.8457 17.6104 15.939 17.5041L15.952 17.4898C16.571 16.7989 17.3491 16.2693 18.2188 15.9467L18.2951 15.9185C18.4121 15.8773 18.5308 15.8409 18.6508 15.8071C18.705 15.792 18.76 15.7781 18.8151 15.7638C18.9165 15.7387 19.0183 15.7153 19.1214 15.6958C19.2081 15.6797 19.2982 15.6676 19.3871 15.6555C19.4655 15.6442 19.5431 15.6316 19.6224 15.6243C19.7957 15.6078 19.9721 15.5974 20.1502 15.5974C20.2676 15.5974 20.3833 15.6065 20.4968 15.6143L20.551 15.6182C20.5545 15.6182 20.5584 15.6182 20.5618 15.6182C21.1089 15.6593 21.6471 15.7797 22.1595 15.9757C22.3825 16.0626 22.6337 15.9522 22.7206 15.7292C22.7401 15.6792 22.7501 15.626 22.7502 15.5723V1.3C22.7502 1.06069 22.5561 0.866667 22.3168 0.866667ZM14.5402 17.9673C14.5251 17.992 14.509 18.0154 14.4952 18.0401C14.4328 18.1497 14.3764 18.2628 14.3218 18.3764C14.2911 18.4388 14.2599 18.5007 14.2313 18.5644C14.184 18.6689 14.1398 18.7755 14.0982 18.8829C14.0939 18.8938 14.0891 18.9037 14.0848 18.9146V16.9H15.3202C15.0249 17.2285 14.7636 17.5861 14.5402 17.9673ZM16.6835 15.7447C16.5344 15.8392 16.3906 15.9397 16.2502 16.0455V16.0333H14.0835V13.4333H16.6835V15.7447ZM16.6835 12.5667H14.0835V9.96667H16.6835V12.5667ZM16.6835 9.1H14.0835V6.5H16.6835V9.1ZM20.1502 9.96667V12.5667H17.5502V9.96667H20.1502ZM17.5502 9.1V6.5H20.1502V9.1H17.5502ZM20.151 14.7333C19.9482 14.7333 19.748 14.745 19.5496 14.7637C19.4629 14.7715 19.3819 14.7849 19.2978 14.7957C19.1916 14.81 19.0859 14.8248 18.9815 14.8443C18.877 14.8638 18.7622 14.8876 18.6539 14.914C18.5876 14.9301 18.5213 14.947 18.4554 14.9652C18.3254 15.0007 18.1954 15.0393 18.0654 15.0826C18.0489 15.0887 18.0329 15.0952 18.0164 15.1008C17.8587 15.1558 17.7027 15.2135 17.551 15.2798V13.4333H20.151V14.7333ZM21.8835 14.9725C21.5991 14.8928 21.3095 14.8327 21.0168 14.7927V6.06667C21.0168 5.82736 20.8228 5.63333 20.5835 5.63333H3.25016C3.01085 5.63333 2.81683 5.82736 2.81683 6.06667V19.9333C2.81683 20.1726 3.01085 20.3667 3.25016 20.3667H13.7147C13.6739 20.6538 13.6523 20.9433 13.6502 21.2333H1.95016V4.76667H21.8835V14.9725ZM10.6168 16.0333V13.4333H13.2168V16.0333H10.6168ZM13.2168 16.9V19.5H10.6168V16.9H13.2168ZM10.6168 12.5667V9.96667H13.2168V12.5667H10.6168ZM10.6168 9.1V6.5H13.2168V9.1H10.6168ZM7.15016 16.0333V13.4333H9.75016V16.0333H7.15016ZM9.75016 16.9V19.5H7.15016V16.9H9.75016ZM7.15016 12.5667V9.96667H9.75016V12.5667H7.15016ZM7.15016 9.1V6.5H9.75016V9.1H7.15016ZM3.6835 16.0333V13.4333H6.2835V16.0333H3.6835ZM6.2835 16.9V19.5H3.6835V16.9H6.2835ZM3.6835 12.5667V9.96667H6.2835V12.5667H3.6835ZM3.6835 9.1V6.5H6.2835V9.1H3.6835ZM21.8835 3.9H1.95016V1.73333H2.81683V2.16667C2.81683 2.40598 3.01085 2.6 3.25016 2.6C3.48947 2.6 3.6835 2.40598 3.6835 2.16667V1.73333H4.55016V2.16667C4.55016 2.40598 4.74419 2.6 4.9835 2.6C5.2228 2.6 5.41683 2.40598 5.41683 2.16667V1.73333H6.2835V2.16667C6.2835 2.40598 6.47752 2.6 6.71683 2.6C6.95614 2.6 7.15016 2.40598 7.15016 2.16667V1.73333H8.01683V2.16667C8.01683 2.40598 8.21085 2.6 8.45016 2.6C8.68947 2.6 8.8835 2.40598 8.8835 2.16667V1.73333H14.9502V2.16667C14.9502 2.40598 15.1442 2.6 15.3835 2.6C15.6228 2.6 15.8168 2.40598 15.8168 2.16667V1.73333H16.6835V2.16667C16.6835 2.40598 16.8775 2.6 17.1168 2.6C17.3561 2.6 17.5502 2.40598 17.5502 2.16667V1.73333H18.4168V2.16667C18.4168 2.40598 18.6109 2.6 18.8502 2.6C19.0895 2.6 19.2835 2.40598 19.2835 2.16667V1.73333H20.1502V2.16667C20.1502 2.40598 20.3442 2.6 20.5835 2.6C20.8228 2.6 21.0168 2.40598 21.0168 2.16667V1.73333H21.8835V3.9Z" fill="#6165D7"/>
<path d="M20.15 16.4667C17.5174 16.4667 15.3833 18.6008 15.3833 21.2333C15.3833 23.8659 17.5174 26 20.15 26C22.7825 26 24.9166 23.8659 24.9166 21.2333C24.9135 18.6021 22.7812 16.4698 20.15 16.4667ZM20.15 25.1333C17.9961 25.1333 16.25 23.3872 16.25 21.2333C16.25 19.0794 17.9961 17.3333 20.15 17.3333C22.3039 17.3333 24.05 19.0794 24.05 21.2333C24.0476 23.3863 22.3029 25.131 20.15 25.1333Z" fill="#6165D7"/>
<path d="M22.6123 18.7603C22.4444 18.5981 22.1781 18.5981 22.0102 18.7603L20.1499 20.6206L19.1563 19.627C18.9841 19.4607 18.7098 19.4655 18.5435 19.6376C18.3813 19.8055 18.3813 20.0718 18.5435 20.2397L19.8435 21.5397C20.0128 21.7089 20.2871 21.7089 20.4563 21.5397L22.6229 19.3731C22.7892 19.2009 22.7845 18.9266 22.6123 18.7603Z" fill="#6165D7"/>
</svg>
