<svg width="47" height="41" viewBox="0 0 47 41" fill="none" xmlns="http://www.w3.org/2000/svg">
<path d="M11.365 32.1615C9.98678 32.1615 8.86548 33.2828 8.86548 34.6611C8.86548 36.0394 9.98678 37.1607 11.365 37.1607C12.7433 37.1607 13.8645 36.0394 13.8645 34.6611C13.8645 33.2828 12.7432 32.1615 11.365 32.1615ZM11.365 35.7838C10.746 35.7838 10.2424 35.2802 10.2424 34.6612C10.2424 34.0421 10.7459 33.5385 11.365 33.5385C11.9841 33.5385 12.4876 34.0421 12.4876 34.6612C12.4876 35.2801 11.984 35.7838 11.365 35.7838Z" fill="black"/>
<path d="M35.6324 32.1615C34.2556 32.1615 33.1355 33.2828 33.1355 34.6611C33.1355 36.0394 34.2556 37.1607 35.6324 37.1607C37.0107 37.1607 38.132 36.0394 38.132 34.6611C38.132 33.2828 37.0107 32.1615 35.6324 32.1615ZM35.6324 35.7838C35.0148 35.7838 34.5124 35.2802 34.5124 34.6612C34.5124 34.0421 35.0149 33.5385 35.6324 33.5385C36.2514 33.5385 36.755 34.0421 36.755 34.6612C36.755 35.2801 36.2514 35.7838 35.6324 35.7838Z" fill="black"/>
<path d="M10.4387 17.9514H12.0895V19.6023C12.0895 20.5343 12.8465 21.2926 13.7771 21.2926H15.2369C16.1675 21.2926 16.9247 20.5344 16.9247 19.6023V17.9514H18.5781C19.5088 17.9514 20.2658 17.1932 20.2658 16.2611V14.8038C20.2658 13.8718 19.5088 13.1134 18.5781 13.1134H16.9247V11.4627C16.9247 10.532 16.1675 9.77496 15.2369 9.77496H13.7771C12.8465 9.77496 12.0895 10.5321 12.0895 11.4627V13.1135H10.4387C9.50667 13.1135 8.74834 13.8718 8.74834 14.8039V16.2612C8.74834 17.1932 9.50667 17.9514 10.4387 17.9514ZM10.1253 14.8039C10.1253 14.6311 10.2658 14.4905 10.4387 14.4905H12.7779C13.1583 14.4905 13.4664 14.1822 13.4664 13.802V11.4627C13.4664 11.2942 13.6087 11.1519 13.7771 11.1519H15.2369C15.4054 11.1519 15.5477 11.2942 15.5477 11.4627V13.802C15.5477 14.1822 15.8559 14.4905 16.2362 14.4905H18.5781C18.7466 14.4905 18.8889 14.634 18.8889 14.8039V16.2612C18.8889 16.4311 18.7466 16.5745 18.5781 16.5745H16.2362C15.8559 16.5745 15.5477 16.8828 15.5477 17.263V19.6024C15.5477 19.7722 15.4054 19.9158 15.2369 19.9158H13.7771C13.6087 19.9158 13.4664 19.7723 13.4664 19.6024V17.263C13.4664 16.8828 13.1583 16.5745 12.7779 16.5745H10.4387C10.2658 16.5745 10.1253 16.434 10.1253 16.2612V14.8039Z" fill="black"/>
<path d="M5.33064 11.5162C5.71096 11.5162 6.01912 11.2079 6.01912 10.8277V9.65674C6.01912 9.27652 5.71096 8.96826 5.33064 8.96826C4.95033 8.96826 4.64217 9.27652 4.64217 9.65674V10.8277C4.64217 11.2079 4.95042 11.5162 5.33064 11.5162Z" fill="black"/>
<path d="M23.686 11.5162C24.0663 11.5162 24.3745 11.2079 24.3745 10.8277V9.65674C24.3745 9.27652 24.0663 8.96826 23.686 8.96826C23.3057 8.96826 22.9975 9.27652 22.9975 9.65674V10.8277C22.9975 11.2079 23.3058 11.5162 23.686 11.5162Z" fill="black"/>
<path d="M45.8706 30.5211C45.8706 30.5211 45.8713 23.1646 45.8718 23.1082C45.8771 22.5415 45.8338 22.4237 45.5308 21.8651C45.5308 21.8651 40.3395 12.2213 40.2974 12.1384C39.8751 11.3087 39.5972 11.2244 38.5831 11.2244H37.6167V9.82078C37.6167 8.08664 36.206 6.67582 34.4718 6.67582C32.7392 6.67582 31.3295 8.08664 31.3295 9.82078V11.2244H28.0461V7.04163C28.0461 6.40226 27.5247 5.88214 26.884 5.88214H2.13005C1.49069 5.88214 0.970568 6.40226 0.970568 7.04163V30.5688C0.405375 30.7755 0 31.318 0 31.9549V34.0497C0 34.8642 0.661397 35.5267 1.47435 35.5267H5.89161C6.30837 38.1726 8.60384 40.2028 11.365 40.2028C14.1262 40.2028 16.4216 38.1726 16.8384 35.5267H22.1143C22.4946 35.5267 22.8028 35.2184 22.8028 34.8382C22.8028 34.458 22.4946 34.1497 22.1143 34.1497H16.8822C16.8054 33.3184 16.5444 32.5399 16.1405 31.855H27.3576H30.8569C30.4529 32.5399 30.192 33.3183 30.1154 34.1497H25.281C24.9007 34.1497 24.5926 34.458 24.5926 34.8382C24.5926 35.2184 24.9007 35.5267 25.281 35.5267H30.1589C30.5756 38.1726 32.8711 40.2028 35.6322 40.2028C38.3947 40.2028 40.6913 38.1726 41.1082 35.5267H45.5229C46.3372 35.5267 46.9998 34.8641 46.9998 34.0497V31.9549C47 31.2604 46.5175 30.6779 45.8706 30.5211ZM5.86362 34.0061C5.8593 34.0423 5.85435 34.0782 5.85077 34.1145C5.84966 34.1263 5.84764 34.1379 5.84663 34.1497H1.47435C1.42248 34.1497 1.37695 34.103 1.37695 34.0497V31.9549C1.37695 31.9017 1.42239 31.855 1.47435 31.855H6.58386C6.19684 32.5111 5.95303 33.2405 5.86362 34.0061ZM11.365 38.8258C9.0687 38.8258 7.20055 36.9576 7.20055 34.6612C7.20055 32.3648 9.0688 30.4966 11.365 30.4966C13.6612 30.4966 15.5295 32.3648 15.5295 34.6612C15.5295 36.9576 13.6612 38.8258 11.365 38.8258ZM26.6691 30.478H14.9932C14.0202 29.6329 12.7518 29.1197 11.3649 29.1197C9.97804 29.1197 8.70959 29.633 7.73664 30.478H2.34752V27.5379H26.6691V30.478ZM26.6691 11.9128V23.4078H15.7938C15.4135 23.4078 15.1054 23.7161 15.1054 24.0963C15.1054 24.4765 15.4135 24.7848 15.7938 24.7848H26.6692V26.161H2.34752V24.7848H12.614C12.9943 24.7848 13.3025 24.4765 13.3025 24.0963C13.3025 23.7161 12.9943 23.4078 12.614 23.4078H2.34752V7.259H26.6691V11.9128ZM40.9647 16.2912L44.0297 21.9818H35.9811C35.8028 21.9818 35.6522 21.8311 35.6522 21.6528V16.6175C35.6522 16.4406 35.8028 16.2912 35.9811 16.2912H40.9647ZM32.7065 9.82069C32.7065 8.8458 33.4984 8.05268 34.4718 8.05268C35.4466 8.05268 36.2398 8.8458 36.2398 9.82069V11.2244H32.7065V9.82069ZM39.7971 34.7576C39.7963 34.7741 39.7958 34.7902 39.795 34.8083C39.7946 34.8168 39.7952 34.8252 39.7951 34.8337C39.7042 37.0502 37.8723 38.8257 35.6324 38.8257C33.3361 38.8257 31.468 36.9575 31.468 34.6611C31.468 32.3647 33.3362 30.4965 35.6324 30.4965C37.9301 30.4965 39.7995 32.3647 39.7995 34.6611C39.7995 34.6935 39.7978 34.7255 39.7971 34.7576ZM40.3251 30.478H39.2623C38.2889 29.6329 37.0199 29.1197 35.6324 29.1197C34.2456 29.1197 32.9771 29.633 32.0042 30.478H28.0461V12.6013C28.0461 12.6013 38.7429 12.6013 38.8124 12.6019C38.9211 12.6029 39.02 12.6643 39.0693 12.7612C39.0696 12.7618 39.0698 12.7623 39.0701 12.7628C39.1165 12.8537 40.2231 14.9143 40.2231 14.9143H35.9811C35.0404 14.9143 34.2752 15.6784 34.2752 16.6176V21.6528C34.2752 22.595 35.039 23.3588 35.9812 23.3588H44.4937V25.2424H41.4013C40.8078 25.2424 40.3251 25.7263 40.3251 26.3212V30.478ZM44.4937 26.6193V30.478H41.702V26.6193H44.4937ZM45.623 34.0496C45.623 34.1038 45.5772 34.1496 45.5231 34.1496H41.1535C41.1524 34.1377 41.1504 34.126 41.1492 34.1142C41.1457 34.0786 41.1409 34.0433 41.1367 34.0079C41.0473 33.2416 40.8035 32.5116 40.4162 31.8549H45.5232C45.5773 31.8549 45.6231 31.9007 45.6231 31.9548V34.0496H45.623Z" fill="black"/>
<path d="M34.4718 3.8501C34.8521 3.8501 35.1603 3.54185 35.1603 3.16163V1.48578C35.1603 1.10556 34.8521 0.797302 34.4718 0.797302C34.0915 0.797302 33.7834 1.10556 33.7834 1.48578V3.16163C33.7834 3.54185 34.0916 3.8501 34.4718 3.8501Z" fill="black"/>
<path d="M30.7118 5.38491C30.8449 5.58144 31.0617 5.68728 31.2824 5.68728C31.4153 5.68728 31.5496 5.64891 31.6679 5.56868C31.9827 5.35544 32.0649 4.92739 31.8517 4.61253L30.7145 2.93411C30.5012 2.61925 30.0731 2.537 29.7583 2.75034C29.4436 2.96358 29.3613 3.39163 29.5746 3.70649L30.7118 5.38491Z" fill="black"/>
<path d="M37.2786 5.56877C37.3969 5.6489 37.5312 5.68737 37.6641 5.68737C37.8848 5.68737 38.1016 5.58143 38.2347 5.38499L39.3717 3.70648C39.5849 3.39171 39.5027 2.96357 39.1878 2.75033C38.8732 2.53717 38.445 2.61942 38.2317 2.9342L37.0947 4.61261C36.8814 4.92738 36.9638 5.35543 37.2786 5.56877Z" fill="black"/>
</svg>
