<svg width="81" height="81" viewBox="0 0 81 81" fill="none" xmlns="http://www.w3.org/2000/svg">
<path d="M40.5 80.3769C62.5234 80.3769 80.3769 62.5234 80.3769 40.5C80.3769 18.4766 62.5234 0.623108 40.5 0.623108C18.4766 0.623108 0.623047 18.4766 0.623047 40.5C0.623047 62.5234 18.4766 80.3769 40.5 80.3769Z" fill="#DDDCE0"/>
<path d="M22.8888 6.75848H19.2577C19.9497 6.32194 20.6516 5.90008 21.3714 5.50582H22.8888C23.2345 5.50582 23.515 5.78621 23.515 6.13213C23.515 6.47805 23.2345 6.75848 22.8888 6.75848ZM39.4583 12.643C39.4583 12.989 39.7387 13.2694 40.0847 13.2694H44.0235C44.3679 13.2694 44.6497 12.9875 44.6497 12.6431C44.6497 12.2986 44.3679 12.0167 44.0235 12.0167H40.0847C39.7387 12.0167 39.4583 12.2971 39.4583 12.643ZM45.9199 12.643C45.9199 12.989 46.2003 13.2694 46.5462 13.2694H47.3116C47.6561 13.2694 47.9379 12.9875 47.9379 12.6431C47.9379 12.2986 47.6561 12.0167 47.3116 12.0167H46.5462C46.2003 12.0167 45.9199 12.2971 45.9199 12.643ZM34.9009 6.13213C34.9009 5.78621 34.6205 5.5058 34.2745 5.5058H26.3885C26.0426 5.5058 25.7622 5.78621 25.7622 6.13213C25.7622 6.47804 26.0426 6.75846 26.3885 6.75846H34.2745C34.6205 6.75846 34.9009 6.47804 34.9009 6.13213ZM62.4934 12.2804C62.1475 12.2804 61.8671 12 61.8671 11.6541C61.8671 11.3082 62.1475 11.0278 62.4934 11.0278H67.3598C67.807 11.4356 68.2455 11.8529 68.6737 12.2804H62.4934ZM56.8252 11.6542C56.8252 12.0001 57.1056 12.2805 57.4515 12.2805H60.0207C60.3651 12.2805 60.647 11.9987 60.647 11.6542C60.647 11.3097 60.3651 11.0278 60.0207 11.0278H57.4515C57.1056 11.0278 56.8252 11.3082 56.8252 11.6542ZM73.5427 55.4383H77.4734C77.303 55.8597 77.1252 56.2769 76.941 56.691H73.5427C73.1968 56.691 72.9164 56.4106 72.9164 56.0647C72.9164 55.7187 73.1968 55.4383 73.5427 55.4383ZM70.7266 56.691H71.3162C71.6621 56.691 71.9425 56.4106 71.9425 56.0646C71.9425 55.7187 71.6621 55.4383 71.3162 55.4383H70.7266C70.3807 55.4383 70.1003 55.7187 70.1003 56.0646V56.0647C70.1003 56.4106 70.3807 56.691 70.7266 56.691ZM18.2938 46.6006C18.2938 46.2547 18.0134 45.9743 17.6674 45.9743L7.69368 45.9743C7.34914 45.9743 7.0674 46.2561 7.0674 46.6006C7.0674 46.9451 7.34914 47.2269 7.69368 47.2269H17.6674C18.0134 47.2269 18.2938 46.9465 18.2938 46.6006ZM19.2666 46.6006C19.2666 46.9465 19.547 47.2269 19.8929 47.2269H22.8887C23.2346 47.2269 23.515 46.9465 23.515 46.6006C23.515 46.2547 23.2346 45.9743 22.8887 45.9743H19.8929C19.547 45.9743 19.2666 46.2547 19.2666 46.6006ZM69.9624 35.5458C69.9624 35.1999 69.682 34.9195 69.3361 34.9195L59.3624 34.9195C59.0178 34.9195 58.7361 35.2013 58.7361 35.5458C58.7361 35.8903 59.0178 36.1721 59.3624 36.1721H69.3361C69.682 36.1721 69.9624 35.8917 69.9624 35.5458ZM70.9353 35.5458C70.9353 35.8917 71.2157 36.1721 71.5616 36.1721H74.5574C74.9033 36.1721 75.1837 35.8917 75.1837 35.5458C75.1837 35.1999 74.9033 34.9195 74.5574 34.9195H71.5616C71.2157 34.9195 70.9353 35.1999 70.9353 35.5458ZM48.2725 73.7158H53.8524C54.1983 73.7158 54.4787 73.9962 54.4787 74.3422C54.4787 74.6881 54.1983 74.9685 53.8524 74.9685H48.2725C47.9279 74.9685 47.6461 74.6866 47.6461 74.3421C47.6461 73.9977 47.9279 73.7158 48.2725 73.7158ZM55.8775 73.7158H56.8973C57.2432 73.7158 57.5236 73.9962 57.5236 74.3422C57.5236 74.6881 57.2432 74.9685 56.8973 74.9685H55.8775C55.5329 74.9685 55.2511 74.6866 55.2511 74.3421C55.2511 73.9977 55.5329 73.7158 55.8775 73.7158ZM31.2975 71.6942L23.3533 71.6942C23.0074 71.6942 22.7269 71.9746 22.7269 72.3205C22.7269 72.6665 23.0073 72.9469 23.3532 72.9469L31.2974 72.9469C31.642 72.9469 31.9238 72.665 31.9238 72.3205C31.9238 71.9761 31.6421 71.6942 31.2975 71.6942ZM21.0991 72.3205C21.0991 71.9746 20.8187 71.6942 20.4728 71.6942H19.7997C19.4538 71.6942 19.1734 71.9746 19.1734 72.3205C19.1734 72.6665 19.4537 72.9469 19.7996 72.9469H20.4727C20.8186 72.9469 21.0991 72.6665 21.0991 72.3205ZM12.3278 23.472C12.3278 23.1261 12.0474 22.8457 11.7015 22.8457H10.66C10.3141 22.8457 10.0337 23.1261 10.0337 23.472C10.0337 23.8179 10.3141 24.0983 10.66 24.0983H11.7015C12.0474 24.0983 12.3278 23.8179 12.3278 23.472ZM7.75026 24.0983H4.15479C4.34494 23.6774 4.53873 23.2586 4.74303 22.8456H7.75026C8.09618 22.8456 8.37668 23.1261 8.37668 23.472C8.37668 23.8179 8.09617 24.0983 7.75026 24.0983Z" fill="#C9C8CE"/>
<path d="M65.434 25.8846V58.6876C65.434 62.4133 62.4137 65.4337 58.688 65.4337H25.8847C22.159 65.4337 19.1387 62.4134 19.1387 58.6876V25.8846C19.1387 22.1589 22.159 19.1385 25.8847 19.1385H58.688C62.4137 19.1386 65.434 22.1589 65.434 25.8846Z" fill="#C9C8CE"/>
<path d="M63.7138 24.1649V56.9679C63.7138 60.6937 60.6935 63.714 56.9678 63.714H24.1645C20.4388 63.714 17.4185 60.6937 17.4185 56.9679V24.1649C17.4185 20.4392 20.4388 17.4189 24.1645 17.4189H56.9678C60.6935 17.4189 63.7138 20.4392 63.7138 24.1649Z" fill="#66B071"/>
<path d="M63.7131 24.1637V56.9659C63.7131 60.6939 60.6909 63.716 56.9629 63.716H24.1663C21.4767 63.716 19.1515 62.1426 18.064 59.858C18.9432 60.2743 19.9207 60.5059 20.9561 60.5059H41.6567C52.0651 60.5059 60.5028 52.0682 60.5028 41.6598V20.9533C60.5028 19.9179 60.2715 18.9404 59.8549 18.0671C62.1339 19.1488 63.7131 21.4681 63.7131 24.1637Z" fill="#479E60"/>
<path d="M35.6406 49.4974C35.0051 49.4974 34.3697 49.2548 33.8846 48.7703L28.2975 43.1838C27.3273 42.2136 27.3274 40.6409 28.297 39.6712C29.2671 38.7011 30.8393 38.7011 31.8095 39.6712L35.6406 43.5012L47.9026 31.2397C48.8717 30.2695 50.4456 30.2695 51.4146 31.2397C52.3848 32.2093 52.3848 33.7821 51.4146 34.7517L37.3966 48.7698C36.9121 49.2548 36.2761 49.4974 35.6406 49.4974Z" fill="white"/>
<path d="M37.2041 19.9238C37.2041 20.3516 36.8512 20.7047 36.4174 20.7047H26.3472C25.9191 20.7047 25.5664 20.3516 25.5664 19.9238C25.5664 19.4899 25.9191 19.1369 26.3472 19.1369H36.4174C36.8512 19.1369 37.2041 19.4899 37.2041 19.9238ZM46.8695 19.9238C46.8695 20.3516 46.5166 20.7047 46.0828 20.7047H39.541C39.1072 20.7047 38.7543 20.3516 38.7543 19.9238C38.7543 19.4899 39.1072 19.1369 39.541 19.1369H46.0828C46.5166 19.1369 46.8695 19.4899 46.8695 19.9238ZM20.6037 36.9352C20.1758 36.9352 19.8228 36.5823 19.8228 36.1484V26.0782C19.8228 25.6502 20.1758 25.2974 20.6037 25.2974C21.0375 25.2974 21.3905 25.6502 21.3905 26.0782V36.1484C21.3905 36.5823 21.0375 36.9352 20.6037 36.9352ZM20.6037 46.6006C20.1758 46.6006 19.8228 46.2477 19.8228 45.8138V39.272C19.8228 38.8382 20.1758 38.4853 20.6037 38.4853C21.0375 38.4853 21.3905 38.8382 21.3905 39.272V45.8138C21.3905 46.2477 21.0375 46.6006 20.6037 46.6006Z" fill="#89CE91"/>
</svg>
