<svg width="89" height="89" viewBox="0 0 89 89" fill="none" xmlns="http://www.w3.org/2000/svg">
<circle cx="64.5" cy="64.5" r="24.5" fill="#FFC444" fill-opacity="0.5"/>
<path d="M41.7288 15.0941H43.4542V16.8228C43.4542 16.9598 43.4812 17.0954 43.5336 17.2219C43.586 17.3485 43.6628 17.4635 43.7597 17.5603C43.8565 17.6572 43.9715 17.734 44.098 17.7864C44.2246 17.8388 44.3602 17.8658 44.4971 17.8658C44.6341 17.8658 44.7697 17.8388 44.8963 17.7864C45.0228 17.734 45.1378 17.6572 45.2346 17.5603C45.3315 17.4635 45.4083 17.3485 45.4607 17.2219C45.5131 17.0954 45.5401 16.9598 45.5401 16.8228V15.0941H47.2657C47.5423 15.0941 47.8076 14.9842 48.0032 14.7886C48.1988 14.593 48.3087 14.3277 48.3087 14.0511C48.3087 13.7745 48.1988 13.5092 48.0032 13.3136C47.8076 13.118 47.5423 13.0082 47.2657 13.0082H45.5401V11.2798C45.5401 11.0032 45.4302 10.7379 45.2346 10.5423C45.039 10.3467 44.7738 10.2368 44.4971 10.2368C44.2205 10.2368 43.9552 10.3467 43.7597 10.5423C43.5641 10.7379 43.4542 11.0032 43.4542 11.2798V13.0082H41.7288C41.4521 13.0082 41.1869 13.118 40.9913 13.3136C40.7957 13.5092 40.6858 13.7745 40.6858 14.0511C40.6858 14.3277 40.7957 14.593 40.9913 14.7886C41.1869 14.9842 41.4521 15.0941 41.7288 15.0941Z" fill="#FFC444"/>
<path d="M48.0957 38.6711C48.3723 38.6711 48.6376 38.5612 48.8332 38.3656C49.0288 38.17 49.1387 37.9047 49.1387 37.6281C49.1387 37.3325 49.2561 37.0491 49.4651 36.8401C49.6741 36.6311 49.9575 36.5137 50.2531 36.5137C50.5486 36.5137 50.8321 36.6311 51.0411 36.8401C51.2501 37.0491 51.3675 37.3325 51.3675 37.6281C51.3675 37.9047 51.4774 38.17 51.673 38.3656C51.8686 38.5612 52.1338 38.6711 52.4105 38.6711C52.6871 38.6711 52.9524 38.5612 53.148 38.3656C53.3435 38.17 53.4534 37.9047 53.4534 37.6281C53.4534 36.7793 53.1163 35.9653 52.5161 35.3651C51.9159 34.7649 51.1019 34.4277 50.2531 34.4277C49.4043 34.4277 48.5903 34.7649 47.9901 35.3651C47.3899 35.9653 47.0527 36.7793 47.0527 37.6281C47.0527 37.9047 47.1626 38.17 47.3582 38.3656C47.5538 38.5612 47.8191 38.6711 48.0957 38.6711Z" fill="black"/>
<path d="M44.5001 48.2426C45.3054 48.2447 46.1031 48.0871 46.847 47.7788C47.591 47.4706 48.2664 47.0178 48.8343 46.4468C48.9311 46.3499 49.008 46.2349 49.0604 46.1084C49.1128 45.9818 49.1398 45.8462 49.1398 45.7092C49.1398 45.5722 49.1128 45.4366 49.0603 45.31C49.0079 45.1835 48.9311 45.0685 48.8342 44.9716C48.7373 44.8748 48.6223 44.7979 48.4958 44.7455C48.3692 44.6931 48.2336 44.6661 48.0966 44.6661C47.9596 44.6661 47.824 44.6931 47.6974 44.7456C47.5708 44.798 47.4559 44.8748 47.359 44.9717C46.9836 45.3472 46.5379 45.645 46.0473 45.8482C45.5568 46.0514 45.031 46.156 44.5001 46.156C43.9691 46.156 43.4433 46.0514 42.9528 45.8482C42.4623 45.645 42.0165 45.3472 41.6411 44.9717C41.4455 44.7761 41.1802 44.6662 40.9035 44.6661C40.6269 44.6661 40.3616 44.776 40.1659 44.9716C39.9703 45.1672 39.8604 45.4325 39.8604 45.7092C39.8603 45.9858 39.9702 46.2512 40.1658 46.4468C40.7337 47.0178 41.4091 47.4706 42.1531 47.7788C42.897 48.0871 43.6948 48.2447 44.5001 48.2426Z" fill="black"/>
<path d="M61.9108 59.8082C62.5563 56.2979 62.2734 52.6798 61.0902 49.3125L59.4854 42.7286C59.5202 42.7159 59.5549 42.7061 59.5897 42.6924C60.3121 42.3959 60.9152 41.8675 61.3041 41.1905C61.6931 40.5134 61.8457 39.7262 61.7379 38.9528C61.5988 37.9994 61.1881 37.173 60.3189 36.614V30.3723C60.332 26.3187 58.8152 22.4093 56.0714 19.4253L60.665 9.87887C60.8527 9.48951 60.9605 9.06649 60.982 8.63479C61.0036 8.20308 60.9384 7.77144 60.7904 7.36533C60.6423 6.95923 60.4144 6.58689 60.1202 6.27031C59.8259 5.95372 59.4711 5.69929 59.0769 5.52204C53.448 2.99702 49.4833 1.90642 45.3914 1.75554C41.0169 1.59527 36.4509 2.52038 30.1293 4.85333C29.7152 5.00649 29.3367 5.24255 29.0169 5.54706C28.6972 5.85158 28.4429 6.21814 28.2698 6.62432C28.0966 7.03049 28.0081 7.46774 28.0098 7.90928C28.0115 8.35083 28.1032 8.78739 28.2794 9.19225L32.5094 19.0021C29.52 22.034 27.8344 26.1146 27.8125 30.3723V40.0405C27.8265 41.1622 27.6603 42.279 27.3204 43.3481L25.2018 49.8211C24.1012 53.1976 23.7817 56.78 24.2675 60.2981C21.9636 61.0117 19.9483 62.4433 18.516 64.3838C17.0836 66.3243 16.3093 68.6719 16.3062 71.0838V86.2188C16.3062 86.4954 16.416 86.7607 16.6116 86.9563C16.8072 87.1519 17.0725 87.2618 17.3491 87.2618H71.6502C71.9269 87.2618 72.1921 87.1519 72.3877 86.9563C72.5833 86.7607 72.6932 86.4954 72.6932 86.2188V71.0838C72.6897 68.1787 71.5676 65.3865 69.5598 63.2869C67.5521 61.1873 64.8129 59.9416 61.9108 59.8082ZM59.7901 59.7954H51.8662V54.2641C53.4648 53.2267 54.827 51.8643 55.8642 50.2655C56.9014 48.6667 57.5904 46.8675 57.8862 44.9849L59.0748 49.8566C59.0832 49.8905 59.0938 49.9249 59.1052 49.9579C60.2243 53.1137 60.4609 56.515 59.7896 59.7954H59.7901ZM36.5884 38.6711C36.865 38.6711 37.1303 38.5612 37.3259 38.3656C37.5215 38.17 37.6314 37.9047 37.6314 37.6281C37.635 37.3349 37.7541 37.0549 37.9627 36.8489C38.1714 36.6428 38.4528 36.5273 38.7461 36.5273C39.0393 36.5273 39.3207 36.6428 39.5294 36.8489C39.738 37.0549 39.8571 37.3349 39.8607 37.6281C39.8607 37.9047 39.9706 38.17 40.1662 38.3656C40.3618 38.5612 40.6271 38.6711 40.9037 38.6711C41.1803 38.6711 41.4456 38.5612 41.6412 38.3656C41.8368 38.17 41.9467 37.9047 41.9467 37.6281C41.9475 36.9526 41.7342 36.2941 41.3376 35.7473C40.9409 35.2005 40.3812 34.7934 39.7388 34.5845C39.0963 34.3756 38.4042 34.3755 37.7618 34.5844C37.1194 34.7933 36.5596 35.2003 36.1629 35.7471C36.3227 35.053 36.404 34.3432 36.405 33.6309C36.4063 31.6779 37.1808 29.8049 38.5593 28.4214C39.9377 27.0379 41.8079 26.2565 43.7609 26.2481H46.3078C47.0304 28.4954 48.2872 30.534 49.9705 32.1889C51.6538 33.8439 53.7134 35.0659 55.9727 35.7501V42.9017C55.9727 45.9444 54.764 48.8626 52.6124 51.0141C50.4609 53.1656 47.5428 54.3744 44.5 54.3744C41.4573 54.3744 38.5392 53.1656 36.3876 51.0141C34.2361 48.8626 33.0274 45.9444 33.0274 42.9017V40.9713C34.0907 40.0177 34.9475 38.8566 35.5453 37.5594C35.5453 37.5824 35.5442 37.605 35.5442 37.629C35.5447 37.9056 35.655 38.1706 35.8508 38.366C36.0465 38.5614 36.3118 38.6711 36.5884 38.6711ZM59.0863 38.2831C59.295 38.4285 59.4607 38.6273 59.5661 38.8587C59.6715 39.0901 59.7128 39.3457 59.6855 39.5985C59.6583 39.8514 59.5635 40.0922 59.4111 40.2959C59.2588 40.4995 59.0545 40.6584 58.8196 40.756C58.5776 40.8497 58.3154 40.8793 58.0586 40.8417V38.2308C58.2189 38.1467 58.3988 38.1072 58.5796 38.1164C58.7604 38.1256 58.9354 38.1831 59.0863 38.2831ZM58.2325 30.3723V36.0391C58.2325 36.045 58.0586 36.0546 58.0586 36.0647V35.0913C58.0586 34.5759 57.7894 34.0818 57.2728 33.9525C54.6012 33.2861 52.2182 31.7706 50.4818 29.6338C48.7455 27.497 47.7496 24.8543 47.6439 22.103C49.3877 22.2757 51.1153 22.5843 52.8111 23.0258C52.9512 23.0625 53.0955 23.0811 53.2403 23.0811C53.5627 23.0809 53.8785 22.9898 54.1515 22.8183C54.4244 22.6468 54.6436 22.4018 54.7837 22.1115L55.0853 21.4743C57.1312 23.9874 58.2433 27.1317 58.2325 30.3723ZM30.1907 8.35979C30.1277 8.2153 30.0949 8.05949 30.0942 7.90188C30.0935 7.74427 30.125 7.58818 30.1867 7.44315C30.2484 7.29813 30.3391 7.16722 30.4531 7.05843C30.5672 6.94964 30.7022 6.86526 30.85 6.81046C43.1367 2.27859 48.9825 3.28001 58.2231 7.42529C58.3632 7.48846 58.4892 7.57904 58.5937 7.69168C58.6982 7.80432 58.7792 7.93675 58.8317 8.08115C58.8843 8.22555 58.9074 8.37902 58.8997 8.5325C58.892 8.68597 58.8537 8.83636 58.787 8.97479L58.3965 9.78657C51.0069 5.43078 43.7468 5.57593 38.868 6.5113C35.9971 7.05797 33.2149 7.99656 30.5995 9.30072L30.1907 8.35979ZM31.4348 11.2182C33.908 9.97412 36.5419 9.07945 39.2612 8.55986C45.8239 7.3017 51.9507 8.35005 57.4897 11.6724L53.0366 20.9316C50.6547 20.3323 48.2175 19.9804 45.7634 19.8813C45.2883 19.8622 44.8136 19.8526 44.3392 19.8526C41.4131 19.8535 38.4982 20.2133 35.6597 20.9239L31.4348 11.2182ZM29.8985 30.3723C29.9183 26.956 31.1673 23.661 33.4169 21.0899L33.8539 22.0477C34.0176 22.423 34.3101 22.7273 34.6785 22.9059C35.047 23.0844 35.4671 23.1253 35.863 23.0211C39.0214 22.1914 42.2836 21.8249 45.5473 21.933C45.5644 22.681 45.6412 23.4264 45.777 24.1622H43.7606C41.2546 24.1712 38.8543 25.1726 37.0849 26.9472C35.3155 28.7217 34.3212 31.125 34.3194 33.6309C34.3194 36.5446 32.4878 39.2916 29.9278 40.5397C29.9346 40.369 29.8981 40.2119 29.8981 40.0405L29.8985 30.3723ZM27.2026 50.4756L29.3407 44.0026C29.4582 43.6467 29.5531 43.2867 29.6383 42.9236C30.0905 42.7929 30.5274 42.614 30.9414 42.3901V42.9017C30.943 45.166 31.5122 47.3937 32.5969 49.3812C33.6816 51.3688 35.2472 53.0527 37.1506 54.2791V59.7954H27.5951L26.3173 59.8691C25.9042 56.7111 26.2068 53.5007 27.2026 50.4756ZM43.4571 85.1758H27.2255V74.0281C27.2255 73.7514 27.1156 73.4862 26.92 73.2906C26.7244 73.095 26.4592 72.9851 26.1825 72.9851C25.9059 72.9851 25.6406 73.095 25.4451 73.2906C25.2495 73.4862 25.1396 73.7514 25.1396 74.0281V85.1758H18.3928V71.0838C18.3955 68.644 19.366 66.3049 21.0911 64.5797C22.8163 62.8545 25.1553 61.8841 27.5951 61.8813H37.1582C37.2305 63.5965 37.8993 65.2326 39.0493 66.5072C40.1993 67.7819 41.7583 68.6149 43.4571 68.8626V85.1758ZM39.2365 61.5811V55.3885C40.9055 56.0915 42.6986 56.4527 44.5097 56.4505C46.3207 56.4483 48.1129 56.0829 49.7802 55.3758V61.5814C49.7802 62.9796 49.2248 64.3205 48.2361 65.3092C47.2475 66.2979 45.9066 66.8533 44.5084 66.8533C43.1102 66.8533 41.7693 66.2979 40.7806 65.3092C39.7919 64.3205 39.2365 62.9796 39.2365 61.5814V61.5811ZM70.6073 85.1758H63.8605V74.0281C63.8605 73.7514 63.7506 73.4862 63.555 73.2906C63.3594 73.095 63.0941 72.9851 62.8175 72.9851C62.5409 72.9851 62.2756 73.095 62.08 73.2906C61.8844 73.4862 61.7746 73.7514 61.7746 74.0281V85.1758H45.543V68.8647C47.2452 68.6206 48.8083 67.7888 49.9618 66.5134C51.1152 65.238 51.7862 63.5994 51.8585 61.8813H61.405C63.8448 61.8841 66.1838 62.8545 67.909 64.5797C69.6341 66.3049 70.6045 68.644 70.6073 71.0838V85.1758Z" fill="black"/>
<path d="M21.6438 68.2534C21.3672 68.2534 21.1019 68.3633 20.9063 68.5589C20.7107 68.7545 20.6008 69.0198 20.6008 69.2964V69.707C20.6008 69.9836 20.7107 70.2489 20.9063 70.4445C21.1019 70.64 21.3672 70.7499 21.6438 70.7499C21.9204 70.7499 22.1857 70.64 22.3813 70.4445C22.5769 70.2489 22.6868 69.9836 22.6868 69.707V69.2964C22.6868 69.0198 22.5769 68.7545 22.3813 68.5589C22.1857 68.3633 21.9204 68.2534 21.6438 68.2534Z" fill="black"/>
<path d="M21.6438 71.6538C21.3672 71.6538 21.1019 71.7637 20.9063 71.9593C20.7107 72.1549 20.6008 72.4202 20.6008 72.6968V83.2481C20.6008 83.5248 20.7107 83.79 20.9063 83.9856C21.1019 84.1812 21.3672 84.2911 21.6438 84.2911C21.9204 84.2911 22.1857 84.1812 22.3813 83.9856C22.5769 83.79 22.6868 83.5248 22.6868 83.2481V72.6968C22.6868 72.4202 22.5769 72.1549 22.3813 71.9593C22.1857 71.7637 21.9204 71.6538 21.6438 71.6538Z" fill="black"/>
</svg>
