<svg fill="none" version="1.1" viewBox="0 0 31.991 31.991" xmlns="http://www.w3.org/2000/svg">
 <g transform="translate(-6.1518 -7.0043)" clip-path="url(#a)" fill="#ffc444">
  <path d="m22.902 16.682 0.359 5.5655 5.7051 3.7303c0.5737 0.3751 0.7342 1.1419 0.3591 1.7155-0.3751 0.5737-1.1419 0.7342-1.7155 0.3591l-6.2239-4.0694c-0.3267-0.2136-0.5344-0.5686-0.5585-0.9575l-0.399-6.1839c-0.018-0.2783 0.0571-0.5402 0.1988-0.757 0.2069-0.3164 0.5525-0.5346 0.9593-0.5589 0.6827-0.0453 1.272 0.4733 1.3156 1.1563z"/>
  <path d="m35.539 31.756c-4.8283 7.3846-14.763 9.4639-22.148 4.6356-7.3845-4.8284-9.4639-14.763-4.6355-22.148 4.8283-7.3846 14.763-9.4639 22.148-4.6356 7.3845 4.8284 9.4639 14.763 4.6355 22.147zm-24.708-16.156c-4.0796 6.2394-2.322 14.637 3.9174 18.716 6.2393 4.0796 14.637 2.3219 18.716-3.9174 4.0803-6.2404 2.322-14.637-3.9174-18.716-6.2393-4.0795-14.637-2.3219-18.716 3.9174z"/>
 </g>
 <defs>
  <clipPath id="a">
   <rect transform="matrix(.54725 -.83697 -.83697 -.54725 26.783 45.148)" width="32" height="32" fill="#fff"/>
  </clipPath>
 </defs>
</svg>
