<svg width="45" height="45" viewBox="0 0 45 45" fill="none" xmlns="http://www.w3.org/2000/svg">
<g clip-path="url(#clip0)">
<rect x="10.2001" y="6.33105" width="26.0278" height="28.4899" fill="black"/>
<path d="M38.4171 6.58344C29.638 -2.19383 15.3607 -2.19383 6.58155 6.58344C-2.19379 15.3607 -2.19379 29.6417 6.58155 38.419C10.9711 42.8067 16.7357 44.9995 22.5003 44.9995C28.2649 44.9995 34.0275 42.8066 38.4171 38.419C47.1944 29.6418 47.1944 15.3607 38.4171 6.58344ZM31.784 29.1334C32.5174 29.8668 32.5174 31.0524 31.784 31.7858C31.4182 32.1516 30.938 32.3355 30.4577 32.3355C29.9775 32.3355 29.4972 32.1516 29.1314 31.7858L22.5002 25.1527L15.8708 31.7839C15.5032 32.1497 15.0229 32.3336 14.5446 32.3336C14.0644 32.3336 13.5841 32.1497 13.2183 31.7839C12.4849 31.0505 12.4849 29.863 13.2183 29.1314L19.8477 22.5002L13.2164 15.869C12.483 15.1356 12.483 13.9482 13.2164 13.2166C13.948 12.4831 15.1355 12.4831 15.8689 13.2166L22.5001 19.8478L29.1313 13.2166C29.8648 12.4831 31.0503 12.4831 31.7838 13.2166C32.5172 13.9482 32.5172 15.1356 31.7838 15.869L25.1526 22.5002L31.784 29.1334Z" fill="#FFC444"/>
</g>
<defs>
<clipPath id="clip0">
<rect width="45" height="45" fill="white"/>
</clipPath>
</defs>
</svg>
