<svg width="33" height="43" viewBox="0 0 33 43" fill="none" xmlns="http://www.w3.org/2000/svg">
<path d="M1.44531 18.6361C1.64008 18.6361 1.82687 18.5588 1.96459 18.421C2.10232 18.2833 2.17969 18.0965 2.17969 17.9018V16.2861C2.17969 16.0914 2.10232 15.9046 1.96459 15.7669C1.82687 15.6291 1.64008 15.5518 1.44531 15.5518C1.25054 15.5518 1.06375 15.6291 0.926031 15.7669C0.788309 15.9046 0.710938 16.0914 0.710938 16.2861V17.9018C0.710938 17.9982 0.729933 18.0937 0.766838 18.1828C0.803744 18.2719 0.857838 18.3528 0.926031 18.421C0.994224 18.4892 1.07518 18.5433 1.16428 18.5802C1.25338 18.6171 1.34887 18.6361 1.44531 18.6361Z" fill="#6165D7"/>
<path d="M32.4359 8.64844C32.4359 8.45367 32.3586 8.26688 32.2208 8.12916C32.0831 7.99143 31.8963 7.91406 31.7016 7.91406L25.3859 0.496875C25.3175 0.405669 25.2288 0.331641 25.1269 0.280655C25.0249 0.229669 24.9124 0.203125 24.7984 0.203125H5.55781C4.27234 0.203125 3.03952 0.713777 2.13055 1.62274C1.22159 2.53171 0.710938 3.76453 0.710938 5.05V14.2297C0.710938 14.4245 0.788309 14.6112 0.926031 14.749C1.06375 14.8867 1.25054 14.9641 1.44531 14.9641C1.64008 14.9641 1.82687 14.8867 1.96459 14.749C2.10232 14.6112 2.17969 14.4245 2.17969 14.2297V5.05C2.17969 4.15407 2.5356 3.29483 3.16912 2.6613C3.80264 2.02778 4.66188 1.67188 5.55781 1.67188H24.0641V8.575C24.0641 8.76977 24.1414 8.95656 24.2792 9.09428C24.4169 9.232 24.6037 9.30937 24.7984 9.30937H30.8203V37.95C30.8203 38.8459 30.4644 39.7052 29.8309 40.3387C29.1974 40.9722 28.3381 41.3281 27.4422 41.3281H5.55781C4.66188 41.3281 3.80264 40.9722 3.16912 40.3387C2.5356 39.7052 2.17969 38.8459 2.17969 37.95V20.2516C2.17969 20.0568 2.10232 19.87 1.96459 19.7323C1.82687 19.5946 1.64008 19.5172 1.44531 19.5172C1.25054 19.5172 1.06375 19.5946 0.926031 19.7323C0.788309 19.87 0.710938 20.0568 0.710938 20.2516V37.95C0.710938 39.2355 1.22159 40.4683 2.13055 41.3773C3.03952 42.2862 4.27234 42.7969 5.55781 42.7969H27.4422C28.7277 42.7969 29.9605 42.2862 30.8694 41.3773C31.7784 40.4683 32.2891 39.2355 32.2891 37.95V9.01562C32.3707 8.90896 32.4215 8.78196 32.4359 8.64844ZM25.5328 2.99375L29.7188 7.91406H25.5328V2.99375Z" fill="#6165D7"/>
<path d="M12.2407 8.86865H6.0719C5.87713 8.86865 5.69034 8.94602 5.55262 9.08375C5.4149 9.22147 5.33752 9.40826 5.33752 9.60303V16.7265C5.33752 16.9212 5.4149 17.108 5.55262 17.2457C5.69034 17.3835 5.87713 17.4608 6.0719 17.4608H12.1672C12.362 17.4608 12.5488 17.3835 12.6865 17.2457C12.8242 17.108 12.9016 16.9212 12.9016 16.7265V9.60303C12.9025 9.42034 12.8353 9.24387 12.7131 9.10808C12.5909 8.97228 12.4224 8.88692 12.2407 8.86865ZM11.5063 15.9921H6.80627V10.3374H11.4328L11.5063 15.9921ZM26.8547 21.7202H12.6813C12.4865 21.7202 12.2997 21.7976 12.162 21.9353C12.0243 22.073 11.9469 22.2598 11.9469 22.4546C11.9469 22.6494 12.0243 22.8362 12.162 22.9739C12.2997 23.1116 12.4865 23.189 12.6813 23.189H26.8547C27.0495 23.189 27.2363 23.1116 27.374 22.9739C27.5117 22.8362 27.5891 22.6494 27.5891 22.4546C27.5891 22.2598 27.5117 22.073 27.374 21.9353C27.2363 21.7976 27.0495 21.7202 26.8547 21.7202ZM6.14534 23.189H10.4047C10.5995 23.189 10.7863 23.1116 10.924 22.9739C11.0617 22.8362 11.1391 22.6494 11.1391 22.4546C11.1391 22.2598 11.0617 22.073 10.924 21.9353C10.7863 21.7976 10.5995 21.7202 10.4047 21.7202H6.14534C5.95057 21.7202 5.76378 21.7976 5.62606 21.9353C5.48833 22.073 5.41096 22.2598 5.41096 22.4546C5.41096 22.6494 5.48833 22.8362 5.62606 22.9739C5.76378 23.1116 5.95057 23.189 6.14534 23.189ZM26.8547 26.1265H20.3922C20.1974 26.1265 20.0107 26.2038 19.8729 26.3416C19.7352 26.4793 19.6578 26.6661 19.6578 26.8608C19.6578 27.0556 19.7352 27.2424 19.8729 27.3801C20.0107 27.5178 20.1974 27.5952 20.3922 27.5952H26.8547C27.0495 27.5952 27.2363 27.5178 27.374 27.3801C27.5117 27.2424 27.5891 27.0556 27.5891 26.8608C27.5891 26.6661 27.5117 26.4793 27.374 26.3416C27.2363 26.2038 27.0495 26.1265 26.8547 26.1265ZM6.14534 27.5952H18.0422C18.237 27.5952 18.4238 27.5178 18.5615 27.3801C18.6992 27.2424 18.7766 27.0556 18.7766 26.8608C18.7766 26.6661 18.6992 26.4793 18.5615 26.3416C18.4238 26.2038 18.237 26.1265 18.0422 26.1265H6.14534C5.95057 26.1265 5.76378 26.2038 5.62606 26.3416C5.48833 26.4793 5.41096 26.6661 5.41096 26.8608C5.41096 27.0556 5.48833 27.2424 5.62606 27.3801C5.76378 27.5178 5.95057 27.5952 6.14534 27.5952ZM26.8547 30.5327H15.986C15.7912 30.5327 15.6044 30.6101 15.4667 30.7478C15.329 30.8855 15.2516 31.0723 15.2516 31.2671C15.2516 31.4619 15.329 31.6486 15.4667 31.7864C15.6044 31.9241 15.7912 32.0015 15.986 32.0015H26.8547C27.0495 32.0015 27.2363 31.9241 27.374 31.7864C27.5117 31.6486 27.5891 31.4619 27.5891 31.2671C27.5891 31.0723 27.5117 30.8855 27.374 30.7478C27.2363 30.6101 27.0495 30.5327 26.8547 30.5327ZM6.14534 32.0015H13.4891C13.6839 32.0015 13.8706 31.9241 14.0084 31.7864C14.1461 31.6486 14.2235 31.4619 14.2235 31.2671C14.2235 31.0723 14.1461 30.8855 14.0084 30.7478C13.8706 30.6101 13.6839 30.5327 13.4891 30.5327H6.14534C5.95057 30.5327 5.76378 30.6101 5.62606 30.7478C5.48833 30.8855 5.41096 31.0723 5.41096 31.2671C5.41096 31.4619 5.48833 31.6486 5.62606 31.7864C5.76378 31.9241 5.95057 32.0015 6.14534 32.0015ZM6.14534 36.4077H26.8547C27.0495 36.4077 27.2363 36.3303 27.374 36.1926C27.5117 36.0549 27.5891 35.8681 27.5891 35.6733C27.5891 35.4786 27.5117 35.2918 27.374 35.1541C27.2363 35.0163 27.0495 34.939 26.8547 34.939H6.14534C5.95057 34.939 5.76378 35.0163 5.62606 35.1541C5.48833 35.2918 5.41096 35.4786 5.41096 35.6733C5.41096 35.8681 5.48833 36.0549 5.62606 36.1926C5.76378 36.3303 5.95057 36.4077 6.14534 36.4077Z" fill="#6165D7"/>
</svg>
