<svg width="69" height="69" viewBox="0 0 69 69" fill="none" xmlns="http://www.w3.org/2000/svg">
<path d="M33.3906 46.7031H31.1719V45.5938H34.0529C38.8843 45.5938 43.6235 43.9319 47.3965 40.9133C47.7637 40.6182 47.9057 40.1234 47.7493 39.6797C47.5928 39.2359 47.1746 38.9375 46.7031 38.9375C44.8682 38.9375 43.375 37.4443 43.375 35.6094V25.625C43.375 20.3189 41.1241 15.2634 37.2069 11.6935L38.922 1.4018C38.9763 1.08008 38.8854 0.751703 38.6735 0.502094C38.4638 0.252484 38.1543 0.109375 37.8281 0.109375H11.2031C10.877 0.109375 10.5675 0.252484 10.3567 0.502094C10.1459 0.751703 10.0549 1.08008 10.1082 1.4018L11.8233 11.6935C7.90717 15.2634 5.65625 20.3189 5.65625 25.625V35.6094C5.65625 37.4443 4.16303 38.9375 2.32812 38.9375C1.85664 38.9375 1.4373 39.2359 1.28198 39.6797C1.12667 40.1234 1.26756 40.6193 1.63477 40.9133C5.40775 43.9319 10.147 45.5938 14.9783 45.5938H17.8594V46.7031H15.6406C6.8932 46.7031 0.109375 53.8597 0.109375 60.0156V67.7812C0.109375 68.3947 0.605266 68.8906 1.21875 68.8906H47.8125C48.426 68.8906 48.9219 68.3947 48.9219 67.7812V60.0156C48.9219 53.8597 42.138 46.7031 33.3906 46.7031ZM24.5156 42.2656C17.7873 42.2656 12.3125 36.7909 12.3125 30.0625V26.7344H16.3229C19.6632 26.7344 22.6918 25.0947 24.5156 22.4245C26.3394 25.0947 29.368 26.7344 32.7084 26.7344H36.7188V30.0625C36.7188 36.7909 31.244 42.2656 24.5156 42.2656ZM20.0781 43.7788C21.477 44.2325 22.9669 44.4844 24.5156 44.4844C26.0643 44.4844 27.5542 44.2325 28.9531 43.7788V47.1846L24.5156 49.8471L20.0781 47.1846V43.7788ZM36.518 2.32812L34.6697 13.4219H14.3615L12.5133 2.32812H36.518ZM14.9783 43.375C11.4239 43.375 7.92603 42.371 4.9163 40.515C6.67466 39.5832 7.875 37.7338 7.875 35.6094V25.625C7.875 21.4349 9.4603 17.419 12.2692 14.3626L12.328 14.7132C12.4168 15.2479 12.8794 15.6406 13.4219 15.6406H35.6094C36.1519 15.6406 36.6145 15.2479 36.7032 14.7132L36.762 14.3626C39.571 17.419 41.1562 21.4349 41.1562 25.625V35.6094C41.1562 37.7338 42.3566 39.5832 44.115 40.515C41.1052 42.371 37.6074 43.375 34.0529 43.375H31.1719V42.8436C35.7802 40.434 38.9375 35.6127 38.9375 30.0625V25.625C38.9375 25.0115 38.4416 24.5156 37.8281 24.5156H32.7084C29.5367 24.5156 26.7244 22.6119 25.5462 19.6665C25.3765 19.245 24.9694 18.9688 24.5156 18.9688C24.0619 18.9688 23.6547 19.245 23.485 19.6665C22.3069 22.6119 19.4957 24.5156 16.3229 24.5156H11.2031C10.5896 24.5156 10.0938 25.0115 10.0938 25.625V30.0625C10.0938 35.6127 13.251 40.434 17.8594 42.8436V43.375H14.9783ZM18.6615 48.9219L23.9443 52.0914C24.1207 52.1967 24.3182 52.25 24.5156 52.25C24.7131 52.25 24.9106 52.1967 25.087 52.0914L30.3698 48.9219H33.3906C33.729 48.9219 34.0607 48.9474 34.3924 48.9729C33.841 52.0914 31.1175 54.4688 27.8438 54.4688H21.1875C17.9137 54.4688 15.1902 52.0914 14.6389 48.9729C14.9706 48.9474 15.3023 48.9219 15.6406 48.9219H18.6615ZM2.32812 60.0156C2.32812 55.7423 6.62917 50.7268 12.4501 49.319C13.1689 53.4958 16.8088 56.6875 21.1875 56.6875H23.4062V66.6719H8.98438V58.9062H6.76562V66.6719H2.32812V60.0156ZM46.7031 66.6719H42.2656V58.9062H40.0469V66.6719H25.625V56.6875H27.8438C32.2225 56.6875 35.8623 53.4958 36.5812 49.319C42.4021 50.7268 46.7031 55.7423 46.7031 60.0156V66.6719Z" fill="#FFC444"/>
<path d="M24.5156 37.8281C23.292 37.8281 22.2969 36.833 22.2969 35.6094H20.0781C20.0781 38.0567 22.0683 40.0469 24.5156 40.0469C26.9629 40.0469 28.9531 38.0567 28.9531 35.6094H26.7344C26.7344 36.833 25.7393 37.8281 24.5156 37.8281Z" fill="black"/>
<path d="M23.4062 11.2031H25.625V8.98438H27.8438V6.76562H25.625V4.54688H23.4062V6.76562H21.1875V8.98438H23.4062V11.2031Z" fill="black"/>
<path d="M32.2812 60.0156H37.8281V62.2344H32.2812V60.0156Z" fill="black"/>
<path d="M16.75 28.9531H18.9688V32.2812H16.75V28.9531Z" fill="black"/>
<path d="M30.0625 28.9531H32.2812V32.2812H30.0625V28.9531Z" fill="black"/>
<path d="M61.125 37.8281H60.0156V34.5C60.0156 33.8865 59.5197 33.3906 58.9062 33.3906H57.7969V30.0625H55.5781V33.3906H54.4688C53.8553 33.3906 53.3594 33.8865 53.3594 34.5V37.8281H52.25C51.6365 37.8281 51.1406 38.324 51.1406 38.9375V58.9062C51.1406 59.5197 51.6365 60.0156 52.25 60.0156H53.3594V62.2344H52.25C51.6365 62.2344 51.1406 62.7303 51.1406 63.3438V67.7812C51.1406 68.3947 51.6365 68.8906 52.25 68.8906H61.125C61.7385 68.8906 62.2344 68.3947 62.2344 67.7812V63.3438C62.2344 62.7303 61.7385 62.2344 61.125 62.2344H60.0156V60.0156H61.125C61.7385 60.0156 62.2344 59.5197 62.2344 58.9062V38.9375C62.2344 38.324 61.7385 37.8281 61.125 37.8281ZM55.5781 35.6094H57.7969V37.8281H55.5781V35.6094ZM60.0156 66.6719H53.3594V64.4531H60.0156V66.6719ZM57.7969 62.2344H55.5781V60.0156H57.7969V62.2344ZM60.0156 57.7969H53.3594V53.3594H57.7969V51.1406H53.3594V48.9219H55.5781V46.7031H53.3594V44.4844H55.5781V42.2656H53.3594V40.0469H60.0156V57.7969Z" fill="#FFC444"/>
<path d="M63.3438 17.8594C60.2852 17.8594 57.7969 20.3477 57.7969 23.4062C57.7969 26.4648 60.2852 28.9531 63.3438 28.9531C66.4023 28.9531 68.8906 26.4648 68.8906 23.4062C68.8906 20.3477 66.4023 17.8594 63.3438 17.8594ZM66.6719 23.4062C66.6719 23.9188 66.5465 24.398 66.338 24.8318L61.9171 20.4109C62.352 20.2035 62.8312 20.0781 63.3438 20.0781C65.1787 20.0781 66.6719 21.5713 66.6719 23.4062ZM60.0156 23.4062C60.0156 22.8937 60.141 22.4145 60.3495 21.9807L64.7704 26.4016C64.3355 26.609 63.8563 26.7344 63.3438 26.7344C61.5088 26.7344 60.0156 25.2412 60.0156 23.4062Z" fill="black"/>
<path d="M55.5781 12.3125C55.5781 9.25395 53.0898 6.76562 50.0312 6.76562C46.9727 6.76562 44.4844 9.25395 44.4844 12.3125C44.4844 15.371 46.9727 17.8594 50.0312 17.8594C53.0898 17.8594 55.5781 15.371 55.5781 12.3125ZM50.0312 8.98438C50.5438 8.98438 51.023 9.10973 51.4568 9.3183L47.0359 13.7392C46.8285 13.3043 46.7031 12.825 46.7031 12.3125C46.7031 10.4776 48.1963 8.98438 50.0312 8.98438ZM50.0312 15.6406C49.5187 15.6406 49.0395 15.5153 48.6057 15.3067L53.0266 10.8858C53.234 11.3207 53.3594 11.8 53.3594 12.3125C53.3594 14.1474 51.8662 15.6406 50.0312 15.6406Z" fill="black"/>
</svg>
