<svg width="74" height="87" viewBox="0 0 74 87" fill="none" xmlns="http://www.w3.org/2000/svg">
<path d="M13.562 73.4V86H10.646V75.74H8.126V73.4H13.562ZM21.1508 86.216C20.1068 86.216 19.1768 85.958 18.3608 85.442C17.5448 84.926 16.9028 84.182 16.4348 83.21C15.9788 82.226 15.7508 81.056 15.7508 79.7C15.7508 78.344 15.9788 77.18 16.4348 76.208C16.9028 75.224 17.5448 74.474 18.3608 73.958C19.1768 73.442 20.1068 73.184 21.1508 73.184C22.1948 73.184 23.1248 73.442 23.9408 73.958C24.7568 74.474 25.3928 75.224 25.8488 76.208C26.3168 77.18 26.5508 78.344 26.5508 79.7C26.5508 81.056 26.3168 82.226 25.8488 83.21C25.3928 84.182 24.7568 84.926 23.9408 85.442C23.1248 85.958 22.1948 86.216 21.1508 86.216ZM21.1508 83.75C21.9188 83.75 22.5188 83.42 22.9508 82.76C23.3948 82.1 23.6168 81.08 23.6168 79.7C23.6168 78.32 23.3948 77.3 22.9508 76.64C22.5188 75.98 21.9188 75.65 21.1508 75.65C20.3948 75.65 19.7948 75.98 19.3508 76.64C18.9188 77.3 18.7028 78.32 18.7028 79.7C18.7028 81.08 18.9188 82.1 19.3508 82.76C19.7948 83.42 20.3948 83.75 21.1508 83.75ZM38.4653 86.216C37.4213 86.216 36.4913 85.958 35.6753 85.442C34.8593 84.926 34.2173 84.182 33.7493 83.21C33.2933 82.226 33.0653 81.056 33.0653 79.7C33.0653 78.344 33.2933 77.18 33.7493 76.208C34.2173 75.224 34.8593 74.474 35.6753 73.958C36.4913 73.442 37.4213 73.184 38.4653 73.184C39.5093 73.184 40.4393 73.442 41.2553 73.958C42.0713 74.474 42.7073 75.224 43.1633 76.208C43.6313 77.18 43.8653 78.344 43.8653 79.7C43.8653 81.056 43.6313 82.226 43.1633 83.21C42.7073 84.182 42.0713 84.926 41.2553 85.442C40.4393 85.958 39.5093 86.216 38.4653 86.216ZM38.4653 83.75C39.2333 83.75 39.8333 83.42 40.2653 82.76C40.7093 82.1 40.9313 81.08 40.9313 79.7C40.9313 78.32 40.7093 77.3 40.2653 76.64C39.8333 75.98 39.2333 75.65 38.4653 75.65C37.7093 75.65 37.1093 75.98 36.6653 76.64C36.2333 77.3 36.0173 78.32 36.0173 79.7C36.0173 81.08 36.2333 82.1 36.6653 82.76C37.1093 83.42 37.7093 83.75 38.4653 83.75ZM50.6821 86.216C49.6381 86.216 48.7081 85.958 47.8921 85.442C47.0761 84.926 46.4341 84.182 45.9661 83.21C45.5101 82.226 45.2821 81.056 45.2821 79.7C45.2821 78.344 45.5101 77.18 45.9661 76.208C46.4341 75.224 47.0761 74.474 47.8921 73.958C48.7081 73.442 49.6381 73.184 50.6821 73.184C51.7261 73.184 52.6561 73.442 53.4721 73.958C54.2881 74.474 54.9241 75.224 55.3801 76.208C55.8481 77.18 56.0821 78.344 56.0821 79.7C56.0821 81.056 55.8481 82.226 55.3801 83.21C54.9241 84.182 54.2881 84.926 53.4721 85.442C52.6561 85.958 51.7261 86.216 50.6821 86.216ZM50.6821 83.75C51.4501 83.75 52.0501 83.42 52.4821 82.76C52.9261 82.1 53.1481 81.08 53.1481 79.7C53.1481 78.32 52.9261 77.3 52.4821 76.64C52.0501 75.98 51.4501 75.65 50.6821 75.65C49.9261 75.65 49.3261 75.98 48.8821 76.64C48.4501 77.3 48.2341 78.32 48.2341 79.7C48.2341 81.08 48.4501 82.1 48.8821 82.76C49.3261 83.42 49.9261 83.75 50.6821 83.75ZM62.8989 86.216C61.8549 86.216 60.9249 85.958 60.1089 85.442C59.2929 84.926 58.6509 84.182 58.1829 83.21C57.7269 82.226 57.4989 81.056 57.4989 79.7C57.4989 78.344 57.7269 77.18 58.1829 76.208C58.6509 75.224 59.2929 74.474 60.1089 73.958C60.9249 73.442 61.8549 73.184 62.8989 73.184C63.9429 73.184 64.8729 73.442 65.6889 73.958C66.5049 74.474 67.1409 75.224 67.5969 76.208C68.0649 77.18 68.2989 78.344 68.2989 79.7C68.2989 81.056 68.0649 82.226 67.5969 83.21C67.1409 84.182 66.5049 84.926 65.6889 85.442C64.8729 85.958 63.9429 86.216 62.8989 86.216ZM62.8989 83.75C63.6669 83.75 64.2669 83.42 64.6989 82.76C65.1429 82.1 65.3649 81.08 65.3649 79.7C65.3649 78.32 65.1429 77.3 64.6989 76.64C64.2669 75.98 63.6669 75.65 62.8989 75.65C62.1429 75.65 61.5429 75.98 61.0989 76.64C60.6669 77.3 60.4509 78.32 60.4509 79.7C60.4509 81.08 60.6669 82.1 61.0989 82.76C61.5429 83.42 62.1429 83.75 62.8989 83.75Z" fill="black"/>
<path d="M25.4142 58.5081C24.8155 58.5081 24.3302 58.9934 24.3302 59.592V64.2263C24.3302 64.8249 24.8155 65.3103 25.4142 65.3103C26.0128 65.3103 26.4982 64.8249 26.4982 64.2263V59.592C26.4982 58.9934 26.0128 58.5081 25.4142 58.5081Z" fill="#FFC444"/>
<path d="M48.5857 58.5081C47.987 58.5081 47.5017 58.9934 47.5017 59.592V64.2263C47.5017 64.8249 47.987 65.3103 48.5857 65.3103C49.1843 65.3103 49.6697 64.8249 49.6697 64.2263V59.592C49.6697 58.9934 49.1843 58.5081 48.5857 58.5081Z" fill="#FFC444"/>
<path d="M16.6302 35.451C14.113 34.1924 9.39366 34.178 9.19391 34.178C8.59541 34.178 8.11022 34.663 8.11008 35.2617C8.10993 35.8602 8.59498 36.3457 9.19363 36.346C10.4132 36.3467 13.952 36.5357 15.6607 37.3901C15.8163 37.468 15.9817 37.5047 16.1446 37.5047C16.5422 37.5047 16.925 37.285 17.1149 36.9053C17.3827 36.3698 17.1657 35.7187 16.6302 35.451Z" fill="#FFC444"/>
<path d="M5.71821 56.1912C5.11957 56.1912 4.63423 56.6765 4.63423 57.2751V64.2266C4.63423 64.8253 5.11957 65.3106 5.71821 65.3106C6.31686 65.3106 6.8022 64.8253 6.8022 64.2266V57.2751C6.8022 56.6766 6.31701 56.1912 5.71821 56.1912Z" fill="#FFC444"/>
<path d="M71.4792 52.1428L67.0895 49.9483C67.0641 49.9356 67.0482 49.9098 67.0482 49.8815L67.0485 47.6752C68.8505 46.4344 70.126 44.4729 70.4451 42.1708C71.2557 40.7701 71.6827 39.1881 71.6827 37.5795C71.6827 34.5797 70.2383 31.9114 68.0089 30.2322C68.1396 29.797 68.2071 29.3481 68.2071 28.8901C68.2071 26.0564 65.6418 23.751 62.4888 23.751C59.3359 23.751 56.7706 26.0564 56.7706 28.8901C56.7706 29.3487 56.8374 29.7978 56.968 30.2327C55.6388 31.234 54.5907 32.5879 53.9596 34.1532C53.6909 31.5128 53.4111 28.3913 53.1427 24.7552C52.7886 19.9577 51.0632 15.9062 48.1532 13.039C45.2654 10.1934 41.4086 8.68945 36.9999 8.68945C32.5913 8.68945 28.7345 10.1934 25.8469 13.0388C22.9369 15.9062 21.2115 19.9577 20.8574 24.7551C20.7633 26.0288 20.6679 27.2361 20.5721 28.3853H10.3526C6.56069 28.3853 3.47568 31.4703 3.47568 35.2622V35.3268C3.47568 36.2099 3.68438 37.0943 4.07939 37.8841L4.63424 38.994V40.7638C4.63424 43.5685 6.01639 46.0853 8.10992 47.5998V49.1654C8.10992 49.3661 7.97508 49.5448 7.78213 49.6L3.30701 50.8786C1.35989 51.4348 0 53.2377 0 55.2627V64.2266C0 64.8253 0.485335 65.3106 1.08398 65.3106C1.68263 65.3106 2.16796 64.8253 2.16796 64.2266V55.2627C2.16796 54.2004 2.88137 53.2547 3.90263 52.9629L8.37788 51.6842C8.53932 51.6381 8.69267 51.5756 8.83865 51.5013L11.5857 54.2484V64.2266C11.5857 64.8253 12.0711 65.3106 12.6697 65.3106C13.2684 65.3106 13.7537 64.8253 13.7537 64.2266V54.2484L16.52 51.482C16.8897 51.6634 17.2582 51.7689 17.5281 51.8461L18.627 52.16C17.1379 53.2189 16.2201 54.9459 16.2201 56.8186V64.2264C16.2201 64.825 16.7055 65.3103 17.3041 65.3103C17.9028 65.3103 18.3881 64.825 18.3881 64.2264V56.8186C18.3881 55.4134 19.2187 54.1387 20.5042 53.5709L26.7017 50.8337C28.6437 54.7229 32.6123 57.2004 37.0001 57.2004C41.4042 57.2004 45.3595 54.7284 47.3004 50.8345L53.496 53.5709C54.7814 54.1387 55.6121 55.4134 55.6121 56.8186V64.2264C55.6121 64.825 56.0974 65.3103 56.696 65.3103C57.2947 65.3103 57.78 64.825 57.78 64.2264V56.8186C57.78 55.4319 57.276 54.1257 56.411 53.1102L58.0886 52.2715L59.3479 53.4682C60.2287 54.3053 61.3586 54.7236 62.489 54.7236C63.6189 54.7236 64.7494 54.305 65.6299 53.4682L66.8891 52.2716L70.5099 54.0819C71.3255 54.4896 71.832 55.3094 71.832 56.2212V64.2265C71.832 64.8251 72.3174 65.3105 72.916 65.3105C73.5147 65.3105 74 64.8251 74 64.2265V56.2212C73.9999 54.4831 73.034 52.9203 71.4792 52.1428ZM62.4887 25.9188C64.4462 25.9188 66.039 27.2517 66.039 28.89C66.039 28.9586 66.0335 29.0267 66.028 29.0946C64.9379 28.6382 63.7424 28.3853 62.4887 28.3853C61.2352 28.3853 60.0398 28.6382 58.95 29.0945C58.9444 29.0266 58.9384 28.9586 58.9384 28.89C58.9384 27.2517 60.5312 25.9188 62.4887 25.9188ZM12.6699 52.2666L10.1998 49.7965C10.2509 49.593 10.2782 49.3813 10.2782 49.1652V48.7079C10.9601 48.9318 11.6793 49.0646 12.4234 49.0869C12.5068 49.0895 12.5898 49.0906 12.6729 49.0906C13.495 49.0906 14.2976 48.9665 15.0613 48.7296V49.1648C15.0613 49.3999 15.0854 49.6133 15.1283 49.8081L12.6699 52.2666ZM12.4885 46.9196C9.35303 46.8258 6.80221 44.0641 6.80221 40.7638V38.738C6.80221 38.5698 6.76304 38.4037 6.68774 38.2533L6.01841 36.9146C5.77329 36.4241 5.64365 35.8752 5.64365 35.3268V35.2622C5.64365 32.6657 7.75611 30.5532 10.3526 30.5532H19.696V35.0532C19.696 35.7803 19.5241 36.5086 19.1988 37.159L18.6517 38.2531C18.5764 38.4037 18.5373 38.5696 18.5373 38.7379V41.055C18.5373 42.6555 17.9045 44.1511 16.7555 45.2661C15.607 46.3804 14.0908 46.9682 12.4885 46.9196ZM21.5481 50.7399L18.1238 49.7615C17.2291 49.506 17.2292 49.4063 17.2292 49.1651L17.2295 47.6716C17.5936 47.4194 17.9408 47.1371 18.2655 46.8219C18.4841 46.6099 18.6876 46.3867 18.8783 46.1555C19.0525 46.5087 19.3195 46.8173 19.6645 47.0406C20.5334 47.6033 22.1731 48.5379 24.5844 49.3988L21.5481 50.7399ZM36.9999 55.0326C33.4731 55.0326 30.279 53.0612 28.6861 49.9574L30.2639 49.2605C31.4953 48.7166 32.291 47.4954 32.291 46.1493V43.5483C33.7474 44.1335 35.3367 44.4562 36.9999 44.4562C38.6632 44.4562 40.2523 44.1335 41.7089 43.5483V46.1493C41.7089 47.4954 42.5045 48.7167 43.7359 49.2605L45.3135 49.9572C43.7218 53.0645 40.5399 55.0326 36.9999 55.0326ZM46.3994 48.0668L44.6118 47.2772C44.1653 47.0801 43.8769 46.6372 43.8769 46.1491V42.4224C47.3603 40.1624 49.6698 36.2391 49.6698 31.7864V29.7538C49.6698 28.4328 49.1082 27.1867 48.1288 26.3351C45.9509 24.4409 41.0208 21.1353 32.4735 20.2805C31.8793 20.221 31.3466 20.6555 31.2871 21.2514C31.2275 21.8471 31.6621 22.3783 32.2579 22.4378C40.2078 23.2327 44.7225 26.2458 46.7062 27.971C47.2119 28.4107 47.5018 29.0607 47.5018 29.7538V31.7864C47.5018 37.577 42.7907 42.2881 37.0001 42.2881C31.2094 42.2881 26.4983 37.577 26.4983 31.7864V30.8796C26.4983 30.463 26.7293 30.0815 27.116 29.8588C28.4713 29.0784 30.2586 27.6328 31.0771 25.1777C31.2664 24.6098 30.9594 23.9959 30.3914 23.8065C29.8237 23.6172 29.2096 23.9242 29.0202 24.4922C28.4172 26.3011 27.0636 27.3873 26.0342 27.98C24.9832 28.5852 24.3302 29.6963 24.3302 30.8797V31.7865C24.3302 36.2394 26.6395 40.1625 30.1231 42.4226V46.1493C30.1231 46.6374 29.8347 47.0801 29.3882 47.2773L27.6005 48.0669C24.1092 47.1328 21.8722 45.8874 20.8427 45.221C20.8221 45.2077 20.8106 45.1925 20.8164 45.1582C21.1945 42.9232 22.166 36.4764 23.0196 24.9148C23.3344 20.649 24.8382 17.0762 27.3685 14.583C29.8422 12.1458 33.1726 10.8574 36.9999 10.8574C40.8273 10.8574 44.1577 12.1458 46.6313 14.583C49.1616 17.0762 50.6655 20.6488 50.9804 24.9146C51.8339 36.4758 52.8054 42.9229 53.1836 45.1581C53.1894 45.1925 53.1779 45.2077 53.1572 45.221C52.1263 45.8883 49.8892 47.133 46.3994 48.0668ZM57.929 49.8814C57.929 49.9098 57.9133 49.9354 57.8878 49.9481L54.4916 51.6462C54.4513 51.6273 54.4126 51.6061 54.3718 51.588L49.4157 49.3991C51.8259 48.5385 53.4653 47.6043 54.3354 47.0409C55.0829 46.5569 55.47 45.6761 55.3213 44.7966C55.3132 44.7485 55.3043 44.6957 55.2957 44.6437C55.9053 45.8696 56.8169 46.9095 57.929 47.6752V49.8814ZM64.1361 51.8968C63.2124 52.775 61.765 52.7749 60.841 51.8968L59.8335 50.9395C60.0035 50.6209 60.0968 50.2596 60.0968 49.8814V48.7279C60.8539 48.9627 61.6569 49.0905 62.4885 49.0905C63.32 49.0905 64.1232 48.9627 64.8801 48.7279L64.88 49.8811C64.88 50.2596 64.9733 50.6209 65.1434 50.9396L64.1361 51.8968ZM62.4887 46.9224C59.4874 46.9224 56.9806 44.6749 56.6579 41.6945C56.6405 41.5348 56.5881 41.3811 56.504 41.244C55.8226 40.1345 55.4626 38.8672 55.4626 37.5792C55.4626 33.7052 58.6144 30.5532 62.4887 30.5532C66.3628 30.5532 69.5148 33.7052 69.5148 37.5793C69.5148 38.3261 69.3929 39.0658 69.1584 39.772C66.0804 36.6451 60.6659 35.4196 60.4048 35.3621C60.0843 35.2914 59.7487 35.37 59.4926 35.5757C59.2366 35.7815 59.0876 36.0922 59.0876 36.4206C59.0876 36.4277 59.0382 37.1797 58.2466 37.9713C57.8232 38.3946 57.8232 39.081 58.2466 39.5042C58.6699 39.9275 59.3563 39.9275 59.7795 39.5042C60.3891 38.8945 60.7472 38.2758 60.9574 37.7533C62.7814 38.2952 66.5671 39.6636 68.266 42.0656C67.7839 44.8592 65.3638 46.9224 62.4887 46.9224Z" fill="#FFC444"/>
<path d="M68.2816 57.6233C67.683 57.6233 67.1977 58.1086 67.1977 58.7073V64.2265C67.1977 64.8251 67.683 65.3105 68.2816 65.3105C68.8803 65.3105 69.3656 64.8251 69.3656 64.2265V58.7073C69.3656 58.1086 68.8803 57.6233 68.2816 57.6233Z" fill="#FFC444"/>
</svg>
