<svg width="74" height="74" viewBox="0 0 74 74" fill="none" xmlns="http://www.w3.org/2000/svg">
<g clip-path="url(#clip0)">
<path d="M58.7108 54.9318C58.1108 54.9318 57.6243 55.4183 57.6243 56.0183V65.8297C57.6243 68.7002 55.2889 71.0356 52.4184 71.0356H7.37879C4.50828 71.0356 2.17287 68.7002 2.17287 65.8297V15.5214C2.17287 12.6509 4.50828 10.3155 7.37879 10.3155H13.6597C14.2597 10.3155 14.7461 9.82902 14.7461 9.22902C14.7461 8.62901 14.2597 8.14258 13.6597 8.14258H7.37879C3.31016 8.14258 0 11.4527 0 15.5214V65.8295C0 69.8981 3.31016 73.2083 7.37879 73.2083H52.4183C56.4869 73.2083 59.7971 69.8981 59.7971 65.8295V56.0183C59.7972 55.4183 59.3108 54.9318 58.7108 54.9318Z" fill="#FFC444"/>
<path d="M46.1374 10.3155H52.4183C55.2888 10.3155 57.6242 12.6509 57.6242 15.5214V22.3055C57.6242 22.9055 58.1106 23.392 58.7106 23.392C59.3106 23.392 59.7971 22.9055 59.7971 22.3055V15.5214C59.7971 11.4527 56.4869 8.14258 52.4183 8.14258H46.1374C45.5374 8.14258 45.0509 8.62901 45.0509 9.22902C45.0509 9.82902 45.5374 10.3155 46.1374 10.3155Z" fill="#FFC444"/>
<path d="M5.4322 25.7283C4.8322 25.7283 4.34576 26.2147 4.34576 26.8147V65.8295C4.34576 67.5019 5.70642 68.8626 7.37881 68.8626H52.4183C54.0907 68.8626 55.4513 67.5019 55.4513 65.8295V56.0607C55.4513 55.4607 54.9649 54.9743 54.3649 54.9743C53.7649 54.9743 53.2784 55.4607 53.2784 56.0607V65.8295C53.2784 66.3038 52.8925 66.6897 52.4183 66.6897H7.37881C6.90454 66.6897 6.51864 66.3038 6.51864 65.8295V26.8147C6.51864 26.2147 6.0322 25.7283 5.4322 25.7283Z" fill="#FFC444"/>
<path d="M13.9365 12.4883H7.37881C5.70642 12.4883 4.34576 13.8489 4.34576 15.5213V22.1847C4.34576 22.7847 4.8322 23.2711 5.4322 23.2711C6.0322 23.2711 6.51864 22.7847 6.51864 22.1847V15.5213C6.51864 15.0471 6.90454 14.6612 7.37881 14.6612H13.9364C14.5364 14.6612 15.0228 14.1747 15.0228 13.5747C15.0228 12.9747 14.5365 12.4883 13.9365 12.4883Z" fill="#FFC444"/>
<path d="M45.8607 14.6612H52.4183C52.8926 14.6612 53.2785 15.0471 53.2785 15.5213V22.3457C53.2785 22.9457 53.7649 23.4322 54.3649 23.4322C54.9649 23.4322 55.4513 22.9457 55.4513 22.3457V15.5213C55.4513 13.8489 54.0907 12.4883 52.4183 12.4883H45.8607C45.2607 12.4883 44.7743 12.9747 44.7743 13.5747C44.7743 14.1747 45.2607 14.6612 45.8607 14.6612Z" fill="#FFC444"/>
<path d="M21.0499 15.7074H26.1013C26.7013 15.7074 27.1877 15.221 27.1877 14.621C27.1877 14.021 26.7013 13.5345 26.1013 13.5345H21.0499C19.9703 13.5345 19.0919 12.6561 19.0919 11.5765V8.15349C19.0919 7.07372 19.9703 6.1953 21.0499 6.1953H22.7881C23.5878 6.1953 24.2386 5.54459 24.2386 4.74483V3.67274C24.2386 3.2822 24.5564 2.96438 24.9469 2.96438H34.8501C35.2407 2.96438 35.5585 3.2822 35.5585 3.67274V4.74483C35.5585 5.54459 36.2092 6.1953 37.009 6.1953H38.7471C39.8268 6.1953 40.7052 7.07372 40.7052 8.15349V11.5765C40.7052 12.6561 39.8268 13.5345 38.7471 13.5345H30.7312C30.1312 13.5345 29.6448 14.021 29.6448 14.621C29.6448 15.221 30.1312 15.7074 30.7312 15.7074H38.7471C41.025 15.7074 42.878 13.8544 42.878 11.5765V8.15349C42.878 5.8756 41.025 4.02242 38.7471 4.02242H37.7314V3.67274C37.7314 2.08407 36.4388 0.791504 34.8501 0.791504H24.9469C23.3582 0.791504 22.0657 2.08407 22.0657 3.67274V4.02242H21.0499C18.772 4.02242 16.919 5.8756 16.919 8.15349V11.5765C16.919 13.8544 18.7722 15.7074 21.0499 15.7074Z" fill="#FFC444"/>
<path d="M34.4302 8.85206C34.4302 8.25206 33.9438 7.76562 33.3438 7.76562H26.4534C25.8534 7.76562 25.367 8.25206 25.367 8.85206C25.367 9.45206 25.8534 9.9385 26.4534 9.9385H33.3438C33.9438 9.9385 34.4302 9.45206 34.4302 8.85206Z" fill="#FFC444"/>
<path d="M72.3368 29.5232C69.5127 25.1244 63.811 23.474 59.0744 25.6847L56.6005 26.8391C56.5276 26.8731 56.4442 26.8728 56.3713 26.8391L53.8976 25.6847C49.1607 23.474 43.4592 25.1244 40.6351 29.5232C39.2137 31.7372 38.6779 34.3843 39.1261 36.977C39.5744 39.5695 40.9679 41.883 43.0503 43.4913L54.9569 52.687C55.407 53.0345 55.9463 53.2084 56.4858 53.2084C57.0252 53.2084 57.5645 53.0345 58.0147 52.6869L62.5559 49.1797C63.0308 48.8129 63.1184 48.1306 62.7518 47.6557C62.385 47.1808 61.7027 47.0933 61.2277 47.4598L56.6867 50.967C56.5685 51.0582 56.4033 51.0584 56.2853 50.967L44.3788 41.7714C43.9116 41.4105 43.4901 41.0038 43.1149 40.5611H47.6714C48.1599 40.5611 48.5884 40.2351 48.7186 39.7642L49.9419 35.3407L53.3431 44.7721C53.4978 45.2012 53.9041 45.4879 54.3601 45.49H54.3652C54.8192 45.49 55.2256 45.2076 55.3837 44.7815L58.6116 36.0809L59.5872 39.2717C59.7268 39.7284 60.1485 40.0405 60.6261 40.0405H70.2644C69.7983 40.689 69.2381 41.2733 68.5932 41.7715L64.9222 44.6065C64.4473 44.9733 64.3597 45.6556 64.7263 46.1306C65.0933 46.6054 65.7752 46.6931 66.2504 46.3264L69.9214 43.4913C72.0037 41.883 73.3974 39.5695 73.8456 36.977C74.2939 34.3843 73.7581 31.7373 72.3368 29.5232ZM61.4301 37.8676L59.7497 32.3724C59.6134 31.9268 59.2082 31.6177 58.7425 31.604C58.2748 31.587 57.8541 31.8752 57.6921 32.3121L54.3795 41.2412L50.8272 31.3905C50.6668 30.9454 50.2361 30.6577 49.7638 30.6735C49.2909 30.6916 48.8842 31.0135 48.7581 31.4696L46.8447 38.3885H41.786C41.5497 37.8204 41.3741 37.2238 41.2674 36.6067C40.9119 34.5513 41.3368 32.4525 42.4638 30.6971C44.7027 27.2093 49.2233 25.9011 52.9787 27.6538L55.4523 28.8081C56.1091 29.1145 56.8627 29.1147 57.5193 28.8081L59.9932 27.6538C63.7485 25.9011 68.2691 27.2095 70.5082 30.6971C71.6351 32.4525 72.0599 34.5512 71.7046 36.6067C71.63 37.0381 71.5205 37.4589 71.3818 37.8677H61.4301V37.8676Z" fill="black"/>
<path d="M13.1379 30.8475H18.243C19.4824 30.8475 20.4908 29.8392 20.4908 28.5998V22.9704C20.4908 21.731 19.4824 20.7227 18.243 20.7227H13.1379C11.8985 20.7227 10.8903 21.731 10.8903 22.9704V28.5998C10.8903 29.8392 11.8985 30.8475 13.1379 30.8475ZM13.0632 22.9704C13.0632 22.9291 13.0966 22.8955 13.1379 22.8955H18.243C18.2843 22.8955 18.3179 22.9291 18.3179 22.9704V28.5998C18.3179 28.641 18.2843 28.6747 18.243 28.6747H13.1379C13.0966 28.6747 13.0632 28.641 13.0632 28.5998V22.9704Z" fill="#FFC444"/>
<path d="M10.8903 42.9006C10.8903 44.14 11.8985 45.1484 13.1379 45.1484H18.243C19.4824 45.1484 20.4908 44.14 20.4908 42.9006V37.2713C20.4908 36.0319 19.4824 35.0237 18.243 35.0237H13.1379C11.8985 35.0237 10.8903 36.0319 10.8903 37.2713V42.9006ZM13.0632 37.2713C13.0632 37.23 13.0966 37.1966 13.1379 37.1966H18.243C18.2843 37.1966 18.3179 37.23 18.3179 37.2713V42.9006C18.3179 42.9419 18.2843 42.9755 18.243 42.9755H13.1379C13.0966 42.9755 13.0632 42.9419 13.0632 42.9006V37.2713Z" fill="#FFC444"/>
<path d="M10.8903 57.2017C10.8903 58.4411 11.8985 59.4494 13.1379 59.4494H18.243C19.4824 59.4494 20.4908 58.4411 20.4908 57.2017V51.5723C20.4908 50.3329 19.4824 49.3247 18.243 49.3247H13.1379C11.8985 49.3247 10.8903 50.3329 10.8903 51.5723V57.2017ZM13.0632 51.5723C13.0632 51.531 13.0966 51.4976 13.1379 51.4976H18.243C18.2843 51.4976 18.3179 51.531 18.3179 51.5723V57.2017C18.3179 57.2429 18.2843 57.2766 18.243 57.2766H13.1379C13.0966 57.2766 13.0632 57.2429 13.0632 57.2017V51.5723Z" fill="#FFC444"/>
<path d="M23.7156 23.4321H36.3544C36.9544 23.4321 37.4408 22.9457 37.4408 22.3457C37.4408 21.7457 36.9544 21.2593 36.3544 21.2593H23.7156C23.1156 21.2593 22.6292 21.7457 22.6292 22.3457C22.6292 22.9457 23.1156 23.4321 23.7156 23.4321Z" fill="black"/>
<path d="M23.7156 30.3867H36.3544C36.9544 30.3867 37.4408 29.9003 37.4408 29.3003C37.4408 28.7003 36.9544 28.2139 36.3544 28.2139H23.7156C23.1156 28.2139 22.6292 28.7003 22.6292 29.3003C22.6292 29.9003 23.1156 30.3867 23.7156 30.3867Z" fill="black"/>
<path d="M23.7156 37.6951H36.3544C36.9544 37.6951 37.4408 37.2087 37.4408 36.6087C37.4408 36.0087 36.9544 35.5222 36.3544 35.5222H23.7156C23.1156 35.5222 22.6292 36.0087 22.6292 36.6087C22.6292 37.2088 23.1156 37.6951 23.7156 37.6951Z" fill="black"/>
<path d="M38.0927 42.4768H23.7156C23.1156 42.4768 22.6292 42.9632 22.6292 43.5633C22.6292 44.1633 23.1156 44.6497 23.7156 44.6497H38.0927C38.6927 44.6497 39.1791 44.1633 39.1791 43.5633C39.1791 42.9632 38.6927 42.4768 38.0927 42.4768Z" fill="black"/>
<path d="M43.7174 49.7852H23.7156C23.1156 49.7852 22.6292 50.2716 22.6292 50.8716C22.6292 51.4716 23.1156 51.958 23.7156 51.958H43.7174C44.3174 51.958 44.8038 51.4716 44.8038 50.8716C44.8038 50.2716 44.3174 49.7852 43.7174 49.7852Z" fill="black"/>
<path d="M48.2979 56.7397H23.7156C23.1156 56.7397 22.6292 57.2262 22.6292 57.8262C22.6292 58.4262 23.1156 58.9126 23.7156 58.9126H48.2979C48.8979 58.9126 49.3844 58.4262 49.3844 57.8262C49.3844 57.2262 48.8979 56.7397 48.2979 56.7397Z" fill="black"/>
</g>
<defs>
<clipPath id="clip0">
<rect width="74" height="74" fill="white"/>
</clipPath>
</defs>
</svg>
