<svg width="50" height="50" viewBox="0 0 50 50" fill="none" xmlns="http://www.w3.org/2000/svg">
<circle r="25" transform="matrix(-1 0 0 1 25 25)" fill="#FFFFFF"/>
<path d="M30.5559 24.2196L21.6556 15.3195C21.4498 15.1135 21.175 15 20.882 15C20.589 15 20.3142 15.1135 20.1083 15.3195L19.4529 15.9748C19.0264 16.4018 19.0264 17.0958 19.4529 17.5221L26.9266 24.9959L19.4446 32.4779C19.2387 32.6839 19.1251 32.9586 19.1251 33.2514C19.1251 33.5446 19.2387 33.8192 19.4446 34.0254L20.1 34.6805C20.306 34.8865 20.5807 35 20.8737 35C21.1667 35 21.4415 34.8865 21.6473 34.6805L30.5559 25.7723C30.7622 25.5656 30.8755 25.2897 30.8749 24.9963C30.8755 24.7019 30.7622 24.4261 30.5559 24.2196Z" fill="#6165D7"/>
</svg>
