<svg width="38" height="50" viewBox="0 0 38 50" fill="none" xmlns="http://www.w3.org/2000/svg">
<path d="M19 44.1406C18.5955 44.1406 18.2676 44.4686 18.2676 44.873C18.2676 45.2775 18.5955 45.6055 19 45.6055C19.4045 45.6055 19.7324 45.2775 19.7324 44.873C19.7324 44.4686 19.4045 44.1406 19 44.1406ZM19 39.7461C18.5955 39.7461 18.2676 40.074 18.2676 40.4785C18.2676 40.883 18.5955 41.2109 19 41.2109C19.4045 41.2109 19.7324 40.883 19.7324 40.4785C19.7324 40.074 19.4045 39.7461 19 39.7461ZM19 48.5352C18.5955 48.5352 18.2676 48.8631 18.2676 49.2676C18.2676 49.6721 18.5955 50 19 50C19.4045 50 19.7324 49.6721 19.7324 49.2676C19.7324 48.8631 19.4045 48.5352 19 48.5352ZM33.3889 33.509L30.1287 32.4119C31.931 31.1282 33.0605 29.0214 33.0605 26.7472C33.0652 26.7378 33.0605 14.0606 33.0605 14.0606C33.0605 10.3062 31.5981 6.77539 28.9427 4.11895C26.2867 1.46279 22.7557 0 19 0C16.5877 0 14.2077 0.621387 12.1172 1.79707C11.7646 1.99531 11.6395 2.44189 11.8378 2.79443C12.036 3.14707 12.4827 3.27197 12.8352 3.07383C14.7069 2.02129 16.8387 1.46484 19 1.46484C22.3644 1.46484 25.5275 2.7752 27.9068 5.15449C30.2856 7.53428 31.5957 10.6972 31.5957 14.0605V14.0639C31.1703 13.8197 30.6781 13.6793 30.1535 13.6793H29.4497C27.4901 13.3428 25.5682 12.7874 23.7363 12.0271C22.3422 11.4485 20.9874 10.7455 19.7097 9.9377C19.2622 9.65469 18.6784 9.68096 18.257 10.003C17.2603 10.7645 16.1839 11.4229 15.0576 11.9601C13.0341 12.9251 10.8566 13.5033 8.58544 13.6793H7.84658C7.32197 13.6793 6.82978 13.8197 6.40439 14.0639V14.0605C6.40439 10.6525 7.74384 7.46045 10.1761 5.07236C10.4647 4.78897 10.4689 4.32529 10.1855 4.03662C9.90224 3.74805 9.43847 3.74365 9.1498 4.02715C6.43476 6.69287 4.93955 10.2562 4.93955 14.0605V26.7471C4.93955 29.0213 6.06914 31.1282 7.87138 32.4118L4.61113 33.509C1.92558 34.4129 0.121185 36.9237 0.121185 39.7568V49.2676C0.121185 49.6721 0.449115 50 0.853607 50C1.2581 50 1.58603 49.6721 1.58603 49.2676V39.7568C1.58603 37.5533 2.98955 35.6004 5.07841 34.8974L6.35126 34.469C6.16289 35.2432 6.07959 36.0411 6.10888 36.8311C6.13662 37.5811 6.26318 38.3183 6.48222 39.0332C5.05947 39.4604 4.01962 40.7814 4.01962 42.3415V45.3223C4.01962 46.0597 4.61953 46.6595 5.35683 46.6595H6.17763C6.58212 46.6595 6.91005 46.3315 6.91005 45.9271C6.91005 45.5226 6.58212 45.1946 6.17763 45.1946H5.48437V42.3414C5.48437 41.245 6.37597 40.353 7.47216 40.3523C7.47275 40.3523 7.47324 40.3524 7.47382 40.3524C7.47441 40.3524 7.475 40.3523 7.47558 40.3523C8.57148 40.3535 9.46269 41.2453 9.46269 42.3414V45.1946H8.76953C8.36504 45.1946 8.03711 45.5226 8.03711 45.9271C8.03711 46.3315 8.36504 46.6595 8.76953 46.6595H9.59033C10.3276 46.6595 10.9275 46.0596 10.9275 45.3223V42.3415C10.9275 40.6122 9.65009 39.1759 7.98935 38.9262C7.74082 38.2329 7.5998 37.5121 7.57255 36.7769C7.53652 35.8019 7.70673 34.8113 8.06513 33.8923L13.0613 32.2109L18.3036 37.4531C18.7318 37.8854 19.4621 37.8875 19.8919 37.4531L21.3387 36.0063C21.6247 35.7203 21.6247 35.2565 21.3387 34.9706C21.0526 34.6846 20.5889 34.6846 20.3029 34.9706L19.0977 36.1756L14.455 31.5329C15.1434 30.9345 15.457 30.0223 15.3867 29.1019C16.5085 29.4931 17.7107 29.7078 18.9608 29.7122C20.2208 29.7166 21.4546 29.511 22.6133 29.1139C22.4937 30.048 22.9264 31.0645 23.6531 31.6201L22.7147 32.5585C22.4287 32.8445 22.4287 33.3083 22.7147 33.5942C23.0008 33.8803 23.4645 33.8803 23.7505 33.5942L25.0848 32.26L29.545 33.7609C29.8823 34.6188 30.0564 35.5466 30.0478 36.4647C30.0398 37.2972 29.8809 38.1378 29.5877 38.9215C27.6837 39.1707 26.2084 40.8024 26.2084 42.7733C26.2084 44.9161 27.9517 46.6594 30.0944 46.6594C32.2372 46.6594 33.9805 44.9162 33.9805 42.7734C33.9805 40.9796 32.7584 39.4664 31.1033 39.021C31.3641 38.1991 31.5045 37.3353 31.5126 36.4787C31.5194 35.7616 31.4337 35.0396 31.2623 34.3388L32.9217 34.8972C35.0106 35.6003 36.4141 37.5532 36.4141 39.7567V49.2675C36.4141 49.672 36.742 49.9999 37.1465 49.9999C37.551 49.9999 37.8789 49.672 37.8789 49.2675V39.7567C37.8789 36.9237 36.0745 34.413 33.3889 33.509ZM30.1159 15.1441H30.1535C30.947 15.1441 31.5926 15.7883 31.5957 16.581V16.5922C31.5922 17.3955 30.9228 18.0521 30.1159 18.029V15.1441ZM6.40429 16.5811C6.40664 15.7772 7.07802 15.1216 7.88408 15.1442V18.0292C7.07714 18.0515 6.40771 17.3976 6.40429 16.5924V16.5811ZM13.9219 29.499C13.9219 30.0239 13.5881 30.4886 13.0906 30.6555L9.73037 31.7863C7.73105 30.9305 6.40439 28.937 6.40439 26.7472V19.1096C6.86396 19.3752 7.37187 19.5031 7.92978 19.4941C8.27753 23.4032 10.6216 26.7469 13.9219 28.4687V29.499ZM18.9658 28.2474C13.6631 28.229 9.34892 23.849 9.34892 18.4837V15.0792C11.566 14.8357 13.6955 14.2324 15.6882 13.2822C16.866 12.7206 17.9932 12.0362 19.0405 11.2473C20.355 12.0694 21.7453 12.7868 23.1748 13.3801C24.9353 14.1108 26.7747 14.6627 28.651 15.0235V18.5964C28.651 21.1806 27.6429 23.6083 25.8124 25.4325C23.9508 27.2878 21.6254 28.2566 18.9658 28.2474ZM28.2697 31.7862L24.9087 30.6552C24.4119 30.4886 24.0781 30.0239 24.0781 29.499V28.4899C25.0865 27.971 26.0199 27.2938 26.8465 26.4701C28.7414 24.5817 29.8706 22.1316 30.0799 19.4939C30.6185 19.5017 31.1546 19.3657 31.5958 19.1094V26.747C31.5957 28.9369 30.269 30.9305 28.2697 31.7862ZM32.5156 42.7734C32.5156 44.1085 31.4295 45.1946 30.0945 45.1946C28.7595 45.1946 27.6733 44.1085 27.6733 42.7734C27.6733 41.4394 28.758 40.3539 30.0917 40.3523C30.0925 40.3523 30.0933 40.3524 30.094 40.3524C30.0947 40.3524 30.0954 40.3523 30.0961 40.3523C31.4304 40.3531 32.5156 41.4389 32.5156 42.7734ZM23.736 15.7416C23.3315 15.7416 23.0036 16.0695 23.0036 16.474V18.1495C23.0036 18.554 23.3315 18.8819 23.736 18.8819C24.1405 18.8819 24.4685 18.554 24.4685 18.1495V16.474C24.4685 16.0695 24.1405 15.7416 23.736 15.7416ZM20.0399 22.7004C19.8751 22.8175 19.5292 23.0164 19.0645 23.033C18.5402 23.0513 18.1464 22.8323 17.9594 22.6998C17.6294 22.4659 17.1722 22.5439 16.9383 22.874C16.7044 23.204 16.7824 23.6612 17.1125 23.8951C17.4366 24.1248 18.1027 24.499 19.0006 24.499C19.7872 24.499 20.5177 24.1578 20.8882 23.8946C21.218 23.6604 21.2954 23.2031 21.0611 22.8733C20.8269 22.5436 20.3697 22.4661 20.0399 22.7004ZM14.264 15.7416C13.8595 15.7416 13.5315 16.0695 13.5315 16.474V18.1495C13.5315 18.554 13.8595 18.8819 14.264 18.8819C14.6685 18.8819 14.9964 18.554 14.9964 18.1495V16.474C14.9964 16.0695 14.6686 15.7416 14.264 15.7416Z" fill="black"/>
</svg>
