<svg width="41" height="41" viewBox="0 0 41 41" fill="none" xmlns="http://www.w3.org/2000/svg">
<path d="M31.8558 25.3047C31.0324 24.4473 30.0393 23.989 28.9867 23.989C27.9426 23.989 26.941 24.4388 26.0837 25.2962L23.4013 27.97C23.1806 27.8512 22.9599 27.7408 22.7477 27.6305C22.4421 27.4777 22.1535 27.3334 21.9074 27.1806C19.3948 25.5848 17.1114 23.5051 14.9214 20.8143C13.8603 19.4731 13.1473 18.3441 12.6295 17.1982C13.3255 16.5616 13.9707 15.8995 14.5988 15.2628C14.8365 15.0252 15.0742 14.779 15.3118 14.5413C17.0944 12.7587 17.0944 10.4499 15.3118 8.66732L12.9945 6.34997C12.7313 6.08683 12.4597 5.8152 12.2051 5.54357C11.6958 5.01729 11.161 4.47403 10.6092 3.96472C9.78585 3.14983 8.80119 2.71692 7.7656 2.71692C6.73001 2.71692 5.72838 3.14983 4.87953 3.96472C4.87104 3.97321 4.87104 3.97321 4.86256 3.9817L1.97648 6.89323C0.889964 7.97975 0.270307 9.30395 0.134492 10.8404C-0.0692304 13.319 0.660776 15.6278 1.22101 17.1388C2.59614 20.8482 4.65034 24.2861 7.71467 27.97C11.4326 32.4095 15.906 35.9152 21.0161 38.3854C22.9684 39.3106 25.5744 40.4056 28.4859 40.5924C28.6642 40.6008 28.8509 40.6093 29.0207 40.6093C30.9815 40.6093 32.6283 39.9048 33.9185 38.5042C33.927 38.4872 33.944 38.4787 33.9525 38.4618C34.3939 37.927 34.9032 37.4431 35.4379 36.9253C35.8029 36.5773 36.1764 36.2123 36.5414 35.8303C37.3818 34.956 37.8232 33.9374 37.8232 32.8933C37.8232 31.8408 37.3733 30.8306 36.516 29.9818L31.8558 25.3047ZM34.8947 34.243C34.8862 34.243 34.8862 34.2515 34.8947 34.243C34.5636 34.5995 34.2241 34.9221 33.8591 35.2786C33.3073 35.8049 32.7471 36.3566 32.2208 36.9763C31.3635 37.893 30.3534 38.3259 29.0292 38.3259C28.9018 38.3259 28.766 38.3259 28.6387 38.3174C26.1176 38.1562 23.7748 37.1715 22.0177 36.3312C17.2132 34.0053 12.9945 30.7033 9.48876 26.5185C6.5942 23.0298 4.65883 19.8042 3.37708 16.3409C2.58765 14.2272 2.29905 12.5805 2.42637 11.0271C2.51126 10.034 2.89324 9.21058 3.59778 8.50604L6.49234 5.61148C6.90827 5.22101 7.34967 5.0088 7.78258 5.0088C8.31735 5.0088 8.75026 5.33136 9.02189 5.60299C9.03038 5.61148 9.03887 5.61997 9.04736 5.62846C9.56515 6.1123 10.0575 6.61311 10.5753 7.14789C10.8384 7.41952 11.1101 7.69115 11.3817 7.97127L13.699 10.2886C14.5988 11.1884 14.5988 12.0203 13.699 12.92C13.4529 13.1662 13.2152 13.4124 12.969 13.65C12.256 14.38 11.5769 15.0591 10.8384 15.7212C10.8214 15.7382 10.8045 15.7467 10.796 15.7637C10.066 16.4937 10.2018 17.2067 10.3546 17.6905C10.3631 17.716 10.3716 17.7415 10.38 17.7669C10.9827 19.2269 11.8316 20.6021 13.1218 22.2403L13.1303 22.2488C15.4731 25.1349 17.9432 27.3843 20.668 29.1075C21.0161 29.3282 21.3726 29.5064 21.7121 29.6762C22.0177 29.829 22.3063 29.9733 22.5525 30.1261C22.5864 30.1431 22.6204 30.1685 22.6543 30.1855C22.9429 30.3298 23.2146 30.3977 23.4947 30.3977C24.1992 30.3977 24.6406 29.9563 24.7849 29.812L27.688 26.909C27.9766 26.6204 28.435 26.2723 28.9697 26.2723C29.496 26.2723 29.9289 26.6034 30.1921 26.892C30.2006 26.9005 30.2006 26.9005 30.2091 26.909L34.8862 31.5861C35.7605 32.4519 35.7605 33.3432 34.8947 34.243Z" fill="#171C4E"/>
<path d="M21.8055 9.95759C24.0295 10.3311 26.0497 11.3837 27.6625 12.9965C29.2753 14.6093 30.3194 16.6295 30.7014 18.8535C30.7948 19.4137 31.2786 19.8042 31.8303 19.8042C31.8983 19.8042 31.9577 19.7957 32.0256 19.7872C32.6537 19.6853 33.0697 19.0912 32.9678 18.463C32.5094 15.7722 31.2362 13.319 29.2923 11.3752C27.3484 9.43131 24.8953 8.15804 22.2045 7.69967C21.5763 7.59781 20.9906 8.01374 20.8803 8.6334C20.7699 9.25305 21.1774 9.85573 21.8055 9.95759Z" fill="#171C4E"/>
<path d="M40.2424 18.132C39.4869 13.701 37.3988 9.66899 34.1901 6.46036C30.9815 3.25172 26.9495 1.16357 22.5185 0.408095C21.8989 0.297746 21.3132 0.722168 21.2028 1.34182C21.1009 1.96997 21.5169 2.55567 22.145 2.66602C26.1006 3.33661 29.7082 5.21255 32.5773 8.07316C35.4464 10.9423 37.3139 14.5498 37.9845 18.5055C38.0778 19.0657 38.5617 19.4562 39.1134 19.4562C39.1813 19.4562 39.2407 19.4477 39.3087 19.4392C39.9283 19.3458 40.3527 18.7516 40.2424 18.132Z" fill="#171C4E"/>
</svg>
