<svg width="37" height="36" viewBox="0 0 37 36" fill="none" xmlns="http://www.w3.org/2000/svg">
<g clip-path="url(#clip0)">
<path d="M28.8054 6.16482C26.6206 2.39439 22.7399 0.0908789 18.4245 0.00284766C18.2403 -0.000949219 18.0549 -0.000949219 17.8706 0.00284766C13.5552 0.0908789 9.67452 2.39439 7.48963 6.16482C5.25636 10.0188 5.19526 14.6482 7.32615 18.5485L16.2532 34.8882C16.2572 34.8954 16.2613 34.9027 16.2654 34.9098C16.6582 35.5925 17.3618 36 18.1477 36C18.9335 36 19.6371 35.5924 20.0298 34.9098C20.0339 34.9027 20.0379 34.8954 20.042 34.8882L28.969 18.5485C31.0998 14.6482 31.0387 10.0188 28.8054 6.16482ZM18.1475 16.3125C15.3561 16.3125 13.085 14.0415 13.085 11.25C13.085 8.45856 15.3561 6.18754 18.1475 6.18754C20.939 6.18754 23.21 8.45856 23.21 11.25C23.21 14.0415 20.9391 16.3125 18.1475 16.3125Z" fill="#FFC444"/>
</g>
<defs>
<clipPath id="clip0">
<rect width="36" height="36" fill="white" transform="translate(0.147522)"/>
</clipPath>
</defs>
</svg>
