<svg width="50" height="50" viewBox="0 0 50 50" fill="none" xmlns="http://www.w3.org/2000/svg">
<circle cx="25" cy="25" r="25" fill="#FFFFFF"/>
<path d="M19.4441 24.2196L28.3444 15.3195C28.5502 15.1135 28.825 15 29.118 15C29.411 15 29.6858 15.1135 29.8917 15.3195L30.5471 15.9748C30.9736 16.4018 30.9736 17.0958 30.5471 17.5221L23.0734 24.9959L30.5554 32.4779C30.7613 32.6839 30.8749 32.9586 30.8749 33.2514C30.8749 33.5446 30.7613 33.8192 30.5554 34.0254L29.9 34.6805C29.694 34.8865 29.4193 35 29.1263 35C28.8333 35 28.5585 34.8865 28.3527 34.6805L19.4441 25.7723C19.2378 25.5656 19.1245 25.2897 19.1251 24.9963C19.1245 24.7019 19.2378 24.4261 19.4441 24.2196Z" fill="#6165D7"/>
</svg>
