<svg fill="none" version="1.1" viewBox="0 0 99 99" xmlns="http://www.w3.org/2000/svg">
 <defs>
  <clipPath id="a">
   <rect width="43" height="43" fill="#fff"/>
  </clipPath>
 </defs>
 <circle cx="49.5" cy="49.5" r="49" stroke="#ffc444" stroke-opacity=".5"/>
 <circle cx="49.5" cy="49.5" r="42.699" stroke="#ffc444" stroke-width="2"/>
 <circle cx="49.5" cy="49.5" r="38.285" fill="#ffc444"/>
 <g transform="translate(28 28)" clip-path="url(#a)" fill="#171c4e">
  <path d="m42.646 5.427c-0.0255-0.02402-5.0764-4.8409-5.0764-4.8409-0.1931-0.18527-0.3928-0.37675-0.7657-0.37675h-20.334c-0.594 0-1.0772 0.48316-1.0772 1.0771v3.3076l-7.1668 1.2285c-0.57446 0.10078-0.96078 0.65054-0.86126 1.2244l0.36373 2.1208c-2.3295 0.78391-4.7211 1.592-7.0299 2.4214-0.54556 0.1994-0.83186 0.806-0.63719 1.3549l4.5927 12.767c0.09238 0.2569 0.33451 0.4169 0.59276 0.4169 0.07071 0 0.14277-0.0121 0.21315-0.0374 0.32737-0.1178 0.49727-0.4786 0.37953-0.8059l-4.5248-12.578c2.1752-0.7788 4.4278-1.541 6.6293-2.282l2.1644 12.618 2.4905 14.532c0.0899 0.513 0.5408 0.878 1.0498 0.878 0.0576 0 0.1161-0.0047 0.1747-0.0144l6.7453-1.1576 5.2708-0.9035-7.9273 2.8494-6.2514 2.2476-4.855-13.504c-0.11766-0.3274-0.47837-0.4973-0.80583-0.3796-0.32737 0.1176-0.49727 0.4784-0.37961 0.8058l4.9238 13.696c0.1575 0.4306 0.5655 0.6984 0.9967 0.6984 0.1192 0 0.2402-0.0205 0.3581-0.0636l6.4392-2.3151 14.621-5.2552 2.7932-0.4788h6.1704c0.594 0 1.0772-0.4843 1.0772-1.0796v-27.462c1e-4 -0.37701-0.2045-0.56933-0.3538-0.70975zm-1.6689 0.14915h-3.1519l-0.0781 3.4e-4c-0.1509 0.00101-0.5042 0.00361-0.5938-0.08541-0.0207-0.02058-0.0449-0.08928-0.0449-0.21685l-0.0073-3.3942zm0.763 27.842h-25.088v-12.276c0-0.3479-0.2821-0.6299-0.6299-0.6299-0.3479 0-0.6299 0.282-0.6299 0.6299v12.456c0 0.5952 0.4832 1.0795 1.0772 1.0795h11.826l-7.9403 1.361-6.5493 1.124-2.4564-14.333-2.71-15.8 6.7528-1.1576v12.348c0 0.3479 0.282 0.6299 0.6299 0.6299s0.6299-0.282 0.6299-0.6299v-16.751h19.188l0.0082 3.8067c0 0.46141 0.1404 0.83463 0.4171 1.1094 0.4252 0.42219 1.0263 0.45159 1.3994 0.45159 0.0321 0 0.0625-2.6e-4 0.091-4.2e-4l3.984-2.6e-4z"/>
  <path d="m19.688 9.9899c0 0.34783 0.282 0.62993 0.6298 0.62993h18.009c0.3479 0 0.6299-0.2821 0.6299-0.62993 0-0.34787-0.282-0.62988-0.6299-0.62988h-18.009c-0.3478 0-0.6298 0.28201-0.6298 0.62988z"/>
  <path d="m38.328 13.835h-18.009c-0.3478 0-0.6298 0.2821-0.6298 0.6299 0 0.3479 0.282 0.6299 0.6298 0.6299h18.009c0.3479 0 0.6299-0.282 0.6299-0.6299 0-0.3478-0.282-0.6299-0.6299-0.6299z"/>
  <path d="m38.328 18.31h-18.009c-0.3478 0-0.6298 0.282-0.6298 0.6299 0 0.3478 0.282 0.6299 0.6298 0.6299h18.009c0.3479 0 0.6299-0.2821 0.6299-0.6299 0-0.3479-0.282-0.6299-0.6299-0.6299z"/>
  <path d="m38.328 22.784h-18.009c-0.3478 0-0.6298 0.2821-0.6298 0.6299 0 0.3479 0.282 0.6299 0.6298 0.6299h18.009c0.3479 0 0.6299-0.282 0.6299-0.6299 0-0.3478-0.282-0.6299-0.6299-0.6299z"/>
  <path d="m38.328 27.26h-18.009c-0.3478 0-0.6298 0.282-0.6298 0.6299s0.282 0.6299 0.6298 0.6299h18.009c0.3479 0 0.6299-0.282 0.6299-0.6299s-0.282-0.6299-0.6299-0.6299z"/>
 </g>
</svg>
