<svg fill="none" version="1.1" viewBox="0 0 99 99" xmlns="http://www.w3.org/2000/svg">
 <defs>
  <clipPath id="a">
   <rect width="44" height="44" fill="#fff"/>
  </clipPath>
 </defs>
 <circle cx="49.5" cy="49.5" r="49" stroke="#ffc444" stroke-opacity=".5"/>
 <circle cx="49.5" cy="49.5" r="42.699" stroke="#ffc444" stroke-width="2"/>
 <circle cx="49.5" cy="49.5" r="38.285" fill="#ffc444"/>
 <g transform="translate(27.5 27.5)" clip-path="url(#a)" fill="#171c4e">
  <path d="m42.581 4.2581v-4.2581h-11.355v4.2581h2.8387v2.8387h-2.129v18.452h2.8387v2.8387h1.4193v5.6774h1.4194v-5.6774h1.4194v-2.8387h2.8387v-18.452h-2.1291v-2.8387zm-9.9354-2.8387h8.5161v1.4194h-8.5161zm4.9677 25.548h-1.4194v-1.4193h1.4194zm2.8387-2.8387h-7.0968v-1.4193h3.5484v-1.4194h-3.5484v-1.4193h2.1291v-1.4194h-2.1291v-1.4193h3.5484v-1.4194h-3.5484v-1.4194h2.1291v-1.4193h-2.1291v-1.4194h3.5484v-1.4193h-3.5484v-1.4194h7.0968zm-2.129-17.032h-2.8387v-2.8387h2.8387z"/>
  <path d="m36.903 35.524-2.4343 4.0564c-0.2647 0.4414-0.4044 0.946-0.4044 1.4613v0.1199c0 1.5655 1.2731 2.8387 2.8387 2.8387s2.8387-1.2732 2.8387-2.8387v-0.1199c0-0.5153-0.1396-1.0206-0.4044-1.4606zm1.4194 5.6376c0 0.7827-0.6366 1.4193-1.4194 1.4193s-1.4193-0.6366-1.4193-1.4193v-0.1199c0-0.2579 0.0703-0.5098 0.2023-0.7305l1.217-2.0282 1.217 2.0292c0.132 0.2197 0.2024 0.4716 0.2024 0.7295z"/>
  <path d="m15.613 8.5161h1.4194v-1.4194h1.4193v-1.4194h-1.4193v-1.4194h-1.4194v1.4194h-1.4194v1.4194h1.4194z"/>
  <path d="m27.174 29.168-3.9677-0.744c0.2235-0.3802 0.4262-0.7728 0.5988-1.1792l1.5479 0.7734 0.1823-0.9114c0.4799-2.4 0.7232-4.8582 0.7232-7.306v-4.8974c0-2.3158-0.814-4.5703-2.293-6.3487l-7e-4 6.9e-4 0.997-3.9885-8.6388-3.9275-8.6381 3.9275 0.99902 3.9968c-1.481 1.7808-2.2964 4.002-2.2964 6.3396v4.8974c0 2.4478 0.24326 4.906 0.72388 7.306l0.18227 0.9114 1.5479-0.7734c0.17257 0.4064 0.37459 0.7983 0.59879 1.1792l-3.9684 0.744c-2.3484 0.44-4.0522 2.4928-4.0522 4.8818v9.9503h29.806v-9.9503c0-2.389-1.7038-4.4418-4.0522-4.8818zm-10.851-2.9098c-3.1305 0-5.6774-2.5469-5.6774-5.6774v-4.2581c0-1.1736 0.9553-2.129 2.129-2.129h2.5244c1.2745 0 2.5092-0.3739 3.5702-1.0808 0.3323-0.2214 0.7191-0.3386 1.1172-0.3386 1.1106 0 2.014 0.9034 2.014 2.014v5.7925c0 3.1305-2.5469 5.6774-5.6774 5.6774zm-3.0757 2.8955 2.0132 2.0133-2.0964 1.6769-0.9963-3.4878zm3.0757 1.0687-2.1291-2.129v-0.743c0.673 0.2114 1.3875 0.3272 2.1291 0.3272 0.7415 0 1.4561-0.1158 2.129-0.3272v0.743zm3.0757-1.0687 1.0794 0.2024-0.9962 3.4878-2.0965-1.6769zm3.6066-3.8962-0.2585 0.7765c-0.2495 0.7495-0.6022 1.454-1.0409 2.1083l-1.8345-0.3441v-1.0808c1.7409-1.0105 3.0161-2.7358 3.4143-4.7755 0.5641-0.0928 1.0794-0.3163 1.5215-0.6428-0.0655 1.5455-0.2301 3.0893-0.4934 4.6129zm0.4145-8.8041c0.824 0.2938 1.4193 1.0745 1.4193 1.9984 0 0.9238-0.5953 1.7045-1.4193 1.9984zm-7.0968-14.254 6.9748 3.17-1.1418 4.5661h-11.666l-1.1418-4.5668zm-7.1935 8.1471 0.25227 1.0084h13.882l0.2498-0.9994c0.8559 1.3549 1.3251 2.9319 1.3251 4.5478v0.728c-0.4144-0.3136-0.8919-0.5485-1.4193-0.6556v-0.1868c0-1.8941-1.54-3.434-3.4334-3.434-0.6799 0-1.3386 0.1992-1.9048 0.5763-0.8275 0.5513-1.7891 0.843-2.7826 0.843h-2.5244c-1.4689 0-2.7316 0.8979-3.2701 2.1731-0.6331 0.0779-1.2121 0.3164-1.6976 0.684v-0.728c0-1.6346 0.4633-3.2043 1.3227-4.5568zm0.09668 10.104c-0.82403-0.2939-1.4194-1.0746-1.4194-1.9984 0-0.9239 0.59533-1.7046 1.4194-1.9984zm0.67294 5.5838-0.2585-0.7765-1.3085 0.6545c-0.26336-1.5236-0.42795-3.0674-0.49345-4.6129 0.44147 0.3265 0.95744 0.55 1.5216 0.6428 0.39816 2.0397 1.6734 3.765 3.4143 4.7755v1.0808l-1.8345 0.3441c-0.4387-0.6543-0.7908-1.3598-1.041-2.1083zm-7.06 8.0158c0-1.7067 1.2177-3.1731 2.8948-3.4874l5.0322-0.944 1.6189 5.6664 3.2282-2.582v9.878h-7.0968v-0.6352c0-0.6535-0.19232-1.2859-0.55409-1.831-0.56587-0.8479-0.86526-1.8359-0.86526-2.8564s0.29939-2.0084 0.86526-2.8564l-1.181-0.7869c-0.7218 1.0822-1.1037 2.3425-1.1037 3.6433 0 1.3009 0.38187 2.5612 1.1037 3.6433 0.20653 0.3109 0.31569 0.6723 0.31569 1.0441v0.6352h-4.2581zm26.968 8.531h-4.258v-0.6352c0-0.3725 0.1091-0.7332 0.3157-1.0441 0.7218-1.0821 1.1036-2.3424 1.1036-3.6433 0-1.3008-0.3818-2.5611-1.1036-3.644l-1.181 0.7869c0.5659 0.8487 0.8653 1.8366 0.8653 2.8571s-0.2994 2.0085-0.8653 2.8571c-0.3617 0.5444-0.5541 1.1775-0.5541 1.8303v0.6352h-7.0967v-9.878l3.2282 2.5827 1.6189-5.6664 5.0322 0.944c1.6772 0.3136 2.8948 1.7807 2.8948 3.4867z"/>
  <path d="m18.452 36.194h1.4194v1.4193h-1.4194z"/>
  <path d="m18.452 39.742h1.4194v1.4194h-1.4194z"/>
  <path d="m16.323 23.419c-0.7828 0-1.4194-0.6366-1.4194-1.4194h-1.4193c0 1.5656 1.2731 2.8387 2.8387 2.8387s2.8387-1.2731 2.8387-2.8387h-1.4194c0 0.7828-0.6365 1.4194-1.4193 1.4194z"/>
  <path d="m20.581 17.742c0 0.3919-0.3177 0.7097-0.7096 0.7097-0.392 0-0.7097-0.3178-0.7097-0.7097s0.3177-0.7097 0.7097-0.7097c0.3919 0 0.7096 0.3178 0.7096 0.7097z"/>
  <path d="m13.484 17.742c0 0.3919-0.3178 0.7097-0.7097 0.7097s-0.7097-0.3178-0.7097-0.7097 0.3178-0.7097 0.7097-0.7097 0.7097 0.3178 0.7097 0.7097z"/>
 </g>
</svg>
