<svg fill="none" version="1.1" viewBox="0 0 88 88" xmlns="http://www.w3.org/2000/svg">
 <circle cx="44" cy="44" r="43.5" stroke="#FFC444"/>
 <circle cx="44" cy="44" r="40" fill="#ffc444"/>
 <g transform="translate(20.5 23.5)" fill="#000">
  <path d="m11.365 32.162c-1.3782 0-2.4995 1.1213-2.4995 2.4996s1.1213 2.4996 2.4995 2.4996c1.3783 0 2.4995-1.1213 2.4995-2.4996s-1.1213-2.4996-2.4995-2.4996zm0 3.6223c-0.619 0-1.1226-0.5036-1.1226-1.1226 0-0.6191 0.5035-1.1227 1.1226-1.1227s1.1226 0.5036 1.1226 1.1227c0 0.6189-0.5036 1.1226-1.1226 1.1226z"/>
  <path d="m35.632 32.162c-1.3768 0-2.4969 1.1213-2.4969 2.4996s1.1201 2.4996 2.4969 2.4996c1.3783 0 2.4996-1.1213 2.4996-2.4996s-1.1213-2.4996-2.4996-2.4996zm0 3.6223c-0.6176 0-1.12-0.5036-1.12-1.1226 0-0.6191 0.5025-1.1227 1.12-1.1227 0.619 0 1.1226 0.5036 1.1226 1.1227 0 0.6189-0.5036 1.1226-1.1226 1.1226z"/>
  <path d="m10.439 17.951h1.6508v1.6509c0 0.932 0.757 1.6903 1.6876 1.6903h1.4598c0.9306 0 1.6878-0.7582 1.6878-1.6903v-1.6509h1.6534c0.9307 0 1.6877-0.7582 1.6877-1.6903v-1.4573c0-0.932-0.757-1.6904-1.6877-1.6904h-1.6534v-1.6507c0-0.9307-0.7572-1.6877-1.6878-1.6877h-1.4598c-0.9306 0-1.6876 0.75714-1.6876 1.6877v1.6508h-1.6508c-0.93203 0-1.6904 0.7583-1.6904 1.6904v1.4573c0 0.932 0.75833 1.6902 1.6904 1.6902zm-0.3134-3.1475c0-0.1728 0.1405-0.3134 0.3134-0.3134h2.3392c0.3804 0 0.6885-0.3083 0.6885-0.6885v-2.3393c0-0.1685 0.1423-0.3108 0.3107-0.3108h1.4598c0.1685 0 0.3108 0.1423 0.3108 0.3108v2.3393c0 0.3802 0.3082 0.6885 0.6885 0.6885h2.3419c0.1685 0 0.3108 0.1435 0.3108 0.3134v1.4573c0 0.1699-0.1423 0.3133-0.3108 0.3133h-2.3419c-0.3803 0-0.6885 0.3083-0.6885 0.6885v2.3394c0 0.1698-0.1423 0.3134-0.3108 0.3134h-1.4598c-0.1684 0-0.3107-0.1435-0.3107-0.3134v-2.3394c0-0.3802-0.3081-0.6885-0.6885-0.6885h-2.3392c-0.1729 0-0.3134-0.1405-0.3134-0.3133z"/>
  <path d="m5.3306 11.516c0.38032 0 0.68848-0.3083 0.68848-0.6885v-1.171c0-0.38022-0.30816-0.68848-0.68848-0.68848-0.38031 0-0.68847 0.30826-0.68847 0.68848v1.171c0 0.3802 0.30825 0.6885 0.68847 0.6885z"/>
  <path d="m23.686 11.516c0.3803 0 0.6885-0.3083 0.6885-0.6885v-1.171c0-0.38022-0.3082-0.68848-0.6885-0.68848s-0.6885 0.30826-0.6885 0.68848v1.171c0 0.3802 0.3083 0.6885 0.6885 0.6885z"/>
  <path d="m45.871 30.521s7e-4 -7.3565 0.0012-7.4129c0.0053-0.5667-0.038-0.6845-0.341-1.2431 0 0-5.1913-9.6438-5.2334-9.7267-0.4223-0.8297-0.7002-0.914-1.7143-0.914h-0.9664v-1.4036c0-1.7341-1.4107-3.145-3.1449-3.145-1.7326 0-3.1423 1.4108-3.1423 3.145v1.4036h-3.2834v-4.1828c0-0.63937-0.5214-1.1595-1.1621-1.1595h-24.754c-0.63936 0-1.1595 0.52012-1.1595 1.1595v23.527c-0.56519 0.2067-0.97057 0.7492-0.97057 1.3861v2.0948c0 0.8145 0.6614 1.477 1.4744 1.477h4.4173c0.41676 2.6459 2.7122 4.6761 5.4734 4.6761 2.7612 0 5.0566-2.0302 5.4734-4.6761h5.2759c0.3803 0 0.6885-0.3083 0.6885-0.6885s-0.3082-0.6885-0.6885-0.6885h-5.2321c-0.0768-0.8313-0.3378-1.6098-0.7417-2.2947h14.716c-0.404 0.6849-0.6649 1.4633-0.7415 2.2947h-4.8344c-0.3803 0-0.6884 0.3083-0.6884 0.6885s0.3081 0.6885 0.6884 0.6885h4.8779c0.4167 2.6459 2.7122 4.6761 5.4733 4.6761 2.7625 0 5.0591-2.0302 5.476-4.6761h4.4147c0.8143 0 1.4769-0.6626 1.4769-1.477v-2.0948c2e-4 -0.6945-0.4823-1.277-1.1292-1.4338zm-40.007 3.485c-0.00432 0.0362-0.00927 0.0721-0.01285 0.1084-0.00111 0.0118-0.00313 0.0234-0.00414 0.0352h-4.3723c-0.05187 0-0.0974-0.0467-0.0974-0.1v-2.0948c0-0.0532 0.04544-0.0999 0.0974-0.0999h5.1095c-0.38702 0.6561-0.63083 1.3855-0.72024 2.1511zm5.5014 4.8197c-2.2963 0-4.1644-1.8682-4.1644-4.1646s1.8682-4.1646 4.1644-4.1646 4.1645 1.8682 4.1645 4.1646-1.8683 4.1646-4.1645 4.1646zm15.304-8.3478h-11.676c-0.973-0.8451-2.2414-1.3583-3.6283-1.3583-1.3869 0-2.6553 0.5133-3.6283 1.3583h-5.3891v-2.9401h24.322zm0-18.565v11.495h-10.875c-0.3803 0-0.6884 0.3083-0.6884 0.6885s0.3081 0.6885 0.6884 0.6885h10.875v1.3762h-24.322v-1.3762h10.266c0.3803 0 0.6885-0.3083 0.6885-0.6885s-0.3082-0.6885-0.6885-0.6885h-10.266v-16.149h24.322zm14.296 4.3784 3.065 5.6906h-8.0486c-0.1783 0-0.3289-0.1507-0.3289-0.329v-5.0353c0-0.1769 0.1506-0.3263 0.3289-0.3263zm-8.2582-6.4705c0-0.97489 0.7919-1.768 1.7653-1.768 0.9748 0 1.768 0.79312 1.768 1.768v1.4037h-3.5333zm7.0906 24.937c-8e-4 0.0165-0.0013 0.0326-0.0021 0.0507-4e-4 0.0085 2e-4 0.0169 1e-4 0.0254-0.0909 2.2165-1.9228 3.992-4.1627 3.992-2.2963 0-4.1644-1.8682-4.1644-4.1646s1.8682-4.1646 4.1644-4.1646c2.2977 0 4.1671 1.8682 4.1671 4.1646 0 0.0324-0.0017 0.0644-0.0024 0.0965zm0.528-4.2796h-1.0628c-0.9734-0.8451-2.2424-1.3583-3.6299-1.3583-1.3868 0-2.6553 0.5133-3.6282 1.3583h-3.9581v-17.877s10.697 0 10.766 6e-4c0.1087 1e-3 0.2076 0.0624 0.2569 0.1593 3e-4 6e-4 5e-4 0.0011 8e-4 0.0016 0.0464 0.0909 1.153 2.1515 1.153 2.1515h-4.242c-0.9407 0-1.7059 0.7641-1.7059 1.7033v5.0352c0 0.9422 0.7638 1.706 1.706 1.706h8.5125v1.8836h-3.0924c-0.5935 0-1.0762 0.4839-1.0762 1.0788zm4.1686-3.8587v3.8587h-2.7917v-3.8587zm1.1293 7.4303c0 0.0542-0.0458 0.1-0.0999 0.1h-4.3696c-0.0011-0.0119-0.0031-0.0236-0.0043-0.0354-0.0035-0.0356-0.0083-0.0709-0.0125-0.1063-0.0894-0.7663-0.3332-1.4963-0.7205-2.153h5.107c0.0541 0 0.0999 0.0458 0.0999 0.0999v2.0948z"/>
  <path d="m34.472 3.8501c0.3803 0 0.6885-0.30825 0.6885-0.68847v-1.6758c0-0.38022-0.3082-0.68848-0.6885-0.68848s-0.6884 0.30826-0.6884 0.68848v1.6758c0 0.38022 0.3082 0.68847 0.6884 0.68847z"/>
  <path d="m30.712 5.3849c0.1331 0.19653 0.3499 0.30237 0.5706 0.30237 0.1329 0 0.2672-0.03837 0.3855-0.1186 0.3148-0.21324 0.397-0.64129 0.1838-0.95615l-1.1372-1.6784c-0.2133-0.31486-0.6414-0.39711-0.9562-0.18377-0.3147 0.21324-0.397 0.64129-0.1837 0.95615z"/>
  <path d="m37.279 5.5688c0.1183 0.08013 0.2526 0.1186 0.3855 0.1186 0.2207 0 0.4375-0.10594 0.5706-0.30238l1.137-1.6785c0.2132-0.31477 0.131-0.74291-0.1839-0.95615-0.3146-0.21316-0.7428-0.13091-0.9561 0.18387l-1.137 1.6784c-0.2133 0.31477-0.1309 0.74282 0.1839 0.95616z"/>
 </g>
</svg>
