<svg width="44" height="44" viewBox="0 0 44 44" fill="none" xmlns="http://www.w3.org/2000/svg">
<g clip-path="url(#clip0)">
<path d="M42.5806 4.25806V0H31.2258V4.25806H34.0645V7.09677H31.9355V25.5484H34.7742V28.3871H36.1935V34.0645H37.6129V28.3871H39.0323V25.5484H41.871V7.09677H39.7419V4.25806H42.5806ZM32.6452 1.41935H41.1613V2.83871H32.6452V1.41935ZM37.6129 26.9677H36.1935V25.5484H37.6129V26.9677ZM40.4516 24.129H33.3548V22.7097H36.9032V21.2903H33.3548V19.871H35.4839V18.4516H33.3548V17.0323H36.9032V15.6129H33.3548V14.1935H35.4839V12.7742H33.3548V11.3548H36.9032V9.93548H33.3548V8.51613H40.4516V24.129ZM38.3226 7.09677H35.4839V4.25806H38.3226V7.09677Z" fill="#171C4E"/>
<path d="M36.9032 35.5237L34.4689 39.5801C34.2042 40.0215 34.0645 40.5261 34.0645 41.0414V41.1613C34.0645 42.7268 35.3376 44 36.9032 44C38.4688 44 39.7419 42.7268 39.7419 41.1613V41.0414C39.7419 40.5261 39.6023 40.0208 39.3375 39.5808L36.9032 35.5237ZM38.3226 41.1613C38.3226 41.944 37.686 42.5806 36.9032 42.5806C36.1204 42.5806 35.4839 41.944 35.4839 41.1613V41.0414C35.4839 40.7835 35.5542 40.5316 35.6862 40.3109L36.9032 38.2827L38.1202 40.3119C38.2522 40.5316 38.3226 40.7835 38.3226 41.0414V41.1613Z" fill="#171C4E"/>
<path d="M15.6129 8.51612H17.0323V7.09677H18.4516V5.67741H17.0323V4.25806H15.6129V5.67741H14.1935V7.09677H15.6129V8.51612Z" fill="#171C4E"/>
<path d="M27.1736 29.1678L23.2059 28.4238C23.4294 28.0436 23.6321 27.651 23.8047 27.2446L25.3526 28.018L25.5349 27.1066C26.0148 24.7066 26.2581 22.2484 26.2581 19.8006V14.9032C26.2581 12.5874 25.4441 10.3329 23.9651 8.55454L23.9644 8.55523L24.9614 4.56676L16.3226 0.639282L7.68448 4.56676L8.6835 8.56355C7.20247 10.3443 6.3871 12.5655 6.3871 14.9032V19.8006C6.3871 22.2484 6.63036 24.7066 7.11098 27.1066L7.29325 28.018L8.84117 27.2446C9.01374 27.651 9.21576 28.0429 9.43996 28.4238L5.47159 29.1678C3.12321 29.6078 1.41936 31.6606 1.41936 34.0496V43.9999H31.2258V34.0496C31.2258 31.6606 29.522 29.6078 27.1736 29.1678ZM16.3226 26.258C13.1921 26.258 10.6452 23.7111 10.6452 20.5806V16.3225C10.6452 15.1489 11.6005 14.1935 12.7742 14.1935H15.2986C16.5731 14.1935 17.8078 13.8196 18.8688 13.1127C19.2011 12.8913 19.5879 12.7741 19.986 12.7741C21.0966 12.7741 22 13.6775 22 14.7881V20.5806C22 23.7111 19.4531 26.258 16.3226 26.258ZM13.2469 29.1535L15.2601 31.1668L13.1637 32.8437L12.1674 29.3559L13.2469 29.1535ZM16.3226 30.2222L14.1935 28.0932V27.3502C14.8665 27.5616 15.581 27.6774 16.3226 27.6774C17.0641 27.6774 17.7787 27.5616 18.4516 27.3502V28.0932L16.3226 30.2222ZM19.3983 29.1535L20.4777 29.3559L19.4815 32.8437L17.385 31.1668L19.3983 29.1535ZM23.0049 25.2573L22.7464 26.0338C22.4969 26.7833 22.1442 27.4878 21.7055 28.1421L19.871 27.798V26.7172C21.6119 25.7067 22.8871 23.9814 23.2853 21.9417C23.8494 21.8489 24.3647 21.6254 24.8068 21.2989C24.7413 22.8444 24.5767 24.3882 24.3134 25.9118L23.0049 25.2573ZM23.4194 16.4532C24.2434 16.747 24.8387 17.5277 24.8387 18.4516C24.8387 19.3754 24.2434 20.1561 23.4194 20.45V16.4532ZM16.3226 2.19932L23.2974 5.36931L22.1556 9.93543H10.4896L9.34778 5.36862L16.3226 2.19932ZM9.12913 10.3464L9.3814 11.3548H23.2638L23.5136 10.3554C24.3695 11.7103 24.8387 13.2873 24.8387 14.9032V15.6312C24.4243 15.3176 23.9468 15.0827 23.4194 14.9756V14.7888C23.4194 12.8947 21.8794 11.3548 19.986 11.3548C19.3061 11.3548 18.6474 11.554 18.0812 11.9311C17.2537 12.4824 16.2921 12.7741 15.2986 12.7741H12.7742C11.3053 12.7741 10.0426 13.672 9.50407 14.9472C8.87097 15.0251 8.29193 15.2636 7.80645 15.6312V14.9032C7.80645 13.2686 8.26975 11.6989 9.12913 10.3464ZM9.22581 20.45C8.40178 20.1561 7.80645 19.3754 7.80645 18.4516C7.80645 17.5277 8.40178 16.747 9.22581 16.4532V20.45ZM9.89875 26.0338L9.64025 25.2573L8.33178 25.9118C8.06842 24.3882 7.90383 22.8444 7.83833 21.2989C8.2798 21.6254 8.79577 21.8489 9.35991 21.9417C9.75807 23.9814 11.0333 25.7067 12.7742 26.7172V27.798L10.9397 28.1421C10.501 27.4878 10.1489 26.7823 9.89875 26.0338ZM2.83871 34.0496C2.83871 32.3429 4.05639 30.8765 5.73356 30.5622L10.7658 29.6182L12.3847 35.2846L15.6129 32.7026V42.5806H8.51613V41.9454C8.51613 41.2919 8.32381 40.6595 7.96204 40.1144C7.39617 39.2665 7.09678 38.2785 7.09678 37.258C7.09678 36.2375 7.39617 35.2496 7.96204 34.4016L6.78109 33.6147C6.05929 34.6969 5.67742 35.9572 5.67742 37.258C5.67742 38.5589 6.05929 39.8192 6.78109 40.9013C6.98762 41.2122 7.09678 41.5736 7.09678 41.9454V42.5806H2.83871V34.0496ZM29.8064 42.5806H25.5484V41.9454C25.5484 41.5729 25.6575 41.2122 25.8641 40.9013C26.5859 39.8192 26.9677 38.5589 26.9677 37.258C26.9677 35.9572 26.5859 34.6969 25.8641 33.614L24.6831 34.4009C25.249 35.2496 25.5484 36.2375 25.5484 37.258C25.5484 38.2785 25.249 39.2665 24.6831 40.1151C24.3214 40.6595 24.129 41.2926 24.129 41.9454V42.5806H17.0323V32.7026L20.2605 35.2853L21.8794 29.6189L26.9116 30.5629C28.5888 30.8765 29.8064 32.3436 29.8064 34.0496V42.5806Z" fill="#171C4E"/>
<path d="M18.4516 36.1935H19.871V37.6128H18.4516V36.1935Z" fill="#171C4E"/>
<path d="M18.4516 39.7419H19.871V41.1613H18.4516V39.7419Z" fill="#171C4E"/>
<path d="M16.3226 23.4194C15.5398 23.4194 14.9032 22.7828 14.9032 22H13.4839C13.4839 23.5656 14.757 24.8387 16.3226 24.8387C17.8882 24.8387 19.1613 23.5656 19.1613 22H17.7419C17.7419 22.7828 17.1054 23.4194 16.3226 23.4194Z" fill="#171C4E"/>
<path d="M20.5806 17.7419C20.5806 18.1338 20.2629 18.4516 19.871 18.4516C19.479 18.4516 19.1613 18.1338 19.1613 17.7419C19.1613 17.35 19.479 17.0322 19.871 17.0322C20.2629 17.0322 20.5806 17.35 20.5806 17.7419Z" fill="#171C4E"/>
<path d="M13.4839 17.7419C13.4839 18.1338 13.1661 18.4516 12.7742 18.4516C12.3823 18.4516 12.0645 18.1338 12.0645 17.7419C12.0645 17.35 12.3823 17.0322 12.7742 17.0322C13.1661 17.0322 13.4839 17.35 13.4839 17.7419Z" fill="#171C4E"/>
</g>
<defs>
<clipPath id="clip0">
<rect width="44" height="44" fill="white"/>
</clipPath>
</defs>
</svg>
