<svg width="42" height="42" viewBox="0 0 42 42" fill="none" xmlns="http://www.w3.org/2000/svg">
<g clip-path="url(#clip0)">
<path d="M17.5 13.1254V18.3753C17.5 20.7915 15.5413 22.7502 13.1251 22.7502C10.7089 22.7502 8.75017 20.7915 8.75017 18.3753V13.1254H7.00014V18.3753C7.00399 21.7564 9.74397 24.4964 13.1251 24.5003C16.5062 24.4964 19.2462 21.7564 19.25 18.3753V13.1254H17.5Z" fill="black"/>
<path d="M13.1251 11.3753C13.1251 10.8921 12.7333 10.5003 12.2501 10.5003C11.7668 10.5003 11.375 10.8921 11.375 11.3753C11.375 11.518 11.3357 14.8753 7.87506 14.8753V16.6253C9.72534 16.7408 11.4782 15.7867 12.3857 14.17C13.3001 15.423 15.05 16.6253 18.3749 16.6253V14.8753C13.3342 14.8753 13.1312 11.7253 13.1251 11.3753Z" fill="black"/>
<path d="M4.78033 21.8752C5.7382 18.7589 6.19215 15.5097 6.12522 12.2503C6.11849 10.648 6.66801 9.09315 7.6801 7.85089L6.31938 6.75012C5.06292 8.30804 4.3769 10.2488 4.37518 12.2503C4.37518 18.916 2.73285 22.3276 2.7171 22.3591C2.65632 22.4807 2.62474 22.6147 2.62482 22.7506C2.62506 23.2339 3.017 23.6254 3.50025 23.6252H10.5001V21.8753H4.78033V21.8752Z" fill="black"/>
<path d="M23.5375 22.3617C23.5174 22.3276 21.875 18.916 21.875 12.2503C21.8736 10.2488 21.1876 8.30796 19.9308 6.75012L18.5701 7.85089C19.5823 9.09307 20.1318 10.648 20.125 12.2503C20.058 15.5098 20.512 18.7589 21.4699 21.8752H15.7501V23.6251H22.75C22.8859 23.6257 23.0201 23.5946 23.142 23.5342C23.575 23.3197 23.7521 22.7947 23.5375 22.3617Z" fill="black"/>
<path d="M14.875 22.7502V25.8879L13.7437 27.0193C13.3973 27.3493 12.8528 27.3493 12.5064 27.0193L11.3751 25.8879V22.7502H9.62511V26.2502C9.62519 26.4822 9.71739 26.7047 9.88145 26.8688L11.2692 28.2565C11.7611 28.749 12.429 29.0251 13.125 29.0239C13.821 29.0252 14.4889 28.749 14.9809 28.2565L16.3686 26.8688C16.5327 26.7047 16.6249 26.4822 16.6249 26.2502V22.7502H14.875Z" fill="black"/>
<path d="M18.375 25.3752H15.7501V27.1251H18.375C21.7562 27.129 24.4961 29.869 24.5 33.2501V40.25H1.75021V33.2501C1.75407 29.869 4.49404 27.129 7.87517 27.1251H10.5001V25.3752H7.87517C3.52814 25.3805 0.00559137 28.9031 0.000259399 33.2501V41.125C0.000259399 41.6082 0.392036 42 0.875276 42H25.375C25.8583 42 26.25 41.6082 26.25 41.125V33.2501C26.2446 28.9031 22.722 25.3805 18.375 25.3752Z" fill="black"/>
<path d="M16.625 26.2502C16.625 26.3202 16.52 33.2501 13.125 33.2501C9.73004 33.2501 9.62504 26.3193 9.62504 26.2502H7.87517C7.87517 26.6072 7.93464 35.0002 13.1251 35.0002C18.3156 35.0002 18.375 26.6072 18.375 26.2502H16.625Z" fill="black"/>
<path d="M21.8749 36.7501H20.125V41.125H21.8749V36.7501Z" fill="black"/>
<path d="M6.12512 36.7501H4.37517V41.125H6.12512V36.7501Z" fill="black"/>
<path d="M14 34.1251H12.2501V41.125H14V34.1251Z" fill="black"/>
<path d="M19.7365 2.5773L13.4506 0.06258C13.2506 -0.0173995 13.0282 -0.0208448 12.8258 0.0529825L5.78306 2.61405C5.42262 2.74522 5.09524 2.95382 4.82405 3.22509C3.79916 4.25047 3.79957 5.91249 4.82495 6.93737L7.25657 9.369C7.42063 9.53314 7.64318 9.62534 7.87516 9.62534H17.5C17.7321 9.62526 17.9545 9.53306 18.1186 9.369L20.6176 6.87093C20.8691 6.61951 21.0669 6.3196 21.1988 5.98943C21.7373 4.64331 21.0825 3.11567 19.7365 2.5773ZM19.3795 5.63367L17.1378 7.87539H8.23741L6.06213 5.70274C5.97173 5.61234 5.90217 5.50324 5.85845 5.38306C5.69324 4.92894 5.92735 4.42684 6.38147 4.26163L13.1102 1.81163L19.0863 4.20035C19.1975 4.24465 19.2984 4.31134 19.3829 4.39616C19.7237 4.73888 19.7221 5.29283 19.3795 5.63367Z" fill="black"/>
<path d="M14 3.50043H12.2501V7.00041H14V3.50043Z" fill="black"/>
<path d="M14.875 4.37543H11.3751V6.12538H14.875V4.37543Z" fill="black"/>
<path d="M37.6248 20.1252H24.4999V21.8752H37.6248C39.0745 21.8752 40.2497 23.0504 40.2497 24.5002V37.625C40.2497 39.0747 39.0745 40.25 37.6248 40.25H27.9999V41.9999H37.6248C40.0398 41.9971 41.9968 40.04 41.9997 37.625V24.5002C41.9968 22.0852 40.0398 20.1281 37.6248 20.1252Z" fill="black"/>
<path d="M41.1247 23.6252H25.3749V25.3752H41.1247V23.6252Z" fill="black"/>
<path d="M31.4999 15.7503H23.625V17.5003H31.4999C31.9831 17.5003 32.3749 17.892 32.3749 18.3753V21.0003H34.1248V18.3753C34.1248 16.9255 32.9496 15.7503 31.4999 15.7503Z" fill="black"/>
<path d="M30.6249 16.6252H28.8749V21.0002H30.6249V16.6252Z" fill="black"/>
<path d="M27.1249 16.6252H25.3749V21.0002H27.1249V16.6252Z" fill="black"/>
<path d="M36.7497 27.1251H34.9998V32.3751H36.7497V27.1251Z" fill="black"/>
<path d="M38.4998 28.8752H33.2498V30.6251H38.4998V28.8752Z" fill="black"/>
<path d="M38.4998 36.7501H36.7498V38.5001H38.4998V36.7501Z" fill="black"/>
<path d="M34.9998 36.7501H33.2498V38.5001H34.9998V36.7501Z" fill="black"/>
<path d="M31.4998 36.7501H29.7498V38.5001H31.4998V36.7501Z" fill="black"/>
<path d="M37.6248 7.87543H32.3748C31.8916 7.87543 31.4998 8.2672 31.4998 8.75044V14.0004H33.2498V9.62546H36.7497V18.3754H38.4997V8.75036C38.4998 8.26712 38.1081 7.87543 37.6248 7.87543Z" fill="black"/>
<path d="M35.8748 0.875427H34.1248V8.75034H35.8748V0.875427Z" fill="black"/>
<path d="M35.8748 6.12537H34.1248C33.6416 6.12537 33.2498 6.51714 33.2498 7.00038V8.75034H36.7498V7.00038C36.7498 6.51714 36.358 6.12537 35.8748 6.12537Z" fill="black"/>
<path d="M37.6248 11.3753H34.9998V13.1253H37.6248V11.3753Z" fill="black"/>
<path d="M37.6248 14.8753H34.9998V16.6253H37.6248V14.8753Z" fill="black"/>
</g>
<defs>
<clipPath id="clip0">
<rect width="42" height="42" fill="white"/>
</clipPath>
</defs>
</svg>
