<svg width="92" height="92" viewBox="0 0 92 92" fill="none" xmlns="http://www.w3.org/2000/svg">
<path d="M54.5468 34.6996C54.5452 34.9504 54.536 35.2002 54.5188 35.4504C54.5103 35.5739 54.4972 35.6971 54.4841 35.8203C54.4397 36.238 54.538 35.476 54.4732 35.8891C54.3921 36.407 54.2601 36.916 54.0977 37.414C54.0607 37.5277 54.0195 37.6399 53.9783 37.752C53.9539 37.8186 53.8001 38.1947 53.9593 37.8181C53.8671 38.0364 53.7629 38.2494 53.6553 38.4602C53.4232 38.9145 53.1482 39.3458 52.8493 39.7588C52.6147 40.0828 53.0586 39.4997 52.8092 39.8121C52.7361 39.9037 52.6598 39.9926 52.5835 40.0816C52.431 40.2593 52.2693 40.4288 52.1047 40.5953C51.9401 40.7619 51.7668 40.9196 51.5909 41.0742C51.5029 41.1514 51.4122 41.2256 51.3215 41.2998C51.186 41.4074 51.1996 41.3975 51.3624 41.2701C51.2999 41.3171 51.2368 41.3634 51.1732 41.4088C50.7917 41.685 50.3863 41.9269 49.9697 42.1459C49.76 42.2562 49.5446 42.3551 49.3275 42.4499C49.7015 42.2864 49.3284 42.4434 49.2615 42.4689C49.1125 42.5257 48.9611 42.576 48.8096 42.6255C48.3491 42.7756 47.8757 42.883 47.3986 42.9638C46.9864 43.0336 47.7469 42.9251 47.3298 42.9747C47.2069 42.9894 47.0834 42.9993 46.96 43.0093C46.6683 43.033 46.3755 43.0384 46.083 43.0365C45.8332 43.035 45.5836 43.0195 45.3345 42.9992C45.2114 42.9893 45.0887 42.9747 44.966 42.9601C45.3846 43.0098 44.9729 42.9558 44.8991 42.9433C44.383 42.8558 43.8765 42.7179 43.3814 42.5497C43.2684 42.5114 43.1568 42.4689 43.0453 42.4264C42.6659 42.2819 43.3529 42.5646 42.9818 42.4023C42.7649 42.3074 42.5533 42.201 42.3439 42.0908C41.8926 41.8535 41.4648 41.5736 41.0557 41.27C41.3784 41.5095 41.061 41.2706 41.0059 41.2255C40.9152 41.1513 40.8272 41.0741 40.7392 40.9968C40.5633 40.8423 40.3956 40.6786 40.2311 40.512C40.0665 40.3454 39.9108 40.1702 39.7583 39.9926C39.682 39.9037 39.6089 39.8121 39.5357 39.7206C39.7972 40.048 39.4779 39.6326 39.4322 39.5678C39.1604 39.1829 38.9232 38.7743 38.709 38.3549C38.6552 38.2496 38.6051 38.1422 38.5551 38.0349C38.5247 37.9698 38.3716 37.5968 38.5259 37.9741C38.4204 37.7159 38.3306 37.4517 38.2474 37.1855C38.1026 36.7226 38.0009 36.247 37.9258 35.7681C37.9912 36.185 37.9288 35.7719 37.9209 35.6975C37.9078 35.574 37.8992 35.4501 37.8908 35.3263C37.8708 35.034 37.869 34.7406 37.8744 34.4477C37.8791 34.1985 37.8976 33.9498 37.9209 33.7018C37.9278 33.6279 37.9862 33.2125 37.9258 33.6311C37.9433 33.5101 37.9652 33.3899 37.9871 33.2697C38.0808 32.7556 38.2247 32.2517 38.3987 31.7593C38.4384 31.6469 38.4822 31.536 38.526 31.4251C38.3767 31.8035 38.5254 31.4304 38.5552 31.3643C38.6525 31.1488 38.7615 30.9386 38.874 30.7307C38.9862 30.5235 39.1093 30.3226 39.2358 30.124C39.299 30.0249 39.3657 29.9281 39.4322 29.8315C39.4769 29.7667 39.7938 29.3478 39.5358 29.6787C39.8239 29.3091 40.1441 28.9656 40.4809 28.6404C40.6494 28.4777 40.8264 28.3241 41.0059 28.1738C41.0599 28.1285 41.3762 27.8855 41.0557 28.1292C41.1802 28.0345 41.3086 27.9449 41.4376 27.8562C41.826 27.5887 42.2375 27.3564 42.6597 27.147C42.7659 27.0945 42.8739 27.0456 42.9819 26.9969C43.351 26.8302 42.6678 27.1219 43.0454 26.9728C43.3051 26.8702 43.5709 26.7836 43.8383 26.7036C44.0698 26.6343 44.3048 26.5779 44.5407 26.5258C44.6595 26.4995 44.7794 26.4777 44.8991 26.4559C44.972 26.4426 45.3848 26.3841 44.9661 26.4391C45.5029 26.3685 46.0457 26.352 46.5863 26.3689C46.8349 26.3766 47.0827 26.3983 47.3298 26.4245C47.7475 26.4689 46.9856 26.3706 47.3986 26.4354C47.5192 26.4542 47.6389 26.4776 47.7586 26.501C48.2707 26.6009 48.7721 26.7507 49.2616 26.9303C49.3282 26.9548 49.7043 27.1086 49.3276 26.9493C49.4369 26.9955 49.5444 27.0456 49.6519 27.0957C49.8661 27.1956 50.0747 27.307 50.2811 27.4219C50.4868 27.5364 50.6863 27.6618 50.8831 27.7907C50.9814 27.855 51.0773 27.9227 51.1732 27.9905C51.2306 28.0311 51.5478 28.2741 51.23 28.0264C51.5995 28.3145 51.9432 28.6347 52.2683 28.9715C52.4311 29.1399 52.5846 29.3169 52.735 29.4964C52.7803 29.5505 53.0232 29.8668 52.7795 29.5463C52.8505 29.6397 52.9182 29.7356 52.9859 29.8315C53.2577 30.2165 53.4949 30.6249 53.709 31.0443C53.7629 31.1498 53.813 31.257 53.863 31.3644C53.8934 31.4295 54.0464 31.8025 53.8921 31.4252C53.9825 31.6463 54.0608 31.8723 54.1348 32.0993C54.285 32.5598 54.3923 33.0331 54.4732 33.5103C54.5431 33.9225 54.4345 33.162 54.4841 33.5791C54.4987 33.7021 54.5087 33.8256 54.5188 33.9489C54.5391 34.1985 54.5452 34.4492 54.5468 34.6996C54.5522 35.5566 55.2579 36.2718 56.1191 36.2718C56.9722 36.2718 57.6968 35.5567 57.6914 34.6996C57.6639 30.2896 55.0695 26.1091 51.0235 24.2816C46.7938 22.371 41.8745 23.1575 38.4287 26.2571C35.1144 29.2386 33.8995 34.1616 35.3267 38.3631C36.0183 40.3991 37.2817 42.2526 38.9647 43.5963C40.7883 45.0523 42.8945 45.886 45.2113 46.1322C48.4068 46.4718 51.6257 45.2684 53.9895 43.142C56.3548 41.0143 57.6715 37.8604 57.6913 34.6996C57.6967 33.8425 56.9721 33.1273 56.119 33.1273C55.2579 33.1273 54.5522 33.8426 54.5468 34.6996Z" fill="#6165D7"/>
<path d="M57.5608 45.7867C57.781 45.9272 57.9969 46.0732 58.2092 46.2253C58.251 46.2552 58.5961 46.5203 58.3065 46.2938C58.409 46.3741 58.5089 46.4574 58.6088 46.5409C59.0415 46.9022 59.4429 47.2997 59.8217 47.7168C59.9967 47.9095 60.1624 48.1104 60.3247 48.3137C60.0956 48.0267 60.3624 48.3694 60.393 48.4112C60.47 48.5165 60.5436 48.6242 60.6171 48.7318C60.9372 49.2005 61.2165 49.6958 61.4681 50.2042C61.5265 50.3221 61.5811 50.4419 61.6355 50.5617C61.818 50.9626 61.5175 50.263 61.6826 50.6724C61.7819 50.9184 61.869 51.1692 61.952 51.4213C62.134 51.9745 62.2666 52.5429 62.3672 53.1161C62.3766 53.1697 62.44 53.6194 62.3903 53.2373C62.408 53.3734 62.4211 53.51 62.4341 53.6466C62.4606 53.9225 62.473 54.1996 62.4809 54.4766C62.4849 54.6197 62.484 54.7629 62.484 54.906C62.484 57.3215 62.484 59.737 62.484 62.1525C62.484 62.4089 62.484 62.6655 62.484 62.9219C62.484 63.0236 62.4808 63.0739 62.4758 63.1751C62.4554 63.5934 62.5414 62.8403 62.4683 63.2475C62.4468 63.3672 62.4139 63.4844 62.381 63.6013C62.3615 63.6706 62.216 64.0489 62.3739 63.6758C62.2813 63.8946 62.1586 64.0991 62.0276 64.2963C61.8077 64.6274 62.2419 64.0481 61.9835 64.3494C61.8812 64.4685 61.7666 64.5763 61.6509 64.682C61.3576 64.9495 61.9219 64.4962 61.5978 64.7262C61.5013 64.7946 61.3987 64.854 61.2965 64.9132C61.1935 64.9728 61.0852 65.0227 60.9773 65.0723C61.3409 64.905 60.9756 65.0565 60.9028 65.0795C60.7869 65.1161 60.6678 65.1414 60.549 65.1668C60.1443 65.253 60.8941 65.1404 60.4767 65.1743C60.3902 65.1813 60.3021 65.1825 60.2153 65.1825C60.1083 65.1825 60.0011 65.1825 59.8941 65.1825C58.2419 65.1825 56.59 65.1825 54.9379 65.1825C49.3148 65.1825 43.6917 65.1825 38.0687 65.1825C36.2854 65.1825 34.5021 65.1825 32.7188 65.1825C32.5652 65.1825 32.4116 65.1825 32.2581 65.1825C32.2369 65.1825 32.2158 65.1825 32.1947 65.1825C32.0837 65.1825 32.053 65.1797 31.9424 65.1743C31.5241 65.1539 32.2772 65.2399 31.8701 65.1668C31.7504 65.1453 31.6332 65.1124 31.5163 65.0795C31.4394 65.0566 31.3633 65.0313 31.2879 65.0035C31.4778 65.089 31.4929 65.0953 31.3336 65.0225C31.1183 64.9233 30.9179 64.7946 30.7251 64.6577C31.0456 64.8852 30.7383 64.6545 30.6814 64.6025C30.5944 64.5232 30.5149 64.4361 30.4357 64.3493C30.1681 64.056 30.6215 64.6203 30.3915 64.2962C30.323 64.1997 30.2636 64.0971 30.2044 63.9948C30.1448 63.8919 30.095 63.7836 30.0453 63.6757C30.219 64.0529 30.0289 63.5684 30.0053 63.4847C29.9723 63.367 29.9507 63.2467 29.9291 63.1267C30.0021 63.5327 29.9412 63.1307 29.9372 63.0497C29.9347 62.9972 29.9351 62.944 29.9351 62.8913C29.9351 62.7733 29.9351 62.6553 29.9351 62.5373C29.9351 60.0862 29.9351 57.6352 29.9351 55.184C29.9351 54.7621 29.9372 54.3417 29.9634 53.9202C29.9719 53.7825 29.9851 53.645 29.9983 53.5077C30.0034 53.4544 30.0638 53.0002 30.0097 53.382C30.0477 53.1132 30.0993 52.8465 30.1552 52.581C30.2748 52.0135 30.4443 51.4574 30.6437 50.9132C30.6893 50.7888 30.7391 50.666 30.7887 50.5431C30.6494 50.8876 30.8197 50.4821 30.8414 50.4345C30.9506 50.1951 31.0713 49.9611 31.1957 49.7293C31.464 49.2296 31.7749 48.7538 32.1098 48.2965C32.3673 47.9449 31.9113 48.5423 32.1832 48.2022C32.2646 48.1004 32.3492 48.0013 32.4339 47.9021C32.6031 47.7039 32.7816 47.514 32.9629 47.3271C33.1443 47.1402 33.3345 46.9619 33.5274 46.7869C33.6239 46.6993 33.7231 46.6148 33.8223 46.5305C33.8721 46.4881 34.3101 46.1438 34.0138 46.3699C34.2561 46.1849 34.508 46.0131 34.7634 45.8468C35.4802 45.3801 35.7764 44.462 35.3275 43.6957C34.9102 42.9834 33.8953 42.6635 33.1764 43.1317C29.2432 45.6928 26.7905 50.063 26.7905 54.7769C26.7905 57.0947 26.7905 59.4124 26.7905 61.7301C26.7905 63.0461 26.8226 64.2541 27.4328 65.4777C28.316 67.2484 30.2983 68.3272 32.2399 68.3272C33.5522 68.3272 34.8644 68.3272 36.1767 68.3272C41.7436 68.3272 47.3106 68.3272 52.8776 68.3272C54.9446 68.3272 57.0116 68.3272 59.0787 68.3272C59.4545 68.3272 59.8303 68.3272 60.2062 68.3272C62.4902 68.3272 64.4796 66.8854 65.2941 64.7775C65.7035 63.7182 65.6286 62.571 65.6286 61.458C65.6286 60.0474 65.6286 58.6366 65.6286 57.2259C65.6286 56.4029 65.6286 55.5797 65.6286 54.7566C65.6286 52.322 64.9674 49.9135 63.7499 47.8081C62.6354 45.8807 61.0192 44.2655 59.148 43.0716C58.4248 42.6101 57.417 42.9182 56.9969 43.6356C56.5509 44.3967 56.8397 45.3267 57.5608 45.7867ZM79.2635 43.4422C79.2612 43.6913 79.2471 43.9383 79.2211 44.1861C79.2649 43.7688 79.2172 44.174 79.2033 44.2506C79.1816 44.3695 79.1532 44.487 79.1248 44.6044C79.0686 44.8368 78.993 45.0641 78.9112 45.2886C78.773 45.6681 79.0525 44.983 78.8873 45.35C78.8228 45.4932 78.7492 45.6321 78.6744 45.77C78.5628 45.9761 78.4344 46.1727 78.3012 46.3653C78.0747 46.6926 78.5133 46.1091 78.2641 46.4189C78.191 46.5098 78.113 46.5967 78.0351 46.6834C77.8793 46.8571 77.7096 47.0177 77.5362 47.1734C77.4493 47.2513 77.3584 47.3245 77.2674 47.3976C77.5937 47.1351 77.1791 47.4479 77.1114 47.493C76.9159 47.6231 76.7101 47.737 76.5018 47.845C76.397 47.8992 76.2894 47.9478 76.1818 47.9963C76.5533 47.829 76.186 47.9869 76.1164 48.0124C75.8911 48.0944 75.6595 48.1573 75.4267 48.2135C75.3089 48.2419 75.1896 48.2637 75.0706 48.2855C74.892 48.3136 74.9103 48.3122 75.1255 48.2815C75.0439 48.2909 74.962 48.2986 74.8801 48.305C74.6311 48.3264 74.3807 48.3263 74.1311 48.3192C74.0071 48.3156 73.8835 48.305 73.76 48.2944C73.3432 48.2586 74.1026 48.3524 73.6926 48.2855C73.4544 48.2467 73.2198 48.1877 72.9876 48.1223C72.8727 48.09 72.7597 48.0512 72.6469 48.0124C72.5722 47.9859 72.498 47.9582 72.4243 47.929C72.6171 48.0127 72.6336 48.019 72.4736 47.9478C72.2591 47.8511 72.0528 47.7369 71.8503 47.6175C71.7494 47.5579 71.6518 47.493 71.5544 47.4282C71.4951 47.3887 71.1766 47.1503 71.4957 47.3977C71.0959 47.0878 70.7424 46.7214 70.4259 46.328C70.678 46.6412 70.4369 46.3291 70.3955 46.2693C70.3288 46.1731 70.2674 46.0732 70.2062 45.9734C70.0829 45.773 69.9763 45.5628 69.8759 45.3501C69.7038 44.9861 69.9972 45.6655 69.8519 45.2887C69.809 45.1775 69.7724 45.064 69.7358 44.9507C69.6495 44.6829 69.5885 44.4077 69.5381 44.1312C69.4634 43.7225 69.5729 44.4799 69.5292 44.0638C69.5162 43.9405 69.5103 43.8166 69.5044 43.6928C69.4925 43.4431 69.502 43.193 69.5186 42.9438C69.5237 42.8686 69.5787 42.4544 69.5184 42.8736C69.5357 42.7533 69.5598 42.6342 69.5839 42.5152C69.6393 42.2408 69.7205 41.9722 69.8112 41.7077C69.8348 41.6391 69.9885 41.2661 69.8274 41.6423C69.8738 41.5338 69.9263 41.428 69.9786 41.3223C70.0828 41.1119 70.2042 40.9104 70.3307 40.7127C70.3938 40.6142 70.462 40.5192 70.5304 40.4243C70.2966 40.7492 70.5264 40.4332 70.5739 40.3762C70.7483 40.1672 70.9412 39.9744 71.1403 39.7891C71.2257 39.7096 71.3153 39.6348 71.4049 39.5601C71.5398 39.452 71.526 39.4625 71.3634 39.5913C71.4262 39.5452 71.4899 39.5003 71.5545 39.4565C71.7797 39.3007 72.0185 39.1655 72.2614 39.0396C72.3662 38.9853 72.4738 38.9368 72.5815 38.8884C72.1946 39.0626 72.681 38.8605 72.7595 38.8336C73.0634 38.7292 73.377 38.6567 73.6926 38.5991C74.1013 38.5244 73.344 38.634 73.76 38.5903C73.9248 38.5729 74.0906 38.5666 74.2561 38.5619C74.5464 38.5536 74.837 38.5727 75.1256 38.6031C74.7082 38.5593 75.1135 38.6069 75.1902 38.6209C75.3485 38.6497 75.5046 38.6891 75.6601 38.7298C75.8143 38.7701 75.9656 38.8205 76.1164 38.8722C76.191 38.8986 76.2651 38.9264 76.3388 38.9556C76.146 38.8718 76.1296 38.8656 76.2895 38.9369C76.5397 39.0495 76.779 39.1849 77.0127 39.3285C77.1124 39.3898 77.2088 39.4564 77.3049 39.5231C77.4444 39.6255 77.4319 39.6135 77.2674 39.487C77.3285 39.5352 77.3887 39.5845 77.448 39.6349C77.657 39.8093 77.8498 40.0022 78.0351 40.2012C78.1411 40.3152 78.2397 40.4356 78.3372 40.5568C78.0747 40.2304 78.3874 40.6451 78.4325 40.7128C78.5845 40.9411 78.7153 41.1826 78.8369 41.428C78.8695 41.4939 79.0223 41.8629 78.8686 41.4853C78.9285 41.6324 78.9786 41.783 79.0274 41.9341C79.1137 42.2018 79.1747 42.477 79.2251 42.7535C79.2533 42.9321 79.2518 42.9138 79.2212 42.6985C79.2305 42.7802 79.2382 42.862 79.2446 42.944C79.2588 43.1095 79.262 43.276 79.2635 43.4422C79.2717 44.2991 79.9725 45.0144 80.8358 45.0144C81.6867 45.0144 82.4162 44.2993 82.408 43.4422C82.3862 41.152 81.4116 38.9176 79.6715 37.4111C77.7909 35.7831 75.4131 35.197 72.977 35.5471C70.7366 35.869 68.7527 37.3485 67.5524 39.2241C66.3078 41.169 66.0357 43.7154 66.7404 45.9C67.3278 47.7209 68.5592 49.2447 70.1636 50.2712C71.8446 51.3469 73.8441 51.6163 75.7863 51.3372C79.6008 50.789 82.3723 47.1941 82.408 43.4422C82.4162 42.5851 81.6867 41.8699 80.8358 41.8699C79.9725 41.8699 79.2717 42.5853 79.2635 43.4422Z" fill="#6165D7"/>
<path d="M81.4978 51.1361C81.607 51.2062 81.7147 51.2779 81.8216 51.3515C81.8658 51.3819 82.2071 51.6451 81.9171 51.4162C82.1199 51.5763 82.3108 51.7509 82.497 51.9298C82.6833 52.1087 82.8564 52.301 83.0244 52.497C83.0596 52.5381 83.3204 52.8797 83.0989 52.5847C83.2025 52.7228 83.2982 52.8667 83.3928 53.0112C83.5351 53.229 83.661 53.4567 83.7812 53.6872C83.8416 53.8029 83.8962 53.9216 83.9508 54.0402C83.7947 53.701 83.9716 54.0977 83.9917 54.15C84.0861 54.3973 84.1617 54.6512 84.2307 54.9065C84.2656 55.0355 84.2939 55.1661 84.3222 55.2965C84.3372 55.3658 84.4256 55.9355 84.3751 55.5441C84.5224 56.6842 84.4326 57.8841 84.4326 59.0296C84.4326 59.7114 84.4326 60.3931 84.4326 61.0748C84.4326 61.2737 84.4326 61.4725 84.4326 61.6714C84.4326 61.7161 84.4326 61.761 84.4326 61.8058C84.4326 61.8116 84.4326 61.8177 84.4326 61.8235C84.4326 61.9062 84.4286 61.9887 84.4205 62.071C84.4518 61.8549 84.4499 61.8348 84.4148 62.011C84.3974 62.089 84.2536 62.4518 84.4154 62.0819C84.3685 62.1892 84.3067 62.2892 84.2452 62.3886C84.0413 62.7186 84.4632 62.1489 84.2027 62.4346C84.1497 62.4927 83.853 62.7331 84.1708 62.4934C84.0775 62.5637 83.9749 62.6207 83.8731 62.6772C83.5311 62.8669 84.1867 62.5743 83.8122 62.697C83.7324 62.7232 83.3441 62.7853 83.757 62.7344C83.682 62.7437 83.5817 62.7466 83.5064 62.7466C83.3356 62.7466 83.1646 62.7466 82.9938 62.7466C78.5155 62.7466 74.0372 62.7466 69.5589 62.7466C69.5467 62.7466 69.5345 62.7466 69.5221 62.7466C68.665 62.7466 67.9499 63.4617 67.9499 64.3188C67.9499 65.1759 68.665 65.8911 69.5221 65.8911C73.9179 65.8911 78.3137 65.8911 82.7094 65.8911C83.8175 65.8911 84.9152 65.8445 85.8508 65.1386C86.9101 64.3393 87.5772 63.1659 87.5772 61.8157C87.5772 61.4278 87.5772 61.0399 87.5772 60.652C87.5772 59.3576 87.5772 58.0632 87.5772 56.7686C87.5772 54.7903 87.0817 52.8585 85.9646 51.2085C85.2032 50.084 84.2266 49.154 83.0851 48.4212C82.3632 47.9577 81.3533 48.2695 80.934 48.9852C80.4869 49.7478 80.778 50.6741 81.4978 51.1361ZM22.9187 43.4422C22.9163 43.6913 22.9023 43.9383 22.8763 44.1861C22.9202 43.7688 22.8725 44.174 22.8585 44.2506C22.8368 44.3695 22.8083 44.487 22.78 44.6044C22.7239 44.8368 22.6482 45.0641 22.5665 45.2886C22.4282 45.6681 22.7078 44.983 22.5425 45.35C22.478 45.4932 22.4044 45.6321 22.3296 45.77C22.218 45.9761 22.0897 46.1727 21.9563 46.3653C21.7298 46.6926 22.1686 46.1091 21.9193 46.4189C21.8462 46.5098 21.7682 46.5967 21.6903 46.6834C21.5345 46.8571 21.3649 47.0177 21.1914 47.1734C21.1045 47.2513 21.0136 47.3245 20.9227 47.3976C21.249 47.1351 20.8343 47.4479 20.7665 47.493C20.571 47.6231 20.3653 47.737 20.157 47.845C20.0522 47.8992 19.9446 47.9478 19.837 47.9963C20.2084 47.829 19.8412 47.9869 19.7715 48.0124C19.5464 48.0944 19.3148 48.1573 19.082 48.2135C18.9642 48.2419 18.845 48.2637 18.7258 48.2855C18.5472 48.3136 18.5655 48.3122 18.7808 48.2815C18.6991 48.2909 18.6173 48.2986 18.5354 48.305C18.2863 48.3264 18.0359 48.3263 17.7864 48.3192C17.6624 48.3156 17.5388 48.305 17.4153 48.2944C16.9984 48.2586 17.7579 48.3524 17.3479 48.2855C17.1096 48.2467 16.8751 48.1877 16.643 48.1223C16.5281 48.09 16.415 48.0512 16.3022 48.0124C16.2275 47.9859 16.1533 47.9582 16.0797 47.929C16.2725 48.0127 16.289 48.019 16.129 47.9478C15.9144 47.8511 15.7082 47.7369 15.5057 47.6175C15.4048 47.5579 15.3072 47.493 15.2098 47.4282C15.1505 47.3887 14.8319 47.1503 15.151 47.3977C14.7512 47.0878 14.3979 46.7214 14.0813 46.328C14.3334 46.6412 14.0923 46.3291 14.0509 46.2693C13.9842 46.1731 13.9229 46.0732 13.8616 45.9734C13.7383 45.773 13.6318 45.5628 13.5313 45.3501C13.3593 44.9861 13.6526 45.6655 13.5073 45.2887C13.4645 45.1775 13.4279 45.064 13.3914 44.9507C13.305 44.6829 13.244 44.4077 13.1935 44.1312C13.1189 43.7225 13.2285 44.4799 13.1846 44.0638C13.1717 43.9405 13.1658 43.8166 13.1599 43.6928C13.148 43.4431 13.1575 43.193 13.1741 42.9438C13.1791 42.8686 13.2341 42.4544 13.1739 42.8736C13.1912 42.7533 13.2153 42.6342 13.2394 42.5152C13.2949 42.2408 13.376 41.9722 13.4667 41.7077C13.4903 41.6391 13.644 41.2661 13.4828 41.6423C13.5293 41.5338 13.5817 41.428 13.634 41.3223C13.7383 41.1119 13.8596 40.9104 13.986 40.7127C14.0491 40.6142 14.1175 40.5192 14.1858 40.4243C13.9521 40.7492 14.1817 40.4332 14.2293 40.3762C14.4037 40.1672 14.5966 39.9744 14.7957 39.7891C14.8811 39.7096 14.9707 39.6348 15.0603 39.5601C15.1952 39.452 15.1814 39.4625 15.0189 39.5913C15.0818 39.5452 15.1454 39.5003 15.2099 39.4565C15.4351 39.3007 15.6739 39.1655 15.9169 39.0396C16.0216 38.9853 16.1293 38.9368 16.2368 38.8884C15.8499 39.0626 16.3364 38.8605 16.4149 38.8336C16.7186 38.7292 17.0324 38.6567 17.348 38.5991C17.7566 38.5244 16.9993 38.634 17.4154 38.5903C17.5801 38.5729 17.7459 38.5666 17.9114 38.5619C18.2018 38.5536 18.4922 38.5727 18.7809 38.6031C18.3636 38.5593 18.7689 38.6069 18.8454 38.6209C19.0037 38.6497 19.1599 38.6891 19.3155 38.7298C19.4696 38.7701 19.621 38.8205 19.7717 38.8722C19.8465 38.8986 19.9206 38.9264 19.9942 38.9556C19.8014 38.8718 19.7849 38.8656 19.9449 38.9369C20.1952 39.0495 20.4346 39.1849 20.6681 39.3285C20.7678 39.3898 20.8641 39.4564 20.9603 39.5231C21.0998 39.6255 21.0873 39.6135 20.9229 39.487C20.984 39.5352 21.0441 39.5845 21.1034 39.6349C21.3123 39.8093 21.5052 40.0022 21.6905 40.2012C21.7965 40.3152 21.8952 40.4356 21.9927 40.5568C21.7302 40.2304 22.043 40.6451 22.0881 40.7128C22.24 40.9411 22.3708 41.1826 22.4924 41.428C22.5251 41.4939 22.6776 41.8629 22.5241 41.4853C22.5839 41.6324 22.634 41.783 22.6827 41.9341C22.7691 42.2018 22.8301 42.477 22.8806 42.7535C22.9086 42.9321 22.9072 42.9138 22.8765 42.6985C22.8859 42.7802 22.8937 42.862 22.9 42.944C22.9139 43.1095 22.917 43.276 22.9187 43.4422C22.9268 44.2991 23.6277 45.0144 24.4909 45.0144C25.3418 45.0144 26.0714 44.2993 26.0632 43.4422C26.0414 41.152 25.0667 38.9176 23.3267 37.4111C21.4461 35.7831 19.0682 35.197 16.6322 35.5471C14.3919 35.869 12.4079 37.3485 11.2077 39.2241C9.9631 41.169 9.69105 43.7154 10.3958 45.9C10.9832 47.7209 12.2145 49.2447 13.8188 50.2712C15.4998 51.3469 17.4994 51.6163 19.4415 51.3372C23.256 50.789 26.0275 47.1941 26.0633 43.4422C26.0715 42.5851 25.3419 41.8699 24.491 41.8699C23.6276 41.8699 22.9268 42.5853 22.9187 43.4422ZM22.8971 62.7463C18.5012 62.7463 14.1054 62.7463 9.70956 62.7463C9.46303 62.7463 9.2165 62.7463 8.96997 62.7463C8.83871 62.7463 8.45373 62.688 8.83933 62.7547C8.72137 62.7343 8.60727 62.697 8.49389 62.6598C8.85883 62.7793 8.5274 62.6667 8.44357 62.6202C8.3699 62.5794 8.08195 62.344 8.3841 62.5947C8.31429 62.5368 7.99121 62.1556 8.23954 62.4846C8.1691 62.3912 8.11223 62.2887 8.05572 62.1868C7.86606 61.845 8.15859 62.5005 8.03586 62.126C8.00972 62.0462 7.94764 61.6578 7.99849 62.0708C7.98986 62.0007 7.98636 61.8916 7.98636 61.8213C7.98636 61.7042 7.98636 61.5871 7.98636 61.47C7.98636 60.8648 7.98636 60.2596 7.98636 59.6544C7.98636 58.6044 7.98636 57.5545 7.98636 56.5044C7.98636 56.2265 8.00298 55.9499 8.0293 55.6734C8.07252 55.2195 7.97432 55.9975 8.04817 55.5508C8.07018 55.4175 8.09902 55.2854 8.12786 55.1533C8.185 54.892 8.262 54.6352 8.34528 54.3812C8.38661 54.2551 8.43432 54.1313 8.48194 54.0075C8.34708 54.3579 8.56055 53.843 8.59065 53.7808C8.70484 53.5448 8.83655 53.3178 8.97347 53.0945C9.04175 52.9832 9.11542 52.8753 9.1891 52.7675C9.21839 52.7246 9.48109 52.3788 9.25459 52.6678C9.60265 52.2239 10.0074 51.8268 10.4403 51.4663C10.7735 51.1887 10.1847 51.6508 10.5356 51.3953C10.6411 51.3186 10.7503 51.247 10.8594 51.1755C11.5747 50.7068 11.8733 49.7922 11.4234 49.0244C11.0071 48.3137 9.98987 47.9901 9.27229 48.4604C7.19555 49.8212 5.66965 51.8888 5.09555 54.3175C4.77795 55.6608 4.84165 57.0431 4.84165 58.4111C4.84165 59.5427 4.84165 60.6741 4.84165 61.8056C4.84165 64.0611 6.71435 65.8909 8.95721 65.8909C13.4438 65.8909 17.9305 65.8909 22.4172 65.8909C22.577 65.8909 22.7369 65.8909 22.8968 65.8909C23.7539 65.8909 24.4691 65.1757 24.4691 64.3186C24.4691 63.4615 23.7541 62.7463 22.8971 62.7463Z" fill="#6165D7"/>
</svg>
