<svg width="112" height="100" viewBox="0 0 112 100" fill="none" xmlns="http://www.w3.org/2000/svg">
<circle cx="86.5" cy="40.5" r="25.5" fill="#FFC444" fill-opacity="0.5"/>
<path d="M99.3667 62.8952L91.4 56.5119L82.3667 32.5286C81.6642 30.5415 79.791 29.2081 77.6833 29.1952H73.3333V27.5286C73.3333 24.7671 71.0948 22.5286 68.3333 22.5286C65.5719 22.5286 63.3333 24.7671 63.3333 27.5286V29.1952H1.66667C0.74625 29.1952 0 29.9415 0 30.8619V77.5286C0 78.449 0.74625 79.1952 1.66667 79.1952H13.4833C14.4363 84.6352 19.619 88.2727 25.059 87.3196C29.2079 86.5927 32.4567 83.3442 33.1833 79.1952H70.15C71.1029 84.6352 76.2856 88.2727 81.7256 87.3196C85.8746 86.5927 89.1233 83.3442 89.85 79.1952H98.3333C99.2538 79.1952 100 78.449 100 77.5286V64.1952C99.9977 63.6882 99.7646 63.2096 99.3667 62.8952ZM81.35 39.1952L87.6 55.8619H71.0333C70.4627 55.8619 70 55.3992 70 54.8286V40.2286C70 39.6579 70.4627 39.1952 71.0333 39.1952H81.35ZM66.6667 27.5286C66.6667 26.6081 67.4129 25.8619 68.3333 25.8619C69.2538 25.8619 70 26.6081 70 27.5286V29.1952H66.6667V27.5286ZM23.3333 84.1952C19.6515 84.1952 16.6667 81.2104 16.6667 77.5286C16.6667 73.8467 19.6515 70.8619 23.3333 70.8619C27.0152 70.8619 30 73.8467 30 77.5286C30 81.2104 27.0152 84.1952 23.3333 84.1952ZM80 84.1952C76.3181 84.1952 73.3333 81.2104 73.3333 77.5286C73.3333 73.8467 76.3181 70.8619 80 70.8619C83.6819 70.8619 86.6667 73.8467 86.6667 77.5286C86.6667 81.2104 83.6819 84.1952 80 84.1952ZM96.6667 69.1952H91.6667V72.5286H96.6667V75.8619H89.85C88.8971 70.4219 83.7144 66.7844 78.2744 67.7375C74.1254 68.4644 70.8767 71.7129 70.15 75.8619H33.1833C32.2304 70.4219 27.0477 66.7844 21.6077 67.7375C17.4588 68.4644 14.21 71.7129 13.4833 75.8619H3.33333V72.5286H11.6667V69.1952H3.33333V59.1952H63.3333V55.8619H3.33333V32.5286H77.6833C78.3808 32.5263 79.0058 32.9586 79.25 33.6119L80.1 35.8619H71.0333C68.6254 35.8711 66.6758 37.8206 66.6667 40.2286V54.8286C66.6758 57.2365 68.6254 59.1861 71.0333 59.1952H89.3667L96.6667 64.9952V69.1952Z" fill="black"/>
<path d="M68.3333 69.1953H35V72.5287H68.3333V69.1953Z" fill="#FFC444"/>
<path d="M25 75.8618H21.6667V79.1952H25V75.8618Z" fill="#FFC444"/>
<path d="M81.6667 75.8618H78.3333V79.1952H81.6667V75.8618Z" fill="#FFC444"/>
<path d="M24 37.8618L20 40.8618V35.8618H16.6667V40.8618L12.6667 37.8618L10.6667 40.5285L15.55 44.1951L10.6667 47.8618L12.6667 50.5285L16.6667 47.5285V52.5285H20V47.5285L24 50.5285L26 47.8618L21.1167 44.1951L26 40.5285L24 37.8618Z" fill="#FFC444"/>
<path d="M70 12.5286H66.6667V19.1952H70V12.5286Z" fill="#FFC444"/>
<path d="M62.8428 19.6756L57.846 14.6787L55.489 17.0357L60.4858 22.0326L62.8428 19.6756Z" fill="#FFC444"/>
<path d="M63.3333 39.8618C63.3242 37.6564 61.5387 35.871 59.3333 35.8618H50.6667C48.4612 35.871 46.6758 37.6564 46.6667 39.8618V48.5285C46.6758 50.7339 48.4612 52.5193 50.6667 52.5285H59.3333C61.5387 52.5193 63.3242 50.7339 63.3333 48.5285V39.8618ZM60 39.8618V48.5285C60 48.8966 59.7014 49.1951 59.3333 49.1951H50.6667C50.2985 49.1951 50 48.8966 50 48.5285V39.8618C50 39.4937 50.2985 39.1951 50.6667 39.1951H59.3333C59.7014 39.1951 60 39.4937 60 39.8618Z" fill="#FFC444"/>
<path d="M25 15.8618H0V19.1951H25V15.8618Z" fill="black"/>
<path d="M30 22.5286H15V25.8619H30V22.5286Z" fill="black"/>
<path d="M10 22.5286H5V25.8619H10V22.5286Z" fill="black"/>
</svg>
