<svg width="37" height="37" viewBox="0 0 37 37" fill="none" xmlns="http://www.w3.org/2000/svg">
<path d="M32.375 0H4.625C2.07068 0 0 2.07068 0 4.625V32.375C0 34.9293 2.07068 37 4.625 37H32.375C34.9293 37 37 34.9293 37 32.375V4.625C37 2.07068 34.9293 0 32.375 0Z" fill="#4CE45D"/>
<path fill-rule="evenodd" clip-rule="evenodd" d="M30.4901 24.9647C29.6086 24.255 28.6666 23.6181 27.7394 22.9674C25.8901 21.6686 24.1987 21.5676 22.8188 23.6572C22.0439 24.8304 20.9591 24.8818 19.8248 24.3671C16.6979 22.9492 14.2833 20.7647 12.8689 17.5864C12.2432 16.1803 12.2514 14.9196 13.7153 13.9251C14.4904 13.3991 15.2712 12.7768 15.2088 11.6275C15.1273 10.129 11.4889 5.12123 10.0521 4.59268C9.45759 4.37393 8.86552 4.38817 8.26065 4.59145C4.89163 5.72443 3.49618 8.49517 4.83259 11.7759C8.81948 21.5637 15.8357 28.3776 25.494 32.5365C26.0447 32.7733 26.6564 32.868 26.9662 32.953C29.1651 32.9751 31.741 30.8566 32.4849 28.7541C33.2011 26.7313 31.6874 25.9285 30.4901 24.9647ZM19.6608 5.59616C26.7216 6.68195 29.978 10.0394 30.8771 17.1511C30.9605 17.808 30.7158 18.7964 31.653 18.8146C32.6325 18.8334 32.3965 17.8595 32.4047 17.202C32.4875 10.5041 26.6474 4.29487 19.8649 4.06594C19.3532 4.13957 18.2944 3.71306 18.2283 4.85999C18.1843 5.63323 19.0758 5.50619 19.6608 5.59616Z" fill="white"/>
<path fill-rule="evenodd" clip-rule="evenodd" d="M21.0418 7.54611C20.3626 7.46431 19.466 7.14432 19.3073 8.08666C19.1416 9.07576 20.1409 8.97531 20.783 9.11905C25.1439 10.0937 26.6624 11.6809 27.3804 16.0068C27.4853 16.6374 27.2769 17.619 28.3487 17.4563C29.143 17.3354 28.8561 16.494 28.9225 16.0025C28.9577 11.8494 25.399 8.06932 21.0418 7.54611Z" fill="white"/>
<path fill-rule="evenodd" clip-rule="evenodd" d="M21.4425 10.9421C20.9892 10.9533 20.5443 11.0024 20.3776 11.4869C20.1274 12.211 20.6538 12.3836 21.1897 12.4697C22.9786 12.7569 23.9201 13.8117 24.0988 15.5957C24.1471 16.0799 24.4543 16.4722 24.922 16.417C25.5702 16.3397 25.6288 15.7628 25.6089 15.2149C25.6409 13.2107 23.3756 10.8942 21.4425 10.9421Z" fill="white"/>
</svg>
