<svg width="409" height="295" viewBox="0 0 409 295" fill="none" xmlns="http://www.w3.org/2000/svg">
<path fill-rule="evenodd" clip-rule="evenodd" d="M208.495 276.036C230.534 282.54 297.954 285.317 334.326 272.936C382.521 256.533 439.04 184.682 390.313 115.858C367.135 83.1185 326.899 82.871 332.657 64.9438C338.415 47.0166 331.097 24.2443 310.042 11.1377C279.445 -7.91188 210.259 -1.71395 177.452 23.5409C144.645 48.7958 139.409 41.2598 119.627 36.3877C99.8451 31.5157 79.3223 39.4879 74.0646 58.0842C68.8069 76.6804 74.1259 97.2225 47.9627 113.535C21.7995 129.847 -1.41233 153.313 0.0670773 185.238C2.28497 233.067 35.9066 286.471 105.839 279.141C181.895 271.166 189.056 270.304 208.495 276.038V276.036Z" fill="#FAFBF9"/>
<path fill-rule="evenodd" clip-rule="evenodd" d="M10.9725 244.343L406.044 239.807L373.75 289.128L43.2644 294.24L10.9725 244.343Z" fill="#DEE5DE"/>
<path fill-rule="evenodd" clip-rule="evenodd" d="M319.002 175.394C319.002 175.394 352.559 167.518 332.539 122.576C329.963 116.795 329.382 108.678 324.323 101.416C313.837 86.359 302.024 78.4603 295.064 80.8522C287.892 83.3029 290.171 98.0662 288.847 104.294C284.693 123.833 306.389 139.094 304.811 151.473C301.707 175.836 319.002 175.394 319.002 175.394Z" fill="#C6D2C6"/>
<path fill-rule="evenodd" clip-rule="evenodd" d="M291.072 77.668C314.625 100.663 323.212 144.26 323.889 178.041C364.272 124.877 339.799 83.3267 291.072 77.668Z" fill="#9FBCA8"/>
<path fill-rule="evenodd" clip-rule="evenodd" d="M325.508 213.951C328.371 163.184 320.245 135.234 311.546 106.513C311.545 106.51 311.543 106.508 311.541 106.505C311.539 106.503 311.537 106.501 311.534 106.499C311.531 106.498 311.528 106.497 311.525 106.497C311.522 106.497 311.519 106.497 311.516 106.499C311.511 106.501 311.506 106.505 311.503 106.51C311.5 106.516 311.5 106.522 311.501 106.528C320.037 137.226 324.887 169.022 319.743 213.508L325.508 213.951Z" fill="#465D4D"/>
<path fill-rule="evenodd" clip-rule="evenodd" d="M376.443 126.827C383.526 131.854 374.356 146.526 371.235 168.556C368.536 187.581 347.437 203.788 329.711 192.559C325.295 189.765 322.797 184.189 326.276 174.345C328.587 167.816 335.091 157.819 340.231 150.587C346.926 141.172 349.64 133.775 356.382 129.54C362.628 125.619 373.026 124.411 376.434 126.827H376.443Z" fill="#C6D2C6"/>
<path fill-rule="evenodd" clip-rule="evenodd" d="M326.698 199.375C357.842 178.81 363.843 126.95 382.575 117.449C387.489 174.985 371.448 205.619 326.698 199.375Z" fill="#9FBCA8"/>
<path fill-rule="evenodd" clip-rule="evenodd" d="M319.787 217.873C323.884 214.508 325.277 217.873 325.277 217.873C317.225 220.172 350.685 175.475 363.688 148.762C346.372 175.311 327.692 199.603 319.787 217.873Z" fill="#465D4D"/>
<path fill-rule="evenodd" clip-rule="evenodd" d="M305.208 209.065H342.459L333.146 252.127H314.519L305.208 209.065Z" fill="#FFDEDC"/>
<path fill-rule="evenodd" clip-rule="evenodd" d="M311.224 144.556C311.323 144.247 311.371 143.923 311.366 143.598C311.121 126.933 298.145 113.476 282.213 113.476H216.358C200.418 113.471 187.442 126.95 187.197 143.615C187.193 143.928 187.237 144.24 187.329 144.539C189.419 151.401 215.131 235.601 215.131 235.601L282.205 235.967C282.205 235.967 309.004 151.526 311.217 144.554L311.224 144.556Z" fill="#707070"/>
<path fill-rule="evenodd" clip-rule="evenodd" d="M304.18 195.411C304.193 195.25 304.171 195.088 304.118 194.935C304.064 194.782 303.979 194.642 303.869 194.524C303.759 194.405 303.625 194.311 303.476 194.246C303.328 194.182 303.167 194.149 303.005 194.149H286.18C272.821 189.248 262.482 194.524 250.512 194.62C239.526 194.71 228.252 189.667 217.356 194.149H200.899C200.736 194.149 200.575 194.183 200.426 194.249C200.277 194.314 200.143 194.41 200.033 194.529C199.923 194.649 199.838 194.79 199.786 194.944C199.733 195.098 199.713 195.261 199.726 195.424C200.374 203.08 203.747 242.821 204.348 249.894C204.374 250.187 204.508 250.46 204.725 250.66C204.942 250.859 205.226 250.969 205.521 250.97H298.967C299.264 250.969 299.551 250.857 299.769 250.654C299.986 250.452 300.12 250.175 300.142 249.879C300.67 242.772 303.616 203.031 304.18 195.411Z" fill="#A9A9A9"/>
<path fill-rule="evenodd" clip-rule="evenodd" d="M192.197 186.4L215.477 187.065C219.967 190.412 219.027 231.313 219.248 257.193L198.406 256.727L192.197 186.391V186.4Z" fill="#505050"/>
<path fill-rule="evenodd" clip-rule="evenodd" d="M311.369 184.297L288.088 184.959C283.599 188.309 284.538 229.21 284.318 255.09L305.172 254.624L311.381 184.288L311.369 184.297Z" fill="#505050"/>
<path fill-rule="evenodd" clip-rule="evenodd" d="M217.356 171.002C217.356 169.333 216.693 167.733 215.511 166.552C214.33 165.372 212.727 164.709 211.056 164.709H186.603C185.875 164.709 185.154 164.855 184.484 165.138C183.813 165.422 183.207 165.837 182.701 166.359C182.194 166.882 181.798 167.501 181.536 168.179C181.275 168.858 181.152 169.582 181.176 170.309C181.357 175.879 181.637 184.403 181.824 190.14C181.871 191.584 182.325 192.985 183.132 194.184C183.94 195.382 185.068 196.329 186.389 196.917C195.693 201.056 201.525 222.358 202.722 250.97H217.356V171.002Z" fill="#A9A9A9"/>
<path fill-rule="evenodd" clip-rule="evenodd" d="M286.194 171.002C286.194 169.333 286.858 167.733 288.04 166.552C289.221 165.372 290.824 164.709 292.495 164.709H316.953C317.681 164.708 318.401 164.853 319.072 165.136C319.742 165.419 320.348 165.834 320.855 166.356C321.361 166.878 321.757 167.497 322.019 168.175C322.281 168.853 322.404 169.577 322.38 170.304C322.198 175.87 321.919 184.386 321.732 190.123C321.685 191.57 321.231 192.975 320.422 194.177C319.613 195.378 318.483 196.329 317.159 196.919C307.861 201.066 302.029 222.365 300.834 250.97H286.199V171.002H286.194Z" fill="#A9A9A9"/>
<path fill-rule="evenodd" clip-rule="evenodd" d="M231.672 232.124L245.792 231.017C244.415 236.95 244.138 243.393 245.301 250.507L233.814 249.4C233.834 243.983 232.919 238.126 231.66 232.124H231.672Z" fill="#FDBF99"/>
<path fill-rule="evenodd" clip-rule="evenodd" d="M272.953 231.925L258.54 230.817C259.943 236.751 260.228 243.194 259.03 250.308L270.758 249.2C270.738 243.784 271.673 237.927 272.966 231.925H272.953Z" fill="#FDBF99"/>
<path fill-rule="evenodd" clip-rule="evenodd" d="M250.281 256.82C250.326 256.92 250.345 257.03 250.336 257.14C250.327 257.249 250.291 257.355 250.231 257.447C250.171 257.539 250.089 257.614 249.993 257.667C249.896 257.719 249.788 257.746 249.678 257.746H229.471C229.398 257.746 229.325 257.728 229.259 257.695C229.193 257.661 229.136 257.613 229.092 257.554C229.047 257.495 229.017 257.427 229.004 257.354C228.991 257.282 228.995 257.207 229.015 257.136C229.535 255.42 231.177 250.519 233.412 249.249C236.142 247.686 242.295 247.392 245.024 248.955C247.148 250.181 249.391 254.82 250.281 256.82Z" fill="#FFDEDC"/>
<path fill-rule="evenodd" clip-rule="evenodd" d="M276.675 256.952C276.719 257.053 276.738 257.162 276.728 257.272C276.719 257.381 276.683 257.486 276.623 257.578C276.563 257.67 276.48 257.745 276.384 257.797C276.287 257.849 276.179 257.876 276.069 257.876H255.865C255.791 257.876 255.718 257.859 255.652 257.825C255.586 257.792 255.528 257.744 255.484 257.685C255.439 257.626 255.409 257.557 255.396 257.485C255.382 257.412 255.386 257.337 255.407 257.266C255.929 255.55 257.57 250.649 259.805 249.382C262.534 247.818 268.687 247.522 271.418 249.085C273.542 250.311 275.785 254.952 276.675 256.952Z" fill="#FFDEDC"/>
<path fill-rule="evenodd" clip-rule="evenodd" d="M232.146 103.227L245.792 98.7671C246.422 103.409 248.409 111.396 251.775 111.883C244.415 135.722 236.792 127.112 229.037 116.231C233.333 116.251 232.568 110.033 232.146 103.242V103.227Z" fill="#FDBF99"/>
<path fill-rule="evenodd" clip-rule="evenodd" d="M230.595 112.212C240.028 114.307 246.66 105.543 249.516 99.4412L247.077 91.6895L228.821 98.206L230.595 112.212Z" fill="#E9AF8B"/>
<path fill-rule="evenodd" clip-rule="evenodd" d="M232.921 76.5825C240.63 76.5825 250.397 82.8711 250.397 92.5295C250.397 94.544 247.529 94.4141 247.178 96.6958C246.645 100.171 243.517 103.658 241.925 105.126C239.158 107.682 236.527 110.547 232.766 110.547C228.954 110.547 225.828 108.143 223.345 105.293C220.808 102.379 219.91 96.7374 219.545 91.8702C218.809 81.7683 225.212 76.5874 232.921 76.5874V76.5825Z" fill="#FDBF99"/>
<path fill-rule="evenodd" clip-rule="evenodd" d="M252.892 80.7269C257.014 81.9253 260.134 84.403 259.761 89.177C259.32 94.9093 255.051 98.3477 251.106 95.4901C248.429 93.5516 246.606 91.7258 246.606 87.8144C246.606 83.903 249.567 79.7588 252.887 80.7269H252.892Z" fill="#D2D2D2"/>
<path fill-rule="evenodd" clip-rule="evenodd" d="M227.923 104.793C228.851 104.261 229.984 103.825 232.136 103.734C231.248 105.695 229.479 106.487 227.923 104.793Z" fill="#EC9A86"/>
<path d="M243.461 95.1613C246.65 91.9116 244.688 89.4021 242.291 90.8259M227.501 96.6906C225.755 98.4821 225.929 100.842 228.564 100.825L227.501 96.6906Z" stroke="#D39D7D" stroke-width="3" stroke-linecap="round" stroke-linejoin="round"/>
<path fill-rule="evenodd" clip-rule="evenodd" d="M235.843 91.2894C235.79 91.0203 235.633 90.7832 235.405 90.6302C235.177 90.4772 234.898 90.4207 234.629 90.4733L229.27 91.5271C229.136 91.5531 229.008 91.6056 228.893 91.6815C228.779 91.7574 228.681 91.8552 228.605 91.9692C228.529 92.0832 228.477 92.2111 228.451 92.3456C228.425 92.4801 228.425 92.6184 228.453 92.7525L228.853 94.7792C228.879 94.9137 228.932 95.0417 229.008 95.1557C229.084 95.2697 229.182 95.3675 229.296 95.4434C229.41 95.5194 229.538 95.5719 229.673 95.598C229.807 95.624 229.946 95.6231 230.08 95.5953L235.441 94.5391C235.574 94.513 235.701 94.4609 235.814 94.3857C235.927 94.3106 236.024 94.214 236.1 94.1013C236.175 93.9886 236.228 93.8621 236.255 93.7291C236.281 93.596 236.282 93.459 236.255 93.3259L235.855 91.2992L235.843 91.2894Z" fill="#E2AC8A"/>
<path d="M235.843 91.2894C235.79 91.0203 235.633 90.7832 235.405 90.6302C235.177 90.4772 234.898 90.4207 234.629 90.4733L229.27 91.5271C229.136 91.5531 229.008 91.6056 228.893 91.6815C228.779 91.7574 228.681 91.8552 228.605 91.9692C228.529 92.0832 228.477 92.2111 228.451 92.3456C228.425 92.4801 228.425 92.6184 228.453 92.7525L228.853 94.7792C228.879 94.9137 228.932 95.0417 229.008 95.1557C229.084 95.2697 229.182 95.3675 229.296 95.4434C229.41 95.5194 229.538 95.5719 229.673 95.598C229.807 95.624 229.946 95.6231 230.08 95.5953L235.441 94.5391C235.574 94.513 235.701 94.4609 235.814 94.3857C235.927 94.3106 236.024 94.214 236.1 94.1013C236.175 93.9886 236.228 93.8621 236.255 93.7291C236.281 93.596 236.282 93.459 236.255 93.3259L235.855 91.2992L235.843 91.2894Z" stroke="#707070" stroke-width="0.9" stroke-linecap="round" stroke-linejoin="round"/>
<path fill-rule="evenodd" clip-rule="evenodd" d="M225.502 93.2547C225.475 93.1204 225.423 92.9926 225.347 92.8787C225.271 92.7649 225.173 92.6672 225.059 92.5913C224.945 92.5154 224.817 92.4629 224.682 92.4367C224.548 92.4105 224.409 92.4111 224.275 92.4386L218.914 93.4948C218.781 93.5209 218.654 93.573 218.541 93.6482C218.428 93.7233 218.331 93.82 218.255 93.9326C218.18 94.0453 218.127 94.1718 218.1 94.3048C218.074 94.4379 218.073 94.5749 218.1 94.708L218.5 96.7347C218.526 96.8692 218.578 96.9972 218.654 97.1112C218.73 97.2252 218.828 97.323 218.942 97.3989C219.056 97.4749 219.185 97.5274 219.319 97.5535C219.454 97.5795 219.592 97.5786 219.726 97.5508L225.085 96.497C225.219 96.471 225.347 96.4185 225.462 96.3426C225.576 96.2667 225.674 96.1689 225.75 96.0549C225.826 95.9409 225.878 95.813 225.904 95.6785C225.93 95.5441 225.93 95.4057 225.902 95.2716L225.502 93.2449V93.2547Z" fill="#E2AC8A"/>
<path fill-rule="evenodd" clip-rule="evenodd" d="M219.704 94.5612C219.78 95.191 219.856 95.8184 219.93 96.4483L220.097 97.4776L219.726 97.5511C219.592 97.5789 219.454 97.5798 219.319 97.5537C219.185 97.5277 219.056 97.4751 218.942 97.3992C218.828 97.3233 218.73 97.2255 218.654 97.1115C218.578 96.9974 218.526 96.8695 218.5 96.735L218.11 94.7082C218.083 94.5752 218.083 94.4382 218.11 94.3051C218.137 94.1721 218.189 94.0456 218.265 93.9329C218.341 93.8202 218.438 93.7236 218.551 93.6484C218.664 93.5733 218.791 93.5212 218.924 93.4951L219.599 93.3628L219.702 94.5612H219.704Z" fill="#DFD5CE"/>
<path d="M225.502 93.2547C225.475 93.1204 225.423 92.9926 225.347 92.8787C225.271 92.7649 225.173 92.6672 225.059 92.5913C224.945 92.5154 224.817 92.4629 224.682 92.4367C224.548 92.4105 224.409 92.4111 224.275 92.4386L218.914 93.4948C218.781 93.5209 218.654 93.573 218.541 93.6482C218.428 93.7233 218.331 93.82 218.255 93.9326C218.18 94.0453 218.127 94.1718 218.1 94.3048C218.074 94.4379 218.073 94.5749 218.1 94.708L218.5 96.7347C218.526 96.8692 218.578 96.9972 218.654 97.1112C218.73 97.2252 218.828 97.323 218.942 97.3989C219.056 97.4749 219.185 97.5274 219.319 97.5535C219.454 97.5795 219.592 97.5786 219.726 97.5508L225.085 96.497C225.219 96.471 225.347 96.4185 225.462 96.3426C225.576 96.2667 225.674 96.1689 225.75 96.0549C225.826 95.9409 225.878 95.813 225.904 95.6785C225.93 95.5441 225.93 95.4057 225.902 95.2716L225.502 93.2449V93.2547Z" stroke="#707070" stroke-width="0.9" stroke-linecap="round" stroke-linejoin="round"/>
<path fill-rule="evenodd" clip-rule="evenodd" d="M225.715 94.02C226.297 93.0863 227.744 93.052 228.547 93.2848L228.853 94.4146C227.565 93.4073 226.679 93.6181 225.853 95.0052L225.715 94.0249V94.02Z" fill="#707070"/>
<path fill-rule="evenodd" clip-rule="evenodd" d="M219.601 91.5441C219.601 91.5441 211.976 88.0444 215.72 82.8537C218.738 78.6875 216.817 76.151 219.228 73.4037C221.601 70.7079 224.83 69.9506 229.56 70.1001C231.338 70.1564 234.383 70.3721 236.898 69.5511C241.819 67.941 246.086 69.9236 247.075 74.1855C248.056 78.3811 248.844 77.7047 251.618 79.9202C254.393 82.1357 254.226 84.8854 255.053 87.917C255.944 91.1593 252.698 92.3822 253.5 94.98C255.48 101.396 246.942 103.766 246.942 103.766C246.942 103.766 242.69 99.0115 244.116 97.0754C246.795 93.4336 247.46 87.8214 241.844 88.934C238.306 89.6349 240.863 86.77 237.474 85.4368C223.858 80.0868 219.587 88.4194 219.596 91.5441H219.601Z" fill="#E7E7E7"/>
<path fill-rule="evenodd" clip-rule="evenodd" d="M225.136 71.6813C225.136 71.6813 222.582 71.0588 220.538 74.5413C219.066 77.0607 220.619 79.7883 219.219 81.4426C218.019 82.8616 216.52 85.2707 219.371 88.2238C216.64 86.4495 216.063 82.8322 218.588 80.9524C219.996 79.8986 218.833 75.2496 219.815 73.8183C221.679 71.1225 225.126 71.6813 225.126 71.6813H225.136Z" fill="#BEBEBE"/>
<path fill-rule="evenodd" clip-rule="evenodd" d="M242.55 72.9605C242.55 72.9605 244.442 72.8943 245.095 76.166C245.566 78.5359 243.902 80.5382 244.508 82.1679C245.026 83.5673 245.536 85.844 242.936 87.8046C245.195 86.8072 246.37 83.8957 245.046 81.8665C244.31 80.7391 246.113 77.0581 245.74 75.6881C245.551 74.9624 245.144 74.3119 244.573 73.8239C244.003 73.3359 243.297 73.0338 242.55 72.958V72.9605Z" fill="#BEBEBE"/>
<path fill-rule="evenodd" clip-rule="evenodd" d="M221.983 84.1164C215.659 81.9867 228.814 76.9186 228.551 71.25C229.92 77.2421 218.092 81.1387 221.983 84.1164Z" fill="#BEBEBE"/>
<path fill-rule="evenodd" clip-rule="evenodd" d="M249.454 79.9302C247.953 83.0059 251.594 91.5638 247.46 94.5979C251.206 91.902 245.988 82.5549 249.454 79.9302Z" fill="#BEBEBE"/>
<path fill-rule="evenodd" clip-rule="evenodd" d="M228.213 80.386C231.024 70.2473 237.923 72.8255 241.606 69.5537C237.71 72.7201 229.263 69.4606 228.213 80.386Z" fill="#BEBEBE"/>
<path fill-rule="evenodd" clip-rule="evenodd" d="M234.695 82.0352C234.967 73.612 240.016 74.7271 241.967 71.6343C239.857 74.6732 233.659 73.2248 234.695 82.0352Z" fill="#BEBEBE"/>
<path fill-rule="evenodd" clip-rule="evenodd" d="M251.775 111.874C247.605 123.355 232.737 122.108 230.615 115.469C225.195 137.035 221.979 160.624 223.061 183.957C241.174 183.467 258.613 182.528 274.953 180.857C269.31 158.048 262.156 135.864 251.775 111.874Z" fill="#FFDEDC"/>
<path fill-rule="evenodd" clip-rule="evenodd" d="M221.9 156.68C232.072 157.234 241.883 156.827 251.169 155.019C242.855 158.45 233.174 159.155 221.9 156.68Z" fill="#D4B6B4"/>
<path fill-rule="evenodd" clip-rule="evenodd" d="M239.378 161.886C249.212 162.131 257.597 161.64 264.474 160.393C256.942 162.697 248.682 163.42 239.378 161.886Z" fill="#D4B6B4"/>
<path fill-rule="evenodd" clip-rule="evenodd" d="M235.948 91.3555L236.177 92.6078C236.177 92.6078 241.395 90.2453 244.459 89.3581C245.706 88.9978 246.133 90.2012 246.604 89.7698C246.645 89.7306 246.542 88.1965 245.056 88.2994C241.918 88.5445 235.948 91.3481 235.948 91.3481V91.3555Z" fill="#707070"/>
<path fill-rule="evenodd" clip-rule="evenodd" d="M231.932 114.5C231.932 114.5 231.932 130.146 235.477 140.333C239.023 150.521 236.226 179.131 236.226 179.131C234.543 176.435 224.135 183.476 221.326 189.466C219.069 194.284 216.881 174.249 219.209 167.188C221.275 160.919 221.066 151.06 220.956 148.212C220.951 148.155 220.928 148.101 220.891 148.057C220.854 148.014 220.805 147.982 220.75 147.967C220.693 147.951 220.633 147.954 220.578 147.976C220.523 147.997 220.477 148.035 220.445 148.085C219.695 149.024 217.923 150.903 214.265 153.337C210.796 155.694 207.511 158.311 204.439 161.165L191.549 157.084C191.549 157.084 193.387 148.703 202.81 137.463C209.174 129.866 211.62 121.504 215.99 117.857C223.35 111.713 231.937 114.507 231.937 114.507L231.932 114.5Z" fill="#F1B5B5"/>
<path fill-rule="evenodd" clip-rule="evenodd" d="M189.159 157.094L190.428 153.401C194.032 145.044 208.362 152.749 212.636 149.022C218.375 144.017 220.938 142.061 223.159 143.453C225.939 145.196 224.14 153.715 224.474 161.285C224.898 171.25 226.67 180.864 226.67 180.864C221.223 198.333 216.189 197.808 211.925 163.295L189.159 157.094Z" fill="#D79696"/>
<path fill-rule="evenodd" clip-rule="evenodd" d="M222.852 163.552C222.852 163.552 227.46 166.209 229.086 169.015C230.713 171.821 230.639 174.372 230.602 176.441C230.566 178.509 228.345 180.266 226.277 180.852C224.209 181.438 221.201 179.948 220.364 178.757C219.528 177.566 221.547 175.367 220.806 173.076C220.065 170.784 217.999 168.123 217.999 168.123L222.852 163.545V163.552Z" fill="#FFC7A5"/>
<path fill-rule="evenodd" clip-rule="evenodd" d="M223.409 172.29C225.279 175.966 222.98 179.213 221.412 180.852C222.428 178.831 224.462 176.083 223.409 172.29Z" fill="#E1A47E"/>
<path fill-rule="evenodd" clip-rule="evenodd" d="M225.526 173.081C227.398 176.757 225.097 180.002 223.532 181.641C224.547 179.62 226.581 176.875 225.526 173.081Z" fill="#E1A47E"/>
<path fill-rule="evenodd" clip-rule="evenodd" d="M228.107 173.081C229.979 176.757 227.678 180.002 226.113 181.641C227.128 179.62 229.162 176.875 228.107 173.081Z" fill="#E1A47E"/>
<path fill-rule="evenodd" clip-rule="evenodd" d="M224.803 164.64C226.334 163.111 204.24 149.911 198.031 150.813C190.83 151.857 190.376 161.106 190.379 163.442C190.381 163.593 190.436 163.739 190.533 163.854C190.631 163.97 190.765 164.048 190.914 164.077C201.954 166.157 211.645 168.287 219.226 173.081C220.318 167.711 221.346 166.072 224.803 164.64Z" fill="#F1B5B5"/>
<path fill-rule="evenodd" clip-rule="evenodd" d="M251.169 111.393C251.169 111.393 270.669 111.133 274.067 120.436C274.803 122.46 267.985 137.273 272.426 151.585C277.07 166.564 281.749 185.263 278.351 189.096C276.332 191.378 273.199 177.362 265.08 177.467C256.962 177.573 251.925 180.866 251.925 180.866C251.925 180.866 254.82 172.433 254.967 166.086C255.083 161.158 254.106 150.271 252.629 145.399C251.152 140.527 247.936 126.96 248.193 123.098C248.564 117.561 251.169 111.398 251.169 111.398V111.393Z" fill="#F1B5B5"/>
<path fill-rule="evenodd" clip-rule="evenodd" d="M266.359 133.077C266.359 133.077 263.805 137.993 269.352 147.98C276.607 161.043 281.435 166.089 281.435 166.089L294.411 150.12L266.359 133.077Z" fill="#D79696"/>
<path fill-rule="evenodd" clip-rule="evenodd" d="M249.673 180.867C264.786 180.867 277.576 170.929 280.095 184.702C283.106 201.201 265.414 194.694 250.301 194.694C235.188 194.694 218.782 203.384 219.091 189.349C219.408 175.085 234.548 180.857 249.673 180.857V180.867Z" fill="#C6C6C6"/>
<path fill-rule="evenodd" clip-rule="evenodd" d="M281.653 236.844C273.949 235.53 270.019 235.785 263.854 236.449C249.913 237.952 235.22 241.04 220.899 236.844C220.899 236.844 216.422 191.623 224.103 182.364C226.728 179.202 230.458 175.803 233.328 175.629C242.406 175.078 243.581 178.962 250.343 177.467C255.382 176.357 257.72 173.661 265.767 174.1C273.11 174.502 274.273 178.266 276.663 182.364C282.723 192.758 281.653 236.844 281.653 236.844Z" fill="#E3E3E3"/>
<path fill-rule="evenodd" clip-rule="evenodd" d="M263.27 126.786C263.27 126.786 266.523 140.812 269.038 144.209C271.552 147.605 274.062 150.98 276.28 150.769C278.498 150.558 286.923 150.921 286.629 147.417C286.334 143.912 280.157 128.115 278.383 123.831C276.609 119.547 271.891 116.108 268.493 115.469" fill="#F1B5B5"/>
<path fill-rule="evenodd" clip-rule="evenodd" d="M279.617 143.446C284.808 143.029 290.105 148.053 290.903 154.45C291.663 160.476 285.844 165.454 279.617 165.454C273.39 165.454 269.153 160.939 269.153 154.866C269.153 148.794 273.402 143.944 279.617 143.446Z" fill="#D79696"/>
<path fill-rule="evenodd" clip-rule="evenodd" d="M286.636 148.007C281.592 142.105 275.978 145.311 273.366 147.416C270.753 149.521 271.337 159.126 274.021 161.094C276.705 163.062 281.891 163.598 286.18 160.393C288.751 158.471 289.124 150.916 286.636 148.007Z" fill="#F1B5B5"/>
<path fill-rule="evenodd" clip-rule="evenodd" d="M264.136 147.416C269.06 147.416 273.056 148.59 273.056 150.033C273.056 151.477 269.06 152.651 264.136 152.651C259.212 152.651 255.215 151.479 255.215 150.033C255.215 148.587 259.212 147.416 264.136 147.416Z" fill="#EDEDED"/>
<path fill-rule="evenodd" clip-rule="evenodd" d="M283.952 152.651C283.506 152.82 280.149 151.473 278.986 151.343C278.106 151.245 277.141 151.813 276.042 152.245C275.012 152.649 273.834 152.901 273.439 153.247C272.868 153.752 273.294 155.208 274.016 155.453C274.737 155.698 278.761 154.213 278.761 154.213L281.067 155.717L283.95 152.642L283.952 152.651Z" fill="#DBA98A"/>
<path fill-rule="evenodd" clip-rule="evenodd" d="M272.622 151.808C273.599 151.792 274.558 152.067 275.378 152.597C276.198 153.128 276.841 153.89 277.226 154.786C277.611 155.683 277.72 156.674 277.54 157.633C277.359 158.592 276.897 159.475 276.212 160.171C275.527 160.867 274.65 161.343 273.693 161.539C272.737 161.736 271.743 161.643 270.839 161.274C269.935 160.904 269.161 160.274 268.617 159.464C268.073 158.654 267.782 157.7 267.782 156.724C267.771 155.431 268.275 154.187 269.183 153.265C270.091 152.343 271.328 151.819 272.622 151.808ZM272.48 152.936C273.233 152.923 273.972 153.135 274.604 153.544C275.235 153.953 275.731 154.54 276.028 155.232C276.324 155.923 276.408 156.686 276.269 157.425C276.129 158.164 275.773 158.845 275.245 159.381C274.717 159.917 274.041 160.284 273.304 160.435C272.567 160.587 271.801 160.515 271.104 160.23C270.408 159.946 269.812 159.46 269.392 158.836C268.972 158.211 268.748 157.476 268.748 156.724C268.743 156.23 268.836 155.74 269.021 155.282C269.206 154.824 269.48 154.406 269.826 154.054C270.173 153.701 270.586 153.42 271.041 153.227C271.496 153.034 271.985 152.932 272.48 152.928V152.936Z" fill="#D79696"/>
<path fill-rule="evenodd" clip-rule="evenodd" d="M273.066 150.034C267.313 152.826 261.363 152.892 255.215 150.171C254.724 154.71 255.912 159.095 259.754 163.239C262.404 164.177 265.397 164.271 268.832 163.239C272.551 158.884 274.079 154.389 273.069 150.034H273.066Z" fill="#C28C8C"/>
<path fill-rule="evenodd" clip-rule="evenodd" d="M272.966 154.66C272.973 154.546 273.022 154.439 273.104 154.359C273.185 154.278 273.293 154.23 273.407 154.224C277.448 154.004 280.883 153.222 283.817 151.977C283.915 151.934 284.024 151.926 284.127 151.955C284.23 151.984 284.32 152.047 284.381 152.134C286.167 154.665 286.629 157.501 285.309 160.75C285.287 160.806 285.253 160.857 285.211 160.9C282.878 163.277 279.934 163.949 276.378 162.914C276.309 162.895 276.245 162.858 276.192 162.809C273.689 160.471 272.791 157.709 272.975 154.66H272.966Z" fill="#FDBF99"/>
<path fill-rule="evenodd" clip-rule="evenodd" d="M273.01 156.651C277.151 156.837 280.785 156.406 284.219 154.71C280.848 155.96 277.208 156.347 273.01 156.651Z" fill="#E1A47E"/>
<path fill-rule="evenodd" clip-rule="evenodd" d="M273.675 159.133C277.818 159.317 281.449 158.888 284.884 157.189C281.513 158.439 277.872 158.827 273.675 159.133Z" fill="#E1A47E"/>
<path fill-rule="evenodd" clip-rule="evenodd" d="M274.34 161.613C278.483 161.797 282.114 161.368 285.549 159.67C282.178 160.92 278.537 161.307 274.34 161.613Z" fill="#E1A47E"/>
<path fill-rule="evenodd" clip-rule="evenodd" d="M230.669 92.5448C231.949 91.7728 233.951 92.5448 233.951 92.5448C233.951 92.5448 232.563 94.1745 231.145 94.0789C230.249 94.0177 230.212 92.8217 230.669 92.5448Z" fill="#FCE0D0"/>
<path fill-rule="evenodd" clip-rule="evenodd" d="M231.481 92.4186C231.644 92.4253 231.801 92.4797 231.933 92.575C232.065 92.6703 232.167 92.8022 232.224 92.9545C232.282 93.1068 232.294 93.2727 232.258 93.4315C232.222 93.5903 232.14 93.7351 232.023 93.8479C231.905 93.9607 231.757 94.0365 231.596 94.0659C231.436 94.0952 231.271 94.0769 231.121 94.0131C230.971 93.9494 230.843 93.843 230.753 93.7072C230.663 93.5714 230.615 93.4122 230.615 93.2494C230.62 93.0247 230.714 92.8112 230.876 92.6555C231.038 92.4998 231.256 92.4146 231.481 92.4186Z" fill="#766358"/>
<path fill-rule="evenodd" clip-rule="evenodd" d="M230.342 92.9053C230.315 91.7817 232.658 91.7571 233.951 92.5447C232.997 92.341 231.351 92.4024 230.342 92.9053Z" fill="#675E59"/>
<path fill-rule="evenodd" clip-rule="evenodd" d="M221.103 94.6225C222.384 93.8481 224.383 94.6225 224.383 94.6225C224.383 94.6225 222.994 96.2498 221.576 96.1542C220.681 96.093 220.647 94.897 221.103 94.6225Z" fill="#FCE0D0"/>
<path fill-rule="evenodd" clip-rule="evenodd" d="M221.912 94.4971C222.075 94.5028 222.232 94.556 222.364 94.6501C222.496 94.7441 222.598 94.8748 222.656 95.026C222.715 95.1773 222.728 95.3423 222.693 95.5007C222.659 95.6592 222.579 95.804 222.462 95.9174C222.346 96.0307 222.2 96.1075 222.04 96.1382C221.881 96.169 221.716 96.1523 221.566 96.0903C221.416 96.0284 221.287 95.9238 221.196 95.7895C221.105 95.6553 221.056 95.4974 221.054 95.3352C221.059 95.1107 221.153 94.8975 221.315 94.7422C221.478 94.5869 221.695 94.5023 221.92 94.5069L221.912 94.4971Z" fill="#766358"/>
<path fill-rule="evenodd" clip-rule="evenodd" d="M220.774 94.9811C220.747 93.8574 223.093 93.8353 224.383 94.6229C223.429 94.4168 221.782 94.4806 220.774 94.9811Z" fill="#675E59"/>
<path fill-rule="evenodd" clip-rule="evenodd" d="M102.588 197.642H94.9948L79.0304 252.127H86.6237L102.588 197.642Z" fill="#A9A9A9"/>
<path fill-rule="evenodd" clip-rule="evenodd" d="M129.745 197.642H137.338L153.303 252.127H145.709L129.745 197.642Z" fill="#A9A9A9"/>
<path fill-rule="evenodd" clip-rule="evenodd" d="M146.845 188.339C146.845 187.517 146.517 186.729 145.936 186.148C145.354 185.567 144.565 185.24 143.742 185.239H88.947C88.1241 185.24 87.3351 185.567 86.7532 186.148C86.1713 186.729 85.8441 187.517 85.8435 188.339V194.542C85.8441 195.364 86.1713 196.152 86.7532 196.734C87.3351 197.315 88.1241 197.642 88.947 197.642H143.742C144.565 197.642 145.354 197.315 145.936 196.734C146.517 196.152 146.845 195.364 146.845 194.542V188.339Z" fill="#93939B"/>
<path fill-rule="evenodd" clip-rule="evenodd" d="M121.293 240.223H134.914L134.59 249.867C130.984 253.886 126.546 253.43 122.544 249.575L121.293 240.223Z" fill="#E7AD89"/>
<path fill-rule="evenodd" clip-rule="evenodd" d="M150.847 240.223H164.468L163.553 250.161L152.1 249.575L150.847 240.223Z" fill="#E7AD89"/>
<path fill-rule="evenodd" clip-rule="evenodd" d="M141.708 252.673C140.525 248.554 136.178 246.868 132.157 248.715C129.37 250.056 126.087 249.889 122.566 249.259C121.114 250.644 120.864 254.6 122.017 257.56C128.562 258.683 135.108 258.185 141.644 257.337C141.644 257.337 142.174 254.332 141.698 252.681L141.708 252.673Z" fill="#B0B0B0"/>
<path fill-rule="evenodd" clip-rule="evenodd" d="M135.92 247.387C139.738 247.387 142.839 250.406 142.839 254.124C142.839 257.842 139.738 260.861 135.92 260.861C132.103 260.861 128.999 257.842 128.999 254.124C128.999 250.406 132.1 247.387 135.92 247.387Z" fill="#D3D3D3"/>
<path fill-rule="evenodd" clip-rule="evenodd" d="M172.111 251.157C170.884 247.037 166.35 245.351 162.162 247.199C159.26 249.836 155.839 249.439 152.174 247.743C150.66 249.127 150.4 253.083 151.6 256.041C158.418 257.166 165.094 256.965 171.904 256.115C171.904 256.115 172.606 252.816 172.111 251.157Z" fill="#B0B0B0"/>
<path fill-rule="evenodd" clip-rule="evenodd" d="M165.881 246.546C170.096 246.546 173.516 249.301 173.516 252.693C173.516 256.085 170.096 258.839 165.881 258.839C161.666 258.839 158.246 256.072 158.246 252.673C158.246 249.274 161.681 246.546 165.881 246.546Z" fill="#D3D3D3"/>
<path fill-rule="evenodd" clip-rule="evenodd" d="M142.849 169.593C129.215 165.633 124.615 163.692 115.108 168.559C113.444 169.412 111.587 174.367 112.043 177.345C113.866 189.231 125.108 198.502 140.155 205.389C140.384 205.494 140.575 205.669 140.699 205.889C140.823 206.11 140.873 206.363 140.844 206.614C139.485 217.789 143.381 230.053 145.584 244.794C145.629 245.101 145.786 245.38 146.025 245.579C146.263 245.778 146.567 245.881 146.877 245.87L165.646 245.218C165.799 245.212 165.949 245.176 166.088 245.11C166.226 245.045 166.35 244.952 166.451 244.837C166.553 244.723 166.63 244.589 166.679 244.444C166.727 244.299 166.745 244.145 166.733 243.993C166.213 237.403 163.668 205.193 163.376 201.489C163.357 201.259 163.302 201.034 163.214 200.82C158.111 188.589 148.315 172.882 142.851 169.571L142.849 169.593Z" fill="#FFDEDC"/>
<path fill-rule="evenodd" clip-rule="evenodd" d="M80.6913 166.898C80.6913 166.898 78.2698 177.97 80.0436 177.529C81.8174 177.088 84.8179 175.853 90.1026 175.167C104.256 173.321 125.282 182.845 138.734 179.742C143.347 178.681 147.9 176.051 149.674 174.576C151.448 173.101 154.995 168.226 151.146 168.373C147.297 168.52 111.384 168.373 105.758 167.638C100.132 166.903 80.6864 166.903 80.6864 166.903L80.6913 166.898Z" fill="#E2C6C4"/>
<path fill-rule="evenodd" clip-rule="evenodd" d="M110.711 177.137C110.711 177.137 118.516 182.159 122.951 184.078C127.387 185.997 134.249 190.53 137.22 192.41C151.261 201.353 148.298 208.039 148.433 212.482C148.609 218.69 151.472 241.602 151.622 250.164C151.686 253.929 148.187 250.971 144.932 250.821C141.676 250.672 135.044 248.165 135.044 248.165L136.227 217.746L110.711 177.14V177.137Z" fill="#E7CECC"/>
<path fill-rule="evenodd" clip-rule="evenodd" d="M118.695 173.612C107.532 167.328 95.0045 162.768 85.4951 167.637C83.8341 168.488 82.8626 173.779 83.0981 178.862C83.6477 190.77 97.3721 200.134 112.365 207.011C112.709 207.168 112.993 207.432 113.176 207.763C113.359 208.094 113.431 208.474 113.381 208.849C111.955 219.796 112.949 230.354 114.985 244.841C115.027 245.142 115.177 245.418 115.407 245.618C115.637 245.817 115.932 245.927 116.236 245.926H138.354C138.507 245.926 138.659 245.895 138.8 245.835C138.941 245.775 139.068 245.687 139.174 245.576C139.279 245.465 139.361 245.333 139.414 245.19C139.467 245.046 139.491 244.893 139.483 244.74C139.139 238.037 137.456 205.09 137.331 202.673C137.326 202.58 137.309 202.487 137.279 202.399C132.863 189.128 125.471 181.594 118.695 173.612Z" fill="#FFDEDC"/>
<path fill-rule="evenodd" clip-rule="evenodd" d="M80.6913 166.898C80.6913 166.898 79.3051 174.549 88.0246 173.679C99.801 172.503 125.275 182.845 138.727 179.742C143.339 178.681 147.893 176.051 149.667 174.576C151.441 173.101 154.988 168.226 151.139 168.373C147.289 168.52 111.376 168.373 105.751 167.638C100.125 166.903 80.679 166.903 80.679 166.903L80.6913 166.898Z" fill="#E2C6C4"/>
<path fill-rule="evenodd" clip-rule="evenodd" d="M104.803 92.8015L119.735 91.3311C120.049 98.0534 122.434 101.541 124.316 105.112C118.815 116.603 108.729 112.476 101.626 107.648C103.533 103.249 105.262 99.9626 104.803 92.8089V92.8015Z" fill="#E7AD89"/>
<path fill-rule="evenodd" clip-rule="evenodd" d="M101.958 94.522L126.791 98.6564C118.435 104.746 110.108 107.165 101.958 94.522Z" fill="#DDA17B"/>
<path fill-rule="evenodd" clip-rule="evenodd" d="M111.972 62.2653C126.114 61.3928 128.104 78.1142 128.104 86.3953C128.104 93.5024 121.263 101.989 116.268 102.433C110.115 102.979 99.8623 93.7916 99.8623 85.5228C99.8623 77.254 96.1822 63.2505 111.972 62.2775V62.2653Z" fill="#E7AD89"/>
<path fill-rule="evenodd" clip-rule="evenodd" d="M106.396 85.3903C107.73 85.133 108.964 85.0839 110.535 84.709C109.845 86.4662 107.529 86.8656 106.396 85.3903Z" fill="#E6D0C2"/>
<path fill-rule="evenodd" clip-rule="evenodd" d="M108.466 84.8687C108.979 84.8687 109.396 85.1946 109.396 85.6039C109.396 86.0131 108.979 86.3391 108.466 86.3391C107.954 86.3391 107.534 86.0131 107.534 85.6039C107.534 85.1946 107.951 84.8687 108.466 84.8687Z" fill="#453C37"/>
<path fill-rule="evenodd" clip-rule="evenodd" d="M123.695 82.7246C122.348 82.8766 121.153 83.1976 119.544 83.3103C120.729 84.7808 123.057 84.4695 123.695 82.7246Z" fill="#E6D0C2"/>
<path fill-rule="evenodd" clip-rule="evenodd" d="M121.565 82.8367C121.075 82.9911 120.775 83.4274 120.895 83.817C121.016 84.2067 121.514 84.3881 122.004 84.2361C122.495 84.0842 122.794 83.6455 122.674 83.2558C122.554 82.8661 122.056 82.6848 121.565 82.8367Z" fill="#453C37"/>
<path fill-rule="evenodd" clip-rule="evenodd" d="M105.571 85.1528C108.089 85.0621 109.904 84.7901 111.192 84.2607C109.596 85.4322 107.722 85.7296 105.571 85.1528Z" fill="#514D4A"/>
<path fill-rule="evenodd" clip-rule="evenodd" d="M118.695 83.2368C121.207 83.1608 123.032 82.8569 124.316 82.3447C122.843 83.3953 120.97 83.6926 118.695 83.2368Z" fill="#453C37"/>
<path fill-rule="evenodd" clip-rule="evenodd" d="M113.798 72.6684L109.239 62.265C109.239 62.265 101.143 61.1279 97.561 66.223C86.9475 81.3441 102.588 93.1812 102.588 93.1812C101.365 90.7642 100.83 88.0584 101.04 85.3584C101.469 77.8591 108.731 77.2709 113.798 72.6782V72.6684Z" fill="#564D47"/>
<path fill-rule="evenodd" clip-rule="evenodd" d="M108.216 63.9465C97.691 63.4147 94.0845 75.6194 96.2435 80.9277C96.1282 72.8133 99.904 65.662 108.216 63.9465Z" fill="#271D17"/>
<path fill-rule="evenodd" clip-rule="evenodd" d="M108.78 65.5757C97.4137 66.2987 95.5982 79.616 99.0182 86.9241C97.2861 79.0817 98.7901 67.1466 108.78 65.5757Z" fill="#271D17"/>
<path fill-rule="evenodd" clip-rule="evenodd" d="M108.216 61.3999C110.508 65.8382 112.416 70.3034 113.562 74.6339V74.3888C112.914 67.9213 110.395 64.1202 108.216 61.3999Z" fill="#271D17"/>
<path fill-rule="evenodd" clip-rule="evenodd" d="M109.178 62.1576C109.178 62.1576 117.029 58.1187 123.886 64.0079C134.274 72.9359 128.116 84.5328 128.116 84.5328C126.987 79.5211 127.193 75.296 123.297 74.2397C119.244 73.1369 116.813 74.1515 113.574 72.686L109.178 62.1576Z" fill="#564D47"/>
<path fill-rule="evenodd" clip-rule="evenodd" d="M111.972 63.4517C120.513 62.1822 127.507 68.1253 128.656 75.7618C128.617 73.7601 128.118 71.7941 127.197 70.0156C126.277 68.237 124.96 66.6934 123.348 65.5039C121.736 64.3143 119.872 63.5107 117.899 63.1548C115.927 62.799 113.899 62.9006 111.972 63.4517Z" fill="#271D17"/>
<path fill-rule="evenodd" clip-rule="evenodd" d="M108.216 61.3999C110.508 65.8382 112.416 70.3034 113.562 74.6339V74.3888C112.914 67.9213 110.395 64.1202 108.216 61.3999Z" fill="#271D17"/>
<path fill-rule="evenodd" clip-rule="evenodd" d="M113.187 94.4997C114.382 97.2225 119.06 96.551 119.541 93.5391C117.873 94.1444 115.8 94.5194 113.187 94.4997Z" fill="#E57562"/>
<path d="M116.268 84.5332C117.25 87.6211 116.931 89.2705 114.75 88.8147" stroke="#D99675" stroke-width="3" stroke-linecap="round" stroke-linejoin="round"/>
<path fill-rule="evenodd" clip-rule="evenodd" d="M123.724 103.734C120.206 112.498 106.008 115.446 103.03 103.734C97.561 109.587 98.5301 117.049 100.961 124.877C110.709 128.688 119.399 129.332 126.386 124.877C129.038 118.015 128.96 110.998 123.724 103.734Z" fill="white"/>
<path d="M101.293 105.153C105.032 111.77 109.131 114.13 113.56 113.814C117.829 113.506 122.407 110.761 127.269 104.487" stroke="#BCBCBC" stroke-width="2.26" stroke-linecap="round" stroke-linejoin="round"/>
<path fill-rule="evenodd" clip-rule="evenodd" d="M139.541 107.17C134.447 105.683 129.235 104.632 123.962 104.028C121.558 116.157 114.75 124.615 114.75 124.615C114.75 124.615 106.994 116.378 102.998 104.185C97.3132 106.447 90.7552 109.119 85.6619 113.473C88.7483 133.756 83.9445 147.255 83.6992 172.35C104.99 171.86 117.156 175.61 128.842 175.47C135.147 175.394 139.767 173.698 145.008 170.593C144.539 151.08 138.827 128.354 139.541 107.168V107.17Z" fill="#FFDEDC"/>
<path fill-rule="evenodd" clip-rule="evenodd" d="M86.5648 156.849C81.4273 148.186 75.4802 119.622 89.4475 117.74C92.5315 117.326 96.4594 121.056 99.7838 127.982C103.008 134.694 102.973 147.955 104.97 152.166C106.442 155.268 115.542 159.378 115.078 162.258C114.615 165.138 112.507 166.022 104.637 164.363C101.148 163.628 99.7421 162.324 95.9074 163.466C92.5658 164.461 89.0378 161.03 86.5648 156.849Z" fill="#E2C6C4"/>
<path fill-rule="evenodd" clip-rule="evenodd" d="M131.688 159.158C131.153 157.553 135.196 151.07 135.236 147.529C135.317 139.932 134.961 137.954 134.348 133.244C133.935 130.058 133.351 121.725 138.118 122.059C140.326 122.213 143.329 123.166 144.105 127.041C144.88 130.916 146.612 145.647 147.076 149.745C147.54 153.842 149.205 159.712 147.984 161.15C146.762 162.589 140.967 165.912 139.541 166.079C136.234 166.466 133.572 164.807 131.69 159.158H131.688Z" fill="#E2C6C4"/>
<path fill-rule="evenodd" clip-rule="evenodd" d="M105.839 153.492L107.613 148.784C114.004 151.918 121.958 156.886 125.498 162.866L123.484 164.241L105.839 153.492Z" fill="#EEEEEE"/>
<path d="M105.564 151.838C112.559 155.326 119.33 159.115 125.179 163.894M106.658 149.402C113.655 152.89 119.98 157.313 125.498 162.867L106.658 149.402ZM106.361 150.233C113.359 153.721 119.904 157.977 125.424 163.531L106.361 150.233ZM105.797 151.008C112.794 154.495 119.674 158.34 125.179 163.894L105.797 151.008Z" stroke="#ADADAD" stroke-width="1.13" stroke-linecap="round" stroke-linejoin="round"/>
<path fill-rule="evenodd" clip-rule="evenodd" d="M125.498 163.434C125.861 156.587 129.127 147.627 134.644 143.598L137.176 155.43L127.272 167.093L125.498 163.434Z" fill="#EEEEEE"/>
<path fill-rule="evenodd" clip-rule="evenodd" d="M125.498 163.032C127.1 157.383 131.234 150.043 136.936 145.225L138.359 157.628L127.863 166.206L125.498 163.044V163.032Z" fill="#E2E2E2"/>
<path fill-rule="evenodd" clip-rule="evenodd" d="M126.791 162.684C128.945 158.256 132.804 152.249 138.506 147.426L139.541 159.829L129.046 168.407L126.791 162.696V162.684Z" fill="#CCCCCC"/>
<path fill-rule="evenodd" clip-rule="evenodd" d="M127.272 161.964L141.907 148.178L141.072 161.75L129.36 171.776C128.827 173.112 127.242 173.649 125.925 172.347L107.318 163.897L103.994 151.702L124.002 162.071C124.816 163.446 126.794 163.15 127.272 161.959V161.964Z" fill="#707070"/>
<path fill-rule="evenodd" clip-rule="evenodd" d="M123.952 160.509L126.391 174.326L129.387 173.682L127.272 160.509H123.952Z" fill="#626262"/>
<path fill-rule="evenodd" clip-rule="evenodd" d="M95.2401 117.611C87.6173 108.332 81.7978 114.18 81.1918 120.414C80.5367 127.173 78.6206 149.963 91.2999 158.17L102.095 151.269C101.972 145.848 99.1827 122.409 95.2376 117.611H95.2401Z" fill="#FFDEDC"/>
<path fill-rule="evenodd" clip-rule="evenodd" d="M87.1192 159.499C87.1192 159.499 83.2944 153.862 83.0637 149.301C82.7423 142.993 97.7842 135.66 104.877 144.681C107.706 148.272 106.41 150.968 106.41 150.968L87.1192 159.504V159.499Z" fill="#F0D3D1"/>
<path fill-rule="evenodd" clip-rule="evenodd" d="M95.3235 143.321C104.401 142.905 105.4 149.938 104.963 154.401C104.561 158.553 101.756 162.979 97.5193 163.202C91.3857 163.535 85.3503 157.131 84.7959 153.183C83.6182 144.851 91.4446 143.5 95.3235 143.321Z" fill="#FFDEDC"/>
<path fill-rule="evenodd" clip-rule="evenodd" d="M101.082 155.17C104.271 155.17 106.847 157.418 106.847 160.182C106.847 162.947 104.271 165.194 101.082 165.194C97.8922 165.194 95.3161 162.949 95.3161 160.182C95.3161 157.415 97.8996 155.17 101.082 155.17Z" fill="#C4A5A3"/>
<path fill-rule="evenodd" clip-rule="evenodd" d="M96.8225 160.606C96.3956 158.719 97.5143 156.349 102.689 156.195C103.729 156.165 105.419 156.93 105.419 156.93L105.91 158.584C105.91 158.584 104.104 158.54 104.212 159.268C104.511 161.319 106.511 160.849 107.762 160.738C109.552 160.552 111.307 160.116 112.976 159.442C113.016 159.425 113.059 159.418 113.102 159.424C113.146 159.429 113.186 159.445 113.221 159.471C113.26 159.498 113.291 159.535 113.309 159.579C113.327 159.622 113.332 159.67 113.324 159.716C113.172 160.942 112.755 164.265 112.659 165.022C112.645 165.118 112.596 165.205 112.522 165.267C111.877 165.792 108.687 168.208 105.24 167.515C96.1404 165.711 97.242 162.491 96.8151 160.606H96.8225Z" fill="#E7AD89"/>
<path fill-rule="evenodd" clip-rule="evenodd" d="M106.639 162.783C108.871 162.706 111.078 162.293 113.187 161.557C111.202 162.684 108.897 163.115 106.639 162.783Z" fill="#CF9877"/>
<path fill-rule="evenodd" clip-rule="evenodd" d="M106.597 164.446C108.829 164.369 111.036 163.956 113.145 163.221C111.159 164.345 108.855 164.776 106.597 164.446Z" fill="#CF9877"/>
<path fill-rule="evenodd" clip-rule="evenodd" d="M106.555 166.118C108.788 166.036 110.995 165.619 113.103 164.88C111.12 166.009 108.815 166.445 106.555 166.118Z" fill="#CF9877"/>
<path fill-rule="evenodd" clip-rule="evenodd" d="M134.414 112.584C137.532 103.075 143.737 107.871 146.539 113.476C149.578 119.552 161.323 138.454 152.427 150.659L139.873 148.086C136.384 141.986 132.485 118.483 134.414 112.584Z" fill="#FFDEDC"/>
<path fill-rule="evenodd" clip-rule="evenodd" d="M139.541 151.169C139.541 151.169 134.804 142.214 139.541 140.207C158.609 132.119 160.18 142.53 158.739 147.956C157.299 153.382 139.541 151.169 139.541 151.169Z" fill="#F0D3D1"/>
<path fill-rule="evenodd" clip-rule="evenodd" d="M144.799 139.753C140.223 140.654 138.528 143.85 138.634 147.249C138.699 148.373 139.009 149.468 139.541 150.46L141.907 148.406C141.907 148.406 141.661 150.783 141.573 152.026C141.296 156.011 146.367 158.714 149.571 158.17C156.784 156.945 158.681 147.227 157.177 143.321C155.673 139.414 150.589 138.611 144.797 139.753H144.799Z" fill="#FFDEDC"/>
<path fill-rule="evenodd" clip-rule="evenodd" d="M145.999 149.618C149.053 149.618 151.531 152.024 151.531 154.99C151.531 157.955 149.053 160.359 145.999 160.359C142.944 160.359 140.466 157.953 140.466 154.99C140.466 152.027 142.944 149.618 145.999 149.618Z" fill="#C4A5A3"/>
<path fill-rule="evenodd" clip-rule="evenodd" d="M149.362 153.107C148.455 151.392 146.445 149.6 142.449 151.281C142.112 151.464 141.809 151.702 141.551 151.985L141.521 154.578C141.521 154.578 142.194 154.443 142.289 154.739C142.925 156.715 140.081 157.19 138.921 157.398C136.838 157.759 134.22 158.016 133.067 158.119C133.017 158.123 132.969 158.142 132.929 158.173C132.89 158.204 132.86 158.245 132.844 158.293C132.826 158.341 132.823 158.393 132.836 158.442C132.85 158.491 132.878 158.535 132.917 158.567L138.047 163.175C138.107 163.229 138.183 163.263 138.263 163.273C138.999 163.359 142.711 163.734 144.338 162.741C152.255 157.911 150.111 154.521 149.362 153.107Z" fill="#E7AD89"/>
<path fill-rule="evenodd" clip-rule="evenodd" d="M134.409 159.908C136.629 159.8 138.828 159.42 140.955 158.775C138.906 159.944 136.695 160.155 134.409 159.908Z" fill="#CF9877"/>
<path fill-rule="evenodd" clip-rule="evenodd" d="M135.073 161.134C137.294 161.027 139.494 160.646 141.621 159.999C139.57 161.17 137.36 161.381 135.073 161.134Z" fill="#CF9877"/>
<path fill-rule="evenodd" clip-rule="evenodd" d="M136.269 162.711C138.49 162.605 140.689 162.225 142.817 161.579C140.766 162.748 138.555 162.959 136.269 162.711Z" fill="#CF9877"/>
</svg>
