<svg width="440" height="277" viewBox="0 0 440 277" fill="none" xmlns="http://www.w3.org/2000/svg">
<path fill-rule="evenodd" clip-rule="evenodd" d="M139.665 7.20916C92.0666 -11.4076 77.5395 12.7351 56.2579 25.9777C41.1398 35.3807 -9.4227 41.1799 1.54275 73.2844C13.6269 108.67 22.5324 116.091 9.80829 158.497C2.59141 182.553 7.10605 216.639 43.3632 230.397C79.6204 244.156 149.113 227.62 189.824 231.437C230.535 235.253 272.199 246.704 302.89 250.521C333.582 254.337 384.768 255.967 414.698 233.345C431.213 220.864 456.348 197.651 425.178 164.929C394.008 132.208 363.477 137.083 380.653 107.292C397.828 77.5024 393.377 62.3961 370.477 39.4165C347.577 16.437 308.76 -15.0183 251.277 8.16908C203.256 27.5355 165.471 17.3058 139.665 7.20916Z" fill="#F5F6F5"/>
<path fill-rule="evenodd" clip-rule="evenodd" d="M375.119 168.038H362.08V276.053H375.119V168.038Z" fill="#DFE9DF"/>
<path fill-rule="evenodd" clip-rule="evenodd" d="M120.553 168.522H107.514V240.49H120.553V168.522Z" fill="#DFE9DF"/>
<path fill-rule="evenodd" clip-rule="evenodd" d="M331.566 226.848H321.656V254.134H331.566V226.848Z" fill="#AAB7AE"/>
<path fill-rule="evenodd" clip-rule="evenodd" d="M235.108 226.848H225.198V254.134H235.108V226.848Z" fill="#AAB7AE"/>
<path fill-rule="evenodd" clip-rule="evenodd" d="M225.198 207.563L329.067 207.616L334.077 237.196C334.145 237.601 334.124 238.016 334.016 238.412C333.907 238.808 333.714 239.176 333.449 239.489C333.184 239.803 332.854 240.055 332.482 240.228C332.109 240.402 331.704 240.491 331.293 240.492L225.24 240.562C224.87 240.563 224.504 240.488 224.165 240.34C223.826 240.192 223.522 239.975 223.272 239.703C223.021 239.431 222.83 239.11 222.71 238.76C222.591 238.41 222.546 238.039 222.577 237.67C223.278 229.624 225.189 207.563 225.189 207.563H225.198Z" fill="#C6D2C6"/>
<path fill-rule="evenodd" clip-rule="evenodd" d="M229.692 163.435L323.273 162.479C327.356 171.422 329.112 193.293 329.64 212.418C329.906 221.994 332.298 228.067 327.556 238.593C323.313 248.015 296.409 238.359 276.198 240.489C259.36 242.26 238.287 243.885 227.307 232.137C223.711 228.291 224.948 213.607 224.715 204.562C224.276 187.722 225.897 171.235 229.692 163.435Z" fill="#93939B"/>
<path fill-rule="evenodd" clip-rule="evenodd" d="M272.192 227.929C267.301 221.389 255.084 226.654 250.301 220.96C240.571 209.382 268.887 214.833 276.693 222.046C276.693 222.046 293.684 215.273 298.282 216.452C302.881 217.631 299.833 223.484 289.55 226.848C283.856 228.716 275.469 240.49 275.469 240.49C275.469 240.49 274.768 231.395 272.185 227.929H272.192Z" fill="#7C7C88"/>
<path fill-rule="evenodd" clip-rule="evenodd" d="M228.729 218.878C232.7 211.213 271.659 209.447 274.189 230.404C277.318 256.313 265.496 268.824 266.715 269.352C266.715 269.352 238.525 276.569 233.23 269.366C228.559 263.013 226.532 252.235 226.3 245.249C226.067 238.446 224.626 226.761 228.718 218.878H228.729Z" fill="#93939B"/>
<path fill-rule="evenodd" clip-rule="evenodd" d="M279.724 225.771C285.294 214.924 325.302 209.604 327.215 232.292C329.098 254.613 322.563 271.312 322.563 271.312C322.563 271.312 287.842 275.415 282.548 268.215C277.877 261.862 276.564 260.101 276.335 252.8C276.102 245.684 275.667 233.681 279.724 225.78V225.771Z" fill="#93939B"/>
<path fill-rule="evenodd" clip-rule="evenodd" d="M289.533 82.1667C289.533 82.1667 290.337 94.5147 291.551 99.4054C293.361 106.699 300.982 105.384 300.982 105.384C284.867 120.566 261.815 118.931 247.395 101.881C247.395 101.881 259.374 103.75 261.876 97.53C263.511 93.4474 265.057 80.2468 265.057 80.2468L289.545 82.155L289.533 82.1667Z" fill="#FFC6B7"/>
<path fill-rule="evenodd" clip-rule="evenodd" d="M259.281 78.1235C262.406 94.0614 285.984 104.466 295.646 80.2582L259.281 78.1235Z" fill="#EBAC9B"/>
<path fill-rule="evenodd" clip-rule="evenodd" d="M258.421 100.76C264.34 112.583 286.186 115.36 292.105 100.253C293.87 102.467 295.223 103.99 297.273 104.224C297.649 121.761 288.062 132.215 275.697 140.694L244.065 100.214L258.426 100.76H258.421Z" fill="#C6D2C6"/>
<path fill-rule="evenodd" clip-rule="evenodd" d="M256.14 101.557C258.475 115.736 264.501 126.419 275.144 132.736C287.504 126.837 291.699 114.986 295.896 103.794C304.059 101.113 312.857 102.446 318.476 108.404L321.657 166.45L226.56 165.495C226.56 165.495 222.26 121.953 228.947 107.293C234.51 95.0941 256.14 101.557 256.14 101.557Z" fill="#93939B"/>
<path fill-rule="evenodd" clip-rule="evenodd" d="M221.821 105.298C221.821 105.298 237.469 105.863 244.06 108.636C256.485 113.87 253.979 133.925 253.293 145.07C252.984 150.092 267.54 152.416 275.48 155.13C283.996 158.042 282.529 158.607 279.729 163.047C278.386 165.177 278.218 166.859 276.693 167.293L208.929 173.132L221.814 105.303L221.821 105.298Z" fill="#7C7C88"/>
<path fill-rule="evenodd" clip-rule="evenodd" d="M297.283 105.298C308.655 122.348 315.327 146.019 312.282 170.285C291.787 160.863 293.023 132.108 297.283 105.298Z" fill="#7C7C88"/>
<path fill-rule="evenodd" clip-rule="evenodd" d="M254.36 99.8469C254.594 110.999 257.693 122.801 275.476 135.114C292.525 125.227 298.112 113.466 299.102 98.0159L254.36 99.8353V99.8469Z" fill="#F1F1F1"/>
<path fill-rule="evenodd" clip-rule="evenodd" d="M297.421 80.9453C299.081 75.9799 296.795 70.9515 302.248 73.1469C306.686 74.9336 309.096 75.5642 309.176 83.2552C309.236 89.2996 303.57 93.6718 298.117 91.4296C291.344 88.6457 295.683 86.149 297.416 80.9453H297.421Z" fill="#F1B5B5"/>
<path fill-rule="evenodd" clip-rule="evenodd" d="M299.712 71.6355C305.149 76.9372 309.521 82.7341 303.869 93.1507C315.605 82.8111 312.571 76.038 299.712 71.6355Z" fill="#DD9595"/>
<path fill-rule="evenodd" clip-rule="evenodd" d="M311.765 107.293C311.765 107.293 308.573 102.741 309.362 98.8847C309.57 97.8734 312.323 94.4028 313.615 92.3802C315.589 89.2809 314.974 84.124 313.365 79.1376C311.891 74.5692 309.418 73.7518 304.516 73.2777C300.34 72.8736 299.861 74.9663 304.843 76.377C309.14 77.5938 309.362 80.1933 308.72 83.4607C307.97 87.256 306.891 89.5962 303.082 91.9271C299.462 94.1459 298.644 97.8618 299.111 102.108C299.438 105.144 300.98 109.374 300.98 109.374L311.763 107.286L311.765 107.293Z" fill="#FFC6B6"/>
<path fill-rule="evenodd" clip-rule="evenodd" d="M378.378 169.014C377.648 168.138 376.734 167.433 375.702 166.949C374.67 166.465 373.544 166.213 372.403 166.212H111.638C110.764 166.214 109.899 166.391 109.094 166.732C108.288 167.073 107.559 167.571 106.949 168.197C101.212 174.036 84.1582 191.433 75.3998 200.36C74.9576 200.811 74.658 201.382 74.5384 202.003C74.4188 202.623 74.4845 203.265 74.7274 203.848C74.9703 204.431 75.3796 204.93 75.9041 205.282C76.4287 205.634 77.0453 205.824 77.677 205.827L401.168 207.64C402.011 207.641 402.836 207.401 403.548 206.95C404.26 206.499 404.828 205.855 405.187 205.092C405.546 204.33 405.681 203.481 405.575 202.645C405.469 201.809 405.127 201.02 404.59 200.372L378.378 169.014Z" fill="#DFE2DB"/>
<path fill-rule="evenodd" clip-rule="evenodd" d="M307.662 106.178C307.662 106.178 315.932 103.35 320.384 110.347C324.835 117.345 334.696 140.969 331.515 158.145C329.647 168.274 323.483 172.968 316.168 169.47C314.234 168.536 312.84 167.102 311.808 165.266C308.926 160.16 308.832 152.056 307.662 143.865C306.071 132.734 307.662 106.176 307.662 106.176V106.178Z" fill="#93939B"/>
<path fill-rule="evenodd" clip-rule="evenodd" d="M311.209 106.291C326.015 118.795 338.769 152.897 329.938 169.799L311.209 106.291Z" fill="#7C7C88"/>
<path fill-rule="evenodd" clip-rule="evenodd" d="M234.209 102.773C240.188 102.089 248.316 103.299 250.894 120.491C253.905 140.56 238.247 166.055 234.646 170.584C229.507 177.051 219.675 186.769 216.064 168.993C211.93 148.639 223.482 104.004 234.209 102.773Z" fill="#93939B"/>
<path fill-rule="evenodd" clip-rule="evenodd" d="M153.093 140.047C168.715 140.047 181.397 142.272 181.397 145.014C181.397 147.756 168.715 149.98 153.093 149.98C137.47 149.98 124.786 147.754 124.786 145.014C124.786 142.275 137.468 140.047 153.093 140.047Z" fill="#717171"/>
<path fill-rule="evenodd" clip-rule="evenodd" d="M86.3771 15.3932C77.9014 20.9261 90.7189 67.0371 97.457 75.3119C102.866 81.9543 116.966 79.7215 116.966 79.7215C112.458 82.5989 106 86.1349 101.584 87.3214C101.584 87.3214 112.825 114.942 133.14 122.091C145.672 126.503 155.358 124.106 161.811 119.099C173.444 110.067 176.672 96.5398 174.657 84.3459C171.62 66.0164 153.317 49.6045 153.317 49.6045C152.044 52.1899 149.288 54.689 144.633 57.0969C144.633 57.0969 151.497 45.5172 148.311 42.1167C137.568 30.6491 94.8529 9.86027 86.3771 15.3932Z" fill="#AAB7AE"/>
<path fill-rule="evenodd" clip-rule="evenodd" d="M125.96 60.7214C138.883 80.6204 151.304 102.061 157.855 144.028L152.88 143.76C151.371 108.593 138.372 83.68 125.96 60.7214Z" fill="#C6D2C6"/>
<path fill-rule="evenodd" clip-rule="evenodd" d="M135.758 128.836C129.501 137.414 121.871 142.254 105.863 139.829C89.9625 137.424 77.8759 125.797 77.8759 125.797C82.3579 122.448 84.7378 118.401 86.6717 114.206C86.6717 114.206 73.2772 123.081 68.9705 117.516C48.9431 91.6539 25.2371 85.5464 30.4851 77.9488C35.7331 70.3513 55.4756 53.1919 101.091 69.6973C157.965 90.2853 145.775 115.098 135.758 128.836Z" fill="#C6D2C6"/>
<path fill-rule="evenodd" clip-rule="evenodd" d="M156.43 145.939C114.346 96.2362 81.2438 89.7737 47.9761 79.7495C81.4072 89.8088 115.453 104.289 147.95 146.042C151.792 145.234 153.191 145.687 156.43 145.939Z" fill="#AAB7AE"/>
<path fill-rule="evenodd" clip-rule="evenodd" d="M162.395 132.024C168.682 134.845 174.026 135.576 181.796 134.033C202.23 129.969 203.363 118.879 205.332 109.537L193.888 110.049C193.888 110.049 200.894 107.302 206.609 97.7286C212.324 88.1552 213.924 53.1709 212.334 44.583C210.743 35.9952 201.642 36.1563 176.077 55.079C169.406 60.0164 162.565 67.9246 160.491 73.2683C156.14 84.479 162.4 91.7192 162.4 91.7192C157.934 90.2011 155.841 85.7145 154.767 79.9527C154.767 79.9527 144.187 90.033 144.271 95.2179C144.589 114.71 150.262 126.573 162.4 132.017L162.395 132.024Z" fill="#C6D2C6"/>
<path fill-rule="evenodd" clip-rule="evenodd" d="M154.38 144.447C162.166 120.788 175.792 98.2494 191.029 76.9678C176.696 102.388 164.74 126.339 161.244 145.075C157.605 143.781 155.639 143.83 154.38 144.456V144.447Z" fill="#AAB7AE"/>
<path fill-rule="evenodd" clip-rule="evenodd" d="M181.397 145.075C175.07 150.327 129.169 148.73 124.786 145.075L138.939 181.937C147.55 185.639 156.935 185.868 167.244 181.937L181.397 145.075Z" fill="#F1B5B5"/>
<path fill-rule="evenodd" clip-rule="evenodd" d="M275.475 160.256C275.475 160.256 278.864 161.779 283.269 160.607C289.575 158.93 295.947 157.65 298.917 158.348C304.324 159.621 306.405 163.596 308.306 169.003C310.208 174.41 306.415 176.734 300.984 171.546C296.257 167.032 292.037 173.63 283.662 171.546C278.878 170.358 274.191 174.41 274.191 174.41L275.478 160.256H275.475Z" fill="#FFC6B6"/>
<path fill-rule="evenodd" clip-rule="evenodd" d="M289.557 167.999C297.752 166.35 301.998 167.16 304.944 175.006C302.099 166.364 298.514 165.184 289.557 167.999Z" fill="#E8A896"/>
<path fill-rule="evenodd" clip-rule="evenodd" d="M291.916 164.204C300.265 163.412 304.378 164.785 306.291 173.546C304.577 163.944 301.172 162.258 291.916 164.204Z" fill="#E8A896"/>
<path fill-rule="evenodd" clip-rule="evenodd" d="M293.796 161.618C302.145 160.826 306.258 162.202 308.171 170.96C306.457 161.358 303.051 159.672 293.796 161.618Z" fill="#E8A896"/>
<path fill-rule="evenodd" clip-rule="evenodd" d="M290.075 172.333V183.201L309.68 205.353L355.053 202.784V198.34L310.766 201.042C305.98 189.245 299.072 172.329 290.075 172.333Z" fill="#D39E9E"/>
<path fill-rule="evenodd" clip-rule="evenodd" d="M310.575 199.816L309.757 206.344L356.015 205.354L356.323 196.953L310.575 199.816Z" fill="#FACECE"/>
<path fill-rule="evenodd" clip-rule="evenodd" d="M95.4348 209.487H82.3931V244.205H95.4348V209.487Z" fill="#AAB7AE"/>
<path fill-rule="evenodd" clip-rule="evenodd" d="M399.578 209.487H386.539V251.31H399.578V209.487Z" fill="#AAB7AE"/>
<path fill-rule="evenodd" clip-rule="evenodd" d="M77.1005 200.582C77.1005 200.582 74.0783 212.591 79.6416 212.509C88.5167 212.376 391.382 214.707 399.734 214.098C406.04 213.63 403.885 200.105 403.885 200.105C403.885 200.105 404.548 206.152 400.092 206.344C396.434 206.5 86.8398 205.594 82.3905 205.353C76.7455 205.047 77.0982 200.582 77.0982 200.582H77.1005Z" fill="#C6D2C6"/>
<path fill-rule="evenodd" clip-rule="evenodd" d="M297.283 105.298C302.321 107.605 308.858 106.412 310.29 103.429C310.29 103.429 349.193 165.518 320.597 170.619C295.342 175.124 297.283 105.298 297.283 105.298Z" fill="#93939B"/>
<path fill-rule="evenodd" clip-rule="evenodd" d="M332.136 136.2C332.136 136.2 326.12 130.594 327.39 134.411C328.661 138.227 330.571 147.649 330.254 153.532C329.936 159.415 329.936 159.894 328.345 155.601C326.755 151.308 323.934 148.954 326.755 156.713C330.571 167.209 323.733 174.683 327.549 169.435C331.365 164.187 333.593 157.827 334.229 154.169C334.864 150.512 332.127 136.2 332.127 136.2H332.136Z" fill="#7C7C88"/>
<path fill-rule="evenodd" clip-rule="evenodd" d="M290.075 172.333C290.075 172.333 303.93 171.357 316.17 171.166C323.294 171.054 329.868 170.43 332.849 172.193C345.082 179.434 355.053 198.819 355.053 198.819L310.21 201.364C306.342 193.16 297.082 172.464 290.075 172.333Z" fill="#F1B5B5"/>
<path fill-rule="evenodd" clip-rule="evenodd" d="M297.25 173.938L309.175 173.552C314.694 177.037 321.059 187.776 323.502 197.8L311.707 198.429C308.977 188.063 303.584 179.106 297.25 173.938Z" fill="#FA9E9E"/>
<path fill-rule="evenodd" clip-rule="evenodd" d="M316.701 179.12L336.598 178.072C341.661 183.025 345.111 188.969 347.575 195.619L325.854 196.952C323.086 188.743 320.3 183.693 316.689 179.12H316.701Z" fill="#FFC2C2"/>
<path fill-rule="evenodd" clip-rule="evenodd" d="M324.333 180.711L320.433 180.951L322.673 184.214L326.571 183.976L324.333 180.711Z" fill="#FFD2D2"/>
<path fill-rule="evenodd" clip-rule="evenodd" d="M327.402 185.707L323.502 185.947L325.739 189.212L329.64 188.972L327.402 185.707Z" fill="#FFD2D2"/>
<path fill-rule="evenodd" clip-rule="evenodd" d="M330.469 190.705L326.571 190.943L328.808 194.208L332.707 193.967L330.469 190.705Z" fill="#FFD2D2"/>
<path fill-rule="evenodd" clip-rule="evenodd" d="M329.899 180.711L326.001 180.951L328.238 184.214L332.136 183.976L329.899 180.711Z" fill="#FFD2D2"/>
<path fill-rule="evenodd" clip-rule="evenodd" d="M332.968 185.707L329.067 185.947L331.307 189.212L335.205 188.972L332.968 185.707Z" fill="#FFD2D2"/>
<path fill-rule="evenodd" clip-rule="evenodd" d="M336.035 190.705L332.136 190.943L334.374 194.208L338.274 193.967L336.035 190.705Z" fill="#FFD2D2"/>
<path fill-rule="evenodd" clip-rule="evenodd" d="M335.464 180.711L331.566 180.951L333.804 184.214L337.702 183.976L335.464 180.711Z" fill="#FFD2D2"/>
<path fill-rule="evenodd" clip-rule="evenodd" d="M338.533 185.707L334.633 185.947L336.873 189.212L340.771 188.972L338.533 185.707Z" fill="#FFD2D2"/>
<path fill-rule="evenodd" clip-rule="evenodd" d="M341.6 190.705L337.702 190.943L339.94 194.208L343.84 193.967L341.6 190.705Z" fill="#FFD2D2"/>
<path fill-rule="evenodd" clip-rule="evenodd" d="M216.517 168.993C219.953 138.923 282.548 158.974 282.548 158.974C278.096 163.161 278.708 168.316 281.91 172.333C281.91 172.333 213.549 194.965 216.515 168.993H216.517Z" fill="#93939B"/>
<path fill-rule="evenodd" clip-rule="evenodd" d="M272.192 168.038C273.684 168.038 274.899 169.18 274.899 170.584C274.899 171.988 273.684 173.127 272.192 173.127C270.7 173.127 269.485 171.988 269.485 170.584C269.485 169.18 270.697 168.038 272.192 168.038Z" fill="#E0E0E0"/>
<path fill-rule="evenodd" clip-rule="evenodd" d="M301.809 110.707C303.304 110.707 304.516 111.849 304.516 113.253C304.516 114.656 303.304 115.796 301.809 115.796C300.314 115.796 299.102 114.656 299.102 113.253C299.102 111.849 300.317 110.707 301.809 110.707Z" fill="#E0E0E0"/>
<path fill-rule="evenodd" clip-rule="evenodd" d="M277.288 42.4106C289.667 42.4106 299.709 52.1779 299.709 64.9908C299.709 77.8037 289.667 92.0249 277.288 92.0249C264.91 92.0249 256.14 76.2155 256.14 63.4026C256.14 50.5898 264.914 42.4106 277.288 42.4106Z" fill="#FFC6B6"/>
<path fill-rule="evenodd" clip-rule="evenodd" d="M274.193 78.8853C275.993 78.2767 277.948 78.3055 279.729 78.9671C277.884 81.8468 276.038 81.73 274.193 78.8853Z" fill="#D56C4E"/>
<path d="M277.93 67.754C274.922 67.4831 274.427 71.958 277.93 72.299" stroke="#DC9581" stroke-width="4.02" stroke-linecap="round" stroke-linejoin="round"/>
<path fill-rule="evenodd" clip-rule="evenodd" d="M276.335 26.0315C276.335 26.0315 264.725 17.9201 254.549 25.5644C248.337 30.2215 257.73 36.058 249.142 40.512C243.348 43.5155 240.403 58.6452 246.765 66.2778C253.127 73.9104 259.281 76.4725 259.281 76.4725C259.281 76.4725 252.804 63.0781 258.683 56.0948C262.887 51.1037 272.755 48.1539 272.437 42.4201C272.119 36.6863 276.335 26.0408 276.335 26.0408V26.0315Z" fill="#535353"/>
<path fill-rule="evenodd" clip-rule="evenodd" d="M270.779 27.83C270.779 27.83 268.21 23.4251 260.197 26.7533C256.259 28.3882 257.966 34.185 256.14 37.9756C254.888 40.5774 254.038 40.428 249.698 43.6674C249.482 43.875 249.294 44.1106 249.14 44.368C247.115 47.0002 247.958 52.7387 247.958 52.7387C247.958 52.7387 247.405 46.769 250.878 43.978C254.073 41.4089 256.091 42.0091 257.77 38.6062C259.405 35.2897 257.146 30.8989 261.955 27.83C268.137 23.8829 270.779 27.83 270.779 27.83Z" fill="#9D9D9D"/>
<path fill-rule="evenodd" clip-rule="evenodd" d="M267.24 38.2764C267.24 38.2764 269.595 44.1153 265.627 46.9576C259.008 51.6801 253.659 48.3356 252.452 57.0402C253.706 53.5743 254.804 52.7148 256.139 52.2196C263.062 49.6505 271.194 48.2492 267.24 38.2764Z" fill="#9D9D9D"/>
<path fill-rule="evenodd" clip-rule="evenodd" d="M282.548 20.3375C277.944 20.4355 273.539 24.4317 271.405 31.2795C269.331 37.9382 268.544 48.1353 277.926 50.0434C287.308 51.9516 299.294 57.1458 299.569 65.6286C299.667 68.6648 297.096 75.8303 297.096 75.8303C298.166 74.6797 299.5 73.8061 300.982 73.2845C302.264 72.8385 302.05 73.2495 304.749 72.8548C312.363 71.7407 317.684 57.1108 313.017 49.3708C308.953 42.628 311.829 42.2286 312.064 38.8771C312.518 32.4216 307.767 26.5173 298.285 25.5084C291.869 24.8241 294.459 20.0805 282.543 20.3375H282.548Z" fill="#535353"/>
<path fill-rule="evenodd" clip-rule="evenodd" d="M276.335 43.665C279.537 53.3086 303.979 44.1322 305.597 64.8135C304.707 45.6339 284.281 49.0041 276.335 43.665Z" fill="#9D9D9D"/>
<path fill-rule="evenodd" clip-rule="evenodd" d="M277.93 36.5084C290.028 47.3127 312.331 47.8942 308.309 34.4578C314.33 48.1488 287.469 51.7619 277.93 36.5084Z" fill="#9D9D9D"/>
<path fill-rule="evenodd" clip-rule="evenodd" d="M280.637 31.2606C282.234 23.2496 291.023 24.693 294.155 31.2606C291.717 22.619 278.624 21.6194 280.637 31.2606Z" fill="#9D9D9D"/>
<path fill-rule="evenodd" clip-rule="evenodd" d="M276.335 24.3966C270.781 32.6084 269.508 40.3928 272.437 47.7522C264.87 40.6007 267.68 24.0159 276.335 24.3966Z" fill="#484848"/>
<path fill-rule="evenodd" clip-rule="evenodd" d="M283.659 32.3723C290.129 29.2964 296.645 34.3552 298.289 40.451C298.362 33.1314 288.041 26.4377 283.659 32.3723Z" fill="#9D9D9D"/>
<path fill-rule="evenodd" clip-rule="evenodd" d="M283.64 63.1248C286.294 61.6347 288.407 62.0924 290.073 64.1851C287.931 67.3731 284.825 66.5207 283.64 63.1248Z" fill="white"/>
<path fill-rule="evenodd" clip-rule="evenodd" d="M286.598 62.0694C287.021 62.0451 287.442 62.1484 287.806 62.366C288.17 62.5836 288.46 62.9055 288.639 63.2899C288.818 63.6744 288.878 64.1037 288.81 64.5224C288.742 64.941 288.551 65.3297 288.26 65.6382C287.969 65.9466 287.592 66.1606 287.178 66.2524C286.763 66.3442 286.331 66.3096 285.937 66.1531C285.543 65.9966 285.205 65.7254 284.967 65.3746C284.728 65.0238 284.601 64.6095 284.601 64.1854C284.586 63.6402 284.787 63.1113 285.162 62.7146C285.536 62.3179 286.052 62.0859 286.598 62.0694Z" fill="#2E2E2E"/>
<path fill-rule="evenodd" clip-rule="evenodd" d="M283.269 63.1252C285.45 60.3716 288.725 61.6584 290.072 64.1855C288.599 63.0434 285.053 62.5086 283.269 63.1252Z" fill="black"/>
<path fill-rule="evenodd" clip-rule="evenodd" d="M271.11 63.3305C268.576 61.6303 266.439 61.9292 264.617 63.8724C266.516 67.2239 269.674 66.626 271.11 63.3305Z" fill="white"/>
<path fill-rule="evenodd" clip-rule="evenodd" d="M268.24 62.0436C267.971 62.0301 267.701 62.0699 267.447 62.1606C267.194 62.2514 266.96 62.3914 266.761 62.5726C266.561 62.7538 266.399 62.9726 266.284 63.2164C266.169 63.4603 266.104 63.7245 266.091 63.9938C266.037 64.5373 266.199 65.0803 266.542 65.5052C266.885 65.9302 267.382 66.2028 267.925 66.2639C268.194 66.2775 268.463 66.2377 268.717 66.1469C268.971 66.0561 269.204 65.9161 269.404 65.735C269.603 65.5538 269.765 65.335 269.88 65.0911C269.995 64.8472 270.061 64.583 270.073 64.3138C270.128 63.7703 269.966 63.2272 269.623 62.8023C269.279 62.3774 268.783 62.1048 268.24 62.0436Z" fill="#2E2E2E"/>
<path fill-rule="evenodd" clip-rule="evenodd" d="M271.479 63.3639C269.508 60.4445 266.15 61.4674 264.617 63.8777C266.173 62.8571 269.756 62.6072 271.479 63.3639Z" fill="black"/>
<path d="M302.773 86.3613C305.672 92.6089 312.192 86.763 318.94 89.9744C324.391 92.5692 325.106 99.9309 320.951 98.0274C317.882 96.6261 323.022 92.6183 328.364 96.7546C334.847 101.776 327.409 110.42 324.298 105.613C320.509 99.7744 330.837 101.9 333.04 106.291C335.242 110.681 333.04 119.101 329.938 115.796C324.8 110.338 337.106 111.747 338.869 115.161C342.123 121.455 336.884 129.013 334.324 125.033C330.587 119.209 341.331 120.087 343.751 126.304C345.696 131.279 341.109 138.888 339.292 135.125C335.555 127.383 347.971 129.987 348.634 139.213C348.98 144.026 341.083 148.66 340.77 145.066C339.997 136.19 348.828 146.427 347.579 150.991C345.596 158.231 338.271 160.359 338.988 155.618C339.841 149.998 346.366 157.442 343.839 162.209C342.188 165.32 333.061 168.463 335.198 163.339C337.426 158.014 345.474 170.381 336.615 173.963" stroke="#93939B" stroke-width="6.7" stroke-linecap="round" stroke-linejoin="round"/>
</svg>
