<svg width="234" height="234" viewBox="0 0 234 234" fill="none" xmlns="http://www.w3.org/2000/svg">
<path fill-rule="evenodd" clip-rule="evenodd" d="M18.8776 102.7C8.34488 92.7077 4.16426 68.9265 17.6265 59.9684C40.171 44.9662 54.346 24.8856 74.8012 19.865C95.2565 14.8443 108.408 19.7476 120.531 16.9366C167.451 6.05919 170.489 36.8709 184.038 41.0534C197.586 45.236 210.175 43.224 219.619 60.0261C236.313 89.7299 218.366 100.918 217.115 116.229C215.864 131.541 222.974 131.31 225.462 144.407C230.887 172.983 203.034 191.807 174.6 186.786C161.569 184.486 119.056 184.746 70.4439 188.879C46.2025 190.938 23.8101 184.029 14.7401 151.096C8.86873 129.763 27.0457 110.437 18.8878 102.702L18.8776 102.7Z" fill="#E4ECFF"/>
<path d="M115.725 114.408C114.798 97.9841 114.798 81.5603 115.725 65.1368C116.201 56.7146 122.83 49.9469 131.243 49.3289C142.641 48.4919 154.038 48.4919 165.436 49.3289C173.849 49.9469 180.478 56.7146 180.954 65.1368C181.881 81.5603 181.881 97.9841 180.954 114.408C180.478 122.83 173.849 129.598 165.436 130.215C154.038 131.052 142.641 131.052 131.243 130.215C122.83 129.598 116.201 122.83 115.725 114.408Z" fill="#FFD064"/>
<path d="M133.135 130.347C132.505 130.306 131.874 130.262 131.243 130.216C122.829 129.599 116.199 122.83 115.724 114.407C114.796 97.985 114.796 81.5626 115.724 65.1375C116.199 56.7148 122.829 49.9486 131.243 49.3291C131.874 49.2828 132.507 49.2391 133.138 49.198C127.772 52.0037 124.049 57.4844 123.689 63.8682C122.714 81.1395 122.714 98.4079 123.689 115.677C124.049 122.061 127.772 127.541 133.135 130.347Z" fill="#FFC250"/>
<path d="M169.781 105.969C170.391 95.1711 170.391 84.3734 169.781 73.5755C169.469 68.0384 165.11 63.5888 159.579 63.1825C152.086 62.6322 144.592 62.6322 137.099 63.1825C131.568 63.5888 127.209 68.0382 126.897 73.5755C126.287 84.3732 126.287 95.1709 126.897 105.969C127.209 111.506 131.568 115.956 137.099 116.362C144.592 116.912 152.086 116.912 159.579 116.362C165.11 115.956 169.469 111.506 169.781 105.969Z" fill="#F7F063"/>
<path d="M126.897 105.968C127.211 111.506 131.57 115.955 137.099 116.361C137.623 116.399 138.144 116.435 138.669 116.467C135.991 114.377 134.22 111.183 134.015 107.573C133.346 95.7054 133.346 83.8382 134.015 71.971C134.22 68.3573 135.991 65.1667 138.669 63.0762C138.145 63.1088 137.623 63.1444 137.099 63.1825C131.569 63.5893 127.211 68.0379 126.897 73.5758C126.288 84.3732 126.288 95.1707 126.897 105.968Z" fill="#FFD064"/>
<path d="M187.551 105.569V163.497C184.289 166.327 181.028 167.935 177.766 168.677C163.781 171.854 149.793 159.053 135.808 157.896C130.352 157.44 124.893 158.761 119.438 163.497V105.569C124.893 100.836 130.352 99.5155 135.808 99.9687C149.793 101.126 163.781 113.926 177.766 110.75C181.028 110.007 184.289 108.4 187.551 105.569Z" fill="#EDEDED"/>
<path d="M177.766 110.75V168.677C163.781 171.854 149.793 159.053 135.808 157.896V99.9688C149.793 101.126 163.781 113.926 177.766 110.75Z" fill="#DBDBDB"/>
<path d="M162.369 105.568V164.274C162.369 170.211 145.009 175.025 123.594 175.025C117.795 175.025 112.294 174.672 107.354 174.041C94.0502 172.336 88.8433 152.245 88.8433 147.915L84.8188 105.568H162.369Z" fill="white"/>
<path d="M107.354 105.568V174.041C94.0502 172.335 84.8188 168.604 84.8188 164.274V105.568H107.354Z" fill="#DBDBDB"/>
<path d="M123.594 116.319C145.009 116.319 162.369 111.506 162.369 105.568C162.369 99.6309 145.009 94.8176 123.594 94.8176C102.179 94.8176 84.8188 99.6309 84.8188 105.568C84.8188 111.506 102.179 116.319 123.594 116.319Z" fill="#F3F3F3"/>
<path d="M123.594 108.955C130.34 108.955 135.809 107.439 135.809 105.568C135.809 103.698 130.34 102.181 123.594 102.181C116.848 102.181 111.379 103.698 111.379 105.568C111.379 107.439 116.848 108.955 123.594 108.955Z" fill="#365E7D"/>
<path d="M66.1296 45.4043H84.4083C84.4083 48.3753 79.2301 48.3753 79.2301 51.3466C79.2301 54.3179 84.4083 54.3179 84.4083 57.2889C84.4083 60.2599 79.2301 60.2599 79.2301 63.2311C79.2301 66.2024 84.4083 66.2024 84.4083 69.1737C84.4083 72.1455 79.2301 72.1455 79.2301 75.117C79.2301 78.0886 84.4083 78.0888 84.4083 81.0604H66.1296L59.6455 62.7698" fill="white"/>
<path d="M84.4087 81.061H66.1298L59.647 62.7712L61.1578 58.7271L66.1295 72.7583H80.8063C79.9248 73.3388 79.2305 74.0276 79.2305 75.1182C79.2308 78.091 84.4087 78.091 84.4087 81.061Z" fill="#DDDDDD"/>
<path d="M70.5838 174.367C67.72 174.367 65.398 172.046 65.398 169.181V96.6563L57.2777 88.5358C56.3051 87.5635 55.7588 86.2444 55.7588 84.8689V45.4046C55.7588 42.5405 58.0805 40.2188 60.9444 40.2188C63.8082 40.2188 66.1302 42.5405 66.1302 45.4046V82.721L74.2505 90.8415C75.2231 91.8141 75.7694 93.1329 75.7694 94.5084V169.182C75.7697 172.046 73.4477 174.367 70.5838 174.367Z" fill="#DB5C6E"/>
<path d="M74.1539 172.938C73.226 173.825 71.9678 174.369 70.5839 174.369C67.7182 174.369 65.3981 172.046 65.3981 169.183V96.6561L57.2754 88.5363C56.3039 87.5648 55.7578 86.2465 55.7578 84.8708V45.4046C55.7583 42.5415 58.0809 40.2188 60.9439 40.2188C61.0258 40.2188 61.105 40.2214 61.1867 40.2243C60.1933 41.1658 59.5737 42.5005 59.5737 43.9799V83.4461C59.5737 84.8218 60.1195 86.1398 61.0914 87.1117L69.2111 95.2314V167.758C69.2113 170.539 71.403 172.813 74.1539 172.938Z" fill="#D64553"/>
<path d="M115.432 64.0707C119.35 64.0707 122.526 60.8945 122.526 56.9765C122.526 53.0585 119.35 49.8823 115.432 49.8823C111.514 49.8823 108.337 53.0585 108.337 56.9765C108.337 60.8945 111.514 64.0707 115.432 64.0707Z" fill="#F3F3F3"/>
<path d="M115.894 64.058C115.245 64.1028 114.579 64.0549 113.913 63.9087C110.087 63.0704 107.664 59.2869 108.502 55.4586C109.341 51.6326 113.124 49.2095 116.95 50.0479C117.616 50.194 118.241 50.4286 118.812 50.7411C115.735 50.9357 113.034 53.1405 112.341 56.3001C111.649 59.4617 113.181 62.5941 115.894 64.058Z" fill="#DBDBDB"/>
<path d="M124.731 69.1185C128.649 69.1185 131.825 65.9424 131.825 62.0244C131.825 58.1063 128.649 54.9302 124.731 54.9302C120.813 54.9302 117.637 58.1063 117.637 62.0244C117.637 65.9424 120.813 69.1185 124.731 69.1185Z" fill="#F3F3F3"/>
<path d="M125.193 69.1056C124.544 69.1504 123.878 69.1025 123.211 68.9563C119.385 68.118 116.962 64.3345 117.801 60.5062C118.64 56.6802 122.423 54.2572 126.249 55.0955C126.915 55.2416 127.54 55.4762 128.111 55.7887C125.034 55.9833 122.333 58.1881 121.64 61.3477C120.948 64.5093 122.48 67.642 125.193 69.1056Z" fill="#DBDBDB"/>
<path d="M116.283 74.5299C120.201 74.5299 123.377 71.3538 123.377 67.4357C123.377 63.5177 120.201 60.3416 116.283 60.3416C112.365 60.3416 109.189 63.5177 109.189 67.4357C109.189 71.3538 112.365 74.5299 116.283 74.5299Z" fill="#EDEDED"/>
<path d="M116.745 74.5168C116.095 74.5615 115.43 74.5136 114.763 74.3675C110.937 73.5291 108.514 69.7456 109.353 65.9173C110.191 62.0914 113.975 59.6683 117.801 60.5066C118.467 60.6527 119.092 60.8873 119.663 61.1999C116.586 61.3944 113.884 63.5993 113.192 66.7588C112.499 69.9204 114.031 73.0531 116.745 74.5168Z" fill="#DBDBDB"/>
</svg>
