<svg width="388" height="497" viewBox="0 0 388 497" fill="none" xmlns="http://www.w3.org/2000/svg">
<g clip-path="url(#clip0)">
<path fill-rule="evenodd" clip-rule="evenodd" d="M161.333 485.237C220.544 502.694 430.284 520.7 380.398 380.456C370.484 352.582 333.646 318.245 340.157 289.381C349.815 246.662 372.125 227.929 377.172 196.141C383.608 155.584 373.034 105.126 366.596 84.0095C358.538 57.5445 319.587 18.6787 280.48 14.3716C230.74 8.88689 197.572 44.9247 181.007 28.0008C144.945 -8.83999 73.9725 -3.27276 50.5917 10.5025C5.44919 37.1007 -14.668 91.4113 11.8845 152.987C18.3928 168.054 39.2419 202.502 32.0017 224.99C24.7616 247.478 -6.68958 317.195 4.64437 372.397C27.9777 486.027 133.922 477.14 161.333 485.237Z" fill="#F2F2F2"/>
<path fill-rule="evenodd" clip-rule="evenodd" d="M51.6478 198.516C62.4906 206.393 83.0799 198.598 122.123 198.516C162.95 198.449 222.68 205.851 252.642 202.572C295.323 197.903 334.987 198.347 324.569 181.198C311.261 159.275 238.032 162.529 225.279 163.817C212.525 165.106 98.3682 179.754 84.2776 173.387C50.7226 158.234 29.4615 182.379 51.6414 198.5L51.6478 198.516Z" fill="#ECE5DD"/>
<path fill-rule="evenodd" clip-rule="evenodd" d="M266.641 31.1369C262.461 31.1591 256.663 45.3216 252.804 59.1857C250.183 68.584 252.677 77.2236 252.005 86.6949C251.333 96.1662 247.49 106.428 246.365 113.991C244.112 129.144 248.295 148.166 259.239 149.778C270.183 151.391 280.383 153.987 289.816 147.522C295.944 143.332 302.69 125.275 297.211 111.725C291.733 98.1753 287.557 93.0271 289.163 84.0001C290.769 74.9732 283.057 50.1493 278.228 46.2897C273.399 42.4301 276.245 31.083 266.641 31.1369Z" fill="#D1E0A2"/>
<path fill-rule="evenodd" clip-rule="evenodd" d="M272.496 73.9798C270.082 74.0337 266.568 152.864 265.991 175.571L280.475 175.253C268.735 138.457 274.917 73.9258 272.496 73.9798Z" fill="#E4CBB7"/>
<path fill-rule="evenodd" clip-rule="evenodd" d="M61.3053 59.1858C64.7529 53.2731 67.2506 46.854 68.7071 40.1639C70.6367 31.4576 71.9231 14.3496 79.0049 14.3718C89.3249 14.4004 90.2691 28.2328 94.7748 36.9391C99.2805 45.6454 109.258 67.8889 110.868 77.8839C112.478 87.8789 117.306 102.064 113.434 111.408C109.562 120.752 104.639 140.834 81.5714 140.745C67.6963 140.691 60.6399 133.629 57.1101 126.561C51.3307 114.96 49.0746 98.5182 51.6475 89.5071C54.2204 80.4961 55.51 69.1934 61.3053 59.2016V59.1858Z" fill="#D1E0A2"/>
<path fill-rule="evenodd" clip-rule="evenodd" d="M80.2912 45.966C79.854 47.5212 80.0663 80.8325 78.6404 112.055C77.148 144.706 74.0175 175.259 73.5327 173.314L83.5105 172.679C83.5105 172.679 84.6797 147.779 84.122 123.361C83.2824 86.5172 80.5637 45.0106 80.2912 45.9755V45.966Z" fill="#E4CBB7"/>
<path fill-rule="evenodd" clip-rule="evenodd" d="M227.056 97.9025H63.5581V186.886H227.056V97.9025Z" fill="#D1CFDA"/>
<path fill-rule="evenodd" clip-rule="evenodd" d="M144.018 129.497H86.73V166.896H144.018V129.497Z" fill="#F0EDFA"/>
<path fill-rule="evenodd" clip-rule="evenodd" d="M142.04 132.886H88.9824V163.833H142.04V132.886Z" fill="white"/>
<path fill-rule="evenodd" clip-rule="evenodd" d="M117.145 129.497H113.603V166.896H117.145V129.497Z" fill="#F0EDFA"/>
<path fill-rule="evenodd" clip-rule="evenodd" d="M86.73 147.554V151.099H144.018V147.554H86.73Z" fill="#F0EDFA"/>
<path fill-rule="evenodd" clip-rule="evenodd" d="M145.304 19.136L238.963 107.475H51.6475L145.304 19.136Z" fill="#A5B0CC"/>
<path fill-rule="evenodd" clip-rule="evenodd" d="M145.304 32.0322L227.056 107.475H63.5581L145.304 32.0322Z" fill="#D1CFDA"/>
<path fill-rule="evenodd" clip-rule="evenodd" d="M145.307 65.3147C147.883 65.3147 150.402 66.08 152.544 67.5137C154.686 68.9475 156.356 70.9854 157.342 73.3697C158.328 75.754 158.585 78.3776 158.083 80.9087C157.58 83.4398 156.34 85.7648 154.518 87.5897C152.696 89.4145 150.375 90.6573 147.848 91.1607C145.322 91.6642 142.703 91.4058 140.322 90.4182C137.942 89.4306 135.908 87.7582 134.477 85.6124C133.045 83.4666 132.281 80.9438 132.281 78.3631C132.283 74.9029 133.656 71.585 136.098 69.1383C138.541 66.6917 141.853 65.3164 145.307 65.3147Z" fill="#A5B0CC"/>
<path fill-rule="evenodd" clip-rule="evenodd" d="M265.031 107.475H168.799V186.886H265.031V107.475Z" fill="#DDDAE9"/>
<path fill-rule="evenodd" clip-rule="evenodd" d="M216.917 40.4844L273.561 107.475H160.272L216.917 40.4844Z" fill="#A5B0CC"/>
<path fill-rule="evenodd" clip-rule="evenodd" d="M216.917 51.1238L265.031 107.475H168.799L216.917 51.1238Z" fill="#DDDAE9"/>
<path fill-rule="evenodd" clip-rule="evenodd" d="M217.721 80.6199C219.852 80.6199 221.935 81.2528 223.707 82.4386C225.478 83.6244 226.859 85.3098 227.674 87.2817C228.49 89.2537 228.703 91.4235 228.287 93.5169C227.872 95.6102 226.846 97.5331 225.339 99.0424C223.832 100.552 221.913 101.579 219.823 101.996C217.733 102.412 215.567 102.198 213.599 101.382C211.63 100.565 209.948 99.1817 208.764 97.407C207.58 95.6324 206.948 93.5459 206.948 91.4115C206.948 88.5494 208.083 85.8045 210.104 83.7807C212.124 81.7568 214.864 80.6199 217.721 80.6199Z" fill="#A5B0CC"/>
<path fill-rule="evenodd" clip-rule="evenodd" d="M205.972 129.497H179.261V166.896H205.972V129.497Z" fill="#F0EDFA"/>
<path fill-rule="evenodd" clip-rule="evenodd" d="M202.987 132.886H182.553V163.833H202.987V132.886Z" fill="white"/>
<path fill-rule="evenodd" clip-rule="evenodd" d="M194.388 132.886H190.846V163.833H194.388V132.886Z" fill="#F0EDFA"/>
<path fill-rule="evenodd" clip-rule="evenodd" d="M252.642 129.497H225.285V186.724H252.642V129.497Z" fill="#A5B0CC"/>
<path fill-rule="evenodd" clip-rule="evenodd" d="M229.847 155.412C230.114 155.413 230.374 155.493 230.595 155.641C230.816 155.79 230.988 156.001 231.089 156.247C231.191 156.494 231.217 156.765 231.165 157.027C231.112 157.288 230.984 157.528 230.795 157.716C230.607 157.905 230.367 158.033 230.106 158.085C229.845 158.136 229.574 158.11 229.328 158.007C229.082 157.905 228.872 157.732 228.724 157.51C228.576 157.289 228.498 157.028 228.498 156.761C228.498 156.403 228.641 156.06 228.894 155.807C229.147 155.554 229.49 155.412 229.847 155.412Z" fill="#7288BF"/>
<path fill-rule="evenodd" clip-rule="evenodd" d="M213.209 150.391H172.335V152.972H213.209V150.391Z" fill="#A5B0CC"/>
<path fill-rule="evenodd" clip-rule="evenodd" d="M265.031 107.475H169.258V109.894H265.031V107.475Z" fill="#A5B0CC"/>
<path fill-rule="evenodd" clip-rule="evenodd" d="M168.799 107.475H63.5581V109.894H168.799V107.475Z" fill="#A5B0CC"/>
<path fill-rule="evenodd" clip-rule="evenodd" d="M172.661 107.475H168.799V186.886H172.661V107.475Z" fill="#A5B0CC"/>
<path fill-rule="evenodd" clip-rule="evenodd" d="M216.128 107.475H212.265V186.886H216.128V107.475Z" fill="#A5B0CC"/>
<path fill-rule="evenodd" clip-rule="evenodd" d="M179.958 152.972H176.955V186.886H179.958V152.972Z" fill="#A5B0CC"/>
<path fill-rule="evenodd" clip-rule="evenodd" d="M187.132 152.972H184.128V186.886H187.132V152.972Z" fill="#A5B0CC"/>
<path fill-rule="evenodd" clip-rule="evenodd" d="M194.306 152.972H191.302V186.886H194.306V152.972Z" fill="#A5B0CC"/>
<path fill-rule="evenodd" clip-rule="evenodd" d="M201.479 152.972H198.476V186.886H201.479V152.972Z" fill="#A5B0CC"/>
<path fill-rule="evenodd" clip-rule="evenodd" d="M208.653 152.972H205.649V186.886H208.653V152.972Z" fill="#A5B0CC"/>
<path fill-rule="evenodd" clip-rule="evenodd" d="M160.921 202.588C160.921 202.588 173.573 206.241 180.925 212.907C189.027 220.251 201.092 235.474 201.092 235.474L195.516 267.712C195.516 267.712 181.999 259.117 177.062 254.604C172.125 250.09 173.637 227.091 168.051 219.137C164.621 214.138 162.2 208.517 160.921 202.588Z" fill="#8495C0"/>
<path fill-rule="evenodd" clip-rule="evenodd" d="M161.334 211.288C161.559 239.175 158.764 261.494 199.99 270.823C192.963 260.031 184.626 246.859 179.274 229.357C174.642 214.217 165.631 211.84 161.347 211.288H161.334Z" fill="#6E82B2"/>
<path fill-rule="evenodd" clip-rule="evenodd" d="M227.943 188.787L253.691 188.355C249.958 195.751 249.698 201.597 254.119 207.485C245.291 219.343 229.923 220.159 219.378 207.168C227.439 202.629 229.325 196.636 227.934 188.8L227.943 188.787Z" fill="#F8BEA9"/>
<path fill-rule="evenodd" clip-rule="evenodd" d="M288.77 310.815C290.399 308.276 298.276 309.368 298.855 312.32C302.636 331.681 312.163 422.242 313.84 438.224C313.872 438.536 313.842 438.853 313.75 439.154C313.658 439.455 313.506 439.734 313.304 439.975C313.103 440.216 312.854 440.414 312.574 440.557C312.295 440.7 311.989 440.785 311.675 440.807L310.354 440.902C309.746 440.947 309.144 440.751 308.678 440.357C308.211 439.964 307.917 439.403 307.857 438.795C306.495 425.245 299.302 354.553 293.859 323.696C292.401 315.414 290.256 323.619 287.173 322.486C283.022 320.963 286.663 314.094 288.757 310.815H288.77Z" fill="#4F5871"/>
<path fill-rule="evenodd" clip-rule="evenodd" d="M274.08 259.295L289.315 251.772C289.315 251.772 289.632 257.978 290.772 260.809C296.815 275.889 296.815 292.72 298.111 298.627C299.061 302.941 304.083 307.083 304.977 311.739C305.87 316.395 304.369 325.171 303.26 327C302.151 328.828 300.991 324.46 300.04 322.486C299.039 320.41 299.473 316.773 299.236 314.748C298.836 311.361 294.483 309.987 292.746 310.384C291.01 310.78 290.028 316.684 288.884 317.113C287.74 317.541 286.739 315.335 286.739 314.104C286.739 312.025 288.839 304.242 287.372 301.36C282.547 291.794 275.63 271.289 274.064 259.295H274.08Z" fill="#F8BEA9"/>
<path fill-rule="evenodd" clip-rule="evenodd" d="M268.171 212.024C282.782 214.722 290.576 234.191 291.882 254.797C283.536 257.095 276.616 261.317 273.447 265.348C274.049 251.953 272.161 233.465 268.187 212.043L268.171 212.024Z" fill="#A5B0CC"/>
<path fill-rule="evenodd" clip-rule="evenodd" d="M267.284 214.843C270.453 217.03 271.841 216.973 273.561 221.486C278.428 234.258 278.754 258.022 273.561 274.378C272.24 250.373 270.326 235.972 267.284 214.843Z" fill="#8391B5"/>
<path fill-rule="evenodd" clip-rule="evenodd" d="M259.483 423.01L275.146 420.862C273.688 424.007 274.99 428.593 276.02 432.206C272.313 440.255 266.632 439.188 259.483 436.332C260.117 429.711 260.006 425.613 259.483 423.001V423.01Z" fill="#F8BEA9"/>
<path fill-rule="evenodd" clip-rule="evenodd" d="M214.939 425.404L231.577 424.328C231.919 428.581 231.032 431.628 232.661 434.323C226.85 441.578 222.182 445.524 217.721 436.103C218.466 432.691 217.255 429.971 214.939 425.404Z" fill="#F8BEA9"/>
<path fill-rule="evenodd" clip-rule="evenodd" d="M217.721 433.974C224.898 442.791 233.07 436.684 232.018 432.682C232.018 432.682 234.321 438.138 235.158 441.645C236.108 445.619 240.861 446.552 239.629 454.024C239.283 456.144 230.367 455.433 226.188 455.312C221.536 455.179 220.022 451.631 216.916 447.66C212.465 441.966 217.721 433.97 217.721 433.97V433.974Z" fill="#1B2B56"/>
<path fill-rule="evenodd" clip-rule="evenodd" d="M259.699 428.6C259.699 428.6 260.377 435.011 269.933 434.45C274.176 434.199 275.32 429.155 275.32 429.155C278.615 438.715 291.052 443 291.872 446.869C292.661 450.583 287.902 453.424 284.147 452.9C278.64 452.11 260.58 446.181 256.505 442.131C253.222 438.871 257.006 433.77 259.689 428.613L259.699 428.6Z" fill="#1B2B56"/>
<path fill-rule="evenodd" clip-rule="evenodd" d="M237.813 326.289C237.813 326.289 244.702 350.145 245.776 358.527C246.85 366.91 253.193 404.093 253.409 408.823C253.624 413.552 253.808 427.683 255.237 429.651C257.633 432.952 263.989 426.661 273.216 427.092C279.252 427.372 281.153 427.521 280.082 419.138C279.011 410.756 278.149 388.404 278.364 383.907C278.58 379.409 277.29 358.115 277.731 354.461C278.171 350.808 277.946 320.931 277.097 317.062C276.248 313.193 274.081 300.5 274.081 300.5L232.661 310.387L237.813 326.289Z" fill="#29365C"/>
<path fill-rule="evenodd" clip-rule="evenodd" d="M241.616 338.896C240.595 333.64 248.982 407.325 251.818 410.822C253.155 412.473 254.109 375.556 252.642 360.606C251.692 351.043 257.148 343.247 257.823 341.121C258.396 339.324 247.712 345.564 251.653 340.235C257.579 332.195 261.238 321.404 256.634 325.571C249.981 331.602 242.642 339.112 246.635 332.018C250.627 324.924 246.479 324.083 244.274 329.653C243.507 331.596 241.898 324.841 241.524 326.162C240.377 330.259 241.821 339.946 241.616 338.883V338.896Z" fill="#001448"/>
<path fill-rule="evenodd" clip-rule="evenodd" d="M205.64 307.162L246.406 313.828C246.406 313.828 239.524 353.874 238.206 369.341C236.768 386.239 236.33 419.097 235.149 428.609C234.705 432.187 235.196 433.326 226.349 432.691C218.688 432.142 213.358 436.855 212.126 434.196C208.488 426.308 206.292 408.75 205.64 390.242C205.199 377.809 204.423 362.133 204.055 346.758C203.704 332.335 205.64 307.156 205.64 307.156V307.162Z" fill="#29365B"/>
<path fill-rule="evenodd" clip-rule="evenodd" d="M222.471 205.156C227.357 214.087 247.376 215.173 251.973 204.692C258.048 206.159 264.28 208.774 271.498 213.107C279.679 245.862 271.46 272.375 277.518 310.257C261.831 320.036 239.847 328.701 199.99 316.491C204.084 284.116 200.849 250.281 197.487 218.48C201.089 213.44 213.732 207.327 222.484 205.149L222.471 205.156Z" fill="#A5B0CC"/>
<path fill-rule="evenodd" clip-rule="evenodd" d="M205.972 218.496L201.093 260.19C204.106 262.123 210.104 262.377 212.265 260.145C217.899 254.327 221.635 241.565 223.14 231.627C223.615 228.481 219.42 239.746 220.091 227.929C220.434 221.93 211.929 216.144 205.972 218.496Z" fill="#8391B5"/>
<path fill-rule="evenodd" clip-rule="evenodd" d="M219.378 201.731L255.855 198.934C254.153 219.331 224.372 219.521 219.378 201.731Z" fill="#8391B5"/>
<path fill-rule="evenodd" clip-rule="evenodd" d="M191.302 246.621L211.207 251.995C211.207 251.995 208.862 262.586 205.649 270.829C204.312 274.263 204.239 278.621 206.485 284.693C208.386 289.87 209.312 301.671 210.776 304.372C212.534 307.613 221.111 306.727 222.578 308.089C223.291 308.752 222.61 310.488 221.72 310.882C220.503 311.418 215.281 311.314 215.281 311.314C215.281 311.314 218.358 314.215 220.002 314.535C221.647 314.856 224.008 312.71 225.151 313.247C226.295 313.783 227.762 316.579 226.869 317.76C225.975 318.941 222.262 320.785 219.787 320.341C216.213 319.706 205.931 318.462 202.994 314.107C197.664 306.226 189.052 285.541 187.151 274.381C185.601 265.525 191.302 246.621 191.302 246.621Z" fill="#F8BEA9"/>
<path fill-rule="evenodd" clip-rule="evenodd" d="M213.209 314.494C215.874 315.697 221.052 317.351 221.052 317.351C221.052 317.351 225.618 315.303 227.804 313.802L221.226 318.363L213.209 314.478V314.494Z" fill="#ECA084"/>
<path fill-rule="evenodd" clip-rule="evenodd" d="M211.422 215.255C228.035 222.216 210.348 259.533 210.348 259.533C201.923 253.296 193.954 251.649 186.102 251.15C186.102 251.15 189.087 244.377 190.601 237.442C193.355 224.863 197.183 209.294 211.422 215.255Z" fill="#A5B0CC"/>
<path fill-rule="evenodd" clip-rule="evenodd" d="M240.978 157.999C251.191 157.999 260.449 164.347 257.873 177.996C255.763 189.187 252.803 200.887 242.585 200.887C232.366 200.887 222.471 190.028 222.471 178.64C222.471 167.252 230.763 158.009 240.978 158.009V157.999Z" fill="#F8BEA9"/>
<path fill-rule="evenodd" clip-rule="evenodd" d="M224.188 177.986C224.505 172.546 227.674 178.196 227.835 170.051C227.997 161.967 234.917 158.66 243.713 159.628C249.299 160.24 252.94 164.785 256.159 168.01C259.378 171.235 264.204 165.75 259.698 158.98C255.193 152.21 250.795 155.435 247.252 151.245C243.71 147.055 234.378 149.953 227.607 152.854C220.836 155.755 216.581 159.466 214.413 164.141C211.213 171.038 211.935 176.542 215.484 183.268C218.488 188.965 219.287 192.491 225.034 194.767C233.723 198.208 231.688 206.482 241.771 207.127C248.225 207.539 253.035 205.997 254.965 200.195C256.894 194.393 255.351 189.72 255.351 189.72C255.351 189.72 252.499 189.282 249.134 188.867C245.769 188.451 243.019 188.921 237.37 189.819C233.517 190.454 229.695 191.215 228.928 186.927C228.326 183.55 223.916 182.576 224.176 177.996L224.188 177.986Z" fill="#F7F7F7"/>
<path fill-rule="evenodd" clip-rule="evenodd" d="M256.401 164.414C256.401 164.414 257.712 159.018 254.88 157.561C253.682 156.942 250.979 157.383 247.395 155.806C244.861 154.695 243.473 152.283 241.058 151.68C238.102 150.928 235.155 152.391 235.155 152.391C243.736 147.22 244.718 154.803 249.975 155.412C258.691 156.422 258.653 160.059 256.397 164.427L256.401 164.414Z" fill="#D8D8D8"/>
<path fill-rule="evenodd" clip-rule="evenodd" d="M227.649 160.45C218.729 159.796 214.575 166.099 216.128 175.139C216.708 178.529 219.791 181.741 222.319 188.47C223.118 190.606 223.862 191.171 224.426 192.247C221.575 190.533 221.369 186.461 218.568 182.785C211.407 173.39 215.054 157.675 227.649 160.437V160.45Z" fill="#D8D8D8"/>
<path fill-rule="evenodd" clip-rule="evenodd" d="M221.214 168.508C218.79 171.292 220.852 175.894 225.928 183.937C227.601 186.591 227.931 189.2 228.498 192.152C227.592 189.581 226.933 187.327 225.786 185.505C220.152 176.551 217.864 171.981 221.214 168.508Z" fill="#D8D8D8"/>
<path fill-rule="evenodd" clip-rule="evenodd" d="M238.964 194.948C232.848 198.347 234.629 204.121 238.964 204.94C234.579 201.766 234.766 198.417 238.964 194.948Z" fill="#D8D8D8"/>
<path fill-rule="evenodd" clip-rule="evenodd" d="M241.705 197.309C238.621 199.077 242.021 201.347 242.563 205.371C242.88 201.664 239.515 199.192 241.705 197.309Z" fill="#D8D8D8"/>
<path fill-rule="evenodd" clip-rule="evenodd" d="M252.642 193.336C253.488 197.82 252.12 201.42 248.675 204.188C253.254 201.163 254.36 197.522 252.642 193.336Z" fill="#D8D8D8"/>
<path fill-rule="evenodd" clip-rule="evenodd" d="M244.296 192.225L249.4 192.063C247.943 194.31 246.184 193.85 244.296 192.225Z" fill="#E5835F"/>
<path fill-rule="evenodd" clip-rule="evenodd" d="M239.543 172.666C242.62 172.666 245.12 175.075 245.12 178.04C245.12 181.005 242.62 183.414 239.543 183.414C236.467 183.414 233.963 181.005 233.963 178.04C233.963 175.075 236.451 172.666 239.543 172.666Z" fill="#D99A83"/>
<path d="M239.543 172.666C242.62 172.666 245.12 175.075 245.12 178.04C245.12 181.005 242.62 183.414 239.543 183.414C236.467 183.414 233.963 181.005 233.963 178.04C233.963 175.075 236.451 172.666 239.543 172.666Z" stroke="#001448" stroke-width="3" stroke-linecap="round" stroke-linejoin="round"/>
<path fill-rule="evenodd" clip-rule="evenodd" d="M257.544 174.774C258.438 175.208 259.195 175.884 259.727 176.725C260.259 177.566 260.547 178.539 260.557 179.535C260.535 180.853 260.036 182.118 259.154 183.096C258.272 184.074 257.066 184.699 255.76 184.855C255.987 184.825 256.213 184.78 256.435 184.721C256.986 182.519 257.449 180.236 257.873 177.977C258.048 177.061 258.17 176.135 258.238 175.206C258.014 175.05 257.78 174.91 257.537 174.787L257.544 174.774Z" fill="#B2A8D7"/>
<path fill-rule="evenodd" clip-rule="evenodd" d="M255.386 174.187H255.472L255.861 174.231H255.918L256.264 174.301H256.33L256.701 174.406L256.768 174.428L257.126 174.555L257.487 174.717L257.538 174.742C257.782 174.879 258.016 175.034 258.238 175.206C258.169 176.143 258.045 177.076 257.867 177.999C257.442 180.259 256.98 182.541 256.429 184.744C256.207 184.803 255.981 184.847 255.754 184.877H255.659L255.408 184.899H255.31H254.971C251.891 184.899 249.391 182.49 249.391 179.525C249.391 176.561 251.891 174.152 254.971 174.152H255.377L255.386 174.187Z" fill="#DA9A83"/>
<path d="M255.364 174.171C258.444 174.171 260.941 176.58 260.941 179.545C260.941 182.509 258.444 184.918 255.364 184.918C252.284 184.918 249.784 182.509 249.784 179.545C249.784 176.58 252.284 174.171 255.364 174.171Z" stroke="#001448" stroke-width="3" stroke-linecap="round" stroke-linejoin="round"/>
<path fill-rule="evenodd" clip-rule="evenodd" d="M251.821 179.014C252.645 180.859 254.816 180.687 255.364 179.014C254.895 178.234 253.022 177.821 251.821 179.014Z" fill="#DEDEDE"/>
<path fill-rule="evenodd" clip-rule="evenodd" d="M238.812 178.453C239.632 180.297 241.806 180.128 242.351 178.453C241.882 177.672 240.012 177.259 238.812 178.453Z" fill="#DEDEDE"/>
<path fill-rule="evenodd" clip-rule="evenodd" d="M253.707 178.303C253.909 178.31 254.104 178.377 254.269 178.494C254.434 178.611 254.56 178.775 254.633 178.964C254.706 179.153 254.721 179.359 254.677 179.557C254.634 179.755 254.533 179.935 254.388 180.076C254.242 180.217 254.059 180.312 253.86 180.349C253.662 180.386 253.456 180.363 253.27 180.284C253.084 180.205 252.925 180.073 252.813 179.904C252.702 179.736 252.642 179.538 252.642 179.335C252.647 179.057 252.762 178.792 252.962 178.599C253.161 178.405 253.429 178.299 253.707 178.303Z" fill="#3D3D3D"/>
<path fill-rule="evenodd" clip-rule="evenodd" d="M240.694 177.745C240.896 177.752 241.091 177.818 241.256 177.935C241.421 178.053 241.547 178.216 241.62 178.405C241.692 178.594 241.708 178.8 241.664 178.998C241.621 179.196 241.52 179.376 241.375 179.517C241.229 179.658 241.046 179.753 240.847 179.79C240.648 179.827 240.443 179.805 240.257 179.726C240.071 179.647 239.912 179.514 239.8 179.346C239.689 179.177 239.629 178.979 239.629 178.776C239.634 178.498 239.749 178.233 239.948 178.04C240.148 177.847 240.416 177.741 240.694 177.745Z" fill="#3D3D3D"/>
<path fill-rule="evenodd" clip-rule="evenodd" d="M251.821 179.014C252.705 178.494 254.299 178.446 255.364 178.843C254.613 177.71 252.081 178.011 251.821 179.014Z" fill="#282828"/>
<path fill-rule="evenodd" clip-rule="evenodd" d="M238.812 178.453C239.692 177.932 241.286 177.884 242.351 178.281C241.603 177.148 239.068 177.453 238.812 178.453Z" fill="#282828"/>
<path d="M233.957 177.504C229.467 174.047 225.782 174.742 224.851 177.072" stroke="#001448" stroke-width="3" stroke-linecap="round" stroke-linejoin="round"/>
<path fill-rule="evenodd" clip-rule="evenodd" d="M238.216 180.547C239.749 180.941 241.242 180.89 242.668 180.103C241.568 181.084 239.531 181.392 238.216 180.547Z" fill="#C18771"/>
<path fill-rule="evenodd" clip-rule="evenodd" d="M251.869 180.478C252.975 181.227 253.897 181.477 254.686 181.366C253.697 181.792 252.747 181.665 251.869 180.478Z" fill="#C18771"/>
<path d="M245.329 178.148C246.913 179.827 249.486 179.081 249.784 178.783" stroke="#001448" stroke-width="3" stroke-linecap="round" stroke-linejoin="round"/>
<path d="M247.306 181.871C249.955 184.483 248.97 187.337 245.75 186.654" stroke="#CA8C76" stroke-width="3" stroke-linecap="round" stroke-linejoin="round"/>
<path d="M227.44 181.871C224.936 178.618 226.429 175.628 229.832 176.843" stroke="#CA8C76" stroke-width="3.31" stroke-linecap="round" stroke-linejoin="round"/>
<path fill-rule="evenodd" clip-rule="evenodd" d="M132.861 180.77L156.942 183.772C154.537 191.006 153.945 194.881 154.753 199.811C155.155 202.264 158.856 203.559 160.26 205.298C153.697 214.563 134.61 216.522 121.92 201.861C127.512 199.639 128.659 200.839 130.976 198.274C135.564 193.196 133.71 185.597 132.877 180.77H132.861Z" fill="#EBA389"/>
<path fill-rule="evenodd" clip-rule="evenodd" d="M132.281 179.246L164.711 181.328C167.3 202.185 142.744 200.106 132.281 179.246Z" fill="#E09A81"/>
<path fill-rule="evenodd" clip-rule="evenodd" d="M130.133 198.884C136.315 209.088 154.265 207.479 155.218 199.919C155.218 199.919 168.447 225.358 154.439 231.627C133.032 241.225 130.133 198.884 130.133 198.884Z" fill="white"/>
<path fill-rule="evenodd" clip-rule="evenodd" d="M124.676 411.72L141.47 417.259C139.201 420.093 137.984 425.737 138.327 429.727C133.238 436.119 123.228 432.174 119.35 425.153C119.35 425.153 122.031 421.979 122.886 419.805C123.773 417.567 124.68 411.72 124.68 411.72H124.676Z" fill="#EBA389"/>
<path fill-rule="evenodd" clip-rule="evenodd" d="M121.907 422.338C121.907 422.338 115.779 426.092 117.69 430.527C119.936 435.741 125.434 436.909 130.409 438.722C134.455 440.198 138.33 442.778 138.33 442.778C138.719 439.465 139.401 436.192 140.367 432.999C141.045 430.863 135.542 430.441 130.947 428.26C127.667 426.726 124.623 424.732 121.904 422.338H121.907Z" fill="#615953"/>
<path fill-rule="evenodd" clip-rule="evenodd" d="M171.055 308.124C171.055 308.124 171.467 321.743 171.134 336.287C170.751 353.109 169.154 371.623 168.694 374.969C167.835 381.199 160.969 396.031 157.75 404.414C155.358 410.644 144.233 429.562 144.233 429.562C139.521 427.34 133.612 424.385 128.184 422.338C124.017 420.751 119.629 419.992 119.347 418.814C117.668 411.606 130.687 385.382 134.578 377.552C142.775 361.047 140.494 355.61 136.723 332.418C135.646 325.787 132.218 309.85 132.218 309.85L171.055 308.13V308.124Z" fill="#8495BF"/>
<path fill-rule="evenodd" clip-rule="evenodd" d="M122.224 300.43L144.017 320.109C150.842 324.591 154.996 337.566 158.33 355.239C163.973 385.154 161.571 412.403 158.33 429.597C155.402 445.149 128.995 438.611 117.138 428.235L122.208 300.443L122.224 300.43Z" fill="#6E82B2"/>
<path fill-rule="evenodd" clip-rule="evenodd" d="M94.7935 296.158L98.0095 314.739C127.496 327.289 137.655 311.32 175.399 315.691L179.974 298.938L94.8093 296.158H94.7935Z" fill="#6E82B2"/>
<path fill-rule="evenodd" clip-rule="evenodd" d="M133.935 420.535L151.53 418.814C150.58 422.325 151.749 427.984 153.675 431.511C151.593 439.414 141.597 439.163 135.221 434.304L133.935 420.551V420.535Z" fill="#EBA389"/>
<path fill-rule="evenodd" clip-rule="evenodd" d="M133.935 428.27C140.111 435.138 152.376 436.122 152.522 428.27C152.522 428.27 154.068 432.859 157.487 435.992C162.034 440.166 161.72 444.343 160.339 445.679C155.155 450.659 144.984 449.587 139.908 446.971C135.082 444.486 133.948 428.27 133.948 428.27H133.935Z" fill="#73665C"/>
<path fill-rule="evenodd" clip-rule="evenodd" d="M99.8092 301.246L139.505 300.814C139.505 300.814 147.743 320.664 152.512 341.876C155.132 353.5 157.116 359.359 158.32 367.767C160.345 381.913 158.377 412.908 154.885 427.346C154.606 428.505 149.499 427.521 145.494 427.346C139.67 427.089 133.814 427.438 128.989 429.346C126.26 430.425 125.294 419.027 125.075 407.264C124.952 400.627 125.604 386.547 125.449 383.142C125.021 373.683 125.481 367.075 117.845 352.944C112.965 343.927 106.609 333.608 103.798 325.092C99.2516 311.326 99.8092 301.246 99.8092 301.246Z" fill="#8495BF"/>
<path fill-rule="evenodd" clip-rule="evenodd" d="M94.7935 296.158L98.0095 314.739C127.496 327.289 137.655 311.32 175.399 315.691L179.974 298.938L94.8093 296.158H94.7935Z" fill="#6E82B2"/>
<path d="M118.678 301.043C118.678 301.043 125.487 317.182 132.28 336.046C135.965 346.269 140.332 357.746 142.04 366.834C143.624 375.305 140.642 387.585 140.386 398.872C140.212 408.389 140.765 417.904 142.04 427.337" stroke="white" stroke-linecap="round" stroke-linejoin="round"/>
<path fill-rule="evenodd" clip-rule="evenodd" d="M106.607 208.758C104.544 213.741 103.308 233.515 100.602 253.705C97.5921 276.279 93.286 299.627 95.3202 308.346C95.3202 308.346 117.918 317.522 130.808 315.903C155.45 312.805 165.577 313.805 173.267 313.069C173.267 313.069 169.148 278.745 174.981 261.434C181.34 242.552 175.456 223.606 172.342 214.062C168.704 202.918 155.231 200.21 155.231 200.21C154.24 210.656 153.33 221.159 148.894 228.164C139.851 219.185 134.002 208.844 130.973 198.141C130.973 198.141 111.879 195.999 106.607 208.758Z" fill="#8495BF"/>
<path fill-rule="evenodd" clip-rule="evenodd" d="M106.349 207.377C106.349 207.377 120.941 201.347 131.454 212.107C136.761 217.531 143.222 232.766 149.264 237.991C152.949 241.181 167.094 234.245 173.735 237.47C176.226 238.679 175.982 245.262 176.955 251.772C177.531 255.645 174.832 254.826 174.832 254.826C168.393 253.213 157.538 263.583 145.307 255.987C120.516 240.59 99.7113 209.517 106.349 207.377Z" fill="#6E82B2"/>
<path d="M126.948 196.189C130.789 209.967 137.031 221.14 150.025 232.055C156.726 221.264 157.924 213.329 158.33 200.274" stroke="white" stroke-linecap="round" stroke-linejoin="round"/>
<path fill-rule="evenodd" clip-rule="evenodd" d="M176.419 240.847C176.419 240.847 189.274 228.38 192.405 226.247C193.304 225.612 195.548 226.932 195.193 227.967C194.711 229.383 189.509 234.737 189.509 234.737C198.973 232.865 201.077 226.355 203.45 227.536C205.823 228.716 207.233 238.559 203.767 241.819C199.648 245.707 186.372 249.055 178.77 250.849L176.41 240.854L176.419 240.847Z" fill="#EBA389"/>
<path fill-rule="evenodd" clip-rule="evenodd" d="M192.94 236.569C198.713 234.712 201.847 232.481 205.972 227.113C202.11 233.192 199.879 235.004 192.94 236.569Z" fill="#D88A6E"/>
<path fill-rule="evenodd" clip-rule="evenodd" d="M195.184 238.457C199.122 237.42 203.061 235.356 206.999 232.17C203.739 236.042 199.746 238.023 195.184 238.457Z" fill="#D88A6E"/>
<path fill-rule="evenodd" clip-rule="evenodd" d="M195.912 241.6C199.851 240.562 203.789 238.499 207.728 235.312C204.455 239.187 200.472 241.165 195.912 241.6Z" fill="#D88A6E"/>
<path fill-rule="evenodd" clip-rule="evenodd" d="M112.639 201.674C127.059 194.65 145.95 245.034 145.95 245.034C145.95 245.034 160.085 239.813 165.392 238.454C169.217 237.473 177.81 236.867 177.81 236.867C176.283 241.222 179.125 246.481 183.605 250.833C183.605 250.833 152.173 281.513 140.801 274.044C129.429 266.576 76.3145 219.378 112.639 201.677V201.674Z" fill="#8495BF"/>
<path fill-rule="evenodd" clip-rule="evenodd" d="M111.134 244.51C111.134 244.51 129.096 266.116 144.017 270.823C151.869 273.299 178.456 255.588 178.456 255.588C148.535 297.288 132.899 294.828 111.134 244.526V244.51Z" fill="#6E82B2"/>
<path d="M109.353 200.96C109.353 200.96 104.065 207.238 108.862 216.446C115.373 228.951 129.299 254.216 142.04 260.736C152.091 265.878 179.958 242.961 179.958 242.961" stroke="white" stroke-linecap="round" stroke-linejoin="round"/>
<path fill-rule="evenodd" clip-rule="evenodd" d="M176.518 249.401C176.892 249.408 177.256 249.526 177.564 249.739C177.872 249.953 178.11 250.252 178.249 250.601C178.387 250.949 178.42 251.331 178.343 251.698C178.266 252.065 178.082 252.401 177.815 252.664C177.548 252.927 177.209 253.105 176.841 253.176C176.473 253.246 176.093 253.207 175.747 253.062C175.402 252.916 175.107 252.672 174.9 252.36C174.692 252.048 174.582 251.681 174.582 251.306C174.584 251.053 174.635 250.804 174.734 250.571C174.832 250.339 174.976 250.128 175.155 249.951C175.335 249.775 175.548 249.635 175.782 249.54C176.016 249.446 176.266 249.399 176.518 249.401Z" fill="#DCDEE4"/>
<path fill-rule="evenodd" clip-rule="evenodd" d="M149.829 150.188C160.237 150.188 168.688 157.031 167.012 169.918C165.459 181.865 162.259 193.158 152.684 192.91C148.384 192.799 141.663 189.904 135.76 185.258C132.722 182.868 130.973 176.85 130.973 172.019C130.973 159.958 139.423 150.188 149.829 150.188Z" fill="#EBA389"/>
<path fill-rule="evenodd" clip-rule="evenodd" d="M154.895 171.473C154.895 169.603 151.612 168.502 150.142 170.93C151.41 172.635 153.434 173.374 154.895 171.473Z" fill="white"/>
<path fill-rule="evenodd" clip-rule="evenodd" d="M165.693 172.13C165.402 170.283 161.967 169.737 160.921 172.371C162.452 173.844 164.565 174.244 165.693 172.13Z" fill="white"/>
<path fill-rule="evenodd" clip-rule="evenodd" d="M153.114 169.927C153.391 169.937 153.659 170.029 153.885 170.19C154.111 170.352 154.284 170.576 154.383 170.835C154.482 171.095 154.503 171.378 154.443 171.649C154.383 171.92 154.245 172.167 154.045 172.36C153.846 172.553 153.594 172.683 153.321 172.734C153.048 172.784 152.767 172.754 152.512 172.645C152.256 172.537 152.039 172.355 151.885 172.124C151.732 171.892 151.651 171.621 151.65 171.343C151.654 171.154 151.694 170.967 151.77 170.793C151.845 170.62 151.954 170.463 152.09 170.331C152.226 170.2 152.386 170.096 152.562 170.027C152.738 169.958 152.925 169.924 153.114 169.927Z" fill="#373737"/>
<path fill-rule="evenodd" clip-rule="evenodd" d="M163.701 170.784C163.976 170.748 164.255 170.794 164.505 170.916C164.754 171.038 164.962 171.231 165.103 171.47C165.243 171.71 165.31 171.986 165.296 172.263C165.281 172.541 165.185 172.808 165.02 173.031C164.854 173.254 164.627 173.424 164.366 173.519C164.105 173.613 163.822 173.629 163.553 173.564C163.283 173.499 163.038 173.355 162.849 173.152C162.66 172.948 162.536 172.693 162.49 172.419C162.462 172.232 162.472 172.041 162.517 171.858C162.563 171.674 162.645 171.502 162.757 171.35C162.87 171.198 163.011 171.07 163.173 170.973C163.335 170.876 163.514 170.812 163.701 170.784Z" fill="#373737"/>
<path fill-rule="evenodd" clip-rule="evenodd" d="M155.218 171.165C154.245 170.238 151.495 170.108 150.148 170.445C151.28 168.912 154.676 168.858 155.218 171.165Z" fill="#040100"/>
<path fill-rule="evenodd" clip-rule="evenodd" d="M165.693 172.082C164.176 170.844 162.116 171.34 160.842 171.895C161.951 169.715 165.247 169.591 165.693 172.082Z" fill="#040100"/>
<path d="M158.745 175.571C160.577 176.739 159.867 178.872 158.317 179.379" stroke="#D7876A" stroke-width="3" stroke-linecap="round" stroke-linejoin="round"/>
<path d="M138.083 172.082C135.443 169.819 137.218 167.048 139.895 166.836" stroke="#D7876A" stroke-width="4.67" stroke-linecap="round" stroke-linejoin="round"/>
<path fill-rule="evenodd" clip-rule="evenodd" d="M154.895 184.309L159.087 185.115C158.016 186.619 155.674 186.765 154.895 184.309Z" fill="#E76E42"/>
<path fill-rule="evenodd" clip-rule="evenodd" d="M141.093 148.198C141.093 148.198 131.616 141.488 124.493 145.265C117.37 149.042 114.794 162.278 121.917 166.896C129.04 171.514 132.281 154.575 132.281 154.575L141.093 148.204V148.198Z" fill="#73665C"/>
<path fill-rule="evenodd" clip-rule="evenodd" d="M166.159 160.83C166.159 160.83 169.74 145.595 145.307 144.008C130.491 143.04 123.938 157.066 123.634 167.696C123.225 181.871 133.935 184.309 133.935 184.309C131.784 177.278 137.031 179.252 135.76 175.571C132.63 166.499 138.719 161.821 142.287 165.299C147.227 156.6 158.529 154.003 166.159 160.83Z" fill="#74665C"/>
<path fill-rule="evenodd" clip-rule="evenodd" d="M123.219 169.926C123.65 163.753 128.891 147.454 142.04 143.957C128.416 145.42 118.165 158.148 123.219 169.926Z" fill="#594E45"/>
<path fill-rule="evenodd" clip-rule="evenodd" d="M162.512 155.413C159.977 146.078 149.014 142.164 138.339 144.005C149.499 143.729 158.219 146.662 162.512 155.413Z" fill="#594E45"/>
<path fill-rule="evenodd" clip-rule="evenodd" d="M158.33 154.575C148.995 146.751 139.021 146.89 129.632 151.105C138.634 143.837 150.83 146.849 158.33 154.575Z" fill="#594E45"/>
<path fill-rule="evenodd" clip-rule="evenodd" d="M195.5 258.942C196.397 255.873 198.304 253.931 203.868 251.42C208.162 249.487 209.803 256.359 209.889 260.663C210.104 272.914 200.234 272.591 197.873 270.766C195.513 268.941 194.584 262.132 195.513 258.942H195.5Z" fill="#EBA389"/>
<path fill-rule="evenodd" clip-rule="evenodd" d="M195.912 261.288C200.079 260.241 205.345 257.162 208.653 253.55C205.323 258.365 200.484 261.136 195.912 261.288Z" fill="#D88A6E"/>
<path fill-rule="evenodd" clip-rule="evenodd" d="M196.631 264.519C200.88 263.884 206.419 261.345 210.063 258.054C206.261 262.532 201.191 264.814 196.631 264.519Z" fill="#D88A6E"/>
<path fill-rule="evenodd" clip-rule="evenodd" d="M196.977 268.547C201.226 267.912 206.764 265.373 210.408 262.085C206.606 266.563 201.536 268.845 196.977 268.547Z" fill="#D88A6E"/>
</g>
<defs>
<clipPath id="clip0">
<rect width="388" height="497" fill="white"/>
</clipPath>
</defs>
</svg>
