<svg width="512" height="439" viewBox="0 0 512 439" fill="none" xmlns="http://www.w3.org/2000/svg">
<path fill-rule="evenodd" clip-rule="evenodd" d="M20.9182 249.461C-1.70953 228.047 -10.6909 177.08 18.2304 157.882C66.6634 125.73 97.1161 82.6946 141.061 71.9346C185.005 61.1747 213.26 71.683 239.304 65.6587C340.102 42.3469 346.63 108.381 375.736 117.344C404.843 126.308 431.888 121.996 452.177 158.005C488.041 221.665 449.485 245.643 446.797 278.457C444.109 311.271 459.384 310.776 464.729 338.846C476.385 400.087 416.547 440.43 355.461 429.67C327.467 424.74 236.135 425.296 131.7 434.154C79.6212 438.567 31.5148 423.76 12.0295 353.181C-0.584112 307.462 38.466 266.042 20.9402 249.465L20.9182 249.461Z" fill="#F9F9F9"/>
<path fill-rule="evenodd" clip-rule="evenodd" d="M395.526 43.2429H166.164V225.911H395.526V43.2429Z" fill="#C3D2F8"/>
<path fill-rule="evenodd" clip-rule="evenodd" d="M225.198 102.096C232.035 102.703 238.382 105.892 242.949 111.016C242.949 111.016 256.587 110.777 257.143 122.892C257.584 132.549 245.571 134.071 245.571 134.071C243.06 139.262 229.396 140.983 224.302 136.834C224.302 136.834 216.217 142.695 209.848 141.221C200.011 138.948 193.02 130.942 193.316 124.684C193.912 112.053 207.858 108.557 207.858 108.557C207.858 108.557 212.616 101.054 225.198 102.096Z" fill="#D6DFF7"/>
<path fill-rule="evenodd" clip-rule="evenodd" d="M185.636 72.4731C202.805 73.9163 212.333 85.8855 212.333 85.8855C212.333 85.8855 232.842 85.528 233.681 103.747C234.347 118.267 216.274 120.562 216.274 120.562C212.501 128.365 191.952 130.96 184.29 124.715C184.29 124.715 172.131 133.542 162.55 131.313C147.756 127.897 137.243 115.866 137.689 106.439C138.572 87.4611 159.562 82.187 159.562 82.187C159.562 82.187 166.712 70.8798 185.636 72.4775V72.4731Z" fill="white"/>
<path fill-rule="evenodd" clip-rule="evenodd" d="M351.965 139.363C345.018 139.958 338.553 143.16 333.87 148.327C333.87 148.327 319.968 148.088 319.399 160.265C318.957 169.975 331.2 171.502 331.2 171.502C333.76 176.718 347.689 178.453 352.879 174.278C352.879 174.278 361.123 180.17 367.616 178.691C377.647 176.405 384.775 168.355 384.47 162.066C383.861 149.373 369.646 145.855 369.646 145.855C369.646 145.855 364.791 138.299 351.992 139.363H351.965Z" fill="white"/>
<path fill-rule="evenodd" clip-rule="evenodd" d="M511.352 360.909H12.0073V439H511.352V360.909Z" fill="#E9E9E9"/>
<path fill-rule="evenodd" clip-rule="evenodd" d="M401.043 0H162.55V232.438H401.043V0ZM277.224 9.93464H173.808V220.456H277.224V9.93464ZM286.205 9.93464V220.456H389.789V9.93464H286.205Z" fill="#ECE5DD"/>
<path fill-rule="evenodd" clip-rule="evenodd" d="M303.713 232.888C307.081 232.606 309.063 233.621 309.133 234.733C309.204 235.845 306.044 236.904 303.533 237.231C299.794 237.721 296.815 234.658 297.919 234.521C299.384 234.336 299.993 233.197 303.713 232.888Z" fill="#727B91"/>
<path fill-rule="evenodd" clip-rule="evenodd" d="M304.181 234.592C306.75 234.433 308.899 235.369 308.983 236.675C309.067 237.981 307.046 239.177 304.477 239.323C301.908 239.469 299.759 238.551 299.675 237.24C299.591 235.929 301.613 234.742 304.181 234.592Z" fill="#ECD3BD"/>
<path fill-rule="evenodd" clip-rule="evenodd" d="M286.66 230.267L288.478 228.943C297.363 231.749 297.248 236.838 303.788 236.309C304.886 236.25 305.971 236.047 307.015 235.704C307.477 235.534 307.913 235.298 308.308 235.002C308.679 234.706 308.833 234.327 308.992 234.278C309.239 234.203 309.579 235.704 307.919 236.953C305.911 238.476 301.224 238.718 298.673 237.297C296.74 236.207 296.224 234.609 293.174 232.822C290.469 231.238 289.343 230.99 286.66 230.249V230.267Z" fill="#B9BECC"/>
<path fill-rule="evenodd" clip-rule="evenodd" d="M222.171 192.902C226.116 189.583 231.849 187.778 235.499 180.13L248.135 194.756C243.28 199.756 245.293 206.791 246.992 213.584C235.129 211.629 226.063 206.421 222.171 192.902Z" fill="#EBC2A0"/>
<path fill-rule="evenodd" clip-rule="evenodd" d="M234.347 177.605C234.347 177.605 236.113 196.195 247.76 201.782C254.473 205.004 256.649 191.089 256.649 191.089C250.262 181.772 246.365 171.718 234.347 177.605Z" fill="#DDAE88"/>
<path fill-rule="evenodd" clip-rule="evenodd" d="M253.444 156.933C263.242 155.644 270.021 163.01 270.021 175.416C270.021 180.201 266.738 187.606 264.858 191.459C261.861 197.594 256.229 202.166 250.735 200.246C247.491 199.112 243.232 195.921 240.584 190.63C238.929 187.328 237.781 184.64 237.366 182.429C236.629 178.523 237.658 176.184 237.582 172.464C237.335 160.058 246.643 157.829 253.471 156.933H253.444Z" fill="#EBC2A0"/>
<path d="M260.519 182.875C259.707 185.466 260.96 189.186 257.271 187.787" stroke="#D6A681" stroke-width="2" stroke-linecap="round" stroke-linejoin="round"/>
<path fill-rule="evenodd" clip-rule="evenodd" d="M252.359 193.017C254.028 194.035 255.855 194.769 257.765 195.188C255.329 196.954 252.368 195.497 252.354 193.017H252.359Z" fill="#DE806C"/>
<path fill-rule="evenodd" clip-rule="evenodd" d="M230.57 355.714V374.251C238.911 379.158 248.223 381.219 258.939 378.955C247.826 372.423 246.899 364.391 249.34 355.873L230.57 355.723V355.714Z" fill="#EBC2A0"/>
<path fill-rule="evenodd" clip-rule="evenodd" d="M227.666 385.602C227.666 385.602 232.419 386.043 235.641 385.756C238.699 385.496 240.209 384.498 242.486 385.253C246.114 386.462 262.88 387.058 269.408 385.152C269.408 385.152 273.292 377.084 266.579 373.046C262.536 370.618 259.65 369.881 251.706 373.928C247.817 375.901 235.093 371.435 231.788 371.28C221.822 370.777 224.355 385.628 227.652 385.628L227.666 385.602Z" fill="#3E4B6E"/>
<path fill-rule="evenodd" clip-rule="evenodd" d="M249.34 299.174L220.873 308.587C223.34 324.423 225.459 340.413 226.496 356.954C226.566 358.14 226.884 359.298 227.429 360.353C227.974 361.408 228.735 362.337 229.662 363.08C230.588 363.823 231.661 364.363 232.809 364.665C233.957 364.968 235.157 365.026 236.329 364.837C238.78 364.411 241.292 364.487 243.713 365.062C244.544 365.263 245.41 365.28 246.249 365.113C247.088 364.946 247.881 364.599 248.572 364.095C249.264 363.591 249.837 362.943 250.253 362.195C250.669 361.448 250.918 360.619 250.982 359.766C252.601 337.698 251.322 314.373 249.34 299.165V299.174Z" fill="#A5B0CC"/>
<path fill-rule="evenodd" clip-rule="evenodd" d="M254.292 358.561V377.097C262.633 382.005 271.945 384.066 282.661 381.802C271.548 375.27 270.621 367.238 273.062 358.72L254.292 358.57V358.561Z" fill="#EBC2A0"/>
<path fill-rule="evenodd" clip-rule="evenodd" d="M251.392 388.449C251.392 388.449 256.141 388.89 259.363 388.603C262.421 388.343 263.931 387.345 266.208 388.1C269.836 389.309 286.603 389.905 293.13 387.998C293.13 387.998 297.014 379.931 290.301 375.897C286.258 373.465 283.372 372.728 275.428 376.779C271.539 378.752 258.816 374.286 255.51 374.131C245.544 373.628 248.078 388.479 251.379 388.479L251.392 388.449Z" fill="#495984"/>
<path fill-rule="evenodd" clip-rule="evenodd" d="M273.062 302.02L244.595 311.434C247.058 327.261 249.181 343.259 250.218 359.801C250.287 360.986 250.605 362.144 251.15 363.199C251.695 364.255 252.456 365.183 253.383 365.926C254.31 366.668 255.383 367.207 256.531 367.508C257.68 367.81 258.879 367.866 260.051 367.674C262.501 367.249 265.012 367.325 267.431 367.9C268.263 368.101 269.128 368.119 269.968 367.952C270.808 367.786 271.601 367.439 272.293 366.935C272.985 366.431 273.559 365.782 273.975 365.035C274.392 364.287 274.64 363.457 274.704 362.603C276.319 340.536 275.044 317.211 273.062 302.003V302.02Z" fill="#A5B0CC"/>
<path fill-rule="evenodd" clip-rule="evenodd" d="M245.765 206.659C236.108 207.612 225.022 198.243 223.813 190.629C206.221 201.504 194.243 218.619 193.307 246.124C192.932 256.99 191.475 268.434 191.705 279.944L253.577 281.767C255.201 269.153 253.661 259.832 255.369 246.018C257.364 229.834 249.45 219.048 245.765 206.668V206.659Z" fill="#A5B0CC"/>
<path fill-rule="evenodd" clip-rule="evenodd" d="M244.966 230.452C244.525 220.486 242.137 211.284 236.435 207.829C228.787 203.195 219.982 203.834 215.961 214.493C213.6 220.756 214.231 235.933 215.802 248.878C216.791 257.03 220.785 270.654 233.69 271.431C240.535 271.846 232.9 280.619 230.393 281.092L257.756 281.763C255.422 282.08 247.773 265.058 259.769 259.033C270.573 253.605 262.991 238.899 263.882 231.299C264.407 226.833 245.143 234.923 244.944 230.452H244.966Z" fill="#8897BE"/>
<path d="M230.327 208.38C208.75 224.582 208.776 267.048 211.967 271.903" stroke="#DCDCDD" stroke-linecap="round" stroke-linejoin="round"/>
<path fill-rule="evenodd" clip-rule="evenodd" d="M223.813 190.629L225.834 187.814C231.51 195.934 239.004 201.42 246.674 203.168L245.703 206.699C239.105 208.963 224.236 198.538 223.813 190.629Z" fill="#8897BE"/>
<path fill-rule="evenodd" clip-rule="evenodd" d="M269.801 177.455C269.801 177.455 274.541 173.444 271.765 163.134C269.959 156.434 263.648 154.47 257.553 152.012C251.308 149.496 247.124 155.265 242.481 155.834C238.699 156.302 232.507 158.186 231.969 162.706C231.364 167.772 228.354 172.963 231.267 176.899C233.558 179.989 232.741 184.72 232.741 184.72C232.741 184.72 235.142 180.827 237.349 183.228C238.553 184.552 243.576 183.149 241.577 179.459C239.136 174.944 244.609 171.281 247.425 173.876C249.953 176.211 251.458 172.468 253.444 171.413C265.18 165.173 270.167 174.776 269.801 177.455Z" fill="#664A35"/>
<path fill-rule="evenodd" clip-rule="evenodd" d="M268.728 167.715C270.317 154.033 253.431 156.633 249.967 157.524C244.357 158.963 237.349 158.87 237.349 158.87C237.349 158.87 242.49 157.886 246.674 156.889C251.494 155.732 251.577 152.881 257.531 154.77C262.942 156.492 265.917 156.174 268.313 159.073C270.352 161.532 270.105 165.464 268.728 167.715Z" fill="#4A3728"/>
<path fill-rule="evenodd" clip-rule="evenodd" d="M250.973 162.587C246.626 167.203 241.528 162.079 234.643 169.207C233.381 170.531 232.33 172.331 231.024 175.24C235.632 158.345 244.123 167.018 250.951 162.604L250.973 162.587Z" fill="#4A3728"/>
<path fill-rule="evenodd" clip-rule="evenodd" d="M262.042 167.746C257.019 157.763 245.527 174.198 233.796 173.872C243.227 172.106 247.835 165.685 252.173 163.752C255.929 162.079 260.855 161.836 262.051 167.746H262.042Z" fill="#4A3728"/>
<path fill-rule="evenodd" clip-rule="evenodd" d="M243.09 178.802C243.036 178.852 242.97 178.889 242.898 178.909C242.826 178.929 242.751 178.931 242.678 178.916C242.605 178.901 242.536 178.869 242.479 178.822C242.421 178.775 242.375 178.715 242.345 178.647C240.835 175.231 244.273 173.011 246.979 174.596C247.041 174.632 247.094 174.682 247.134 174.743C247.174 174.804 247.199 174.872 247.207 174.944C247.216 175.016 247.208 175.089 247.183 175.157C247.159 175.225 247.119 175.287 247.067 175.337L247.018 175.386C246.944 175.457 246.847 175.503 246.744 175.514C246.641 175.525 246.537 175.502 246.449 175.447C244.322 174.123 242.389 176.176 243.36 178.095C243.405 178.185 243.42 178.286 243.402 178.385C243.385 178.484 243.336 178.574 243.263 178.643L243.095 178.802H243.09Z" fill="#D1A37E"/>
<path fill-rule="evenodd" clip-rule="evenodd" d="M240.147 215.305C240.002 214.049 239.595 212.838 238.953 211.749C238.311 210.66 237.447 209.719 236.417 208.985C230.349 204.66 221.059 205.181 217.554 214.215C217.235 215.046 217.022 215.913 216.919 216.797C215.343 230.854 217.802 252.453 222.272 260.799L244.207 250.445L240.147 215.305Z" fill="#A5B0CC"/>
<path d="M227.052 208.089C227.052 208.089 220.992 240.307 230.027 254.646C234.656 261.995 269.783 241.755 269.783 241.755" stroke="#DCDCDD" stroke-linecap="round" stroke-linejoin="round"/>
<path fill-rule="evenodd" clip-rule="evenodd" d="M279.365 228.378C280.115 226.828 282.427 225.915 285.067 225.138C285.303 225.068 285.552 225.051 285.796 225.09C286.039 225.128 286.271 225.22 286.475 225.359L291.056 228.448L288.469 228.351L284.97 227.826L280.742 229.785L279.365 228.369V228.378Z" fill="#D0B29A"/>
<path fill-rule="evenodd" clip-rule="evenodd" d="M265.374 232.835L278.508 227.252C281.284 226.047 284.422 226.37 287.216 227.058C289.564 227.623 293.059 228.581 293.995 229.706C294.785 230.659 293.955 232.575 293.955 232.575C294.247 233.343 294.048 234.058 293.015 234.689C293.132 235.163 293.089 235.663 292.895 236.111C292.7 236.559 292.364 236.93 291.938 237.169C292.565 237.403 291.413 238.935 290.019 239.041C287.777 239.195 284.934 237.399 278.486 238.493C275.07 239.071 270.202 243.895 267.011 245.528L265.4 232.84L265.374 232.835Z" fill="#EBC2A0"/>
<path fill-rule="evenodd" clip-rule="evenodd" d="M285.773 235.518C289.277 236.114 290.526 236.617 293.223 237.557C290.089 237.032 288.725 236.41 285.773 235.518Z" fill="#CAA282"/>
<path fill-rule="evenodd" clip-rule="evenodd" d="M286.148 232.959C289.648 233.555 290.897 234.058 293.593 234.998C290.464 234.477 289.101 233.85 286.148 232.959Z" fill="#CAA282"/>
<path fill-rule="evenodd" clip-rule="evenodd" d="M287.163 230.726C290.663 231.321 291.916 231.825 294.608 232.765C291.479 232.244 290.116 231.617 287.163 230.726Z" fill="#CAA282"/>
<path fill-rule="evenodd" clip-rule="evenodd" d="M266.848 232.116C267.209 231.66 267.678 231.301 268.211 231.07C268.745 230.839 269.327 230.743 269.906 230.792C270.741 234.689 271.266 238.798 274.042 242.615C272.365 244.01 271.314 244.253 270.463 244.226L266.848 232.129V232.116Z" fill="#8897BE"/>
<path fill-rule="evenodd" clip-rule="evenodd" d="M224.686 248.335C232.326 236.578 250.867 230.88 265.987 231.092C268.424 231.123 268.534 235.413 269.452 237.902C269.845 238.966 270.418 240.7 270.957 242.377C271.396 243.689 271.355 245.114 270.843 246.398C270.331 247.683 269.38 248.745 268.159 249.395C255.757 256.015 243.444 262.917 236.382 264.162C230.044 265.283 214.253 264.374 224.669 248.353L224.686 248.335Z" fill="#A5B0CC"/>
<path d="M227.162 206.95C227.162 206.95 220.886 239.138 229.81 253.525C234.392 260.905 269.655 240.903 269.655 240.903" stroke="#DCDCDD" stroke-linecap="round" stroke-linejoin="round"/>
<path fill-rule="evenodd" clip-rule="evenodd" d="M265.502 238.268C265.783 238.252 266.061 238.321 266.303 238.465C266.544 238.61 266.736 238.823 266.854 239.078C266.973 239.333 267.012 239.618 266.967 239.895C266.921 240.172 266.794 240.43 266.601 240.634C266.408 240.838 266.158 240.98 265.883 241.04C265.609 241.1 265.322 241.077 265.061 240.973C264.8 240.869 264.576 240.689 264.419 240.456C264.261 240.223 264.177 239.948 264.178 239.667C264.172 239.307 264.307 238.959 264.555 238.698C264.802 238.436 265.142 238.282 265.502 238.268Z" fill="#ECE5DD"/>
<path fill-rule="evenodd" clip-rule="evenodd" d="M199.583 311.668H193.307V391.017H199.583V311.668Z" fill="#8F98AD"/>
<path fill-rule="evenodd" clip-rule="evenodd" d="M242.698 311.668H236.426V391.017H242.698V311.668Z" fill="#8F98AD"/>
<path fill-rule="evenodd" clip-rule="evenodd" d="M146.9 369.374H139.428V385.514H146.9V369.374Z" fill="#C4BBB1"/>
<path fill-rule="evenodd" clip-rule="evenodd" d="M143.166 387.879C146.012 387.879 148.793 388.723 151.159 390.304C153.525 391.885 155.37 394.132 156.458 396.761C157.547 399.39 157.832 402.283 157.277 405.074C156.722 407.865 155.352 410.428 153.34 412.441C151.327 414.453 148.764 415.823 145.973 416.378C143.182 416.933 140.289 416.649 137.66 415.56C135.031 414.471 132.784 412.626 131.203 410.26C129.622 407.894 128.778 405.113 128.778 402.267C128.779 398.451 130.295 394.792 132.993 392.095C135.691 389.397 139.35 387.88 143.166 387.879Z" fill="#54648F"/>
<path fill-rule="evenodd" clip-rule="evenodd" d="M143.166 396.198C144.575 396.198 145.952 396.616 147.123 397.399C148.295 398.182 149.208 399.294 149.747 400.596C150.286 401.897 150.427 403.33 150.152 404.711C149.877 406.093 149.199 407.362 148.203 408.359C147.207 409.355 145.937 410.033 144.556 410.308C143.174 410.583 141.742 410.442 140.44 409.903C139.138 409.364 138.026 408.451 137.243 407.279C136.46 406.108 136.043 404.731 136.043 403.322C136.043 401.433 136.793 399.621 138.129 398.285C139.465 396.949 141.277 396.198 143.166 396.198Z" fill="#2C3858"/>
<path fill-rule="evenodd" clip-rule="evenodd" d="M130.071 402.267H126.982C125.406 400.443 124.521 398.123 124.479 395.713C124.479 388.475 132.865 382.601 143.161 382.601C153.458 382.601 161.839 388.475 161.839 395.713C161.8 398.122 160.918 400.441 159.346 402.267H156.256C155.945 399.01 154.431 395.986 152.01 393.786C149.589 391.585 146.435 390.366 143.164 390.366C139.892 390.366 136.738 391.585 134.317 393.786C131.896 395.986 130.382 399.01 130.071 402.267Z" fill="#C4BBB1"/>
<path fill-rule="evenodd" clip-rule="evenodd" d="M111.12 344.685H103.648V360.82H111.12V344.685Z" fill="#C4BBB1"/>
<path fill-rule="evenodd" clip-rule="evenodd" d="M107.386 363.19C110.232 363.19 113.014 364.034 115.38 365.615C117.746 367.196 119.59 369.443 120.679 372.072C121.768 374.701 122.053 377.594 121.498 380.385C120.942 383.176 119.572 385.74 117.56 387.752C115.548 389.764 112.984 391.134 110.193 391.69C107.402 392.245 104.509 391.96 101.88 390.871C99.2512 389.782 97.0041 387.938 95.4232 385.572C93.8422 383.206 92.9984 380.424 92.9984 377.578C93.0007 373.763 94.5173 370.105 97.2151 367.407C99.9128 364.709 103.571 363.193 107.386 363.19Z" fill="#54648F"/>
<path fill-rule="evenodd" clip-rule="evenodd" d="M107.386 371.51C108.795 371.51 110.172 371.928 111.344 372.71C112.515 373.493 113.428 374.605 113.967 375.907C114.506 377.209 114.647 378.641 114.373 380.023C114.098 381.405 113.419 382.674 112.423 383.67C111.427 384.666 110.158 385.345 108.776 385.619C107.394 385.894 105.962 385.753 104.66 385.214C103.359 384.675 102.246 383.762 101.463 382.591C100.681 381.419 100.263 380.042 100.263 378.633C100.263 376.744 101.013 374.932 102.349 373.596C103.685 372.26 105.497 371.51 107.386 371.51Z" fill="#2C3858"/>
<path fill-rule="evenodd" clip-rule="evenodd" d="M94.2959 377.578H91.2065C89.6388 375.749 88.7626 373.428 88.7305 371.02C88.7305 363.786 97.1161 357.912 107.408 357.912C117.7 357.912 126.086 363.786 126.086 371.02C126.046 373.432 125.161 375.753 123.583 377.578H120.494C120.183 374.321 118.669 371.297 116.248 369.097C113.827 366.896 110.673 365.677 107.402 365.677C104.13 365.677 100.976 366.896 98.5548 369.097C96.1339 371.297 94.6202 374.321 94.3091 377.578H94.2959Z" fill="#B1A497"/>
<path fill-rule="evenodd" clip-rule="evenodd" d="M341.982 345.651H334.506V361.791H341.982V345.651Z" fill="#C4BBB1"/>
<path fill-rule="evenodd" clip-rule="evenodd" d="M338.244 364.144C341.09 364.144 343.872 364.988 346.238 366.568C348.604 368.149 350.448 370.396 351.537 373.025C352.626 375.655 352.911 378.547 352.355 381.338C351.8 384.129 350.43 386.693 348.418 388.705C346.406 390.717 343.842 392.088 341.051 392.643C338.26 393.198 335.367 392.913 332.738 391.824C330.109 390.735 327.862 388.891 326.281 386.525C324.7 384.159 323.856 381.377 323.856 378.531C323.859 374.716 325.375 371.058 328.073 368.36C330.771 365.663 334.429 364.146 338.244 364.144Z" fill="#54648F"/>
<path fill-rule="evenodd" clip-rule="evenodd" d="M338.244 372.476C339.653 372.476 341.031 372.894 342.203 373.677C343.374 374.46 344.287 375.573 344.826 376.876C345.365 378.178 345.505 379.61 345.23 380.992C344.954 382.374 344.275 383.644 343.278 384.64C342.281 385.635 341.011 386.313 339.628 386.587C338.246 386.861 336.814 386.719 335.512 386.178C334.211 385.638 333.099 384.723 332.317 383.551C331.535 382.378 331.119 381 331.121 379.591C331.121 377.701 331.871 375.89 333.207 374.554C334.543 373.218 336.355 372.467 338.244 372.467V372.476Z" fill="#2C3858"/>
<path fill-rule="evenodd" clip-rule="evenodd" d="M325.154 378.545H322.064C320.49 376.72 319.604 374.401 319.562 371.991C319.562 364.753 327.948 358.879 338.24 358.879C348.532 358.879 356.922 364.753 356.922 371.991C356.88 374.402 355.992 376.721 354.415 378.545H351.326C351.014 375.288 349.501 372.264 347.08 370.063C344.659 367.863 341.505 366.643 338.233 366.643C334.961 366.643 331.807 367.863 329.386 370.063C326.965 372.264 325.452 375.288 325.141 378.545H325.154Z" fill="#B1A497"/>
<path fill-rule="evenodd" clip-rule="evenodd" d="M375.432 366.205H367.96V382.345H375.432V366.205Z" fill="#C4BBB1"/>
<path fill-rule="evenodd" clip-rule="evenodd" d="M371.698 384.71C374.544 384.71 377.325 385.554 379.691 387.135C382.057 388.716 383.902 390.963 384.991 393.592C386.08 396.221 386.365 399.114 385.809 401.905C385.254 404.696 383.884 407.26 381.872 409.272C379.86 411.284 377.296 412.654 374.505 413.209C371.714 413.765 368.821 413.48 366.192 412.391C363.563 411.302 361.316 409.458 359.735 407.092C358.154 404.726 357.31 401.944 357.31 399.098C357.313 395.283 358.829 391.625 361.527 388.927C364.225 386.229 367.883 384.713 371.698 384.71Z" fill="#54648F"/>
<path fill-rule="evenodd" clip-rule="evenodd" d="M371.698 393.03C373.107 393.031 374.483 393.449 375.654 394.232C376.825 395.016 377.737 396.128 378.276 397.43C378.814 398.732 378.955 400.164 378.679 401.545C378.404 402.927 377.725 404.196 376.729 405.191C375.733 406.187 374.463 406.865 373.082 407.14C371.7 407.414 370.268 407.273 368.967 406.734C367.665 406.194 366.553 405.281 365.77 404.11C364.988 402.939 364.57 401.562 364.57 400.153C364.57 398.264 365.321 396.452 366.657 395.116C367.993 393.78 369.804 393.03 371.694 393.03H371.698Z" fill="#2C3858"/>
<path fill-rule="evenodd" clip-rule="evenodd" d="M358.603 399.098H355.514C353.938 397.274 353.052 394.955 353.012 392.544C353.012 385.306 361.397 379.432 371.689 379.432C381.981 379.432 390.367 385.306 390.367 392.544C390.326 394.955 389.441 397.274 387.864 399.098H384.775C384.459 395.845 382.942 392.826 380.522 390.629C378.101 388.432 374.949 387.215 371.68 387.215C368.411 387.215 365.26 388.432 362.839 390.629C360.418 392.826 358.902 395.845 358.586 399.098H358.603Z" fill="#C4BBB1"/>
<path fill-rule="evenodd" clip-rule="evenodd" d="M340.649 340.329L87.1241 339.989L135.394 363.517H385.093L340.649 340.329Z" fill="#5F6B8C"/>
<path fill-rule="evenodd" clip-rule="evenodd" d="M385.093 363.517H135.394V373.13H385.093V363.517Z" fill="#B7AFA8"/>
<path fill-rule="evenodd" clip-rule="evenodd" d="M338.244 336.485H137.42L89.9619 312.679V334.472L137.42 360.189L339.405 356.358L386.898 338.462L386.849 320.195L338.244 336.485Z" fill="#8F98AD"/>
<path fill-rule="evenodd" clip-rule="evenodd" d="M138.271 325.504L137.971 369.435L77.0041 338.846L77.9 300.453L138.271 325.504Z" fill="#7582A0"/>
<path fill-rule="evenodd" clip-rule="evenodd" d="M380.137 253.296C381.638 254.139 382.889 255.367 383.76 256.853C384.631 258.339 385.091 260.03 385.093 261.752V373.129H394.529C394.529 373.129 394.087 285.973 393.973 258.42C393.96 255.918 393.282 253.466 392.007 251.313C390.733 249.161 388.908 247.386 386.721 246.173L346.219 223.664L341.682 231.657L380.137 253.283V253.296Z" fill="#B7AFA8"/>
<path fill-rule="evenodd" clip-rule="evenodd" d="M385.093 290.391L321.95 264.4L236.108 284.574L271.932 307.413L334.939 304.682L385.093 290.391Z" fill="#B3AFC4"/>
<path fill-rule="evenodd" clip-rule="evenodd" d="M397.905 223.677C397.905 223.677 403.064 226.118 400.151 237.103C397.45 247.289 393.867 252.55 390.283 260.415C385.309 271.285 381.99 275.059 373.918 281.71C366.296 287.986 361.816 289.552 356.211 289.327C342.141 288.767 343.377 280.567 345.871 272.622C348.364 264.678 357.88 254.527 363.211 249.174C368.542 243.82 381.747 233.069 387.145 230.602C392.543 228.135 397.905 223.677 397.905 223.677Z" fill="#C4C0D5"/>
<path fill-rule="evenodd" clip-rule="evenodd" d="M394.767 235.832C387.241 255.304 376.332 270.196 362.041 280.509C375.564 262.441 381.54 246.477 394.767 235.832Z" fill="#A19BB9"/>
<path fill-rule="evenodd" clip-rule="evenodd" d="M348.814 206.844C348.814 206.844 356.759 201.526 371.676 204.823C388.089 208.455 399.922 222.755 400.143 226.568C400.363 230.381 395.557 230.152 385.093 237.103C374.629 244.054 365.179 262.877 357.557 273.862C352.663 280.924 351.542 287.31 341.669 286.189C330.229 284.892 322.691 275.01 319.553 269.418C316.415 263.826 323.128 245.815 325.957 238.083C331.337 223.368 348.801 206.853 348.801 206.853L348.814 206.844Z" fill="#D1CFDA"/>
<path fill-rule="evenodd" clip-rule="evenodd" d="M331.434 269.039C338.906 270.53 348.17 272.027 350.562 262.162C352.954 252.298 351.158 248.715 358.33 246.027C365.501 243.339 369.39 237.381 370.886 232.438C372.382 227.495 372.078 221.519 372.978 217.635C373.878 213.752 374.77 209.996 366.102 211.721C357.434 213.447 347.87 217.15 342.79 225.911C337.71 234.671 336.514 239.385 333.226 247.788C329.938 256.191 323.958 267.542 331.434 269.039Z" fill="#C4C0D5"/>
<path fill-rule="evenodd" clip-rule="evenodd" d="M345.041 268.558C344.507 259.1 346.268 252.113 350.518 243.454L327.705 238.074C325.264 246.314 321.884 251.95 317.845 257.798C323.234 266.903 331.681 271.409 345.041 268.558Z" fill="#E2C0A4"/>
<path fill-rule="evenodd" clip-rule="evenodd" d="M325.97 232.645L316.861 253.742C318.304 257.171 332.511 262.021 338.902 256.716C346.678 250.264 350.942 252.991 354.477 253.742L361.949 237.103L325.97 232.645Z" fill="#DAB292"/>
<path fill-rule="evenodd" clip-rule="evenodd" d="M351.039 201.451C361.41 205.075 366.044 218.822 361.406 232.138C356.767 245.453 337.838 251.53 327.467 247.907C317.095 244.284 318.406 231.657 323.053 218.337C324.342 214.643 326.275 210.3 328.61 207.648C334.696 200.741 343.545 198.821 351.039 201.469V201.451Z" fill="#E2C0A4"/>
<path fill-rule="evenodd" clip-rule="evenodd" d="M326.615 207.065C327.25 205.49 325.944 203.389 331.77 200.52C337.595 197.651 344.811 192.293 350.509 195.308C356.207 198.322 361.009 201.465 364.548 203.693C368.088 205.922 369.888 210.446 368.079 217.044C366.269 223.642 367.196 221.846 368.079 227.001C368.962 232.156 364.032 240.241 357.977 242.695C351.921 245.149 350.302 244.487 345.147 246.729C339.992 248.971 344.304 242.02 347.217 239.778C350.13 237.536 354.071 235.885 356.185 231.657C357.751 228.519 357.509 222.428 352.597 224.719C347.684 227.01 347.481 224.088 350.491 219.604C353.501 215.12 353.982 210.19 346.903 209.069C339.824 207.948 337.807 209.744 335.34 207.952C332.873 206.16 331.081 209.519 327.943 209.969C324.805 210.419 326.178 208.045 326.619 207.052L326.615 207.065Z" fill="#EAEAEA"/>
<path fill-rule="evenodd" clip-rule="evenodd" d="M346.303 262.917C344.498 260.56 340.623 268.5 329.236 263.773C316.755 258.596 323.653 252.457 320.498 251.071C306.838 245.074 280.481 253.662 270.061 259.664C264.641 262.789 261.539 270.424 261.605 277.027C261.684 284.225 266.137 297.139 270.516 302.85C274.536 308.093 281.686 312.189 287.882 311.306C299.799 309.607 333.014 301.535 343.434 295.532C348.854 292.408 351.82 290.042 352.076 279.644C352.261 272.45 350.686 268.646 346.303 262.935V262.917Z" fill="#3E4B6E"/>
<path fill-rule="evenodd" clip-rule="evenodd" d="M289.154 246.941C292.181 245.705 296.55 243.578 297.336 246.826C298.122 250.074 300.699 256.354 302.826 258.596C304.954 260.838 313.136 269.913 315.939 271.484C318.741 273.055 325.079 270.063 327.595 269.352C331.183 268.346 339.926 268.028 343.624 271.034C345.897 272.896 350.906 277.985 352.363 280.787C353.819 283.59 354.72 286.052 354.044 289.415C353.369 292.779 354.719 294.01 348.664 296.918C342.609 299.827 326.363 297.033 320.86 291.181C315.356 285.329 309.649 284.119 303.709 278.629C297.769 273.139 286.117 248.145 289.145 246.914L289.154 246.941Z" fill="#27365D"/>
<path fill-rule="evenodd" clip-rule="evenodd" d="M320.255 228.854C318.446 231.274 317.279 234.111 316.861 237.103C316.071 242.258 315.978 244.676 317.06 247.788C318.053 250.674 318.825 250.877 325.97 253.742C330.883 255.706 335.142 255.035 337.829 251.897C340.517 248.759 342.724 247.854 347.389 244.725C351.727 241.808 355.805 233.069 350.518 236.653C345.231 240.236 341.417 242.183 337.829 239.42C334.241 236.657 330.004 233.069 325.97 233.74C321.937 234.411 320.255 228.854 320.255 228.854Z" fill="#EAEAEA"/>
<path fill-rule="evenodd" clip-rule="evenodd" d="M325.97 237.103C327.113 237.209 329.091 237.571 330.582 238.895C328.376 239.954 326.01 239.928 325.97 237.103Z" fill="#DB9E9E"/>
<path d="M350.54 226.903C355.629 224.882 356.573 230.725 352.111 232.641M331.946 224.904C327.78 225.425 326.588 228.227 329.298 230.381L331.946 224.904Z" stroke="#CB9B75" stroke-width="2" stroke-linecap="round" stroke-linejoin="round"/>
<path fill-rule="evenodd" clip-rule="evenodd" d="M385.093 290.391L334.938 304.681L135.394 307.413V336.485L339.405 336.436L385.093 320.583V290.391Z" fill="#D1CFDA"/>
<path fill-rule="evenodd" clip-rule="evenodd" d="M338.906 220.941C338.906 221.563 339.996 221.638 340.795 222.031C341.382 222.318 341.528 223.033 342.402 222.958C345.804 222.671 338.915 217.715 338.906 220.941Z" fill="#EAEAEA"/>
<path fill-rule="evenodd" clip-rule="evenodd" d="M326.955 216.965C326.955 217.587 328.045 217.657 328.844 218.05C329.431 218.337 329.576 219.056 330.45 218.981C333.848 218.69 326.963 213.734 326.955 216.965Z" fill="#EAEAEA"/>
<path fill-rule="evenodd" clip-rule="evenodd" d="M314.257 358.795C322.51 354.743 317.841 345.153 321.429 332.001C325.017 318.849 322.625 284.185 314.853 275.217C307.081 266.249 293.633 256.213 292.437 250.176C291.241 244.138 232.361 267.445 218.318 267.15C204.274 266.854 159.142 263.517 149.278 262.502C139.414 261.487 126.942 253.393 113.415 254.893C102.655 256.09 97.275 263.279 93.9958 270.733C90.7166 278.188 89.525 288.965 90.1164 299.725C90.7078 310.485 123.283 322.949 131.651 328.073C136.162 330.835 142.336 334.847 140.84 342.099C139.406 349.072 151.498 353.803 160.043 351.923C178.579 347.84 200.686 351.221 216.535 351.923C232.383 352.625 257.483 355.895 271.826 356.358C286.17 356.822 305.995 362.855 314.266 358.795H314.257Z" fill="#ECE5DD"/>
<path fill-rule="evenodd" clip-rule="evenodd" d="M319.712 274.551C319.712 274.551 302.098 291.861 291.797 295.533C275.957 301.173 227.039 312.745 219.47 316.651C200.342 326.497 124.731 314.003 124.731 314.003C124.731 314.003 128.972 356.231 137.146 356.937C155.215 358.503 268.759 366.646 274.461 368.557C280.437 370.552 336.624 364.435 336.624 359.02C336.592 328.458 330.955 300.298 319.712 274.538V274.551Z" fill="#D9D1C7"/>
<path fill-rule="evenodd" clip-rule="evenodd" d="M219.249 265.433L225.229 264.992C225.838 270.769 231.88 280.805 229.201 292.068C229.188 292.122 229.155 292.169 229.11 292.2C229.065 292.232 229.009 292.246 228.954 292.24C228.9 292.234 228.849 292.209 228.811 292.17C228.773 292.13 228.751 292.078 228.747 292.024C228.235 280.033 226.624 271.991 219.24 265.442L219.249 265.433Z" fill="#D9D0C7"/>
<path fill-rule="evenodd" clip-rule="evenodd" d="M210.775 262.666L219.889 263.862C228.601 280.191 227.692 290.912 225.423 298.189C225.415 298.227 225.393 298.26 225.361 298.281C225.329 298.303 225.29 298.311 225.253 298.305C225.215 298.299 225.181 298.278 225.158 298.248C225.134 298.217 225.124 298.179 225.128 298.141C225.128 282.186 221.292 270.804 210.775 262.666Z" fill="#D9D0C7"/>
<path fill-rule="evenodd" clip-rule="evenodd" d="M127.498 250.789L184.281 260.649C140.663 264.621 155.594 278.475 144.834 276.356C139.004 275.213 127.123 258.742 127.498 250.789Z" fill="#DED6CD"/>
<path fill-rule="evenodd" clip-rule="evenodd" d="M246.109 304.121C244.584 305.008 242.837 305.443 241.074 305.375C237.481 305.123 233.271 303.874 229.894 304.699C228.054 305.252 226.264 305.962 224.545 306.822C223.468 307.361 221.116 308.204 219.412 308.791C219.194 308.87 218.997 309 218.839 309.171C218.681 309.341 218.565 309.547 218.503 309.771C218.44 309.995 218.432 310.231 218.479 310.459C218.526 310.687 218.626 310.9 218.772 311.081C218.861 311.191 218.977 311.274 219.11 311.322C219.242 311.371 219.385 311.382 219.523 311.355L229.025 309.47C229.071 309.46 229.118 309.466 229.16 309.487C229.202 309.508 229.235 309.542 229.254 309.585C229.274 309.627 229.279 309.675 229.268 309.72C229.258 309.766 229.233 309.807 229.197 309.836C228.226 310.618 226.289 312.07 224.558 312.696C222.934 313.292 219.126 313.641 216.027 313.835C215.668 313.857 215.323 313.986 215.038 314.206C214.753 314.425 214.541 314.726 214.429 315.068C214.316 315.41 214.309 315.778 214.409 316.124C214.508 316.47 214.709 316.778 214.986 317.008L219.624 320.892C220.152 321.334 220.808 321.594 221.496 321.634C223.941 321.775 230.119 321.987 235.177 320.994C241.797 319.692 255.311 316.337 255.311 316.337L246.109 304.121Z" fill="#E2C0A4"/>
<path fill-rule="evenodd" clip-rule="evenodd" d="M213.953 317.503C218.728 316.708 223.129 315.618 226.906 314.029C223.031 316.187 218.627 317.119 213.953 317.503Z" fill="#CB9C74"/>
<path fill-rule="evenodd" clip-rule="evenodd" d="M216.645 319.683C221.416 318.893 225.816 317.803 229.594 316.214C225.724 318.368 221.315 319.303 216.645 319.683Z" fill="#CB9C74"/>
<path fill-rule="evenodd" clip-rule="evenodd" d="M218.87 320.98C223.685 320.508 228.138 319.718 232.022 318.39C228.014 320.279 223.552 320.932 218.87 320.98Z" fill="#CB9C74"/>
<path fill-rule="evenodd" clip-rule="evenodd" d="M323.053 272.256C316.292 275.098 303.819 284.199 287.304 290.391C279.192 293.427 270.313 294.253 262.77 295.961C256.953 297.285 250.911 298.75 246.123 299.933C245.319 300.135 244.589 300.557 244.012 301.152C243.435 301.746 243.036 302.489 242.858 303.298C242.68 304.107 242.731 304.949 243.005 305.731C243.28 306.512 243.766 307.202 244.41 307.722C246.083 309.046 247.526 310.415 248.082 311.408C248.824 312.835 249.445 314.322 249.94 315.852C250.276 316.82 250.935 317.644 251.806 318.183C252.677 318.722 253.708 318.945 254.724 318.813C262.364 317.79 280.525 315.168 296.846 311.408C311.75 307.978 324.333 306.443 332.997 301.826C344.149 295.877 347.323 294.323 349.865 290.351C351.63 287.619 349.701 281.034 345.893 277.234C338.743 270.138 329.329 269.59 323.08 272.216L323.053 272.256Z" fill="#3E4B6E"/>
<path fill-rule="evenodd" clip-rule="evenodd" d="M135.394 363.517L87.1241 339.583V349.2L135.394 373.13V363.517Z" fill="#C4BBB1"/>
<path fill-rule="evenodd" clip-rule="evenodd" d="M137.42 302.108L87.1241 277.274V318.716L137.42 343.555V302.108Z" fill="#A5B0CC"/>
<path fill-rule="evenodd" clip-rule="evenodd" d="M135.394 352.408L130.61 350.277V361.394L135.394 363.53V352.408Z" fill="#C4BBB1"/>
<path fill-rule="evenodd" clip-rule="evenodd" d="M91.9082 329.384L87.1241 327.252V340.324L91.9082 342.461V329.384Z" fill="#C4BBB1"/>
<path fill-rule="evenodd" clip-rule="evenodd" d="M139.428 298.631C139.428 289.181 133.249 278.421 125.662 274.622L98.1268 260.869C90.5268 257.069 84.3568 261.655 84.3568 271.104V316.201C84.3568 325.65 90.5356 336.405 98.1268 340.205L125.662 353.993C133.258 357.793 139.428 353.207 139.428 343.758V298.631ZM135.844 299.774C135.844 291.556 130.477 282.199 123.866 278.894L99.9186 266.911C93.2985 263.606 87.945 267.595 87.945 275.813V315.053C87.945 323.275 93.3117 332.632 99.9186 335.937L123.866 347.915C130.486 351.221 135.844 347.231 135.844 339.014V299.774Z" fill="#C4BBB1"/>
<path fill-rule="evenodd" clip-rule="evenodd" d="M336.143 225.911C337.388 227.738 339.233 228.311 341.669 227.596C339.542 227.888 337.67 227.411 336.143 225.911Z" fill="#CCA47B"/>
<path fill-rule="evenodd" clip-rule="evenodd" d="M325.004 222.089C325.491 222.638 326.093 223.073 326.767 223.363C327.442 223.654 328.171 223.793 328.905 223.77C327.259 224.03 325.9 223.62 325.004 222.089Z" fill="#CCA47B"/>
<path fill-rule="evenodd" clip-rule="evenodd" d="M252.469 177.645C256.521 177.014 258.595 178.462 258.034 179.622C257.425 180.889 253.82 181.591 252.469 177.645Z" fill="#E3E3E3"/>
<path fill-rule="evenodd" clip-rule="evenodd" d="M256.062 177.817C256.339 177.864 256.595 177.992 256.799 178.185C257.003 178.378 257.145 178.627 257.207 178.901C257.268 179.175 257.246 179.461 257.145 179.723C257.043 179.985 256.865 180.21 256.634 180.37C256.404 180.53 256.131 180.618 255.85 180.622C255.569 180.627 255.293 180.547 255.058 180.394C254.823 180.241 254.638 180.021 254.529 179.762C254.419 179.504 254.389 179.219 254.442 178.943C254.508 178.579 254.716 178.257 255.02 178.046C255.323 177.835 255.698 177.753 256.062 177.817Z" fill="#3E3C43"/>
<path fill-rule="evenodd" clip-rule="evenodd" d="M252.469 177.667C254.852 177.853 257.103 178.214 258.277 179.609C257.876 177.376 254.963 176.701 252.469 177.667Z" fill="#403E46"/>
<path fill-rule="evenodd" clip-rule="evenodd" d="M261.976 180.924C265.678 179.689 267.854 180.717 267.514 181.895C267.139 183.18 263.869 184.411 261.976 180.924Z" fill="#E3E3E3"/>
<path fill-rule="evenodd" clip-rule="evenodd" d="M265.378 180.514C265.646 180.509 265.91 180.585 266.134 180.731C266.359 180.878 266.535 181.088 266.64 181.335C266.744 181.581 266.773 181.854 266.722 182.117C266.67 182.38 266.542 182.622 266.352 182.812C266.163 183.001 265.921 183.13 265.657 183.181C265.394 183.232 265.122 183.204 264.875 183.099C264.628 182.995 264.418 182.819 264.272 182.594C264.126 182.369 264.05 182.106 264.054 181.838C264.054 181.487 264.194 181.15 264.442 180.902C264.69 180.653 265.027 180.514 265.378 180.514Z" fill="#3E3C43"/>
<path fill-rule="evenodd" clip-rule="evenodd" d="M261.976 180.942C264.244 180.739 266.415 180.721 267.735 181.847C267.007 179.812 264.169 179.64 261.976 180.942Z" fill="#403E46"/>
<path fill-rule="evenodd" clip-rule="evenodd" d="M342.022 225.977C339.551 222.958 337.167 222.667 336.819 223.849C336.452 225.134 338.584 227.919 342.022 225.977Z" fill="#E3E3E3"/>
<path fill-rule="evenodd" clip-rule="evenodd" d="M339.361 223.819C339.137 223.683 338.878 223.616 338.617 223.627C338.355 223.638 338.103 223.726 337.892 223.881C337.68 224.035 337.52 224.249 337.43 224.495C337.34 224.74 337.324 225.007 337.386 225.261C337.448 225.516 337.583 225.746 337.776 225.924C337.968 226.101 338.209 226.217 338.467 226.258C338.726 226.299 338.991 226.262 339.228 226.152C339.466 226.042 339.665 225.864 339.802 225.641C339.893 225.493 339.954 225.328 339.981 225.156C340.008 224.983 340.001 224.808 339.96 224.638C339.919 224.469 339.845 224.309 339.742 224.169C339.639 224.028 339.51 223.909 339.361 223.819Z" fill="#3E3C43"/>
<path fill-rule="evenodd" clip-rule="evenodd" d="M342.013 226.003C340.204 224.622 338.377 223.448 336.66 223.695C338.359 222.371 340.852 223.73 342.013 226.003Z" fill="#403E46"/>
<path fill-rule="evenodd" clip-rule="evenodd" d="M330.366 222.031C327.895 219.012 325.511 218.721 325.163 219.9C324.796 221.188 326.928 223.973 330.366 222.031Z" fill="#E3E3E3"/>
<path fill-rule="evenodd" clip-rule="evenodd" d="M327.705 219.86C327.481 219.724 327.222 219.657 326.961 219.668C326.7 219.679 326.447 219.768 326.236 219.922C326.025 220.076 325.864 220.29 325.774 220.536C325.684 220.781 325.669 221.048 325.73 221.303C325.792 221.557 325.927 221.787 326.12 221.965C326.312 222.142 326.553 222.258 326.811 222.299C327.07 222.34 327.335 222.303 327.572 222.193C327.81 222.083 328.01 221.906 328.146 221.682C328.237 221.534 328.298 221.369 328.325 221.197C328.352 221.025 328.345 220.849 328.304 220.679C328.263 220.51 328.189 220.351 328.086 220.21C327.983 220.069 327.854 219.95 327.705 219.86Z" fill="#3E3C43"/>
<path fill-rule="evenodd" clip-rule="evenodd" d="M330.357 222.031C328.548 220.65 326.721 219.476 325.004 219.723C326.703 218.399 329.197 219.758 330.357 222.031Z" fill="#403E46"/>
</svg>
