<svg width="273" height="197" viewBox="0 0 273 197" fill="none" xmlns="http://www.w3.org/2000/svg">
<path fill-rule="evenodd" clip-rule="evenodd" d="M139.166 184.812C153.877 189.167 198.878 191.026 223.156 182.736C255.325 171.754 293.051 123.648 260.526 77.5689C245.056 55.649 218.199 55.4833 222.042 43.4806C225.886 31.4779 221.001 16.2313 206.947 7.45614C186.524 -5.29806 140.344 -1.14839 118.445 15.7604C96.5472 32.6692 93.0525 27.6236 79.8485 24.3616C66.6444 21.0997 52.9458 26.4373 49.4363 38.8879C45.9269 51.3386 49.4773 65.092 32.0138 76.0134C14.5503 86.9348 -0.943196 102.646 0.0442846 124.021C1.52469 156.043 23.9665 191.799 70.6451 186.891C121.411 181.552 126.191 180.974 139.166 184.814V184.812Z" fill="#E4ECFF"/>
<path fill-rule="evenodd" clip-rule="evenodd" d="M7.32275 163.592L271.026 160.555L249.47 193.577L28.877 197L7.32275 163.592Z" fill="#DEE5DE"/>
<path fill-rule="evenodd" clip-rule="evenodd" d="M212.927 117.429C212.927 117.429 235.326 112.156 221.964 82.066C220.244 78.1953 219.856 72.7608 216.479 67.8991C209.48 57.8178 201.595 52.5294 196.949 54.1308C192.162 55.7717 193.684 65.656 192.799 69.8254C190.027 82.9078 204.508 93.1252 203.455 101.413C201.384 117.725 212.927 117.429 212.927 117.429Z" fill="#C6D2C6"/>
<path fill-rule="evenodd" clip-rule="evenodd" d="M194.285 51.9998C210.006 67.3957 215.737 96.5845 216.189 119.202C243.145 83.6071 226.809 55.7884 194.285 51.9998Z" fill="#9FBCA8"/>
<path fill-rule="evenodd" clip-rule="evenodd" d="M217.27 143.245C219.181 109.255 213.757 90.5412 207.95 71.3123C207.95 71.3103 207.949 71.3084 207.948 71.3068C207.946 71.3052 207.945 71.3039 207.943 71.3029C207.941 71.302 207.939 71.3015 207.937 71.3014C207.935 71.3013 207.933 71.3017 207.931 71.3024C207.927 71.3039 207.924 71.3067 207.922 71.3104C207.92 71.314 207.92 71.3182 207.921 71.3221C213.618 91.8752 216.856 113.163 213.422 142.948L217.27 143.245Z" fill="#465D4D"/>
<path fill-rule="evenodd" clip-rule="evenodd" d="M251.269 84.9128C255.997 88.2782 249.875 98.1018 247.792 112.851C245.991 125.589 231.907 136.44 220.076 128.922C217.128 127.051 215.461 123.318 217.783 116.727C219.326 112.356 223.667 105.663 227.098 100.821C231.567 94.5166 233.378 89.5646 237.878 86.7292C242.048 84.1039 248.988 83.2949 251.262 84.9128H251.269Z" fill="#C6D2C6"/>
<path fill-rule="evenodd" clip-rule="evenodd" d="M218.064 133.485C238.852 119.716 242.858 84.9948 255.361 78.6333C258.641 117.155 247.934 137.666 218.064 133.485Z" fill="#9FBCA8"/>
<path fill-rule="evenodd" clip-rule="evenodd" d="M213.451 145.87C216.186 143.617 217.116 145.87 217.116 145.87C211.742 147.409 234.075 117.483 242.755 99.5984C231.196 117.374 218.728 133.637 213.451 145.87Z" fill="#465D4D"/>
<path fill-rule="evenodd" clip-rule="evenodd" d="M203.721 139.972H228.585L222.368 168.804H209.935L203.721 139.972Z" fill="#FFDEDC"/>
<path fill-rule="evenodd" clip-rule="evenodd" d="M207.736 96.7827C207.802 96.5753 207.834 96.3587 207.831 96.1411C207.667 84.9834 199.006 75.9736 188.371 75.9736H144.415C133.775 75.9704 125.114 84.9949 124.95 96.1526C124.947 96.3621 124.977 96.5708 125.038 96.7712C126.434 101.366 143.596 157.74 143.596 157.74L188.367 157.984C188.367 157.984 206.254 101.449 207.731 96.781L207.736 96.7827Z" fill="#707070"/>
<path fill-rule="evenodd" clip-rule="evenodd" d="M203.034 130.832C203.042 130.724 203.028 130.615 202.992 130.513C202.956 130.41 202.9 130.317 202.826 130.237C202.753 130.158 202.663 130.095 202.564 130.052C202.465 130.008 202.358 129.986 202.25 129.987H191.019C182.102 126.705 175.201 130.238 167.211 130.302C159.878 130.362 152.353 126.986 145.081 129.987H134.096C133.987 129.987 133.879 130.009 133.78 130.053C133.68 130.097 133.591 130.161 133.517 130.241C133.444 130.321 133.388 130.416 133.352 130.519C133.317 130.622 133.304 130.731 133.313 130.84C133.745 135.966 135.997 162.574 136.398 167.309C136.415 167.505 136.505 167.688 136.65 167.822C136.794 167.955 136.984 168.029 137.181 168.029H199.554C199.753 168.029 199.944 167.954 200.089 167.818C200.235 167.683 200.324 167.497 200.339 167.299C200.691 162.541 202.657 135.933 203.034 130.832Z" fill="#A9A9A9"/>
<path fill-rule="evenodd" clip-rule="evenodd" d="M128.288 124.798L143.827 125.243C146.824 127.484 146.197 154.868 146.344 172.195L132.432 171.884L128.288 124.792V124.798Z" fill="#505050"/>
<path fill-rule="evenodd" clip-rule="evenodd" d="M207.833 123.39L192.294 123.833C189.297 126.076 189.924 153.46 189.777 170.787L203.697 170.476L207.841 123.384L207.833 123.39Z" fill="#505050"/>
<path fill-rule="evenodd" clip-rule="evenodd" d="M145.081 114.489C145.081 113.372 144.638 112.3 143.849 111.51C143.061 110.719 141.991 110.275 140.876 110.275H124.554C124.068 110.275 123.587 110.373 123.139 110.563C122.692 110.753 122.287 111.031 121.949 111.38C121.611 111.73 121.347 112.145 121.172 112.599C120.997 113.053 120.915 113.538 120.931 114.025C121.052 117.754 121.239 123.461 121.363 127.302C121.395 128.269 121.698 129.207 122.237 130.009C122.776 130.812 123.529 131.446 124.411 131.839C130.621 134.611 134.514 148.873 135.313 168.029H145.081V114.489Z" fill="#A9A9A9"/>
<path fill-rule="evenodd" clip-rule="evenodd" d="M191.029 114.489C191.029 113.372 191.472 112.3 192.261 111.51C193.05 110.719 194.119 110.275 195.235 110.275H211.56C212.046 110.275 212.527 110.372 212.974 110.561C213.422 110.751 213.826 111.029 214.164 111.378C214.503 111.728 214.767 112.142 214.942 112.596C215.117 113.05 215.198 113.535 215.182 114.021C215.061 117.748 214.875 123.45 214.75 127.291C214.718 128.26 214.415 129.2 213.876 130.005C213.336 130.809 212.581 131.446 211.698 131.841C205.491 134.617 201.598 148.878 200.801 168.029H191.033V114.489H191.029Z" fill="#A9A9A9"/>
<path fill-rule="evenodd" clip-rule="evenodd" d="M154.637 155.411L164.061 154.669C163.142 158.642 162.957 162.955 163.734 167.719L156.066 166.977C156.079 163.351 155.469 159.429 154.628 155.411H154.637Z" fill="#FDBF99"/>
<path fill-rule="evenodd" clip-rule="evenodd" d="M182.191 155.278L172.57 154.536C173.507 158.509 173.697 162.823 172.897 167.586L180.725 166.844C180.712 163.218 181.336 159.297 182.199 155.278H182.191Z" fill="#FDBF99"/>
<path fill-rule="evenodd" clip-rule="evenodd" d="M167.058 171.946C167.088 172.013 167.1 172.087 167.094 172.16C167.088 172.233 167.064 172.304 167.024 172.366C166.984 172.427 166.93 172.478 166.865 172.513C166.801 172.548 166.728 172.566 166.655 172.566H153.168C153.118 172.566 153.07 172.554 153.026 172.532C152.982 172.51 152.944 172.477 152.914 172.438C152.885 172.398 152.865 172.352 152.856 172.304C152.847 172.255 152.849 172.205 152.863 172.158C153.21 171.009 154.306 167.727 155.798 166.878C157.62 165.831 161.727 165.634 163.548 166.681C164.967 167.501 166.463 170.607 167.058 171.946Z" fill="#FFDEDC"/>
<path fill-rule="evenodd" clip-rule="evenodd" d="M184.675 172.035C184.705 172.102 184.717 172.175 184.711 172.249C184.705 172.322 184.68 172.392 184.64 172.454C184.6 172.515 184.545 172.566 184.481 172.6C184.416 172.635 184.344 172.653 184.271 172.653H170.785C170.736 172.653 170.687 172.642 170.643 172.619C170.598 172.597 170.56 172.565 170.53 172.525C170.501 172.486 170.481 172.44 170.472 172.391C170.463 172.342 170.465 172.292 170.479 172.245C170.828 171.096 171.923 167.814 173.415 166.966C175.236 165.919 179.343 165.721 181.166 166.768C182.584 167.588 184.081 170.696 184.675 172.035Z" fill="#FFDEDC"/>
<path fill-rule="evenodd" clip-rule="evenodd" d="M154.952 69.1116L164.06 66.1252C164.481 69.233 165.808 74.5804 168.054 74.907C163.142 90.8673 158.053 85.1031 152.877 77.8178C155.744 77.8309 155.233 73.6681 154.952 69.1214V69.1116Z" fill="#FDBF99"/>
<path fill-rule="evenodd" clip-rule="evenodd" d="M153.917 75.1275C160.214 76.5304 164.64 70.6628 166.547 66.5772L164.919 61.3872L152.733 65.7502L153.917 75.1275Z" fill="#E9AF8B"/>
<path fill-rule="evenodd" clip-rule="evenodd" d="M155.47 51.2728C160.615 51.2728 167.134 55.4832 167.134 61.9497C167.134 63.2985 165.22 63.2115 164.986 64.7391C164.631 67.0658 162.543 69.4007 161.48 70.3836C159.633 72.095 157.877 74.0131 155.367 74.0131C152.822 74.0131 150.735 72.4035 149.078 70.4952C147.385 68.5442 146.785 64.767 146.541 61.5083C146.05 54.7448 150.324 51.2761 155.47 51.2761V51.2728Z" fill="#FDBF99"/>
<path fill-rule="evenodd" clip-rule="evenodd" d="M168.8 54.047C171.551 54.8494 173.634 56.5082 173.385 59.7046C173.091 63.5425 170.241 65.8446 167.608 63.9314C165.821 62.6335 164.604 61.411 164.604 58.7923C164.604 56.1735 166.581 53.3989 168.797 54.047H168.8Z" fill="#D2D2D2"/>
<path fill-rule="evenodd" clip-rule="evenodd" d="M152.134 70.1603C152.753 69.8042 153.51 69.5121 154.946 69.4514C154.353 70.7641 153.173 71.2941 152.134 70.1603Z" fill="#EC9A86"/>
<path d="M162.505 63.7122C164.634 61.5364 163.324 59.8562 161.724 60.8095M151.853 64.736C150.687 65.9355 150.803 67.5156 152.562 67.5041L151.853 64.736Z" stroke="#D39D7D" stroke-width="3" stroke-linecap="round" stroke-linejoin="round"/>
<path fill-rule="evenodd" clip-rule="evenodd" d="M157.42 61.1192C157.385 60.939 157.28 60.7803 157.128 60.6778C156.976 60.5754 156.789 60.5376 156.609 60.5728L153.033 61.2783C152.943 61.2958 152.858 61.3309 152.781 61.3817C152.705 61.4325 152.64 61.498 152.589 61.5743C152.538 61.6506 152.503 61.7363 152.486 61.8263C152.468 61.9164 152.469 62.009 152.488 62.0987L152.754 63.4557C152.772 63.5457 152.807 63.6314 152.858 63.7078C152.908 63.7841 152.974 63.8496 153.05 63.9004C153.126 63.9513 153.212 63.9864 153.301 64.0039C153.391 64.0213 153.484 64.0207 153.573 64.0021L157.152 63.2949C157.24 63.2774 157.325 63.2426 157.401 63.1923C157.476 63.142 157.541 63.0772 157.592 63.0018C157.642 62.9264 157.677 62.8417 157.695 62.7526C157.713 62.6635 157.713 62.5718 157.695 62.4827L157.428 61.1257L157.42 61.1192Z" fill="#E2AC8A"/>
<path d="M157.42 61.1192C157.385 60.939 157.28 60.7803 157.128 60.6778C156.976 60.5754 156.789 60.5376 156.609 60.5728L153.033 61.2783C152.943 61.2958 152.858 61.3309 152.781 61.3817C152.705 61.4325 152.64 61.498 152.589 61.5743C152.538 61.6506 152.503 61.7363 152.486 61.8263C152.468 61.9164 152.469 62.009 152.488 62.0987L152.754 63.4557C152.772 63.5457 152.807 63.6314 152.858 63.7078C152.908 63.7841 152.974 63.8496 153.05 63.9004C153.126 63.9513 153.212 63.9864 153.301 64.0039C153.391 64.0213 153.484 64.0207 153.573 64.0021L157.152 63.2949C157.24 63.2774 157.325 63.2426 157.401 63.1923C157.476 63.142 157.541 63.0772 157.592 63.0018C157.642 62.9264 157.677 62.8417 157.695 62.7526C157.713 62.6635 157.713 62.5718 157.695 62.4827L157.428 61.1257L157.42 61.1192Z" stroke="#707070" stroke-width="0.9" stroke-linecap="round" stroke-linejoin="round"/>
<path fill-rule="evenodd" clip-rule="evenodd" d="M150.517 62.4348C150.5 62.3449 150.465 62.2593 150.414 62.1831C150.363 62.1069 150.298 62.0415 150.222 61.9907C150.145 61.9399 150.06 61.9047 149.97 61.8871C149.88 61.8696 149.788 61.87 149.699 61.8884L146.12 62.5956C146.031 62.6131 145.947 62.6479 145.871 62.6982C145.796 62.7485 145.731 62.8133 145.68 62.8887C145.63 62.9641 145.595 63.0488 145.577 63.1379C145.559 63.227 145.559 63.3187 145.577 63.4078L145.844 64.7648C145.861 64.8548 145.896 64.9405 145.947 65.0168C145.997 65.0932 146.063 65.1587 146.139 65.2095C146.215 65.2603 146.301 65.2955 146.39 65.3129C146.48 65.3304 146.573 65.3298 146.662 65.3112L150.239 64.6056C150.329 64.5882 150.414 64.553 150.49 64.5022C150.567 64.4514 150.632 64.386 150.683 64.3096C150.733 64.2333 150.769 64.1476 150.786 64.0576C150.803 63.9676 150.803 63.875 150.784 63.7852L150.517 62.4282V62.4348Z" fill="#E2AC8A"/>
<path fill-rule="evenodd" clip-rule="evenodd" d="M146.648 63.3097C146.699 63.7314 146.75 64.1514 146.799 64.5731L146.91 65.2623L146.663 65.3115C146.573 65.3301 146.481 65.3307 146.391 65.3133C146.301 65.2958 146.216 65.2607 146.14 65.2098C146.064 65.159 145.998 65.0935 145.947 65.0172C145.897 64.9408 145.862 64.8552 145.844 64.7651L145.584 63.4081C145.566 63.319 145.566 63.2273 145.584 63.1382C145.602 63.0492 145.637 62.9645 145.688 62.889C145.738 62.8136 145.803 62.7489 145.878 62.6986C145.954 62.6483 146.039 62.6134 146.128 62.5959L146.578 62.5073L146.647 63.3097H146.648Z" fill="#DFD5CE"/>
<path d="M150.517 62.4348C150.5 62.3449 150.465 62.2593 150.414 62.1831C150.363 62.1069 150.298 62.0415 150.222 61.9907C150.145 61.9399 150.06 61.9047 149.97 61.8871C149.88 61.8696 149.788 61.87 149.699 61.8884L146.12 62.5956C146.031 62.6131 145.947 62.6479 145.871 62.6982C145.796 62.7485 145.731 62.8133 145.68 62.8887C145.63 62.9641 145.595 63.0488 145.577 63.1379C145.559 63.227 145.559 63.3187 145.577 63.4078L145.844 64.7648C145.861 64.8548 145.896 64.9405 145.947 65.0168C145.997 65.0932 146.063 65.1587 146.139 65.2095C146.215 65.2603 146.301 65.2955 146.39 65.3129C146.48 65.3304 146.573 65.3298 146.662 65.3112L150.239 64.6056C150.329 64.5882 150.414 64.553 150.49 64.5022C150.567 64.4514 150.632 64.386 150.683 64.3096C150.733 64.2333 150.769 64.1476 150.786 64.0576C150.803 63.9676 150.803 63.875 150.784 63.7852L150.517 62.4282V62.4348Z" stroke="#707070" stroke-width="0.9" stroke-linecap="round" stroke-linejoin="round"/>
<path fill-rule="evenodd" clip-rule="evenodd" d="M150.66 62.9467C151.048 62.3216 152.014 62.2986 152.55 62.4545L152.755 63.2109C151.895 62.5365 151.304 62.6776 150.752 63.6064L150.66 62.95V62.9467Z" fill="#707070"/>
<path fill-rule="evenodd" clip-rule="evenodd" d="M146.579 61.2899C146.579 61.2899 141.49 58.9468 143.989 55.4715C146.003 52.6821 144.721 50.9838 146.33 49.1444C147.914 47.3395 150.069 46.8325 153.226 46.9326C154.414 46.9703 156.446 47.1147 158.125 46.565C161.41 45.487 164.257 46.8144 164.917 49.6679C165.572 52.477 166.098 52.0241 167.95 53.5074C169.802 54.9907 169.691 56.8317 170.243 58.8614C170.837 61.0323 168.671 61.851 169.206 63.5903C170.528 67.886 164.829 69.4727 164.829 69.4727C164.829 69.4727 161.991 66.2895 162.942 64.9932C164.731 62.555 165.174 58.7974 161.426 59.5424C159.065 60.0117 160.771 58.0935 158.509 57.2009C149.421 53.619 146.57 59.1978 146.576 61.2899H146.579Z" fill="#E7E7E7"/>
<path fill-rule="evenodd" clip-rule="evenodd" d="M150.274 47.9903C150.274 47.9903 148.569 47.5735 147.205 49.9051C146.223 51.5919 147.259 53.4181 146.324 54.5257C145.523 55.4757 144.523 57.0887 146.426 59.0659C144.603 57.8779 144.218 55.4561 145.903 54.1975C146.843 53.492 146.067 50.3793 146.722 49.4211C147.967 47.6161 150.267 47.9903 150.267 47.9903H150.274Z" fill="#BEBEBE"/>
<path fill-rule="evenodd" clip-rule="evenodd" d="M161.898 48.8472C161.898 48.8472 163.161 48.8029 163.596 50.9934C163.911 52.5801 162.8 53.9207 163.205 55.0118C163.55 55.9487 163.891 57.4731 162.155 58.7857C163.663 58.1179 164.448 56.1686 163.563 54.81C163.072 54.0552 164.276 51.5907 164.027 50.6735C163.9 50.1876 163.629 49.752 163.248 49.4253C162.868 49.0986 162.397 48.8963 161.898 48.8456V48.8472Z" fill="#BEBEBE"/>
<path fill-rule="evenodd" clip-rule="evenodd" d="M148.17 56.3159C143.948 54.89 152.729 51.4968 152.554 47.7015C153.467 51.7134 145.573 54.3223 148.17 56.3159Z" fill="#BEBEBE"/>
<path fill-rule="evenodd" clip-rule="evenodd" d="M166.506 53.5132C165.504 55.5724 167.934 61.3022 165.175 63.3336C167.675 61.5287 164.192 55.2705 166.506 53.5132Z" fill="#BEBEBE"/>
<path fill-rule="evenodd" clip-rule="evenodd" d="M152.328 53.8186C154.204 47.0305 158.809 48.7567 161.267 46.5662C158.667 48.6861 153.029 46.5038 152.328 53.8186Z" fill="#BEBEBE"/>
<path fill-rule="evenodd" clip-rule="evenodd" d="M156.654 54.9228C156.836 49.2833 160.206 50.0298 161.508 47.9591C160.099 49.9937 155.963 49.024 156.654 54.9228Z" fill="#BEBEBE"/>
<path fill-rule="evenodd" clip-rule="evenodd" d="M168.055 74.9006C165.271 82.5879 155.348 81.7527 153.931 77.3077C150.313 91.7471 148.167 107.54 148.889 123.162C160.979 122.834 172.619 122.206 183.526 121.087C179.759 105.816 174.984 90.9627 168.055 74.9006Z" fill="#FFDEDC"/>
<path fill-rule="evenodd" clip-rule="evenodd" d="M148.114 104.9C154.903 105.271 161.452 104.998 167.65 103.787C162.101 106.084 155.639 106.557 148.114 104.9Z" fill="#D4B6B4"/>
<path fill-rule="evenodd" clip-rule="evenodd" d="M159.78 108.385C166.344 108.549 171.941 108.221 176.531 107.386C171.504 108.928 165.99 109.412 159.78 108.385Z" fill="#D4B6B4"/>
<path fill-rule="evenodd" clip-rule="evenodd" d="M157.491 61.1634L157.643 62.0019C157.643 62.0019 161.126 60.4201 163.172 59.8262C164.003 59.585 164.288 60.3906 164.603 60.1018C164.631 60.0756 164.562 59.0484 163.57 59.1173C161.475 59.2814 157.491 61.1585 157.491 61.1585V61.1634Z" fill="#707070"/>
<path fill-rule="evenodd" clip-rule="evenodd" d="M154.81 76.6595C154.81 76.6595 154.81 87.1346 157.176 93.9555C159.542 100.776 157.675 119.932 157.675 119.932C156.552 118.127 149.605 122.841 147.73 126.851C146.224 130.077 144.763 116.663 146.317 111.936C147.696 107.739 147.557 101.137 147.483 99.2308C147.48 99.1927 147.465 99.1564 147.44 99.1271C147.415 99.0977 147.382 99.0767 147.345 99.0667C147.308 99.0561 147.267 99.0581 147.231 99.0723C147.194 99.0865 147.163 99.1122 147.142 99.1455C146.641 99.7739 145.459 101.032 143.017 102.662C140.702 104.24 138.509 105.992 136.459 107.903L127.854 105.171C127.854 105.171 129.081 99.559 135.371 92.0341C139.619 86.9476 141.252 81.349 144.168 78.9075C149.081 74.7939 154.813 76.6645 154.813 76.6645L154.81 76.6595Z" fill="#F1B5B5"/>
<path fill-rule="evenodd" clip-rule="evenodd" d="M126.26 105.177L127.106 102.704C129.512 97.1087 139.077 102.267 141.93 99.7718C145.76 96.4212 147.472 95.1118 148.954 96.0438C150.809 97.2105 149.609 102.914 149.832 107.983C150.115 114.654 151.297 121.091 151.297 121.091C147.662 132.787 144.301 132.436 141.455 109.328L126.26 105.177Z" fill="#D79696"/>
<path fill-rule="evenodd" clip-rule="evenodd" d="M148.749 109.501C148.749 109.501 151.825 111.279 152.911 113.158C153.996 115.037 153.947 116.745 153.923 118.13C153.898 119.515 152.416 120.691 151.036 121.083C149.655 121.476 147.647 120.478 147.089 119.68C146.53 118.883 147.878 117.411 147.384 115.877C146.889 114.343 145.51 112.561 145.51 112.561L148.749 109.496V109.501Z" fill="#FFC7A5"/>
<path fill-rule="evenodd" clip-rule="evenodd" d="M149.121 115.35C150.369 117.811 148.834 119.985 147.788 121.083C148.466 119.729 149.823 117.89 149.121 115.35Z" fill="#E1A47E"/>
<path fill-rule="evenodd" clip-rule="evenodd" d="M150.534 115.88C151.783 118.341 150.247 120.514 149.202 121.612C149.88 120.258 151.238 118.42 150.534 115.88Z" fill="#E1A47E"/>
<path fill-rule="evenodd" clip-rule="evenodd" d="M152.256 115.88C153.506 118.341 151.97 120.514 150.925 121.612C151.603 120.258 152.96 118.42 152.256 115.88Z" fill="#E1A47E"/>
<path fill-rule="evenodd" clip-rule="evenodd" d="M150.051 110.23C151.073 109.206 136.326 100.368 132.181 100.972C127.375 101.671 127.072 107.863 127.074 109.427C127.075 109.528 127.112 109.626 127.177 109.703C127.242 109.781 127.332 109.833 127.431 109.852C134.8 111.245 141.269 112.671 146.329 115.881C147.058 112.285 147.744 111.188 150.051 110.23Z" fill="#F1B5B5"/>
<path fill-rule="evenodd" clip-rule="evenodd" d="M167.65 74.579C167.65 74.579 180.666 74.4051 182.934 80.6337C183.426 81.989 178.875 91.9062 181.839 101.489C184.939 111.517 188.062 124.037 185.794 126.603C184.446 128.131 182.355 118.747 176.936 118.817C171.517 118.888 168.155 121.093 168.155 121.093C168.155 121.093 170.087 115.447 170.185 111.197C170.262 107.898 169.611 100.609 168.625 97.3472C167.639 94.0852 165.492 85.0016 165.664 82.4156C165.911 78.709 167.65 74.5823 167.65 74.5823V74.579Z" fill="#F1B5B5"/>
<path fill-rule="evenodd" clip-rule="evenodd" d="M177.789 89.0964C177.789 89.0964 176.084 92.3879 179.787 99.0743C184.63 107.82 187.852 111.198 187.852 111.198L196.514 100.507L177.789 89.0964Z" fill="#D79696"/>
<path fill-rule="evenodd" clip-rule="evenodd" d="M166.652 121.093C176.739 121.093 185.276 114.44 186.958 123.661C188.967 134.707 177.158 130.351 167.071 130.351C156.983 130.351 146.032 136.169 146.239 126.772C146.45 117.223 156.556 121.087 166.652 121.087V121.093Z" fill="#C6C6C6"/>
<path fill-rule="evenodd" clip-rule="evenodd" d="M187.998 158.571C182.856 157.692 180.232 157.862 176.117 158.307C166.812 159.313 157.004 161.38 147.445 158.571C147.445 158.571 144.457 128.295 149.584 122.096C151.336 119.979 153.826 117.703 155.742 117.587C161.801 117.217 162.585 119.818 167.098 118.817C170.462 118.074 172.023 116.269 177.394 116.563C182.296 116.832 183.072 119.352 184.667 122.096C188.712 129.054 187.998 158.571 187.998 158.571Z" fill="#E3E3E3"/>
<path fill-rule="evenodd" clip-rule="evenodd" d="M175.727 84.8846C175.727 84.8846 177.899 94.2751 179.577 96.5493C181.256 98.8235 182.931 101.083 184.411 100.942C185.892 100.801 191.515 101.043 191.319 98.6971C191.122 96.3507 186.999 85.7739 185.815 82.9058C184.631 80.0376 181.482 77.7355 179.214 77.3073" fill="#F1B5B5"/>
<path fill-rule="evenodd" clip-rule="evenodd" d="M186.639 96.039C190.104 95.7601 193.64 99.1238 194.172 103.406C194.679 107.441 190.795 110.774 186.639 110.774C182.482 110.774 179.654 107.751 179.654 103.685C179.654 99.6193 182.491 96.3721 186.639 96.039Z" fill="#D79696"/>
<path fill-rule="evenodd" clip-rule="evenodd" d="M191.324 99.0933C187.957 95.1422 184.21 97.2884 182.466 98.6978C180.722 100.107 181.112 106.538 182.903 107.855C184.695 109.173 188.157 109.532 191.019 107.386C192.735 106.1 192.984 101.041 191.324 99.0933Z" fill="#F1B5B5"/>
<path fill-rule="evenodd" clip-rule="evenodd" d="M176.305 98.6973C179.592 98.6973 182.259 99.4832 182.259 100.45C182.259 101.416 179.592 102.202 176.305 102.202C173.018 102.202 170.351 101.418 170.351 100.45C170.351 99.4816 173.018 98.6973 176.305 98.6973Z" fill="#EDEDED"/>
<path fill-rule="evenodd" clip-rule="evenodd" d="M189.532 102.202C189.234 102.315 186.994 101.413 186.218 101.326C185.63 101.26 184.986 101.641 184.252 101.93C183.565 102.2 182.779 102.369 182.515 102.601C182.133 102.939 182.418 103.913 182.9 104.077C183.381 104.242 186.067 103.247 186.067 103.247L187.606 104.255L189.53 102.195L189.532 102.202Z" fill="#DBA98A"/>
<path fill-rule="evenodd" clip-rule="evenodd" d="M181.97 101.638C182.622 101.627 183.262 101.811 183.809 102.166C184.357 102.521 184.786 103.032 185.043 103.632C185.3 104.232 185.373 104.896 185.252 105.538C185.132 106.18 184.823 106.771 184.366 107.237C183.909 107.703 183.324 108.022 182.685 108.153C182.046 108.285 181.383 108.223 180.78 107.975C180.176 107.728 179.66 107.306 179.296 106.764C178.933 106.221 178.739 105.583 178.739 104.93C178.732 104.064 179.068 103.231 179.674 102.614C180.28 101.996 181.106 101.645 181.97 101.638ZM181.875 102.393C182.377 102.385 182.871 102.526 183.292 102.8C183.714 103.074 184.045 103.467 184.243 103.93C184.441 104.393 184.497 104.904 184.404 105.399C184.311 105.894 184.073 106.349 183.721 106.708C183.368 107.067 182.917 107.313 182.425 107.414C181.933 107.515 181.422 107.468 180.957 107.277C180.492 107.086 180.094 106.761 179.814 106.343C179.534 105.925 179.384 105.433 179.384 104.93C179.381 104.599 179.443 104.27 179.566 103.964C179.69 103.657 179.872 103.377 180.104 103.141C180.335 102.905 180.61 102.717 180.914 102.588C181.218 102.459 181.545 102.391 181.875 102.388V102.393Z" fill="#D79696"/>
<path fill-rule="evenodd" clip-rule="evenodd" d="M182.266 100.45C178.426 102.319 174.455 102.363 170.351 100.542C170.024 103.581 170.816 106.516 173.381 109.291C175.149 109.919 177.147 109.982 179.44 109.291C181.923 106.375 182.943 103.366 182.268 100.45H182.266Z" fill="#C28C8C"/>
<path fill-rule="evenodd" clip-rule="evenodd" d="M182.199 103.548C182.204 103.472 182.237 103.4 182.291 103.346C182.346 103.292 182.418 103.26 182.494 103.256C185.191 103.108 187.484 102.585 189.443 101.751C189.508 101.723 189.581 101.718 189.65 101.737C189.718 101.756 189.778 101.798 189.819 101.856C191.011 103.551 191.319 105.45 190.438 107.626C190.423 107.663 190.401 107.697 190.373 107.726C188.816 109.317 186.851 109.767 184.477 109.074C184.431 109.061 184.388 109.037 184.353 109.004C182.682 107.439 182.083 105.589 182.206 103.548H182.199Z" fill="#FDBF99"/>
<path fill-rule="evenodd" clip-rule="evenodd" d="M182.229 104.88C184.993 105.005 187.418 104.716 189.711 103.58C187.461 104.417 185.03 104.677 182.229 104.88Z" fill="#E1A47E"/>
<path fill-rule="evenodd" clip-rule="evenodd" d="M182.672 106.542C185.438 106.665 187.862 106.378 190.155 105.24C187.905 106.077 185.474 106.337 182.672 106.542Z" fill="#E1A47E"/>
<path fill-rule="evenodd" clip-rule="evenodd" d="M183.116 108.202C185.882 108.326 188.305 108.038 190.598 106.901C188.348 107.738 185.918 107.997 183.116 108.202Z" fill="#E1A47E"/>
<path fill-rule="evenodd" clip-rule="evenodd" d="M153.966 61.9591C154.821 61.4422 156.157 61.9591 156.157 61.9591C156.157 61.9591 155.231 63.0502 154.284 62.9862C153.686 62.9452 153.662 62.1445 153.966 61.9591Z" fill="#FCE0D0"/>
<path fill-rule="evenodd" clip-rule="evenodd" d="M154.509 61.8755C154.617 61.88 154.722 61.9164 154.811 61.9802C154.899 62.044 154.966 62.1323 155.005 62.2343C155.044 62.3362 155.051 62.4473 155.027 62.5536C155.003 62.66 154.949 62.7569 154.87 62.8324C154.792 62.9079 154.693 62.9587 154.586 62.9784C154.479 62.998 154.369 62.9857 154.268 62.943C154.168 62.9004 154.083 62.8291 154.023 62.7382C153.963 62.6473 153.931 62.5407 153.931 62.4317C153.934 62.2813 153.997 62.1383 154.105 62.0341C154.213 61.9298 154.359 61.8728 154.509 61.8755Z" fill="#766358"/>
<path fill-rule="evenodd" clip-rule="evenodd" d="M153.749 62.1999C153.731 61.4484 155.295 61.432 156.158 61.9587C155.521 61.8225 154.422 61.8635 153.749 62.1999Z" fill="#675E59"/>
<path fill-rule="evenodd" clip-rule="evenodd" d="M147.582 63.3507C148.436 62.8322 149.771 63.3507 149.771 63.3507C149.771 63.3507 148.844 64.4402 147.898 64.3762C147.3 64.3352 147.277 63.5345 147.582 63.3507Z" fill="#FCE0D0"/>
<path fill-rule="evenodd" clip-rule="evenodd" d="M148.122 63.2672C148.23 63.2711 148.335 63.3067 148.423 63.3696C148.512 63.4326 148.579 63.5201 148.619 63.6214C148.658 63.7226 148.666 63.8331 148.643 63.9392C148.62 64.0453 148.567 64.1423 148.489 64.2181C148.412 64.294 148.314 64.3454 148.207 64.366C148.101 64.3866 147.991 64.3755 147.891 64.334C147.791 64.2925 147.705 64.2224 147.644 64.1326C147.583 64.0427 147.55 63.9369 147.549 63.8284C147.552 63.6781 147.615 63.5353 147.723 63.4313C147.832 63.3274 147.977 63.2707 148.127 63.2738L148.122 63.2672Z" fill="#766358"/>
<path fill-rule="evenodd" clip-rule="evenodd" d="M147.362 63.5902C147.344 62.8387 148.91 62.8239 149.771 63.3506C149.134 63.2128 148.035 63.2555 147.362 63.5902Z" fill="#675E59"/>
<path fill-rule="evenodd" clip-rule="evenodd" d="M68.4749 132.325H63.4065L52.7505 168.804H57.8189L68.4749 132.325Z" fill="#A9A9A9"/>
<path fill-rule="evenodd" clip-rule="evenodd" d="M86.6016 132.325H91.67L102.326 168.804H97.2575L86.6016 132.325Z" fill="#A9A9A9"/>
<path fill-rule="evenodd" clip-rule="evenodd" d="M98.0155 126.096C98.015 125.545 97.7966 125.018 97.4082 124.629C97.0198 124.239 96.4932 124.021 95.9439 124.02H59.3694C58.8201 124.021 58.2935 124.239 57.9051 124.629C57.5167 125.018 57.2983 125.545 57.2979 126.096V130.249C57.2983 130.799 57.5167 131.327 57.9051 131.716C58.2935 132.105 58.8201 132.324 59.3694 132.324H95.9439C96.4932 132.324 97.0198 132.105 97.4082 131.716C97.7966 131.327 98.015 130.799 98.0155 130.249V126.096Z" fill="#93939B"/>
<path fill-rule="evenodd" clip-rule="evenodd" d="M80.9604 160.834H90.0525L89.8363 167.291C87.429 169.982 84.4666 169.677 81.7956 167.096L80.9604 160.834Z" fill="#E7AD89"/>
<path fill-rule="evenodd" clip-rule="evenodd" d="M100.687 160.834H109.779L109.168 167.488L101.524 167.096L100.687 160.834Z" fill="#E7AD89"/>
<path fill-rule="evenodd" clip-rule="evenodd" d="M94.5866 169.17C93.7972 166.412 90.8954 165.283 88.2113 166.52C86.351 167.417 84.1599 167.306 81.8099 166.884C80.8404 167.811 80.6734 170.459 81.4431 172.442C85.8122 173.193 90.1814 172.86 94.544 172.292C94.544 172.292 94.8977 170.281 94.58 169.175L94.5866 169.17Z" fill="#B0B0B0"/>
<path fill-rule="evenodd" clip-rule="evenodd" d="M90.7237 165.63C93.2718 165.63 95.3418 167.652 95.3418 170.141C95.3418 172.63 93.2718 174.651 90.7237 174.651C88.1756 174.651 86.104 172.63 86.104 170.141C86.104 167.652 88.174 165.63 90.7237 165.63Z" fill="#D3D3D3"/>
<path fill-rule="evenodd" clip-rule="evenodd" d="M114.881 168.154C114.062 165.396 111.035 164.267 108.24 165.504C106.303 167.27 104.02 167.004 101.573 165.868C100.563 166.795 100.389 169.444 101.19 171.424C105.741 172.177 110.197 172.043 114.743 171.473C114.743 171.473 115.211 169.265 114.881 168.154Z" fill="#B0B0B0"/>
<path fill-rule="evenodd" clip-rule="evenodd" d="M110.722 165.067C113.536 165.067 115.818 166.912 115.818 169.183C115.818 171.454 113.536 173.298 110.722 173.298C107.909 173.298 105.626 171.445 105.626 169.169C105.626 166.894 107.919 165.067 110.722 165.067Z" fill="#D3D3D3"/>
<path fill-rule="evenodd" clip-rule="evenodd" d="M95.3484 113.545C86.2482 110.894 83.1777 109.594 76.8319 112.853C75.7216 113.424 74.482 116.742 74.7866 118.735C76.0033 126.693 83.5068 132.9 93.5503 137.511C93.7036 137.582 93.8307 137.699 93.9134 137.847C93.996 137.994 94.03 138.164 94.0105 138.332C93.1032 145.814 95.7038 154.025 97.1744 163.894C97.2045 164.1 97.3092 164.287 97.4684 164.42C97.6277 164.553 97.8302 164.622 98.0374 164.614L110.565 164.178C110.667 164.174 110.768 164.15 110.86 164.106C110.952 164.062 111.035 164 111.103 163.923C111.171 163.847 111.222 163.757 111.255 163.66C111.287 163.562 111.299 163.46 111.291 163.358C110.943 158.945 109.245 137.38 109.05 134.901C109.037 134.747 109.001 134.596 108.942 134.453C105.536 126.263 98.997 115.747 95.35 113.53L95.3484 113.545Z" fill="#FFDEDC"/>
<path fill-rule="evenodd" clip-rule="evenodd" d="M53.8595 111.74C53.8595 111.74 52.2432 119.153 53.4272 118.858C54.6112 118.562 56.614 117.735 60.1414 117.276C69.5888 116.04 83.6232 122.417 92.6022 120.339C95.6809 119.629 98.7204 117.868 99.9043 116.881C101.088 115.893 103.456 112.629 100.887 112.728C98.3175 112.826 74.3461 112.728 70.591 112.235C66.836 111.743 53.8563 111.743 53.8563 111.743L53.8595 111.74Z" fill="#E2C6C4"/>
<path fill-rule="evenodd" clip-rule="evenodd" d="M73.8975 118.595C73.8975 118.595 79.1067 121.957 82.0675 123.242C85.0283 124.527 89.6087 127.562 91.5919 128.821C100.964 134.808 98.9857 139.284 99.0758 142.259C99.1937 146.415 101.105 161.756 101.205 167.489C101.247 170.009 98.912 168.028 96.7389 167.928C94.5658 167.828 90.1393 166.15 90.1393 166.15L90.9286 145.784L73.8975 118.597V118.595Z" fill="#E7CECC"/>
<path fill-rule="evenodd" clip-rule="evenodd" d="M79.2254 116.236C71.7742 112.029 63.4126 108.976 57.0652 112.236C55.9565 112.805 55.308 116.348 55.4652 119.751C55.8321 127.724 64.9929 133.993 75.0003 138.597C75.23 138.703 75.4198 138.879 75.5419 139.101C75.6639 139.322 75.7117 139.577 75.6783 139.828C74.7269 147.158 75.3901 154.226 76.7493 163.925C76.7774 164.127 76.8775 164.312 77.031 164.446C77.1845 164.579 77.3811 164.653 77.5845 164.652H92.3476C92.4499 164.652 92.5512 164.632 92.6452 164.591C92.7393 164.551 92.8242 164.492 92.8946 164.417C92.9651 164.343 93.0198 164.255 93.0552 164.159C93.0907 164.063 93.1062 163.96 93.1009 163.858C92.8716 159.37 91.7482 137.311 91.6647 135.693C91.6615 135.631 91.6499 135.569 91.6303 135.509C88.6826 126.624 83.7485 121.58 79.2254 116.236Z" fill="#FFDEDC"/>
<path fill-rule="evenodd" clip-rule="evenodd" d="M53.859 111.74C53.859 111.74 52.9338 116.863 58.7539 116.28C66.6144 115.492 83.6178 122.417 92.5968 120.339C95.6755 119.629 98.7149 117.868 99.8989 116.881C101.083 115.893 103.451 112.629 100.881 112.728C98.3121 112.826 74.3407 112.728 70.5856 112.235C66.8306 111.743 53.8508 111.743 53.8508 111.743L53.859 111.74Z" fill="#E2C6C4"/>
<path fill-rule="evenodd" clip-rule="evenodd" d="M69.9532 62.132L79.9197 61.1475C80.1293 65.6483 81.7211 67.9832 82.9771 70.3739C79.3056 78.0677 72.5734 75.3046 67.8325 72.0721C69.1049 69.1268 70.2595 66.9265 69.9532 62.1369V62.132Z" fill="#E7AD89"/>
<path fill-rule="evenodd" clip-rule="evenodd" d="M68.0542 63.283L84.6301 66.051C79.0524 70.1285 73.4944 71.748 68.0542 63.283Z" fill="#DDA17B"/>
<path fill-rule="evenodd" clip-rule="evenodd" d="M74.7393 41.6867C84.1785 41.1025 85.5066 52.2979 85.5066 57.8423C85.5066 62.6007 80.9409 68.2829 77.6067 68.5799C73.4996 68.9458 66.656 62.7943 66.656 57.2582C66.656 51.722 64.1996 42.3463 74.7393 41.6949V41.6867Z" fill="#E7AD89"/>
<path fill-rule="evenodd" clip-rule="evenodd" d="M71.0166 57.1697C71.9075 56.9974 72.7312 56.9645 73.7792 56.7135C73.3191 57.89 71.7732 58.1574 71.0166 57.1697Z" fill="#E6D0C2"/>
<path fill-rule="evenodd" clip-rule="evenodd" d="M72.3987 56.8199C72.7409 56.8199 73.0193 57.0382 73.0193 57.3122C73.0193 57.5862 72.7409 57.8045 72.3987 57.8045C72.0564 57.8045 71.7764 57.5862 71.7764 57.3122C71.7764 57.0382 72.0548 56.8199 72.3987 56.8199Z" fill="#453C37"/>
<path fill-rule="evenodd" clip-rule="evenodd" d="M82.5633 55.3838C81.6643 55.4855 80.8667 55.7005 79.7925 55.7759C80.5834 56.7604 82.1375 56.5521 82.5633 55.3838Z" fill="#E6D0C2"/>
<path fill-rule="evenodd" clip-rule="evenodd" d="M81.142 55.4594C80.8145 55.5628 80.6147 55.8549 80.695 56.1158C80.7752 56.3767 81.1076 56.4981 81.4352 56.3963C81.7627 56.2946 81.9625 56.0009 81.8822 55.74C81.802 55.4791 81.4695 55.3577 81.142 55.4594Z" fill="#453C37"/>
<path fill-rule="evenodd" clip-rule="evenodd" d="M70.4668 57.0107C72.147 56.95 73.3588 56.7679 74.2186 56.4135C73.153 57.1978 71.9024 57.3969 70.4668 57.0107Z" fill="#514D4A"/>
<path fill-rule="evenodd" clip-rule="evenodd" d="M79.2256 55.7274C80.9025 55.6765 82.1209 55.4731 82.9774 55.1301C81.9948 55.8335 80.7442 56.0326 79.2256 55.7274Z" fill="#453C37"/>
<path fill-rule="evenodd" clip-rule="evenodd" d="M75.9577 48.652L72.9151 41.6866C72.9151 41.6866 67.5109 40.9253 65.12 44.3366C58.0357 54.4605 68.4755 62.3857 68.4755 62.3857C67.6593 60.7675 67.3019 58.9559 67.4422 57.1482C67.7287 52.1273 72.5761 51.7335 75.9577 48.6585V48.652Z" fill="#564D47"/>
<path fill-rule="evenodd" clip-rule="evenodd" d="M72.2317 42.813C65.2063 42.457 62.7991 50.6283 64.2402 54.1824C64.1632 48.7496 66.6835 43.9616 72.2317 42.813Z" fill="#271D17"/>
<path fill-rule="evenodd" clip-rule="evenodd" d="M72.6083 43.9042C65.0212 44.3882 63.8094 53.3045 66.0922 58.1975C64.9361 52.9468 65.9399 44.9559 72.6083 43.9042Z" fill="#271D17"/>
<path fill-rule="evenodd" clip-rule="evenodd" d="M72.2319 41.1079C73.7614 44.0795 75.0355 47.0691 75.8003 49.9684V49.8043C75.3679 45.4742 73.6861 42.9292 72.2319 41.1079Z" fill="#271D17"/>
<path fill-rule="evenodd" clip-rule="evenodd" d="M72.8735 41.6146C72.8735 41.6146 78.1139 38.9105 82.691 42.8534C89.6247 48.8309 85.5143 56.5954 85.5143 56.5954C84.761 53.2399 84.8985 50.4111 82.298 49.7039C79.5927 48.9655 77.9698 49.6448 75.8081 48.6636L72.8735 41.6146Z" fill="#564D47"/>
<path fill-rule="evenodd" clip-rule="evenodd" d="M74.7388 42.481C80.4393 41.6311 85.1081 45.6101 85.8745 50.7229C85.8485 49.3827 85.5155 48.0665 84.9012 46.8757C84.2869 45.6849 83.4079 44.6514 82.3318 43.855C81.2557 43.0586 80.0114 42.5205 78.6949 42.2822C77.3784 42.044 76.0249 42.112 74.7388 42.481Z" fill="#271D17"/>
<path fill-rule="evenodd" clip-rule="evenodd" d="M72.2314 41.1079C73.761 44.0795 75.035 47.0691 75.7998 49.9684V49.8043C75.3674 45.4742 73.6856 42.9292 72.2314 41.1079Z" fill="#271D17"/>
<path fill-rule="evenodd" clip-rule="evenodd" d="M75.5498 63.2683C76.3473 65.0913 79.4702 64.6417 79.7912 62.6251C78.6776 63.0304 77.2939 63.2815 75.5498 63.2683Z" fill="#E57562"/>
<path d="M77.606 56.5953C78.261 58.6628 78.0481 59.7671 76.5923 59.4619" stroke="#D99675" stroke-width="3" stroke-linecap="round" stroke-linejoin="round"/>
<path fill-rule="evenodd" clip-rule="evenodd" d="M82.5825 69.4514C80.2341 75.319 70.7572 77.293 68.7692 69.4514C65.1189 73.3697 65.7658 78.3661 67.3887 83.6069C73.8949 86.1584 79.6954 86.5899 84.3593 83.6069C86.1295 79.0126 86.0771 74.3148 82.5825 69.4514Z" fill="white"/>
<path d="M67.6104 70.4015C70.1061 74.8317 72.8425 76.4119 75.7984 76.2002C78.6479 75.9934 81.7037 74.1557 84.9494 69.9552" stroke="#BCBCBC" stroke-width="2.26" stroke-linecap="round" stroke-linejoin="round"/>
<path fill-rule="evenodd" clip-rule="evenodd" d="M93.1409 71.7513C89.7404 70.7558 86.2616 70.0521 82.742 69.6477C81.1372 77.7682 76.5928 83.4307 76.5928 83.4307C76.5928 83.4307 71.4163 77.9159 68.7486 69.7527C64.9543 71.2672 60.577 73.0557 57.1773 75.9715C59.2374 89.551 56.0309 98.5887 55.8672 115.391C70.0784 115.063 78.1993 117.573 85.9993 117.48C90.2079 117.429 93.2915 116.293 96.7895 114.214C96.4767 101.15 92.6643 85.9346 93.1409 71.7496V71.7513Z" fill="#FFDEDC"/>
<path fill-rule="evenodd" clip-rule="evenodd" d="M57.7795 105.013C54.3504 99.213 50.3808 80.089 59.7037 78.8288C61.7622 78.5515 64.3841 81.0489 66.603 85.6859C68.7548 90.1802 68.7319 99.0587 70.0649 101.878C71.0475 103.955 77.1214 106.707 76.8119 108.635C76.5024 110.563 75.0957 111.155 69.8422 110.044C67.5135 109.552 66.5752 108.679 64.0156 109.444C61.7852 110.11 59.4303 107.813 57.7795 105.013Z" fill="#E2C6C4"/>
<path fill-rule="evenodd" clip-rule="evenodd" d="M87.8983 106.559C87.5413 105.484 90.24 101.144 90.2662 98.7734C90.3203 93.6868 90.0828 92.3627 89.6734 89.209C89.3983 87.0759 89.0086 81.4971 92.1904 81.7202C93.6643 81.8236 95.6687 82.4619 96.1862 85.0561C96.7037 87.6502 97.8598 97.5132 98.1694 100.257C98.4789 103 99.5908 106.93 98.7753 107.893C97.9597 108.856 94.0917 111.081 93.1403 111.193C90.9327 111.452 89.1559 110.341 87.8999 106.559H87.8983Z" fill="#E2C6C4"/>
<path fill-rule="evenodd" clip-rule="evenodd" d="M70.6445 102.765L71.8285 99.6127C76.0945 101.711 81.4036 105.037 83.7667 109.041L82.4222 109.961L70.6445 102.765Z" fill="#EEEEEE"/>
<path d="M70.4614 101.657C75.1303 103.992 79.6501 106.529 83.5541 109.729M71.1918 100.026C75.8623 102.361 80.084 105.323 83.767 109.041L71.1918 100.026ZM70.9936 100.583C75.6641 102.918 80.0333 105.768 83.7179 109.486L70.9936 100.583ZM70.617 101.101C75.2875 103.436 79.8793 106.01 83.5541 109.729L70.617 101.101Z" stroke="#ADADAD" stroke-width="1.13" stroke-linecap="round" stroke-linejoin="round"/>
<path fill-rule="evenodd" clip-rule="evenodd" d="M83.7671 109.422C84.0095 104.837 86.1891 98.8383 89.8721 96.1407L91.5621 104.063L84.9511 111.871L83.7671 109.422Z" fill="#EEEEEE"/>
<path fill-rule="evenodd" clip-rule="evenodd" d="M83.7671 109.153C84.8365 105.371 87.5958 100.457 91.4017 97.2308L92.3515 105.535L85.3458 111.278L83.7671 109.161V109.153Z" fill="#E2E2E2"/>
<path fill-rule="evenodd" clip-rule="evenodd" d="M84.6299 108.92C86.0677 105.955 88.6437 101.933 92.4495 98.7037L93.1406 107.008L86.1348 112.751L84.6299 108.928V108.92Z" fill="#CCCCCC"/>
<path fill-rule="evenodd" clip-rule="evenodd" d="M84.9508 108.438L94.7191 99.2081L94.1623 108.295L86.3444 115.008C85.989 115.902 84.9311 116.261 84.0517 115.39L71.6321 109.732L69.4131 101.568L82.7678 108.51C83.3115 109.431 84.6314 109.232 84.9508 108.435V108.438Z" fill="#707070"/>
<path fill-rule="evenodd" clip-rule="evenodd" d="M82.7354 107.463L84.3631 116.714L86.3627 116.282L84.9511 107.463H82.7354Z" fill="#626262"/>
<path fill-rule="evenodd" clip-rule="evenodd" d="M63.5704 78.7411C58.4824 72.5289 54.5979 76.4439 54.1935 80.6182C53.7562 85.1436 52.4772 100.402 60.9404 105.897L68.1459 101.276C68.0641 97.6468 66.2021 81.9538 63.5688 78.7411H63.5704Z" fill="#FFDEDC"/>
<path fill-rule="evenodd" clip-rule="evenodd" d="M58.1498 106.787C58.1498 106.787 55.5968 103.013 55.4428 99.9593C55.2283 95.7358 65.2685 90.8265 70.0028 96.8664C71.891 99.2702 71.0264 101.075 71.0264 101.075L58.1498 106.79V106.787Z" fill="#F0D3D1"/>
<path fill-rule="evenodd" clip-rule="evenodd" d="M63.6263 95.9552C69.6854 95.6763 70.3519 100.385 70.0604 103.373C69.7919 106.153 67.9201 109.116 65.0919 109.266C60.9979 109.489 56.9693 105.201 56.5992 102.558C55.8132 96.9791 61.0372 96.075 63.6263 95.9552Z" fill="#FFDEDC"/>
<path fill-rule="evenodd" clip-rule="evenodd" d="M67.4695 103.889C69.5984 103.889 71.3179 105.394 71.3179 107.245C71.3179 109.095 69.5984 110.6 67.4695 110.6C65.3406 110.6 63.6211 109.097 63.6211 107.245C63.6211 105.392 65.3455 103.889 67.4695 103.889Z" fill="#C4A5A3"/>
<path fill-rule="evenodd" clip-rule="evenodd" d="M64.6265 107.529C64.3416 106.265 65.0883 104.678 68.542 104.575C69.2364 104.555 70.3647 105.067 70.3647 105.067L70.6922 106.175C70.6922 106.175 69.4869 106.145 69.559 106.633C69.7588 108.006 71.0934 107.691 71.9286 107.617C73.1235 107.493 74.2949 107.2 75.4085 106.749C75.4351 106.738 75.4643 106.733 75.4931 106.737C75.5218 106.74 75.5492 106.751 75.5723 106.769C75.5983 106.787 75.6186 106.812 75.6308 106.841C75.643 106.87 75.6466 106.902 75.6411 106.933C75.5395 107.753 75.2612 109.978 75.1973 110.485C75.1878 110.549 75.1552 110.608 75.1056 110.649C74.6749 111 72.546 112.618 70.2452 112.154C64.1713 110.946 64.9065 108.79 64.6216 107.529H64.6265Z" fill="#E7AD89"/>
<path fill-rule="evenodd" clip-rule="evenodd" d="M71.1768 108.985C72.6666 108.934 74.1402 108.658 75.5475 108.165C74.2227 108.919 72.6842 109.208 71.1768 108.985Z" fill="#CF9877"/>
<path fill-rule="evenodd" clip-rule="evenodd" d="M71.1509 110.1C72.6407 110.048 74.1142 109.771 75.5217 109.279C74.1962 110.032 72.6583 110.321 71.1509 110.1Z" fill="#CF9877"/>
<path fill-rule="evenodd" clip-rule="evenodd" d="M71.123 111.219C72.6133 111.165 74.0868 110.885 75.4938 110.391C74.1697 111.147 72.6314 111.438 71.123 111.219Z" fill="#CF9877"/>
<path fill-rule="evenodd" clip-rule="evenodd" d="M89.7179 75.3761C91.7993 69.0097 95.9408 72.2208 97.811 75.9734C99.84 80.041 107.679 92.6967 101.741 100.868L93.3616 99.1452C91.0329 95.0612 88.4307 79.3256 89.7179 75.3761Z" fill="#FFDEDC"/>
<path fill-rule="evenodd" clip-rule="evenodd" d="M93.1408 101.21C93.1408 101.21 89.9786 95.2142 93.1408 93.8704C105.868 88.4556 106.916 95.4259 105.955 99.0587C104.994 102.691 93.1408 101.21 93.1408 101.21Z" fill="#F0D3D1"/>
<path fill-rule="evenodd" clip-rule="evenodd" d="M96.6506 93.567C93.5965 94.1708 92.4649 96.3105 92.5353 98.5863C92.5792 99.3384 92.7859 100.072 93.1412 100.736L94.7199 99.3608C94.7199 99.3608 94.5561 100.952 94.4972 101.784C94.3121 104.452 97.6971 106.262 99.8358 105.898C104.65 105.077 105.916 98.5715 104.912 95.956C103.909 93.3406 100.515 92.8024 96.649 93.567H96.6506Z" fill="#FFDEDC"/>
<path fill-rule="evenodd" clip-rule="evenodd" d="M97.4511 100.171C99.4899 100.171 101.144 101.782 101.144 103.767C101.144 105.753 99.4899 107.363 97.4511 107.363C95.4123 107.363 93.7583 105.751 93.7583 103.767C93.7583 101.784 95.4123 100.171 97.4511 100.171Z" fill="#C4A5A3"/>
<path fill-rule="evenodd" clip-rule="evenodd" d="M99.6965 102.507C99.0906 101.359 97.7494 100.159 95.0817 101.285C94.8571 101.407 94.6545 101.566 94.4823 101.756L94.4627 103.492C94.4627 103.492 94.9114 103.402 94.9753 103.6C95.3994 104.923 93.5014 105.241 92.7268 105.38C91.3365 105.622 89.5892 105.794 88.8195 105.863C88.7861 105.866 88.7542 105.878 88.7278 105.899C88.7013 105.92 88.6814 105.947 88.6705 105.979C88.6586 106.011 88.6569 106.046 88.6657 106.079C88.6745 106.112 88.6934 106.141 88.7196 106.163L92.1438 109.248C92.1839 109.284 92.2343 109.307 92.2879 109.313C92.7792 109.371 95.2569 109.622 96.3427 108.957C101.627 105.723 100.196 103.454 99.6965 102.507Z" fill="#E7AD89"/>
<path fill-rule="evenodd" clip-rule="evenodd" d="M89.7148 107.061C91.1968 106.989 92.6642 106.735 94.084 106.303C92.7166 107.086 91.2411 107.227 89.7148 107.061Z" fill="#CF9877"/>
<path fill-rule="evenodd" clip-rule="evenodd" d="M90.1587 107.882C91.6413 107.81 93.1094 107.555 94.5295 107.122C93.1604 107.906 91.6849 108.048 90.1587 107.882Z" fill="#CF9877"/>
<path fill-rule="evenodd" clip-rule="evenodd" d="M90.9565 108.938C92.4391 108.867 93.9072 108.612 95.3273 108.18C93.9583 108.963 92.4828 109.104 90.9565 108.938Z" fill="#CF9877"/>
</svg>
