<svg width="231" height="199" viewBox="0 0 231 199" fill="none" xmlns="http://www.w3.org/2000/svg">
<path fill-rule="evenodd" clip-rule="evenodd" d="M9.4501 113.081C-0.771779 103.374 -4.82903 80.2708 8.23591 71.568C30.1152 56.9935 43.8719 37.4854 63.7235 32.6079C83.5751 27.7304 96.339 32.4939 108.104 29.763C153.639 19.1957 156.588 49.1291 169.736 53.1923C182.885 57.2556 195.103 55.301 204.268 71.6241C220.469 100.481 203.052 111.35 201.837 126.225C200.623 141.1 207.524 140.876 209.938 153.6C215.203 181.36 188.172 199.648 160.577 194.77C147.931 192.536 106.673 192.788 59.4948 196.803C35.9687 198.804 14.237 192.092 5.43471 160.098C-0.26338 139.373 17.3772 120.597 9.46006 113.083L9.4501 113.081Z" fill="#E4ECFF"/>
<path fill-rule="evenodd" clip-rule="evenodd" d="M178.676 19.6021H75.064V102.406H178.676V19.6021Z" fill="#C3D2F8"/>
<path fill-rule="evenodd" clip-rule="evenodd" d="M101.732 46.2801C104.82 46.5552 107.688 48.0011 109.751 50.3233C109.751 50.3233 115.911 50.2153 116.163 55.707C116.362 60.0844 110.935 60.7746 110.935 60.7746C109.801 63.1273 103.628 63.9076 101.327 62.027C101.327 62.027 97.6748 64.6838 94.7978 64.0156C90.3538 62.9853 87.1957 59.3562 87.3293 56.5193C87.5984 50.7935 93.8986 49.209 93.8986 49.209C93.8986 49.209 96.0479 45.8079 101.732 46.2801Z" fill="#D6DFF7"/>
<path fill-rule="evenodd" clip-rule="evenodd" d="M83.8604 32.8523C91.6161 33.5065 95.9205 38.9322 95.9205 38.9322C95.9205 38.9322 105.185 38.7701 105.564 47.0287C105.865 53.6108 97.7009 54.6511 97.7009 54.6511C95.9963 58.1882 86.7135 59.3646 83.2523 56.5337C83.2523 56.5337 77.7596 60.5349 73.4312 59.5246C66.7482 57.9761 61.9991 52.5224 62.2005 48.2491C62.5993 39.6464 72.0814 37.2557 72.0814 37.2557C72.0814 37.2557 75.3113 32.1301 83.8604 32.8543V32.8523Z" fill="white"/>
<path fill-rule="evenodd" clip-rule="evenodd" d="M158.998 63.174C155.86 63.4435 152.939 64.8952 150.824 67.2372C150.824 67.2372 144.544 67.1292 144.287 72.6489C144.087 77.0503 149.618 77.7425 149.618 77.7425C150.774 80.1072 157.066 80.8935 159.411 79.0009C159.411 79.0009 163.135 81.6717 166.068 81.0015C170.6 79.9652 173.82 76.316 173.682 73.4652C173.407 67.7114 166.985 66.1169 166.985 66.1169C166.985 66.1169 164.792 62.6918 159.01 63.174H158.998Z" fill="white"/>
<path fill-rule="evenodd" clip-rule="evenodd" d="M231 163.601H5.4248V199H231V163.601Z" fill="#E9E9E9"/>
<path fill-rule="evenodd" clip-rule="evenodd" d="M181.168 0H73.4307V105.365H181.168V0ZM125.234 4.5034H78.5167V99.9331H125.234V4.5034ZM129.291 4.5034V99.9331H176.084V4.5034H129.291Z" fill="#ECE5DD"/>
<path fill-rule="evenodd" clip-rule="evenodd" d="M137.2 105.569C138.722 105.441 139.617 105.901 139.649 106.405C139.681 106.909 138.253 107.39 137.119 107.538C135.43 107.76 134.084 106.371 134.583 106.309C135.245 106.225 135.52 105.709 137.2 105.569Z" fill="#727B91"/>
<path fill-rule="evenodd" clip-rule="evenodd" d="M137.412 106.341C138.573 106.269 139.544 106.693 139.581 107.285C139.619 107.877 138.706 108.42 137.546 108.486C136.385 108.552 135.415 108.136 135.377 107.541C135.339 106.947 136.252 106.409 137.412 106.341Z" fill="#ECD3BD"/>
<path fill-rule="evenodd" clip-rule="evenodd" d="M129.497 104.381L130.318 103.781C134.332 105.053 134.28 107.36 137.235 107.12C137.73 107.093 138.221 107.001 138.692 106.845C138.901 106.768 139.098 106.661 139.276 106.527C139.444 106.393 139.514 106.221 139.585 106.199C139.697 106.165 139.851 106.845 139.101 107.412C138.194 108.102 136.076 108.212 134.924 107.568C134.051 107.074 133.817 106.349 132.44 105.539C131.218 104.821 130.709 104.709 129.497 104.373V104.381Z" fill="#B9BECC"/>
<path fill-rule="evenodd" clip-rule="evenodd" d="M100.364 87.4434C102.147 85.9389 104.737 85.1206 106.385 81.6536L112.093 88.2836C109.9 90.5504 110.809 93.7393 111.577 96.8183C106.218 95.932 102.123 93.5713 100.364 87.4434Z" fill="#EBC2A0"/>
<path fill-rule="evenodd" clip-rule="evenodd" d="M105.865 80.5094C105.865 80.5094 106.663 88.936 111.924 91.4688C114.957 92.9292 115.94 86.6213 115.94 86.6213C113.055 82.3979 111.294 77.8405 105.865 80.5094Z" fill="#DDAE88"/>
<path fill-rule="evenodd" clip-rule="evenodd" d="M114.492 71.138C118.918 70.5538 121.98 73.8928 121.98 79.5166C121.98 81.6852 120.497 85.0423 119.648 86.7888C118.294 89.5697 115.75 91.6423 113.268 90.7721C111.802 90.2579 109.878 88.8115 108.682 86.4127C107.934 84.9162 107.416 83.6979 107.229 82.6955C106.896 80.925 107.36 79.8647 107.326 78.1781C107.215 72.5544 111.42 71.5441 114.504 71.138H114.492Z" fill="#EBC2A0"/>
<path d="M117.688 82.8975C117.321 84.0718 117.887 85.7583 116.221 85.1241" stroke="#D6A681" stroke-width="2" stroke-linecap="round" stroke-linejoin="round"/>
<path fill-rule="evenodd" clip-rule="evenodd" d="M114.002 87.4954C114.756 87.9567 115.581 88.2893 116.444 88.4797C115.343 89.2799 114.005 88.6197 114 87.4954H114.002Z" fill="#DE806C"/>
<path fill-rule="evenodd" clip-rule="evenodd" d="M104.159 161.246V169.649C107.927 171.874 112.134 172.808 116.974 171.782C111.954 168.821 111.536 165.18 112.638 161.318L104.159 161.25V161.246Z" fill="#EBC2A0"/>
<path fill-rule="evenodd" clip-rule="evenodd" d="M102.846 174.795C102.846 174.795 104.994 174.995 106.449 174.865C107.831 174.747 108.513 174.294 109.541 174.637C111.18 175.185 118.754 175.455 121.703 174.591C121.703 174.591 123.458 170.933 120.425 169.103C118.599 168.002 117.295 167.668 113.706 169.503C111.95 170.397 106.202 168.373 104.709 168.303C100.207 168.074 101.351 174.807 102.841 174.807L102.846 174.795Z" fill="#3E4B6E"/>
<path fill-rule="evenodd" clip-rule="evenodd" d="M112.637 135.617L99.7778 139.884C100.892 147.062 101.849 154.31 102.318 161.809C102.349 162.346 102.493 162.871 102.739 163.349C102.986 163.828 103.329 164.249 103.748 164.585C104.167 164.922 104.651 165.167 105.17 165.304C105.689 165.441 106.23 165.468 106.76 165.382C107.867 165.189 109.002 165.223 110.095 165.484C110.471 165.575 110.862 165.583 111.241 165.507C111.62 165.431 111.978 165.274 112.291 165.046C112.603 164.817 112.862 164.523 113.05 164.185C113.238 163.846 113.35 163.47 113.379 163.083C114.111 153.08 113.533 142.507 112.637 135.613V135.617Z" fill="#A5B0CC"/>
<path fill-rule="evenodd" clip-rule="evenodd" d="M114.875 162.537V170.939C118.643 173.164 122.849 174.098 127.69 173.072C122.67 170.111 122.251 166.47 123.354 162.609L114.875 162.541V162.537Z" fill="#EBC2A0"/>
<path fill-rule="evenodd" clip-rule="evenodd" d="M113.565 176.085C113.565 176.085 115.71 176.285 117.166 176.155C118.547 176.037 119.229 175.585 120.258 175.927C121.897 176.475 129.471 176.745 132.42 175.881C132.42 175.881 134.174 172.224 131.142 170.395C129.315 169.293 128.012 168.959 124.423 170.795C122.666 171.69 116.918 169.665 115.425 169.595C110.923 169.367 112.068 176.099 113.559 176.099L113.565 176.085Z" fill="#495984"/>
<path fill-rule="evenodd" clip-rule="evenodd" d="M123.354 136.907L110.495 141.174C111.607 148.348 112.566 155.601 113.035 163.099C113.066 163.636 113.209 164.161 113.456 164.639C113.702 165.118 114.045 165.539 114.464 165.875C114.883 166.212 115.368 166.456 115.887 166.593C116.405 166.729 116.947 166.755 117.477 166.668C118.583 166.475 119.717 166.51 120.81 166.77C121.186 166.861 121.577 166.87 121.956 166.794C122.336 166.718 122.694 166.561 123.007 166.333C123.319 166.104 123.579 165.81 123.767 165.471C123.955 165.132 124.067 164.756 124.096 164.369C124.826 154.366 124.249 143.793 123.354 136.899V136.907Z" fill="#A5B0CC"/>
<path fill-rule="evenodd" clip-rule="evenodd" d="M111.023 93.6793C106.661 94.1115 101.653 89.8642 101.106 86.4131C93.1592 91.3426 87.7482 99.101 87.3256 111.569C87.1561 116.494 86.4982 121.682 86.6018 126.9L114.552 127.726C115.286 122.008 114.59 117.783 115.361 111.521C116.263 104.185 112.688 99.2951 111.023 93.6833V93.6793Z" fill="#A5B0CC"/>
<path fill-rule="evenodd" clip-rule="evenodd" d="M110.662 104.465C110.463 99.9473 109.384 95.776 106.808 94.2095C103.353 92.1088 99.3757 92.3989 97.5594 97.2304C96.4928 100.069 96.7779 106.949 97.4876 112.817C97.9342 116.512 99.7386 122.688 105.568 123.041C108.661 123.229 105.211 127.206 104.079 127.42L116.44 127.724C115.385 127.868 111.93 120.152 117.349 117.421C122.23 114.96 118.805 108.294 119.207 104.849C119.445 102.824 110.742 106.491 110.652 104.465H110.662Z" fill="#8897BE"/>
<path d="M104.049 94.4595C94.3018 101.804 94.3138 121.054 95.7553 123.254" stroke="#DCDCDD" stroke-linecap="round" stroke-linejoin="round"/>
<path fill-rule="evenodd" clip-rule="evenodd" d="M101.106 86.4131L102.019 85.1367C104.583 88.8179 107.968 91.3046 111.433 92.0969L110.995 93.6974C108.014 94.7237 101.297 89.9982 101.106 86.4131Z" fill="#8897BE"/>
<path fill-rule="evenodd" clip-rule="evenodd" d="M121.881 80.4412C121.881 80.4412 124.022 78.6226 122.768 73.9491C121.952 70.9122 119.101 70.0219 116.348 68.9076C113.527 67.7672 111.637 70.382 109.539 70.6401C107.831 70.8522 105.034 71.7064 104.79 73.7551C104.517 76.0518 103.157 78.4045 104.473 80.1891C105.508 81.5895 105.139 83.7342 105.139 83.7342C105.139 83.7342 106.224 81.9696 107.221 83.058C107.765 83.6582 110.034 83.022 109.131 81.3495C108.028 79.3028 110.5 77.6423 111.772 78.8187C112.915 79.877 113.595 78.1805 114.492 77.7023C119.793 74.8734 122.046 79.2268 121.881 80.4412Z" fill="#664A35"/>
<path fill-rule="evenodd" clip-rule="evenodd" d="M121.397 76.0255C122.114 69.8235 114.486 71.0019 112.921 71.406C110.387 72.0582 107.221 72.0162 107.221 72.0162C107.221 72.0162 109.544 71.5701 111.434 71.1179C113.611 70.5938 113.649 69.3014 116.339 70.1576C118.783 70.9379 120.127 70.7938 121.209 72.1082C122.13 73.2226 122.019 75.0051 121.397 76.0255Z" fill="#4A3728"/>
<path fill-rule="evenodd" clip-rule="evenodd" d="M113.375 73.7004C111.412 75.7931 109.109 73.4704 105.999 76.7014C105.428 77.3016 104.954 78.1178 104.364 79.4362C106.445 71.7778 110.281 75.7091 113.365 73.7084L113.375 73.7004Z" fill="#4A3728"/>
<path fill-rule="evenodd" clip-rule="evenodd" d="M118.376 76.0396C116.107 71.5142 110.915 78.9646 105.616 78.8165C109.876 78.0163 111.958 75.1053 113.918 74.2291C115.614 73.4708 117.839 73.3608 118.38 76.0396H118.376Z" fill="#4A3728"/>
<path fill-rule="evenodd" clip-rule="evenodd" d="M109.815 81.0514C109.79 81.0744 109.76 81.0911 109.728 81.1001C109.695 81.1092 109.661 81.1103 109.628 81.1035C109.595 81.0966 109.564 81.082 109.538 81.0607C109.512 81.0395 109.491 81.0123 109.478 80.9814C108.796 79.4329 110.349 78.4266 111.571 79.1448C111.599 79.1613 111.623 79.1842 111.641 79.2117C111.659 79.2391 111.671 79.2703 111.674 79.3029C111.678 79.3355 111.675 79.3685 111.664 79.3994C111.652 79.4303 111.634 79.4582 111.611 79.4809L111.589 79.5029C111.555 79.5355 111.512 79.556 111.465 79.561C111.419 79.5661 111.372 79.5555 111.332 79.5309C110.371 78.9307 109.498 79.861 109.936 80.7313C109.957 80.7719 109.963 80.8179 109.955 80.8627C109.948 80.9074 109.925 80.9483 109.892 80.9794L109.817 81.0514H109.815Z" fill="#D1A37E"/>
<path fill-rule="evenodd" clip-rule="evenodd" d="M108.485 97.5986C108.419 97.0294 108.236 96.4802 107.946 95.9867C107.655 95.4932 107.265 95.0663 106.8 94.7337C104.059 92.7731 99.8619 93.0092 98.2788 97.1045C98.1347 97.481 98.0382 97.8742 97.9917 98.2748C97.28 104.647 98.3905 114.438 100.41 118.221L110.319 113.528L108.485 97.5986Z" fill="#A5B0CC"/>
<path d="M102.569 94.3271C102.569 94.3271 99.832 108.932 103.913 115.432C106.005 118.763 121.873 109.588 121.873 109.588" stroke="#DCDCDD" stroke-linecap="round" stroke-linejoin="round"/>
<path fill-rule="evenodd" clip-rule="evenodd" d="M126.201 103.524C126.54 102.822 127.585 102.408 128.777 102.056C128.884 102.024 128.996 102.017 129.106 102.034C129.216 102.051 129.321 102.093 129.413 102.156L131.483 103.556L130.314 103.512L128.733 103.274L126.823 104.163L126.201 103.52V103.524Z" fill="#D0B29A"/>
<path fill-rule="evenodd" clip-rule="evenodd" d="M119.881 105.545L125.815 103.014C127.069 102.468 128.486 102.614 129.748 102.926C130.809 103.182 132.388 103.616 132.811 104.127C133.168 104.559 132.793 105.427 132.793 105.427C132.924 105.775 132.835 106.099 132.368 106.385C132.421 106.6 132.402 106.827 132.314 107.03C132.226 107.233 132.074 107.401 131.882 107.51C132.165 107.616 131.644 108.31 131.014 108.358C130.002 108.428 128.718 107.614 125.805 108.11C124.262 108.372 122.063 110.559 120.621 111.299L119.893 105.547L119.881 105.545Z" fill="#EBC2A0"/>
<path fill-rule="evenodd" clip-rule="evenodd" d="M129.096 106.761C130.679 107.031 131.243 107.259 132.462 107.685C131.046 107.447 130.43 107.165 129.096 106.761Z" fill="#CAA282"/>
<path fill-rule="evenodd" clip-rule="evenodd" d="M129.267 105.601C130.848 105.871 131.412 106.099 132.63 106.525C131.216 106.289 130.6 106.005 129.267 105.601Z" fill="#CAA282"/>
<path fill-rule="evenodd" clip-rule="evenodd" d="M129.724 104.588C131.305 104.858 131.871 105.087 133.088 105.513C131.674 105.277 131.058 104.993 129.724 104.588Z" fill="#CAA282"/>
<path fill-rule="evenodd" clip-rule="evenodd" d="M120.547 105.219C120.711 105.012 120.922 104.849 121.163 104.745C121.404 104.64 121.667 104.597 121.929 104.619C122.306 106.385 122.543 108.248 123.797 109.978C123.04 110.61 122.565 110.72 122.18 110.708L120.547 105.225V105.219Z" fill="#8897BE"/>
<path fill-rule="evenodd" clip-rule="evenodd" d="M101.501 112.571C104.952 107.242 113.327 104.659 120.158 104.755C121.259 104.769 121.308 106.713 121.723 107.842C121.901 108.324 122.16 109.11 122.403 109.87C122.601 110.465 122.583 111.111 122.352 111.693C122.12 112.276 121.69 112.757 121.139 113.051C115.537 116.052 109.974 119.181 106.784 119.745C103.921 120.254 96.7875 119.841 101.493 112.579L101.501 112.571Z" fill="#A5B0CC"/>
<path d="M102.619 93.8113C102.619 93.8113 99.7843 108.402 103.816 114.924C105.885 118.269 121.815 109.202 121.815 109.202" stroke="#DCDCDD" stroke-linecap="round" stroke-linejoin="round"/>
<path fill-rule="evenodd" clip-rule="evenodd" d="M119.939 108.007C120.066 108 120.192 108.031 120.301 108.097C120.41 108.162 120.496 108.259 120.55 108.375C120.603 108.49 120.621 108.619 120.601 108.745C120.58 108.871 120.523 108.987 120.435 109.08C120.348 109.172 120.235 109.236 120.111 109.264C119.987 109.291 119.858 109.281 119.74 109.233C119.622 109.186 119.521 109.105 119.45 108.999C119.379 108.894 119.341 108.769 119.341 108.642C119.338 108.478 119.399 108.321 119.511 108.202C119.623 108.084 119.777 108.014 119.939 108.007Z" fill="#ECE5DD"/>
<path fill-rule="evenodd" clip-rule="evenodd" d="M90.1608 141.28H87.3257V177.249H90.1608V141.28Z" fill="#8F98AD"/>
<path fill-rule="evenodd" clip-rule="evenodd" d="M109.637 141.28H106.804V177.249H109.637V141.28Z" fill="#8F98AD"/>
<path fill-rule="evenodd" clip-rule="evenodd" d="M66.3612 167.438H62.9858V174.754H66.3612V167.438Z" fill="#C4BBB1"/>
<path fill-rule="evenodd" clip-rule="evenodd" d="M64.6744 175.827C65.9599 175.827 67.2165 176.209 68.2853 176.926C69.3542 177.642 70.1873 178.661 70.6792 179.853C71.1711 181.045 71.2998 182.356 71.0491 183.621C70.7983 184.886 70.1792 186.048 69.2703 186.96C68.3613 187.873 67.2032 188.494 65.9424 188.745C64.6816 188.997 63.3747 188.868 62.1871 188.374C60.9995 187.881 59.9844 187.045 59.2702 185.972C58.556 184.9 58.1748 183.639 58.1748 182.349C58.1753 180.619 58.8603 178.961 60.0791 177.737C61.2979 176.514 62.9507 175.827 64.6744 175.827Z" fill="#54648F"/>
<path fill-rule="evenodd" clip-rule="evenodd" d="M64.6749 179.598C65.3114 179.598 65.9335 179.787 66.4627 180.142C66.9919 180.497 67.4043 181.001 67.6479 181.591C67.8914 182.181 67.9551 182.831 67.831 183.457C67.7068 184.083 67.4003 184.659 66.9503 185.11C66.5003 185.562 65.9269 185.869 65.3027 185.994C64.6785 186.118 64.0315 186.055 63.4435 185.81C62.8555 185.566 62.3529 185.152 61.9993 184.621C61.6458 184.09 61.457 183.466 61.457 182.827C61.457 181.971 61.7961 181.149 62.3995 180.544C63.003 179.938 63.8215 179.598 64.6749 179.598Z" fill="#2C3858"/>
<path fill-rule="evenodd" clip-rule="evenodd" d="M58.759 182.349H57.3634C56.6517 181.522 56.2517 180.47 56.2329 179.378C56.2329 176.097 60.021 173.434 64.6724 173.434C69.3238 173.434 73.1099 176.097 73.1099 179.378C73.0922 180.47 72.6936 181.521 71.9834 182.349H70.5878C70.4473 180.873 69.7634 179.502 68.6698 178.504C67.5762 177.507 66.1513 176.954 64.6734 176.954C63.1954 176.954 61.7706 177.507 60.6769 178.504C59.5833 179.502 58.8995 180.873 58.759 182.349Z" fill="#C4BBB1"/>
<path fill-rule="evenodd" clip-rule="evenodd" d="M50.1981 156.247H46.8228V163.561H50.1981V156.247Z" fill="#C4BBB1"/>
<path fill-rule="evenodd" clip-rule="evenodd" d="M48.5113 164.635C49.7968 164.635 51.0534 165.018 52.1223 165.735C53.1911 166.451 54.0242 167.47 54.5161 168.662C55.0081 169.853 55.1368 171.165 54.886 172.43C54.6352 173.695 54.0162 174.857 53.1072 175.769C52.1982 176.681 51.0401 177.303 49.7793 177.554C48.5185 177.806 47.2116 177.677 46.024 177.183C44.8364 176.689 43.8213 175.854 43.1071 174.781C42.3929 173.708 42.0117 172.447 42.0117 171.158C42.0128 169.428 42.6979 167.77 43.9166 166.547C45.1352 165.324 46.7878 164.637 48.5113 164.635Z" fill="#54648F"/>
<path fill-rule="evenodd" clip-rule="evenodd" d="M48.5113 168.407C49.1478 168.407 49.7699 168.596 50.2991 168.951C50.8283 169.306 51.2407 169.81 51.4843 170.4C51.7278 170.99 51.7916 171.639 51.6674 172.266C51.5432 172.892 51.2368 173.467 50.7867 173.919C50.3367 174.371 49.7633 174.678 49.1391 174.803C48.5149 174.927 47.8679 174.863 47.2799 174.619C46.6919 174.375 46.1894 173.961 45.8358 173.43C45.4822 172.899 45.2935 172.274 45.2935 171.636C45.2935 170.779 45.6325 169.958 46.236 169.352C46.8394 168.747 47.6579 168.407 48.5113 168.407Z" fill="#2C3858"/>
<path fill-rule="evenodd" clip-rule="evenodd" d="M42.5981 171.157H41.2025C40.4943 170.328 40.0985 169.276 40.084 168.185C40.084 164.906 43.8721 162.243 48.5215 162.243C53.1708 162.243 56.9589 164.906 56.9589 168.185C56.9411 169.278 56.541 170.33 55.8285 171.157H54.4329C54.2924 169.681 53.6085 168.31 52.5149 167.313C51.4213 166.315 49.9964 165.762 48.5185 165.762C47.0405 165.762 45.6156 166.315 44.522 167.313C43.4284 168.31 42.7446 169.681 42.6041 171.157H42.5981Z" fill="#B1A497"/>
<path fill-rule="evenodd" clip-rule="evenodd" d="M154.488 156.685H151.111V164.001H154.488V156.685Z" fill="#C4BBB1"/>
<path fill-rule="evenodd" clip-rule="evenodd" d="M152.799 165.067C154.085 165.067 155.341 165.45 156.41 166.167C157.479 166.883 158.312 167.902 158.804 169.094C159.296 170.285 159.425 171.597 159.174 172.862C158.923 174.127 158.304 175.289 157.395 176.201C156.486 177.113 155.328 177.734 154.067 177.986C152.807 178.238 151.5 178.109 150.312 177.615C149.124 177.121 148.109 176.285 147.395 175.213C146.681 174.14 146.3 172.879 146.3 171.589C146.301 169.86 146.986 168.202 148.205 166.979C149.423 165.756 151.076 165.068 152.799 165.067Z" fill="#54648F"/>
<path fill-rule="evenodd" clip-rule="evenodd" d="M152.8 168.845C153.437 168.845 154.059 169.034 154.588 169.389C155.117 169.744 155.53 170.249 155.773 170.839C156.017 171.429 156.08 172.079 155.956 172.705C155.831 173.332 155.524 173.907 155.074 174.358C154.623 174.81 154.05 175.117 153.425 175.241C152.801 175.365 152.154 175.301 151.566 175.056C150.978 174.811 150.476 174.396 150.122 173.865C149.769 173.333 149.581 172.708 149.582 172.07C149.582 171.213 149.921 170.392 150.525 169.786C151.128 169.181 151.946 168.841 152.8 168.841V168.845Z" fill="#2C3858"/>
<path fill-rule="evenodd" clip-rule="evenodd" d="M146.886 171.595H145.491C144.779 170.768 144.379 169.717 144.36 168.625C144.36 165.343 148.148 162.681 152.798 162.681C157.447 162.681 161.237 165.343 161.237 168.625C161.218 169.717 160.817 170.769 160.105 171.595H158.709C158.569 170.119 157.885 168.748 156.791 167.751C155.698 166.753 154.273 166.2 152.795 166.2C151.317 166.2 149.892 166.753 148.798 167.751C147.705 168.748 147.021 170.119 146.88 171.595H146.886Z" fill="#B1A497"/>
<path fill-rule="evenodd" clip-rule="evenodd" d="M169.599 166.001H166.224V173.318H169.599V166.001Z" fill="#C4BBB1"/>
<path fill-rule="evenodd" clip-rule="evenodd" d="M167.912 174.391C169.198 174.391 170.454 174.773 171.523 175.49C172.592 176.206 173.425 177.225 173.917 178.417C174.409 179.609 174.538 180.92 174.287 182.185C174.036 183.45 173.417 184.612 172.508 185.524C171.599 186.437 170.441 187.058 169.18 187.309C167.919 187.561 166.613 187.432 165.425 186.938C164.237 186.445 163.222 185.609 162.508 184.536C161.794 183.464 161.413 182.203 161.413 180.913C161.414 179.183 162.099 177.525 163.317 176.302C164.536 175.079 166.189 174.392 167.912 174.391Z" fill="#54648F"/>
<path fill-rule="evenodd" clip-rule="evenodd" d="M167.912 178.161C168.549 178.162 169.171 178.351 169.699 178.707C170.228 179.062 170.641 179.566 170.884 180.156C171.127 180.746 171.19 181.395 171.066 182.022C170.942 182.648 170.635 183.223 170.185 183.674C169.735 184.126 169.161 184.433 168.537 184.557C167.913 184.682 167.266 184.618 166.678 184.373C166.091 184.129 165.588 183.715 165.235 183.184C164.881 182.653 164.692 182.029 164.692 181.39C164.692 180.534 165.031 179.713 165.635 179.107C166.238 178.502 167.057 178.161 167.91 178.161H167.912Z" fill="#2C3858"/>
<path fill-rule="evenodd" clip-rule="evenodd" d="M161.997 180.912H160.601C159.889 180.086 159.489 179.034 159.471 177.941C159.471 174.66 163.259 171.998 167.908 171.998C172.558 171.998 176.346 174.66 176.346 177.941C176.327 179.034 175.927 180.086 175.215 180.912H173.82C173.677 179.438 172.992 178.069 171.898 177.073C170.805 176.077 169.381 175.526 167.904 175.526C166.428 175.526 165.004 176.077 163.91 177.073C162.817 178.069 162.132 179.438 161.989 180.912H161.997Z" fill="#C4BBB1"/>
<path fill-rule="evenodd" clip-rule="evenodd" d="M153.886 154.272L39.3584 154.118L61.1639 164.783H173.963L153.886 154.272Z" fill="#5F6B8C"/>
<path fill-rule="evenodd" clip-rule="evenodd" d="M173.963 164.783H61.1636V169.141H173.963V164.783Z" fill="#B7AFA8"/>
<path fill-rule="evenodd" clip-rule="evenodd" d="M152.8 152.529H62.0788L40.6401 141.738V151.617L62.0788 163.275L153.324 161.538L174.779 153.425L174.757 145.145L152.8 152.529Z" fill="#8F98AD"/>
<path fill-rule="evenodd" clip-rule="evenodd" d="M62.4636 147.552L62.3281 167.466L34.7866 153.6L35.1913 136.197L62.4636 147.552Z" fill="#7582A0"/>
<path fill-rule="evenodd" clip-rule="evenodd" d="M171.724 114.82C172.403 115.202 172.968 115.759 173.361 116.432C173.755 117.106 173.963 117.872 173.963 118.653V169.141H178.226C178.226 169.141 178.027 129.632 177.975 117.143C177.969 116.009 177.663 114.897 177.087 113.921C176.511 112.945 175.687 112.141 174.699 111.591L156.403 101.388L154.353 105.011L171.724 114.814V114.82Z" fill="#B7AFA8"/>
<path fill-rule="evenodd" clip-rule="evenodd" d="M173.963 131.635L145.439 119.853L106.661 128.998L122.844 139.351L151.306 138.113L173.963 131.635Z" fill="#B3AFC4"/>
<path fill-rule="evenodd" clip-rule="evenodd" d="M179.751 101.394C179.751 101.394 182.082 102.5 180.766 107.48C179.546 112.097 177.927 114.482 176.308 118.047C174.061 122.975 172.562 124.685 168.915 127.7C165.472 130.545 163.448 131.255 160.916 131.153C154.56 130.899 155.119 127.182 156.245 123.581C157.371 119.98 161.67 115.378 164.078 112.951C166.487 110.525 172.452 105.651 174.89 104.533C177.329 103.414 179.751 101.394 179.751 101.394Z" fill="#C4C0D5"/>
<path fill-rule="evenodd" clip-rule="evenodd" d="M178.333 106.904C174.933 115.73 170.006 122.481 163.55 127.156C169.659 118.965 172.358 111.729 178.333 106.904Z" fill="#A19BB9"/>
<path fill-rule="evenodd" clip-rule="evenodd" d="M157.575 93.7633C157.575 93.7633 161.164 91.3525 167.902 92.847C175.317 94.4935 180.662 100.976 180.762 102.704C180.862 104.433 178.691 104.329 173.963 107.48C169.236 110.631 164.968 119.163 161.525 124.143C159.313 127.344 158.807 130.239 154.347 129.73C149.179 129.142 145.774 124.663 144.356 122.128C142.939 119.593 145.971 111.429 147.249 107.924C149.68 101.254 157.569 93.7673 157.569 93.7673L157.575 93.7633Z" fill="#D1CFDA"/>
<path fill-rule="evenodd" clip-rule="evenodd" d="M149.724 121.956C153.099 122.632 157.284 123.31 158.365 118.839C159.445 114.367 158.634 112.743 161.874 111.524C165.113 110.306 166.87 107.605 167.546 105.364C168.222 103.124 168.084 100.415 168.491 98.6544C168.897 96.8938 169.3 95.1913 165.384 95.9735C161.469 96.7558 157.148 98.4343 154.854 102.406C152.559 106.377 152.019 108.513 150.533 112.323C149.048 116.132 146.346 121.277 149.724 121.956Z" fill="#C4C0D5"/>
<path fill-rule="evenodd" clip-rule="evenodd" d="M155.87 121.738C155.629 117.451 156.425 114.284 158.345 110.358L148.039 107.92C146.936 111.655 145.409 114.21 143.585 116.86C146.019 120.988 149.835 123.03 155.87 121.738Z" fill="#E2C0A4"/>
<path fill-rule="evenodd" clip-rule="evenodd" d="M147.255 105.458L143.14 115.022C143.792 116.576 150.21 118.775 153.097 116.37C156.61 113.445 158.536 114.681 160.133 115.022L163.508 107.479L147.255 105.458Z" fill="#DAB292"/>
<path fill-rule="evenodd" clip-rule="evenodd" d="M158.58 91.3182C163.265 92.9607 165.358 99.1927 163.263 105.229C161.167 111.264 152.616 114.019 147.931 112.377C143.246 110.734 143.838 105.01 145.937 98.9726C146.52 97.2981 147.393 95.3294 148.447 94.1271C151.197 90.9961 155.194 90.1258 158.58 91.3262V91.3182Z" fill="#E2C0A4"/>
<path fill-rule="evenodd" clip-rule="evenodd" d="M147.546 93.8629C147.833 93.1487 147.243 92.1964 149.875 90.896C152.506 89.5956 155.766 87.1669 158.34 88.5333C160.914 89.8997 163.083 91.3241 164.682 92.3345C166.281 93.3448 167.095 95.3954 166.277 98.3863C165.46 101.377 165.878 100.563 166.277 102.9C166.676 105.236 164.449 108.902 161.714 110.014C158.978 111.126 158.246 110.826 155.918 111.843C153.589 112.859 155.537 109.708 156.853 108.692C158.169 107.675 159.949 106.927 160.904 105.01C161.612 103.588 161.502 100.827 159.283 101.865C157.064 102.904 156.972 101.579 158.332 99.5467C159.692 97.5141 159.909 95.2794 156.711 94.7712C153.513 94.2631 152.602 95.0773 151.488 94.2651C150.373 93.4528 149.564 94.9753 148.146 95.1793C146.729 95.3834 147.349 94.3071 147.548 93.8569L147.546 93.8629Z" fill="#EAEAEA"/>
<path fill-rule="evenodd" clip-rule="evenodd" d="M156.44 119.181C155.625 118.113 153.874 121.712 148.731 119.569C143.092 117.222 146.209 114.439 144.783 113.811C138.612 111.092 126.706 114.986 121.999 117.707C119.55 119.123 118.149 122.584 118.179 125.577C118.215 128.84 120.226 134.694 122.204 137.283C124.02 139.659 127.25 141.516 130.049 141.116C135.432 140.346 150.437 136.686 155.144 133.966C157.593 132.549 158.933 131.477 159.048 126.763C159.132 123.502 158.42 121.778 156.44 119.189V119.181Z" fill="#3E4B6E"/>
<path fill-rule="evenodd" clip-rule="evenodd" d="M130.623 111.939C131.991 111.379 133.965 110.414 134.32 111.887C134.675 113.359 135.839 116.206 136.8 117.222C137.761 118.239 141.457 122.352 142.723 123.064C143.989 123.777 146.852 122.42 147.989 122.098C149.61 121.642 153.559 121.498 155.23 122.86C156.257 123.705 158.52 126.011 159.178 127.282C159.836 128.552 160.242 129.668 159.937 131.193C159.632 132.717 160.242 133.275 157.507 134.594C154.772 135.912 147.433 134.646 144.946 131.993C142.46 129.34 139.882 128.792 137.199 126.303C134.515 123.815 129.252 112.485 130.619 111.927L130.623 111.939Z" fill="#27365D"/>
<path fill-rule="evenodd" clip-rule="evenodd" d="M144.673 103.74C143.856 104.837 143.329 106.123 143.14 107.479C142.783 109.816 142.741 110.912 143.23 112.323C143.678 113.631 144.027 113.723 147.255 115.022C149.474 115.912 151.398 115.608 152.612 114.185C153.827 112.763 154.823 112.353 156.931 110.934C158.891 109.612 160.733 105.651 158.344 107.275C155.956 108.9 154.233 109.782 152.612 108.53C150.991 107.277 149.077 105.651 147.255 105.955C145.433 106.259 144.673 103.74 144.673 103.74Z" fill="#EAEAEA"/>
<path fill-rule="evenodd" clip-rule="evenodd" d="M147.255 107.479C147.771 107.527 148.664 107.691 149.338 108.291C148.341 108.771 147.273 108.759 147.255 107.479Z" fill="#DB9E9E"/>
<path d="M158.354 102.856C160.653 101.94 161.08 104.589 159.064 105.457M149.955 101.95C148.073 102.186 147.534 103.456 148.758 104.432L149.955 101.95Z" stroke="#CB9B75" stroke-width="2" stroke-linecap="round" stroke-linejoin="round"/>
<path fill-rule="evenodd" clip-rule="evenodd" d="M173.963 131.635L151.306 138.113L61.1636 139.351V152.529L153.324 152.507L173.963 145.321V131.635Z" fill="#D1CFDA"/>
<path fill-rule="evenodd" clip-rule="evenodd" d="M153.099 100.153C153.099 100.435 153.592 100.469 153.952 100.647C154.218 100.777 154.283 101.102 154.678 101.068C156.215 100.938 153.103 98.6909 153.099 100.153Z" fill="#EAEAEA"/>
<path fill-rule="evenodd" clip-rule="evenodd" d="M147.7 98.3505C147.7 98.6325 148.192 98.6645 148.553 98.8426C148.818 98.9726 148.884 99.2988 149.279 99.2647C150.814 99.1327 147.704 96.886 147.7 98.3505Z" fill="#EAEAEA"/>
<path fill-rule="evenodd" clip-rule="evenodd" d="M141.964 162.642C145.692 160.806 143.583 156.458 145.203 150.497C146.824 144.535 145.744 128.822 142.233 124.757C138.722 120.691 132.647 116.142 132.107 113.405C131.566 110.668 104.968 121.234 98.6239 121.099C92.2798 120.965 71.8919 119.453 67.4359 118.993C62.9799 118.533 57.3456 114.864 51.2348 115.544C46.3741 116.086 43.9437 119.345 42.4624 122.724C40.981 126.103 40.4427 130.989 40.7099 135.866C40.977 140.744 55.6928 146.393 59.4729 148.716C61.5105 149.968 64.2997 151.787 63.6239 155.074C62.9759 158.235 68.4387 160.38 72.2986 159.527C80.6723 157.677 90.6589 159.209 97.8184 159.527C104.978 159.846 116.316 161.328 122.796 161.538C129.276 161.748 138.231 164.483 141.968 162.642H141.964Z" fill="#ECE5DD"/>
<path fill-rule="evenodd" clip-rule="evenodd" d="M144.428 124.455C144.428 124.455 136.471 132.301 131.817 133.966C124.662 136.523 102.563 141.768 99.1442 143.539C90.5033 148.002 56.3467 142.339 56.3467 142.339C56.3467 142.339 58.2627 161.481 61.9551 161.801C70.1174 162.511 121.41 166.202 123.986 167.068C126.686 167.973 152.068 165.2 152.068 162.745C152.053 148.891 149.507 136.126 144.428 124.449V124.455Z" fill="#D9D1C7"/>
<path fill-rule="evenodd" clip-rule="evenodd" d="M99.0445 120.321L101.746 120.121C102.021 122.74 104.751 127.29 103.54 132.395C103.534 132.419 103.52 132.441 103.499 132.455C103.479 132.469 103.454 132.476 103.429 132.473C103.404 132.47 103.381 132.459 103.364 132.441C103.347 132.423 103.337 132.4 103.335 132.375C103.104 126.939 102.376 123.294 99.0405 120.325L99.0445 120.321Z" fill="#D9D0C7"/>
<path fill-rule="evenodd" clip-rule="evenodd" d="M95.2168 119.067L99.3338 119.609C103.269 127.011 102.859 131.871 101.834 135.17C101.83 135.187 101.82 135.202 101.806 135.212C101.791 135.221 101.774 135.225 101.757 135.222C101.74 135.219 101.724 135.21 101.714 135.196C101.703 135.183 101.699 135.165 101.7 135.148C101.7 127.916 99.9679 122.756 95.2168 119.067Z" fill="#D9D0C7"/>
<path fill-rule="evenodd" clip-rule="evenodd" d="M57.5967 113.683L83.2481 118.153C63.544 119.953 70.2888 126.233 65.4281 125.273C62.7944 124.755 57.4272 117.288 57.5967 113.683Z" fill="#DED6CD"/>
<path fill-rule="evenodd" clip-rule="evenodd" d="M111.178 137.859C110.489 138.261 109.7 138.458 108.903 138.427C107.28 138.313 105.378 137.747 103.853 138.121C103.022 138.372 102.213 138.694 101.437 139.083C100.95 139.327 99.8876 139.709 99.118 139.976C99.0192 140.011 98.9304 140.071 98.8589 140.148C98.7874 140.225 98.7353 140.318 98.7071 140.42C98.6788 140.522 98.6751 140.628 98.6963 140.732C98.7175 140.835 98.763 140.932 98.8289 141.014C98.8688 141.064 98.9214 141.101 98.9812 141.123C99.0409 141.145 99.1055 141.15 99.1679 141.138L103.46 140.284C103.481 140.279 103.503 140.282 103.521 140.291C103.54 140.301 103.555 140.316 103.564 140.336C103.573 140.355 103.575 140.376 103.57 140.397C103.566 140.418 103.554 140.436 103.538 140.45C103.1 140.804 102.224 141.462 101.443 141.746C100.709 142.016 98.9884 142.174 97.5888 142.262C97.4265 142.272 97.2709 142.331 97.1421 142.43C97.0133 142.53 96.9174 142.666 96.8666 142.821C96.8159 142.976 96.8128 143.143 96.8577 143.3C96.9026 143.457 96.9934 143.596 97.1183 143.701L99.2137 145.461C99.4523 145.661 99.7487 145.779 100.059 145.797C101.164 145.861 103.955 145.957 106.24 145.507C109.23 144.917 115.335 143.397 115.335 143.397L111.178 137.859Z" fill="#E2C0A4"/>
<path fill-rule="evenodd" clip-rule="evenodd" d="M96.6519 143.925C98.8091 143.564 100.797 143.07 102.503 142.35C100.753 143.328 98.7632 143.751 96.6519 143.925Z" fill="#CB9C74"/>
<path fill-rule="evenodd" clip-rule="evenodd" d="M97.8682 144.913C100.023 144.555 102.011 144.061 103.718 143.34C101.969 144.317 99.9775 144.741 97.8682 144.913Z" fill="#CB9C74"/>
<path fill-rule="evenodd" clip-rule="evenodd" d="M98.873 145.501C101.048 145.287 103.06 144.929 104.814 144.327C103.004 145.183 100.988 145.479 98.873 145.501Z" fill="#CB9C74"/>
<path fill-rule="evenodd" clip-rule="evenodd" d="M145.937 123.415C142.883 124.703 137.248 128.828 129.788 131.635C126.123 133.012 122.112 133.386 118.705 134.16C116.077 134.76 113.347 135.424 111.184 135.961C110.822 136.052 110.491 136.244 110.231 136.513C109.97 136.783 109.79 137.119 109.71 137.486C109.629 137.853 109.652 138.235 109.776 138.589C109.9 138.943 110.12 139.256 110.411 139.492C111.166 140.092 111.818 140.712 112.07 141.162C112.405 141.809 112.685 142.483 112.909 143.177C113.06 143.616 113.358 143.989 113.752 144.233C114.145 144.478 114.611 144.579 115.07 144.519C118.521 144.055 126.725 142.867 134.098 141.162C140.831 139.608 146.515 138.911 150.429 136.819C155.467 134.122 156.901 133.418 158.049 131.617C158.847 130.379 157.975 127.394 156.255 125.671C153.025 122.454 148.772 122.206 145.949 123.397L145.937 123.415Z" fill="#3E4B6E"/>
<path fill-rule="evenodd" clip-rule="evenodd" d="M61.1639 164.783L39.3584 153.934V158.293L61.1639 169.141V164.783Z" fill="#C4BBB1"/>
<path fill-rule="evenodd" clip-rule="evenodd" d="M62.079 136.947L39.3584 125.689V144.475L62.079 155.735V136.947Z" fill="#A5B0CC"/>
<path fill-rule="evenodd" clip-rule="evenodd" d="M61.1636 159.747L59.0024 158.781V163.821L61.1636 164.789V159.747Z" fill="#C4BBB1"/>
<path fill-rule="evenodd" clip-rule="evenodd" d="M41.5196 149.31L39.3584 148.344V154.27L41.5196 155.238V149.31Z" fill="#C4BBB1"/>
<path fill-rule="evenodd" clip-rule="evenodd" d="M62.9857 135.37C62.9857 131.087 60.1945 126.209 56.7673 124.487L44.3284 118.253C40.8951 116.53 38.1079 118.609 38.1079 122.892V143.335C38.1079 147.618 40.8991 152.493 44.3284 154.216L56.7673 160.466C60.1985 162.188 62.9857 160.11 62.9857 155.826V135.37ZM61.3668 135.888C61.3668 132.163 58.9424 127.922 55.9558 126.423L45.1378 120.992C42.1472 119.493 39.7288 121.302 39.7288 125.027V142.814C39.7288 146.542 42.1532 150.783 45.1378 152.281L55.9558 157.711C58.9464 159.209 61.3668 157.401 61.3668 153.676V135.888Z" fill="#C4BBB1"/>
<path fill-rule="evenodd" clip-rule="evenodd" d="M151.851 102.406C152.413 103.234 153.246 103.494 154.347 103.17C153.386 103.302 152.54 103.086 151.851 102.406Z" fill="#CCA47B"/>
<path fill-rule="evenodd" clip-rule="evenodd" d="M146.818 100.673C147.039 100.922 147.311 101.12 147.615 101.251C147.92 101.383 148.249 101.446 148.581 101.436C147.837 101.554 147.223 101.368 146.818 100.673Z" fill="#CCA47B"/>
<path fill-rule="evenodd" clip-rule="evenodd" d="M114.051 80.527C115.882 80.2409 116.819 80.8971 116.565 81.4233C116.29 81.9975 114.661 82.3156 114.051 80.527Z" fill="#E3E3E3"/>
<path fill-rule="evenodd" clip-rule="evenodd" d="M115.674 80.6049C115.8 80.6259 115.916 80.6839 116.008 80.7714C116.1 80.8589 116.164 80.9719 116.192 81.0961C116.219 81.2204 116.21 81.35 116.164 81.4687C116.118 81.5873 116.037 81.6894 115.933 81.7621C115.829 81.8347 115.706 81.8745 115.579 81.8765C115.452 81.8784 115.327 81.8423 115.221 81.7729C115.115 81.7034 115.031 81.6037 114.982 81.4866C114.932 81.3694 114.919 81.2401 114.943 81.1151C114.973 80.9503 115.067 80.8042 115.204 80.7086C115.341 80.613 115.51 80.5757 115.674 80.6049Z" fill="#3E3C43"/>
<path fill-rule="evenodd" clip-rule="evenodd" d="M114.051 80.5375C115.128 80.6215 116.145 80.7855 116.675 81.4177C116.494 80.4054 115.178 80.0993 114.051 80.5375Z" fill="#403E46"/>
<path fill-rule="evenodd" clip-rule="evenodd" d="M118.346 82.0134C120.018 81.4532 121.001 81.9194 120.848 82.4535C120.678 83.0357 119.201 83.5939 118.346 82.0134Z" fill="#E3E3E3"/>
<path fill-rule="evenodd" clip-rule="evenodd" d="M119.883 81.8272C120.004 81.8253 120.123 81.8596 120.225 81.9259C120.326 81.9922 120.406 82.0874 120.453 82.1993C120.5 82.3111 120.513 82.4347 120.49 82.5539C120.467 82.6732 120.409 82.7829 120.323 82.8688C120.238 82.9547 120.128 83.013 120.009 83.0363C119.891 83.0595 119.768 83.0466 119.656 82.9991C119.544 82.9517 119.45 82.872 119.384 82.7701C119.318 82.6683 119.283 82.5489 119.285 82.4274C119.285 82.2682 119.348 82.1156 119.46 82.003C119.573 81.8905 119.725 81.8272 119.883 81.8272Z" fill="#3E3C43"/>
<path fill-rule="evenodd" clip-rule="evenodd" d="M118.346 82.0215C119.37 81.9295 120.351 81.9215 120.948 82.4316C120.619 81.5094 119.337 81.4313 118.346 82.0215Z" fill="#403E46"/>
<path fill-rule="evenodd" clip-rule="evenodd" d="M154.506 102.436C153.39 101.067 152.313 100.935 152.156 101.471C151.99 102.053 152.953 103.316 154.506 102.436Z" fill="#E3E3E3"/>
<path fill-rule="evenodd" clip-rule="evenodd" d="M153.304 101.457C153.203 101.396 153.086 101.366 152.968 101.371C152.85 101.376 152.736 101.416 152.641 101.486C152.545 101.556 152.473 101.653 152.432 101.764C152.391 101.875 152.384 101.996 152.412 102.112C152.44 102.227 152.501 102.331 152.588 102.412C152.675 102.492 152.784 102.545 152.901 102.563C153.017 102.582 153.137 102.565 153.244 102.515C153.352 102.465 153.442 102.385 153.504 102.284C153.545 102.216 153.572 102.142 153.584 102.064C153.597 101.986 153.593 101.906 153.575 101.829C153.556 101.752 153.523 101.68 153.477 101.616C153.43 101.552 153.372 101.498 153.304 101.457Z" fill="#3E3C43"/>
<path fill-rule="evenodd" clip-rule="evenodd" d="M154.502 102.448C153.685 101.822 152.86 101.289 152.084 101.401C152.852 100.801 153.978 101.417 154.502 102.448Z" fill="#403E46"/>
<path fill-rule="evenodd" clip-rule="evenodd" d="M149.241 100.647C148.125 99.2789 147.048 99.1468 146.89 99.681C146.725 100.265 147.688 101.528 149.241 100.647Z" fill="#E3E3E3"/>
<path fill-rule="evenodd" clip-rule="evenodd" d="M148.039 99.663C147.938 99.6014 147.821 99.5712 147.703 99.5762C147.585 99.5813 147.471 99.6213 147.375 99.6913C147.28 99.7613 147.207 99.8581 147.166 99.9694C147.126 100.081 147.119 100.202 147.147 100.317C147.175 100.432 147.236 100.537 147.323 100.617C147.41 100.698 147.518 100.75 147.635 100.769C147.752 100.787 147.871 100.77 147.979 100.721C148.086 100.671 148.176 100.59 148.238 100.489C148.279 100.422 148.307 100.347 148.319 100.269C148.331 100.191 148.328 100.111 148.309 100.035C148.291 99.9579 148.257 99.8855 148.211 99.8218C148.164 99.758 148.106 99.7041 148.039 99.663Z" fill="#3E3C43"/>
<path fill-rule="evenodd" clip-rule="evenodd" d="M149.237 100.647C148.419 100.021 147.594 99.4889 146.818 99.6009C147.586 99.0007 148.712 99.6169 149.237 100.647Z" fill="#403E46"/>
</svg>
