<svg width="439" height="317" viewBox="0 0 439 317" fill="none" xmlns="http://www.w3.org/2000/svg">
<path fill-rule="evenodd" clip-rule="evenodd" d="M223.78 296.596C247.434 303.584 319.797 306.568 358.835 293.265C410.563 275.64 471.226 198.438 418.927 124.487C394.05 89.3093 350.864 89.0434 357.044 69.7809C363.225 50.5185 355.37 26.0501 332.771 11.9673C299.931 -8.50117 225.673 -1.84161 190.461 25.2943C155.248 52.4303 149.629 44.3329 128.397 39.098C107.165 33.863 85.1374 42.4291 79.4943 62.4104C73.8512 82.3917 79.5601 104.464 51.4789 121.991C23.3976 139.518 -1.51587 164.732 0.0719947 199.035C2.45248 250.426 38.5389 307.808 113.598 299.932C195.23 291.363 202.916 290.436 223.78 296.598V296.596Z" fill="#F4F5FF"/>
<path fill-rule="evenodd" clip-rule="evenodd" d="M11.7773 262.542L435.812 257.668L401.15 310.663L46.4366 316.156L11.7773 262.542Z" fill="#DEE5DE"/>
<path fill-rule="evenodd" clip-rule="evenodd" d="M342.388 188.458C342.388 188.458 378.406 179.994 356.919 131.705C354.154 125.493 353.529 116.772 348.1 108.969C336.845 92.7906 324.166 84.3035 316.695 86.8736C308.998 89.5069 311.444 105.37 310.022 112.061C305.564 133.056 328.85 149.453 327.157 162.754C323.826 188.932 342.388 188.458 342.388 188.458Z" fill="#C6D2C6"/>
<path fill-rule="evenodd" clip-rule="evenodd" d="M312.411 83.4529C337.69 108.161 346.907 155.004 347.633 191.301C390.977 134.178 364.71 89.5332 312.411 83.4529Z" fill="#9FBCA8"/>
<path fill-rule="evenodd" clip-rule="evenodd" d="M349.371 229.887C352.444 175.339 343.722 145.306 334.385 114.447C334.384 114.443 334.382 114.44 334.38 114.438C334.378 114.435 334.376 114.433 334.373 114.432C334.37 114.43 334.366 114.429 334.363 114.429C334.36 114.429 334.356 114.43 334.353 114.431C334.347 114.433 334.342 114.438 334.339 114.444C334.336 114.449 334.336 114.456 334.337 114.462C343.499 147.447 348.705 181.611 343.183 229.41L349.371 229.887Z" fill="#465D4D"/>
<path fill-rule="evenodd" clip-rule="evenodd" d="M404.041 136.274C411.643 141.675 401.8 157.44 398.45 181.111C395.554 201.553 372.908 218.967 353.882 206.901C349.142 203.899 346.462 197.908 350.196 187.331C352.676 180.315 359.657 169.574 365.174 161.804C372.36 151.686 375.272 143.739 382.509 139.189C389.213 134.976 400.373 133.677 404.03 136.274H404.041Z" fill="#C6D2C6"/>
<path fill-rule="evenodd" clip-rule="evenodd" d="M350.648 214.224C384.075 192.128 390.516 136.406 410.621 126.196C415.896 188.018 398.679 220.934 350.648 214.224Z" fill="#9FBCA8"/>
<path fill-rule="evenodd" clip-rule="evenodd" d="M343.23 234.1C347.628 230.485 349.124 234.1 349.124 234.1C340.481 236.57 376.394 188.544 390.35 159.842C371.765 188.368 351.715 214.469 343.23 234.1Z" fill="#465D4D"/>
<path fill-rule="evenodd" clip-rule="evenodd" d="M327.584 224.636H367.565L357.569 270.905H337.577L327.584 224.636Z" fill="#FFDEDC"/>
<path fill-rule="evenodd" clip-rule="evenodd" d="M334.04 155.323C334.145 154.99 334.197 154.643 334.193 154.293C333.929 136.387 320.002 121.928 302.901 121.928H232.219C215.11 121.922 201.183 136.406 200.92 154.312C200.915 154.648 200.963 154.983 201.062 155.305C203.305 162.678 230.902 253.149 230.902 253.149L302.893 253.542C302.893 253.542 331.657 162.812 334.032 155.32L334.04 155.323Z" fill="#707070"/>
<path fill-rule="evenodd" clip-rule="evenodd" d="M326.48 209.966C326.493 209.793 326.47 209.618 326.413 209.454C326.355 209.29 326.264 209.14 326.146 209.012C326.027 208.885 325.884 208.783 325.724 208.714C325.565 208.645 325.393 208.61 325.219 208.61H307.16C292.821 203.343 281.725 209.013 268.877 209.116C257.085 209.213 244.985 203.794 233.291 208.61H215.627C215.452 208.61 215.279 208.646 215.119 208.717C214.959 208.787 214.815 208.89 214.697 209.019C214.579 209.147 214.489 209.299 214.432 209.464C214.375 209.63 214.354 209.805 214.368 209.979C215.063 218.206 218.684 260.907 219.329 268.507C219.356 268.822 219.501 269.115 219.734 269.33C219.967 269.544 220.272 269.662 220.588 269.663H320.884C321.203 269.662 321.511 269.541 321.745 269.324C321.979 269.107 322.122 268.809 322.146 268.491C322.712 260.854 325.874 218.153 326.48 209.966Z" fill="#A9A9A9"/>
<path fill-rule="evenodd" clip-rule="evenodd" d="M206.286 200.284L231.273 200.997C236.092 204.594 235.084 248.541 235.321 276.348L212.951 275.848L206.286 200.273V200.284Z" fill="#505050"/>
<path fill-rule="evenodd" clip-rule="evenodd" d="M334.195 198.024L309.208 198.735C304.389 202.335 305.397 246.282 305.16 274.089L327.543 273.589L334.208 198.014L334.195 198.024Z" fill="#505050"/>
<path fill-rule="evenodd" clip-rule="evenodd" d="M233.291 183.739C233.291 181.945 232.578 180.225 231.31 178.957C230.042 177.689 228.322 176.976 226.528 176.976H200.283C199.501 176.976 198.728 177.133 198.008 177.438C197.289 177.742 196.638 178.189 196.094 178.75C195.551 179.311 195.126 179.976 194.845 180.705C194.564 181.434 194.432 182.213 194.458 182.994C194.653 188.979 194.953 198.138 195.153 204.302C195.204 205.853 195.691 207.359 196.557 208.646C197.424 209.934 198.636 210.952 200.053 211.583C210.039 216.031 216.298 238.919 217.583 269.663H233.291V183.739Z" fill="#A9A9A9"/>
<path fill-rule="evenodd" clip-rule="evenodd" d="M307.176 183.739C307.176 181.945 307.888 180.225 309.156 178.957C310.425 177.689 312.145 176.976 313.938 176.976H340.189C340.97 176.975 341.744 177.131 342.463 177.436C343.183 177.74 343.834 178.185 344.377 178.746C344.921 179.307 345.346 179.972 345.627 180.701C345.908 181.43 346.04 182.208 346.014 182.988C345.819 188.968 345.519 198.119 345.319 204.284C345.268 205.839 344.78 207.348 343.913 208.639C343.045 209.93 341.831 210.951 340.41 211.586C330.43 216.041 324.171 238.927 322.889 269.663H307.181V183.739H307.176Z" fill="#A9A9A9"/>
<path fill-rule="evenodd" clip-rule="evenodd" d="M248.656 249.413L263.811 248.222C262.333 254.598 262.036 261.521 263.284 269.165L250.955 267.975C250.976 262.155 249.994 255.862 248.643 249.413H248.656Z" fill="#FDBF99"/>
<path fill-rule="evenodd" clip-rule="evenodd" d="M292.964 249.199L277.493 248.009C278.999 254.384 279.305 261.307 278.02 268.952L290.607 267.761C290.586 261.942 291.589 255.648 292.977 249.199H292.964Z" fill="#FDBF99"/>
<path fill-rule="evenodd" clip-rule="evenodd" d="M268.629 275.948C268.677 276.056 268.697 276.174 268.688 276.292C268.678 276.409 268.639 276.523 268.575 276.622C268.511 276.721 268.423 276.802 268.319 276.858C268.215 276.914 268.099 276.944 267.981 276.944H246.294C246.214 276.943 246.136 276.924 246.065 276.888C245.995 276.853 245.933 276.801 245.886 276.737C245.838 276.674 245.806 276.6 245.792 276.522C245.778 276.444 245.782 276.364 245.804 276.288C246.362 274.445 248.124 269.178 250.523 267.814C253.453 266.134 260.058 265.818 262.986 267.498C265.266 268.815 267.673 273.799 268.629 275.948Z" fill="#FFDEDC"/>
<path fill-rule="evenodd" clip-rule="evenodd" d="M296.958 276.09C297.006 276.198 297.025 276.316 297.015 276.434C297.006 276.551 296.967 276.664 296.902 276.763C296.838 276.862 296.749 276.943 296.646 276.998C296.542 277.054 296.426 277.083 296.308 277.083H274.623C274.543 277.083 274.465 277.064 274.394 277.029C274.323 276.993 274.261 276.942 274.213 276.878C274.166 276.814 274.133 276.741 274.119 276.663C274.104 276.584 274.108 276.504 274.13 276.427C274.691 274.584 276.453 269.318 278.852 267.956C281.78 266.276 288.384 265.958 291.315 267.638C293.596 268.954 296.002 273.942 296.958 276.09Z" fill="#FFDEDC"/>
<path fill-rule="evenodd" clip-rule="evenodd" d="M249.165 110.915L263.811 106.123C264.488 111.11 266.62 119.692 270.233 120.216C262.334 145.83 254.152 136.579 245.828 124.888C250.439 124.909 249.617 118.228 249.165 110.931V110.915Z" fill="#FDBF99"/>
<path fill-rule="evenodd" clip-rule="evenodd" d="M247.5 120.569C257.625 122.82 264.743 113.404 267.808 106.847L265.19 98.5179L245.596 105.52L247.5 120.569Z" fill="#E9AF8B"/>
<path fill-rule="evenodd" clip-rule="evenodd" d="M249.996 82.2864C258.27 82.2864 268.753 89.0434 268.753 99.4211C268.753 101.586 265.675 101.446 265.298 103.898C264.727 107.632 261.369 111.379 259.66 112.956C256.69 115.703 253.867 118.781 249.83 118.781C245.738 118.781 242.383 116.198 239.719 113.135C236.996 110.004 236.032 103.942 235.64 98.7128C234.85 87.8584 241.722 82.2916 249.996 82.2916V82.2864Z" fill="#FDBF99"/>
<path fill-rule="evenodd" clip-rule="evenodd" d="M271.432 86.7393C275.855 88.0269 279.205 90.6892 278.805 95.8188C278.331 101.978 273.749 105.673 269.514 102.602C266.642 100.519 264.685 98.5574 264.685 94.3547C264.685 90.152 267.863 85.6991 271.426 86.7393H271.432Z" fill="#D2D2D2"/>
<path fill-rule="evenodd" clip-rule="evenodd" d="M244.633 112.598C245.628 112.027 246.845 111.558 249.154 111.46C248.201 113.567 246.302 114.418 244.633 112.598Z" fill="#EC9A86"/>
<path d="M261.309 102.249C264.733 98.7575 262.626 96.0611 260.053 97.591M244.18 103.892C242.305 105.817 242.492 108.353 245.32 108.335L244.18 103.892Z" stroke="#D39D7D" stroke-width="3" stroke-linecap="round" stroke-linejoin="round"/>
<path fill-rule="evenodd" clip-rule="evenodd" d="M253.133 98.0887C253.076 97.7996 252.907 97.5449 252.663 97.3805C252.418 97.216 252.118 97.1554 251.829 97.2118L246.078 98.3441C245.934 98.3721 245.796 98.4285 245.674 98.5101C245.551 98.5916 245.446 98.6967 245.365 98.8192C245.283 98.9416 245.227 99.0791 245.199 99.2236C245.171 99.3681 245.171 99.5167 245.201 99.6608L245.631 101.839C245.659 101.983 245.715 102.12 245.797 102.243C245.878 102.366 245.983 102.471 246.106 102.552C246.228 102.634 246.366 102.69 246.51 102.718C246.655 102.746 246.803 102.745 246.947 102.715L252.701 101.58C252.844 101.552 252.98 101.496 253.102 101.416C253.223 101.335 253.327 101.231 253.408 101.11C253.49 100.989 253.546 100.853 253.575 100.71C253.603 100.567 253.604 100.42 253.575 100.277L253.146 98.0993L253.133 98.0887Z" fill="#E2AC8A"/>
<path d="M253.133 98.0887C253.076 97.7996 252.907 97.5449 252.663 97.3805C252.418 97.216 252.118 97.1554 251.829 97.2118L246.078 98.3441C245.934 98.3721 245.796 98.4285 245.674 98.5101C245.551 98.5916 245.446 98.6967 245.365 98.8192C245.283 98.9416 245.227 99.0791 245.199 99.2236C245.171 99.3681 245.171 99.5167 245.201 99.6608L245.631 101.839C245.659 101.983 245.715 102.12 245.797 102.243C245.878 102.366 245.983 102.471 246.106 102.552C246.228 102.634 246.366 102.69 246.51 102.718C246.655 102.746 246.803 102.745 246.947 102.715L252.701 101.58C252.844 101.552 252.98 101.496 253.102 101.416C253.223 101.335 253.327 101.231 253.408 101.11C253.49 100.989 253.546 100.853 253.575 100.71C253.603 100.567 253.604 100.42 253.575 100.277L253.146 98.0993L253.133 98.0887Z" stroke="#707070" stroke-width="0.9" stroke-linecap="round" stroke-linejoin="round"/>
<path fill-rule="evenodd" clip-rule="evenodd" d="M242.033 100.201C242.005 100.056 241.948 99.919 241.867 99.7967C241.785 99.6743 241.68 99.5694 241.558 99.4878C241.435 99.4063 241.298 99.3498 241.153 99.3217C241.009 99.2935 240.861 99.2942 240.716 99.3237L234.963 100.459C234.82 100.487 234.684 100.543 234.562 100.623C234.441 100.704 234.336 100.808 234.255 100.929C234.174 101.05 234.118 101.186 234.089 101.329C234.06 101.472 234.06 101.619 234.089 101.762L234.518 103.94C234.546 104.084 234.602 104.222 234.684 104.344C234.765 104.467 234.87 104.572 234.993 104.654C235.115 104.735 235.253 104.792 235.397 104.82C235.542 104.848 235.69 104.847 235.834 104.817L241.585 103.684C241.73 103.656 241.867 103.6 241.99 103.519C242.112 103.437 242.218 103.332 242.299 103.209C242.381 103.087 242.437 102.949 242.465 102.805C242.493 102.661 242.492 102.512 242.462 102.368L242.033 100.19V100.201Z" fill="#E2AC8A"/>
<path fill-rule="evenodd" clip-rule="evenodd" d="M235.81 101.604C235.892 102.281 235.974 102.955 236.053 103.632L236.232 104.738L235.834 104.817C235.69 104.847 235.541 104.848 235.397 104.82C235.252 104.792 235.115 104.735 234.992 104.654C234.87 104.572 234.765 104.467 234.683 104.344C234.602 104.222 234.545 104.084 234.517 103.94L234.099 101.762C234.07 101.619 234.071 101.472 234.099 101.329C234.128 101.186 234.184 101.05 234.266 100.929C234.347 100.808 234.451 100.704 234.572 100.623C234.694 100.543 234.83 100.487 234.973 100.459L235.697 100.316L235.808 101.604H235.81Z" fill="#DFD5CE"/>
<path d="M242.033 100.201C242.005 100.056 241.948 99.919 241.867 99.7967C241.785 99.6743 241.68 99.5694 241.558 99.4878C241.435 99.4063 241.298 99.3498 241.153 99.3217C241.009 99.2935 240.861 99.2942 240.716 99.3237L234.963 100.459C234.82 100.487 234.684 100.543 234.562 100.623C234.441 100.704 234.336 100.808 234.255 100.929C234.174 101.05 234.118 101.186 234.089 101.329C234.06 101.472 234.06 101.619 234.089 101.762L234.518 103.94C234.546 104.084 234.602 104.222 234.684 104.344C234.765 104.467 234.87 104.572 234.993 104.654C235.115 104.735 235.253 104.792 235.397 104.82C235.542 104.848 235.69 104.847 235.834 104.817L241.585 103.684C241.73 103.656 241.867 103.6 241.99 103.519C242.112 103.437 242.218 103.332 242.299 103.209C242.381 103.087 242.437 102.949 242.465 102.805C242.493 102.661 242.492 102.512 242.462 102.368L242.033 100.19V100.201Z" stroke="#707070" stroke-width="0.9" stroke-linecap="round" stroke-linejoin="round"/>
<path fill-rule="evenodd" clip-rule="evenodd" d="M242.263 101.022C242.887 100.019 244.441 99.982 245.302 100.232L245.631 101.446C244.249 100.364 243.298 100.59 242.411 102.081L242.263 101.027V101.022Z" fill="#707070"/>
<path fill-rule="evenodd" clip-rule="evenodd" d="M235.7 98.3626C235.7 98.3626 227.516 94.6022 231.534 89.025C234.773 84.5484 232.711 81.8229 235.3 78.871C237.846 75.9744 241.312 75.1607 246.389 75.3214C248.298 75.3819 251.566 75.6137 254.265 74.7315C259.547 73.0015 264.126 75.1318 265.188 79.711C266.241 84.2192 267.086 83.4924 270.064 85.8729C273.043 88.2534 272.864 91.2079 273.751 94.4653C274.707 97.9491 271.223 99.2631 272.084 102.054C274.209 108.948 265.045 111.495 265.045 111.495C265.045 111.495 260.482 106.386 262.012 104.306C264.887 100.393 265.601 94.3626 259.573 95.5581C255.776 96.3112 258.52 93.2329 254.884 91.8004C240.269 86.052 235.684 95.0051 235.695 98.3626H235.7Z" fill="#E7E7E7"/>
<path fill-rule="evenodd" clip-rule="evenodd" d="M241.642 77.0199C241.642 77.0199 238.901 76.351 236.707 80.0929C235.127 82.7999 236.794 85.7308 235.29 87.5082C234.003 89.0329 232.394 91.6214 235.454 94.7945C232.523 92.888 231.904 89.0013 234.614 86.9816C236.125 85.8493 234.877 80.8539 235.93 79.3161C237.932 76.4195 241.631 77.0199 241.631 77.0199H241.642Z" fill="#BEBEBE"/>
<path fill-rule="evenodd" clip-rule="evenodd" d="M260.333 78.3945C260.333 78.3945 262.363 78.3234 263.064 81.8388C263.569 84.3852 261.784 86.5366 262.434 88.2877C262.99 89.7913 263.538 92.2376 260.746 94.3442C263.172 93.2725 264.433 90.1441 263.011 87.9638C262.221 86.7525 264.157 82.7973 263.756 81.3253C263.553 80.5455 263.116 79.8466 262.504 79.3222C261.892 78.7979 261.135 78.4732 260.333 78.3918V78.3945Z" fill="#BEBEBE"/>
<path fill-rule="evenodd" clip-rule="evenodd" d="M238.258 90.3811C231.47 88.0928 245.589 82.6472 245.308 76.5564C246.777 82.9948 234.082 87.1817 238.258 90.3811Z" fill="#BEBEBE"/>
<path fill-rule="evenodd" clip-rule="evenodd" d="M267.743 85.8835C266.131 89.1883 270.039 98.3837 265.602 101.644C269.623 98.7471 264.022 88.7038 267.743 85.8835Z" fill="#BEBEBE"/>
<path fill-rule="evenodd" clip-rule="evenodd" d="M244.944 86.3733C247.962 75.4794 255.367 78.2496 259.319 74.7342C255.138 78.1364 246.071 74.6341 244.944 86.3733Z" fill="#BEBEBE"/>
<path fill-rule="evenodd" clip-rule="evenodd" d="M251.901 88.1455C252.193 79.0949 257.613 80.293 259.706 76.9698C257.441 80.2351 250.79 78.6788 251.901 88.1455Z" fill="#BEBEBE"/>
<path fill-rule="evenodd" clip-rule="evenodd" d="M270.233 120.206C265.756 132.543 249.799 131.202 247.521 124.069C241.704 147.241 238.252 172.587 239.413 197.658C258.854 197.132 277.572 196.123 295.109 194.327C289.053 169.819 281.374 145.983 270.233 120.206Z" fill="#FFDEDC"/>
<path fill-rule="evenodd" clip-rule="evenodd" d="M238.167 168.35C249.085 168.945 259.616 168.508 269.582 166.564C260.658 170.251 250.267 171.009 238.167 168.35Z" fill="#D4B6B4"/>
<path fill-rule="evenodd" clip-rule="evenodd" d="M256.927 173.943C267.481 174.206 276.482 173.68 283.863 172.339C275.779 174.814 266.913 175.591 256.927 173.943Z" fill="#D4B6B4"/>
<path fill-rule="evenodd" clip-rule="evenodd" d="M253.246 98.1598L253.491 99.5054C253.491 99.5054 259.092 96.9669 262.381 96.0136C263.719 95.6265 264.177 96.9195 264.682 96.456C264.727 96.4139 264.617 94.7655 263.021 94.8761C259.653 95.1394 253.246 98.1519 253.246 98.1519V98.1598Z" fill="#707070"/>
<path fill-rule="evenodd" clip-rule="evenodd" d="M248.936 123.028C248.936 123.028 248.936 139.839 252.741 150.786C256.546 161.732 253.544 192.473 253.544 192.473C251.737 189.577 240.567 197.142 237.552 203.578C235.129 208.755 232.78 187.228 235.279 179.641C237.497 172.905 237.273 162.312 237.154 159.252C237.149 159.191 237.125 159.132 237.085 159.085C237.046 159.038 236.992 159.004 236.933 158.989C236.872 158.972 236.808 158.975 236.749 158.997C236.69 159.02 236.64 159.061 236.607 159.115C235.801 160.123 233.9 162.143 229.973 164.758C226.25 167.291 222.725 170.102 219.427 173.169L205.592 168.784C205.592 168.784 207.564 159.779 217.679 147.702C224.509 139.539 227.135 130.554 231.825 126.636C239.724 120.034 248.941 123.036 248.941 123.036L248.936 123.028Z" fill="#F1B5B5"/>
<path fill-rule="evenodd" clip-rule="evenodd" d="M203.027 168.795L204.388 164.827C208.257 155.847 223.638 164.126 228.225 160.121C234.384 154.744 237.136 152.642 239.519 154.138C242.502 156.01 240.572 165.164 240.93 173.298C241.386 184.005 243.287 194.335 243.287 194.335C237.441 213.105 232.038 212.542 227.461 175.457L203.027 168.795Z" fill="#D79696"/>
<path fill-rule="evenodd" clip-rule="evenodd" d="M239.19 175.734C239.19 175.734 244.135 178.588 245.881 181.603C247.627 184.618 247.548 187.359 247.508 189.582C247.469 191.804 245.085 193.693 242.866 194.322C240.646 194.951 237.417 193.35 236.519 192.07C235.621 190.791 237.789 188.429 236.993 185.966C236.198 183.504 233.981 180.645 233.981 180.645L239.19 175.726V175.734Z" fill="#FFC7A5"/>
<path fill-rule="evenodd" clip-rule="evenodd" d="M239.787 185.121C241.794 189.071 239.326 192.56 237.644 194.322C238.734 192.149 240.917 189.197 239.787 185.121Z" fill="#E1A47E"/>
<path fill-rule="evenodd" clip-rule="evenodd" d="M242.06 185.972C244.069 189.922 241.599 193.408 239.919 195.17C241.009 192.997 243.192 190.048 242.06 185.972Z" fill="#E1A47E"/>
<path fill-rule="evenodd" clip-rule="evenodd" d="M244.83 185.972C246.84 189.922 244.369 193.408 242.689 195.17C243.78 192.997 245.963 190.048 244.83 185.972Z" fill="#E1A47E"/>
<path fill-rule="evenodd" clip-rule="evenodd" d="M241.283 176.903C242.926 175.26 219.213 161.077 212.548 162.046C204.819 163.168 204.332 173.106 204.335 175.615C204.338 175.777 204.396 175.934 204.501 176.058C204.605 176.182 204.749 176.267 204.909 176.297C216.759 178.533 227.16 180.821 235.297 185.972C236.469 180.202 237.572 178.441 241.283 176.903Z" fill="#F1B5B5"/>
<path fill-rule="evenodd" clip-rule="evenodd" d="M269.583 119.689C269.583 119.689 290.512 119.41 294.159 129.406C294.949 131.581 287.631 147.497 292.398 162.875C297.382 178.97 302.404 199.062 298.757 203.18C296.59 205.632 293.227 190.572 284.514 190.685C275.8 190.799 270.394 194.338 270.394 194.338C270.394 194.338 273.501 185.277 273.659 178.456C273.783 173.161 272.735 161.464 271.15 156.229C269.564 150.994 266.112 136.416 266.389 132.266C266.786 126.317 269.583 119.695 269.583 119.695V119.689Z" fill="#F1B5B5"/>
<path fill-rule="evenodd" clip-rule="evenodd" d="M285.885 142.989C285.885 142.989 283.144 148.271 289.098 159.002C296.885 173.037 302.067 178.459 302.067 178.459L315.994 161.301L285.885 142.989Z" fill="#D79696"/>
<path fill-rule="evenodd" clip-rule="evenodd" d="M267.977 194.338C284.198 194.338 297.925 183.66 300.63 198.459C303.861 216.186 284.872 209.195 268.651 209.195C252.43 209.195 234.821 218.532 235.153 203.451C235.493 188.126 251.743 194.327 267.977 194.327V194.338Z" fill="#C6C6C6"/>
<path fill-rule="evenodd" clip-rule="evenodd" d="M302.302 254.484C294.033 253.073 289.815 253.347 283.197 254.06C268.235 255.675 252.464 258.993 237.094 254.484C237.094 254.484 232.288 205.895 240.533 195.947C243.351 192.55 247.353 188.897 250.434 188.71C260.177 188.118 261.439 192.292 268.696 190.685C274.105 189.492 276.614 186.596 285.251 187.067C293.133 187.499 294.381 191.544 296.946 195.947C303.45 207.114 302.302 254.484 302.302 254.484Z" fill="#E3E3E3"/>
<path fill-rule="evenodd" clip-rule="evenodd" d="M282.57 136.229C282.57 136.229 286.062 151.299 288.761 154.949C291.46 158.599 294.154 162.225 296.534 161.998C298.915 161.772 307.957 162.162 307.641 158.396C307.325 154.63 300.695 137.656 298.791 133.053C296.887 128.45 291.823 124.756 288.176 124.069" fill="#F1B5B5"/>
<path fill-rule="evenodd" clip-rule="evenodd" d="M300.116 154.13C305.688 153.682 311.373 159.081 312.229 165.954C313.045 172.429 306.799 177.777 300.116 177.777C293.432 177.777 288.885 172.926 288.885 166.401C288.885 159.876 293.446 154.665 300.116 154.13Z" fill="#D79696"/>
<path fill-rule="evenodd" clip-rule="evenodd" d="M307.649 159.031C302.235 152.69 296.21 156.134 293.406 158.396C290.602 160.658 291.228 170.978 294.109 173.092C296.99 175.207 302.557 175.784 307.16 172.339C309.919 170.275 310.32 162.156 307.649 159.031Z" fill="#F1B5B5"/>
<path fill-rule="evenodd" clip-rule="evenodd" d="M283.5 158.396C288.785 158.396 293.074 159.657 293.074 161.208C293.074 162.759 288.785 164.021 283.5 164.021C278.215 164.021 273.925 162.762 273.925 161.208C273.925 159.655 278.215 158.396 283.5 158.396Z" fill="#EDEDED"/>
<path fill-rule="evenodd" clip-rule="evenodd" d="M304.768 164.021C304.289 164.202 300.687 162.754 299.439 162.615C298.493 162.509 297.458 163.12 296.279 163.584C295.173 164.018 293.909 164.289 293.485 164.661C292.871 165.203 293.329 166.767 294.104 167.031C294.878 167.294 299.196 165.698 299.196 165.698L301.672 167.315L304.766 164.01L304.768 164.021Z" fill="#DBA98A"/>
<path fill-rule="evenodd" clip-rule="evenodd" d="M292.609 163.115C293.657 163.098 294.687 163.393 295.567 163.963C296.447 164.532 297.137 165.351 297.551 166.315C297.964 167.278 298.081 168.343 297.887 169.373C297.693 170.404 297.197 171.353 296.462 172.101C295.726 172.848 294.786 173.36 293.759 173.571C292.732 173.782 291.665 173.682 290.695 173.285C289.724 172.888 288.894 172.211 288.31 171.341C287.726 170.47 287.413 169.446 287.413 168.397C287.402 167.008 287.943 165.671 288.917 164.68C289.892 163.69 291.219 163.127 292.609 163.115ZM292.456 164.326C293.264 164.313 294.057 164.541 294.735 164.98C295.413 165.419 295.946 166.051 296.264 166.793C296.582 167.536 296.672 168.356 296.522 169.15C296.373 169.944 295.991 170.676 295.424 171.252C294.857 171.828 294.132 172.222 293.341 172.385C292.549 172.547 291.727 172.47 290.979 172.164C290.232 171.858 289.592 171.337 289.142 170.666C288.691 169.995 288.451 169.205 288.451 168.397C288.446 167.866 288.545 167.34 288.744 166.847C288.942 166.355 289.236 165.906 289.608 165.527C289.98 165.149 290.423 164.847 290.912 164.639C291.4 164.432 291.925 164.323 292.456 164.318V164.326Z" fill="#D79696"/>
<path fill-rule="evenodd" clip-rule="evenodd" d="M293.085 161.208C286.91 164.208 280.524 164.279 273.925 161.356C273.398 166.233 274.673 170.944 278.796 175.396C281.64 176.405 284.853 176.505 288.54 175.396C292.532 170.717 294.172 165.888 293.087 161.208H293.085Z" fill="#C28C8C"/>
<path fill-rule="evenodd" clip-rule="evenodd" d="M292.977 166.18C292.985 166.058 293.038 165.942 293.125 165.856C293.212 165.77 293.328 165.718 293.451 165.711C297.788 165.474 301.474 164.634 304.624 163.297C304.729 163.251 304.846 163.242 304.957 163.273C305.067 163.304 305.163 163.372 305.229 163.465C307.146 166.185 307.641 169.232 306.225 172.724C306.201 172.784 306.165 172.839 306.119 172.884C303.616 175.439 300.456 176.16 296.64 175.049C296.565 175.028 296.496 174.989 296.439 174.936C293.754 172.424 292.79 169.456 292.987 166.18H292.977Z" fill="#FDBF99"/>
<path fill-rule="evenodd" clip-rule="evenodd" d="M293.024 168.318C297.469 168.518 301.369 168.055 305.056 166.233C301.438 167.576 297.53 167.992 293.024 168.318Z" fill="#E1A47E"/>
<path fill-rule="evenodd" clip-rule="evenodd" d="M293.738 170.986C298.185 171.183 302.083 170.722 305.769 168.898C302.151 170.241 298.243 170.657 293.738 170.986Z" fill="#E1A47E"/>
<path fill-rule="evenodd" clip-rule="evenodd" d="M294.451 173.651C298.899 173.848 302.796 173.387 306.483 171.562C302.865 172.905 298.957 173.321 294.451 173.651Z" fill="#E1A47E"/>
<path fill-rule="evenodd" clip-rule="evenodd" d="M247.579 99.4369C248.953 98.6074 251.102 99.4369 251.102 99.4369C251.102 99.4369 249.612 101.188 248.089 101.085C247.128 101.02 247.089 99.7345 247.579 99.4369Z" fill="#FCE0D0"/>
<path fill-rule="evenodd" clip-rule="evenodd" d="M248.451 99.3026C248.626 99.3098 248.795 99.3683 248.937 99.4707C249.078 99.573 249.187 99.7148 249.249 99.8785C249.311 100.042 249.323 100.22 249.285 100.391C249.246 100.562 249.159 100.717 249.033 100.838C248.906 100.96 248.747 101.041 248.575 101.073C248.403 101.104 248.226 101.084 248.065 101.016C247.904 100.947 247.766 100.833 247.67 100.687C247.573 100.541 247.522 100.37 247.521 100.195C247.527 99.9539 247.628 99.7244 247.802 99.5572C247.976 99.3899 248.21 99.2984 248.451 99.3026Z" fill="#766358"/>
<path fill-rule="evenodd" clip-rule="evenodd" d="M247.228 99.824C247.199 98.618 249.714 98.5917 251.102 99.4369C250.077 99.2184 248.311 99.2842 247.228 99.824Z" fill="#675E59"/>
<path fill-rule="evenodd" clip-rule="evenodd" d="M237.311 101.67C238.686 100.838 240.832 101.67 240.832 101.67C240.832 101.67 239.342 103.418 237.82 103.316C236.859 103.25 236.822 101.965 237.311 101.67Z" fill="#FCE0D0"/>
<path fill-rule="evenodd" clip-rule="evenodd" d="M238.181 101.536C238.355 101.542 238.523 101.599 238.665 101.7C238.807 101.801 238.916 101.942 238.979 102.104C239.042 102.267 239.056 102.444 239.019 102.614C238.982 102.784 238.896 102.94 238.771 103.062C238.647 103.184 238.489 103.266 238.318 103.299C238.147 103.332 237.97 103.314 237.809 103.248C237.648 103.181 237.51 103.069 237.412 102.924C237.315 102.78 237.261 102.61 237.259 102.436C237.265 102.195 237.366 101.966 237.54 101.799C237.714 101.632 237.948 101.541 238.189 101.546L238.181 101.536Z" fill="#766358"/>
<path fill-rule="evenodd" clip-rule="evenodd" d="M236.959 102.054C236.93 100.848 239.448 100.825 240.833 101.67C239.808 101.449 238.042 101.517 236.959 102.054Z" fill="#675E59"/>
<path fill-rule="evenodd" clip-rule="evenodd" d="M110.109 212.363H101.959L84.8242 270.906H92.9742L110.109 212.363Z" fill="#A9A9A9"/>
<path fill-rule="evenodd" clip-rule="evenodd" d="M139.257 212.363H147.407L164.542 270.906H156.392L139.257 212.363Z" fill="#A9A9A9"/>
<path fill-rule="evenodd" clip-rule="evenodd" d="M157.611 202.366C157.61 201.483 157.259 200.636 156.635 200.012C156.01 199.387 155.163 199.036 154.28 199.035H95.4683C94.5851 199.036 93.7382 199.387 93.1136 200.012C92.4891 200.636 92.1379 201.483 92.1372 202.366V209.031C92.1379 209.915 92.4891 210.761 93.1136 211.386C93.7382 212.011 94.5851 212.362 95.4683 212.362H154.28C155.163 212.362 156.01 212.011 156.635 211.386C157.259 210.761 157.61 209.915 157.611 209.031V202.366Z" fill="#93939B"/>
<path fill-rule="evenodd" clip-rule="evenodd" d="M130.185 258.116H144.805L144.457 268.478C140.586 272.796 135.822 272.306 131.528 268.164L130.185 258.116Z" fill="#E7AD89"/>
<path fill-rule="evenodd" clip-rule="evenodd" d="M161.905 258.116H176.525L175.543 268.794L163.251 268.164L161.905 258.116Z" fill="#E7AD89"/>
<path fill-rule="evenodd" clip-rule="evenodd" d="M152.097 271.493C150.827 267.066 146.161 265.254 141.845 267.24C138.854 268.68 135.331 268.501 131.552 267.825C129.993 269.312 129.724 273.562 130.962 276.743C137.988 277.95 145.013 277.415 152.028 276.504C152.028 276.504 152.597 273.275 152.086 271.501L152.097 271.493Z" fill="#B0B0B0"/>
<path fill-rule="evenodd" clip-rule="evenodd" d="M145.885 265.813C149.982 265.813 153.31 269.057 153.31 273.052C153.31 277.046 149.982 280.291 145.885 280.291C141.787 280.291 138.456 277.046 138.456 273.052C138.456 269.057 141.785 265.813 145.885 265.813Z" fill="#D3D3D3"/>
<path fill-rule="evenodd" clip-rule="evenodd" d="M184.728 269.863C183.411 265.436 178.545 263.624 174.05 265.61C170.935 268.443 167.264 268.017 163.33 266.195C161.705 267.682 161.426 271.932 162.714 275.111C170.031 276.32 177.197 276.104 184.507 275.19C184.507 275.19 185.26 271.645 184.728 269.863Z" fill="#B0B0B0"/>
<path fill-rule="evenodd" clip-rule="evenodd" d="M178.042 264.91C182.566 264.91 186.237 267.869 186.237 271.514C186.237 275.158 182.566 278.118 178.042 278.118C173.518 278.118 169.847 275.145 169.847 271.493C169.847 267.84 173.534 264.91 178.042 264.91Z" fill="#D3D3D3"/>
<path fill-rule="evenodd" clip-rule="evenodd" d="M153.32 182.225C138.687 177.969 133.75 175.884 123.546 181.113C121.761 182.03 119.767 187.354 120.257 190.554C122.213 203.325 134.279 213.287 150.429 220.686C150.676 220.8 150.88 220.988 151.013 221.224C151.146 221.461 151.2 221.733 151.169 222.003C149.71 234.011 153.892 247.188 156.256 263.027C156.305 263.356 156.473 263.657 156.729 263.87C156.985 264.083 157.311 264.195 157.644 264.183L177.789 263.482C177.953 263.476 178.114 263.437 178.263 263.366C178.412 263.296 178.545 263.196 178.654 263.073C178.763 262.95 178.846 262.806 178.897 262.65C178.949 262.494 178.969 262.33 178.955 262.166C178.397 255.085 175.666 220.476 175.353 216.497C175.332 216.25 175.274 216.007 175.179 215.778C169.702 202.635 159.187 185.758 153.323 182.201L153.32 182.225Z" fill="#FFDEDC"/>
<path fill-rule="evenodd" clip-rule="evenodd" d="M86.6067 179.328C86.6067 179.328 84.0077 191.225 85.9115 190.751C87.8154 190.277 91.0359 188.95 96.708 188.213C111.899 186.23 134.467 196.463 148.905 193.129C153.855 191.989 158.743 189.163 160.647 187.578C162.55 185.993 166.358 180.755 162.227 180.913C158.095 181.071 119.549 180.913 113.511 180.123C107.473 179.333 86.6014 179.333 86.6014 179.333L86.6067 179.328Z" fill="#E2C6C4"/>
<path fill-rule="evenodd" clip-rule="evenodd" d="M118.828 190.33C118.828 190.33 127.204 195.725 131.965 197.787C136.726 199.849 144.091 204.721 147.28 206.74C162.35 216.349 159.169 223.533 159.314 228.307C159.504 234.977 162.577 259.596 162.738 268.796C162.806 272.841 159.051 269.663 155.557 269.502C152.062 269.341 144.944 266.647 144.944 266.647L146.214 233.963L118.828 190.332V190.33Z" fill="#E7CECC"/>
<path fill-rule="evenodd" clip-rule="evenodd" d="M127.396 186.543C115.415 179.791 101.969 174.891 91.7626 180.123C89.9799 181.037 88.9371 186.722 89.1899 192.184C89.7797 204.979 104.51 215.04 120.602 222.429C120.972 222.599 121.277 222.882 121.473 223.237C121.669 223.593 121.746 224.002 121.692 224.404C120.162 236.167 121.229 247.511 123.415 263.077C123.46 263.401 123.621 263.697 123.868 263.912C124.114 264.126 124.431 264.244 124.758 264.243H148.497C148.661 264.244 148.824 264.21 148.975 264.145C149.126 264.081 149.263 263.986 149.376 263.866C149.49 263.747 149.577 263.606 149.634 263.452C149.691 263.297 149.716 263.133 149.708 262.969C149.339 255.767 147.533 220.365 147.398 217.769C147.393 217.668 147.375 217.569 147.343 217.474C142.603 203.214 134.669 195.12 127.396 186.543Z" fill="#FFDEDC"/>
<path fill-rule="evenodd" clip-rule="evenodd" d="M86.6061 179.328C86.6061 179.328 85.1183 187.549 94.477 186.614C107.117 185.35 134.458 196.463 148.896 193.129C153.847 191.989 158.734 189.163 160.638 187.578C162.542 185.993 166.35 180.755 162.218 180.913C158.086 181.071 119.541 180.913 113.502 180.123C107.464 179.333 86.593 179.333 86.593 179.333L86.6061 179.328Z" fill="#E2C6C4"/>
<path fill-rule="evenodd" clip-rule="evenodd" d="M112.487 99.7134L128.513 98.1335C128.85 105.357 131.41 109.104 133.429 112.94C127.525 125.288 116.7 120.853 109.077 115.666C111.123 110.939 112.979 107.408 112.487 99.7213V99.7134Z" fill="#E7AD89"/>
<path fill-rule="evenodd" clip-rule="evenodd" d="M109.432 101.562L136.086 106.004C127.117 112.548 118.18 115.147 109.432 101.562Z" fill="#DDA17B"/>
<path fill-rule="evenodd" clip-rule="evenodd" d="M120.181 66.9028C135.36 65.9653 137.495 83.9322 137.495 92.83C137.495 100.467 130.154 109.586 124.792 110.062C118.188 110.649 107.183 100.777 107.183 91.8926C107.183 83.0079 103.234 67.9614 120.181 66.916V66.9028Z" fill="#E7AD89"/>
<path fill-rule="evenodd" clip-rule="evenodd" d="M114.196 91.7504C115.628 91.4739 116.953 91.4212 118.638 91.0183C117.898 92.9064 115.412 93.3356 114.196 91.7504Z" fill="#E6D0C2"/>
<path fill-rule="evenodd" clip-rule="evenodd" d="M116.418 91.1895C116.968 91.1895 117.416 91.5397 117.416 91.9795C117.416 92.4192 116.968 92.7695 116.418 92.7695C115.868 92.7695 115.417 92.4192 115.417 91.9795C115.417 91.5397 115.865 91.1895 116.418 91.1895Z" fill="#453C37"/>
<path fill-rule="evenodd" clip-rule="evenodd" d="M132.763 88.8854C131.317 89.0487 130.035 89.3936 128.307 89.5147C129.579 91.0947 132.078 90.7603 132.763 88.8854Z" fill="#E6D0C2"/>
<path fill-rule="evenodd" clip-rule="evenodd" d="M130.477 89.0065C129.95 89.1724 129.629 89.6412 129.758 90.0599C129.887 90.4785 130.422 90.6734 130.948 90.5101C131.475 90.3469 131.796 89.8755 131.667 89.4568C131.538 89.0381 131.004 88.8433 130.477 89.0065Z" fill="#453C37"/>
<path fill-rule="evenodd" clip-rule="evenodd" d="M113.311 91.495C116.013 91.3975 117.961 91.1052 119.344 90.5365C117.63 91.7952 115.62 92.1147 113.311 91.495Z" fill="#514D4A"/>
<path fill-rule="evenodd" clip-rule="evenodd" d="M127.396 89.4358C130.092 89.3541 132.052 89.0276 133.429 88.4772C131.849 89.606 129.838 89.9255 127.396 89.4358Z" fill="#453C37"/>
<path fill-rule="evenodd" clip-rule="evenodd" d="M122.14 78.0811L117.248 66.9028C117.248 66.9028 108.558 65.6809 104.713 71.1555C93.3218 87.4029 110.109 100.122 110.109 100.122C108.796 97.5246 108.222 94.6172 108.447 91.7162C108.908 83.6583 116.703 83.0264 122.14 78.0916V78.0811Z" fill="#564D47"/>
<path fill-rule="evenodd" clip-rule="evenodd" d="M116.15 68.7092C104.853 68.1378 100.982 81.2515 103.3 86.9552C103.176 78.2364 107.228 70.5525 116.15 68.7092Z" fill="#271D17"/>
<path fill-rule="evenodd" clip-rule="evenodd" d="M116.756 70.4603C104.556 71.2372 102.607 85.5464 106.278 93.3988C104.419 84.9723 106.033 72.1483 116.756 70.4603Z" fill="#271D17"/>
<path fill-rule="evenodd" clip-rule="evenodd" d="M116.15 65.9732C118.61 70.7421 120.659 75.5399 121.888 80.1929V79.9296C121.193 72.9804 118.489 68.8962 116.15 65.9732Z" fill="#271D17"/>
<path fill-rule="evenodd" clip-rule="evenodd" d="M117.182 66.7869C117.182 66.7869 125.609 62.4472 132.969 68.775C144.118 78.368 137.508 90.8287 137.508 90.8287C136.297 85.4437 136.518 80.9039 132.337 79.7689C127.986 78.584 125.377 79.6741 121.901 78.0994L117.182 66.7869Z" fill="#564D47"/>
<path fill-rule="evenodd" clip-rule="evenodd" d="M120.181 68.1773C129.347 66.8132 136.855 73.1989 138.087 81.4042C138.045 79.2535 137.51 77.1411 136.522 75.23C135.534 73.319 134.121 71.6604 132.39 70.3823C130.66 69.1042 128.659 68.2406 126.542 67.8583C124.425 67.476 122.249 67.5851 120.181 68.1773Z" fill="#271D17"/>
<path fill-rule="evenodd" clip-rule="evenodd" d="M116.149 65.9732C118.609 70.7421 120.658 75.5399 121.887 80.1929V79.9296C121.192 72.9804 118.488 68.8962 116.149 65.9732Z" fill="#271D17"/>
<path fill-rule="evenodd" clip-rule="evenodd" d="M121.485 101.538C122.767 104.464 127.789 103.742 128.305 100.506C126.514 101.156 124.289 101.559 121.485 101.538Z" fill="#E57562"/>
<path d="M124.792 90.8288C125.845 94.1467 125.503 95.9189 123.162 95.4291" stroke="#D99675" stroke-width="3" stroke-linecap="round" stroke-linejoin="round"/>
<path fill-rule="evenodd" clip-rule="evenodd" d="M132.794 111.46C129.018 120.877 113.779 124.045 110.583 111.46C104.713 117.749 105.753 125.767 108.363 134.178C118.825 138.273 128.152 138.965 135.651 134.178C138.498 126.805 138.414 119.266 132.794 111.46Z" fill="white"/>
<path d="M108.718 112.985C112.731 120.095 117.132 122.631 121.885 122.291C126.467 121.959 131.38 119.01 136.599 112.269" stroke="#BCBCBC" stroke-width="2.26" stroke-linecap="round" stroke-linejoin="round"/>
<path fill-rule="evenodd" clip-rule="evenodd" d="M149.772 115.152C144.304 113.555 138.71 112.425 133.05 111.776C130.47 124.809 123.162 133.896 123.162 133.896C123.162 133.896 114.838 125.046 110.549 111.945C104.448 114.376 97.4088 117.246 91.9421 121.925C95.2547 143.718 90.0988 158.222 89.8354 185.187C112.687 184.66 125.745 188.689 138.288 188.539C145.055 188.458 150.014 186.635 155.638 183.299C155.135 162.333 149.005 137.914 149.772 115.15V115.152Z" fill="#FFDEDC"/>
<path fill-rule="evenodd" clip-rule="evenodd" d="M92.9108 168.532C87.3967 159.223 81.0136 128.532 96.0049 126.51C99.3149 126.065 103.531 130.073 107.099 137.514C110.559 144.727 110.522 158.975 112.666 163.499C114.246 166.833 124.012 171.249 123.515 174.343C123.017 177.437 120.755 178.388 112.308 176.605C108.563 175.815 107.054 174.414 102.938 175.641C99.3518 176.711 95.5651 173.024 92.9108 168.532Z" fill="#E2C6C4"/>
<path fill-rule="evenodd" clip-rule="evenodd" d="M141.342 171.012C140.768 169.287 145.107 162.322 145.15 158.517C145.236 150.354 144.855 148.229 144.196 143.168C143.754 139.745 143.127 130.791 148.244 131.15C150.614 131.315 153.837 132.34 154.669 136.503C155.501 140.666 157.36 156.495 157.858 160.898C158.355 165.301 160.143 171.607 158.832 173.153C157.521 174.699 151.301 178.269 149.771 178.448C146.221 178.865 143.364 177.082 141.344 171.012H141.342Z" fill="#E2C6C4"/>
<path fill-rule="evenodd" clip-rule="evenodd" d="M113.598 164.924L115.502 159.865C122.361 163.233 130.898 168.571 134.698 174.996L132.536 176.474L113.598 164.924Z" fill="#EEEEEE"/>
<path d="M113.303 163.147C120.81 166.894 128.078 170.965 134.356 176.1M114.477 160.529C121.987 164.276 128.776 169.029 134.698 174.996L114.477 160.529ZM114.159 161.422C121.669 165.169 128.694 169.743 134.619 175.71L114.159 161.422ZM113.553 162.254C121.063 166.001 128.447 170.133 134.356 176.1L113.553 162.254Z" stroke="#ADADAD" stroke-width="1.13" stroke-linecap="round" stroke-linejoin="round"/>
<path fill-rule="evenodd" clip-rule="evenodd" d="M134.699 175.607C135.088 168.25 138.593 158.623 144.516 154.293L147.233 167.007L136.603 179.539L134.699 175.607Z" fill="#EEEEEE"/>
<path fill-rule="evenodd" clip-rule="evenodd" d="M134.699 175.175C136.418 169.106 140.855 161.219 146.975 156.042L148.502 169.369L137.237 178.585L134.699 175.188V175.175Z" fill="#E2E2E2"/>
<path fill-rule="evenodd" clip-rule="evenodd" d="M136.086 174.801C138.398 170.043 142.54 163.589 148.66 158.407L149.771 171.734L138.506 180.95L136.086 174.815V174.801Z" fill="#CCCCCC"/>
<path fill-rule="evenodd" clip-rule="evenodd" d="M136.602 174.027L152.31 159.215L151.414 173.798L138.843 184.571C138.272 186.006 136.571 186.583 135.157 185.184L115.186 176.105L111.618 163.002L133.092 174.143C133.966 175.62 136.089 175.302 136.602 174.022V174.027Z" fill="#707070"/>
<path fill-rule="evenodd" clip-rule="evenodd" d="M133.039 172.463L135.657 187.309L138.872 186.617L136.602 172.463H133.039Z" fill="#626262"/>
<path fill-rule="evenodd" clip-rule="evenodd" d="M102.222 126.37C94.0403 116.401 87.7942 122.684 87.1437 129.383C86.4407 136.645 84.3841 161.132 97.9929 169.951L109.579 162.536C109.448 156.711 106.454 131.526 102.219 126.37H102.222Z" fill="#FFDEDC"/>
<path fill-rule="evenodd" clip-rule="evenodd" d="M93.5062 171.378C93.5062 171.378 89.4009 165.322 89.1534 160.421C88.8084 153.643 104.953 145.764 112.566 155.457C115.602 159.315 114.212 162.212 114.212 162.212L93.5062 171.383V171.378Z" fill="#F0D3D1"/>
<path fill-rule="evenodd" clip-rule="evenodd" d="M102.312 153.996C112.055 153.548 113.127 161.106 112.658 165.901C112.226 170.362 109.216 175.117 104.669 175.357C98.0854 175.715 91.6076 168.834 91.0125 164.592C89.7485 155.639 98.1486 154.188 102.312 153.996Z" fill="#FFDEDC"/>
<path fill-rule="evenodd" clip-rule="evenodd" d="M108.492 166.728C111.916 166.728 114.681 169.142 114.681 172.113C114.681 175.083 111.916 177.498 108.492 177.498C105.069 177.498 102.304 175.086 102.304 172.113C102.304 169.14 105.077 166.728 108.492 166.728Z" fill="#C4A5A3"/>
<path fill-rule="evenodd" clip-rule="evenodd" d="M103.921 172.568C103.463 170.541 104.663 167.994 110.217 167.828C111.334 167.797 113.148 168.618 113.148 168.618L113.674 170.396C113.674 170.396 111.736 170.348 111.852 171.131C112.174 173.335 114.32 172.829 115.663 172.711C117.584 172.511 119.468 172.042 121.258 171.318C121.301 171.299 121.348 171.292 121.394 171.298C121.441 171.303 121.484 171.321 121.522 171.349C121.563 171.378 121.596 171.418 121.616 171.465C121.635 171.511 121.641 171.563 121.632 171.612C121.469 172.929 121.021 176.5 120.919 177.314C120.903 177.416 120.851 177.51 120.771 177.577C120.079 178.14 116.655 180.737 112.956 179.992C103.189 178.053 104.371 174.593 103.913 172.568H103.921Z" fill="#E7AD89"/>
<path fill-rule="evenodd" clip-rule="evenodd" d="M114.456 174.907C116.851 174.825 119.221 174.381 121.484 173.59C119.353 174.801 116.88 175.264 114.456 174.907Z" fill="#CF9877"/>
<path fill-rule="evenodd" clip-rule="evenodd" d="M114.412 176.695C116.807 176.612 119.177 176.168 121.44 175.378C119.309 176.586 116.836 177.049 114.412 176.695Z" fill="#CF9877"/>
<path fill-rule="evenodd" clip-rule="evenodd" d="M114.367 178.491C116.763 178.403 119.132 177.955 121.395 177.161C119.266 178.375 116.792 178.843 114.367 178.491Z" fill="#CF9877"/>
<path fill-rule="evenodd" clip-rule="evenodd" d="M144.268 120.969C147.615 110.752 154.275 115.905 157.282 121.928C160.545 128.456 173.15 148.766 163.602 161.88L150.127 159.115C146.383 152.561 142.198 127.308 144.268 120.969Z" fill="#FFDEDC"/>
<path fill-rule="evenodd" clip-rule="evenodd" d="M149.772 162.428C149.772 162.428 144.687 152.806 149.772 150.649C170.237 141.959 171.923 153.145 170.377 158.975C168.831 164.805 149.772 162.428 149.772 162.428Z" fill="#F0D3D1"/>
<path fill-rule="evenodd" clip-rule="evenodd" d="M155.414 150.162C150.503 151.131 148.684 154.565 148.797 158.217C148.867 159.424 149.2 160.601 149.771 161.667L152.31 159.46C152.31 159.46 152.046 162.014 151.952 163.349C151.654 167.631 157.097 170.535 160.536 169.951C168.278 168.634 170.313 158.193 168.699 153.996C167.085 149.798 161.629 148.935 155.412 150.162H155.414Z" fill="#FFDEDC"/>
<path fill-rule="evenodd" clip-rule="evenodd" d="M156.702 160.761C159.98 160.761 162.64 163.347 162.64 166.533C162.64 169.719 159.98 172.302 156.702 172.302C153.423 172.302 150.764 169.717 150.764 166.533C150.764 163.349 153.423 160.761 156.702 160.761Z" fill="#C4A5A3"/>
<path fill-rule="evenodd" clip-rule="evenodd" d="M160.312 164.511C159.338 162.667 157.181 160.742 152.891 162.549C152.53 162.745 152.204 163.001 151.928 163.305L151.896 166.091C151.896 166.091 152.617 165.946 152.72 166.264C153.402 168.387 150.35 168.898 149.105 169.121C146.869 169.509 144.059 169.785 142.822 169.896C142.768 169.9 142.717 169.92 142.674 169.954C142.632 169.987 142.6 170.032 142.582 170.083C142.563 170.134 142.56 170.19 142.574 170.243C142.589 170.295 142.619 170.343 142.661 170.377L148.167 175.328C148.232 175.386 148.313 175.423 148.399 175.433C149.189 175.526 153.173 175.928 154.919 174.862C163.417 169.672 161.115 166.03 160.312 164.511Z" fill="#E7AD89"/>
<path fill-rule="evenodd" clip-rule="evenodd" d="M144.263 171.818C146.646 171.703 149.005 171.294 151.288 170.601C149.089 171.857 146.717 172.084 144.263 171.818Z" fill="#CF9877"/>
<path fill-rule="evenodd" clip-rule="evenodd" d="M144.977 173.135C147.361 173.019 149.721 172.61 152.005 171.915C149.803 173.174 147.431 173.4 144.977 173.135Z" fill="#CF9877"/>
<path fill-rule="evenodd" clip-rule="evenodd" d="M146.259 174.83C148.643 174.716 151.003 174.307 153.287 173.614C151.086 174.87 148.713 175.096 146.259 174.83Z" fill="#CF9877"/>
</svg>
