<svg width="307" height="259" viewBox="0 0 307 259" fill="none" xmlns="http://www.w3.org/2000/svg">
<path fill-rule="evenodd" clip-rule="evenodd" d="M121.85 2.36189C168.154 -11.2523 212.655 38.1232 242.094 45.199C287.496 56.109 309.614 86.728 296.788 130.827C290.936 150.957 314.736 191.895 304.334 214.958C282.466 263.439 225.22 265.144 163.146 251.783C118.506 242.173 61.5992 257.728 38.8668 226.817C15.4671 194.972 20.116 171.22 6.97613 143.468C-13.2261 100.803 12.1013 56.6158 61.6412 41.1161C102.73 28.2458 80.3499 14.5628 121.85 2.36189Z" fill="#FFFBF4"/>
<path d="M38.8919 167.746C39.0124 172.548 39.4082 177.074 40.1751 180.884C40.3395 181.708 40.5078 182.544 40.7067 183.311C40.8693 183.905 41.0395 184.498 41.2039 185.032C42.424 188.918 44.2542 191.509 46.788 192.04L47.4153 192.132L47.8838 192.167C51.8998 192.209 80.2316 192.237 115.74 192.237C143.455 192.237 175.504 192.209 203.677 192.209H208.649C230.833 192.18 250.236 192.167 262.658 192.167H271.264L271.664 192.132L272.683 191.92C273.112 191.801 273.529 191.642 273.928 191.446H273.947L274.521 191.157L275.205 190.775L276.353 190.01L276.613 189.818L277.284 189.287L277.95 188.694L278.032 188.631C278.476 188.207 278.898 187.76 279.296 187.292L279.487 187.051L279.573 186.927L280.147 186.177L280.543 185.632L280.789 185.265L281.382 184.32L281.933 183.301L282.038 183.054L282.229 182.582L282.692 181.486L282.914 180.874C284.092 177.461 284.561 173.175 284.107 167.736C283.817 164.12 283.113 160.003 281.954 155.292C280.535 149.316 275.052 141.682 273.025 139.655C247.623 114.054 190.336 96.6878 177.659 94.3222C176.225 94.0468 174.198 93.7485 171.698 93.3966C150.28 90.4363 93.9758 85.3742 77.4491 90.6638C74.8565 91.5209 72.3515 92.623 69.9679 93.955L68.3558 91.0865L68.1817 90.8952L71.3964 90.4669L70.8036 89.8147C69.947 88.8729 68.7532 88.3073 67.4818 88.2409L59.9337 87.8106C58.1819 87.7398 56.5201 88.2409 56.5201 89.0804V91.0023C56.5201 91.8227 58.1188 92.3295 59.8132 92.0981L60.6661 91.991L61.0333 100.298L61.0811 100.331C50.7715 109.51 43.3974 122.897 41.2116 135.469C39.7046 144.023 38.5649 156.616 38.8995 167.746H38.8919Z" fill="#C7C4BE"/>
<path fill-rule="evenodd" clip-rule="evenodd" d="M74.8404 137.314H69.3691V155.092H74.8404V137.314Z" fill="#CA8484"/>
<path fill-rule="evenodd" clip-rule="evenodd" d="M81.3233 148.939V143.468H63.5459V148.939H81.3233Z" fill="#CA8484"/>
<path d="M278.03 164.116C278.148 164.355 278.343 164.547 278.585 164.66C278.826 164.772 279.099 164.8 279.357 164.736C279.616 164.673 279.846 164.524 280.008 164.313C280.17 164.101 280.256 163.841 280.25 163.575C280.183 159.197 278.866 152.609 276.297 147.937C275.643 146.74 274.678 145.74 273.505 145.044C272.331 144.347 270.992 143.979 269.627 143.979C268.476 143.982 267.33 144.136 266.219 144.438C265.818 144.546 265.457 144.766 265.177 145.073C264.898 145.379 264.712 145.76 264.641 146.169C264.571 146.578 264.619 146.998 264.78 147.381C264.941 147.763 265.208 148.092 265.55 148.327C270.612 151.841 274.846 157.75 278.03 164.116Z" fill="white"/>
<path d="M248.27 126.761C248.524 126.932 248.717 127.179 248.821 127.468C248.924 127.756 248.932 128.07 248.843 128.363C248.754 128.656 248.574 128.913 248.328 129.096C248.082 129.278 247.784 129.377 247.478 129.378H205.406C204.611 129.377 203.829 129.176 203.133 128.792C202.437 128.408 201.849 127.854 201.424 127.182L187.3 104.771C187.125 104.491 187.038 104.165 187.049 103.836C187.059 103.506 187.167 103.187 187.359 102.918C187.551 102.65 187.819 102.445 188.129 102.332C188.439 102.218 188.775 102.2 189.095 102.281C205.97 106.433 230.14 114.666 248.27 126.76V126.761Z" fill="#D5D5D5"/>
<path d="M247.474 129.374V128.139L208.961 128.129H205.41C204.825 128.133 204.25 127.987 203.737 127.707C203.225 127.427 202.792 127.02 202.48 126.527L202.046 125.813L188.351 104.112L188.368 103.651L188.701 103.471C197.098 105.529 225.895 113.333 247.575 127.802L247.47 129.372L247.474 129.374ZM186.248 105.439L200.38 127.848C200.678 128.325 201.044 128.756 201.466 129.127C202.55 130.097 203.955 130.63 205.41 130.623H247.482C248.052 130.617 248.607 130.43 249.063 130.087C249.52 129.745 249.855 129.265 250.02 128.719C250.184 128.172 250.17 127.588 249.979 127.05C249.788 126.512 249.431 126.049 248.958 125.729C226.943 111.032 197.81 103.136 189.413 101.059C188.85 100.926 188.261 100.961 187.718 101.162C187.176 101.363 186.706 101.72 186.366 102.188C186.021 102.655 185.825 103.216 185.805 103.796C185.786 104.377 185.942 104.949 186.255 105.439H186.248Z" fill="white"/>
<path d="M52.4769 129.581C51.9599 129.581 51.4504 129.457 50.9921 129.217C50.5338 128.978 50.1404 128.631 49.8457 128.206C49.5511 127.782 49.3639 127.292 49.3002 126.778C49.2365 126.265 49.2983 125.744 49.4803 125.26C54.5442 111.838 65.504 99.9847 77.0012 95.5384C81.3078 93.8728 100.961 94.2878 112.095 94.4235C112.898 94.4371 113.663 94.7654 114.225 95.3378C114.788 95.9101 115.103 96.6807 115.103 97.4833L114.912 126.245C114.906 127.076 114.573 127.871 113.984 128.457C113.396 129.043 112.601 129.374 111.77 129.378L52.475 129.569L52.4769 129.581Z" fill="#DAE3E2"/>
<path d="M50.6432 125.7C55.1564 113.744 64.5595 102.987 74.6568 97.9516C75.5694 97.4872 76.5051 97.0697 77.4603 96.7009C79.4721 95.9245 85.9838 95.5286 96.8059 95.5286C101.135 95.5286 105.513 95.586 109.278 95.6357L112.082 95.6644C112.556 95.6729 113.008 95.8684 113.339 96.2083C113.67 96.5481 113.853 97.0049 113.849 97.4792L113.658 126.245C113.653 126.749 113.449 127.23 113.091 127.585C112.733 127.94 112.249 128.138 111.745 128.138L77.1046 128.259L52.4561 128.335C52.1409 128.335 51.8305 128.258 51.5513 128.112C51.2722 127.966 51.0325 127.755 50.8527 127.496C50.6729 127.237 50.5584 126.938 50.5189 126.626C50.4795 126.313 50.5162 125.995 50.626 125.7H50.6432ZM48.8283 128.915C49.2358 129.505 49.7804 129.987 50.4153 130.32C51.0501 130.653 51.7564 130.827 52.4733 130.827H52.4867L111.77 130.636C112.93 130.626 114.04 130.163 114.863 129.345C115.685 128.526 116.154 127.418 116.169 126.258L116.346 97.4907C116.349 96.359 115.905 95.2719 115.112 94.4646C114.319 93.6572 113.24 93.1945 112.109 93.1764L109.305 93.1477C105.54 93.0846 101.147 93.0272 96.804 93.0272C85.3699 93.0272 78.9214 93.4518 76.5615 94.3831C64.8291 98.9116 53.4773 111.137 48.312 124.826C48.0627 125.499 47.9794 126.222 48.0693 126.934C48.1592 127.646 48.4196 128.325 48.8283 128.915Z" fill="white"/>
<path d="M41.9227 145.34C41.4388 150.695 40.343 159.8 42.2305 159.8C44.1181 159.8 49.2776 150.19 49.2776 144.897C49.2776 139.603 46.5315 139.836 44.6344 139.871C42.7373 139.905 42.3606 140.349 41.9227 145.34Z" fill="#F7F7F7"/>
<path d="M135.042 186.559H187.653C188.631 186.559 189.599 186.366 190.502 185.992C191.405 185.617 192.226 185.069 192.917 184.377C193.608 183.685 194.156 182.864 194.529 181.96C194.903 181.057 195.095 180.089 195.094 179.111V128.209H121.885V173.402C121.884 175.13 122.224 176.841 122.885 178.438C123.546 180.034 124.515 181.485 125.737 182.707C126.959 183.929 128.41 184.898 130.006 185.559C131.603 186.22 133.314 186.56 135.042 186.559Z" fill="#C7C4BE"/>
<path d="M173.549 98.7818C174.233 98.8859 174.887 99.1354 175.466 99.5134C176.045 99.8915 176.537 100.389 176.907 100.973L193.222 126.936C193.371 127.176 193.453 127.451 193.46 127.734C193.468 128.016 193.4 128.296 193.264 128.543C193.127 128.791 192.928 128.998 192.685 129.143C192.443 129.288 192.166 129.366 191.883 129.368H125.715C125.02 129.368 124.353 129.092 123.861 128.6C123.369 128.109 123.093 127.442 123.093 126.746V97.4355C123.094 97.0278 123.177 96.6246 123.338 96.2502C123.5 95.8759 123.735 95.5383 124.031 95.2579C124.327 94.9776 124.677 94.7604 125.06 94.6196C125.442 94.4788 125.849 94.4172 126.256 94.4388C144.818 95.395 164.901 97.4737 173.547 98.7818H173.549Z" fill="#DAE3E2"/>
<path d="M192.18 127.955L191.87 128.123H125.702C125.338 128.122 124.99 127.976 124.733 127.719C124.476 127.461 124.331 127.112 124.331 126.748V97.4356C124.33 97.2036 124.375 96.9737 124.463 96.7593C124.551 96.5448 124.682 96.3502 124.846 96.1866C125.011 96.023 125.206 95.8938 125.421 95.8065C125.636 95.7192 125.866 95.6756 126.098 95.6781C127.932 95.7699 129.76 95.8693 131.575 95.9822C149.194 97.0837 166.189 98.9272 173.36 100.008C173.866 100.091 174.348 100.279 174.776 100.56C175.204 100.841 175.569 101.208 175.846 101.639L192.159 127.601L192.174 127.955H192.18ZM121.851 97.4356V126.748C121.858 127.77 122.266 128.748 122.987 129.472C123.709 130.195 124.686 130.606 125.708 130.615H191.876C192.383 130.613 192.881 130.477 193.318 130.219C193.755 129.961 194.115 129.592 194.362 129.148L194.676 128.208C194.772 127.534 194.627 126.848 194.264 126.272L177.95 100.312C177.489 99.5727 176.873 98.9433 176.143 98.4673C175.414 97.9913 174.589 97.6803 173.727 97.556C172.984 97.4509 172.131 97.3304 171.184 97.1889C162.043 95.9535 143.971 94.11 126.32 93.1978H126.287C124.993 93.1978 123.975 93.6089 123.178 94.3452C122.761 94.744 122.429 95.2227 122.201 95.7526C121.973 96.2826 121.854 96.8529 121.851 97.4298V97.4356Z" fill="white"/>
<path d="M276.689 177.457L279.074 177.438C280.135 177.438 281.308 176.437 281.64 175.202L282.331 172.697C282.698 171.417 282.027 170.477 280.883 170.616L278.34 170.926C277.33 171.062 276.316 172.098 276.045 173.242L275.494 175.472C275.228 176.573 275.75 177.457 276.691 177.457H276.689Z" fill="white"/>
<path d="M38.8916 167.746C39.0121 172.548 39.4079 177.074 40.1748 180.884C40.3393 181.708 40.5076 182.543 40.7064 183.31C40.869 183.905 41.0392 184.498 41.2037 185.031C42.5002 188.917 44.3648 191.509 46.9561 192.04L47.415 192.132L47.8836 192.167C51.8995 192.209 80.2313 192.237 115.74 192.237C143.454 192.237 175.504 192.209 203.677 192.209H208.649C230.832 192.18 250.235 192.167 262.658 192.167H271.264L271.663 192.132L272.683 191.92C273.106 191.785 273.522 191.626 273.928 191.446H273.947L274.52 191.157L275.043 190.868L275.205 190.776L276.352 190.011L276.613 189.82L277.284 189.288L277.949 188.696L278.032 188.632C278.476 188.209 278.898 187.762 279.296 187.294L279.487 187.053L279.573 186.929L280.147 186.179L280.542 185.634L280.789 185.267L281.382 184.322L281.933 183.303L282.038 183.056L282.229 182.584L282.432 182.096L282.692 181.488L282.914 180.876C284.092 177.462 284.56 173.177 284.107 167.738H278.739C276.756 167.739 274.834 168.43 273.304 169.693C271.774 170.955 270.732 172.711 270.355 174.659L270.235 175.33C269.93 176.89 269.093 178.297 267.867 179.308C266.64 180.32 265.101 180.874 263.511 180.876H58.2505C56.6355 180.876 55.0666 180.338 53.7915 179.346C52.5164 178.355 51.6078 176.968 51.2092 175.403L51.1939 175.343C50.6489 173.17 49.393 171.241 47.6259 169.863C45.8587 168.485 43.6817 167.737 41.4408 167.738L38.8916 167.746Z" fill="#464646"/>
<path d="M124.466 137.182C124.466 138.259 127.43 139.133 131.079 139.133C134.728 139.133 137.69 138.264 137.69 137.182C137.69 136.1 134.732 135.228 131.087 135.228C127.442 135.228 124.474 136.101 124.474 137.182H124.466Z" fill="white"/>
<path d="M77.1222 127.227L63.9995 107.055C68.222 102.848 72.9876 99.5392 77.8221 97.6842C78.3381 97.5052 78.8704 97.3771 79.4113 97.3018L98.6497 127.15L77.1222 127.232V127.227Z" fill="#C9DBD8"/>
<path d="M101.29 127.129L81.958 96.9917C83.6046 96.8521 85.8153 96.7316 88.7737 96.6589L108.24 127.115L101.29 127.129Z" fill="#C9DBD8"/>
<path d="M115.74 192.239C143.454 192.239 175.504 192.211 203.677 192.211H208.649C179.317 192.211 145.107 192.239 115.746 192.239H115.74ZM49.9777 192.182C49.0215 192.182 48.312 192.172 47.8836 192.168L47.4151 192.134L46.7879 192.042C44.254 191.511 42.4238 188.919 41.2037 185.033C41.0393 184.498 40.8691 183.905 40.7065 183.312C40.5153 182.547 40.3393 181.71 40.1749 180.885C39.4099 177.076 39.0122 172.549 38.8917 167.747C38.8821 167.495 38.8764 167.245 38.8726 166.994C38.8726 167.245 38.8726 167.495 38.8917 167.747C39.0122 172.549 39.408 177.076 40.1749 180.885C40.3393 181.71 40.5076 182.545 40.7065 183.312C40.8691 183.907 41.0393 184.5 41.2037 185.033C42.4238 188.919 44.254 191.511 46.7879 192.042L47.4151 192.134L47.8836 192.168C48.312 192.168 49.0177 192.168 49.9777 192.182Z" fill="#BABABA"/>
<path d="M47.415 192.134L46.7877 192.042C44.2538 191.511 42.4237 188.919 41.2036 185.033C42.5002 188.919 44.3648 191.511 46.956 192.042L47.415 192.134ZM205.593 180.884H194.884C195.026 180.303 195.097 179.708 195.096 179.111V173.517L207.964 174.217C206.876 176.322 206.079 178.564 205.595 180.884H205.593ZM124.216 180.884H107.033C106.077 176.163 103.784 171.817 100.426 168.363L121.885 169.53V173.402C121.882 176.075 122.695 178.685 124.216 180.884ZM52.6186 178.206C51.947 177.388 51.4656 176.43 51.2091 175.403L51.1938 175.344C50.6489 173.17 49.393 171.241 47.6258 169.863C45.8587 168.485 43.6817 167.737 41.4407 167.738H38.8973C38.8877 167.486 38.882 167.235 38.8782 166.985C38.8629 166.329 38.8533 165.667 38.8438 165.005L60.968 166.208C60.1585 166.821 59.3918 167.488 58.6731 168.205L58.6636 168.216C55.8801 171.016 53.8079 174.441 52.6205 178.206H52.6186Z" fill="#E7E7E7"/>
<path d="M194.882 180.884H124.216C122.695 178.685 121.882 176.075 121.885 173.403V169.53L195.094 173.517V179.111C195.095 179.708 195.024 180.304 194.882 180.884Z" fill="#E7E7E7"/>
<path d="M256.741 192.169H271.254L271.654 192.134L272.673 191.922C273.102 191.803 273.519 191.644 273.918 191.448H273.937L274.511 191.159L275.196 190.776L276.343 190.011L276.603 189.82L277.274 189.288L277.94 188.696L278.022 188.633C278.467 188.209 278.889 187.762 279.286 187.294L279.477 187.053L279.563 186.929L280.137 186.179L280.533 185.634L280.78 185.267L281.373 184.322L281.923 183.303L282.028 183.056L282.22 182.584L282.683 181.488L282.904 180.876L282.683 181.488C282.48 182.033 282.252 182.555 282.021 183.056L281.916 183.303L281.365 184.322L280.772 185.267L280.694 185.383L280.525 185.634C280.225 186.085 279.9 186.519 279.55 186.932L279.47 187.047L279.278 187.288C278.881 187.756 278.459 188.203 278.014 188.627L277.932 188.69L277.267 189.283L276.595 189.814C276.152 190.169 275.683 190.489 275.19 190.771L274.505 191.153L273.932 191.442H273.912C273.513 191.638 273.096 191.797 272.667 191.916L271.648 192.128L271.248 192.163L256.741 192.169Z" fill="#C0C0C0"/>
<path d="M272.674 191.922C273.097 191.787 273.513 191.628 273.919 191.448C273.519 191.644 273.102 191.803 272.674 191.922ZM274.517 191.157L275.039 190.868L275.202 190.776L274.517 191.159V191.157ZM282.245 182.589L282.448 182.102L282.708 181.494L282.245 182.589ZM263.525 180.884H260.721C260.446 179.573 260.071 178.286 259.601 177.032L269.39 177.562C268.782 178.575 267.922 179.413 266.895 179.995C265.867 180.577 264.706 180.883 263.525 180.884Z" fill="#E7E7E7"/>
<path d="M115.74 192.239H103.027L103.055 192.169H108.968L107.23 181.92L107.039 180.884H205.599L205.407 181.92L203.675 192.169L203.69 192.211C175.517 192.211 143.468 192.239 115.754 192.239H115.74ZM49.9776 192.182C49.0214 192.182 48.3119 192.172 47.8836 192.169L47.415 192.134L46.9561 192.042C44.3648 191.511 42.5002 188.919 41.2037 185.033C41.0392 184.498 40.869 183.905 40.7064 183.312C40.5152 182.547 40.3393 181.71 40.1748 180.886C39.4099 177.076 39.0121 172.55 38.8916 167.748H41.4351C43.676 167.746 45.853 168.494 47.6202 169.872C49.3873 171.25 50.6432 173.179 51.1881 175.353L51.2034 175.412C51.4599 176.44 51.9413 177.397 52.6129 178.216C52.3292 179.095 52.0924 179.989 51.9034 180.893L51.7121 181.93L49.9738 192.178V192.191L49.9776 192.182ZM271.254 192.169H262.648L260.916 181.92L260.725 180.884H263.524C264.705 180.883 265.866 180.577 266.894 179.995C267.922 179.413 268.782 178.575 269.39 177.562L283.633 178.34C283.449 179.201 283.213 180.051 282.927 180.884L282.705 181.496L282.445 182.104L282.243 182.591L282.051 183.064L281.946 183.31L281.395 184.33L280.803 185.274L280.556 185.642L280.16 186.187L279.586 186.936L279.5 187.061L279.309 187.302C278.911 187.77 278.49 188.217 278.045 188.64L277.963 188.703L277.297 189.296L276.626 189.828L276.366 190.019L275.218 190.784L275.056 190.876L274.534 191.165L273.96 191.453H273.941C273.535 191.634 273.119 191.792 272.696 191.928L271.677 192.14L271.277 192.174L271.254 192.169Z" fill="#565656"/>
<path d="M203.667 192.168L203.682 192.21H208.654C230.838 192.182 250.241 192.168 262.664 192.168L260.931 181.92L260.74 180.884C258.418 169.815 249.468 161.905 239.107 161.905H227.25C216.883 161.905 207.935 169.815 205.618 180.884L205.426 181.92L203.694 192.168H203.667Z" fill="#2D2D2D"/>
<path d="M216.964 182.769C216.963 185.972 217.912 189.103 219.691 191.767C221.47 194.43 223.999 196.506 226.958 197.732C229.917 198.958 233.173 199.279 236.314 198.654C239.455 198.03 242.341 196.487 244.605 194.223C246.87 191.958 248.412 189.072 249.037 185.931C249.662 182.79 249.341 179.534 248.115 176.575C246.889 173.616 244.813 171.087 242.149 169.308C239.486 167.529 236.355 166.58 233.152 166.581C231.026 166.581 228.921 166.999 226.957 167.812C224.992 168.626 223.207 169.818 221.704 171.321C220.201 172.825 219.008 174.609 218.195 176.574C217.382 178.538 216.963 180.643 216.964 182.769Z" fill="#DAD1D1"/>
<path d="M217.525 182.784C217.522 179.693 218.435 176.67 220.15 174.098C221.865 171.526 224.304 169.521 227.159 168.335C230.014 167.149 233.157 166.837 236.189 167.437C239.222 168.037 242.008 169.523 244.196 171.707C246.384 173.891 247.875 176.675 248.481 179.706C249.087 182.738 248.78 185.881 247.6 188.738C246.419 191.595 244.418 194.038 241.849 195.757C239.28 197.477 236.259 198.396 233.168 198.399C229.023 198.403 225.046 196.759 222.113 193.831C219.179 190.903 217.529 186.929 217.525 182.784ZM207.771 182.794C207.776 187.814 209.269 192.72 212.062 196.892C214.855 201.064 218.822 204.313 223.462 206.23C228.101 208.147 233.205 208.646 238.128 207.662C243.051 206.678 247.572 204.257 251.118 200.704C254.665 197.151 257.079 192.626 258.054 187.702C259.029 182.777 258.522 177.674 256.597 173.038C254.672 168.401 251.415 164.44 247.239 161.654C243.062 158.869 238.153 157.384 233.133 157.388C229.799 157.391 226.498 158.05 223.419 159.329C220.34 160.607 217.542 162.48 215.187 164.84C212.832 167.199 210.964 170 209.692 173.082C208.419 176.163 207.766 179.466 207.77 182.8L207.771 182.794Z" fill="#1D1715"/>
<path d="M221.347 182.769C221.346 185.105 222.038 187.388 223.335 189.33C224.632 191.272 226.476 192.786 228.634 193.68C230.791 194.575 233.165 194.809 235.456 194.353C237.747 193.898 239.851 192.774 241.502 191.123C243.154 189.471 244.279 187.367 244.734 185.077C245.19 182.786 244.956 180.412 244.062 178.254C243.168 176.097 241.655 174.253 239.713 172.955C237.771 171.658 235.488 170.966 233.152 170.966C230.022 170.967 227.019 172.21 224.805 174.424C222.592 176.638 221.348 179.64 221.347 182.771V182.769Z" fill="white"/>
<path d="M226.042 182.769C226.041 184.178 226.458 185.555 227.239 186.727C228.021 187.898 229.133 188.812 230.434 189.351C231.735 189.891 233.166 190.033 234.548 189.759C235.929 189.484 237.199 188.806 238.195 187.811C239.191 186.815 239.87 185.546 240.145 184.165C240.419 182.784 240.279 181.352 239.74 180.05C239.201 178.749 238.288 177.637 237.116 176.855C235.945 176.072 234.568 175.655 233.16 175.655C231.273 175.656 229.463 176.405 228.129 177.739C226.794 179.073 226.044 180.882 226.042 182.769Z" fill="#DAD1D1"/>
<path d="M243.227 176.605C242.035 174.664 240.309 173.107 238.254 172.123L239.316 169.926C241.797 171.119 243.882 173.003 245.321 175.351L243.217 176.605H243.227Z" fill="#EDE8E8"/>
<path d="M239.205 179.029C238.484 177.868 237.446 176.938 236.212 176.351L238.254 172.129C240.309 173.113 242.035 174.67 243.226 176.611L239.21 179.034L239.205 179.029Z" fill="white"/>
<path d="M233.158 182.668L236.218 176.346C237.452 176.933 238.491 177.862 239.211 179.023L233.164 182.656L233.158 182.668Z" fill="#EDE8E8"/>
<path d="M226.916 195.58C224.415 194.356 222.325 192.428 220.903 190.034L222.992 188.774C224.17 190.761 225.904 192.36 227.979 193.375L226.916 195.57V195.58Z" fill="#EDE8E8"/>
<path d="M227.979 193.385C225.904 192.37 224.17 190.77 222.992 188.783L227.008 186.366C227.715 187.571 228.76 188.543 230.014 189.16L227.973 193.385H227.979Z" fill="white"/>
<path d="M230.02 189.16C228.766 188.543 227.721 187.571 227.014 186.366L233.158 182.668L230.02 189.16Z" fill="#EDE8E8"/>
<path d="M49.9717 192.168L49.987 192.21H54.9591C77.1426 192.182 96.5455 192.168 108.968 192.168L107.23 181.92L107.039 180.884C104.727 169.815 95.7729 161.905 85.4098 161.905H73.5531C63.1804 161.905 54.2382 169.815 51.9166 180.884L51.7253 181.92L49.987 192.168H49.9717Z" fill="#2D2D2D"/>
<path d="M63.2798 182.769C63.279 185.972 64.2281 189.103 66.007 191.767C67.786 194.43 70.3148 196.506 73.2736 197.732C76.2325 198.958 79.4885 199.279 82.6298 198.654C85.7711 198.03 88.6566 196.487 90.9213 194.223C93.1861 191.958 94.7283 189.072 95.3529 185.931C95.9776 182.79 95.6566 179.534 94.4306 176.575C93.2046 173.616 91.1286 171.087 88.4653 169.308C85.8019 167.529 82.6708 166.58 79.468 166.581C75.1746 166.581 71.0571 168.287 68.0212 171.322C64.9853 174.358 63.2798 178.476 63.2798 182.769Z" fill="#DAD1D1"/>
<path d="M63.8405 182.784C63.8382 179.694 64.7523 176.673 66.4671 174.102C68.182 171.531 70.6206 169.526 73.4747 168.341C76.3288 167.156 79.4701 166.844 82.5016 167.445C85.533 168.045 88.3184 169.53 90.5055 171.714C92.6927 173.897 94.1834 176.679 94.7892 179.71C95.395 182.74 95.0887 185.882 93.909 188.738C92.7293 191.594 90.7291 194.037 88.1615 195.756C85.5938 197.476 82.5739 198.396 79.4837 198.399C75.3387 198.403 71.3621 196.759 68.4285 193.831C65.4949 190.903 63.8445 186.929 63.8405 182.784ZM54.0874 182.794C54.0919 187.814 55.5851 192.721 58.3782 196.893C61.1712 201.064 65.1387 204.314 69.7787 206.231C74.4188 208.148 79.5231 208.646 84.4461 207.661C89.3691 206.677 93.8897 204.255 97.4362 200.702C100.983 197.148 103.396 192.623 104.37 187.698C105.345 182.773 104.837 177.67 102.911 173.034C100.985 168.397 97.7276 164.436 93.5504 161.651C89.3731 158.867 84.4639 157.383 79.4435 157.388C76.1098 157.391 72.8093 158.051 69.7306 159.33C66.6519 160.609 63.8553 162.481 61.5004 164.841C59.1456 167.201 57.2788 170.001 56.0065 173.083C54.7342 176.164 54.0814 179.466 54.0855 182.8L54.0874 182.794Z" fill="#1D1715"/>
<path d="M67.6631 182.769C67.6631 185.104 68.3553 187.386 69.6521 189.326C70.949 191.267 72.7923 192.78 74.9489 193.674C77.1056 194.567 79.4787 194.801 81.7682 194.346C84.0577 193.89 86.1609 192.766 87.8116 191.116C89.4624 189.465 90.5867 187.363 91.0424 185.073C91.498 182.784 91.2645 180.41 90.3715 178.254C89.4784 176.097 87.9659 174.253 86.0251 172.956C84.0843 171.659 81.8025 170.966 79.4681 170.966C76.3374 170.967 73.335 172.21 71.1213 174.424C68.9075 176.638 67.6636 179.64 67.6631 182.771V182.769Z" fill="white"/>
<path d="M72.3545 182.769C72.3545 184.176 72.7717 185.552 73.5534 186.722C74.3351 187.892 75.4462 188.803 76.7461 189.342C78.046 189.88 79.4764 190.021 80.8564 189.747C82.2364 189.472 83.504 188.795 84.4989 187.8C85.4938 186.805 86.1713 185.537 86.4458 184.157C86.7203 182.777 86.5794 181.347 86.041 180.047C85.5026 178.747 84.5907 177.636 83.4208 176.854C82.251 176.072 80.8755 175.655 79.4685 175.655C77.5819 175.656 75.7727 176.405 74.4387 177.739C73.1047 179.074 72.355 180.883 72.3545 182.769Z" fill="#DAD1D1"/>
<path d="M89.5405 176.611C88.349 174.668 86.6227 173.11 84.5684 172.123L85.6355 169.926C88.1132 171.123 90.1954 173.006 91.6346 175.351L89.531 176.611H89.5405Z" fill="#EDE8E8"/>
<path d="M85.5213 179.029C84.8027 177.868 83.7658 176.939 82.5342 176.351L84.5709 172.129C86.6252 173.116 88.3515 174.674 89.543 176.617L85.527 179.034L85.5213 179.029Z" fill="white"/>
<path d="M79.4721 182.668L82.5319 176.346C83.7636 176.933 84.8004 177.863 85.519 179.023L79.4702 182.656L79.4721 182.668Z" fill="#EDE8E8"/>
<path d="M73.2283 195.58C70.7288 194.353 68.6394 192.426 67.2139 190.034L69.3079 188.774C70.4867 190.759 72.2177 192.357 74.2896 193.375L73.2283 195.57V195.58Z" fill="#EDE8E8"/>
<path d="M74.2898 193.385C72.2178 192.367 70.4869 190.768 69.3081 188.783L73.3241 186.366C74.0316 187.571 75.0768 188.543 76.3303 189.16L74.2841 193.385H74.2898Z" fill="white"/>
<path d="M76.3358 189.16C75.0823 188.543 74.0371 187.571 73.3296 186.366L79.4721 182.668L76.3358 189.16Z" fill="#EDE8E8"/>
<path d="M79.4684 208.158C75.5767 208.163 71.7365 207.269 68.2466 205.547C75.221 205.316 83.1516 205.107 91.8491 204.939C88.6503 206.727 85.1014 207.799 81.4477 208.081C80.8242 208.119 80.2065 208.144 79.585 208.154C79.5525 208.156 79.52 208.156 79.4875 208.154L79.4684 208.158Z" fill="#1D1816"/>
<path fill-rule="evenodd" clip-rule="evenodd" d="M168.91 104.24C175.776 107.014 184.659 111.009 192.815 115.855L190.388 124.254C181.993 121.96 173.303 118.936 163.873 114.056L168.906 104.24H168.91Z" fill="#FDF6E6"/>
<path fill-rule="evenodd" clip-rule="evenodd" d="M199.95 89.7363L212.447 89.6082C212.447 89.6082 212.051 95.3453 213.021 97.5655C214.053 99.9101 216.081 99.1375 216.953 100.262C217.672 101.184 216.65 103.528 216.65 103.528C210.097 108.619 203.073 108.474 195.477 102.169C195.218 100.375 195.169 99.7514 197.869 98.5351C200.131 97.5196 200.326 92.4461 199.944 89.7382L199.95 89.7363Z" fill="#F2BFAC"/>
<path fill-rule="evenodd" clip-rule="evenodd" d="M196.768 89.713C201.313 96.871 209.471 98.8771 215.803 90.587L196.768 89.713Z" fill="#DEAA96"/>
<path fill-rule="evenodd" clip-rule="evenodd" d="M211.003 214.432C210.811 218.542 211.884 221.699 214.087 224.017C214.407 224.354 214.826 224.581 215.283 224.665C218.166 225.188 220.433 225.094 222.127 224.428C222.767 224.174 223.311 223.724 223.68 223.143C224.049 222.561 224.225 221.878 224.183 221.191C224.156 220.591 224.002 220.004 223.73 219.47C221.953 216.178 220.211 215.006 220.591 212.489C216.874 211.399 213.684 212.071 211.003 214.432Z" fill="#8E8181"/>
<path fill-rule="evenodd" clip-rule="evenodd" d="M211.196 222.068C216.834 224.078 221.906 224.139 226.153 221.495L225.7 225.319L211.908 226.161L211.196 222.082V222.068Z" fill="#655F5F"/>
<path fill-rule="evenodd" clip-rule="evenodd" d="M198.173 207.795C199.206 209.456 200.129 211.279 200.382 214.105L208.917 209.833L207.352 204.588L198.173 207.793V207.795Z" fill="#F2BFAC"/>
<path fill-rule="evenodd" clip-rule="evenodd" d="M208.916 208.424C210.209 212.66 212.181 219.898 208.629 221.629C205.688 223.065 203.275 223.625 201.322 223.382C200.639 223.294 200.002 222.992 199.5 222.52C198.999 222.048 198.659 221.429 198.53 220.753C198.409 220.165 198.414 219.558 198.545 218.972C199.454 215.339 200.852 213.778 199.863 211.436C203.977 212.677 207.836 210.606 208.916 208.424Z" fill="#8E8181"/>
<path fill-rule="evenodd" clip-rule="evenodd" d="M211.334 218.393C206.362 221.732 201.476 223.042 196.697 221.521L198.079 225.111L211.657 222.522L211.34 218.393H211.334Z" fill="#655F5F"/>
<path fill-rule="evenodd" clip-rule="evenodd" d="M204.484 146.576L224.372 146.316C224.875 152.9 224.133 159.958 224.389 166.407C225.087 183.97 225.045 200.065 221.345 215.211C217.996 213.56 213.904 214.14 209.173 216.633C209.121 191.727 204.445 170.964 204.48 146.576H204.484Z" fill="#D2AEAE"/>
<path fill-rule="evenodd" clip-rule="evenodd" d="M216.652 154.366C215.801 159.086 217.373 162.11 221.703 163.205C218.71 160.65 217.054 157.698 216.652 154.366Z" fill="#CB9A9A"/>
<path fill-rule="evenodd" clip-rule="evenodd" d="M187.51 144.698L206.316 146.316C206.727 156.709 206.065 168.711 203.778 183.154C203.73 183.455 203.753 183.763 203.845 184.054C206.287 191.859 208.511 199.736 208.917 208.217C206.239 208.014 202.348 209.747 197.599 212.998C193.392 205.471 190.833 196.303 188.691 186.713C188.676 186.638 188.661 186.561 188.649 186.485C186.821 174.33 186.247 160.641 187.502 144.707L187.51 144.698Z" fill="#D2AEAE"/>
<path fill-rule="evenodd" clip-rule="evenodd" d="M206.033 164.621C206.415 161.247 202.319 170.092 199.812 178.788C198.691 182.674 199.858 187.321 200.73 190.644C202.442 197.146 204.652 202.199 208.59 212.992L213.155 205.653C207.691 193.354 204.635 177.133 206.033 164.625V164.621Z" fill="#CB9A9A"/>
<path fill-rule="evenodd" clip-rule="evenodd" d="M197.431 98.9443C202.021 107.703 212.56 104.626 214.399 99.6251C220.087 115.232 222.198 131.284 223.73 147.409C213.284 147.805 202.763 153.584 188.667 147.601C189.672 131.302 190.047 114.976 197.431 98.9404V98.9443Z" fill="#FDF6E6"/>
<path fill-rule="evenodd" clip-rule="evenodd" d="M192.155 131.407C196.171 132.812 201.908 133.237 209.54 132.571C203.744 135.419 197.949 135.293 192.155 131.407Z" fill="#E5D8BA"/>
<path fill-rule="evenodd" clip-rule="evenodd" d="M204.683 138.496C209.668 137.661 214.693 137.077 219.737 136.748C214.191 135.113 209.186 135.729 204.683 138.496Z" fill="#E5D8BA"/>
<path fill-rule="evenodd" clip-rule="evenodd" d="M214.233 98.9442C219.333 99.0341 224.062 100.356 226.541 103.446C230.046 107.812 234.527 113.258 237.508 119.407C237.58 119.555 237.629 119.714 237.654 119.877C238.036 122.541 241.503 145.992 241.503 145.992C239.338 147.26 235.508 147.438 230.496 146.893C228.128 140.517 226.895 132.831 226.231 126.129C226.208 125.894 226.137 125.667 226.021 125.462C225.905 125.256 225.747 125.078 225.558 124.937C224.737 124.342 224 123.639 223.364 122.849C223.297 122.763 223.203 122.702 223.098 122.674C222.993 122.646 222.881 122.653 222.78 122.693C222.679 122.734 222.593 122.806 222.537 122.899C222.48 122.993 222.455 123.102 222.466 123.21C223.328 131.319 225.076 141.261 227.218 150.712C222.844 153.374 217.767 153.749 212.357 153.043C210.402 134.623 209.963 116.069 214.225 98.9442H214.233Z" fill="#D6D6D6"/>
<path fill-rule="evenodd" clip-rule="evenodd" d="M222.791 123.719C223.208 121.615 223.778 119.236 225.057 115.238C224.101 116.228 223.17 118.777 222.791 118.475C222.412 118.173 222.321 114.775 222.856 112.13C221.135 115.815 221.412 120.378 222.791 123.719Z" fill="#B3B3B3"/>
<path fill-rule="evenodd" clip-rule="evenodd" d="M225.376 125.857C226.682 124.527 228.19 123.412 229.846 122.554C228.021 122.566 226.511 123.601 225.376 125.857Z" fill="#B3B3B3"/>
<path fill-rule="evenodd" clip-rule="evenodd" d="M197.433 98.5677C203.447 116.707 204.063 133.773 202.556 152.17C198.81 153.671 192.543 153.613 185.947 151.489C187.588 143.046 188.942 131.969 188.762 122.868C188.76 122.702 188.703 122.541 188.601 122.41C188.499 122.278 188.357 122.184 188.196 122.141C188.036 122.097 187.865 122.108 187.711 122.17C187.557 122.232 187.427 122.343 187.341 122.486L182.608 130.277C182.443 130.546 182.375 130.864 182.417 131.177C183.209 137.15 182.849 142.891 181.182 148.372C178.286 149.364 175.177 149.161 171.763 147.305C171.763 147.305 172.26 131.109 172.337 128.594C172.343 128.376 172.375 128.16 172.433 127.949C177.399 109.518 184.161 98.7819 197.433 98.5677Z" fill="#D6D6D6"/>
<path fill-rule="evenodd" clip-rule="evenodd" d="M187.603 122.069C186.865 118.378 187.412 114.83 188.927 109.927C188.512 110.923 187.944 116.502 188.735 114.915C189.181 114.018 190.608 108.806 191.778 107.468C190.659 110.606 189.292 113.767 189.965 116.727L191.973 114.784C190.043 118.294 188.894 120.923 188.34 122.878L187.603 122.069Z" fill="#B2B2B2"/>
<path fill-rule="evenodd" clip-rule="evenodd" d="M214.273 115.639C214.514 115.639 214.748 115.71 214.948 115.844C215.148 115.977 215.303 116.167 215.395 116.389C215.487 116.611 215.511 116.855 215.464 117.09C215.418 117.326 215.302 117.542 215.132 117.712C214.962 117.882 214.746 117.998 214.51 118.045C214.275 118.091 214.031 118.067 213.809 117.975C213.587 117.884 213.397 117.728 213.264 117.528C213.13 117.328 213.059 117.094 213.059 116.854C213.06 116.532 213.188 116.223 213.415 115.995C213.643 115.768 213.952 115.64 214.273 115.639Z" fill="#B3B3B3"/>
<path fill-rule="evenodd" clip-rule="evenodd" d="M214.306 123.719C214.546 123.719 214.781 123.79 214.98 123.924C215.18 124.057 215.336 124.247 215.428 124.469C215.519 124.69 215.544 124.935 215.497 125.17C215.45 125.406 215.334 125.622 215.164 125.792C214.995 125.962 214.778 126.077 214.543 126.124C214.307 126.171 214.063 126.147 213.841 126.055C213.619 125.963 213.429 125.808 213.296 125.608C213.163 125.408 213.091 125.173 213.091 124.933C213.091 124.611 213.219 124.302 213.447 124.075C213.675 123.847 213.984 123.719 214.306 123.719Z" fill="#B3B3B3"/>
<path fill-rule="evenodd" clip-rule="evenodd" d="M214.336 131.799C214.577 131.798 214.812 131.869 215.012 132.003C215.212 132.136 215.368 132.325 215.46 132.547C215.552 132.769 215.576 133.013 215.53 133.249C215.483 133.485 215.368 133.701 215.198 133.871C215.028 134.041 214.812 134.157 214.576 134.204C214.34 134.251 214.096 134.227 213.874 134.135C213.652 134.043 213.462 133.888 213.329 133.688C213.195 133.488 213.124 133.253 213.124 133.013C213.124 132.691 213.252 132.383 213.479 132.155C213.706 131.928 214.015 131.799 214.336 131.799Z" fill="#B3B3B3"/>
<path fill-rule="evenodd" clip-rule="evenodd" d="M214.376 139.879C214.617 139.879 214.851 139.95 215.051 140.083C215.251 140.217 215.406 140.406 215.498 140.628C215.59 140.85 215.614 141.094 215.567 141.33C215.521 141.565 215.405 141.782 215.235 141.952C215.065 142.121 214.849 142.237 214.613 142.284C214.378 142.331 214.134 142.307 213.912 142.215C213.69 142.123 213.5 141.967 213.367 141.768C213.233 141.568 213.162 141.333 213.162 141.093C213.162 140.771 213.29 140.462 213.518 140.234C213.746 140.006 214.054 139.879 214.376 139.879Z" fill="#B3B3B3"/>
<path fill-rule="evenodd" clip-rule="evenodd" d="M206.792 64.6383C215.272 65.212 216.958 70.5208 216.958 78.8817C216.958 87.2425 212.56 94.9456 206.016 94.9456C199.472 94.9456 195.85 86.862 195.85 78.4992C195.85 70.1364 197.81 64.0321 206.792 64.6441V64.6383Z" fill="#F2BEAC"/>
<path fill-rule="evenodd" clip-rule="evenodd" d="M213.738 67.2739C210.822 71.0164 217.888 72.2461 216.828 81.043C224.455 70.2152 218.201 67.8648 213.738 67.2739Z" fill="#E6E6E6"/>
<path fill-rule="evenodd" clip-rule="evenodd" d="M199.362 66.6255C192.355 68.1038 190.07 74.1507 196.012 80.5858C195.099 73.7682 201.657 69.7694 199.362 66.6255Z" fill="#E6E6E6"/>
<path fill-rule="evenodd" clip-rule="evenodd" d="M201.112 72.2454C204.349 71.5005 207.712 71.4894 210.955 72.2129C207.719 71.1516 204.436 71.2357 201.112 72.2454Z" fill="#E1A994"/>
<path fill-rule="evenodd" clip-rule="evenodd" d="M200.401 73.7679C204.266 73.1385 208.212 73.2033 212.055 73.9591C208.244 72.9456 204.243 72.88 200.401 73.7679Z" fill="#E1A994"/>
<path fill-rule="evenodd" clip-rule="evenodd" d="M204.415 74.7049C206.136 74.2172 207.886 74.2229 209.693 75.03C208.066 74.4811 206.301 74.3912 204.415 74.7049Z" fill="#E1A994"/>
<path fill-rule="evenodd" clip-rule="evenodd" d="M210.98 76.516C211.623 76.516 212.252 76.7067 212.786 77.0639C213.321 77.4211 213.738 77.9289 213.984 78.5229C214.23 79.117 214.294 79.7706 214.169 80.4013C214.043 81.0319 213.734 81.6112 213.279 82.0658C212.824 82.5205 212.245 82.8301 211.614 82.9556C210.984 83.081 210.33 83.0166 209.736 82.7706C209.142 82.5245 208.634 82.1078 208.277 81.5732C207.92 81.0386 207.729 80.41 207.729 79.767C207.729 78.9048 208.072 78.0779 208.681 77.4682C209.291 76.8585 210.118 76.516 210.98 76.516Z" fill="#DAA693"/>
<path d="M210.98 76.516C211.623 76.516 212.252 76.7067 212.786 77.0639C213.321 77.4211 213.738 77.9289 213.984 78.5229C214.23 79.117 214.294 79.7706 214.169 80.4013C214.043 81.0319 213.734 81.6112 213.279 82.0658C212.824 82.5205 212.245 82.8301 211.614 82.9556C210.984 83.081 210.33 83.0166 209.736 82.7706C209.142 82.5245 208.634 82.1078 208.277 81.5732C207.92 81.0386 207.729 80.41 207.729 79.767C207.729 78.9048 208.072 78.0779 208.681 77.4682C209.291 76.8585 210.118 76.516 210.98 76.516Z" stroke="#646464" stroke-width="2" stroke-linecap="round" stroke-linejoin="round"/>
<path fill-rule="evenodd" clip-rule="evenodd" d="M200.85 76.4091C201.493 76.4091 202.122 76.5997 202.656 76.957C203.191 77.3142 203.608 77.8219 203.854 78.416C204.1 79.01 204.164 79.6637 204.039 80.2943C203.913 80.925 203.604 81.5042 203.149 81.9589C202.694 82.4136 202.115 82.7232 201.484 82.8487C200.854 82.9741 200.2 82.9097 199.606 82.6636C199.012 82.4176 198.504 82.0009 198.147 81.4663C197.79 80.9316 197.599 80.3031 197.599 79.6601C197.599 78.7979 197.942 77.9709 198.551 77.3613C199.161 76.7516 199.988 76.4091 200.85 76.4091Z" fill="#DAA693"/>
<path d="M200.686 76.4091C201.329 76.4091 201.957 76.5997 202.492 76.957C203.026 77.3142 203.443 77.8219 203.689 78.416C203.935 79.01 204 79.6637 203.874 80.2943C203.749 80.925 203.439 81.5042 202.984 81.9589C202.53 82.4136 201.95 82.7232 201.32 82.8487C200.689 82.9741 200.036 82.9097 199.441 82.6636C198.847 82.4176 198.34 82.0009 197.982 81.4663C197.625 80.9316 197.435 80.3031 197.435 79.6601C197.435 78.7979 197.777 77.9709 198.387 77.3613C198.996 76.7516 199.823 76.4091 200.686 76.4091Z" stroke="#646464" stroke-width="2" stroke-linecap="round" stroke-linejoin="round"/>
<path fill-rule="evenodd" clip-rule="evenodd" d="M204.081 79.2736C205.285 79.5221 206.528 79.5111 207.727 79.2411L207.882 80.3885C206.646 80.7327 205.34 80.7327 204.104 80.3885L204.081 79.2679V79.2736Z" fill="#646464"/>
<path fill-rule="evenodd" clip-rule="evenodd" d="M214.074 78.8166C215.13 78.0096 215.908 77.4186 216.962 77.65V78.7841C215.908 78.6196 215.29 79.0728 214.237 79.9468L214.078 78.8166H214.074Z" fill="#646464"/>
<path fill-rule="evenodd" clip-rule="evenodd" d="M197.599 79.1187C197.062 78.545 196.387 78.3022 195.85 78.3729V79.767C196.905 79.6045 197.062 79.8435 197.599 80.3943V79.1187Z" fill="#646464"/>
<path fill-rule="evenodd" clip-rule="evenodd" d="M204.709 87.7186C205.513 87.3037 206.937 87.2272 207.727 87.9099C206.951 89.1434 205.1 89.0076 204.709 87.7186Z" fill="#E17C7C"/>
<path fill-rule="evenodd" clip-rule="evenodd" d="M209.596 79.7671C210.215 80.838 211.254 80.9432 212.478 79.7671C211.745 78.8434 210.183 78.5891 209.596 79.7671Z" fill="#E8D8D8"/>
<path fill-rule="evenodd" clip-rule="evenodd" d="M199.863 79.656C200.483 80.725 201.521 80.8321 202.745 79.656C202.013 78.7323 200.45 78.4761 199.863 79.656Z" fill="#E8D8D8"/>
<path fill-rule="evenodd" clip-rule="evenodd" d="M210.854 79.1341C210.997 79.1371 211.137 79.1823 211.254 79.2642C211.372 79.3461 211.463 79.4609 211.516 79.5943C211.569 79.7277 211.581 79.8736 211.551 80.014C211.521 80.1543 211.451 80.2827 211.348 80.383C211.246 80.4834 211.116 80.5513 210.975 80.5782C210.834 80.6051 210.688 80.5898 210.556 80.5342C210.424 80.4787 210.311 80.3853 210.232 80.2658C210.152 80.1464 210.11 80.0061 210.11 79.8627C210.112 79.6676 210.192 79.4814 210.331 79.3448C210.471 79.2083 210.659 79.1325 210.854 79.1341Z" fill="#70584F"/>
<path fill-rule="evenodd" clip-rule="evenodd" d="M201.126 79.0231C201.269 79.0261 201.409 79.0714 201.526 79.1533C201.644 79.2351 201.735 79.3499 201.788 79.4833C201.841 79.6167 201.853 79.7627 201.823 79.903C201.793 80.0433 201.723 80.1717 201.62 80.2721C201.518 80.3724 201.388 80.4403 201.247 80.4672C201.106 80.4941 200.96 80.4788 200.828 80.4233C200.696 80.3677 200.583 80.2743 200.504 80.1549C200.424 80.0354 200.382 79.8952 200.382 79.7517C200.384 79.5566 200.464 79.3704 200.603 79.2339C200.743 79.0973 200.931 79.0216 201.126 79.0231Z" fill="#70584F"/>
<path fill-rule="evenodd" clip-rule="evenodd" d="M212.538 79.6846C211.492 79.1473 210.528 79.1339 209.656 79.7172C209.939 78.7438 211.544 78.6195 212.538 79.6846Z" fill="#4A3026"/>
<path fill-rule="evenodd" clip-rule="evenodd" d="M202.811 79.5739C201.765 79.0346 200.801 79.0232 199.929 79.6064C200.212 78.633 201.814 78.5087 202.811 79.5739Z" fill="#4A3026"/>
<path fill-rule="evenodd" clip-rule="evenodd" d="M202.52 80.4995C201.581 81.1382 200.416 81.2759 199.558 80.6525C200.536 80.9213 201.575 80.8677 202.52 80.4995Z" fill="#C99494"/>
<path fill-rule="evenodd" clip-rule="evenodd" d="M209.948 80.8933C210.885 81.1648 211.742 81.1591 212.507 80.8282C211.742 81.3771 210.892 81.4651 209.948 80.8933Z" fill="#CC9794"/>
<path d="M205.551 81.016C204.063 81.7676 204.292 84.1064 206.197 84.0356" stroke="#CF8B72" stroke-width="2" stroke-linecap="round" stroke-linejoin="round"/>
<path fill-rule="evenodd" clip-rule="evenodd" d="M236.547 158.74L237.044 159.266L236.872 162.978H236.489L235.661 223.241C235.658 223.45 235.574 223.651 235.426 223.8C235.279 223.949 235.079 224.036 234.869 224.042L232.479 224.109C232.369 224.112 232.261 224.093 232.159 224.053C232.057 224.013 231.964 223.953 231.886 223.876C231.808 223.799 231.746 223.707 231.704 223.606C231.663 223.505 231.642 223.396 231.643 223.287C231.733 216.828 232.299 175.669 232.299 175.669H176.267L172.367 224.799C172.351 225.007 172.255 225.201 172.1 225.34C171.945 225.48 171.742 225.554 171.534 225.549L169.155 225.482C169.044 225.479 168.936 225.453 168.836 225.407C168.736 225.36 168.646 225.294 168.573 225.212C168.499 225.13 168.443 225.034 168.407 224.929C168.372 224.825 168.358 224.714 168.367 224.604L173.26 162.978H172.245L172.419 159.266L236.541 158.74H236.547ZM177.276 162.978L176.563 171.955H232.353L232.475 162.978H177.276Z" fill="#5A5A5A"/>
<path fill-rule="evenodd" clip-rule="evenodd" d="M238.308 158.74L238.83 159.291V163.177H238.447C238.447 163.177 240.195 218.871 240.428 226.285C240.432 226.392 240.414 226.499 240.377 226.599C240.339 226.699 240.281 226.791 240.208 226.869C240.135 226.946 240.046 227.009 239.949 227.053C239.851 227.096 239.746 227.12 239.639 227.123L237.252 227.194C237.037 227.2 236.828 227.12 236.671 226.973C236.514 226.825 236.423 226.621 236.416 226.406C236.212 219.904 234.848 176.457 234.848 176.457H178.825C178.825 176.457 177.42 221.206 177.211 227.899C177.204 228.12 177.11 228.328 176.949 228.479C176.789 228.63 176.575 228.711 176.354 228.704L174.107 228.639C173.861 228.632 173.627 228.528 173.457 228.349C173.287 228.169 173.195 227.93 173.201 227.683L175.226 163.181H174.216V159.301L175.343 159.291C175.324 153.307 179.741 154.051 179.344 159.257L234.064 158.786C233.766 154.564 238.191 153.602 238.313 158.75L238.308 158.74ZM179.242 163.177L178.948 172.58H234.726L234.431 163.177H179.242Z" fill="#989898"/>
<path fill-rule="evenodd" clip-rule="evenodd" d="M173.216 147.93C173.216 147.93 169.556 151.137 170.634 156.302C171.091 158.492 174.582 159.494 176.463 159.878C176.63 159.911 176.803 159.898 176.963 159.839C177.122 159.78 177.263 159.678 177.368 159.545C177.473 159.411 177.54 159.251 177.56 159.082C177.579 158.913 177.552 158.742 177.481 158.587C177.209 158.023 176.878 157.415 176.838 156.943C176.727 155.659 177.857 155.03 178.114 155.084C178.496 155.17 179.42 156.979 179.372 157.271C179.368 157.279 179.366 157.287 179.366 157.295C179.366 157.304 179.368 157.312 179.372 157.319C179.994 158.417 180.569 158.559 181.082 157.43C181.151 157.279 181.183 157.114 181.173 156.948C181.128 156.157 180.898 153.506 179.921 151.649C179.452 150.756 179.361 148.809 179.361 148.809C177.018 148.962 175.324 148.578 173.218 147.93H173.216Z" fill="#F2BFAC"/>
<path fill-rule="evenodd" clip-rule="evenodd" d="M176.238 153.139C175.142 155.178 175.202 157.364 175.779 159.614C175.014 157.396 174.645 155.203 176.238 153.139Z" fill="#DDA089"/>
<path fill-rule="evenodd" clip-rule="evenodd" d="M174.328 152.546C173.232 154.585 173.291 156.771 173.869 159.022C173.104 156.803 172.733 154.612 174.328 152.546Z" fill="#DDA089"/>
<path fill-rule="evenodd" clip-rule="evenodd" d="M172.595 151.817C171.498 153.856 171.557 156.04 172.136 158.293C171.371 156.074 171 153.881 172.595 151.817Z" fill="#DDA089"/>
<path fill-rule="evenodd" clip-rule="evenodd" d="M239.033 146.706C239.033 146.706 243.567 149.503 243.358 154.778C243.27 157.013 239.993 158.58 238.195 159.27C238.036 159.331 237.863 159.346 237.695 159.315C237.528 159.284 237.372 159.206 237.246 159.092C237.12 158.977 237.028 158.83 236.98 158.666C236.933 158.503 236.932 158.329 236.977 158.165C237.151 157.564 237.376 156.908 237.338 156.443C237.235 155.158 236.017 154.722 235.772 154.82C235.412 154.969 234.799 156.904 234.892 157.185C234.899 157.192 234.903 157.199 234.905 157.208C234.907 157.216 234.907 157.225 234.904 157.233C234.472 158.419 233.928 158.654 233.236 157.625C233.142 157.488 233.083 157.33 233.064 157.164C232.98 156.377 232.768 153.722 233.424 151.731C233.737 150.775 233.07 147.042 233.07 147.042C235.06 147.214 237.065 147.102 239.025 146.711L239.033 146.706Z" fill="#F2BFAC"/>
<path fill-rule="evenodd" clip-rule="evenodd" d="M237.308 152.586C238.727 154.415 239.029 156.579 238.838 158.897C239.22 156.585 239.22 154.359 237.308 152.586Z" fill="#DDA089"/>
<path fill-rule="evenodd" clip-rule="evenodd" d="M239.094 151.686C240.513 153.514 240.815 155.679 240.624 157.996C241.006 155.683 241.006 153.457 239.094 151.686Z" fill="#DDA089"/>
<path fill-rule="evenodd" clip-rule="evenodd" d="M240.683 150.68C242.102 152.508 242.404 154.673 242.213 156.991C242.595 154.679 242.595 152.453 240.683 150.68Z" fill="#DDA089"/>
<path fill-rule="evenodd" clip-rule="evenodd" d="M141.053 78.0917L152.318 81.2758C151.685 83.605 151.087 86.4143 151.578 88.5428C151.892 89.9044 152.881 90.6292 153.839 91.9411C150.245 96.5938 142.735 95.3202 138.041 92.2011C140.693 89.0304 141.735 83.0505 141.053 78.0993V78.0917Z" fill="#F8C9A2"/>
<path fill-rule="evenodd" clip-rule="evenodd" d="M139.291 75.1832L140.393 81.5935C143.433 86.6938 148.511 89.4093 153.471 87.8737L155.221 82.565L139.291 75.1832Z" fill="#E6B287"/>
<path fill-rule="evenodd" clip-rule="evenodd" d="M139.207 89.3079C143.896 96.0012 148.386 95.2037 154.528 90.7421L156.477 111.063L140.291 101.096L139.207 89.3079Z" fill="#FDF6E6"/>
<path fill-rule="evenodd" clip-rule="evenodd" d="M155.221 90.2926C161.723 91.0901 167.621 98.7166 172.253 105.018C169.627 107.338 166.376 111.769 166.013 116.614C160.18 114.574 157.468 112.053 155.024 109.491L155.216 90.2926H155.221Z" fill="#A5C6B1"/>
<path fill-rule="evenodd" clip-rule="evenodd" d="M153.343 90.3041C153.343 90.3041 158.373 93.0043 159.429 94.1288C161.567 96.395 160.696 98.7568 163.877 104.245C166.956 109.562 166.422 118.928 166.422 118.928L152.5 111.028L153.343 90.3098V90.3041Z" fill="#89B59A"/>
<path fill-rule="evenodd" clip-rule="evenodd" d="M124.134 215.803L134.979 216.064C134.405 218.184 134.774 221.181 135.239 222.948L123.514 222.374C124.063 220.678 124.794 218.188 124.134 215.802V215.803Z" fill="#F8C9A2"/>
<path fill-rule="evenodd" clip-rule="evenodd" d="M164.184 215.803L153.341 216.167C153.933 218.284 153.597 221.284 153.149 223.065L164.868 222.369C164.295 220.678 163.549 218.196 164.186 215.803H164.184Z" fill="#F8C9A2"/>
<path fill-rule="evenodd" clip-rule="evenodd" d="M124.878 141.686L163.875 144.799C163.875 144.799 167.068 174.303 165.749 192.584C165.083 201.801 166.837 220.292 166.837 220.292C164.081 217.315 158.231 217.181 151.716 219.126C151.716 219.126 147.929 197.11 147.929 190.249C147.929 183.387 146.312 166.423 145.178 163.185C144.043 159.947 143.265 165.256 142.102 171.861C140.94 178.467 138.605 190.379 138.993 193.098C139.381 195.818 136.543 219.774 136.543 219.774C132.604 218.032 127.876 217.67 122.556 218.349C121.518 207.885 123.093 195.747 123.407 183.661C123.801 168.432 121.569 151.994 124.887 141.686H124.878Z" fill="#A5C6B1"/>
<path fill-rule="evenodd" clip-rule="evenodd" d="M123.422 146.312L122.646 147.319C131.389 155.523 160.128 158.128 169.459 150.876L165.963 142.913C153.076 146.4 138.195 148.476 123.422 146.312Z" fill="#8AB599"/>
<path d="M125.754 149.372C128.311 173.422 123.459 195.915 124.782 217.942M162.467 150.536C165.099 173.733 163.372 195.976 164.894 218.525L162.467 150.536Z" stroke="white" stroke-linecap="round" stroke-linejoin="round"/>
<path fill-rule="evenodd" clip-rule="evenodd" d="M122.009 221.921C121.57 222.21 121.225 222.622 121.018 223.106C120.812 223.59 120.752 224.123 120.847 224.641C120.942 225.158 121.187 225.636 121.552 226.015C121.917 226.394 122.385 226.657 122.898 226.771C126.304 227.536 130.62 227.568 134.912 226.811C135.32 226.738 135.7 226.553 136.011 226.278C136.322 226.003 136.55 225.648 136.673 225.251C136.795 224.855 136.805 224.432 136.703 224.03C136.601 223.628 136.39 223.261 136.093 222.971C133.089 220.045 126.054 219.267 122.009 221.921Z" fill="#667069"/>
<path fill-rule="evenodd" clip-rule="evenodd" d="M151.678 221.921C151.238 222.21 150.894 222.622 150.687 223.106C150.481 223.59 150.421 224.123 150.516 224.641C150.611 225.158 150.856 225.636 151.221 226.015C151.586 226.394 152.054 226.657 152.567 226.771C155.973 227.536 160.289 227.568 164.581 226.811C164.989 226.738 165.369 226.553 165.68 226.278C165.991 226.003 166.219 225.648 166.342 225.251C166.464 224.855 166.474 224.432 166.372 224.03C166.27 223.628 166.059 223.261 165.762 222.971C162.758 220.045 155.722 219.267 151.678 221.921Z" fill="#657069"/>
<path fill-rule="evenodd" clip-rule="evenodd" d="M119.959 144.698C137.247 156.118 152.006 153.451 166.839 151.2C166.497 141.047 162.178 128.773 163.97 123.872C166.106 118.022 165.382 111.866 163.397 107.294C160.067 99.6441 161.176 99.5791 160.115 92.7959C159.744 91.5394 157.281 90.1453 151.729 88.5447C152.15 89.9445 152.083 91.352 151.932 92.5607C151.452 96.3988 150.117 99.8602 147.604 103.54C142.359 99.4739 140.337 93.1669 139.461 89.3173C133.753 88.3152 126.866 90.9332 123.084 95.5478C122.39 96.3949 121.968 97.4323 121.875 98.5234C120.98 109.998 125.721 131.657 119.963 144.703L119.959 144.698Z" fill="#A5C6B1"/>
<path fill-rule="evenodd" clip-rule="evenodd" d="M117.313 105.272L116.148 144.697C123.761 150.612 135.13 137.882 138.163 123.013C139.159 118.131 135.868 107.029 141.405 108.42C144.772 109.265 147.715 107.959 146.711 106.178C137.607 89.9578 119.208 91.5049 117.313 105.272Z" fill="#8AB599"/>
<path fill-rule="evenodd" clip-rule="evenodd" d="M166.441 120.671C166.441 120.671 170.675 122.904 174.073 122.321C177.472 121.738 179.784 120.623 180.472 121.579C181.057 122.392 180.778 122.489 180.281 123.034C179.596 123.799 177.076 124.362 177.076 124.362C177.076 124.362 177.567 125.744 179.296 126.903C180.428 127.668 182.698 128.326 183.582 128.433C185.289 128.655 182.463 131.258 181.033 132.474C180.797 132.674 180.522 132.823 180.226 132.912C179.93 133.001 179.618 133.028 179.311 132.992C176.973 132.707 171.016 131.774 169.004 129.473C166.479 126.588 162.67 127.509 162.67 127.509L166.441 120.671Z" fill="#F8C9A2"/>
<path fill-rule="evenodd" clip-rule="evenodd" d="M175.458 126.408C178.07 128.512 180.956 129.963 184.345 130.244C180.828 130.422 177.94 128.949 175.458 126.408Z" fill="#E7AD7D"/>
<path fill-rule="evenodd" clip-rule="evenodd" d="M174.687 128.19C177.403 130.15 180.357 131.46 183.757 131.571C180.252 131.927 177.294 130.602 174.687 128.19Z" fill="#E7AD7D"/>
<path fill-rule="evenodd" clip-rule="evenodd" d="M173.172 129.91C176.087 131.558 179.17 132.533 182.56 132.268C179.118 133.008 176.029 132.019 173.172 129.91Z" fill="#E7AD7D"/>
<path fill-rule="evenodd" clip-rule="evenodd" d="M126.467 111.067C130.033 115.465 134.074 119.357 141.812 123.329C142.004 123.427 142.206 123.502 142.416 123.553L166.839 129.468C166.414 125.612 167.221 122.983 168.522 120.862C163.435 118.73 157.327 116.29 148.786 113.121L139.207 102.05L126.467 111.071V111.067Z" fill="#FDF6E6"/>
<path fill-rule="evenodd" clip-rule="evenodd" d="M124.495 94.3412C132.145 89.4781 145.183 105.477 145.183 105.477C140.115 104.863 129.586 110.512 128.186 115.855C128.186 115.855 113.843 101.117 124.495 94.3412Z" fill="#A5C6B1"/>
<path fill-rule="evenodd" clip-rule="evenodd" d="M149.939 63.267C155.192 63.267 161.796 65.6364 160.493 75.3149C159.728 81.052 155.45 88.1278 149.679 86.5807C148.398 86.2345 146.938 85.4065 145.94 84.6243C143.198 82.4767 142.332 81.4957 141.056 79.3634C140.136 77.8335 140.291 75.2441 140.291 73.4905C140.291 67.7018 144.69 63.2612 149.939 63.2612V63.267Z" fill="#F8C9A2"/>
<path fill-rule="evenodd" clip-rule="evenodd" d="M153.885 74.009C154.497 74.2805 154.841 74.8275 154.671 75.231C154.5 75.6345 153.85 75.7416 153.236 75.47C152.622 75.1985 152.28 74.6515 152.45 74.248C152.621 73.8445 153.271 73.7374 153.885 74.009Z" fill="#F7F7F7"/>
<path fill-rule="evenodd" clip-rule="evenodd" d="M153.792 74.2765C153.976 74.2772 154.153 74.3463 154.289 74.4704C154.425 74.5945 154.51 74.7647 154.527 74.9478C154.533 75.0352 154.52 75.1228 154.49 75.2052C154.46 75.2875 154.414 75.3626 154.353 75.4258C154.292 75.489 154.219 75.5388 154.138 75.5721C154.057 75.6054 153.97 75.6214 153.882 75.619C153.699 75.6184 153.522 75.5492 153.386 75.4251C153.251 75.3009 153.167 75.1308 153.15 74.9478C153.144 74.8606 153.156 74.7731 153.186 74.6909C153.216 74.6087 153.263 74.5336 153.323 74.4705C153.384 74.4073 153.457 74.3574 153.537 74.3241C153.618 74.2907 153.705 74.2745 153.792 74.2765Z" fill="#363125"/>
<path fill-rule="evenodd" clip-rule="evenodd" d="M158.595 75.7817C159.207 76.0532 159.551 76.6002 159.381 77.0037C159.21 77.4072 158.56 77.5143 157.946 77.2427C157.332 76.9712 156.99 76.4242 157.16 76.0207C157.33 75.6172 157.981 75.5101 158.595 75.7817Z" fill="#F7F7F7"/>
<path fill-rule="evenodd" clip-rule="evenodd" d="M158.505 76.0456C158.689 76.0463 158.865 76.1155 159.001 76.2396C159.136 76.3637 159.221 76.5339 159.237 76.7169C159.243 76.8042 159.231 76.8918 159.202 76.9741C159.172 77.0564 159.125 77.1316 159.065 77.1948C159.004 77.2581 158.931 77.3079 158.85 77.3412C158.769 77.3745 158.682 77.3905 158.595 77.3881C158.411 77.3879 158.233 77.319 158.097 77.1948C157.962 77.0706 157.877 76.9002 157.86 76.7169C157.854 76.6295 157.867 76.5418 157.897 76.4595C157.927 76.3772 157.974 76.302 158.034 76.2388C158.095 76.1756 158.168 76.1258 158.249 76.0926C158.33 76.0593 158.417 76.0433 158.505 76.0456Z" fill="#363125"/>
<path fill-rule="evenodd" clip-rule="evenodd" d="M152.404 74.271C153.393 73.9306 154.414 74.1811 154.716 75.0359C154.789 73.6361 153.186 73.1733 152.404 74.271Z" fill="#282725"/>
<path fill-rule="evenodd" clip-rule="evenodd" d="M157.114 76.0395C158.105 75.6991 159.124 75.9496 159.426 76.8045C159.499 75.4046 157.896 74.9418 157.114 76.0395Z" fill="#282725"/>
<path fill-rule="evenodd" clip-rule="evenodd" d="M143.636 57.3103C147.008 57.3103 149.744 59.718 149.744 62.6841C149.744 65.6501 147.008 68.0578 143.636 68.0578C140.264 68.0578 137.53 65.6501 137.53 62.6841C137.53 59.718 140.266 57.3103 143.636 57.3103Z" fill="#56402E"/>
<path fill-rule="evenodd" clip-rule="evenodd" d="M138.176 67.9506C138.176 67.9506 138.191 62.8351 142.01 62.3818C143.502 62.2059 144.453 60.9533 145.935 59.8001C146.631 59.2589 149.568 58.6527 148.612 58.3027C147.369 57.8552 151.008 58.494 150.748 59.8575C150.488 61.221 144.533 66.3328 143.561 66.5259C142.59 66.7191 138.172 67.9506 138.172 67.9506H138.176Z" fill="#8E6C51"/>
<path fill-rule="evenodd" clip-rule="evenodd" d="M160.658 72.3643C160.658 72.3643 165.227 66.7304 160.658 63.2671C157 60.4923 155.701 61.4542 154.665 58.8687C153.628 56.2831 148.838 59.1268 146.506 60.2915C144.175 61.4561 143.529 63.5291 141.586 63.271C139.643 63.0128 140.679 65.9903 138.218 67.2869C135.757 68.5835 135.541 70.0407 135.904 72.8328C136.702 78.809 141.259 80.4574 141.259 80.4574C141.259 78.1626 141.98 76.6805 143.395 75.6765C143.395 75.6765 143.043 74.6821 143.164 73.8578C143.355 72.6301 144.219 71.5439 146.001 72.764C147.231 73.6054 147.589 73.2325 147.589 73.2325C147.589 73.2325 147.64 70.7464 151.262 69.4441C157.742 67.1244 160.658 72.3643 160.658 72.3643Z" fill="#56402E"/>
<path fill-rule="evenodd" clip-rule="evenodd" d="M159.754 68.9872C161.941 64.4568 156.241 63.6976 152.041 59.9226C152.341 61.1446 153.571 62.2175 156.026 63.5198C160.058 65.6425 159.916 66.8282 159.754 68.9872Z" fill="#8E6C51"/>
<path fill-rule="evenodd" clip-rule="evenodd" d="M156.903 67.8226C151.13 65.9963 150.646 61.833 142.335 65.3614C149.187 58.0657 152.138 64.0686 156.903 67.8226Z" fill="#8E6C51"/>
<path fill-rule="evenodd" clip-rule="evenodd" d="M150.752 67.7575C146.055 70.2914 142.441 66.1359 138.513 70.4119C141.98 63.9405 144.606 65.8968 150.752 67.7575Z" fill="#8E6C51"/>
<path fill-rule="evenodd" clip-rule="evenodd" d="M152.441 81.7428L154.722 82.7564C153.55 83.5481 152.158 82.3911 152.441 81.7428Z" fill="#E27D58"/>
<path d="M144.063 75.6189C143.789 74.0221 144.305 72.7714 146.166 73.6798M155.889 77.1393C156.671 78.5563 156.594 79.9065 154.529 79.6636L155.889 77.1393Z" stroke="#DA9C69" stroke-width="2" stroke-linecap="round" stroke-linejoin="round"/>
</svg>
