<svg width="373" height="308" viewBox="0 0 373 308" fill="none" xmlns="http://www.w3.org/2000/svg">
<path fill-rule="evenodd" clip-rule="evenodd" d="M20.2374 86.7331C25.1105 96.9449 37.4215 123.143 33.1265 137.844C28.8315 152.545 -7.63743 195.42 1.44977 229.088C14.0363 275.723 55.5607 314.256 125.726 307.152C195.892 300.047 177.753 277.75 208.301 272.681C238.848 267.613 304.715 280.654 321.901 251.909C342.502 217.445 291.353 184.045 309.969 171.34C328.585 158.636 368.037 130.09 372.496 89.1926C377.746 41.0354 342.085 -17.6702 260.806 5.04471C179.185 27.8551 141.763 29.3487 88.0123 13.6633C40.5106 -0.210762 -0.762985 42.7159 20.2374 86.7331Z" fill="#FBF8F0"/>
<path fill-rule="evenodd" clip-rule="evenodd" d="M284.935 22.8853C307.999 22.8853 326.723 41.6575 326.723 64.7816C326.723 87.9057 307.999 106.676 284.935 106.676C261.871 106.676 243.15 87.9036 243.15 64.7816C243.15 41.6596 261.884 22.8853 284.935 22.8853Z" fill="#84749B"/>
<path fill-rule="evenodd" clip-rule="evenodd" d="M284.935 28.4253C304.703 28.4253 320.754 44.5158 320.754 64.3349C320.754 84.1541 304.703 100.247 284.935 100.247C265.168 100.247 249.119 84.1562 249.119 64.3349C249.119 44.5137 265.168 28.4253 284.935 28.4253Z" fill="#FFF4D7"/>
<path fill-rule="evenodd" clip-rule="evenodd" d="M285.609 30.4859C285.609 30.4087 285.594 30.3322 285.565 30.2608C285.535 30.1895 285.492 30.1248 285.437 30.0705C285.327 29.9602 285.178 29.8982 285.022 29.8981H283.06C282.983 29.8978 282.907 29.9128 282.835 29.9422C282.764 29.9716 282.699 30.0149 282.644 30.0695C282.59 30.1241 282.546 30.189 282.517 30.2605C282.487 30.332 282.472 30.4086 282.472 30.4859V36.1714C282.473 36.3271 282.535 36.4762 282.644 36.5869C282.754 36.6969 282.903 36.7589 283.058 36.7593H285.02C285.098 36.7593 285.174 36.744 285.245 36.7143C285.316 36.6847 285.381 36.6412 285.436 36.5864C285.49 36.5316 285.533 36.4665 285.563 36.3949C285.592 36.3234 285.607 36.2467 285.607 36.1693V30.4859H285.609Z" fill="#84749B"/>
<path fill-rule="evenodd" clip-rule="evenodd" d="M286.504 91.815C286.504 91.6592 286.442 91.5097 286.332 91.3996C286.278 91.3443 286.213 91.3004 286.142 91.2705C286.071 91.2405 285.995 91.2251 285.917 91.2251H283.955C283.8 91.2256 283.65 91.288 283.54 91.3985C283.43 91.509 283.368 91.6587 283.367 91.815V97.5005C283.367 97.6563 283.429 97.8058 283.539 97.9159C283.593 97.9708 283.658 98.0143 283.729 98.0439C283.8 98.0735 283.876 98.0886 283.953 98.0883H285.917C285.994 98.0887 286.071 98.0737 286.142 98.0441C286.213 98.0145 286.278 97.9709 286.332 97.9159C286.442 97.8058 286.504 97.6563 286.504 97.5005V91.815Z" fill="#84749B"/>
<path fill-rule="evenodd" clip-rule="evenodd" d="M272.753 94.9039C272.739 94.929 272.731 94.9565 272.729 94.9848C272.727 95.013 272.73 95.0415 272.74 95.0684C272.749 95.0952 272.763 95.1199 272.782 95.1409C272.801 95.162 272.824 95.1788 272.85 95.1906C272.875 95.2039 272.902 95.2121 272.93 95.2145C272.959 95.2169 272.987 95.2136 273.014 95.2046C273.04 95.1957 273.065 95.1813 273.086 95.1625C273.107 95.1436 273.124 95.1207 273.136 95.095L275.436 90.4876C275.45 90.4626 275.458 90.435 275.46 90.4066C275.463 90.3782 275.46 90.3496 275.451 90.3225C275.442 90.2954 275.428 90.2704 275.409 90.2492C275.39 90.2279 275.366 90.2108 275.34 90.1989C275.315 90.1852 275.288 90.1769 275.259 90.1745C275.231 90.172 275.202 90.1755 275.175 90.1847C275.148 90.1938 275.123 90.2085 275.102 90.2277C275.081 90.247 275.064 90.2704 275.053 90.2965C274.657 91.088 273.151 94.1104 272.753 94.9039Z" fill="#84749B"/>
<path fill-rule="evenodd" clip-rule="evenodd" d="M255.542 53.8114C255.516 53.8001 255.488 53.7941 255.46 53.7939C255.431 53.7938 255.403 53.7994 255.377 53.8105C255.351 53.8216 255.328 53.8379 255.309 53.8584C255.289 53.879 255.274 53.9033 255.264 53.9298C255.253 53.9559 255.247 53.984 255.247 54.0125C255.247 54.0409 255.253 54.0691 255.264 54.0951C255.275 54.1212 255.292 54.1447 255.312 54.1642C255.333 54.1836 255.358 54.1986 255.384 54.2082L260.15 56.111C260.176 56.1223 260.204 56.1281 260.232 56.1282C260.26 56.1282 260.288 56.1224 260.314 56.1111C260.34 56.0998 260.364 56.0832 260.383 56.0625C260.403 56.0418 260.418 56.0172 260.427 55.9905C260.439 55.9644 260.444 55.9363 260.444 55.9078C260.444 55.8794 260.439 55.8513 260.427 55.8252C260.416 55.7991 260.4 55.7756 260.379 55.7561C260.358 55.7367 260.334 55.7217 260.307 55.7121L255.542 53.8114Z" fill="#84749B"/>
<path fill-rule="evenodd" clip-rule="evenodd" d="M297.429 33.6371C297.441 33.6117 297.449 33.584 297.451 33.5557C297.452 33.5273 297.448 33.499 297.438 33.4723C297.429 33.4456 297.414 33.4212 297.394 33.4006C297.375 33.38 297.351 33.3636 297.325 33.3525C297.3 33.3393 297.272 33.3315 297.244 33.3295C297.215 33.3275 297.187 33.3314 297.16 33.341C297.133 33.3505 297.109 33.3655 297.088 33.385C297.067 33.4045 297.051 33.4281 297.039 33.4543C296.666 34.2582 295.237 37.318 294.862 38.1219C294.849 38.1472 294.841 38.1749 294.84 38.2033C294.838 38.2316 294.842 38.26 294.852 38.2867C294.862 38.3133 294.877 38.3377 294.896 38.3583C294.916 38.3789 294.939 38.3953 294.965 38.4065C294.99 38.4193 295.018 38.4269 295.046 38.4287C295.074 38.4305 295.103 38.4265 295.129 38.417C295.156 38.4074 295.18 38.3926 295.201 38.3733C295.221 38.3539 295.238 38.3306 295.249 38.3047L297.429 33.6371Z" fill="#84749B"/>
<path fill-rule="evenodd" clip-rule="evenodd" d="M314.969 75.3735C314.995 75.3853 315.022 75.3918 315.051 75.3926C315.079 75.3933 315.107 75.3883 315.133 75.3778C315.159 75.3673 315.183 75.3516 315.203 75.3315C315.223 75.3115 315.238 75.2876 315.249 75.2613C315.259 75.2357 315.264 75.2083 315.264 75.1806C315.264 75.153 315.258 75.1257 315.247 75.1004C315.236 75.075 315.22 75.0521 315.2 75.033C315.18 75.0139 315.156 74.999 315.131 74.9892L310.403 72.9659C310.377 72.9541 310.349 72.9477 310.321 72.9471C310.292 72.9465 310.264 72.9517 310.238 72.9624C310.212 72.9731 310.188 72.9891 310.168 73.0093C310.149 73.0296 310.133 73.0537 310.123 73.0802C310.111 73.1058 310.105 73.1336 310.104 73.1619C310.103 73.1902 310.108 73.2183 310.119 73.2446C310.129 73.2708 310.145 73.2946 310.165 73.3146C310.185 73.3346 310.209 73.3502 310.235 73.3606L314.963 75.3838L314.969 75.3735Z" fill="#84749B"/>
<path fill-rule="evenodd" clip-rule="evenodd" d="M261.631 86.1379C261.608 86.1541 261.588 86.175 261.573 86.1993C261.558 86.2236 261.548 86.2507 261.544 86.279C261.54 86.3073 261.541 86.3361 261.549 86.3636C261.557 86.3912 261.57 86.4169 261.587 86.4391C261.604 86.4624 261.625 86.4821 261.649 86.497C261.673 86.5118 261.701 86.5215 261.729 86.5254C261.757 86.5293 261.786 86.5274 261.813 86.5196C261.84 86.5119 261.866 86.4987 261.888 86.4806L266.005 83.3959C266.028 83.3797 266.047 83.3589 266.062 83.3348C266.077 83.3107 266.087 83.2838 266.091 83.2558C266.095 83.2278 266.093 83.1992 266.086 83.1719C266.079 83.1445 266.066 83.119 266.048 83.0968C266.032 83.0733 266.011 83.0534 265.987 83.0384C265.963 83.0233 265.936 83.0134 265.908 83.0093C265.879 83.0053 265.851 83.007 265.823 83.0146C265.796 83.0221 265.77 83.0353 265.748 83.0532L261.631 86.1379Z" fill="#84749B"/>
<path fill-rule="evenodd" clip-rule="evenodd" d="M263.299 41.9483C263.281 41.9264 263.258 41.9086 263.233 41.8958C263.207 41.883 263.18 41.8756 263.151 41.8741C263.123 41.8725 263.094 41.8768 263.068 41.8867C263.041 41.8967 263.017 41.912 262.996 41.9317C262.975 41.9499 262.957 41.9725 262.944 41.998C262.931 42.0234 262.924 42.0513 262.922 42.0797C262.921 42.1082 262.925 42.1366 262.935 42.1633C262.945 42.19 262.96 42.2144 262.98 42.235L266.398 46.0821C266.417 46.1039 266.439 46.1218 266.464 46.1345C266.49 46.1473 266.518 46.1547 266.546 46.1563C266.574 46.1578 266.603 46.1535 266.629 46.1436C266.656 46.1337 266.68 46.1184 266.701 46.0987C266.722 46.0804 266.74 46.058 266.752 46.0327C266.765 46.0074 266.772 45.9798 266.774 45.9516C266.775 45.9235 266.771 45.8952 266.761 45.8687C266.752 45.8422 266.737 45.818 266.717 45.7975L263.299 41.9483Z" fill="#84749B"/>
<path fill-rule="evenodd" clip-rule="evenodd" d="M308.776 42.1062C308.799 42.0893 308.818 42.0679 308.832 42.0433C308.847 42.0187 308.856 41.9914 308.859 41.9632C308.862 41.935 308.86 41.9064 308.852 41.8791C308.843 41.8519 308.83 41.8267 308.812 41.805C308.795 41.7821 308.773 41.7629 308.749 41.7486C308.724 41.7344 308.697 41.7253 308.669 41.722C308.641 41.7187 308.612 41.7212 308.585 41.7294C308.558 41.7376 308.533 41.7513 308.511 41.7696L304.477 44.9624C304.454 44.9793 304.435 45.0007 304.421 45.0252C304.407 45.0498 304.398 45.0771 304.394 45.1053C304.391 45.1336 304.394 45.1622 304.402 45.1894C304.41 45.2166 304.424 45.2419 304.442 45.2636C304.459 45.2865 304.48 45.3056 304.505 45.3199C304.529 45.3342 304.556 45.3432 304.584 45.3465C304.613 45.3499 304.641 45.3473 304.668 45.3391C304.695 45.3309 304.721 45.3172 304.742 45.2989L308.776 42.1062Z" fill="#84749B"/>
<path fill-rule="evenodd" clip-rule="evenodd" d="M306.914 87.0374C306.931 87.0597 306.953 87.0781 306.978 87.0916C307.003 87.1051 307.03 87.1134 307.058 87.1159C307.086 87.1185 307.115 87.1152 307.141 87.1063C307.168 87.0975 307.193 87.0832 307.214 87.0644C307.236 87.0467 307.255 87.0246 307.268 86.9995C307.282 86.9743 307.29 86.9467 307.292 86.9182C307.295 86.8897 307.291 86.8611 307.282 86.8341C307.273 86.807 307.258 86.7822 307.239 86.7611C306.667 86.0839 304.492 83.504 303.924 82.8289C303.906 82.8063 303.884 82.7876 303.859 82.7739C303.834 82.7602 303.807 82.7518 303.779 82.7492C303.75 82.7467 303.722 82.7501 303.694 82.7591C303.667 82.7682 303.643 82.7827 303.621 82.8019C303.599 82.8195 303.581 82.8416 303.567 82.8668C303.554 82.8919 303.545 82.9196 303.543 82.9481C303.541 82.9765 303.544 83.0052 303.553 83.0322C303.563 83.0592 303.577 83.0841 303.597 83.1052L306.912 87.0374H306.914Z" fill="#84749B"/>
<path fill-rule="evenodd" clip-rule="evenodd" d="M254.073 72.7229C254.045 72.7259 254.018 72.7347 253.993 72.7486C253.968 72.7625 253.947 72.7814 253.93 72.8039C253.913 72.8265 253.9 72.8523 253.894 72.8799C253.887 72.9074 253.886 72.936 253.891 72.9639C253.893 72.9922 253.902 73.0197 253.916 73.0446C253.929 73.0695 253.948 73.0913 253.971 73.1087C253.993 73.126 254.019 73.1385 254.047 73.1454C254.074 73.1523 254.103 73.1535 254.131 73.1488L259.224 72.4446C259.252 72.4416 259.279 72.4328 259.304 72.4187C259.329 72.4047 259.35 72.3857 259.367 72.3629C259.385 72.34 259.397 72.314 259.403 72.2862C259.41 72.2584 259.411 72.2296 259.406 72.2015C259.403 72.1734 259.394 72.1461 259.38 72.1214C259.366 72.0968 259.348 72.0752 259.325 72.0581C259.303 72.041 259.277 72.0287 259.249 72.0219C259.222 72.0151 259.193 72.014 259.166 72.0187L254.073 72.7229Z" fill="#84749B"/>
<path fill-rule="evenodd" clip-rule="evenodd" d="M275.983 33.2487C275.977 33.2207 275.966 33.194 275.95 33.1704C275.934 33.1468 275.914 33.1268 275.89 33.1116C275.865 33.0964 275.838 33.0863 275.81 33.0821C275.782 33.0778 275.753 33.0794 275.726 33.0867C275.698 33.092 275.671 33.1031 275.648 33.1192C275.624 33.1353 275.604 33.156 275.589 33.1802C275.574 33.2044 275.564 33.2314 275.56 33.2597C275.555 33.2879 275.557 33.3167 275.564 33.3443C275.771 34.2084 276.505 37.4988 276.702 38.3692C276.707 38.397 276.718 38.4235 276.734 38.4469C276.75 38.4703 276.77 38.4902 276.794 38.5054C276.818 38.5206 276.845 38.5307 276.873 38.5352C276.901 38.5396 276.929 38.5383 276.957 38.5312C276.985 38.5259 277.011 38.5149 277.035 38.4988C277.058 38.4827 277.078 38.4619 277.093 38.4377C277.108 38.4136 277.119 38.3865 277.123 38.3583C277.127 38.3301 277.126 38.3012 277.118 38.2737C276.923 37.4095 276.178 34.1191 275.983 33.2487Z" fill="#84749B"/>
<path fill-rule="evenodd" clip-rule="evenodd" d="M316.683 55.3176C316.711 55.3139 316.738 55.3044 316.762 55.2898C316.787 55.2751 316.808 55.2556 316.824 55.2324C316.841 55.2092 316.852 55.1829 316.858 55.155C316.864 55.1271 316.864 55.0984 316.859 55.0704C316.855 55.0424 316.846 55.0154 316.831 54.9912C316.817 54.9669 316.797 54.9458 316.774 54.9293C316.751 54.9128 316.725 54.9011 316.698 54.895C316.67 54.8889 316.642 54.8885 316.614 54.8939L311.542 55.7248C311.514 55.7285 311.487 55.7379 311.463 55.7525C311.439 55.767 311.418 55.7863 311.401 55.8093C311.385 55.8322 311.373 55.8583 311.367 55.8859C311.361 55.9135 311.361 55.9421 311.366 55.9699C311.37 55.9981 311.379 56.0253 311.394 56.0497C311.409 56.0742 311.428 56.0953 311.451 56.1119C311.474 56.1284 311.501 56.1401 311.528 56.146C311.556 56.152 311.585 56.1521 311.613 56.1465L316.683 55.3156V55.3176Z" fill="#84749B"/>
<path fill-rule="evenodd" clip-rule="evenodd" d="M294.014 95.4087C294.019 95.4367 294.029 95.4634 294.045 95.4872C294.06 95.511 294.08 95.5314 294.103 95.5471C294.127 95.5629 294.153 95.5737 294.181 95.5788C294.209 95.5839 294.237 95.5833 294.265 95.577C294.293 95.5724 294.32 95.562 294.344 95.5465C294.368 95.531 294.388 95.5107 294.404 95.4869C294.42 95.4631 294.43 95.4364 294.435 95.4083C294.44 95.3802 294.439 95.3513 294.433 95.3236L293.424 90.2717C293.419 90.2437 293.409 90.217 293.393 90.1932C293.378 90.1694 293.358 90.149 293.335 90.1333C293.311 90.1175 293.285 90.1067 293.257 90.1016C293.229 90.0964 293.201 90.0971 293.173 90.1034C293.145 90.1081 293.118 90.1184 293.095 90.1338C293.071 90.1491 293.051 90.1692 293.035 90.1927C293.019 90.2163 293.008 90.2428 293.003 90.2707C292.998 90.2985 292.999 90.3271 293.005 90.3548L294.014 95.4087Z" fill="#84749B"/>
<path fill-rule="evenodd" clip-rule="evenodd" d="M312.578 63.5061C312.423 63.5061 312.274 63.568 312.164 63.6783C312.054 63.7885 311.992 63.9381 311.992 64.094V66.057C311.992 66.2129 312.054 66.3624 312.164 66.4727C312.274 66.5829 312.423 66.6449 312.578 66.6449H318.249C318.326 66.6451 318.402 66.6301 318.474 66.6007C318.545 66.5713 318.61 66.528 318.665 66.4734C318.719 66.4188 318.763 66.3539 318.792 66.2824C318.822 66.211 318.837 66.1344 318.837 66.057V64.0877C318.837 64.0104 318.822 63.9338 318.792 63.8623C318.763 63.7908 318.719 63.7259 318.665 63.6713C318.61 63.6167 318.545 63.5735 318.474 63.544C318.402 63.5146 318.326 63.4996 318.249 63.4999L312.578 63.5061Z" fill="#84749B"/>
<path fill-rule="evenodd" clip-rule="evenodd" d="M250.973 63.61C250.896 63.61 250.82 63.6253 250.748 63.6549C250.677 63.6846 250.612 63.7281 250.558 63.7829C250.504 63.8377 250.46 63.9028 250.431 63.9743C250.402 64.0459 250.387 64.1226 250.387 64.1999V66.1671C250.387 66.2445 250.402 66.3211 250.431 66.3927C250.46 66.4643 250.504 66.5293 250.558 66.5841C250.612 66.6389 250.677 66.6824 250.748 66.7121C250.82 66.7418 250.896 66.757 250.973 66.757H256.644C256.721 66.757 256.798 66.7418 256.869 66.7121C256.94 66.6824 257.005 66.6389 257.059 66.5841C257.114 66.5293 257.157 66.4643 257.186 66.3927C257.216 66.3211 257.231 66.2445 257.23 66.1671V64.1999C257.231 64.1226 257.216 64.0459 257.186 63.9743C257.157 63.9028 257.114 63.8377 257.059 63.7829C257.005 63.7281 256.94 63.6846 256.869 63.6549C256.798 63.6253 256.721 63.61 256.644 63.61H250.973Z" fill="#84749B"/>
<path fill-rule="evenodd" clip-rule="evenodd" d="M284.04 67.9806L265.157 77.804C264.944 77.9152 264.783 78.1067 264.711 78.3364C264.638 78.5662 264.659 78.8155 264.77 79.0296C264.904 79.2882 264.962 79.5798 264.938 79.8703C264.913 80.1608 264.806 80.4383 264.631 80.6705C264.455 80.9027 264.217 81.0801 263.944 81.1819C263.672 81.2838 263.376 81.3061 263.092 81.246L258.633 80.305C258.363 80.2478 258.109 80.1313 257.89 79.964C257.671 79.7966 257.491 79.5826 257.364 79.3372C257.237 79.0918 257.166 78.8213 257.155 78.545C257.145 78.2688 257.196 77.9937 257.305 77.7396C257.835 76.4933 258.517 74.9104 259.105 73.5415C259.22 73.2741 259.409 73.0449 259.649 72.8805C259.888 72.7161 260.17 72.6233 260.46 72.6129C260.75 72.6025 261.038 72.6748 261.289 72.8215C261.539 72.9682 261.744 73.1833 261.878 73.4418C261.988 73.6556 262.179 73.8167 262.409 73.8895C262.638 73.9623 262.886 73.941 263.1 73.8302L281.981 64.0068L284.038 67.9806H284.04Z" fill="#84749B"/>
<path fill-rule="evenodd" clip-rule="evenodd" d="M284.04 67.8372L273.681 86.2397C273.645 86.302 273.622 86.3709 273.614 86.4423C273.605 86.5137 273.611 86.5862 273.631 86.6552C273.65 86.7235 273.682 86.7876 273.725 86.8435C273.769 86.8995 273.823 86.9463 273.884 86.9813C273.966 87.0274 274.036 87.0917 274.089 87.1693C274.141 87.2469 274.176 87.3357 274.189 87.4288C274.202 87.5218 274.193 87.6167 274.164 87.7059C274.134 87.7951 274.085 87.8762 274.019 87.9431L271.118 90.9011C270.996 91.0248 270.837 91.1049 270.665 91.129C270.493 91.153 270.318 91.1198 270.167 91.0343C270.015 90.9488 269.896 90.8158 269.828 90.6559C269.76 90.496 269.746 90.3179 269.788 90.1491C270.155 88.7054 270.573 87.0644 270.811 86.1234C270.836 86.0336 270.881 85.9506 270.943 85.8805C271.004 85.8103 271.08 85.7549 271.166 85.7182C271.251 85.6815 271.344 85.6646 271.437 85.6685C271.529 85.6725 271.62 85.6973 271.702 85.7412C271.764 85.7758 271.832 85.7979 271.902 85.8062C271.972 85.8145 272.043 85.8088 272.111 85.7895C272.179 85.7702 272.242 85.7377 272.298 85.6937C272.353 85.6498 272.399 85.5953 272.434 85.5335L282.793 67.131L284.036 67.8393L284.04 67.8372Z" fill="#84749B"/>
<path fill-rule="evenodd" clip-rule="evenodd" d="M284.935 60.9948C285.762 60.9948 286.57 61.2405 287.257 61.7009C287.944 62.1613 288.48 62.8156 288.796 63.5812C289.113 64.3468 289.195 65.1892 289.034 66.002C288.873 66.8147 288.475 67.5613 287.89 68.1473C287.306 68.7332 286.561 69.1323 285.751 69.2939C284.94 69.4556 284.1 69.3726 283.336 69.0555C282.573 68.7384 281.92 68.2014 281.461 67.5123C281.002 66.8233 280.756 66.0133 280.756 65.1846C280.757 64.0735 281.197 63.0082 281.981 62.2225C282.765 61.4369 283.827 60.9953 284.935 60.9948Z" fill="#84749B"/>
<path fill-rule="evenodd" clip-rule="evenodd" d="M96.2154 251.702C98.4944 253.954 98.9088 259.064 97.2513 263.096L112.952 263.659C108.792 257.869 107.915 253.75 110.115 249.837L96.2154 251.706V251.702Z" fill="#F3B593"/>
<path fill-rule="evenodd" clip-rule="evenodd" d="M139.202 263.462C134.321 257.697 124.391 266.912 116.225 260.163C114.439 264 113.946 265.95 115.538 270.537C122.302 271.27 122.75 269.787 129.32 271.137C131.184 271.521 136.669 272.491 139.202 271.881C141.61 268.869 141.66 265.724 139.202 263.462Z" fill="#B7A08F"/>
<path fill-rule="evenodd" clip-rule="evenodd" d="M119.88 263.659C114.999 257.894 105.068 267.107 96.9032 260.36C95.1173 264.195 94.6345 266.147 96.2154 270.734C102.98 271.465 103.425 269.984 109.997 271.334C111.862 271.717 117.346 272.689 119.88 272.078C122.288 269.066 122.337 265.921 119.88 263.659Z" fill="#B7A08F"/>
<path fill-rule="evenodd" clip-rule="evenodd" d="M86.8609 161.079L133.204 159.854C136.238 187.573 135.767 218.804 135.382 249.951C130.353 250.084 120.33 238.663 115.038 239.064C112.26 239.272 112.486 255.474 112.486 255.474C112.486 255.474 104.018 254.056 93.7125 258.821C88.6157 234.041 80.0382 195.826 86.8609 161.088V161.079Z" fill="#CFB4A1"/>
<path fill-rule="evenodd" clip-rule="evenodd" d="M113.602 179.82C113.312 181.759 110.729 211.991 110.115 210.707L118.37 210.024C118.37 210.024 115.9 200.664 114.574 191.939C113.658 185.886 113.679 179.268 113.594 179.831L113.602 179.82Z" fill="#A68D7B"/>
<path fill-rule="evenodd" clip-rule="evenodd" d="M86.9645 156.819L80.2309 164.696C85.5411 170.946 100.653 176.233 128.619 163.913C130.751 162.972 138.641 163.385 141.135 163.782L138.525 153.234L86.9645 156.819Z" fill="#B89E8C"/>
<path fill-rule="evenodd" clip-rule="evenodd" d="M93.957 98.211C93.957 98.211 97.1145 97.5089 97.5724 93.8176C97.8956 91.2065 97.4647 82.8081 97.4647 82.8081L110.683 84.9269C110.683 84.9269 110.169 92.295 110.683 94.0918C111.056 95.388 115.384 96.4973 115.384 96.4973C116.126 109.26 99.2486 113.388 93.957 98.2027V98.211Z" fill="#F3B593"/>
<path fill-rule="evenodd" clip-rule="evenodd" d="M93.2567 80.1077L117.023 83.6245C119.839 97.6813 91.7463 91.464 93.2567 80.1077Z" fill="#E3A482"/>
<path fill-rule="evenodd" clip-rule="evenodd" d="M120.81 68.7574C120.243 74.7067 120.945 80.9468 122.81 88.0241C117.388 91.4578 113 90.2218 109.075 86.9023L120.81 68.7574Z" fill="#5C3E37"/>
<path fill-rule="evenodd" clip-rule="evenodd" d="M119.391 78.0657C119.159 80.4712 119.184 83.4541 119.88 88.0179C119 85.2343 118.589 81.2231 119.391 78.0657Z" fill="#341C16"/>
<path fill-rule="evenodd" clip-rule="evenodd" d="M109.075 61.8589C115.658 61.8589 122.018 65.5481 120.616 74.5884C119.466 81.9917 116.058 89.9289 110.049 89.5696C101.385 89.0503 95.774 81.0964 95.774 73.6037C95.774 66.111 102.485 61.8589 109.067 61.8589H109.075Z" fill="#F3B593"/>
<path d="M115.308 77.777C116.532 78.6079 115.998 80.3299 114.767 80.5917" stroke="#E59E78" stroke-width="4" stroke-linecap="round" stroke-linejoin="round"/>
<path fill-rule="evenodd" clip-rule="evenodd" d="M110.459 74.4782C111.184 74.1584 111.973 74.016 112.763 74.0628C113.128 74.9996 112.929 75.4275 112.479 75.7121C111.685 75.5375 110.973 75.0981 110.459 74.4658V74.4782Z" fill="white"/>
<path fill-rule="evenodd" clip-rule="evenodd" d="M116.607 75.4379C117.338 75.1282 118.133 74.9979 118.925 75.0578C119.277 75.9988 119.074 76.4246 118.62 76.703C117.829 76.5202 117.122 76.0744 116.615 75.4379H116.607Z" fill="white"/>
<path fill-rule="evenodd" clip-rule="evenodd" d="M112.479 73.9507C112.653 73.9564 112.821 74.0133 112.963 74.1143C113.105 74.2152 113.214 74.3558 113.276 74.5184C113.339 74.681 113.352 74.8585 113.314 75.0286C113.277 75.1988 113.19 75.3541 113.065 75.4752C112.94 75.5962 112.782 75.6777 112.611 75.7094C112.441 75.7411 112.264 75.7216 112.104 75.6534C111.944 75.5852 111.808 75.4712 111.712 75.3258C111.616 75.1804 111.565 75.0099 111.566 74.8356C111.57 74.5969 111.669 74.3696 111.84 74.2037C112.011 74.0378 112.241 73.9468 112.479 73.9507Z" fill="#654A43"/>
<path fill-rule="evenodd" clip-rule="evenodd" d="M118.635 74.9332C118.808 74.9414 118.975 75.0005 119.115 75.1031C119.255 75.2057 119.361 75.3473 119.421 75.5103C119.481 75.6732 119.492 75.8503 119.453 76.0194C119.413 76.1886 119.325 76.3423 119.199 76.4614C119.072 76.5805 118.914 76.6597 118.743 76.6892C118.573 76.7187 118.397 76.6972 118.238 76.6272C118.08 76.5573 117.945 76.4421 117.851 76.296C117.758 76.1499 117.709 75.9794 117.711 75.8057C117.719 75.5673 117.82 75.3416 117.993 75.1781C118.166 75.0145 118.397 74.9265 118.635 74.9332Z" fill="#654A43"/>
<path fill-rule="evenodd" clip-rule="evenodd" d="M110.459 74.4783C111.412 74.1972 112.416 74.1403 113.393 74.3121C112.712 73.4687 111.435 73.6328 110.459 74.4783Z" fill="#222222"/>
<path fill-rule="evenodd" clip-rule="evenodd" d="M116.607 75.438C117.563 75.1671 118.568 75.1223 119.545 75.3071C118.873 74.4554 117.595 74.6029 116.607 75.438Z" fill="#222222"/>
<path fill-rule="evenodd" clip-rule="evenodd" d="M111.926 84.3536C113.078 84.4035 113.723 84.4097 114.582 84.8813C114.418 85.1179 114.189 85.3015 113.923 85.4095C113.656 85.5174 113.364 85.5451 113.082 85.4891C112.8 85.4331 112.541 85.2958 112.335 85.0941C112.13 84.8925 111.988 84.6351 111.926 84.3536Z" fill="#D97963"/>
<path fill-rule="evenodd" clip-rule="evenodd" d="M118.37 61.8588C118.37 61.8588 109.952 50.465 99.2879 56.2315C94.3382 58.9091 93.091 66.6012 90.8907 72.3261C89.2477 76.5949 86.0197 79.582 86.0197 79.582C90.3333 85.0514 95.3224 88.7884 101.509 87.8807C101.509 87.8807 102.752 77.9389 106.164 71.705C111.605 61.7633 118.37 61.8588 118.37 61.8588Z" fill="#5C3E37"/>
<path fill-rule="evenodd" clip-rule="evenodd" d="M115.734 61.0881C104.316 63.8094 99.9654 73.8218 98.3721 86.6759C99.4992 72.4902 103.943 62.3303 115.734 61.0881Z" fill="#341C16"/>
<path fill-rule="evenodd" clip-rule="evenodd" d="M115.308 60.4484C104.741 60.0579 98.5131 68.7159 96.2154 79.4014C97.7672 67.9764 104.513 59.2955 115.308 60.4484Z" fill="#341C16"/>
<path fill-rule="evenodd" clip-rule="evenodd" d="M117.889 61.5411C120.583 61.7384 122.847 66.62 122.804 70.7205C122.656 70.787 121.915 70.9988 121.915 70.9988C122.031 70.3757 121.708 68.7886 121.556 68.7512C121.654 69.6107 121.577 70.481 121.333 71.3104C119.184 72.4778 116.758 72.5215 114.236 72.187C114.607 70.6104 114.518 69.0358 114.236 67.4592C114.282 69.1044 113.696 70.8451 112.83 71.9294L111.738 71.6158C112.324 70.6602 112.506 69.7047 112.622 68.7512C112.349 69.5011 111.889 70.2884 110.677 71.2273C110.677 71.2273 107.878 70.6602 106.718 69.3142C108.292 64.1584 112.56 61.1485 117.889 61.5411Z" fill="#5C3E37"/>
<path fill-rule="evenodd" clip-rule="evenodd" d="M118.233 62.7064C118.97 65.4085 119.135 68.2352 118.718 71.0051C119.632 67.5194 119.279 64.8792 118.227 62.7064H118.233Z" fill="#341C16"/>
<path fill-rule="evenodd" clip-rule="evenodd" d="M117.498 64.7816C117.626 67.0538 117.279 69.3278 116.48 71.458C117.63 69.4334 117.993 67.0538 117.498 64.7775V64.7816Z" fill="#341C16"/>
<path fill-rule="evenodd" clip-rule="evenodd" d="M120.81 98.1945C133.863 101.794 135.202 114.786 141.519 126.329C143.037 129.1 147.131 131.416 150.078 134.283C154.982 139.06 157.642 145.292 157.642 145.292C152.808 143.618 149.719 144.949 146.711 148.072C140.129 146.1 134.829 143.103 130.117 139.63L120.81 98.1945Z" fill="#CFB4A1"/>
<path fill-rule="evenodd" clip-rule="evenodd" d="M121.772 100.521L129.023 141.485L132.204 143.269C133.737 126.426 131.437 115.434 127.936 108.601C126.071 104.954 123.614 104.372 121.764 100.521H121.772Z" fill="#B89E8C"/>
<path fill-rule="evenodd" clip-rule="evenodd" d="M143.758 150.045L161.021 145.855C156.929 139.623 143.64 142.739 143.758 150.045Z" fill="#FFE3D0"/>
<path fill-rule="evenodd" clip-rule="evenodd" d="M96.5489 96.5056C97.4709 100.953 101.173 105.413 103.674 105.675C110.323 106.377 114.392 103.597 111.282 94.9435C116.803 95.737 121.848 97.8683 122.808 98.963C128.549 105.498 130.474 114.383 129.695 124.692C129.301 129.939 130.217 137.704 130.683 144.062C131.159 150.546 131.371 153.597 134.535 162.18C114.989 164.496 100.181 175.136 84.242 166.788C83.8401 163.296 84.6233 158.439 84.8139 155.363C85.9057 137.754 82.7897 122.708 81.1902 105.093C83.1564 101.896 90.4721 97.2617 96.5531 96.491L96.5489 96.5056Z" fill="#CFB4A1"/>
<path fill-rule="evenodd" clip-rule="evenodd" d="M84.3249 107.453C91.3692 107.97 93.7063 107.114 98.3079 112.704C98.7824 113.282 99.5966 115.56 100.125 116.235C102.622 119.445 98.772 112.081 99.607 112.289C101.206 112.704 102.99 121.659 103.448 122.619C104.921 125.712 106.498 129.609 108.288 134.075C109.807 137.866 112.194 139.669 114.759 142.706C118.073 146.64 121.701 151.856 124.113 157.98C121.987 157.787 112.542 165.084 112.542 165.084C112.542 165.084 101.331 160.892 88.6965 142.409C80.1522 129.912 81.9692 124.025 84.3249 107.438V107.453Z" fill="#B89E8C"/>
<path fill-rule="evenodd" clip-rule="evenodd" d="M94.4605 96.5056L96.2154 95.1346L111.926 93.1072L113.602 93.9589C118.161 110.658 97.0607 112.447 94.4605 96.5056Z" fill="#FFE3D0"/>
<path fill-rule="evenodd" clip-rule="evenodd" d="M139.101 176.181C139.681 176.658 140.398 176.938 141.147 176.981C141.896 177.025 142.64 176.829 143.272 176.422L167.796 160.635C168.056 160.467 168.272 160.239 168.424 159.969C168.576 159.699 168.659 159.396 168.668 159.086C168.677 158.777 168.61 158.469 168.473 158.192C168.336 157.914 168.134 157.673 167.883 157.492L152.058 146.032C152.058 146.032 150.005 144.59 148.834 145.244C147.629 145.962 146.461 146.742 145.335 147.579L123.717 160.34C123.462 160.491 123.246 160.701 123.089 160.953C122.931 161.206 122.837 161.492 122.814 161.789C122.791 162.085 122.84 162.383 122.957 162.657C123.073 162.93 123.254 163.172 123.483 163.36L139.099 176.181H139.101Z" fill="#E9DBD8"/>
<path fill-rule="evenodd" clip-rule="evenodd" d="M162.799 162.284C165.463 160.602 165.741 157.729 163.42 155.87L154.99 149.148C152.663 147.29 148.613 147.147 145.948 148.83L129.514 159.216C126.848 160.899 126.572 163.771 128.893 165.631L137.319 172.363C139.644 174.22 143.696 174.363 146.361 172.681L162.795 162.295L162.799 162.284Z" fill="#FAF4F3"/>
<path fill-rule="evenodd" clip-rule="evenodd" d="M150.49 145.172C150.49 145.172 150.167 146.68 151.339 148.369C152.464 149.989 153.074 151.106 153.585 153.086C153.749 153.722 154.779 154.461 155.487 153.234C155.875 152.563 154.484 149.642 156.407 149.555C158.017 149.482 158.8 150.893 158.8 150.893C158.8 150.893 161.056 152.702 162.99 154.008C162.237 148.072 162.132 148.797 156.662 144.925C153.944 144.362 152.015 144.405 150.49 145.18V145.172Z" fill="#F3B593"/>
<path fill-rule="evenodd" clip-rule="evenodd" d="M121.316 158.009C121.316 158.009 123.674 158.587 124.718 159.179C127.204 160.585 129.997 160.953 130.998 161.806C131.632 162.351 131.01 163.196 130.26 163.566C129.419 163.981 125.978 162.546 125.594 163.319C124.811 164.904 127.484 166.642 127.484 166.642C127.484 166.642 130.308 168.863 130.575 169.459C130.741 169.825 130.368 170.29 129.954 170.672C129.453 171.133 128.8 171.394 128.12 171.403C126.351 171.424 122.437 171.335 120.603 170.23C118.196 168.776 114.572 162.677 114.572 162.677C114.643 159.49 116.743 157.828 121.306 158.017L121.316 158.009Z" fill="#F3B593"/>
<path fill-rule="evenodd" clip-rule="evenodd" d="M124.121 166.788C125.246 168.35 127.076 169.696 129.699 170.784C127.391 170.014 125.304 168.967 124.121 166.788Z" fill="#D7936F"/>
<path fill-rule="evenodd" clip-rule="evenodd" d="M122.369 167.675C123.494 169.237 125.323 170.583 127.944 171.673C125.638 170.903 123.552 169.856 122.369 167.675Z" fill="#D7936F"/>
<path fill-rule="evenodd" clip-rule="evenodd" d="M120.616 168.564C121.741 170.126 123.568 171.472 126.191 172.56C123.883 171.79 121.797 170.743 120.616 168.564Z" fill="#D7936F"/>
<path fill-rule="evenodd" clip-rule="evenodd" d="M140.187 151.538C146.342 151.538 151.339 153.676 151.339 156.316C151.339 158.956 146.342 161.094 140.187 161.094C134.031 161.094 129.173 158.78 129.173 156.148C129.173 153.516 134.031 151.553 140.187 151.553V151.538Z" fill="#F4E5BC"/>
<path fill-rule="evenodd" clip-rule="evenodd" d="M140.501 155.969C146.659 155.969 151.656 158.107 151.656 160.747C151.656 163.387 146.659 165.525 140.501 165.525C134.344 165.525 129.492 163.196 129.492 160.572C129.492 157.949 134.348 155.978 140.504 155.978L140.501 155.969Z" fill="#E9D293"/>
<path fill-rule="evenodd" clip-rule="evenodd" d="M151.339 156.696C148.004 161.19 132.921 161.767 129.17 156.765L133.842 167.07C134.025 167.473 134.297 167.828 134.638 168.109C134.978 168.39 135.378 168.59 135.807 168.693C137.025 168.979 138.842 169.33 140.443 169.328C141.966 169.32 143.483 169.125 144.958 168.747C145.471 168.615 145.945 168.364 146.344 168.015C146.742 167.667 147.054 167.229 147.254 166.738C148.522 163.622 151.335 156.696 151.335 156.696H151.339Z" fill="#84749B"/>
<path fill-rule="evenodd" clip-rule="evenodd" d="M149.222 169.789C149.384 169.911 149.583 169.973 149.785 169.964C149.987 169.955 150.18 169.875 150.33 169.739L160.632 160.423C162.034 161.461 164.17 160.435 164.918 157.995C165.679 155.516 162.847 153.996 160.389 155.728C157.489 157.768 159.426 159.538 159.426 159.538L149.174 168.273C149.064 168.367 148.976 168.485 148.917 168.619C148.858 168.752 148.83 168.896 148.834 169.042C148.838 169.188 148.875 169.33 148.942 169.46C149.009 169.589 149.104 169.702 149.22 169.789H149.222Z" fill="#BCADA2"/>
<path fill-rule="evenodd" clip-rule="evenodd" d="M160.874 156.418C161.765 155.56 163.077 155.477 163.798 156.233C164.519 156.989 164.38 158.298 163.487 159.154C162.594 160.01 161.284 160.095 160.563 159.341C159.842 158.587 159.981 157.276 160.874 156.418Z" fill="#9E9085"/>
<path fill-rule="evenodd" clip-rule="evenodd" d="M87.4327 103.066C99.1615 104.952 101.579 127.307 107.53 136.268C109.349 139.006 112.202 141.254 114.858 144.713C119.143 150.298 124.119 158.63 124.119 158.63C120.475 158.252 116.122 160.884 115.281 166.79C115.281 166.79 99.779 153.624 93.9549 145.408C87.8989 136.863 79.0541 126.973 78.4159 114.694C78.1259 109.102 79.4229 101.784 87.4182 103.061L87.4327 103.066Z" fill="#CFB4A1"/>
<path fill-rule="evenodd" clip-rule="evenodd" d="M114.767 168.564L126.191 158.385C121.83 152.222 108.22 160.381 114.767 168.564Z" fill="#FFE3D0"/>
<path fill-rule="evenodd" clip-rule="evenodd" d="M267.478 159.8C267.477 156.399 266.525 153.066 264.731 150.179C262.937 147.293 260.371 144.969 257.326 143.47C249.156 139.441 237.079 134.123 225.005 131.102C216.742 129.04 205.492 128.292 196.185 128.065C193.948 128.01 191.723 128.404 189.641 129.224C187.559 130.043 185.661 131.273 184.06 132.839C182.458 134.406 181.186 136.277 180.317 138.344C179.448 140.411 179.001 142.632 179.001 144.875C179.001 168.483 179.001 210.101 179.001 222.51C179.001 223.543 179.339 224.546 179.962 225.368C180.584 226.19 181.459 226.785 182.451 227.062L186.016 228.057C186.532 228.2 187.072 228.239 187.603 228.171C188.135 228.102 188.647 227.928 189.111 227.658C189.574 227.389 189.979 227.029 190.301 226.6C190.624 226.171 190.857 225.682 190.989 225.161L195.016 209.141C195.527 207.111 196.811 205.362 198.592 204.269C200.374 203.176 202.512 202.827 204.547 203.296L243.229 212.207C244.809 212.571 246.257 213.37 247.41 214.514C248.563 215.658 249.375 217.101 249.755 218.682C251.373 225.418 254.106 236.806 255.289 241.706C255.461 242.414 255.825 243.061 256.341 243.574C256.857 244.088 257.505 244.448 258.212 244.614L263.154 245.769C263.672 245.892 264.21 245.895 264.73 245.779C265.249 245.662 265.735 245.43 266.152 245.098C266.568 244.767 266.905 244.345 267.136 243.864C267.366 243.383 267.485 242.857 267.484 242.323V159.8H267.478Z" fill="#84749B"/>
<path fill-rule="evenodd" clip-rule="evenodd" d="M256.99 209.878C258.298 209.359 259.409 208.439 260.167 207.251C260.925 206.063 261.292 204.666 261.214 203.258C261.137 201.849 260.62 200.501 259.736 199.404C258.852 198.306 257.647 197.515 256.29 197.143L187.042 178.121C185.347 177.653 183.549 177.725 181.897 178.329L51.5894 226.314C51.0742 226.503 50.6295 226.847 50.3153 227.298C50.001 227.749 49.8326 228.285 49.8326 228.836C49.8326 229.386 50.001 229.923 50.3153 230.374C50.6295 230.825 51.0742 231.168 51.5894 231.357L127.213 259.072C129.239 259.816 131.468 259.785 133.474 258.987L256.978 209.878H256.99Z" fill="#84749B"/>
<path fill-rule="evenodd" clip-rule="evenodd" d="M259.161 150.045C253.706 161.958 248.162 176.345 250.874 187.186C251.835 191.042 253.265 191.341 255.55 195.668C256.71 192.031 259.719 186.597 261.225 183.412C267.776 169.584 266.612 155.907 259.17 150.043L259.161 150.045Z" fill="#CDB8C4"/>
<path fill-rule="evenodd" clip-rule="evenodd" d="M261.755 157.615C261.279 162.824 260.719 170.223 258.208 175.98C257.67 177.226 257.011 170.579 257.011 170.579C257.011 170.579 255.56 182.54 256.518 186.239C258.351 179.218 263.562 167.498 261.755 157.617V157.615Z" fill="#AD96A4"/>
<path fill-rule="evenodd" clip-rule="evenodd" d="M182.351 177.677C182.351 177.677 180.225 161.889 184.435 153.234C188.645 144.578 184.91 131.568 218.126 137.887C233.524 140.816 246.531 143.024 252.674 145.423C259.261 147.995 261.225 151.595 261.225 151.595C261.225 151.595 258.413 155.554 255.353 163.757C252.268 172.022 251.139 185.171 255.026 193.983L182.351 177.677Z" fill="#F5EAF0"/>
<path fill-rule="evenodd" clip-rule="evenodd" d="M232.378 141.721C232.378 141.721 228.075 139.688 227.959 138.743C227.679 136.468 228.871 127.232 228.871 127.232L215.122 127.937C215.122 127.937 214.397 136.094 213.274 138.25C212.211 140.292 207.825 139.611 207.825 139.611C199.56 151.671 227.831 152.779 232.378 141.721Z" fill="#EAB4A1"/>
<path fill-rule="evenodd" clip-rule="evenodd" d="M212.781 131.449L230.806 130.163C226.759 140.782 211.409 140.805 212.781 131.449Z" fill="#DFA591"/>
<path fill-rule="evenodd" clip-rule="evenodd" d="M228.181 139.008C234.628 140.35 239.99 143.755 243.15 146.786L224.468 190.319L187.009 183.422C187.009 183.422 189.246 176.939 189.909 167.371C190.402 160.309 194.312 148.676 199.313 143.47C202.703 139.939 208.832 138.369 212.957 138.58C209.95 145.967 221.607 150.111 228.175 138.996L228.181 139.008Z" fill="#CBB7C3"/>
<path fill-rule="evenodd" clip-rule="evenodd" d="M233.394 152.415C232.277 164.116 230.3 173.624 225.005 178.107C221.412 181.148 214.413 181.061 207.756 182.936C213.23 178.628 218.356 177.992 221.785 173.537C222.848 172.157 223.368 170.213 224.17 167.928C228.684 155.091 231.523 153.275 233.394 152.409V152.415Z" fill="#B89BAC"/>
<path fill-rule="evenodd" clip-rule="evenodd" d="M64.5427 211.787C64.5427 211.787 108.317 197.018 122.627 189.422C136.938 181.825 157.984 181.412 168.927 177.814C179.871 174.216 184.761 173.387 195.574 177.814C206.387 182.24 211.438 179.708 220.697 181.397C229.956 183.086 259.234 181.397 261.225 195.745C263.216 210.092 263.628 220.221 254.369 222.334C245.11 224.446 215.225 236.679 203.02 245.753C190.815 254.826 163.884 264.959 153.774 263.692C143.663 262.425 137.468 278.885 133.204 265.381C128.94 251.877 131.284 231.131 122.638 222.76C112.457 212.911 64.5531 211.787 64.5531 211.787H64.5427Z" fill="#FFEBB4"/>
<path fill-rule="evenodd" clip-rule="evenodd" d="M141.397 272.078C141.397 272.078 147.593 255.063 147.055 235.618C146.835 227.747 151.008 223.669 152.533 232.884C154.058 242.099 155.386 254.972 155.531 259.608C155.676 264.245 154.93 266.407 158.939 266.407C162.948 266.407 160.804 265.233 160.389 259.608C159.975 253.983 157.851 235.016 161.62 239.666C164.025 242.637 162.449 248.308 164.989 254.791C167.529 261.274 174.519 260.192 170.759 263.973C166.999 267.753 141.397 272.074 141.397 272.074V272.078Z" fill="#E9D293"/>
<path fill-rule="evenodd" clip-rule="evenodd" d="M226.486 191.333C226.486 191.333 198.236 206.227 194.735 206.879C191.233 207.531 167.052 215.363 158.939 217.253C150.826 219.143 139.049 225.624 145.739 224.004C152.429 222.384 163.841 220.178 169.59 218.715C175.34 217.253 193.925 209.783 198.236 209.334C202.548 208.886 204.905 206.719 213.019 205.099C221.132 203.479 226.672 199.928 231.123 197.633C234.28 196.007 245.093 189.821 241.604 186.042C234.749 178.62 225.344 186.189 226.48 191.333H226.486Z" fill="#E9D293"/>
<path fill-rule="evenodd" clip-rule="evenodd" d="M168.927 177.814C168.927 177.814 164.195 184.669 161.021 188.138C157.847 191.607 152.676 193.233 155.206 197.627C156.513 199.899 158.622 196.663 167.125 193.977C172.837 192.172 180.762 186.389 185.397 182.93C189.621 179.777 194.513 184.503 205.046 184.353C212.656 184.245 210.555 189.727 214.071 189.561C217.587 189.395 216.251 193.352 220.26 191.923C224.269 190.493 229.121 182.932 229.121 182.932C229.121 182.932 217.361 179.295 211.096 177.814C204.831 176.333 190.431 169.208 186.491 170.778C182.55 172.349 168.927 177.814 168.927 177.814Z" fill="#E9D293"/>
<path fill-rule="evenodd" clip-rule="evenodd" d="M135.539 207.627C135.58 204.242 134.677 200.912 132.933 198.013C131.19 195.114 128.674 192.76 125.669 191.216C116.803 186.659 103.338 180.352 90.7332 176.9C82.5991 174.671 71.5705 173.647 62.3487 173.184C60.0785 173.069 57.8089 173.418 55.6776 174.21C53.5463 175.003 51.5979 176.221 49.9507 177.791C48.3036 179.362 46.9921 181.251 46.0959 183.346C45.1998 185.44 44.7377 187.695 44.7378 189.974C44.7378 213.842 44.7378 255.499 44.7378 267.473C44.736 268.44 45.0308 269.385 45.5822 270.18C46.1336 270.974 46.915 271.579 47.8207 271.914L50.0376 272.724C50.5339 272.906 51.0609 272.987 51.5887 272.964C52.1165 272.941 52.6345 272.814 53.1132 272.59C53.5919 272.366 54.0217 272.05 54.3782 271.659C54.7346 271.268 55.0106 270.81 55.1904 270.312C56.8914 265.603 59.8231 257.477 61.9529 251.58C62.6515 249.646 64.0658 248.055 65.9023 247.139C67.7389 246.222 69.8569 246.049 71.8171 246.656L109.637 258.376C111.04 258.812 112.31 259.596 113.331 260.655C114.351 261.714 115.088 263.015 115.473 264.436C117.377 271.409 120.9 284.321 122.257 289.296C122.426 289.922 122.746 290.496 123.19 290.967C123.633 291.438 124.186 291.792 124.799 291.997L129.949 293.723C130.477 293.901 131.04 293.951 131.591 293.869C132.142 293.787 132.665 293.575 133.119 293.251C133.572 292.926 133.942 292.499 134.199 292.003C134.455 291.507 134.591 290.958 134.595 290.4C134.767 275.314 135.295 228.979 135.539 207.635V207.627Z" fill="#84749B"/>
<path fill-rule="evenodd" clip-rule="evenodd" d="M119.352 211.077C123.425 190.68 61.493 174.197 57.6641 193.809V220.63C57.6641 228.034 63.225 235.599 70.0746 237.516L106.941 247.834C113.791 249.752 119.352 245.298 119.352 237.897V211.077Z" fill="#A093B4"/>
<path fill-rule="evenodd" clip-rule="evenodd" d="M221.69 103.624C228.659 103.624 234.597 110.139 234.597 119.027C234.597 122.532 233.543 126.325 231.49 128.79C228.344 132.571 222.96 134.858 218.737 134.858C211.769 134.858 209.207 127.22 209.207 118.331C209.207 109.443 214.724 103.631 221.692 103.631L221.69 103.624Z" fill="#EAB4A1"/>
<path fill-rule="evenodd" clip-rule="evenodd" d="M224.621 102.617C224.621 102.617 220.417 97.7104 215.648 99.2579C210.879 100.805 205.568 105.029 206.847 112.903C207.408 116.368 204.582 119.135 205.113 121.765C205.852 125.444 210.193 126.634 210.193 126.634C209.443 124.557 209.157 121.026 210.224 114.378C210.984 109.601 214.475 114.081 218.36 110.658C218.19 107.008 221.627 104.324 224.621 102.621V102.617Z" fill="#DEDEDE"/>
<path fill-rule="evenodd" clip-rule="evenodd" d="M220.26 102.978C216.738 100.822 210.92 102.476 208.865 107.075C209.917 100.932 216.361 99.3078 220.26 102.978Z" fill="white"/>
<path fill-rule="evenodd" clip-rule="evenodd" d="M218.097 104.383C212.389 104.175 208.359 108.41 208.869 112.189C207.131 108.502 211.165 102.667 218.097 104.383Z" fill="white"/>
<path fill-rule="evenodd" clip-rule="evenodd" d="M227.147 119.027C227.801 119.093 228.461 119.022 229.086 118.82L229.121 119.796C228.824 119.965 228.494 120.069 228.154 120.101C227.813 120.133 227.47 120.092 227.147 119.981V119.027Z" fill="#FFEBB4"/>
<path fill-rule="evenodd" clip-rule="evenodd" d="M221.897 104.046C219.808 105.87 213.033 111.458 223.451 115.23C232.774 118.606 227.317 129.148 227.317 129.148C227.317 129.148 234.313 132.264 237.539 129.684C240.765 127.104 244.975 122.75 242.305 119.233C239.634 115.716 239.218 113.747 239.218 110.093C239.218 106.439 235.074 100.475 228.976 100.668C226.076 100.76 225.104 101.24 221.891 104.044L221.897 104.046Z" fill="#DEDEDE"/>
<path fill-rule="evenodd" clip-rule="evenodd" d="M222.597 108.602C229.034 113.774 236.918 113.84 233.92 125.272C234.894 114.119 224.13 114.929 222.597 108.602Z" fill="white"/>
<path fill-rule="evenodd" clip-rule="evenodd" d="M223.444 107.075C224.536 111.215 232.975 110.92 235.43 114.243C233.592 109.628 226.229 110.841 223.444 107.075Z" fill="white"/>
<path fill-rule="evenodd" clip-rule="evenodd" d="M217.79 111.24C216.34 106.493 217.855 100.702 224.627 101.528C222.462 104.597 218.391 106.767 217.79 111.24Z" fill="#BABABA"/>
<path fill-rule="evenodd" clip-rule="evenodd" d="M227.137 118.038C227.178 117.734 227.098 117.424 226.913 117.179C226.727 116.934 226.452 116.772 226.148 116.73L221.383 116.067C221.079 116.025 220.771 116.106 220.526 116.292C220.281 116.477 220.12 116.753 220.078 117.058L219.761 119.358C219.719 119.662 219.8 119.971 219.985 120.216C220.171 120.462 220.445 120.623 220.749 120.666L225.514 121.327C225.665 121.348 225.818 121.339 225.965 121.301C226.113 121.262 226.251 121.195 226.372 121.103C226.493 121.011 226.595 120.896 226.672 120.764C226.749 120.633 226.799 120.487 226.82 120.336L227.137 118.038Z" fill="#CB917C"/>
<path d="M227.137 118.038C227.178 117.734 227.098 117.424 226.913 117.179C226.727 116.934 226.452 116.772 226.148 116.73L221.383 116.067C221.079 116.025 220.771 116.106 220.526 116.292C220.281 116.477 220.12 116.753 220.078 117.058L219.761 119.358C219.719 119.662 219.8 119.971 219.985 120.216C220.171 120.462 220.445 120.623 220.749 120.666L225.514 121.327C225.665 121.348 225.818 121.339 225.965 121.301C226.113 121.262 226.251 121.195 226.372 121.103C226.493 121.011 226.595 120.896 226.672 120.764C226.749 120.633 226.799 120.487 226.82 120.336L227.137 118.038Z" stroke="#FFEBB4" stroke-width="4" stroke-linecap="round" stroke-linejoin="round"/>
<path fill-rule="evenodd" clip-rule="evenodd" d="M216.282 116.36C216.334 116.024 216.251 115.68 216.051 115.405C215.851 115.13 215.55 114.946 215.215 114.894L211.645 114.333C211.31 114.28 210.967 114.363 210.693 114.564C210.419 114.764 210.235 115.066 210.182 115.402L209.787 117.937C209.734 118.273 209.817 118.616 210.017 118.891C210.217 119.167 210.518 119.351 210.854 119.403L214.421 119.964C214.588 119.99 214.757 119.984 214.921 119.944C215.084 119.905 215.238 119.834 215.374 119.734C215.51 119.635 215.626 119.51 215.713 119.366C215.801 119.223 215.86 119.063 215.886 118.896L216.282 116.36Z" fill="#CB917D"/>
<path fill-rule="evenodd" clip-rule="evenodd" d="M212.988 116.51C213.124 116.502 213.259 116.536 213.376 116.606C213.493 116.677 213.586 116.78 213.643 116.905C213.701 117.029 213.72 117.167 213.698 117.302C213.676 117.437 213.614 117.562 213.52 117.661C213.427 117.761 213.306 117.83 213.172 117.859C213.039 117.889 212.9 117.878 212.774 117.827C212.647 117.777 212.538 117.689 212.461 117.576C212.385 117.463 212.344 117.33 212.343 117.193C212.339 117.017 212.404 116.846 212.525 116.718C212.646 116.59 212.812 116.515 212.988 116.51Z" fill="#4B3730"/>
<path fill-rule="evenodd" clip-rule="evenodd" d="M222.605 117.872C222.742 117.864 222.878 117.898 222.996 117.968C223.113 118.039 223.207 118.143 223.265 118.267C223.322 118.392 223.342 118.531 223.32 118.666C223.298 118.802 223.236 118.928 223.142 119.028C223.048 119.127 222.926 119.197 222.792 119.226C222.658 119.256 222.519 119.244 222.392 119.193C222.264 119.143 222.155 119.055 222.079 118.941C222.002 118.827 221.961 118.693 221.961 118.556C221.957 118.38 222.022 118.209 222.143 118.081C222.263 117.953 222.43 117.878 222.605 117.872Z" fill="#4B3730"/>
<path fill-rule="evenodd" clip-rule="evenodd" d="M212.138 116.773C213.005 116.672 213.877 116.918 214.564 117.457C214.098 116.418 212.808 116.111 212.138 116.773Z" fill="#322520"/>
<path fill-rule="evenodd" clip-rule="evenodd" d="M221.75 118.136C222.617 118.035 223.488 118.28 224.176 118.82C223.71 117.781 222.419 117.474 221.75 118.136Z" fill="#322520"/>
<path fill-rule="evenodd" clip-rule="evenodd" d="M219.371 122.874C218.837 124.301 219.785 126.599 220.989 127.305C219.904 126.375 219.168 124.314 219.371 122.874Z" fill="#D79E89"/>
<path fill-rule="evenodd" clip-rule="evenodd" d="M215.851 122.741C215.598 124.172 214.985 125.514 214.071 126.64C214.796 125.405 215.392 124.099 215.851 122.741Z" fill="#D79E89"/>
<path d="M216.282 116.36C216.334 116.024 216.251 115.68 216.051 115.405C215.851 115.13 215.55 114.946 215.215 114.894L211.645 114.333C211.31 114.28 210.967 114.363 210.693 114.564C210.419 114.764 210.235 115.066 210.182 115.402L209.787 117.937C209.734 118.273 209.817 118.616 210.017 118.891C210.217 119.167 210.518 119.351 210.854 119.403L214.421 119.964C214.588 119.99 214.757 119.984 214.921 119.944C215.084 119.905 215.238 119.834 215.374 119.734C215.51 119.635 215.626 119.51 215.713 119.366C215.801 119.223 215.86 119.063 215.886 118.896L216.282 116.36Z" stroke="#FFEBB4" stroke-width="4" stroke-linecap="round" stroke-linejoin="round"/>
<path fill-rule="evenodd" clip-rule="evenodd" d="M216.222 117.866C217.171 118.404 218.294 118.63 219.73 118.354L219.663 119.301C219.017 119.473 218.342 119.501 217.684 119.386C217.026 119.271 216.401 119.013 215.851 118.632L216.222 117.866Z" fill="#FFEBB4"/>
<path fill-rule="evenodd" clip-rule="evenodd" d="M215.341 127.156C216.568 127.01 217.446 127.228 218.812 127.779C217.834 128.969 215.478 128.927 215.341 127.156Z" fill="#E77D66"/>
<path fill-rule="evenodd" clip-rule="evenodd" d="M203.02 189.567C203.02 189.567 199.935 190.911 198.11 191.333C196.284 191.754 194.962 193.809 193.164 195.294C191.714 196.495 192.857 197.195 193.481 197.176C194.105 197.157 196.427 195.4 196.427 195.4C193.804 197.772 192.066 199.879 192.323 201.098C192.58 202.317 195.926 203.015 197.969 202.714C199.251 202.525 200.15 200.147 201.839 198.707C203.826 197.01 206.998 195.51 207.29 194.486L203.02 189.567Z" fill="#EAB4A1"/>
<path fill-rule="evenodd" clip-rule="evenodd" d="M196.606 197.633C195.004 198.499 193.498 200.581 193.023 202.386C193.852 200.651 195.396 198.618 196.606 197.633Z" fill="#D49883"/>
<path fill-rule="evenodd" clip-rule="evenodd" d="M198.396 198.032C196.794 198.898 195.288 200.982 194.815 202.785C195.644 201.05 197.186 199.016 198.396 198.032Z" fill="#D49883"/>
<path fill-rule="evenodd" clip-rule="evenodd" d="M200.186 198.431C198.584 199.297 197.078 201.38 196.606 203.183C197.434 201.449 198.978 199.415 200.186 198.431Z" fill="#D49883"/>
<path fill-rule="evenodd" clip-rule="evenodd" d="M169.59 187.205C169.59 187.205 167.471 189.295 166.582 190.944C164.854 194.162 163.943 197.176 162.575 197.799C161.208 198.422 162.575 193.481 162.575 193.481C162.575 193.481 160.646 194.802 160.05 195.61C159.078 196.925 158.692 198.678 157.826 198.819C156.43 199.048 153.061 197.124 153.739 195.529C154.723 193.227 156.867 188.593 163.731 184.999L169.59 187.195V187.205Z" fill="#EAB4A1"/>
<path fill-rule="evenodd" clip-rule="evenodd" d="M156.587 198.431C156.95 196.85 157.94 195.375 159.426 193.983C157.667 195.022 156.662 196.464 156.587 198.431Z" fill="#D49883"/>
<path fill-rule="evenodd" clip-rule="evenodd" d="M155.206 198.032C155.568 196.451 156.558 194.976 158.044 193.584C156.285 194.623 155.28 196.065 155.206 198.032Z" fill="#D49883"/>
<path fill-rule="evenodd" clip-rule="evenodd" d="M154.315 197.633C154.613 196.052 155.433 194.577 156.662 193.186C155.212 194.224 154.383 195.666 154.315 197.633Z" fill="#D49883"/>
<path fill-rule="evenodd" clip-rule="evenodd" d="M161.823 187.006H161.806C161.511 187.084 161.197 187.041 160.933 186.887C160.669 186.733 160.476 186.481 160.398 186.185C160.248 185.579 161.993 184.355 161.993 184.355C166.207 184.862 168.791 186.754 169.59 190.184C169.59 190.184 168.244 191.734 167.618 191.889C167.472 191.928 167.32 191.938 167.17 191.918C167.02 191.897 166.876 191.848 166.745 191.772C166.614 191.695 166.5 191.594 166.408 191.473C166.317 191.353 166.25 191.215 166.211 191.069C166.154 190.836 166.172 190.592 166.265 190.371H166.253C166.106 190.409 165.953 190.418 165.803 190.397C165.652 190.376 165.508 190.326 165.377 190.248C165.246 190.171 165.132 190.069 165.041 189.947C164.95 189.826 164.884 189.687 164.846 189.54C164.815 189.417 164.806 189.29 164.819 189.164L164.757 189.181C164.462 189.259 164.148 189.216 163.885 189.063C163.621 188.909 163.429 188.657 163.35 188.362C163.32 188.239 163.31 188.112 163.323 187.986L163.261 188.003C162.966 188.081 162.653 188.038 162.389 187.885C162.125 187.732 161.933 187.48 161.854 187.184C161.837 187.116 161.827 187.047 161.823 186.977V187.006Z" fill="white"/>
<path fill-rule="evenodd" clip-rule="evenodd" d="M201.404 190.911H201.385C201.225 190.908 201.067 190.873 200.92 190.809C200.773 190.745 200.64 190.652 200.529 190.536C200.418 190.421 200.33 190.284 200.272 190.134C200.213 189.985 200.185 189.825 200.188 189.664C200.188 188.979 202.222 188.14 202.222 188.14C205.496 190.051 207.037 192.917 208.343 196.339C208.343 196.339 206.625 197.629 205.964 197.629C205.804 197.626 205.645 197.592 205.498 197.527C205.351 197.463 205.218 197.371 205.106 197.255C204.995 197.139 204.908 197.003 204.849 196.853C204.79 196.703 204.762 196.543 204.765 196.382C204.764 196.122 204.843 195.868 204.992 195.655H204.978C204.818 195.652 204.66 195.618 204.513 195.553C204.366 195.489 204.233 195.397 204.122 195.281C204.01 195.165 203.923 195.029 203.865 194.879C203.806 194.729 203.777 194.57 203.78 194.409C203.779 194.268 203.801 194.127 203.847 193.994H203.78C203.62 193.991 203.462 193.956 203.315 193.892C203.168 193.827 203.035 193.735 202.924 193.619C202.813 193.503 202.726 193.367 202.667 193.217C202.608 193.068 202.58 192.908 202.583 192.747C202.582 192.609 202.605 192.472 202.649 192.342H202.583C202.423 192.339 202.264 192.305 202.118 192.24C201.971 192.176 201.838 192.083 201.727 191.968C201.615 191.852 201.528 191.715 201.469 191.566C201.411 191.416 201.382 191.256 201.385 191.096C201.386 191.026 201.392 190.957 201.404 190.888V190.911Z" fill="white"/>
<path fill-rule="evenodd" clip-rule="evenodd" d="M211.104 138.867C211.104 138.867 203.996 137.205 197.223 141.152C191.674 144.37 186.356 155.192 181.814 167.693C180.919 170.157 174.521 173.19 170.419 175.649C162.132 180.61 161.902 184.374 161.902 184.374C165.757 184.964 167.059 185.784 169.232 190.315C176.484 188.894 181.141 177.974 189.122 175.462C192.259 162.646 198.414 154.781 211.113 138.863L211.104 138.867Z" fill="#CBB7C3"/>
<path fill-rule="evenodd" clip-rule="evenodd" d="M203.936 151.538C202.933 172.654 190.197 185.523 177.026 190.319C182.115 182.351 185.442 177.459 187.8 170.221C192.717 155.14 198.385 152.473 203.934 151.538H203.936Z" fill="#B79BAC"/>
<path fill-rule="evenodd" clip-rule="evenodd" d="M237.229 145.172C239.901 144.185 245.607 145.965 246.593 152.234C249.121 168.283 240.378 179.494 234.054 187.224C228.326 194.235 210.01 197.288 207.837 196.542C206.801 192.409 205.256 190.028 201.98 188.144C204.994 181.885 213.613 179.893 222.174 175.971C224.207 175.039 227.884 163.715 231.117 154.212C232.219 150.978 234.817 146.061 237.229 145.172Z" fill="#CBB7C3"/>
<path fill-rule="evenodd" clip-rule="evenodd" d="M209.772 142.278C209.374 142.21 209.012 142.003 208.75 141.694C208.488 141.385 208.344 140.993 208.343 140.587C208.343 138.587 212.799 138.803 212.799 138.803C210.006 146.296 222.815 149.605 228.131 138.568C228.131 138.568 231.465 139.148 231.098 141.044C230.918 141.973 230.325 142.758 229.376 142.758C229.225 142.758 229.075 142.738 228.929 142.7C229.041 143.03 229.05 143.387 228.956 143.723C228.862 144.059 228.668 144.358 228.401 144.582C228.133 144.805 227.804 144.942 227.458 144.974C227.111 145.007 226.763 144.933 226.459 144.762C226.478 144.865 226.488 144.968 226.488 145.072C226.488 146.017 226.159 147.01 225.21 147.01C224.911 147.011 224.618 146.934 224.358 146.786C224.367 146.86 224.372 146.935 224.373 147.01C224.37 147.348 224.269 147.678 224.081 147.959C223.893 148.24 223.627 148.459 223.316 148.59C223.005 148.721 222.663 148.758 222.331 148.695C222 148.633 221.694 148.475 221.451 148.24C221.362 149.104 220.185 149.555 219.294 149.555C218.925 149.558 218.564 149.441 218.266 149.223C217.967 149.004 217.747 148.695 217.637 148.342C217.479 148.704 217.201 149.001 216.851 149.183C216.5 149.365 216.098 149.42 215.712 149.341C215.325 149.261 214.978 149.051 214.727 148.746C214.476 148.44 214.338 148.058 214.334 147.662C214.334 147.522 214.351 147.383 214.384 147.247C214.098 147.592 213.689 147.812 213.244 147.859C212.799 147.906 212.353 147.777 212.002 147.499C211.65 147.221 211.421 146.817 211.363 146.372C211.305 145.927 211.423 145.477 211.691 145.118C211.432 145.294 211.131 145.396 210.819 145.414C210.507 145.432 210.196 145.364 209.919 145.219C209.643 145.073 209.411 144.855 209.248 144.587C209.086 144.319 208.999 144.012 208.997 143.699C208.998 143.417 209.067 143.14 209.2 142.892C209.332 142.644 209.524 142.432 209.758 142.276L209.772 142.278Z" fill="white"/>
<path d="M217.165 120.29C215.81 120.706 215.975 122.681 218.132 122.874" stroke="#D2886F" stroke-width="3" stroke-linecap="round" stroke-linejoin="round"/>
</svg>
