<svg fill="none" version="1.1" viewBox="0 0 447.7 312.64" xmlns="http://www.w3.org/2000/svg">
 <path d="m0.093163 201.44c0.2197 8.76 0.9418 17.017 2.3407 23.966 0.3 1.503 0.6069 3.027 0.9697 4.426 0.2965 1.085 0.607 2.167 0.907 3.14 2.2256 7.088 5.5639 11.815 10.186 12.785l1.1442 0.167 0.8547 0.063c7.3255 0.077 59.005 0.129 123.78 0.129 50.554 0 109.02-0.052 160.41-0.052h9.069c40.465-0.053 75.858-0.077 98.519-0.077h15.697l0.729-0.063 1.86-0.387c0.782-0.217 1.542-0.507 2.271-0.865h0.035l1.046-0.527 1.249-0.698 2.093-1.395 0.474-0.349 1.225-0.97 1.214-1.081 0.15-0.115c0.811-0.773 1.58-1.588 2.305-2.442l0.349-0.44 0.157-0.226 1.047-1.368 0.722-0.994 0.45-0.67 1.081-1.723 1.005-1.859 0.192-0.45 0.349-0.862 0.844-1.999 0.404-1.116c2.149-6.227 3.004-14.044 2.177-23.965-0.53-6.596-1.814-14.107-3.928-22.699-2.588-10.901-12.589-24.826-16.287-28.524-46.336-46.699-150.83-78.377-173.96-82.692-2.616-0.502-6.313-1.046-10.873-1.688-39.069-5.4-141.77-14.634-171.92-4.985-4.729 1.563-9.299 3.574-13.647 6.004l-2.94-5.233-0.318-0.349 5.864-0.781-1.081-1.19c-1.563-1.718-3.74-2.75-6.06-2.871l-13.768-0.785c-3.195-0.129-6.227 0.785-6.227 2.317v3.505c0 1.497 2.916 2.421 6.007 1.999l1.556-0.195 0.67 15.153 0.087 0.06c-18.806 16.744-32.257 41.162-36.244 64.095-2.7489 15.603-4.8279 38.574-4.2175 58.876z" fill="#c7c4be"/>
 <path d="m65.668 145.94h-9.98v32.428h9.98z" clip-rule="evenodd" fill="#ca8484" fill-rule="evenodd"/>
 <path d="m77.493 167.14v-9.98h-32.427v9.98z" clip-rule="evenodd" fill="#ca8484" fill-rule="evenodd"/>
 <path d="m436.31 194.82c0.215 0.436 0.571 0.785 1.012 0.991 0.44 0.206 0.937 0.255 1.409 0.14s0.891-0.388 1.187-0.773 0.452-0.86 0.442-1.346c-0.122-7.985-2.525-20.002-7.21-28.524-1.194-2.185-2.954-4.008-5.094-5.278-2.141-1.271-4.584-1.942-7.074-1.943-2.1 6e-3 -4.189 0.288-6.216 0.837-0.731 0.197-1.391 0.599-1.901 1.158-0.51 0.56-0.849 1.254-0.977 2-0.129 0.746-0.041 1.513 0.253 2.211s0.781 1.297 1.404 1.727c9.234 6.408 16.957 17.187 22.765 28.8z" fill="#fff"/>
 <path d="m382.02 126.69c0.465 0.311 0.817 0.762 1.005 1.288 0.189 0.526 0.203 1.099 0.041 1.634-0.162 0.534-0.491 1.003-0.939 1.336-0.449 0.333-0.992 0.514-1.551 0.515h-76.744c-1.45-1e-3 -2.876-0.369-4.146-1.069s-2.342-1.71-3.117-2.936l-25.765-40.88c-0.317-0.511-0.477-1.105-0.457-1.707 0.019-0.601 0.216-1.184 0.565-1.673 0.35-0.49 0.84-0.863 1.405-1.07s1.179-0.239 1.763-0.092c30.781 7.573 74.871 22.591 107.94 44.651z" fill="#d5d5d5"/>
 <path d="m380.57 131.45v-2.253l-70.252-0.017h-6.478c-1.066 6e-3 -2.115-0.259-3.05-0.771-0.935-0.511-1.725-1.252-2.294-2.153l-0.792-1.301-24.98-39.586 0.031-0.841 0.607-0.327c15.318 3.753 67.845 17.989 107.39 44.382l-0.192 2.864zm-111.68-43.66 25.779 40.877c0.544 0.87 1.211 1.656 1.981 2.333 1.977 1.769 4.54 2.741 7.193 2.728h76.744c1.041-9e-3 2.052-0.352 2.885-0.977 0.832-0.624 1.444-1.499 1.744-2.496 0.301-0.996 0.275-2.063-0.073-3.044s-1.001-1.825-1.863-2.409c-40.158-26.808-93.3-41.212-108.62-45-1.026-0.245-2.101-0.18-3.09 0.187-0.989 0.366-1.848 1.017-2.467 1.871-0.63 0.852-0.987 1.875-1.023 2.934-0.036 1.058 0.25 2.103 0.821 2.996z" fill="#fff"/>
 <path d="m24.874 131.83c-0.9431 2e-3 -1.8725-0.225-2.7085-0.662-0.8359-0.437-1.5535-1.07-2.091-1.845-0.5376-0.774-0.8791-1.668-0.9952-2.604s-0.0034-1.886 0.3285-2.769c9.2372-24.485 29.228-46.106 50.2-54.216 7.856-3.039 43.706-2.282 64.015-2.034 1.464 0.025 2.86 0.624 3.886 1.668 1.027 1.044 1.602 2.449 1.602 3.913l-0.349 52.465c-0.011 1.515-0.619 2.965-1.692 4.035-1.073 1.069-2.525 1.673-4.04 1.679l-108.16 0.349z" fill="#dae3e2"/>
 <path d="m21.529 124.75c8.2325-21.809 25.384-41.431 43.804-50.616 1.664-0.847 3.371-1.608 5.114-2.281 3.67-1.416 15.547-2.139 35.288-2.139 7.898 0 15.883 0.105 22.751 0.196l5.114 0.052c0.865 0.016 1.689 0.372 2.293 0.992 0.603 0.62 0.938 1.453 0.93 2.319l-0.349 52.472c-9e-3 0.919-0.38 1.797-1.033 2.444-0.654 0.646-1.536 1.009-2.455 1.009l-63.188 0.22-44.962 0.139c-0.5749 0-1.1411-0.14-1.6503-0.407-0.5093-0.266-0.9465-0.652-1.2744-1.124s-0.5368-1.017-0.6088-1.587c-0.0721-0.571-0.0051-1.15 0.1952-1.689zm-3.3105 5.864c0.7433 1.076 1.7367 1.956 2.8948 2.563 1.158 0.608 2.4462 0.925 3.754 0.926h0.0244l108.14-0.349c2.116-0.017 4.141-0.863 5.641-2.356 1.5-1.492 2.355-3.513 2.383-5.629l0.324-52.476c4e-3 -2.064-0.805-4.047-2.251-5.519-1.447-1.473-3.415-2.317-5.479-2.35l-5.114-0.053c-6.869-0.115-14.881-0.219-22.803-0.219-20.857 0-32.62 0.774-36.925 2.473-21.401 8.26-42.108 30.561-51.53 55.531-0.4547 1.227-0.6066 2.546-0.4426 3.845 0.1639 1.298 0.6389 2.538 1.3845 3.613z" fill="#fff"/>
 <path d="m5.6223 160.58c-0.8826 9.767-2.8814 26.375 0.5616 26.375s12.855-17.529 12.855-27.185c0-9.655-5.0093-9.23-8.4697-9.167-3.4605 0.063-4.1477 0.872-4.9465 9.977z" fill="#f7f7f7"/>
 <path d="m175.48 235.76h95.969c1.783-1e-3 3.549-0.352 5.197-1.036 1.647-0.683 3.144-1.684 4.404-2.946 1.261-1.261 2.26-2.759 2.942-4.407 0.681-1.649 1.031-3.415 1.03-5.198v-92.85h-133.54v82.437c0 3.152 0.62 6.273 1.826 9.185 1.205 2.913 2.973 5.559 5.202 7.787 2.229 2.229 4.875 3.997 7.787 5.203s6.033 1.826 9.185 1.825z" fill="#c7c4be"/>
 <path d="m245.72 75.648c1.247 0.19 2.44 0.645 3.496 1.335 1.057 0.689 1.954 1.597 2.63 2.663l29.759 47.358c0.272 0.438 0.422 0.94 0.435 1.456 0.014 0.515-0.11 1.025-0.359 1.476-0.248 0.452-0.613 0.829-1.055 1.094-0.443 0.264-0.948 0.406-1.463 0.411h-120.7c-1.269 0-2.485-0.504-3.382-1.401s-1.401-2.113-1.401-3.382v-53.466c1e-3 -0.743 0.153-1.479 0.447-2.162s0.725-1.298 1.264-1.81c0.54-0.511 1.178-0.907 1.876-1.164s1.44-0.369 2.183-0.33c33.858 1.744 70.493 5.536 86.264 7.922z" fill="#dae3e2"/>
 <path d="m279.71 128.86-0.565 0.307h-120.7c-0.663-3e-3 -1.299-0.268-1.768-0.738-0.468-0.47-0.732-1.107-0.733-1.77v-53.47c-2e-3 -0.423 0.08-0.842 0.241-1.233 0.161-0.392 0.399-0.747 0.699-1.045s0.656-0.534 1.048-0.693c0.392-0.16 0.812-0.239 1.235-0.235 3.346 0.168 6.681 0.349 9.991 0.555 32.138 2.009 63.139 5.372 76.221 7.343 0.922 0.152 1.801 0.495 2.582 1.007 0.781 0.513 1.446 1.183 1.953 1.969l29.755 47.358 0.028 0.645zm-128.29-55.671v53.47c0.012 1.864 0.757 3.648 2.073 4.967 1.317 1.32 3.099 2.069 4.963 2.086h120.7c0.925-3e-3 1.833-0.253 2.63-0.723s1.455-1.144 1.905-1.952l0.572-1.717c0.177-1.228-0.089-2.479-0.75-3.53l-29.759-47.354c-0.841-1.348-1.966-2.497-3.296-3.365s-2.834-1.435-4.407-1.662c-1.357-0.192-2.912-0.412-4.639-0.67-16.674-2.253-49.639-5.616-81.837-7.28h-0.059c-2.362 0-4.218 0.75-5.672 2.093-0.761 0.728-1.367 1.601-1.783 2.567-0.416 0.967-0.633 2.007-0.638 3.06z" fill="#fff"/>
 <path d="m433.86 219.16 4.35-0.035c1.936 0 4.074-1.824 4.681-4.078l1.259-4.569c0.67-2.334-0.554-4.05-2.64-3.796l-4.64 0.565c-1.842 0.248-3.69 2.139-4.186 4.225l-1.004 4.067c-0.485 2.01 0.467 3.621 2.183 3.621z" fill="#fff"/>
 <path d="m0.093163 201.44c0.2198 8.759 0.9419 17.016 2.3407 23.965 0.3 1.504 0.607 3.028 0.9698 4.427 0.2965 1.085 0.6069 2.166 0.9069 3.139 2.3652 7.089 5.7663 11.816 10.493 12.785l0.8372 0.168 0.8547 0.063c7.3256 0.076 59.005 0.129 123.78 0.129 50.554 0 109.02-0.053 160.41-0.053h9.069c40.465-0.052 75.858-0.076 98.519-0.076h15.697l0.73-0.063 1.859-0.387c0.772-0.247 1.53-0.536 2.271-0.866h0.035l1.046-0.526 0.952-0.527 0.297-0.168 2.093-1.395 0.474-0.349 1.225-0.969 1.214-1.082 0.15-0.115c0.811-0.773 1.58-1.588 2.306-2.442l0.348-0.439 0.157-0.227 1.047-1.368 0.722-0.994 0.45-0.669 1.081-1.724 1.005-1.859 0.192-0.45 0.349-0.862 0.369-0.889 0.475-1.109 0.405-1.117c2.148-6.226 3.003-14.044 2.176-23.965h-9.792c-3.618 2e-3 -7.123 1.262-9.913 3.566-2.791 2.303-4.693 5.506-5.38 9.059l-0.219 1.224c-0.556 2.846-2.083 5.411-4.32 7.256-2.237 1.846-5.045 2.857-7.945 2.86h-374.42c-2.946 0-5.808-0.982-8.1335-2.79-2.3259-1.808-3.9833-4.339-4.7104-7.193l-0.0279-0.109c-0.9942-3.965-3.285-7.483-6.5084-9.997-3.2235-2.514-7.1946-3.878-11.282-3.876z" fill="#464646"/>
 <path d="m156.19 145.69c0 1.964 5.407 3.558 12.062 3.558 6.656 0 12.06-1.583 12.06-3.558 0-1.974-5.397-3.565-12.046-3.565s-12.062 1.594-12.062 3.565z" fill="#fff"/>
 <path d="m69.829 127.53-23.937-36.795c7.702-7.675 16.395-13.71 25.214-17.093 0.941-0.327 1.912-0.56 2.899-0.698l35.093 54.446-39.269 0.15z" fill="#c9dbd8"/>
 <path d="m113.91 127.36-35.264-54.973c3.004-0.255 7.036-0.475 12.433-0.607l35.508 55.556z" fill="#c9dbd8"/>
 <path d="m140.27 246.12c50.554 0 109.02-0.053 160.41-0.053h9.069c-53.504 0-115.91 0.053-169.46 0.053zm-119.96-0.105c-1.7442 0-3.0384-0.017-3.8198-0.024l-0.8546-0.063-1.1442-0.168c-4.6221-0.969-7.9605-5.696-10.186-12.785-0.3-0.976-0.6105-2.058-0.907-3.139-0.3489-1.395-0.6698-2.923-0.9698-4.427-1.3953-6.949-2.1209-15.206-2.3407-23.965-0.0174-0.46-0.0279-0.917-0.0349-1.374 0 0.457 0 0.914 0.0349 1.374 0.2198 8.759 0.9419 17.016 2.3407 23.965 0.3 1.504 0.607 3.028 0.9698 4.427 0.2965 1.085 0.607 2.166 0.907 3.139 2.2255 7.089 5.5639 11.816 10.186 12.785l1.1442 0.168 0.8546 0.063c0.7814 0 2.0686 0 3.8198 0.024z" fill="#bababa"/>
 <path d="m15.641 245.93-1.1442-0.167c-4.6221-0.97-7.9605-5.696-10.186-12.785 2.3651 7.089 5.7662 11.815 10.493 12.785zm288.53-20.522h-19.535c0.259-1.058 0.389-2.144 0.387-3.233v-10.204l23.473 1.277c-1.985 3.839-3.439 7.93-4.322 12.16zm-148.44 0h-31.343c-1.744-8.611-5.927-16.539-12.053-22.838l39.143 2.128v7.064c-4e-3 4.876 1.479 9.637 4.253 13.646zm-130.6-4.883c-1.225-1.494-2.1031-3.24-2.5709-5.114l-0.0279-0.108c-0.9942-3.965-3.285-7.484-6.5084-9.998-3.2235-2.514-7.1946-3.878-11.282-3.876h-4.6395c-0.0175-0.46-0.0279-0.917-0.0349-1.374-0.0279-1.196-0.0453-2.403-0.0628-3.61l40.357 2.194c-1.476 1.117-2.875 2.334-4.186 3.642l-0.017 0.021c-5.078 5.106-8.8576 11.355-11.024 18.223z" fill="#e7e7e7"/>
 <path d="m284.64 225.41h-128.9c-2.774-4.01-4.257-8.771-4.252-13.647v-7.064l133.54 7.273v10.204c2e-3 1.09-0.128 2.175-0.387 3.234z" fill="#e7e7e7"/>
 <path d="m397.47 246h26.473l0.729-0.062 1.859-0.388c0.783-0.217 1.543-0.507 2.271-0.865h0.035l1.047-0.527 1.249-0.697 2.093-1.396 0.474-0.348 1.224-0.97 1.214-1.082 0.15-0.115c0.811-0.773 1.581-1.588 2.306-2.442l0.349-0.439 0.157-0.227 1.046-1.367 0.723-0.994 0.45-0.67 1.081-1.723 1.005-1.86 0.191-0.45 0.349-0.861 0.844-1.999 0.405-1.116-0.405 1.116c-0.369 0.994-0.784 1.946-1.207 2.86l-0.191 0.45-1.005 1.86-1.081 1.723-0.143 0.213-0.307 0.457c-0.547 0.823-1.141 1.613-1.779 2.368l-0.147 0.209-0.349 0.44c-0.725 0.854-1.495 1.669-2.306 2.442l-0.15 0.115-1.214 1.081-1.224 0.97c-0.808 0.647-1.665 1.23-2.564 1.744l-1.249 0.698-1.046 0.527h-0.035c-0.729 0.358-1.489 0.648-2.271 0.865l-1.859 0.387-0.729 0.063z" fill="#c0c0c0"/>
 <path d="m426.53 245.54c0.773-0.246 1.531-0.535 2.271-0.865-0.728 0.358-1.488 0.648-2.271 0.865zm3.363-1.395 0.952-0.527 0.297-0.167-1.249 0.697zm14.097-15.628 0.369-0.89 0.475-1.109zm-34.148-3.112h-5.114c-0.502-2.39-1.186-4.739-2.044-7.025l17.857 0.966c-1.109 1.847-2.677 3.376-4.552 4.438s-3.992 1.62-6.147 1.621z" fill="#e7e7e7"/>
 <path d="m140.27 246.12h-23.19l0.052-0.129h10.786l-3.171-18.694-0.349-1.891h179.78l-0.348 1.891-3.161 18.694 0.028 0.076c-51.39 0-109.85 0.053-160.4 0.053zm-119.96-0.105c-1.7441 0-3.0383-0.017-3.8197-0.024l-0.8547-0.063-0.8372-0.168c-4.7267-0.969-8.1278-5.696-10.493-12.784-0.3-0.977-0.6104-2.059-0.9069-3.14-0.3489-1.395-0.6698-2.923-0.9698-4.427-1.3953-6.949-2.1209-15.205-2.3407-23.965h4.6395c4.0877-2e-3 8.0588 1.362 11.282 3.876 3.2234 2.514 5.5143 6.033 6.5084 9.997l0.0279 0.109c0.4679 1.874 1.346 3.62 2.5709 5.114-0.5173 1.603-0.9493 3.234-1.2942 4.883l-0.3488 1.891-3.1709 18.694v0.025zm403.63-0.024h-15.698l-3.16-18.694-0.349-1.891h5.107c2.155-1e-3 4.272-0.56 6.147-1.621 1.875-1.062 3.443-2.591 4.552-4.438l25.981 1.419c-0.336 1.571-0.765 3.121-1.287 4.64l-0.405 1.116-0.474 1.109-0.37 0.89-0.349 0.862-0.192 0.45-1.004 1.859-1.082 1.723-0.45 0.67-0.722 0.994-1.046 1.367-0.157 0.227-0.349 0.44c-0.725 0.854-1.495 1.669-2.306 2.442l-0.15 0.115-1.214 1.081-1.224 0.97-0.475 0.349-2.093 1.395-0.296 0.168-0.953 0.526-1.046 0.527h-0.035c-0.74 0.33-1.499 0.619-2.271 0.865l-1.859 0.387-0.729 0.063z" fill="#565656"/>
 <path d="m300.66 246 0.028 0.077h9.07c40.465-0.052 75.858-0.077 98.518-0.077l-3.16-18.694-0.349-1.89c-4.235-20.191-20.561-34.619-39.461-34.619h-21.627c-18.911 0-35.233 14.428-39.461 34.619l-0.349 1.89-3.16 18.694z" fill="#2d2d2d"/>
 <path d="m324.92 228.85c-2e-3 5.842 1.73 11.554 4.975 16.412 3.244 4.858 7.857 8.645 13.255 10.881 5.397 2.237 11.336 2.822 17.066 1.683 5.73-1.14 10.994-3.953 15.125-8.084s6.944-9.394 8.083-15.124c1.14-5.731 0.554-11.67-1.682-17.067s-6.023-10.01-10.881-13.255c-4.859-3.245-10.57-4.976-16.412-4.975-3.878-1e-3 -7.719 0.762-11.302 2.246s-6.838 3.659-9.581 6.401c-2.742 2.742-4.917 5.998-6.4 9.581-1.484 3.583-2.247 7.423-2.246 11.301z" fill="#dad1d1"/>
 <path d="m325.94 228.88c-6e-3 -5.639 1.661-11.153 4.789-15.845 3.129-4.691 7.578-8.35 12.786-10.513 5.207-2.163 10.94-2.733 16.471-1.638 5.532 1.095 10.614 3.806 14.606 7.79 3.991 3.983 6.711 9.061 7.816 14.591 1.105 5.529 0.545 11.263-1.608 16.474-2.153 5.212-5.804 9.668-10.49 12.805s-10.196 4.814-15.835 4.818c-7.561 7e-3 -14.815-2.99-20.166-8.332-5.351-5.341-8.362-12.589-8.369-20.15zm-17.791 0.017c8e-3 9.158 2.732 18.107 7.826 25.717 5.095 7.609 12.331 13.537 20.794 17.034 8.464 3.497 17.774 4.405 26.754 2.611s17.226-6.211 23.695-12.692c6.47-6.481 10.872-14.735 12.651-23.717 1.779-8.983 0.854-18.292-2.657-26.749-3.512-8.458-9.452-15.684-17.071-20.765-7.618-5.081-16.572-7.789-25.729-7.781-6.082 4e-3 -12.103 1.207-17.72 3.539s-10.72 5.748-15.016 10.053c-4.296 4.304-7.703 9.413-10.024 15.034-2.322 5.622-3.513 11.645-3.506 17.727z" fill="#1d1715"/>
 <path d="m332.91 228.85c-1e-3 4.26 1.261 8.425 3.627 11.968 2.365 3.542 5.729 6.304 9.664 7.935 3.936 1.631 8.267 2.058 12.445 1.228 4.178-0.831 8.016-2.882 11.029-5.894s5.064-6.85 5.895-11.028c0.832-4.178 0.405-8.509-1.225-12.445-1.631-3.935-4.392-7.299-7.934-9.666-3.543-2.366-7.707-3.629-11.967-3.628-5.711 1e-3 -11.188 2.27-15.226 6.308s-6.307 9.515-6.308 15.226z" fill="#fff"/>
 <path d="m341.47 228.85c-2e-3 2.569 0.758 5.081 2.184 7.219 1.426 2.137 3.454 3.803 5.827 4.787 2.373 0.985 4.985 1.243 7.505 0.743s4.835-1.737 6.652-3.553 3.055-4.13 3.556-6.65c0.502-2.52 0.245-5.132-0.738-7.505-0.984-2.374-2.649-4.403-4.785-5.83s-4.648-2.188-7.217-2.188c-3.442 1e-3 -6.743 1.369-9.178 3.802-2.434 2.433-3.803 5.733-3.806 9.175z" fill="#dad1d1"/>
 <path d="m372.82 217.61c-2.172-3.542-5.322-6.381-9.069-8.176l1.936-4.009c4.526 2.178 8.329 5.614 10.953 9.897l-3.837 2.288z" fill="#ede8e8"/>
 <path d="m365.48 222.03c-1.314-2.118-3.209-3.813-5.459-4.884l3.726-7.702c3.747 1.795 6.897 4.635 9.069 8.177l-7.325 4.419z" fill="#fff"/>
 <path d="m354.45 228.66 5.582-11.532c2.25 1.071 4.145 2.766 5.459 4.884l-11.03 6.627z" fill="#ede8e8"/>
 <path d="m343.07 252.22c-4.562-2.233-8.374-5.749-10.967-10.117l3.809-2.298c2.15 3.624 5.312 6.541 9.098 8.393l-1.94 4.004z" fill="#ede8e8"/>
 <path d="m345.01 248.21c-3.786-1.851-6.948-4.769-9.098-8.393l7.326-4.409c1.29 2.198 3.197 3.97 5.483 5.096l-3.722 7.706z" fill="#fff"/>
 <path d="m348.73 240.51c-2.287-1.126-4.193-2.898-5.484-5.096l11.208-6.747z" fill="#ede8e8"/>
 <path d="m20.305 246 0.0279 0.077h9.07c40.465-0.052 75.858-0.077 98.518-0.077l-3.171-18.694-0.349-1.89c-4.217-20.191-20.55-34.619-39.453-34.619h-21.628c-18.921 0-35.232 14.428-39.467 34.619l-0.3488 1.89-3.171 18.694z" fill="#2d2d2d"/>
 <path d="m44.581 228.85c-2e-3 5.842 1.729 11.554 4.974 16.412s7.858 8.645 13.255 10.881c5.398 2.237 11.337 2.822 17.067 1.683 5.73-1.14 10.994-3.953 15.125-8.084s6.944-9.394 8.083-15.124c1.14-5.731 0.554-11.67-1.682-17.067-2.236-5.397-6.023-10.01-10.882-13.255-4.858-3.245-10.569-4.976-16.411-4.975-7.832 0-15.343 3.111-20.881 8.649-5.537 5.538-8.648 13.048-8.648 20.88z" fill="#dad1d1"/>
 <path d="m45.603 228.88c-5e-3 -5.637 1.663-11.149 4.791-15.838s7.576-8.346 12.782-10.508c5.207-2.161 10.937-2.73 16.466-1.635 5.53 1.094 10.611 3.804 14.6 7.787 3.99 3.982 6.709 9.058 7.814 14.585 1.105 5.528 0.547 11.259-1.605 16.469-2.152 5.21-5.801 9.665-10.484 12.802-4.684 3.137-10.193 4.814-15.83 4.82-7.56 7e-3 -14.814-2.99-20.165-8.332-5.352-5.341-8.362-12.589-8.369-20.15zm-17.791 0.017c0.0083 9.158 2.7321 18.108 7.8271 25.718 5.095 7.609 12.332 13.537 20.796 17.034 8.464 3.496 17.774 4.404 26.754 2.609 8.981-1.795 17.227-6.213 23.696-12.695s10.871-14.736 12.648-23.72c1.778-8.983 0.852-18.292-2.662-26.75-3.513-8.457-9.455-15.682-17.074-20.762-7.62-5.08-16.575-7.786-25.733-7.776-6.081 5e-3 -12.101 1.208-17.717 3.541s-10.717 5.749-15.013 10.053c-4.295 4.305-7.701 9.413-10.021 15.034-2.3212 5.621-3.5119 11.644-3.5046 17.725z" fill="#1d1715"/>
 <path d="m52.576 228.85c0 4.258 1.262 8.421 3.628 11.961 2.366 3.541 5.728 6.3 9.662 7.93s8.263 2.056 12.439 1.226c4.176-0.831 8.013-2.881 11.024-5.892 3.011-3.01 5.062-6.846 5.893-11.023 0.831-4.176 0.405-8.505-1.224-12.439s-4.388-7.297-7.928-9.663-7.703-3.629-11.961-3.63c-5.71 1e-3 -11.187 2.27-15.225 6.308s-6.307 9.515-6.308 15.226z" fill="#fff"/>
 <path d="m61.133 228.85c0 2.567 0.761 5.075 2.187 7.21 1.426 2.134 3.452 3.797 5.823 4.779 2.372 0.982 4.981 1.239 7.498 0.738 2.517-0.5 4.829-1.736 6.644-3.551s3.051-4.127 3.552-6.644c0.5-2.518 0.243-5.127-0.739-7.498s-2.645-4.398-4.779-5.824-4.643-2.187-7.21-2.187c-3.441 1e-3 -6.741 1.369-9.175 3.802-2.433 2.434-3.8 5.734-3.801 9.175z" fill="#dad1d1"/>
 <path d="m92.483 217.62c-2.174-3.544-5.323-6.387-9.07-8.187l1.947-4.009c4.519 2.184 8.317 5.619 10.943 9.897l-3.838 2.299z" fill="#ede8e8"/>
 <path d="m85.15 222.03c-1.311-2.116-3.202-3.812-5.449-4.884l3.715-7.702c3.748 1.801 6.897 4.643 9.07 8.187l-7.325 4.409z" fill="#fff"/>
 <path d="m74.116 228.66 5.582-11.532c2.247 1.072 4.138 2.767 5.449 4.884l-11.034 6.627z" fill="#ede8e8"/>
 <path d="m62.727 252.22c-4.559-2.239-8.371-5.753-10.971-10.117l3.82-2.298c2.15 3.62 5.307 6.536 9.087 8.393l-1.936 4.004z" fill="#ede8e8"/>
 <path d="m64.663 248.21c-3.78-1.856-6.937-4.772-9.087-8.393l7.325-4.409c1.291 2.198 3.197 3.97 5.484 5.096l-3.733 7.706z" fill="#fff"/>
 <path d="m68.396 240.51c-2.287-1.126-4.193-2.898-5.484-5.096l11.205-6.747z" fill="#ede8e8"/>
 <path d="m74.11 275.16c-7.099 9e-3 -14.104-1.621-20.47-4.762 12.722-0.422 27.188-0.802 43.053-1.109-5.835 3.261-12.308 5.217-18.973 5.731-1.137 0.07-2.264 0.115-3.398 0.133-0.059 3e-3 -0.118 3e-3 -0.178 0z" fill="#1d1816"/>
 <g clip-rule="evenodd" fill-rule="evenodd">
  <path d="m237.26 85.604c12.524 5.061 28.727 12.349 43.605 21.188l-4.427 15.321c-15.314-4.186-31.165-9.701-48.366-18.603l9.181-17.906z" fill="#fdf6e6"/>
  <path d="m293.88 59.148 22.796-0.234s-0.722 10.465 1.047 14.515c1.884 4.277 5.581 2.868 7.172 4.919 1.312 1.681-0.551 5.958-0.551 5.958-11.955 9.286-24.768 9.021-38.623-2.48-0.471-3.272-0.562-4.409 4.364-6.628 4.126-1.852 4.482-11.107 3.784-16.046z" fill="#f2bfac"/>
  <path d="m288.07 59.106c8.292 13.057 23.173 16.716 34.723 1.594z" fill="#deaa96"/>
  <path d="m314.04 286.61c-0.348 7.496 1.609 13.256 5.627 17.483 0.584 0.615 1.347 1.029 2.18 1.183 5.261 0.952 9.395 0.781 12.485-0.433 1.168-0.463 2.159-1.284 2.833-2.345 0.673-1.06 0.994-2.306 0.917-3.56-0.048-1.094-0.33-2.164-0.826-3.14-3.241-6.003-6.419-8.142-5.725-12.732-6.781-1.989-12.6-0.764-17.491 3.544z" fill="#8e8181"/>
  <path d="m314.39 300.54c10.284 3.666 19.535 3.778 27.282-1.046l-0.826 6.976-25.158 1.535-1.298-7.441z" fill="#655f5f"/>
  <path d="m290.64 274.5c1.884 3.031 3.569 6.355 4.029 11.511l15.569-7.793-2.854-9.568-16.744 5.846z" fill="#f2bfac"/>
  <path d="m310.24 275.65c2.358 7.726 5.954 20.93-0.523 24.087-5.366 2.619-9.768 3.642-13.329 3.198-1.246-0.161-2.409-0.711-3.324-1.573-0.915-0.861-1.534-1.989-1.769-3.223-0.222-1.072-0.212-2.179 0.027-3.248 1.657-6.628 4.207-9.474 2.404-13.747 7.503 2.264 14.543-1.514 16.514-5.494z" fill="#8e8181"/>
  <path d="m314.65 293.83c-9.07 6.091-17.983 8.481-26.7 5.707l2.522 6.548 24.768-4.723-0.58-7.532z" fill="#655f5f"/>
  <path d="m302.15 162.83 36.279-0.474c0.917 12.01-0.436 24.886 0.031 36.648 1.273 32.037 1.197 61.395-5.553 89.023-6.109-3.01-13.574-1.953-22.204 2.596-0.094-45.433-8.623-83.306-8.56-127.79z" fill="#d2aeae"/>
  <path d="m324.35 177.04c-1.552 8.609 1.315 14.124 9.213 16.123-5.459-4.661-8.48-10.047-9.213-16.123z" fill="#cb9a9a"/>
  <path d="m271.19 159.4 34.305 2.951c0.75 18.959-0.457 40.852-4.629 67.196-0.088 0.55-0.046 1.112 0.122 1.643 4.454 14.236 8.511 28.605 9.251 44.076-4.884-0.37-11.983 2.79-20.644 8.72-7.675-13.73-12.342-30.453-16.249-47.947-0.028-0.136-0.056-0.276-0.077-0.415-3.335-22.172-4.381-47.142-2.093-76.207z" fill="#d2aeae"/>
  <path d="m304.98 195.74c0.698-6.153-6.774 9.981-11.347 25.842-2.045 7.089 0.083 15.565 1.674 21.628 3.122 11.86 7.155 21.077 14.337 40.765l8.327-13.388c-9.966-22.434-15.541-52.022-12.991-74.84z" fill="#cb9a9a"/>
  <path d="m289.29 75.945c8.372 15.976 27.596 10.363 30.952 1.241 10.374 28.469 14.225 57.75 17.02 87.164-19.054 0.722-38.247 11.264-63.959 0.349 1.834-29.731 2.518-59.512 15.987-88.761z" fill="#fdf6e6"/>
  <path d="m279.66 135.16c7.326 2.564 17.791 3.338 31.713 2.124-10.573 5.195-21.143 4.964-31.713-2.124z" fill="#e5d8ba"/>
  <path d="m302.51 148.09c9.094-1.524 18.259-2.588 27.46-3.188-10.116-2.983-19.245-1.86-27.46 3.188z" fill="#e5d8ba"/>
  <path d="m319.93 75.945c9.303 0.164 17.93 2.574 22.451 8.211 6.394 7.964 14.567 17.899 20.005 29.114 0.131 0.271 0.221 0.56 0.265 0.858 0.698 4.86 7.023 47.637 7.023 47.637-3.949 2.313-10.936 2.637-20.079 1.643-4.319-11.63-6.569-25.65-7.78-37.876-0.041-0.428-0.172-0.843-0.383-1.217-0.212-0.374-0.499-0.7-0.844-0.957-1.497-1.086-2.843-2.367-4.002-3.809-0.123-0.156-0.293-0.268-0.486-0.319-0.192-0.051-0.395-0.039-0.58 0.035s-0.34 0.206-0.443 0.377c-0.104 0.17-0.149 0.368-0.13 0.566 1.573 14.791 4.762 32.927 8.668 50.167-7.977 4.855-17.239 5.539-27.108 4.252-3.565-33.6-4.367-67.444 3.409-98.682z" fill="#d6d6d6"/>
  <path d="m335.54 121.14c0.76-3.838 1.8-8.177 4.134-15.471-1.745 1.807-3.443 6.457-4.134 5.905-0.691-0.551-0.858-6.749 0.118-11.574-3.139 6.722-2.633 15.045-0.118 21.14z" fill="#b3b3b3"/>
  <path d="m340.26 125.04c2.381-2.427 5.133-4.461 8.152-6.025-3.327 0.021-6.083 1.909-8.152 6.025z" fill="#b3b3b3"/>
  <path d="m289.29 75.258c10.971 33.087 12.094 64.217 9.345 97.775-6.833 2.738-18.265 2.634-30.296-1.242 2.993-15.401 5.463-35.606 5.135-52.207-4e-3 -0.303-0.108-0.597-0.294-0.836-0.186-0.24-0.446-0.412-0.739-0.491s-0.603-0.06-0.885 0.053c-0.281 0.114-0.518 0.316-0.674 0.577l-8.634 14.211c-0.301 0.491-0.424 1.072-0.348 1.643 1.444 10.894 0.788 21.366-2.254 31.364-5.281 1.81-10.953 1.441-17.18-1.946 0 0 0.907-29.543 1.046-34.131 0.011-0.397 0.07-0.792 0.175-1.175 9.059-33.621 21.394-53.205 45.603-53.595z" fill="#d6d6d6"/>
  <path d="m271.36 118.13c-1.347-6.732-0.349-13.203 2.414-22.148-0.757 1.818-1.793 11.993-0.349 9.098 0.813-1.636 3.415-11.142 5.55-13.584-2.041 5.725-4.535 11.491-3.307 16.891l3.663-3.544c-3.52 6.401-5.616 11.198-6.628 14.763z" fill="#b2b2b2"/>
  <g fill="#b3b3b3">
   <path d="m320.01 106.4c0.438 0 0.866 0.13 1.23 0.373 0.365 0.244 0.649 0.59 0.816 0.994 0.168 0.405 0.212 0.851 0.126 1.28-0.085 0.43-0.296 0.825-0.606 1.134-0.31 0.31-0.704 0.521-1.134 0.607-0.43 0.085-0.875 0.041-1.28-0.126-0.405-0.168-0.751-0.452-0.994-0.816-0.243-0.365-0.373-0.793-0.373-1.231 1e-3 -0.587 0.234-1.15 0.649-1.565 0.416-0.415 0.979-0.649 1.566-0.65z"/>
   <path d="m320.07 121.14c0.438 0 0.866 0.129 1.231 0.373 0.364 0.243 0.648 0.589 0.816 0.994 0.167 0.405 0.211 0.85 0.126 1.28-0.086 0.429-0.297 0.824-0.607 1.134-0.309 0.31-0.704 0.521-1.134 0.606-0.43 0.086-0.875 0.042-1.28-0.126-0.404-0.168-0.75-0.451-0.994-0.816-0.243-0.364-0.373-0.792-0.373-1.23 0-0.588 0.233-1.151 0.649-1.567 0.415-0.415 0.979-0.648 1.566-0.648z"/>
   <path d="m320.12 135.88c0.438-1e-3 0.867 0.128 1.231 0.371 0.365 0.243 0.65 0.589 0.818 0.994 0.168 0.404 0.212 0.85 0.127 1.28s-0.296 0.825-0.605 1.135c-0.31 0.31-0.705 0.521-1.134 0.607-0.43 0.086-0.876 0.042-1.281-0.125-0.405-0.168-0.751-0.452-0.994-0.816-0.244-0.364-0.374-0.793-0.374-1.231 0-0.587 0.233-1.15 0.648-1.565 0.414-0.415 0.977-0.649 1.564-0.65z"/>
   <path d="m320.2 150.61c0.438 0 0.866 0.13 1.231 0.373 0.364 0.244 0.648 0.59 0.815 0.995 0.168 0.404 0.212 0.85 0.127 1.279-0.086 0.43-0.297 0.825-0.607 1.135-0.31 0.309-0.704 0.52-1.134 0.606-0.43 0.085-0.875 0.041-1.28-0.126-0.404-0.168-0.75-0.452-0.994-0.816-0.243-0.364-0.373-0.793-0.373-1.231 0-0.587 0.233-1.151 0.649-1.566 0.415-0.416 0.978-0.649 1.566-0.649z"/>
  </g>
  <path d="m306.36 13.367c15.468 1.046 18.544 10.73 18.544 25.981s-8.023 29.302-19.96 29.302-18.544-14.745-18.544-30c0-15.254 3.575-26.389 19.96-25.273z" fill="#f2beac"/>
  <path d="m319.03 18.174c-5.32 6.827 7.57 9.07 5.637 25.116 13.912-19.751 2.505-24.038-5.637-25.116z" fill="#e6e6e6"/>
  <path d="m292.81 16.991c-12.781 2.697-16.95 13.727-6.112 25.465-1.664-12.436 10.298-19.73 6.112-25.465z" fill="#e6e6e6"/>
  <g fill="#e1a994">
   <path d="m296 27.244c5.905-1.359 12.04-1.379 17.954-0.06-5.902-1.936-11.891-1.782-17.954 0.06z"/>
   <path d="m294.7 30.02c7.051-1.148 14.249-1.03 21.258 0.349-6.951-1.849-14.249-1.969-21.258-0.349z"/>
   <path d="m302.02 31.73c3.14-0.89 6.332-0.879 9.628 0.593-2.968-1.001-6.188-1.165-9.628-0.593z"/>
  </g>
  <path d="m314 35.033c1.173 0 2.319 0.348 3.294 1 0.976 0.651 1.736 1.577 2.185 2.661 0.448 1.084 0.566 2.276 0.337 3.426-0.229 1.151-0.794 2.207-1.623 3.037-0.829 0.829-1.886 1.394-3.036 1.623-1.151 0.229-2.343 0.111-3.427-0.338-1.083-0.449-2.009-1.209-2.661-2.184s-0.999-2.122-0.999-3.295c0-1.572 0.624-3.081 1.737-4.193 1.112-1.112 2.62-1.737 4.193-1.737z" fill="#daa693"/>
 </g>
 <path d="m314 35.033c1.173 0 2.319 0.348 3.294 1 0.976 0.651 1.736 1.577 2.185 2.661 0.448 1.084 0.566 2.276 0.337 3.426-0.229 1.151-0.794 2.207-1.623 3.037-0.829 0.829-1.886 1.394-3.036 1.623-1.151 0.229-2.343 0.111-3.427-0.338-1.083-0.449-2.009-1.209-2.661-2.184s-0.999-2.122-0.999-3.295c0-1.572 0.624-3.081 1.737-4.193 1.112-1.112 2.62-1.737 4.193-1.737z" stroke="#646464" stroke-linecap="round" stroke-linejoin="round" stroke-width="2"/>
 <path d="m295.52 34.838c1.173 0 2.319 0.348 3.295 0.999 0.975 0.652 1.735 1.578 2.184 2.662 0.449 1.083 0.566 2.276 0.337 3.426s-0.793 2.207-1.623 3.036c-0.829 0.83-1.886 1.395-3.036 1.623-1.15 0.229-2.343 0.112-3.426-0.337-1.084-0.449-2.01-1.209-2.662-2.184-0.651-0.975-0.999-2.122-0.999-3.295 0-1.573 0.625-3.081 1.737-4.193s2.62-1.737 4.193-1.737z" clip-rule="evenodd" fill="#daa693" fill-rule="evenodd"/>
 <path d="m295.22 34.838c1.173 0 2.319 0.348 3.295 0.999 0.975 0.652 1.735 1.578 2.184 2.662 0.449 1.083 0.566 2.276 0.337 3.426s-0.793 2.207-1.623 3.036c-0.829 0.83-1.886 1.395-3.036 1.623-1.151 0.229-2.343 0.112-3.426-0.337-1.084-0.449-2.01-1.209-2.662-2.184s-0.999-2.122-0.999-3.295c0-1.573 0.624-3.081 1.737-4.193 1.112-1.112 2.62-1.737 4.193-1.737z" stroke="#646464" stroke-linecap="round" stroke-linejoin="round" stroke-width="2"/>
 <g clip-rule="evenodd" fill-rule="evenodd">
  <g fill="#646464">
   <path d="m301.41 40.063c2.196 0.454 4.464 0.434 6.652-0.059l0.283 2.093c-2.255 0.628-4.639 0.628-6.893 0l-0.042-2.044z"/>
   <path d="m319.64 39.23c1.926-1.472 3.345-2.55 5.267-2.128v2.068c-1.922-0.3-3.048 0.527-4.971 2.121l-0.289-2.061z"/>
   <path d="m289.59 39.781c-0.981-1.047-2.212-1.49-3.192-1.361v2.543c1.925-0.296 2.211 0.14 3.192 1.144z"/>
  </g>
  <path d="m302.56 55.468c1.466-0.757 4.064-0.897 5.505 0.349-1.416 2.25-4.793 2.002-5.505-0.349z" fill="#e17c7c"/>
  <path d="m311.47 40.963c1.13 1.954 3.025 2.146 5.257 0-1.336-1.685-4.186-2.149-5.257 0z" fill="#e8d8d8"/>
  <path d="m293.72 40.761c1.13 1.95 3.024 2.145 5.257 0-1.336-1.685-4.186-2.153-5.257 0z" fill="#e8d8d8"/>
  <path d="m313.77 39.809c0.262 5e-3 0.516 0.088 0.731 0.237s0.381 0.359 0.477 0.602c0.097 0.243 0.119 0.51 0.065 0.766-0.055 0.256-0.184 0.49-0.37 0.673-0.187 0.183-0.424 0.307-0.681 0.356s-0.523 0.021-0.764-0.08c-0.242-0.102-0.447-0.272-0.592-0.49s-0.222-0.474-0.223-0.735c5e-3 -0.356 0.15-0.696 0.405-0.945 0.254-0.249 0.597-0.387 0.952-0.384z" fill="#70584f"/>
  <path d="m296.02 39.606c0.262 6e-3 0.516 0.088 0.731 0.238 0.215 0.149 0.381 0.358 0.477 0.602 0.096 0.243 0.119 0.509 0.064 0.765-0.054 0.256-0.183 0.49-0.37 0.674-0.187 0.183-0.423 0.306-0.68 0.356-0.258 0.049-0.523 0.021-0.765-0.081-0.241-0.101-0.447-0.271-0.592-0.489-0.144-0.218-0.222-0.474-0.222-0.736 5e-3 -0.356 0.15-0.695 0.404-0.944 0.255-0.249 0.597-0.388 0.953-0.385z" fill="#70584f"/>
  <path d="m316.84 40.813c-1.908-0.98-3.667-1.004-5.257 0.06 0.516-1.776 3.443-2.003 5.257-0.06z" fill="#4a3026"/>
  <path d="m299.1 40.611c-1.908-0.984-3.666-1.005-5.257 0.059 0.517-1.775 3.44-2.002 5.257-0.059z" fill="#4a3026"/>
  <path d="m298.57 42.299c-1.713 1.165-3.837 1.417-5.403 0.279 1.784 0.491 3.679 0.393 5.403-0.279z" fill="#c99494"/>
  <path d="m312.12 43.018c1.709 0.495 3.272 0.485 4.667-0.119-1.395 1.001-2.944 1.162-4.667 0.119z" fill="#cc9794"/>
 </g>
 <path d="m304.1 43.241c-2.714 1.371-2.295 5.637 1.179 5.508" stroke="#cf8b72" stroke-linecap="round" stroke-linejoin="round" stroke-width="2"/>
 <g clip-rule="evenodd" fill-rule="evenodd">
  <path d="m360.64 185.02 0.907 0.959-0.314 6.771h-0.698l-1.51 109.92c-7e-3 0.383-0.16 0.749-0.429 1.021s-0.633 0.43-1.016 0.441l-4.36 0.122c-0.2 6e-3 -0.398-0.029-0.584-0.102s-0.355-0.183-0.498-0.323c-0.142-0.14-0.255-0.308-0.331-0.492-0.076-0.185-0.114-0.383-0.111-0.583 0.164-11.78 1.196-86.86 1.196-86.86h-102.21l-7.113 89.619c-0.03 0.38-0.205 0.733-0.488 0.987-0.282 0.255-0.652 0.391-1.033 0.381l-4.339-0.122c-0.201-6e-3 -0.399-0.053-0.581-0.138-0.183-0.084-0.346-0.205-0.481-0.355-0.134-0.15-0.237-0.325-0.301-0.516-0.065-0.19-0.09-0.392-0.074-0.592l8.926-112.41h-1.852l0.317-6.771 116.96-0.959zm-108.12 7.73-1.301 16.374h101.77l0.223-16.374z" fill="#5a5a5a"/>
  <path d="m363.85 185.02 0.952 1.005v7.088h-0.698s3.189 101.59 3.614 115.12c7e-3 0.196-0.026 0.39-0.095 0.573-0.069 0.182-0.173 0.349-0.307 0.491s-0.295 0.257-0.473 0.336c-0.178 0.08-0.37 0.123-0.566 0.128l-4.353 0.129c-0.393 0.012-0.774-0.133-1.06-0.403-0.285-0.269-0.453-0.641-0.464-1.034-0.374-11.86-2.861-91.112-2.861-91.112h-102.19s-2.563 81.627-2.944 93.837c-0.012 0.401-0.184 0.782-0.477 1.057-0.293 0.276-0.684 0.423-1.085 0.411l-4.099-0.118c-0.451-0.013-0.877-0.204-1.187-0.531s-0.478-0.763-0.467-1.214l3.694-117.66h-1.841v-7.077l2.054-0.018c-0.035-10.915 8.023-9.558 7.298-0.063l99.816-0.858c-0.544-7.702 7.528-9.457 7.751-0.066zm-107.74 8.093-0.537 17.153h101.74l-0.537-17.153z" fill="#989898"/>
  <path d="m245.12 165.3s-6.677 5.85-4.709 15.272c0.834 3.994 7.2 5.822 10.632 6.523 0.305 0.061 0.62 0.037 0.911-0.071 0.292-0.107 0.547-0.293 0.74-0.537 0.192-0.243 0.313-0.536 0.349-0.844s-0.014-0.62-0.144-0.902c-0.495-1.029-1.099-2.139-1.172-3-0.202-2.341 1.859-3.489 2.327-3.391 0.697 0.157 2.382 3.457 2.295 3.991-8e-3 0.013-0.012 0.028-0.012 0.043 0 0.016 4e-3 0.031 0.012 0.044 1.134 2.002 2.184 2.26 3.119 0.202 0.126-0.275 0.184-0.576 0.167-0.879-0.084-1.444-0.502-6.279-2.285-9.666-0.854-1.629-1.022-5.18-1.022-5.18-4.273 0.279-7.364-0.422-11.204-1.605z" fill="#f2bfac"/>
  <g fill="#dda089">
   <path d="m250.63 174.8c-1.999 3.719-1.891 7.706-0.838 11.812-1.395-4.047-2.068-8.048 0.838-11.812z"/>
   <path d="m247.14 173.72c-1.999 3.719-1.891 7.706-0.837 11.812-1.396-4.047-2.073-8.045 0.837-11.812z"/>
   <path d="m243.98 172.39c-2.002 3.719-1.894 7.702-0.837 11.811-1.395-4.046-2.072-8.047 0.837-11.811z"/>
  </g>
  <path d="m365.17 163.07s8.271 5.104 7.891 14.725c-0.16 4.078-6.139 6.935-9.419 8.194-0.29 0.111-0.605 0.14-0.911 0.082-0.305-0.057-0.589-0.198-0.819-0.407-0.231-0.209-0.398-0.478-0.485-0.776-0.087-0.299-0.089-0.616-7e-3 -0.915 0.318-1.096 0.729-2.292 0.66-3.14-0.189-2.344-2.411-3.139-2.857-2.961-0.656 0.272-1.776 3.802-1.605 4.315 0.011 0.011 0.019 0.025 0.023 0.04 4e-3 0.016 3e-3 0.032-2e-3 0.047-0.788 2.163-1.779 2.592-3.042 0.715-0.171-0.251-0.279-0.539-0.314-0.841-0.153-1.437-0.541-6.279 0.656-9.91 0.572-1.744-0.645-8.554-0.645-8.554 3.631 0.313 7.288 0.11 10.862-0.603z" fill="#f2bfac"/>
  <g fill="#dda089">
   <path d="m362.02 173.79c2.588 3.335 3.14 7.284 2.791 11.512 0.697-4.218 0.697-8.278-2.791-11.512z"/>
   <path d="m365.28 172.15c2.588 3.335 3.14 7.284 2.791 11.512 0.697-4.221 0.697-8.281-2.791-11.512z"/>
   <path d="m368.18 170.32c2.588 3.335 3.14 7.283 2.791 11.511 0.697-4.217 0.697-8.278-2.791-11.511z"/>
  </g>
  <path d="m186.44 37.908 20.55 5.808c-1.154 4.248-2.246 9.373-1.35 13.255 0.572 2.484 2.376 3.806 4.124 6.199-6.555 8.487-20.254 6.164-28.818 0.475 4.839-5.784 6.74-16.692 5.494-25.724z" fill="#f8c9a2"/>
  <path d="m183.23 32.602 2.009 11.693c5.546 9.303 14.808 14.257 23.857 11.456l3.192-9.684z" fill="#e6b287"/>
  <path d="m183.08 58.367c8.554 12.209 16.744 10.754 27.949 2.616l3.554 37.067-29.525-18.181z" fill="#fdf6e6"/>
  <path d="m212.29 60.163c11.86 1.455 22.618 15.367 31.067 26.861-4.79 4.231-10.72 12.314-11.383 21.153-10.639-3.722-15.586-8.32-20.044-12.994l0.349-35.02z" fill="#a5c6b1"/>
  <path d="m208.86 60.184s9.174 4.926 11.1 6.977c3.9 4.134 2.313 8.442 8.114 18.454 5.616 9.697 4.643 26.783 4.643 26.783l-25.395-14.41 1.538-37.793z" fill="#89b59a"/>
  <path d="m155.58 289.11 19.782 0.474c-1.046 3.869-0.373 9.335 0.475 12.559l-21.387-1.047c1.001-3.094 2.333-7.636 1.13-11.989z" fill="#f8c9a2"/>
  <path d="m228.64 289.11-19.779 0.663c1.081 3.861 0.467 9.335-0.349 12.582l21.376-1.269c-1.046-3.084-2.407-7.612-1.245-11.976z" fill="#f8c9a2"/>
  <path d="m156.94 153.91 71.134 5.679s5.826 53.818 3.419 87.163c-1.214 16.814 1.985 50.543 1.985 50.543-5.027-5.431-15.698-5.675-27.583-2.128 0 0-6.907-40.158-6.907-52.674s-2.951-43.461-5.019-49.367c-2.069-5.906-3.489 3.778-5.61 15.827-2.121 12.048-6.38 33.777-5.672 38.738 0.708 4.96-4.468 48.659-4.468 48.659-7.186-3.178-15.81-3.837-25.514-2.599-1.894-19.088 0.98-41.229 1.552-63.275 0.719-27.778-3.352-57.764 2.7-76.566z" fill="#a5c6b1"/>
  <path d="m154.29 162.35-1.416 1.838c15.949 14.965 68.372 19.717 85.391 6.489l-6.376-14.526c-23.508 6.359-50.651 10.148-77.599 6.199z" fill="#8ab599"/>
 </g>
 <path d="m158.54 167.93c4.664 43.87-4.186 84.9-1.772 125.08m68.742-122.95c4.8 42.313 1.65 82.887 4.427 124.02z" stroke="#fff" stroke-linecap="round" stroke-linejoin="round"/>
 <g clip-rule="evenodd" fill-rule="evenodd">
  <path d="m151.71 300.27c-0.801 0.528-1.43 1.279-1.806 2.162-0.377 0.882-0.486 1.855-0.313 2.799s0.62 1.815 1.285 2.506c0.666 0.691 1.52 1.171 2.456 1.38 6.213 1.395 14.086 1.455 21.914 0.073 0.745-0.134 1.439-0.47 2.006-0.972 0.566-0.502 0.984-1.15 1.206-1.873 0.223-0.724 0.242-1.494 0.056-2.228-0.187-0.734-0.571-1.402-1.112-1.931-5.48-5.338-18.314-6.757-25.692-1.916z" fill="#667069"/>
  <path d="m205.83 300.27c-0.802 0.528-1.43 1.279-1.807 2.162-0.377 0.882-0.485 1.855-0.312 2.799s0.62 1.815 1.285 2.506 1.519 1.171 2.456 1.38c6.213 1.395 14.086 1.455 21.914 0.073 0.745-0.134 1.438-0.47 2.005-0.972s0.984-1.15 1.207-1.873c0.222-0.724 0.242-1.494 0.055-2.228-0.186-0.734-0.571-1.402-1.112-1.931-5.48-5.338-18.313-6.757-25.691-1.916z" fill="#657069"/>
  <path d="m147.97 159.4c31.534 20.832 58.458 15.966 85.513 11.86-0.624-18.52-8.501-40.908-5.232-49.849 3.896-10.67 2.574-21.9-1.047-30.24-6.073-13.954-4.05-14.072-5.986-26.445-0.677-2.292-5.17-4.835-15.296-7.755 0.767 2.553 0.645 5.121 0.37 7.325-0.876 7.002-3.311 13.316-7.895 20.027-9.568-7.416-13.255-18.921-14.853-25.943-10.413-1.828-22.974 2.948-29.874 11.365-1.266 1.545-2.035 3.438-2.205 5.428-1.633 20.93 7.015 60.44-3.488 84.237z" fill="#a5c6b1"/>
  <path d="m143.14 87.488-2.125 71.916c13.887 10.789 34.626-12.433 40.158-39.555 1.818-8.906-4.186-29.156 5.913-26.62 6.143 1.542 11.512-0.84 9.68-4.088-16.608-29.588-50.169-26.766-53.626-1.653z" fill="#8ab599"/>
  <path d="m232.76 115.58s7.723 4.074 13.922 3.01 10.416-3.097 11.672-1.353c1.067 1.482 0.558 1.66-0.349 2.655-1.249 1.395-5.846 2.421-5.846 2.421s0.896 2.522 4.05 4.636c2.065 1.395 6.205 2.595 7.817 2.79 3.115 0.405-2.041 5.153-4.65 7.371-0.43 0.365-0.931 0.637-1.471 0.799-0.541 0.163-1.108 0.213-1.669 0.146-4.266-0.519-15.132-2.222-18.802-6.418-4.604-5.264-11.553-3.583-11.553-3.583z" fill="#f8c9a2"/>
  <g fill="#e7ad7d">
   <path d="m249.2 126.04c4.765 3.837 10.029 6.485 16.211 6.998-6.415 0.324-11.683-2.362-16.211-6.998z"/>
   <path d="m247.8 129.29c4.954 3.576 10.343 5.965 16.546 6.167-6.394 0.649-11.791-1.768-16.546-6.167z"/>
   <path d="m245.04 132.43c5.316 3.007 10.939 4.786 17.124 4.301-6.279 1.35-11.913-0.453-17.124-4.301z"/>
  </g>
  <path d="m159.84 98.057c6.505 8.024 13.876 15.122 27.99 22.368 0.35 0.179 0.72 0.316 1.102 0.408l44.55 10.789c-0.774-7.032 0.698-11.829 3.07-15.697-9.279-3.89-20.421-8.341-36-14.121l-17.473-20.194-23.239 16.454z" fill="#fdf6e6"/>
  <path d="m156.24 67.548c13.953-8.871 37.737 20.313 37.737 20.313-9.244-1.12-28.451 9.185-31.005 18.931 0 0-26.162-26.885-6.732-39.244z" fill="#a5c6b1"/>
  <path d="m202.66 10.866c9.582 0 21.627 4.322 19.252 21.976-1.395 10.465-9.199 23.372-19.727 20.55-2.337-0.631-4.999-2.141-6.82-3.568-5.002-3.918-6.582-5.707-8.909-9.597-1.678-2.79-1.395-7.514-1.395-10.712 0-10.56 8.023-18.66 17.599-18.66z" fill="#f8c9a2"/>
  <path d="m209.85 30.46c1.116 0.495 1.744 1.493 1.434 2.229-0.311 0.736-1.497 0.931-2.616 0.436-1.12-0.495-1.745-1.493-1.434-2.229 0.31-0.736 1.496-0.931 2.616-0.436z" fill="#f7f7f7"/>
  <path d="m209.68 30.948c0.335 1e-3 0.658 0.127 0.906 0.354 0.248 0.226 0.402 0.536 0.433 0.871 0.011 0.159-0.012 0.319-0.066 0.469-0.055 0.15-0.14 0.287-0.251 0.403-0.111 0.115-0.244 0.206-0.392 0.266-0.148 0.061-0.307 0.09-0.466 0.086-0.335-1e-3 -0.658-0.127-0.905-0.354-0.247-0.226-0.401-0.537-0.431-0.87-0.011-0.16 0.012-0.319 0.066-0.469s0.139-0.287 0.25-0.402c0.11-0.115 0.243-0.206 0.39-0.267 0.148-0.061 0.306-0.091 0.466-0.087z" fill="#363125"/>
  <path d="m218.44 33.693c1.116 0.496 1.744 1.493 1.434 2.229-0.311 0.736-1.497 0.932-2.617 0.436-1.119-0.495-1.744-1.493-1.433-2.229 0.31-0.736 1.496-0.931 2.616-0.436z" fill="#f7f7f7"/>
  <path d="m218.28 34.175c0.335 1e-3 0.658 0.127 0.905 0.354 0.247 0.226 0.401 0.537 0.431 0.87 0.011 0.16-0.011 0.319-0.065 0.47-0.054 0.15-0.139 0.287-0.25 0.402-0.11 0.116-0.243 0.207-0.391 0.267-0.148 0.061-0.306 0.09-0.466 0.086-0.336-1e-3 -0.659-0.126-0.907-0.353-0.248-0.226-0.402-0.537-0.433-0.872-0.01-0.159 0.012-0.319 0.067-0.469s0.14-0.287 0.251-0.403c0.11-0.115 0.244-0.206 0.392-0.266 0.147-0.061 0.306-0.09 0.466-0.086z" fill="#363125"/>
  <path d="m207.15 30.938c1.804-0.621 3.666-0.164 4.218 1.395 0.132-2.553-2.791-3.398-4.218-1.395z" fill="#282725"/>
  <path d="m215.74 34.165c1.807-0.621 3.666-0.164 4.217 1.395 0.133-2.553-2.79-3.398-4.217-1.395z" fill="#282725"/>
  <path d="m191.16 0c6.15 0 11.142 4.391 11.142 9.802 0 5.41-4.992 9.802-11.142 9.802s-11.138-4.392-11.138-9.802c0-5.411 4.992-9.802 11.138-9.802z" fill="#56402e"/>
  <path d="m181.2 19.409s0.028-9.331 6.994-10.158c2.721-0.321 4.455-2.606 7.158-4.71 1.27-0.987 6.628-2.093 4.884-2.731-2.268-0.816 4.371 0.349 3.896 2.836-0.474 2.487-11.337 11.812-13.109 12.164s-9.83 2.599-9.83 2.599z" fill="#8e6c51"/>
  <path d="m222.21 27.46s8.334-10.277 0-16.594c-6.673-5.062-9.042-3.307-10.932-8.023-1.891-4.717-10.629 0.471-14.882 2.595-4.252 2.124-5.431 5.906-8.975 5.435-3.545-0.471-1.654 4.96-6.143 7.325-4.49 2.366-4.884 5.024-4.221 10.117 1.454 10.901 9.767 13.908 9.767 13.908 0-4.186 1.315-6.89 3.897-8.721 0 0-0.642-1.814-0.422-3.318 0.348-2.239 1.925-4.22 5.176-1.995 2.243 1.535 2.896 0.855 2.896 0.855s0.094-4.535 6.701-6.911c11.818-4.231 17.138 5.327 17.138 5.327z" fill="#56402e"/>
  <g fill="#8e6c51">
   <path d="m220.56 21.299c3.991-8.264-6.408-9.649-14.069-16.535 0.548 2.23 2.791 4.186 7.27 6.562 7.354 3.872 7.095 6.035 6.799 9.973z"/>
   <path d="m215.36 19.175c-10.531-3.331-11.414-10.926-26.574-4.49 12.499-13.308 17.881-2.358 26.574 4.49z"/>
   <path d="m204.14 19.056c-8.567 4.622-15.16-2.958-22.325 4.842 6.324-11.804 11.113-8.236 22.325-4.842z"/>
  </g>
  <path d="m207.22 44.567 4.162 1.849c-2.138 1.444-4.678-0.667-4.162-1.849z" fill="#e27d58"/>
 </g>
 <path d="m191.94 33.397c-0.499-2.912 0.443-5.194 3.837-3.537m17.735 6.311c1.427 2.584 1.287 5.047-2.48 4.604z" stroke="#da9c69" stroke-linecap="round" stroke-linejoin="round" stroke-width="2"/>
</svg>
