<svg width="560" height="473" viewBox="0 0 560 473" fill="none" xmlns="http://www.w3.org/2000/svg">
<path d="M70.9425 305.985C71.1622 314.745 71.8843 323.002 73.2832 329.951C73.5832 331.454 73.8901 332.978 74.2529 334.377C74.5494 335.462 74.8599 336.544 75.1599 337.517C77.3855 344.605 80.7238 349.332 85.3459 350.302L86.4901 350.469L87.3448 350.532C94.6703 350.609 146.35 350.661 211.122 350.661C261.676 350.661 320.137 350.609 371.528 350.609H380.597C421.062 350.556 456.455 350.532 479.116 350.532H494.813L495.542 350.469L497.402 350.082C498.184 349.865 498.944 349.575 499.673 349.217H499.708L500.754 348.69L502.003 347.992L504.096 346.597L504.57 346.248L505.795 345.278L507.009 344.197L507.159 344.082C507.97 343.309 508.739 342.494 509.464 341.64L509.813 341.2L509.97 340.974L511.017 339.606L511.739 338.612L512.189 337.942L513.27 336.219L514.275 334.36L514.467 333.91L514.816 333.048L515.66 331.049L516.064 329.933C518.213 323.706 519.068 315.889 518.241 305.968C517.711 299.372 516.427 291.861 514.313 283.269C511.725 272.368 501.724 258.443 498.026 254.745C451.69 208.046 347.193 176.368 324.068 172.053C321.452 171.551 317.755 171.007 313.195 170.365C274.126 164.965 171.421 155.731 141.275 165.38C136.546 166.943 131.976 168.954 127.628 171.384L124.688 166.151L124.37 165.802L130.234 165.021L129.153 163.831C127.59 162.113 125.413 161.081 123.093 160.96L109.325 160.175C106.13 160.046 103.098 160.96 103.098 162.492V165.997C103.098 167.494 106.014 168.418 109.105 167.996L110.661 167.801L111.331 182.954L111.418 183.014C92.6122 199.758 79.1611 224.176 75.1739 247.109C72.425 262.712 70.346 285.683 70.9564 305.985H70.9425Z" fill="#C7C4BE"/>
<path fill-rule="evenodd" clip-rule="evenodd" d="M136.517 250.475H126.537V282.903H136.517V250.475Z" fill="#CA8484"/>
<path fill-rule="evenodd" clip-rule="evenodd" d="M148.342 271.681V261.701H115.915V271.681H148.342Z" fill="#CA8484"/>
<path d="M507.155 299.365C507.37 299.801 507.726 300.15 508.167 300.356C508.607 300.562 509.104 300.611 509.576 300.496C510.048 300.381 510.467 300.108 510.763 299.723C511.059 299.338 511.215 298.863 511.205 298.377C511.083 290.392 508.68 278.375 503.995 269.853C502.801 267.668 501.041 265.845 498.901 264.575C496.76 263.304 494.317 262.633 491.827 262.632C489.727 262.638 487.638 262.92 485.611 263.469C484.88 263.666 484.22 264.068 483.71 264.627C483.2 265.187 482.861 265.881 482.733 266.627C482.604 267.373 482.692 268.14 482.986 268.838C483.28 269.536 483.767 270.135 484.39 270.565C493.624 276.973 501.347 287.752 507.155 299.365Z" fill="white"/>
<path d="M452.869 231.226C453.334 231.537 453.686 231.988 453.874 232.514C454.063 233.04 454.077 233.613 453.915 234.148C453.753 234.682 453.424 235.151 452.976 235.484C452.527 235.817 451.984 235.998 451.425 235.999H374.681C373.231 235.998 371.805 235.63 370.535 234.93C369.265 234.23 368.193 233.22 367.418 231.994L341.653 191.114C341.336 190.603 341.176 190.009 341.196 189.407C341.215 188.806 341.412 188.223 341.761 187.734C342.111 187.244 342.601 186.871 343.166 186.664C343.731 186.457 344.345 186.425 344.929 186.572C375.71 194.145 419.8 209.163 452.869 231.223V231.226Z" fill="#D5D5D5"/>
<path d="M451.418 235.991V233.738L381.166 233.721H374.688C373.622 233.727 372.573 233.462 371.638 232.95C370.703 232.439 369.913 231.698 369.344 230.797L368.552 229.496L343.572 189.91L343.603 189.069L344.21 188.742C359.528 192.495 412.055 206.731 451.603 233.124L451.411 235.988L451.418 235.991ZM339.735 192.331L365.514 233.208C366.058 234.078 366.725 234.864 367.495 235.541C369.472 237.31 372.035 238.282 374.688 238.269H451.432C452.473 238.26 453.484 237.917 454.317 237.292C455.149 236.668 455.761 235.793 456.061 234.796C456.362 233.8 456.336 232.733 455.988 231.752C455.64 230.771 454.987 229.927 454.125 229.343C413.967 202.535 360.825 188.131 345.508 184.343C344.482 184.098 343.407 184.163 342.418 184.53C341.429 184.896 340.57 185.547 339.951 186.401C339.321 187.253 338.964 188.276 338.928 189.335C338.892 190.393 339.178 191.438 339.749 192.331H339.735Z" fill="white"/>
<path d="M95.7237 236.368C94.7806 236.37 93.8512 236.143 93.0152 235.706C92.1793 235.269 91.4617 234.636 90.9242 233.861C90.3866 233.087 90.0451 232.193 89.929 231.257C89.8129 230.321 89.9256 229.371 90.2575 228.488C99.4947 204.003 119.486 182.382 140.458 174.272C148.314 171.233 184.164 171.99 204.473 172.238C205.937 172.263 207.333 172.862 208.359 173.906C209.386 174.95 209.961 176.355 209.961 177.819L209.612 230.284C209.601 231.799 208.993 233.249 207.92 234.319C206.847 235.388 205.395 235.992 203.88 235.998L95.7202 236.347L95.7237 236.368Z" fill="#DAE3E2"/>
<path d="M92.3785 229.29C100.611 207.481 117.763 187.859 136.182 178.674C137.846 177.827 139.553 177.066 141.296 176.393C144.966 174.977 156.843 174.254 176.584 174.254C184.482 174.254 192.467 174.359 199.335 174.45L204.449 174.502C205.314 174.518 206.138 174.874 206.742 175.494C207.345 176.114 207.68 176.947 207.672 177.813L207.323 230.285C207.314 231.204 206.943 232.082 206.29 232.729C205.636 233.375 204.754 233.738 203.835 233.738L140.647 233.958L95.6854 234.097C95.1105 234.097 94.5443 233.957 94.0351 233.69C93.5258 233.424 93.0886 233.038 92.7607 232.566C92.4328 232.094 92.2239 231.549 92.1519 230.979C92.0798 230.408 92.1468 229.829 92.3471 229.29H92.3785ZM89.068 235.154C89.8113 236.23 90.8047 237.11 91.9628 237.717C93.1208 238.325 94.409 238.642 95.7168 238.643H95.7412L203.88 238.294C205.996 238.277 208.021 237.431 209.521 235.938C211.021 234.446 211.876 232.425 211.904 230.309L212.228 177.833C212.232 175.769 211.423 173.786 209.977 172.314C208.53 170.841 206.562 169.997 204.498 169.964L199.384 169.911C192.515 169.796 184.503 169.692 176.581 169.692C155.724 169.692 143.961 170.466 139.656 172.165C118.255 180.425 97.5482 202.726 88.1261 227.696C87.6714 228.923 87.5195 230.242 87.6835 231.541C87.8474 232.839 88.3224 234.079 89.068 235.154Z" fill="white"/>
<path d="M76.4716 265.116C75.589 274.883 73.5902 291.491 77.0332 291.491C80.4762 291.491 89.8878 273.962 89.8878 264.306C89.8878 254.651 84.8785 255.076 81.4181 255.139C77.9576 255.202 77.2704 256.011 76.4716 265.116Z" fill="#F7F7F7"/>
<path d="M246.33 340.304H342.299C344.082 340.303 345.848 339.952 347.496 339.268C349.143 338.585 350.64 337.584 351.9 336.322C353.161 335.061 354.16 333.563 354.842 331.915C355.523 330.266 355.873 328.5 355.872 326.717V233.867H222.33V316.304C222.33 319.456 222.95 322.577 224.156 325.489C225.361 328.402 227.129 331.048 229.358 333.276C231.587 335.505 234.233 337.273 237.145 338.479C240.057 339.685 243.178 340.305 246.33 340.304Z" fill="#C7C4BE"/>
<path d="M316.572 180.188C317.819 180.378 319.012 180.833 320.068 181.523C321.125 182.212 322.022 183.12 322.698 184.186L352.457 231.544C352.729 231.982 352.879 232.484 352.892 233C352.906 233.515 352.782 234.025 352.533 234.476C352.285 234.928 351.92 235.305 351.478 235.57C351.035 235.834 350.53 235.976 350.015 235.981H229.318C228.049 235.981 226.833 235.477 225.936 234.58C225.039 233.683 224.535 232.467 224.535 231.198V177.732C224.536 176.989 224.688 176.253 224.982 175.57C225.276 174.887 225.707 174.272 226.246 173.76C226.786 173.249 227.424 172.853 228.122 172.596C228.82 172.339 229.562 172.227 230.305 172.266C264.163 174.01 300.798 177.802 316.569 180.188H316.572Z" fill="#DAE3E2"/>
<path d="M350.556 233.403L349.991 233.71H229.293C228.63 233.707 227.994 233.442 227.525 232.972C227.057 232.502 226.793 231.865 226.792 231.202V177.732C226.79 177.309 226.872 176.89 227.033 176.499C227.194 176.107 227.432 175.752 227.732 175.454C228.032 175.156 228.388 174.92 228.78 174.761C229.172 174.601 229.592 174.522 230.015 174.526C233.361 174.694 236.696 174.875 240.006 175.081C272.144 177.09 303.145 180.453 316.227 182.424C317.149 182.576 318.028 182.919 318.809 183.431C319.59 183.944 320.255 184.614 320.762 185.4L350.517 232.758L350.545 233.403H350.556ZM222.268 177.732V231.202C222.28 233.066 223.025 234.85 224.341 236.169C225.658 237.489 227.44 238.238 229.304 238.255H350.001C350.926 238.252 351.834 238.002 352.631 237.532C353.428 237.062 354.086 236.388 354.536 235.58L355.108 233.863C355.285 232.635 355.019 231.384 354.358 230.333L324.599 182.979C323.758 181.631 322.633 180.482 321.303 179.614C319.973 178.746 318.469 178.179 316.896 177.952C315.539 177.76 313.984 177.54 312.257 177.282C295.583 175.029 262.618 171.666 230.42 170.002H230.361C227.999 170.002 226.143 170.752 224.689 172.095C223.928 172.823 223.322 173.696 222.906 174.662C222.49 175.629 222.273 176.669 222.268 177.722V177.732Z" fill="white"/>
<path d="M504.71 323.699L509.06 323.664C510.996 323.664 513.134 321.84 513.741 319.586L515 315.017C515.67 312.683 514.446 310.967 512.36 311.221L507.72 311.786C505.878 312.034 504.03 313.925 503.534 316.011L502.53 320.078C502.045 322.088 502.997 323.699 504.713 323.699H504.71Z" fill="white"/>
<path d="M70.9425 305.985C71.1623 314.744 71.8844 323.001 73.2832 329.95C73.5832 331.454 73.8902 332.978 74.253 334.377C74.5495 335.462 74.8599 336.543 75.1599 337.516C77.5251 344.605 80.9262 349.332 85.6529 350.301L86.4901 350.469L87.3448 350.532C94.6704 350.608 146.35 350.661 211.122 350.661C261.676 350.661 320.137 350.608 371.528 350.608H380.597C421.062 350.556 456.455 350.532 479.116 350.532H494.813L495.543 350.469L497.402 350.082C498.174 349.835 498.932 349.546 499.673 349.216H499.708L500.754 348.69L501.706 348.163L502.003 347.995L504.096 346.6L504.57 346.251L505.795 345.282L507.009 344.2L507.159 344.085C507.97 343.312 508.739 342.497 509.465 341.643L509.813 341.204L509.97 340.977L511.017 339.609L511.739 338.615L512.189 337.946L513.27 336.222L514.275 334.363L514.467 333.913L514.816 333.051L515.185 332.162L515.66 331.053L516.065 329.936C518.213 323.71 519.068 315.892 518.241 305.971H508.449C504.831 305.973 501.326 307.233 498.536 309.537C495.745 311.84 493.843 315.043 493.156 318.596L492.937 319.82C492.381 322.666 490.854 325.231 488.617 327.076C486.38 328.922 483.572 329.933 480.672 329.936H106.255C103.309 329.936 100.447 328.954 98.1215 327.146C95.7956 325.338 94.1382 322.807 93.4111 319.953L93.3832 319.844C92.389 315.879 90.0982 312.361 86.8748 309.847C83.6513 307.333 79.6802 305.969 75.5925 305.971L70.9425 305.985Z" fill="#464646"/>
<path d="M227.04 250.234C227.04 252.198 232.447 253.792 239.102 253.792C245.758 253.792 251.162 252.209 251.162 250.234C251.162 248.26 245.765 246.669 239.116 246.669C232.467 246.669 227.054 248.263 227.054 250.234H227.04Z" fill="white"/>
<path d="M140.678 232.074L116.741 195.279C124.443 187.604 133.136 181.569 141.955 178.186C142.896 177.859 143.867 177.626 144.854 177.488L179.947 231.934L140.678 232.084V232.074Z" fill="#C9DBD8"/>
<path d="M184.764 231.896L149.5 176.923C152.504 176.668 156.536 176.448 161.933 176.316L197.441 231.872L184.764 231.896Z" fill="#C9DBD8"/>
<path d="M211.122 350.665C261.676 350.665 320.137 350.612 371.528 350.612H380.597C327.093 350.612 264.69 350.665 211.133 350.665H211.122ZM91.1646 350.56C89.4204 350.56 88.1262 350.543 87.3448 350.536L86.4902 350.473L85.346 350.305C80.7239 349.336 77.3855 344.609 75.16 337.52C74.86 336.544 74.5495 335.462 74.253 334.381C73.9041 332.986 73.5832 331.458 73.2832 329.954C71.8879 323.005 71.1623 314.748 70.9425 305.989C70.9251 305.529 70.9146 305.072 70.9076 304.615C70.9076 305.072 70.9076 305.529 70.9425 305.989C71.1623 314.748 71.8844 323.005 73.2832 329.954C73.5832 331.458 73.8902 332.982 74.253 334.381C74.5495 335.466 74.86 336.547 75.16 337.52C77.3855 344.609 80.7239 349.336 85.346 350.305L86.4902 350.473L87.3448 350.536C88.1262 350.536 89.4134 350.536 91.1646 350.56Z" fill="#BABABA"/>
<path d="M86.4901 350.472L85.3459 350.305C80.7238 349.335 77.3854 344.609 75.1599 337.52C77.525 344.609 80.9261 349.335 85.6528 350.305L86.4901 350.472ZM375.023 329.95H355.488C355.747 328.892 355.877 327.806 355.875 326.717V316.513L379.348 317.79C377.363 321.629 375.909 325.72 375.026 329.95H375.023ZM226.583 329.95H195.24C193.496 321.339 189.313 313.411 183.187 307.112L222.33 309.24V316.304C222.326 321.18 223.809 325.941 226.583 329.95ZM95.9819 325.067C94.7569 323.573 93.8788 321.827 93.411 319.953L93.3831 319.845C92.3889 315.88 90.0981 312.361 86.8747 309.847C83.6512 307.333 79.6801 305.969 75.5924 305.971H70.9529C70.9354 305.511 70.925 305.054 70.918 304.597C70.8901 303.401 70.8727 302.194 70.8552 300.987L111.212 303.181C109.736 304.298 108.337 305.515 107.026 306.823L107.009 306.844C101.931 311.95 98.1514 318.199 95.9854 325.067H95.9819Z" fill="#E7E7E7"/>
<path d="M355.485 329.951H226.583C223.809 325.941 222.326 321.18 222.331 316.304V309.24L355.872 316.513V326.717C355.874 327.807 355.744 328.892 355.485 329.951Z" fill="#E7E7E7"/>
<path d="M468.323 350.535H494.796L495.525 350.473L497.384 350.085C498.167 349.868 498.927 349.578 499.655 349.22H499.69L500.737 348.693L501.986 347.996L504.079 346.6L504.553 346.252L505.777 345.282L506.991 344.2L507.141 344.085C507.952 343.312 508.722 342.497 509.447 341.643L509.796 341.204L509.953 340.977L510.999 339.61L511.722 338.616L512.172 337.946L513.253 336.223L514.258 334.363L514.449 333.913L514.798 333.052L515.642 331.053L516.047 329.937L515.642 331.053C515.273 332.047 514.858 332.999 514.435 333.913L514.244 334.363L513.239 336.223L512.158 337.946L512.015 338.159L511.708 338.616C511.161 339.439 510.567 340.229 509.929 340.984L509.782 341.193L509.433 341.633C508.708 342.487 507.938 343.302 507.127 344.075L506.977 344.19L505.763 345.271L504.539 346.241C503.731 346.888 502.874 347.471 501.975 347.985L500.726 348.683L499.68 349.21H499.645C498.916 349.568 498.156 349.858 497.374 350.075L495.515 350.462L494.786 350.525L468.323 350.535Z" fill="#C0C0C0"/>
<path d="M497.384 350.085C498.157 349.839 498.915 349.55 499.655 349.22C498.927 349.578 498.167 349.868 497.384 350.085ZM500.747 348.69L501.699 348.163L501.996 347.996L500.747 348.693V348.69ZM514.844 333.062L515.213 332.172L515.688 331.063L514.844 333.062ZM480.696 329.95H475.582C475.08 327.56 474.396 325.211 473.538 322.925L491.395 323.891C490.286 325.738 488.718 327.267 486.843 328.329C484.968 329.391 482.851 329.949 480.696 329.95Z" fill="#E7E7E7"/>
<path d="M211.122 350.665H187.932L187.984 350.536H198.77L195.599 331.842L195.25 329.951H375.033L374.685 331.842L371.524 350.536L371.552 350.612C320.162 350.612 261.7 350.665 211.147 350.665H211.122ZM91.1645 350.56C89.4204 350.56 88.1262 350.543 87.3448 350.536L86.4901 350.473L85.6529 350.305C80.9262 349.336 77.5251 344.609 75.1599 337.521C74.8599 336.544 74.5495 335.462 74.253 334.381C73.9041 332.986 73.5832 331.458 73.2832 329.954C71.8879 323.005 71.1623 314.749 70.9425 305.989H75.582C79.6697 305.987 83.6408 307.351 86.8643 309.865C90.0877 312.379 92.3786 315.898 93.3727 319.862L93.4006 319.971C93.8685 321.845 94.7466 323.591 95.9715 325.085C95.4542 326.688 95.0222 328.319 94.6773 329.968L94.3285 331.859L91.1576 350.553V350.578L91.1645 350.56ZM494.796 350.536H479.098L475.938 331.842L475.589 329.951H480.696C482.851 329.95 484.968 329.391 486.843 328.33C488.718 327.268 490.286 325.739 491.395 323.892L517.376 325.311C517.04 326.882 516.611 328.432 516.089 329.951L515.684 331.067L515.21 332.176L514.84 333.066L514.491 333.928L514.299 334.378L513.295 336.237L512.213 337.96L511.763 338.63L511.041 339.624L509.995 340.991L509.838 341.218L509.489 341.658C508.764 342.512 507.994 343.327 507.183 344.1L507.033 344.215L505.819 345.296L504.595 346.266L504.12 346.615L502.027 348.01L501.731 348.178L500.778 348.704L499.732 349.231H499.697C498.957 349.561 498.198 349.85 497.426 350.096L495.567 350.483L494.838 350.546L494.796 350.536Z" fill="#565656"/>
<path d="M371.51 350.535L371.538 350.612H380.608C421.073 350.56 456.466 350.535 479.126 350.535L475.966 331.841L475.617 329.951C471.382 309.76 455.056 295.332 436.156 295.332H414.529C395.618 295.332 379.296 309.76 375.068 329.951L374.719 331.841L371.559 350.535H371.51Z" fill="#2D2D2D"/>
<path d="M395.765 333.39C395.763 339.232 397.495 344.944 400.74 349.802C403.984 354.66 408.597 358.447 413.995 360.683C419.392 362.92 425.331 363.505 431.061 362.366C436.791 361.226 442.055 358.413 446.186 354.282C450.317 350.151 453.13 344.888 454.269 339.158C455.409 333.427 454.823 327.488 452.587 322.091C450.351 316.694 446.564 312.081 441.706 308.836C436.847 305.591 431.136 303.86 425.294 303.861C421.416 303.86 417.575 304.623 413.992 306.107C410.409 307.591 407.154 309.766 404.411 312.508C401.669 315.25 399.494 318.506 398.011 322.089C396.527 325.672 395.764 329.512 395.765 333.39Z" fill="#DAD1D1"/>
<path d="M396.787 333.418C396.781 327.779 398.448 322.265 401.576 317.573C404.705 312.882 409.154 309.223 414.362 307.06C419.569 304.897 425.302 304.327 430.833 305.422C436.365 306.517 441.447 309.228 445.439 313.212C449.43 317.195 452.15 322.273 453.255 327.803C454.36 333.332 453.8 339.066 451.647 344.277C449.494 349.489 445.843 353.945 441.157 357.082C436.471 360.219 430.961 361.896 425.322 361.9C417.761 361.907 410.507 358.91 405.156 353.568C399.805 348.227 396.794 340.979 396.787 333.418ZM378.996 333.435C379.004 342.593 381.728 351.542 386.822 359.152C391.917 366.761 399.153 372.689 407.616 376.186C416.08 379.683 425.39 380.591 434.37 378.797C443.35 377.003 451.596 372.586 458.065 366.105C464.535 359.624 468.937 351.37 470.716 342.388C472.495 333.405 471.57 324.096 468.059 315.639C464.547 307.181 458.607 299.955 450.988 294.874C443.37 289.793 434.416 287.085 425.259 287.093C419.177 287.097 413.156 288.3 407.539 290.632C401.922 292.964 396.819 296.38 392.523 300.685C388.227 304.989 384.82 310.098 382.499 315.719C380.177 321.341 378.986 327.364 378.993 333.446L378.996 333.435Z" fill="#1D1715"/>
<path d="M403.76 333.39C403.759 337.65 405.021 341.815 407.387 345.358C409.752 348.9 413.116 351.662 417.051 353.293C420.987 354.924 425.318 355.351 429.496 354.521C433.674 353.69 437.512 351.639 440.525 348.627C443.538 345.615 445.589 341.777 446.42 337.599C447.252 333.421 446.825 329.09 445.195 325.154C443.564 321.219 440.803 317.855 437.261 315.488C433.718 313.122 429.554 311.859 425.294 311.86C419.583 311.861 414.106 314.13 410.068 318.168C406.03 322.206 403.761 327.683 403.76 333.394V333.39Z" fill="white"/>
<path d="M412.324 333.39C412.322 335.959 413.082 338.471 414.508 340.609C415.934 342.746 417.962 344.412 420.335 345.396C422.708 346.381 425.32 346.639 427.84 346.139C430.36 345.639 432.675 344.402 434.492 342.586C436.309 340.77 437.547 338.456 438.048 335.936C438.55 333.416 438.293 330.804 437.31 328.431C436.326 326.057 434.661 324.028 432.525 322.601C430.389 321.174 427.877 320.413 425.308 320.413C421.866 320.414 418.565 321.782 416.13 324.215C413.696 326.648 412.327 329.948 412.324 333.39Z" fill="#DAD1D1"/>
<path d="M443.67 322.147C441.498 318.605 438.348 315.766 434.601 313.971L436.537 309.962C441.063 312.14 444.866 315.576 447.49 319.859L443.653 322.147H443.67Z" fill="#EDE8E8"/>
<path d="M436.334 326.567C435.02 324.449 433.125 322.754 430.875 321.683L434.601 313.981C438.348 315.776 441.498 318.616 443.67 322.158L436.345 326.577L436.334 326.567Z" fill="white"/>
<path d="M425.304 333.205L430.886 321.673C433.136 322.744 435.031 324.439 436.345 326.557L425.315 333.184L425.304 333.205Z" fill="#EDE8E8"/>
<path d="M413.918 356.759C409.356 354.526 405.544 351.01 402.951 346.642L406.76 344.344C408.91 347.968 412.072 350.885 415.858 352.737L413.918 356.741V356.759Z" fill="#EDE8E8"/>
<path d="M415.858 352.754C412.072 350.903 408.91 347.985 406.76 344.361L414.086 339.952C415.376 342.15 417.283 343.922 419.569 345.048L415.847 352.754H415.858Z" fill="white"/>
<path d="M419.58 345.048C417.293 343.922 415.387 342.15 414.096 339.952L425.304 333.205L419.58 345.048Z" fill="#EDE8E8"/>
<path d="M91.1541 350.535L91.182 350.612H100.252C140.717 350.56 176.11 350.535 198.77 350.535L195.599 331.841L195.25 329.951C191.033 309.76 174.7 295.332 155.797 295.332H134.169C115.248 295.332 98.9367 309.76 94.7018 329.951L94.353 331.841L91.182 350.535H91.1541Z" fill="#2D2D2D"/>
<path d="M115.43 333.39C115.428 339.232 117.159 344.944 120.404 349.802C123.649 354.66 128.262 358.447 133.659 360.683C139.057 362.92 144.996 363.505 150.726 362.366C156.456 361.226 161.72 358.413 165.851 354.282C169.982 350.151 172.795 344.888 173.934 339.158C175.074 333.427 174.488 327.488 172.252 322.091C170.016 316.694 166.229 312.081 161.37 308.836C156.512 305.591 150.801 303.86 144.959 303.861C137.127 303.861 129.616 306.972 124.078 312.51C118.541 318.048 115.43 325.558 115.43 333.39Z" fill="#DAD1D1"/>
<path d="M116.452 333.418C116.447 327.781 118.115 322.269 121.243 317.58C124.371 312.891 128.819 309.234 134.025 307.072C139.232 304.911 144.962 304.342 150.491 305.437C156.021 306.531 161.102 309.241 165.091 313.224C169.081 317.206 171.8 322.282 172.905 327.809C174.01 333.337 173.452 339.068 171.3 344.278C169.148 349.488 165.499 353.943 160.816 357.08C156.132 360.217 150.623 361.894 144.986 361.9C137.426 361.907 130.172 358.91 124.821 353.568C119.469 348.227 116.459 340.979 116.452 333.418ZM98.6609 333.435C98.6692 342.593 101.393 351.543 106.488 359.153C111.583 366.762 118.82 372.69 127.284 376.187C135.748 379.683 145.058 380.591 154.038 378.796C163.019 377.001 171.265 372.583 177.734 366.101C184.203 359.619 188.605 351.365 190.382 342.381C192.16 333.398 191.234 324.089 187.72 315.631C184.207 307.174 178.265 299.949 170.646 294.869C163.026 289.789 154.071 287.083 144.913 287.093C138.832 287.098 132.812 288.301 127.196 290.634C121.58 292.967 116.479 296.383 112.183 300.687C107.888 304.992 104.482 310.1 102.162 315.721C99.8408 321.342 98.6501 327.365 98.6574 333.446L98.6609 333.435Z" fill="#1D1715"/>
<path d="M123.425 333.39C123.425 337.648 124.687 341.811 127.053 345.351C129.419 348.892 132.781 351.651 136.715 353.281C140.649 354.911 144.978 355.337 149.154 354.507C153.33 353.676 157.167 351.626 160.178 348.615C163.189 345.605 165.24 341.769 166.071 337.592C166.902 333.416 166.476 329.087 164.847 325.153C163.218 321.219 160.459 317.856 156.919 315.49C153.379 313.124 149.216 311.861 144.958 311.86C139.248 311.861 133.771 314.13 129.733 318.168C125.695 322.206 123.426 327.683 123.425 333.394V333.39Z" fill="white"/>
<path d="M131.982 333.39C131.982 335.957 132.743 338.465 134.169 340.6C135.595 342.734 137.621 344.397 139.992 345.379C142.364 346.361 144.973 346.618 147.49 346.117C150.007 345.617 152.319 344.381 154.134 342.566C155.949 340.751 157.185 338.439 157.686 335.922C158.186 333.404 157.929 330.795 156.947 328.424C155.965 326.053 154.302 324.026 152.168 322.6C150.034 321.174 147.525 320.413 144.958 320.413C141.517 320.414 138.217 321.782 135.783 324.215C133.35 326.649 131.983 329.949 131.982 333.39Z" fill="#DAD1D1"/>
<path d="M163.332 322.158C161.158 318.614 158.009 315.771 154.262 313.971L156.209 309.962C160.728 312.146 164.526 315.581 167.152 319.859L163.314 322.158H163.332Z" fill="#EDE8E8"/>
<path d="M155.999 326.567C154.688 324.451 152.797 322.755 150.55 321.683L154.265 313.981C158.013 315.782 161.162 318.624 163.335 322.168L156.01 326.577L155.999 326.567Z" fill="white"/>
<path d="M144.965 333.205L150.547 321.673C152.794 322.745 154.685 324.44 155.996 326.557L144.962 333.184L144.965 333.205Z" fill="#EDE8E8"/>
<path d="M133.576 356.759C129.017 354.52 125.205 351.006 122.605 346.642L126.425 344.344C128.575 347.964 131.732 350.88 135.512 352.737L133.576 356.741V356.759Z" fill="#EDE8E8"/>
<path d="M135.512 352.754C131.732 350.898 128.575 347.982 126.425 344.361L133.75 339.952C135.041 342.15 136.947 343.922 139.234 345.048L135.501 352.754H135.512Z" fill="white"/>
<path d="M139.245 345.048C136.958 343.922 135.052 342.15 133.761 339.952L144.966 333.205L139.245 345.048Z" fill="#EDE8E8"/>
<path d="M144.959 379.702C137.86 379.711 130.855 378.081 124.489 374.94C137.211 374.518 151.677 374.138 167.542 373.831C161.707 377.092 155.234 379.048 148.569 379.562C147.432 379.632 146.305 379.677 145.171 379.695C145.112 379.698 145.053 379.698 144.993 379.695L144.959 379.702Z" fill="#1D1816"/>
<path fill-rule="evenodd" clip-rule="evenodd" d="M308.109 190.144C320.633 195.205 336.836 202.493 351.714 211.332L347.287 226.653C331.973 222.467 316.122 216.952 298.921 208.05L308.102 190.144H308.109Z" fill="#FDF6E6"/>
<path fill-rule="evenodd" clip-rule="evenodd" d="M364.729 163.688L387.525 163.454C387.525 163.454 386.803 173.919 388.572 177.969C390.456 182.246 394.153 180.837 395.744 182.888C397.056 184.569 395.193 188.846 395.193 188.846C383.238 198.132 370.425 197.867 356.57 186.366C356.099 183.094 356.008 181.957 360.934 179.738C365.06 177.886 365.416 168.631 364.718 163.692L364.729 163.688Z" fill="#F2BFAC"/>
<path fill-rule="evenodd" clip-rule="evenodd" d="M358.924 163.646C367.216 176.703 382.097 180.362 393.647 165.24L358.924 163.646Z" fill="#DEAA96"/>
<path fill-rule="evenodd" clip-rule="evenodd" d="M384.891 391.147C384.543 398.643 386.5 404.403 390.518 408.63C391.102 409.245 391.865 409.659 392.698 409.813C397.959 410.765 402.093 410.594 405.183 409.38C406.351 408.917 407.342 408.096 408.016 407.035C408.689 405.975 409.01 404.729 408.933 403.475C408.885 402.381 408.603 401.311 408.107 400.335C404.866 394.332 401.688 392.193 402.382 387.603C395.601 385.614 389.782 386.839 384.891 391.147Z" fill="#8E8181"/>
<path fill-rule="evenodd" clip-rule="evenodd" d="M385.244 405.076C395.528 408.742 404.779 408.854 412.526 404.03L411.7 411.006L386.542 412.541L385.244 405.1V405.076Z" fill="#655F5F"/>
<path fill-rule="evenodd" clip-rule="evenodd" d="M361.488 379.039C363.372 382.07 365.057 385.394 365.517 390.55L381.086 382.757L378.232 373.189L361.488 379.035V379.039Z" fill="#F2BFAC"/>
<path fill-rule="evenodd" clip-rule="evenodd" d="M381.086 380.187C383.444 387.913 387.04 401.117 380.563 404.274C375.197 406.893 370.795 407.916 367.234 407.472C365.988 407.311 364.825 406.761 363.91 405.899C362.995 405.038 362.376 403.91 362.141 402.676C361.919 401.604 361.929 400.497 362.168 399.428C363.825 392.8 366.375 389.954 364.572 385.681C372.075 387.945 379.115 384.167 381.086 380.187Z" fill="#8E8181"/>
<path fill-rule="evenodd" clip-rule="evenodd" d="M385.495 398.371C376.425 404.462 367.512 406.852 358.795 404.078L361.317 410.626L386.085 405.903L385.505 398.371H385.495Z" fill="#655F5F"/>
<path fill-rule="evenodd" clip-rule="evenodd" d="M373 267.369L409.279 266.895C410.196 278.905 408.843 291.781 409.31 303.543C410.583 335.58 410.507 364.938 403.757 392.566C397.648 389.556 390.183 390.613 381.553 395.162C381.459 349.729 372.93 311.856 372.993 267.369H373Z" fill="#D2AEAE"/>
<path fill-rule="evenodd" clip-rule="evenodd" d="M395.196 281.581C393.644 290.19 396.511 295.705 404.409 297.704C398.95 293.043 395.929 287.657 395.196 281.581Z" fill="#CB9A9A"/>
<path fill-rule="evenodd" clip-rule="evenodd" d="M342.037 263.944L376.342 266.895C377.092 285.854 375.885 307.747 371.713 334.091C371.625 334.641 371.667 335.203 371.835 335.734C376.289 349.97 380.346 364.339 381.086 379.81C376.202 379.44 369.103 382.6 360.442 388.53C352.767 374.8 348.1 358.077 344.193 340.583C344.165 340.447 344.137 340.307 344.116 340.168C340.781 317.996 339.735 293.026 342.023 263.961L342.037 263.944Z" fill="#D2AEAE"/>
<path fill-rule="evenodd" clip-rule="evenodd" d="M375.825 300.285C376.523 294.132 369.051 310.266 364.478 326.127C362.433 333.216 364.561 341.692 366.152 347.755C369.274 359.615 373.307 368.832 380.489 388.52L388.816 375.132C378.85 352.698 373.275 323.11 375.825 300.292V300.285Z" fill="#CB9A9A"/>
<path fill-rule="evenodd" clip-rule="evenodd" d="M360.135 180.485C368.507 196.461 387.731 190.848 391.087 181.726C401.461 210.195 405.312 239.476 408.107 268.89C389.053 269.612 369.86 280.154 344.148 269.239C345.982 239.508 346.666 209.727 360.135 180.478V180.485Z" fill="#FDF6E6"/>
<path fill-rule="evenodd" clip-rule="evenodd" d="M350.51 239.7C357.836 242.264 368.301 243.038 382.223 241.824C371.65 247.019 361.08 246.788 350.51 239.7Z" fill="#E5D8BA"/>
<path fill-rule="evenodd" clip-rule="evenodd" d="M373.363 252.631C382.457 251.107 391.622 250.043 400.823 249.443C390.707 246.46 381.578 247.583 373.363 252.631Z" fill="#E5D8BA"/>
<path fill-rule="evenodd" clip-rule="evenodd" d="M390.784 180.485C400.087 180.649 408.714 183.059 413.235 188.696C419.629 196.66 427.802 206.595 433.24 217.81C433.371 218.081 433.461 218.37 433.505 218.668C434.203 223.528 440.528 266.305 440.528 266.305C436.579 268.618 429.592 268.942 420.449 267.948C416.13 256.318 413.88 242.298 412.669 230.072C412.628 229.644 412.497 229.229 412.286 228.855C412.074 228.481 411.787 228.155 411.442 227.898C409.945 226.812 408.599 225.531 407.44 224.089C407.317 223.933 407.147 223.821 406.954 223.77C406.762 223.719 406.559 223.731 406.374 223.805C406.189 223.879 406.034 224.011 405.931 224.182C405.827 224.352 405.782 224.55 405.801 224.748C407.374 239.539 410.563 257.675 414.469 274.915C406.492 279.77 397.23 280.454 387.361 279.167C383.796 245.567 382.994 211.723 390.77 180.485H390.784Z" fill="#D6D6D6"/>
<path fill-rule="evenodd" clip-rule="evenodd" d="M406.394 225.677C407.154 221.839 408.194 217.5 410.528 210.206C408.783 212.013 407.085 216.663 406.394 216.111C405.703 215.56 405.536 209.362 406.512 204.537C403.373 211.259 403.879 219.582 406.394 225.677Z" fill="#B3B3B3"/>
<path fill-rule="evenodd" clip-rule="evenodd" d="M411.11 229.577C413.491 227.15 416.243 225.116 419.262 223.552C415.935 223.573 413.179 225.461 411.11 229.577Z" fill="#B3B3B3"/>
<path fill-rule="evenodd" clip-rule="evenodd" d="M360.138 179.798C371.109 212.885 372.232 244.015 369.483 277.573C362.65 280.311 351.218 280.207 339.187 276.331C342.18 260.93 344.65 240.725 344.322 224.124C344.318 223.821 344.214 223.527 344.028 223.288C343.842 223.048 343.582 222.876 343.289 222.797C342.996 222.718 342.686 222.737 342.404 222.85C342.123 222.964 341.886 223.166 341.73 223.427L333.096 237.638C332.795 238.129 332.672 238.71 332.748 239.281C334.192 250.175 333.536 260.647 330.494 270.645C325.213 272.455 319.541 272.086 313.314 268.699C313.314 268.699 314.221 239.156 314.36 234.568C314.371 234.171 314.43 233.776 314.535 233.393C323.594 199.772 335.929 180.188 360.138 179.798Z" fill="#D6D6D6"/>
<path fill-rule="evenodd" clip-rule="evenodd" d="M342.208 222.666C340.861 215.934 341.859 209.463 344.622 200.518C343.865 202.336 342.829 212.511 344.273 209.616C345.086 207.98 347.688 198.474 349.823 196.032C347.782 201.757 345.288 207.523 346.516 212.923L350.179 209.379C346.659 215.78 344.563 220.577 343.551 224.142L342.208 222.666Z" fill="#B2B2B2"/>
<path fill-rule="evenodd" clip-rule="evenodd" d="M390.857 210.938C391.295 210.938 391.723 211.068 392.087 211.311C392.452 211.555 392.736 211.901 392.903 212.305C393.071 212.71 393.115 213.156 393.029 213.585C392.944 214.015 392.733 214.41 392.423 214.719C392.113 215.029 391.719 215.24 391.289 215.326C390.859 215.411 390.414 215.367 390.009 215.2C389.604 215.032 389.258 214.748 389.015 214.384C388.772 214.019 388.642 213.591 388.642 213.153C388.643 212.566 388.876 212.003 389.291 211.588C389.707 211.173 390.27 210.939 390.857 210.938Z" fill="#B3B3B3"/>
<path fill-rule="evenodd" clip-rule="evenodd" d="M390.916 225.677C391.354 225.677 391.782 225.806 392.147 226.05C392.511 226.293 392.795 226.639 392.963 227.044C393.13 227.449 393.174 227.894 393.089 228.324C393.003 228.753 392.792 229.148 392.482 229.458C392.173 229.768 391.778 229.979 391.348 230.064C390.918 230.15 390.473 230.106 390.068 229.938C389.664 229.77 389.318 229.487 389.074 229.122C388.831 228.758 388.701 228.33 388.701 227.892C388.701 227.304 388.934 226.741 389.35 226.325C389.765 225.91 390.329 225.677 390.916 225.677Z" fill="#B3B3B3"/>
<path fill-rule="evenodd" clip-rule="evenodd" d="M390.972 240.415C391.41 240.414 391.839 240.543 392.203 240.786C392.568 241.029 392.853 241.375 393.021 241.78C393.189 242.184 393.233 242.63 393.148 243.06C393.063 243.49 392.852 243.885 392.543 244.195C392.233 244.505 391.838 244.716 391.409 244.802C390.979 244.888 390.533 244.844 390.128 244.677C389.723 244.509 389.377 244.225 389.134 243.861C388.89 243.497 388.76 243.068 388.76 242.63C388.76 242.043 388.993 241.48 389.408 241.065C389.822 240.65 390.385 240.416 390.972 240.415Z" fill="#B3B3B3"/>
<path fill-rule="evenodd" clip-rule="evenodd" d="M391.045 255.153C391.483 255.153 391.911 255.283 392.276 255.526C392.64 255.77 392.924 256.116 393.091 256.521C393.259 256.925 393.303 257.371 393.218 257.8C393.132 258.23 392.921 258.625 392.611 258.935C392.301 259.244 391.907 259.455 391.477 259.541C391.047 259.626 390.602 259.582 390.197 259.415C389.793 259.247 389.447 258.963 389.203 258.599C388.96 258.235 388.83 257.806 388.83 257.368C388.83 256.781 389.063 256.217 389.479 255.802C389.894 255.386 390.457 255.153 391.045 255.153Z" fill="#B3B3B3"/>
<path fill-rule="evenodd" clip-rule="evenodd" d="M377.21 117.907C392.678 118.953 395.754 128.637 395.754 143.888C395.754 159.139 387.731 173.19 375.794 173.19C363.857 173.19 357.25 158.445 357.25 143.19C357.25 127.936 360.825 116.801 377.21 117.917V117.907Z" fill="#F2BEAC"/>
<path fill-rule="evenodd" clip-rule="evenodd" d="M389.88 122.714C384.56 129.541 397.45 131.784 395.517 147.83C409.429 128.079 398.022 123.792 389.88 122.714Z" fill="#E6E6E6"/>
<path fill-rule="evenodd" clip-rule="evenodd" d="M363.658 121.531C350.877 124.228 346.708 135.258 357.546 146.996C355.882 134.56 367.844 127.266 363.658 121.531Z" fill="#E6E6E6"/>
<path fill-rule="evenodd" clip-rule="evenodd" d="M366.85 131.784C372.755 130.425 378.89 130.405 384.804 131.724C378.902 129.788 372.913 129.942 366.85 131.784Z" fill="#E1A994"/>
<path fill-rule="evenodd" clip-rule="evenodd" d="M365.552 134.56C372.603 133.412 379.801 133.53 386.81 134.909C379.859 133.06 372.561 132.94 365.552 134.56Z" fill="#E1A994"/>
<path fill-rule="evenodd" clip-rule="evenodd" d="M372.874 136.27C376.014 135.38 379.206 135.391 382.502 136.863C379.534 135.862 376.314 135.698 372.874 136.27Z" fill="#E1A994"/>
<path fill-rule="evenodd" clip-rule="evenodd" d="M384.85 139.573C386.023 139.573 387.169 139.921 388.144 140.573C389.12 141.224 389.88 142.15 390.329 143.234C390.777 144.318 390.895 145.51 390.666 146.66C390.437 147.811 389.872 148.867 389.043 149.697C388.214 150.526 387.157 151.091 386.007 151.32C384.856 151.549 383.664 151.431 382.58 150.982C381.497 150.533 380.571 149.773 379.919 148.798C379.267 147.823 378.92 146.676 378.92 145.503C378.92 143.931 379.544 142.422 380.657 141.31C381.769 140.198 383.277 139.573 384.85 139.573Z" fill="#DAA693"/>
<path d="M384.85 139.573C386.023 139.573 387.169 139.921 388.144 140.573C389.12 141.224 389.88 142.15 390.329 143.234C390.777 144.318 390.895 145.51 390.666 146.66C390.437 147.811 389.872 148.867 389.043 149.697C388.214 150.526 387.157 151.091 386.007 151.32C384.856 151.549 383.664 151.431 382.58 150.982C381.497 150.533 380.571 149.773 379.919 148.798C379.267 147.823 378.92 146.676 378.92 145.503C378.92 143.931 379.544 142.422 380.657 141.31C381.769 140.198 383.277 139.573 384.85 139.573Z" stroke="#646464" stroke-width="2" stroke-linecap="round" stroke-linejoin="round"/>
<path fill-rule="evenodd" clip-rule="evenodd" d="M366.372 139.378C367.545 139.378 368.691 139.726 369.667 140.377C370.642 141.029 371.402 141.955 371.851 143.039C372.3 144.122 372.417 145.315 372.188 146.465C371.959 147.615 371.395 148.672 370.565 149.501C369.736 150.331 368.679 150.896 367.529 151.124C366.379 151.353 365.186 151.236 364.103 150.787C363.019 150.338 362.093 149.578 361.441 148.603C360.79 147.628 360.442 146.481 360.442 145.308C360.442 143.735 361.067 142.227 362.179 141.115C363.291 140.003 364.799 139.378 366.372 139.378Z" fill="#DAA693"/>
<path d="M366.072 139.378C367.245 139.378 368.391 139.726 369.367 140.377C370.342 141.029 371.102 141.955 371.551 143.039C372 144.122 372.117 145.315 371.888 146.465C371.659 147.615 371.095 148.672 370.265 149.501C369.436 150.331 368.379 150.896 367.229 151.124C366.078 151.353 364.886 151.236 363.803 150.787C362.719 150.338 361.793 149.578 361.141 148.603C360.489 147.628 360.142 146.481 360.142 145.308C360.142 143.735 360.766 142.227 361.879 141.115C362.991 140.003 364.499 139.378 366.072 139.378Z" stroke="#646464" stroke-width="2" stroke-linecap="round" stroke-linejoin="round"/>
<path fill-rule="evenodd" clip-rule="evenodd" d="M372.264 144.603C374.46 145.057 376.728 145.037 378.916 144.544L379.199 146.637C376.944 147.265 374.56 147.265 372.306 146.637L372.264 144.593V144.603Z" fill="#646464"/>
<path fill-rule="evenodd" clip-rule="evenodd" d="M390.494 143.77C392.42 142.298 393.839 141.22 395.761 141.642V143.71C393.839 143.41 392.713 144.237 390.79 145.831L390.501 143.77H390.494Z" fill="#646464"/>
<path fill-rule="evenodd" clip-rule="evenodd" d="M360.442 144.321C359.461 143.274 358.23 142.831 357.25 142.96V145.503C359.175 145.207 359.461 145.643 360.442 146.647V144.321Z" fill="#646464"/>
<path fill-rule="evenodd" clip-rule="evenodd" d="M373.411 160.008C374.877 159.251 377.475 159.111 378.916 160.357C377.5 162.607 374.123 162.359 373.411 160.008Z" fill="#E17C7C"/>
<path fill-rule="evenodd" clip-rule="evenodd" d="M382.324 145.503C383.454 147.457 385.349 147.649 387.581 145.503C386.245 143.818 383.395 143.354 382.324 145.503Z" fill="#E8D8D8"/>
<path fill-rule="evenodd" clip-rule="evenodd" d="M364.572 145.301C365.702 147.251 367.596 147.446 369.829 145.301C368.493 143.616 365.643 143.148 364.572 145.301Z" fill="#E8D8D8"/>
<path fill-rule="evenodd" clip-rule="evenodd" d="M384.619 144.349C384.881 144.354 385.135 144.437 385.35 144.586C385.565 144.735 385.731 144.945 385.827 145.188C385.924 145.431 385.946 145.698 385.892 145.954C385.837 146.21 385.708 146.444 385.522 146.627C385.335 146.81 385.098 146.934 384.841 146.983C384.584 147.032 384.318 147.004 384.077 146.903C383.835 146.801 383.63 146.631 383.485 146.413C383.34 146.195 383.263 145.939 383.262 145.678C383.267 145.322 383.412 144.982 383.667 144.733C383.921 144.484 384.264 144.346 384.619 144.349Z" fill="#70584F"/>
<path fill-rule="evenodd" clip-rule="evenodd" d="M366.874 144.146C367.136 144.152 367.39 144.234 367.605 144.384C367.82 144.533 367.986 144.742 368.082 144.986C368.178 145.229 368.201 145.495 368.146 145.751C368.092 146.007 367.963 146.241 367.776 146.425C367.589 146.608 367.353 146.731 367.096 146.781C366.838 146.83 366.573 146.802 366.331 146.7C366.09 146.599 365.884 146.429 365.739 146.211C365.595 145.993 365.517 145.737 365.517 145.475C365.522 145.119 365.667 144.78 365.921 144.531C366.176 144.282 366.518 144.143 366.874 144.146Z" fill="#70584F"/>
<path fill-rule="evenodd" clip-rule="evenodd" d="M387.693 145.353C385.785 144.373 384.026 144.349 382.436 145.413C382.952 143.637 385.879 143.41 387.693 145.353Z" fill="#4A3026"/>
<path fill-rule="evenodd" clip-rule="evenodd" d="M369.947 145.151C368.039 144.167 366.281 144.146 364.69 145.21C365.207 143.435 368.13 143.208 369.947 145.151Z" fill="#4A3026"/>
<path fill-rule="evenodd" clip-rule="evenodd" d="M369.417 146.839C367.704 148.004 365.58 148.256 364.014 147.118C365.798 147.609 367.693 147.511 369.417 146.839Z" fill="#C99494"/>
<path fill-rule="evenodd" clip-rule="evenodd" d="M382.966 147.558C384.675 148.053 386.238 148.043 387.633 147.439C386.238 148.44 384.689 148.601 382.966 147.558Z" fill="#CC9794"/>
<path d="M374.946 147.781C372.232 149.152 372.651 153.418 376.125 153.289" stroke="#CF8B72" stroke-width="2" stroke-linecap="round" stroke-linejoin="round"/>
<path fill-rule="evenodd" clip-rule="evenodd" d="M431.486 289.559L432.393 290.518L432.079 297.289H431.381L429.871 407.214C429.864 407.597 429.711 407.963 429.442 408.235C429.173 408.507 428.809 408.665 428.426 408.676L424.066 408.798C423.866 408.804 423.668 408.769 423.482 408.696C423.296 408.623 423.127 408.513 422.984 408.373C422.842 408.233 422.729 408.065 422.653 407.881C422.577 407.696 422.539 407.498 422.542 407.298C422.706 395.518 423.738 320.438 423.738 320.438H321.529L314.416 410.057C314.386 410.437 314.211 410.79 313.928 411.044C313.646 411.299 313.276 411.435 312.895 411.425L308.556 411.303C308.355 411.297 308.157 411.25 307.975 411.165C307.792 411.081 307.629 410.96 307.494 410.81C307.36 410.66 307.257 410.485 307.193 410.294C307.128 410.104 307.103 409.902 307.119 409.702L316.045 297.289H314.193L314.51 290.518L431.475 289.559H431.486ZM323.371 297.289L322.07 313.663H423.836L424.059 297.289H323.371Z" fill="#5A5A5A"/>
<path fill-rule="evenodd" clip-rule="evenodd" d="M434.699 289.558L435.651 290.563V297.651H434.953C434.953 297.651 438.142 399.243 438.567 412.767C438.574 412.963 438.541 413.157 438.472 413.34C438.403 413.522 438.299 413.689 438.165 413.831C438.031 413.973 437.87 414.088 437.692 414.167C437.514 414.247 437.322 414.29 437.126 414.295L432.773 414.424C432.38 414.436 431.999 414.291 431.713 414.021C431.428 413.752 431.26 413.38 431.249 412.987C430.875 401.127 428.388 321.875 428.388 321.875H326.196C326.196 321.875 323.633 403.502 323.252 415.712C323.24 416.113 323.068 416.494 322.775 416.769C322.482 417.045 322.091 417.192 321.69 417.18L317.591 417.062C317.14 417.049 316.714 416.858 316.404 416.531C316.094 416.204 315.926 415.768 315.937 415.317L319.631 297.658H317.79V290.581L319.844 290.563C319.809 279.648 327.867 281.005 327.142 290.5L426.958 289.642C426.414 281.94 434.486 280.185 434.709 289.576L434.699 289.558ZM326.957 297.651L326.42 314.804H428.165L427.628 297.651H326.957Z" fill="#989898"/>
<path fill-rule="evenodd" clip-rule="evenodd" d="M315.965 269.839C315.965 269.839 309.288 275.689 311.256 285.111C312.09 289.105 318.456 290.933 321.888 291.634C322.193 291.695 322.508 291.671 322.799 291.563C323.091 291.456 323.346 291.27 323.539 291.026C323.731 290.783 323.852 290.49 323.888 290.182C323.924 289.874 323.874 289.562 323.744 289.28C323.249 288.251 322.645 287.141 322.572 286.28C322.37 283.939 324.431 282.791 324.899 282.889C325.596 283.046 327.281 286.346 327.194 286.88C327.186 286.893 327.182 286.908 327.182 286.923C327.182 286.939 327.186 286.954 327.194 286.967C328.328 288.969 329.378 289.227 330.313 287.169C330.439 286.894 330.497 286.593 330.48 286.29C330.396 284.846 329.978 280.011 328.195 276.624C327.341 274.995 327.173 271.444 327.173 271.444C322.9 271.723 319.809 271.022 315.969 269.839H315.965Z" fill="#F2BFAC"/>
<path fill-rule="evenodd" clip-rule="evenodd" d="M321.477 279.341C319.478 283.06 319.586 287.047 320.639 291.153C319.244 287.106 318.571 283.105 321.477 279.341Z" fill="#DDA089"/>
<path fill-rule="evenodd" clip-rule="evenodd" d="M317.992 278.26C315.993 281.979 316.101 285.966 317.155 290.072C315.759 286.025 315.082 282.027 317.992 278.26Z" fill="#DDA089"/>
<path fill-rule="evenodd" clip-rule="evenodd" d="M314.831 276.931C312.829 280.65 312.937 284.633 313.994 288.742C312.599 284.696 311.922 280.695 314.831 276.931Z" fill="#DDA089"/>
<path fill-rule="evenodd" clip-rule="evenodd" d="M436.02 267.606C436.02 267.606 444.291 272.71 443.911 282.331C443.751 286.409 437.772 289.266 434.492 290.525C434.202 290.636 433.887 290.665 433.581 290.607C433.276 290.55 432.992 290.409 432.762 290.2C432.531 289.991 432.364 289.722 432.277 289.424C432.19 289.125 432.188 288.808 432.27 288.509C432.588 287.413 432.999 286.217 432.93 285.369C432.741 283.025 430.519 282.23 430.073 282.408C429.417 282.68 428.297 286.21 428.468 286.723C428.479 286.734 428.487 286.748 428.491 286.763C428.495 286.779 428.494 286.795 428.489 286.81C427.701 288.973 426.71 289.402 425.447 287.525C425.276 287.274 425.168 286.986 425.133 286.684C424.98 285.247 424.592 280.405 425.789 276.774C426.361 275.03 425.144 268.22 425.144 268.22C428.775 268.533 432.432 268.33 436.006 267.617L436.02 267.606Z" fill="#F2BFAC"/>
<path fill-rule="evenodd" clip-rule="evenodd" d="M432.874 278.333C435.462 281.668 436.014 285.617 435.665 289.845C436.362 285.627 436.362 281.567 432.874 278.333Z" fill="#DDA089"/>
<path fill-rule="evenodd" clip-rule="evenodd" d="M436.132 276.69C438.72 280.025 439.272 283.974 438.923 288.202C439.62 283.981 439.62 279.921 436.132 276.69Z" fill="#DDA089"/>
<path fill-rule="evenodd" clip-rule="evenodd" d="M439.031 274.856C441.619 278.191 442.171 282.139 441.822 286.367C442.519 282.15 442.519 278.089 439.031 274.856Z" fill="#DDA089"/>
<path fill-rule="evenodd" clip-rule="evenodd" d="M257.294 142.448L277.844 148.256C276.69 152.504 275.598 157.629 276.494 161.511C277.066 163.995 278.87 165.317 280.618 167.71C274.063 176.197 260.364 173.874 251.8 168.185C256.639 162.401 258.54 151.493 257.294 142.461V142.448Z" fill="#F8C9A2"/>
<path fill-rule="evenodd" clip-rule="evenodd" d="M254.082 137.142L256.091 148.835C261.637 158.138 270.899 163.092 279.948 160.291L283.14 150.607L254.082 137.142Z" fill="#E6B287"/>
<path fill-rule="evenodd" clip-rule="evenodd" d="M253.928 162.907C262.482 175.116 270.672 173.661 281.877 165.523L285.431 202.59L255.906 184.409L253.928 162.907Z" fill="#FDF6E6"/>
<path fill-rule="evenodd" clip-rule="evenodd" d="M283.14 164.703C295 166.158 305.758 180.07 314.207 191.564C309.417 195.795 303.487 203.878 302.824 212.717C292.185 208.995 287.238 204.397 282.78 199.723L283.129 164.703H283.14Z" fill="#A5C6B1"/>
<path fill-rule="evenodd" clip-rule="evenodd" d="M279.714 164.724C279.714 164.724 288.888 169.65 290.814 171.701C294.714 175.835 293.127 180.143 298.928 190.155C304.544 199.852 303.571 216.938 303.571 216.938L278.176 202.528L279.714 164.735V164.724Z" fill="#89B59A"/>
<path fill-rule="evenodd" clip-rule="evenodd" d="M226.433 393.648L246.215 394.122C245.169 397.991 245.842 403.457 246.69 406.681L225.303 405.634C226.304 402.54 227.636 397.998 226.433 393.645V393.648Z" fill="#F8C9A2"/>
<path fill-rule="evenodd" clip-rule="evenodd" d="M299.49 393.648L279.711 394.311C280.792 398.172 280.178 403.646 279.362 406.893L300.738 405.624C299.692 402.54 298.331 398.012 299.493 393.648H299.49Z" fill="#F8C9A2"/>
<path fill-rule="evenodd" clip-rule="evenodd" d="M227.79 258.45L298.924 264.129C298.924 264.129 304.75 317.947 302.343 351.292C301.129 368.106 304.328 401.835 304.328 401.835C299.301 396.404 288.63 396.16 276.745 399.707C276.745 399.707 269.838 359.549 269.838 347.033C269.838 334.517 266.887 303.572 264.819 297.666C262.75 291.76 261.33 301.444 259.209 313.493C257.088 325.541 252.829 347.27 253.537 352.231C254.245 357.191 249.069 400.89 249.069 400.89C241.883 397.712 233.259 397.053 223.555 398.291C221.661 379.203 224.535 357.062 225.107 335.016C225.826 307.238 221.755 277.252 227.807 258.45H227.79Z" fill="#A5C6B1"/>
<path fill-rule="evenodd" clip-rule="evenodd" d="M225.135 266.888L223.719 268.726C239.668 283.691 292.091 288.443 309.11 275.215L302.734 260.689C279.226 267.048 252.083 270.837 225.135 266.888Z" fill="#8AB599"/>
<path d="M229.387 272.469C234.051 316.339 225.201 357.369 227.615 397.548M296.357 274.594C301.157 316.907 298.007 357.481 300.784 398.612L296.357 274.594Z" stroke="white" stroke-linecap="round" stroke-linejoin="round"/>
<path fill-rule="evenodd" clip-rule="evenodd" d="M222.557 404.807C221.756 405.335 221.127 406.086 220.751 406.969C220.374 407.851 220.265 408.824 220.438 409.768C220.611 410.712 221.058 411.583 221.723 412.274C222.389 412.965 223.243 413.445 224.179 413.654C230.392 415.049 238.265 415.109 246.093 413.727C246.838 413.593 247.532 413.257 248.099 412.755C248.665 412.253 249.083 411.605 249.305 410.882C249.528 410.158 249.547 409.388 249.361 408.654C249.174 407.92 248.79 407.252 248.249 406.723C242.769 401.385 229.935 399.966 222.557 404.807Z" fill="#667069"/>
<path fill-rule="evenodd" clip-rule="evenodd" d="M276.676 404.807C275.874 405.335 275.246 406.086 274.869 406.969C274.492 407.851 274.384 408.824 274.557 409.768C274.73 410.712 275.177 411.583 275.842 412.274C276.507 412.965 277.361 413.445 278.298 413.654C284.511 415.049 292.384 415.109 300.212 413.727C300.957 413.593 301.65 413.257 302.217 412.755C302.784 412.253 303.201 411.605 303.424 410.882C303.646 410.158 303.666 409.388 303.479 408.654C303.293 407.92 302.908 407.252 302.367 406.723C296.887 401.385 284.054 399.966 276.676 404.807Z" fill="#657069"/>
<path fill-rule="evenodd" clip-rule="evenodd" d="M218.818 263.944C250.352 284.776 277.276 279.91 304.331 275.804C303.707 257.284 295.83 234.896 299.099 225.955C302.995 215.285 301.673 204.055 298.052 195.715C291.979 181.761 294.002 181.643 292.066 169.27C291.389 166.978 286.896 164.435 276.77 161.515C277.537 164.068 277.415 166.636 277.14 168.84C276.264 175.842 273.829 182.156 269.245 188.867C259.677 181.451 255.99 169.946 254.392 162.924C243.979 161.096 231.418 165.872 224.518 174.289C223.252 175.834 222.483 177.727 222.313 179.717C220.68 200.647 229.328 240.157 218.825 263.954L218.818 263.944Z" fill="#A5C6B1"/>
<path fill-rule="evenodd" clip-rule="evenodd" d="M213.99 192.028L211.865 263.944C225.752 274.733 246.491 251.511 252.023 224.389C253.841 215.483 247.837 195.233 257.936 197.769C264.079 199.311 269.448 196.929 267.616 193.681C251.008 164.093 217.447 166.915 213.99 192.028Z" fill="#8AB599"/>
<path fill-rule="evenodd" clip-rule="evenodd" d="M303.606 220.116C303.606 220.116 311.329 224.19 317.528 223.126C323.727 222.062 327.944 220.029 329.2 221.773C330.267 223.255 329.758 223.433 328.851 224.428C327.602 225.823 323.005 226.849 323.005 226.849C323.005 226.849 323.901 229.371 327.055 231.485C329.12 232.88 333.26 234.08 334.872 234.275C337.987 234.68 332.831 239.428 330.222 241.646C329.792 242.011 329.291 242.283 328.751 242.445C328.21 242.608 327.643 242.658 327.082 242.591C322.816 242.072 311.95 240.369 308.28 236.173C303.676 230.909 296.727 232.59 296.727 232.59L303.606 220.116Z" fill="#F8C9A2"/>
<path fill-rule="evenodd" clip-rule="evenodd" d="M320.053 230.581C324.818 234.418 330.082 237.066 336.264 237.579C329.849 237.903 324.581 235.217 320.053 230.581Z" fill="#E7AD7D"/>
<path fill-rule="evenodd" clip-rule="evenodd" d="M318.647 233.832C323.601 237.408 328.99 239.797 335.193 239.999C328.799 240.648 323.402 238.231 318.647 233.832Z" fill="#E7AD7D"/>
<path fill-rule="evenodd" clip-rule="evenodd" d="M315.885 236.968C321.201 239.975 326.824 241.754 333.009 241.269C326.73 242.619 321.096 240.816 315.885 236.968Z" fill="#E7AD7D"/>
<path fill-rule="evenodd" clip-rule="evenodd" d="M230.689 202.597C237.194 210.621 244.565 217.719 258.679 224.965C259.029 225.144 259.399 225.281 259.781 225.373L304.331 236.162C303.557 229.13 305.029 224.333 307.401 220.465C298.122 216.575 286.98 212.124 271.401 206.344L253.928 186.15L230.689 202.604V202.597Z" fill="#FDF6E6"/>
<path fill-rule="evenodd" clip-rule="evenodd" d="M227.092 172.088C241.045 163.217 264.829 192.401 264.829 192.401C255.585 191.281 236.378 201.586 233.824 211.332C233.824 211.332 207.662 184.447 227.092 172.088Z" fill="#A5C6B1"/>
<path fill-rule="evenodd" clip-rule="evenodd" d="M273.505 115.406C283.087 115.406 295.132 119.728 292.757 137.382C291.362 147.847 283.558 160.754 273.03 157.932C270.693 157.301 268.031 155.791 266.21 154.364C261.208 150.446 259.628 148.657 257.301 144.767C255.623 141.977 255.906 137.253 255.906 134.055C255.906 123.495 263.929 115.395 273.505 115.395V115.406Z" fill="#F8C9A2"/>
<path fill-rule="evenodd" clip-rule="evenodd" d="M280.701 135C281.817 135.495 282.445 136.493 282.135 137.229C281.824 137.965 280.638 138.16 279.519 137.665C278.399 137.17 277.774 136.172 278.085 135.436C278.395 134.7 279.581 134.505 280.701 135Z" fill="#F7F7F7"/>
<path fill-rule="evenodd" clip-rule="evenodd" d="M280.534 135.488C280.869 135.489 281.192 135.615 281.44 135.842C281.688 136.068 281.842 136.378 281.873 136.713C281.884 136.872 281.861 137.032 281.807 137.182C281.752 137.332 281.667 137.469 281.556 137.585C281.445 137.7 281.312 137.791 281.164 137.851C281.016 137.912 280.857 137.941 280.698 137.937C280.363 137.936 280.04 137.81 279.793 137.583C279.546 137.357 279.392 137.046 279.362 136.713C279.351 136.553 279.374 136.394 279.428 136.244C279.482 136.094 279.567 135.957 279.678 135.842C279.788 135.727 279.921 135.636 280.068 135.575C280.216 135.514 280.374 135.484 280.534 135.488Z" fill="#363125"/>
<path fill-rule="evenodd" clip-rule="evenodd" d="M289.293 138.233C290.409 138.729 291.037 139.726 290.727 140.462C290.416 141.198 289.23 141.394 288.11 140.898C286.991 140.403 286.366 139.405 286.677 138.669C286.987 137.933 288.173 137.738 289.293 138.233Z" fill="#F7F7F7"/>
<path fill-rule="evenodd" clip-rule="evenodd" d="M289.129 138.715C289.464 138.716 289.787 138.842 290.034 139.069C290.281 139.295 290.435 139.606 290.465 139.939C290.476 140.099 290.454 140.258 290.4 140.409C290.346 140.559 290.261 140.696 290.15 140.811C290.04 140.927 289.907 141.018 289.759 141.078C289.611 141.139 289.453 141.168 289.293 141.164C288.957 141.163 288.634 141.038 288.386 140.811C288.138 140.585 287.984 140.274 287.953 139.939C287.943 139.78 287.965 139.62 288.02 139.47C288.075 139.32 288.16 139.183 288.271 139.067C288.381 138.952 288.515 138.861 288.663 138.801C288.81 138.74 288.969 138.711 289.129 138.715Z" fill="#363125"/>
<path fill-rule="evenodd" clip-rule="evenodd" d="M278.001 135.478C279.805 134.857 281.667 135.314 282.219 136.873C282.351 134.32 279.428 133.475 278.001 135.478Z" fill="#282725"/>
<path fill-rule="evenodd" clip-rule="evenodd" d="M286.593 138.705C288.4 138.084 290.259 138.541 290.81 140.1C290.943 137.547 288.02 136.702 286.593 138.705Z" fill="#282725"/>
<path fill-rule="evenodd" clip-rule="evenodd" d="M262.007 104.54C268.157 104.54 273.149 108.931 273.149 114.342C273.149 119.752 268.157 124.144 262.007 124.144C255.857 124.144 250.869 119.752 250.869 114.342C250.869 108.931 255.861 104.54 262.007 104.54Z" fill="#56402E"/>
<path fill-rule="evenodd" clip-rule="evenodd" d="M252.048 123.949C252.048 123.949 252.076 114.618 259.042 113.791C261.763 113.47 263.497 111.185 266.2 109.081C267.47 108.094 272.828 106.988 271.084 106.35C268.816 105.534 275.455 106.699 274.98 109.186C274.506 111.673 263.643 120.998 261.871 121.35C260.099 121.702 252.041 123.949 252.041 123.949H252.048Z" fill="#8E6C51"/>
<path fill-rule="evenodd" clip-rule="evenodd" d="M293.057 132C293.057 132 301.391 121.723 293.057 115.406C286.384 110.344 284.015 112.099 282.125 107.383C280.234 102.666 271.496 107.854 267.243 109.978C262.991 112.102 261.812 115.884 258.268 115.413C254.723 114.942 256.614 120.373 252.125 122.738C247.635 125.104 247.241 127.762 247.904 132.855C249.358 143.756 257.671 146.763 257.671 146.763C257.671 142.577 258.986 139.873 261.568 138.042C261.568 138.042 260.926 136.228 261.146 134.724C261.494 132.485 263.071 130.504 266.322 132.729C268.565 134.264 269.218 133.584 269.218 133.584C269.218 133.584 269.312 129.049 275.919 126.673C287.737 122.442 293.057 132 293.057 132Z" fill="#56402E"/>
<path fill-rule="evenodd" clip-rule="evenodd" d="M291.407 125.839C295.398 117.575 284.999 116.19 277.338 109.304C277.886 111.534 280.129 113.49 284.608 115.866C291.962 119.738 291.703 121.901 291.407 125.839Z" fill="#8E6C51"/>
<path fill-rule="evenodd" clip-rule="evenodd" d="M286.209 123.715C275.678 120.384 274.795 112.789 259.635 119.225C272.134 105.917 277.516 116.867 286.209 123.715Z" fill="#8E6C51"/>
<path fill-rule="evenodd" clip-rule="evenodd" d="M274.987 123.596C266.42 128.218 259.827 120.638 252.662 128.438C258.986 116.634 263.775 120.202 274.987 123.596Z" fill="#8E6C51"/>
<path fill-rule="evenodd" clip-rule="evenodd" d="M278.067 149.107L282.229 150.956C280.091 152.4 277.551 150.289 278.067 149.107Z" fill="#E27D58"/>
<path d="M262.785 137.937C262.286 135.025 263.228 132.743 266.622 134.4M284.357 140.711C285.784 143.295 285.644 145.758 281.877 145.315L284.357 140.711Z" stroke="#DA9C69" stroke-width="2" stroke-linecap="round" stroke-linejoin="round"/>
</svg>
