<svg width="392" height="354" viewBox="0 0 392 354" fill="none" xmlns="http://www.w3.org/2000/svg">
<path fill-rule="evenodd" clip-rule="evenodd" d="M240.566 166.042C247.847 188.251 282.007 194.697 295.439 177.573C334.237 187.897 346.772 140.192 309.8 116.023C322.23 106.897 312.64 91.9644 301.267 89.3158C322.859 68.7324 297.581 54.9687 286.171 66.9779C283.16 50.0541 273.522 45.0559 257.561 51.4405C248.81 19.338 231.253 12.9701 205.666 30.0755C193.452 10.4745 160.515 20.2081 168.697 49.0143C157.957 37.0625 133.958 51.2517 153.638 66.0098C139.948 63.5358 127.822 93.4105 147.318 99.0303C123.863 129.605 143.899 183.453 212.362 158.835L240.568 166.042H240.566Z" fill="#BED7BE"/>
<path fill-rule="evenodd" clip-rule="evenodd" d="M146.381 99.9649C163.183 94.8591 174.826 100.749 183.058 109.694C174.601 95.3348 160.008 91.0775 146.381 99.9649Z" fill="#98B9A3"/>
<path fill-rule="evenodd" clip-rule="evenodd" d="M152.586 65.9238C162.578 69.5236 169.586 70.6614 178.282 69.0814C170.798 73.3028 159.423 72.0622 152.586 65.9238Z" fill="#98B9A3"/>
<path fill-rule="evenodd" clip-rule="evenodd" d="M206.111 30.2332C208.807 38.0019 207.28 46.9873 199.454 52.0859C209.529 49.5139 212.307 38.8744 206.111 30.2332Z" fill="#98B9A3"/>
<path fill-rule="evenodd" clip-rule="evenodd" d="M257.463 50.8717C252.025 54.266 247.93 61.559 248.966 66.8871C244.424 60.6721 248.815 51.0031 257.463 50.8717Z" fill="#98B9A3"/>
<path fill-rule="evenodd" clip-rule="evenodd" d="M286.604 66.409C289.977 78.8388 284.768 85.637 271.306 87.0473C280.805 83.6267 286.167 76.9552 286.604 66.409Z" fill="#98B9A3"/>
<path fill-rule="evenodd" clip-rule="evenodd" d="M309.908 116.913C296.474 115.956 283.038 119.812 269.604 130.509C280.012 116.226 293.672 112.419 309.908 116.913Z" fill="#98B9A3"/>
<path fill-rule="evenodd" clip-rule="evenodd" d="M261.756 279.376C237.105 233.701 241.847 165.497 244.761 157.974C247.811 150.086 260.638 145.673 268.555 148.774C273.775 150.82 290.441 160.264 299.61 163.594C299.753 163.642 299.91 163.636 300.049 163.576C300.187 163.516 300.299 163.406 300.362 163.269C300.425 163.131 300.435 162.975 300.39 162.831C300.344 162.687 300.247 162.564 300.117 162.487C290.842 157.305 285.739 151.833 286.171 145.994C292.41 145.963 298.362 144.689 303.992 143.505C305.634 143.161 307.51 143.367 309.167 143.211C309.33 143.186 309.479 143.105 309.589 142.982C309.7 142.859 309.764 142.702 309.772 142.537C309.78 142.372 309.731 142.21 309.633 142.077C309.534 141.944 309.394 141.849 309.234 141.808C307.905 141.519 306.604 141.091 305.543 141.211C298.372 141.928 295.929 140.957 291.215 141.144C291.215 141.144 291.524 138.349 293.127 137.204C294.966 135.883 296.651 133.889 297.956 132.082C298.05 131.949 298.093 131.786 298.076 131.624C298.059 131.462 297.983 131.312 297.863 131.202C297.743 131.091 297.587 131.029 297.424 131.025C297.261 131.022 297.103 131.078 296.978 131.183C293.371 134.291 287.797 138.593 283.621 139.525C280.413 140.243 272.864 138.648 266.888 138.784C255.522 139.04 244.78 140.496 244.78 140.496C244.78 140.496 243.162 122.934 246.398 117.025C249.635 111.116 257.141 106.34 264.204 107.475C272.221 108.764 285.593 107.858 291.853 107.315C291.98 107.319 292.103 107.273 292.196 107.186C292.289 107.1 292.343 106.98 292.347 106.853C292.351 106.726 292.305 106.603 292.218 106.51C292.131 106.418 292.011 106.363 291.884 106.359C285.254 105.491 276.108 105.774 271.805 102.683C271.805 102.683 275.037 99.9243 281.563 95.5858C286.805 92.1006 291.877 87.0833 291.877 87.0833C300.834 80.615 289.86 86.9016 279.464 92.8751C276.357 94.6631 271.576 95.9348 266.795 96.3077C254.879 97.2351 242.191 107.801 242.191 107.801C242.191 107.801 241.904 91.7445 244.773 84.8124C246.762 79.9863 255.111 72.5116 259.753 68.6082C259.844 68.5292 259.904 68.4201 259.921 68.3008C259.938 68.1815 259.912 68.0601 259.847 67.9586C259.782 67.8571 259.683 67.7824 259.567 67.748C259.452 67.7137 259.328 67.722 259.218 67.7715L239.916 76.8812C235.689 68.3644 235.771 64.1286 233.851 57.4117C231.203 48.1371 228.2 42.5915 224.744 38.5278C224.643 38.4036 224.499 38.3226 224.341 38.3013C224.182 38.2799 224.022 38.3199 223.892 38.4131C223.762 38.5063 223.673 38.6456 223.642 38.8024C223.612 38.9593 223.643 39.1219 223.728 39.2569C225.791 42.4648 228.031 45.1229 229.283 48.7419C232.489 58.0165 232.673 68.5819 231.26 75.4327C229.513 74.1227 226.398 74.2518 224.699 72.8726C220.056 69.1101 218.763 62.1996 211.924 58.0762C211.876 58.0482 211.82 58.0378 211.765 58.047C211.71 58.0561 211.66 58.0842 211.623 58.1264C211.588 58.1692 211.569 58.2228 211.569 58.2782C211.569 58.3336 211.588 58.3872 211.623 58.43C217.489 65.417 219.813 73.5419 227.125 81.4205C232.52 87.2363 226.962 101.817 226.962 101.817C226.962 101.817 211.681 91.08 206.644 83.3639C204.213 79.6469 203.52 70.7977 201.646 64.7955C200.958 62.5656 200.002 60.4274 198.799 58.4276C198.737 58.3242 198.638 58.2473 198.523 58.2112C198.408 58.1751 198.283 58.1825 198.173 58.2319C198.063 58.2813 197.975 58.3693 197.925 58.4793C197.875 58.5893 197.867 58.7138 197.903 58.8292C199.43 64.088 200.138 71.3427 198.636 72.5188C197.977 73.0351 196.303 67.2265 193.253 65.4266C190.771 63.9543 188.405 62.2945 186.175 60.4618C186.08 60.3871 185.961 60.3493 185.841 60.3554C185.72 60.3614 185.605 60.4108 185.518 60.4946C185.431 60.5784 185.377 60.6908 185.366 60.8113C185.355 60.9317 185.388 61.0521 185.458 61.1502C187.567 63.9063 189.92 66.4664 192.488 68.7994C195.954 71.8734 199.377 77.1967 202.992 84.6833C205.81 90.5326 215.132 101.87 215.132 101.87C215.132 101.87 210.273 101.949 207.44 100.269C202.695 97.4527 197.441 95.1197 193.803 91.1851C183.133 79.6779 171.812 73.6423 171.549 76.0709C171.54 76.1554 171.555 76.2407 171.593 76.3167C171.631 76.3926 171.691 76.4558 171.764 76.4988C173.009 77.235 179.851 81.3034 182.181 83.2133C184.208 84.8746 188.286 88.9502 187.289 89.978C186.293 91.0059 179.444 90.5517 175.24 91.0441C171.152 91.5222 167.079 92.5644 163.766 93.5946C163.668 93.6285 163.586 93.6982 163.536 93.7897C163.487 93.8813 163.474 93.988 163.5 94.0887C163.526 94.1894 163.589 94.2766 163.676 94.333C163.764 94.3894 163.869 94.4108 163.971 94.393C169.708 93.2265 177.809 92.1413 185.021 93.2169C195.357 94.7587 213.249 107.681 214.642 115.07C215.168 117.842 216.423 124.294 216.423 124.294C216.423 124.294 202.817 126.601 196.985 124.356C192.018 122.444 181.66 113.865 173.32 108.666C171.621 107.602 170.007 106.711 168.539 105.967C168.431 105.901 168.311 105.858 168.186 105.838C168.061 105.819 167.933 105.824 167.81 105.854C167.687 105.884 167.572 105.938 167.469 106.013C167.367 106.088 167.281 106.182 167.215 106.29C167.149 106.398 167.106 106.518 167.086 106.643C167.067 106.768 167.072 106.896 167.102 107.019C167.132 107.142 167.186 107.258 167.261 107.36C167.336 107.462 167.43 107.548 167.538 107.614C171.601 110.428 176.244 113.753 178.266 115.605C180.192 117.369 184.691 124.449 184.691 124.449C184.691 124.449 183.018 128.903 176.535 131.534C173.124 132.916 164.105 134.472 158.407 135.359C158.278 135.369 158.159 135.43 158.075 135.528C157.991 135.626 157.949 135.754 157.96 135.883C157.97 136.011 158.031 136.131 158.129 136.214C158.227 136.298 158.354 136.34 158.483 136.33C163.264 136.499 170.258 136.609 174.02 136.007C178.842 135.235 187.569 128.64 192.945 130.27C209.532 135.306 212.022 143.754 212.345 148.747C214.03 174.802 216.715 242.137 205.652 277.406C225.014 270.881 243.659 271.966 261.742 279.35L261.756 279.376Z" fill="#787880"/>
<path fill-rule="evenodd" clip-rule="evenodd" d="M203.804 129.285C231.533 143.931 208.088 215.556 221.77 244.613C212.379 214.016 231.315 137.298 203.804 129.285Z" fill="#5A5A6A"/>
<path fill-rule="evenodd" clip-rule="evenodd" d="M220.315 109.18C220.427 143.092 229.769 184.493 224.699 224.95C226.611 189.737 217.915 144.156 220.315 109.18Z" fill="#5A5A6A"/>
<path fill-rule="evenodd" clip-rule="evenodd" d="M221.529 100.395C227.266 111.732 229.127 125.976 227.113 143.128C227.471 130.459 225.705 116.291 221.529 100.395Z" fill="#5A5A6A"/>
<path fill-rule="evenodd" clip-rule="evenodd" d="M238.524 85.5749C228.631 115.304 234.394 140.921 231.26 177.566C231.834 141.488 227.436 100.565 238.524 85.5749Z" fill="#5A5A6A"/>
<path fill-rule="evenodd" clip-rule="evenodd" d="M247.751 143.775C235.477 155.775 236.947 199.392 238.039 231.741C234.573 204.897 233.483 153.213 247.751 143.775Z" fill="#5A5A6A"/>
<path fill-rule="evenodd" clip-rule="evenodd" d="M55.0809 267.3L60.005 269.212C63.8081 281.757 65.8925 294.603 62.8734 308.352H55.9342C62.0751 299.426 59.7827 284.252 55.0737 267.288L55.0809 267.3Z" fill="#6E6E70"/>
<path fill-rule="evenodd" clip-rule="evenodd" d="M103.689 267.3L98.7647 269.212C94.9616 281.757 92.8772 294.603 95.8963 308.352H102.828C96.6875 299.426 98.9774 284.252 103.689 267.288V267.3Z" fill="#6F6F70"/>
<path d="M79.3215 277.6C93.9219 277.6 105.776 281.37 105.776 286.014C105.776 290.659 93.9219 294.428 79.3215 294.428C64.7212 294.428 52.8698 290.659 52.8698 286.014C52.8698 281.37 64.7212 277.6 79.3215 277.6Z" stroke="#75757F" stroke-width="10" stroke-linecap="round" stroke-linejoin="round"/>
<path fill-rule="evenodd" clip-rule="evenodd" d="M42.8804 267.3L49.387 269.841C54.4068 286.416 57.1676 303.39 53.1662 321.556H44.0182C52.1335 309.762 49.1049 289.714 42.8804 267.295V267.3Z" fill="#93939B"/>
<path fill-rule="evenodd" clip-rule="evenodd" d="M115.887 267.3L109.383 269.841C104.363 286.416 101.602 303.39 105.604 321.556H114.751C106.636 309.762 109.665 289.714 115.887 267.295V267.3Z" fill="#93939B"/>
<path fill-rule="evenodd" clip-rule="evenodd" d="M79.3215 241.797C103.309 241.797 122.783 249.193 122.783 258.305C122.783 267.417 103.309 274.815 79.3215 274.815C55.3342 274.815 35.8552 267.417 35.8552 258.305C35.8552 249.193 55.3295 241.797 79.3144 241.797H79.3215Z" fill="#75757F"/>
<path fill-rule="evenodd" clip-rule="evenodd" d="M79.1207 236.823C101.681 236.823 119.996 244.233 119.996 253.333C119.996 262.433 101.681 269.841 79.1207 269.841C56.5605 269.841 38.2455 262.445 38.2455 253.333C38.2455 244.221 56.5605 236.823 79.1207 236.823Z" fill="#D7D7DD"/>
<path fill-rule="evenodd" clip-rule="evenodd" d="M94.4549 222.949C98.3153 222.949 101.451 223.819 101.451 224.89C101.451 225.961 98.3153 226.845 94.4549 226.845C90.5944 226.845 87.4583 225.975 87.4583 224.902C87.4583 223.829 90.5921 222.961 94.4549 222.961V222.949Z" fill="#747573"/>
<path fill-rule="evenodd" clip-rule="evenodd" d="M95.7218 233.875C96.7042 226.348 97.7751 217.143 101.024 210.808C98.1743 218.219 97.4261 227.185 96.5201 233.835L95.7218 233.875Z" fill="#A0B484"/>
<path fill-rule="evenodd" clip-rule="evenodd" d="M100.694 207.211C100.694 207.002 100.777 206.801 100.925 206.653C101.073 206.505 101.273 206.422 101.483 206.422C101.692 206.422 101.892 206.505 102.04 206.653C102.188 206.801 102.271 207.002 102.271 207.211C102.38 207.034 102.553 206.907 102.754 206.855C102.955 206.803 103.168 206.83 103.349 206.931C103.438 206.979 103.516 207.045 103.579 207.124C103.642 207.203 103.689 207.294 103.716 207.391C103.743 207.488 103.75 207.59 103.737 207.69C103.723 207.79 103.69 207.887 103.639 207.973C103.82 207.872 104.033 207.845 104.234 207.897C104.435 207.949 104.608 208.077 104.717 208.253C104.768 208.34 104.802 208.436 104.815 208.537C104.829 208.637 104.822 208.739 104.795 208.836C104.768 208.933 104.721 209.024 104.658 209.103C104.595 209.182 104.517 209.248 104.427 209.295C104.531 209.29 104.635 209.305 104.733 209.341C104.831 209.376 104.92 209.432 104.996 209.503C105.071 209.575 105.132 209.661 105.173 209.756C105.214 209.852 105.235 209.955 105.235 210.059C105.235 210.163 105.214 210.266 105.173 210.362C105.132 210.457 105.071 210.543 104.996 210.615C104.92 210.686 104.831 210.742 104.733 210.777C104.635 210.813 104.531 210.829 104.427 210.823C104.516 210.871 104.595 210.936 104.657 211.015C104.72 211.094 104.767 211.185 104.794 211.282C104.821 211.38 104.828 211.481 104.815 211.582C104.801 211.682 104.768 211.778 104.717 211.865C104.608 212.042 104.435 212.17 104.234 212.222C104.033 212.274 103.82 212.246 103.639 212.145C103.69 212.231 103.724 212.328 103.737 212.428C103.751 212.528 103.744 212.63 103.717 212.728C103.69 212.825 103.643 212.916 103.58 212.995C103.517 213.074 103.438 213.139 103.349 213.187C103.168 213.289 102.955 213.316 102.754 213.264C102.553 213.212 102.38 213.084 102.271 212.907C102.271 213.116 102.188 213.317 102.04 213.465C101.892 213.613 101.692 213.696 101.483 213.696C101.273 213.696 101.073 213.613 100.925 213.465C100.777 213.317 100.694 213.116 100.694 212.907C100.585 213.084 100.412 213.212 100.211 213.264C100.01 213.316 99.7967 213.289 99.6157 213.187C99.5268 213.139 99.4485 213.073 99.3856 212.994C99.3227 212.915 99.2765 212.824 99.2497 212.727C99.2229 212.63 99.2161 212.528 99.2297 212.428C99.2433 212.328 99.277 212.231 99.3288 212.145C99.1478 212.246 98.9344 212.274 98.7334 212.222C98.5324 212.17 98.3595 212.042 98.2508 211.865C98.1994 211.778 98.1661 211.682 98.1528 211.582C98.1396 211.481 98.1467 211.38 98.1737 211.282C98.2007 211.185 98.247 211.094 98.31 211.015C98.3729 210.936 98.4512 210.871 98.54 210.823C98.4361 210.829 98.3321 210.813 98.2344 210.777C98.1367 210.742 98.0473 210.686 97.9717 210.615C97.8961 210.543 97.8359 210.457 97.7947 210.362C97.7536 210.266 97.7323 210.163 97.7323 210.059C97.7323 209.955 97.7536 209.852 97.7947 209.756C97.8359 209.661 97.8961 209.575 97.9717 209.503C98.0473 209.432 98.1367 209.376 98.2344 209.341C98.3321 209.305 98.4361 209.29 98.54 209.295C98.4509 209.248 98.3724 209.182 98.3093 209.103C98.2462 209.024 98.1997 208.933 98.1726 208.836C98.1456 208.739 98.1386 208.637 98.152 208.537C98.1655 208.436 98.199 208.34 98.2508 208.253C98.3599 208.077 98.5328 207.949 98.7337 207.897C98.9345 207.845 99.1477 207.872 99.3288 207.973C99.277 207.887 99.2433 207.79 99.2297 207.69C99.2161 207.59 99.2229 207.489 99.2497 207.391C99.2765 207.294 99.3227 207.203 99.3856 207.124C99.4485 207.045 99.5268 206.979 99.6157 206.931C99.7968 206.83 100.01 206.803 100.211 206.855C100.412 206.907 100.585 207.034 100.694 207.211Z" fill="#F1B5B5"/>
<path fill-rule="evenodd" clip-rule="evenodd" d="M101.483 208.865C101.722 208.85 101.96 208.907 102.166 209.028C102.372 209.15 102.537 209.331 102.64 209.547C102.742 209.764 102.777 210.006 102.74 210.243C102.703 210.48 102.595 210.7 102.432 210.875C102.268 211.049 102.055 211.171 101.822 211.224C101.588 211.276 101.344 211.258 101.121 211.17C100.898 211.082 100.707 210.929 100.572 210.732C100.437 210.534 100.364 210.3 100.364 210.06C100.354 209.754 100.466 209.456 100.676 209.231C100.886 209.007 101.176 208.876 101.483 208.865Z" fill="white"/>
<path fill-rule="evenodd" clip-rule="evenodd" d="M95.3393 238.41C94.2517 230.899 92.7983 221.749 94.2134 214.769C93.47 222.657 95.1696 231.502 96.0946 238.157L95.3393 238.41Z" fill="#A0B484"/>
<path fill-rule="evenodd" clip-rule="evenodd" d="M92.9251 211.394C92.8686 211.192 92.8946 210.977 92.9973 210.794C93.0999 210.612 93.2709 210.478 93.4725 210.421C93.6741 210.365 93.8898 210.391 94.0723 210.493C94.2547 210.596 94.3889 210.767 94.4453 210.969C94.5024 210.77 94.6335 210.602 94.8115 210.498C94.9895 210.394 95.2008 210.362 95.4015 210.409C95.5001 210.431 95.5933 210.473 95.6754 210.532C95.7575 210.591 95.8269 210.666 95.8793 210.752C95.9318 210.839 95.9662 210.935 95.9807 211.035C95.9951 211.135 95.9891 211.237 95.9632 211.334C96.1099 211.188 96.3075 211.104 96.5146 211.1C96.7218 211.096 96.9224 211.172 97.0747 211.313C97.1477 211.383 97.2057 211.467 97.2454 211.56C97.285 211.653 97.3055 211.753 97.3055 211.854C97.3055 211.955 97.285 212.055 97.2454 212.148C97.2057 212.242 97.1477 212.326 97.0747 212.396C97.1722 212.365 97.275 212.354 97.3768 212.363C97.4787 212.373 97.5776 212.403 97.6676 212.452C97.7576 212.5 97.8369 212.567 97.9007 212.646C97.9646 212.726 98.0118 212.818 98.0394 212.917C98.0669 213.015 98.0744 213.118 98.0614 213.22C98.0483 213.321 98.015 213.419 97.9633 213.507C97.9117 213.596 97.8428 213.673 97.7608 213.734C97.6787 213.795 97.5853 213.839 97.4859 213.863C97.5845 213.886 97.6777 213.928 97.7597 213.987C97.8418 214.046 97.911 214.121 97.9632 214.208C98.0155 214.294 98.0497 214.391 98.0638 214.491C98.0778 214.591 98.0715 214.693 98.0452 214.791C97.9881 214.989 97.857 215.158 97.679 215.262C97.501 215.366 97.2898 215.397 97.0891 215.35C97.162 215.42 97.2201 215.504 97.2597 215.597C97.2994 215.69 97.3198 215.79 97.3198 215.892C97.3198 215.993 97.2994 216.093 97.2597 216.186C97.2201 216.279 97.162 216.363 97.0891 216.433C96.9416 216.579 96.7438 216.662 96.5364 216.666C96.3291 216.67 96.1281 216.595 95.9752 216.454C96.0223 216.653 95.9909 216.861 95.8875 217.037C95.7842 217.213 95.6169 217.341 95.4206 217.396C95.2244 217.451 95.0146 217.428 94.835 217.332C94.6554 217.236 94.5201 217.074 94.4573 216.88C94.4002 217.078 94.2691 217.247 94.0911 217.351C93.9131 217.455 93.7018 217.487 93.5011 217.439C93.4027 217.417 93.3098 217.375 93.228 217.316C93.1461 217.257 93.077 217.182 93.0248 217.096C92.9726 217.009 92.9383 216.913 92.9241 216.813C92.9098 216.713 92.9158 216.612 92.9418 216.514C92.7954 216.661 92.5977 216.745 92.3904 216.749C92.1831 216.753 91.9823 216.677 91.8303 216.536C91.7574 216.466 91.6994 216.382 91.6598 216.289C91.6201 216.196 91.5997 216.096 91.5997 215.996C91.5997 215.895 91.6201 215.795 91.6598 215.702C91.6994 215.609 91.7574 215.525 91.8303 215.455C91.7337 215.482 91.6328 215.49 91.5333 215.478C91.4338 215.466 91.3377 215.435 91.2503 215.385C91.163 215.336 91.0862 215.27 91.0243 215.191C90.9624 215.113 90.9167 215.022 90.8897 214.926C90.8627 214.829 90.8549 214.728 90.8669 214.629C90.8789 214.529 90.9104 214.433 90.9596 214.346C91.0088 214.259 91.0746 214.182 91.1535 214.12C91.2323 214.058 91.3226 214.012 91.4191 213.985C91.3205 213.963 91.2273 213.921 91.1453 213.862C91.0632 213.803 90.994 213.727 90.9418 213.641C90.8895 213.554 90.8553 213.458 90.8412 213.358C90.8272 213.257 90.8335 213.155 90.8598 213.058C90.9169 212.86 91.048 212.691 91.226 212.587C91.404 212.483 91.6152 212.451 91.8159 212.498C91.743 212.429 91.685 212.345 91.6454 212.252C91.6058 212.159 91.5854 212.059 91.5854 211.958C91.5854 211.857 91.6058 211.757 91.6454 211.665C91.685 211.572 91.743 211.488 91.8159 211.418C91.9621 211.271 92.1596 211.186 92.3669 211.182C92.5742 211.177 92.7751 211.253 92.9275 211.394H92.9251Z" fill="#D6AEAE"/>
<path fill-rule="evenodd" clip-rule="evenodd" d="M94.1322 212.776C94.3583 212.696 94.603 212.687 94.8346 212.749C95.0661 212.81 95.2739 212.94 95.4308 213.121C95.5877 213.302 95.6865 213.526 95.7145 213.764C95.7425 214.002 95.6983 214.243 95.5876 214.456C95.477 214.668 95.305 214.842 95.094 214.956C94.883 215.07 94.6428 215.117 94.4044 215.092C94.1661 215.068 93.9407 214.972 93.7574 214.818C93.5742 214.663 93.4416 214.457 93.3768 214.227C93.2853 213.934 93.3134 213.617 93.4549 213.345C93.5965 213.073 93.84 212.869 94.1322 212.776Z" fill="white"/>
<path fill-rule="evenodd" clip-rule="evenodd" d="M94.9138 233.818C93.9577 226.288 92.9274 217.086 89.7052 210.73C92.5259 218.14 93.2358 227.12 94.1155 233.773L94.9138 233.818Z" fill="#A0B484"/>
<path fill-rule="evenodd" clip-rule="evenodd" d="M90.0495 207.134C90.0495 206.925 89.9664 206.725 89.8184 206.577C89.6705 206.429 89.4699 206.346 89.2607 206.346C89.0515 206.346 88.8508 206.429 88.7029 206.577C88.5549 206.725 88.4718 206.925 88.4718 207.134C88.364 206.957 88.1916 206.829 87.9909 206.776C87.7903 206.724 87.5771 206.751 87.3962 206.852C87.3068 206.899 87.2279 206.964 87.1643 207.043C87.1007 207.121 87.0537 207.212 87.0262 207.309C86.9987 207.406 86.9913 207.508 87.0043 207.609C87.0174 207.709 87.0507 207.805 87.1022 207.892C86.9216 207.791 86.7088 207.762 86.5081 207.814C86.3073 207.865 86.134 207.991 86.0241 208.167C85.9718 208.254 85.9376 208.35 85.9237 208.45C85.9097 208.551 85.9162 208.653 85.9428 208.75C85.9694 208.848 86.0155 208.939 86.0784 209.018C86.1412 209.098 86.2196 209.163 86.3086 209.212C86.2047 209.206 86.1007 209.221 86.003 209.257C85.9053 209.293 85.8159 209.348 85.7403 209.42C85.6647 209.491 85.6044 209.577 85.5633 209.673C85.5221 209.768 85.5009 209.871 85.5009 209.975C85.5009 210.079 85.5221 210.182 85.5633 210.278C85.6044 210.374 85.6647 210.46 85.7403 210.531C85.8159 210.603 85.9053 210.658 86.003 210.694C86.1007 210.729 86.2047 210.745 86.3086 210.739C86.2194 210.786 86.1407 210.851 86.0773 210.93C86.014 211.009 85.9673 211.099 85.94 211.197C85.9127 211.294 85.9055 211.396 85.9187 211.496C85.9319 211.596 85.9654 211.692 86.0169 211.779C86.1244 211.956 86.2966 212.085 86.4973 212.138C86.698 212.192 86.9114 212.165 87.0926 212.063C87.0406 212.15 87.0067 212.246 86.993 212.347C86.9792 212.447 86.9857 212.549 87.0123 212.646C87.0389 212.744 87.0849 212.835 87.1475 212.914C87.2102 212.994 87.2883 213.06 87.3771 213.108C87.5576 213.21 87.7704 213.238 87.9712 213.187C88.1719 213.135 88.3452 213.009 88.4551 212.833C88.4551 213.042 88.5382 213.243 88.6861 213.391C88.8341 213.539 89.0347 213.622 89.2439 213.622C89.4531 213.622 89.6538 213.539 89.8017 213.391C89.9496 213.243 90.0327 213.042 90.0327 212.833C90.1415 213.01 90.3141 213.138 90.5148 213.191C90.7156 213.244 90.929 213.218 91.1108 213.118C91.1998 213.07 91.2783 213.004 91.3415 212.926C91.4047 212.847 91.4513 212.756 91.4785 212.659C91.5057 212.561 91.513 212.459 91.5 212.359C91.4869 212.259 91.4537 212.162 91.4024 212.075C91.5831 212.178 91.7966 212.207 91.9981 212.156C92.1996 212.105 92.3734 211.977 92.4829 211.8C92.5347 211.714 92.5684 211.617 92.582 211.517C92.5956 211.417 92.5888 211.315 92.562 211.218C92.5352 211.121 92.4889 211.03 92.426 210.951C92.3631 210.872 92.2849 210.806 92.196 210.758C92.2999 210.764 92.4039 210.749 92.5016 210.713C92.5993 210.677 92.6887 210.622 92.7643 210.55C92.8399 210.479 92.9001 210.393 92.9413 210.297C92.9825 210.202 93.0037 210.099 93.0037 209.995C93.0037 209.89 92.9825 209.788 92.9413 209.692C92.9001 209.596 92.8399 209.51 92.7643 209.439C92.6887 209.367 92.5993 209.312 92.5016 209.276C92.4039 209.24 92.2999 209.225 92.196 209.231C92.285 209.183 92.3635 209.118 92.4267 209.039C92.4899 208.96 92.5367 208.869 92.5641 208.772C92.5915 208.675 92.5991 208.573 92.5864 208.473C92.5737 208.373 92.5409 208.276 92.49 208.189C92.3813 208.012 92.2085 207.884 92.0076 207.831C91.8068 207.779 91.5934 207.806 91.412 207.907C91.4643 207.82 91.4984 207.724 91.5124 207.623C91.5264 207.523 91.5199 207.421 91.4933 207.323C91.4667 207.226 91.4206 207.134 91.3577 207.055C91.2948 206.976 91.2165 206.91 91.1275 206.862C90.9471 206.76 90.7341 206.731 90.5332 206.782C90.3323 206.834 90.1589 206.961 90.0495 207.137V207.134Z" fill="#D6AEAE"/>
<path fill-rule="evenodd" clip-rule="evenodd" d="M89.2535 208.786C89.0143 208.77 88.7757 208.826 88.5688 208.947C88.3619 209.068 88.1961 209.248 88.093 209.465C87.99 209.681 87.9544 209.924 87.991 210.161C88.0275 210.398 88.1344 210.618 88.2979 210.793C88.4613 210.969 88.6737 211.091 88.9075 211.144C89.1413 211.197 89.3856 211.179 89.6088 211.091C89.8319 211.004 90.0236 210.851 90.1589 210.653C90.2942 210.455 90.3668 210.221 90.3674 209.981C90.3771 209.675 90.2654 209.378 90.0567 209.154C89.848 208.93 89.5593 208.798 89.2535 208.786Z" fill="white"/>
<path fill-rule="evenodd" clip-rule="evenodd" d="M101.451 225.239C96.7879 226.714 92.1291 226.786 87.4583 225.239C90.4056 232.262 91.8948 239.366 90.9554 246.604C93.2884 247.668 95.6214 247.699 97.952 246.604C97.3879 239.137 98.779 232.059 101.451 225.239Z" fill="#BFC7B5"/>
<path fill-rule="evenodd" clip-rule="evenodd" d="M61.6257 237.958C65.8231 237.958 69.2318 239.086 69.2318 240.475C69.2318 241.864 65.8231 242.995 61.6257 242.995C57.4282 242.995 54.0219 241.866 54.0219 240.47C54.0219 239.074 57.4306 237.953 61.6304 237.953L61.6257 237.958Z" fill="#D3B4B2"/>
<path fill-rule="evenodd" clip-rule="evenodd" d="M61.8288 239.753C65.314 239.753 68.1418 240.776 68.1418 242.038C68.1418 243.301 65.314 244.326 61.8288 244.326C58.3437 244.326 55.5159 243.301 55.5159 242.038C55.5159 240.776 58.3437 239.753 61.8288 239.753Z" fill="#F6F6F6"/>
<path fill-rule="evenodd" clip-rule="evenodd" d="M68.6031 242.469C70.176 242.469 71.4548 243.647 71.4548 245.098C71.4548 246.549 70.176 247.728 68.6031 247.728C67.0302 247.728 65.749 246.549 65.749 245.098C65.749 243.647 67.0278 242.469 68.6031 242.469ZM68.6031 243.031C69.8437 243.031 70.8476 243.956 70.8476 245.098C70.8476 246.241 69.8461 247.163 68.6031 247.163C67.3601 247.163 66.3585 246.236 66.3585 245.093C66.3585 243.951 67.3649 243.026 68.6031 243.026V243.031Z" fill="#DDA6A3"/>
<path fill-rule="evenodd" clip-rule="evenodd" d="M69.2318 240.27C64.1045 243.25 59.0369 243.224 54.0171 240.27C54.582 243.656 55.88 246.877 57.8202 249.709C60.5739 250.307 63.1077 250.3 65.4287 249.709C67.3693 246.878 68.6673 243.656 69.2318 240.27Z" fill="#DDA6A3"/>
<path fill-rule="evenodd" clip-rule="evenodd" d="M55.6784 243.788C55.9157 243.784 56.1488 243.85 56.3482 243.979C56.5475 244.108 56.7041 244.293 56.7978 244.511C56.8916 244.729 56.9184 244.97 56.8747 245.203C56.831 245.436 56.7189 245.651 56.5527 245.821C56.3864 245.99 56.1735 246.106 55.9411 246.154C55.7087 246.202 55.4673 246.179 55.2477 246.09C55.028 246 54.8401 245.847 54.7078 245.65C54.5755 245.453 54.5048 245.221 54.5047 244.983C54.5047 244.67 54.6277 244.369 54.8472 244.146C55.0667 243.922 55.3652 243.794 55.6784 243.788Z" fill="white"/>
<path fill-rule="evenodd" clip-rule="evenodd" d="M60.6958 241.807C60.9153 241.81 61.1289 241.879 61.3096 242.004C61.4903 242.129 61.6301 242.304 61.7114 242.508C61.7927 242.712 61.8119 242.935 61.7666 243.15C61.7213 243.365 61.6135 243.562 61.4567 243.716C61.2999 243.869 61.1012 243.973 60.8855 244.015C60.6699 244.056 60.4468 244.032 60.2444 243.947C60.042 243.862 59.8693 243.719 59.7481 243.536C59.6268 243.353 59.5623 243.138 59.5627 242.918C59.564 242.771 59.5943 242.625 59.6519 242.489C59.7096 242.354 59.7934 242.231 59.8987 242.127C60.0039 242.024 60.1285 241.943 60.2653 241.888C60.4021 241.833 60.5483 241.805 60.6958 241.807Z" fill="white"/>
<path fill-rule="evenodd" clip-rule="evenodd" d="M60.2703 247.187C60.4892 247.174 60.707 247.228 60.8954 247.34C61.0837 247.452 61.2341 247.618 61.3268 247.817C61.4196 248.016 61.4506 248.238 61.4157 248.454C61.3809 248.671 61.2818 248.872 61.1313 249.031C60.9808 249.191 60.7859 249.302 60.5718 249.349C60.3577 249.397 60.1343 249.379 59.9305 249.298C59.7267 249.217 59.552 249.076 59.4288 248.895C59.3057 248.713 59.24 248.499 59.2401 248.28C59.2323 247.998 59.3364 247.725 59.5295 247.521C59.7226 247.316 59.989 247.196 60.2703 247.187Z" fill="white"/>
<path fill-rule="evenodd" clip-rule="evenodd" d="M64.9243 244.154C65.1284 244.173 65.3227 244.25 65.4835 244.377C65.6443 244.504 65.7647 244.675 65.8301 244.869C65.8954 245.063 65.9029 245.272 65.8516 245.471C65.8003 245.669 65.6924 245.848 65.541 245.986C65.3897 246.125 65.2015 246.216 64.9992 246.249C64.797 246.282 64.5896 246.255 64.4021 246.173C64.2146 246.09 64.0553 245.955 63.9434 245.783C63.8316 245.611 63.7721 245.411 63.7722 245.206C63.7864 244.914 63.9156 244.639 64.1314 244.442C64.3473 244.245 64.6323 244.142 64.9243 244.154Z" fill="white"/>
<path fill-rule="evenodd" clip-rule="evenodd" d="M68.768 241.847C68.9981 241.839 69.2255 241.899 69.421 242.021C69.6165 242.142 69.7712 242.32 69.8651 242.53C69.9591 242.74 69.988 242.974 69.9483 243.2C69.9085 243.427 69.8018 243.637 69.642 243.803C69.4821 243.968 69.2764 244.082 69.0511 244.13C68.8259 244.178 68.5915 244.158 68.3781 244.071C68.1647 243.985 67.9819 243.837 67.8533 243.646C67.7247 243.455 67.6562 243.23 67.6565 242.999C67.652 242.7 67.7664 242.41 67.9747 242.194C68.1829 241.978 68.4682 241.854 68.768 241.847Z" fill="white"/>
<path fill-rule="evenodd" clip-rule="evenodd" d="M76.9407 239.753C77.3118 239.739 77.6787 239.836 77.9943 240.032C78.3098 240.228 78.5596 240.513 78.7116 240.852C78.8635 241.191 78.9106 241.568 78.8469 241.934C78.7831 242.299 78.6114 242.638 78.3539 242.905C78.0963 243.173 77.7646 243.357 77.4014 243.435C77.0382 243.513 76.6601 243.48 76.3157 243.341C75.9713 243.202 75.6763 242.963 75.4686 242.655C75.261 242.347 75.1501 241.984 75.1503 241.613C75.1414 241.129 75.3249 240.661 75.6606 240.313C75.9963 239.964 76.4567 239.763 76.9407 239.753Z" fill="#F1B5B5"/>
<path fill-rule="evenodd" clip-rule="evenodd" d="M86.4663 247.728C87.0366 247.712 87.5985 247.868 88.0802 248.173C88.5619 248.479 88.9414 248.922 89.1703 249.444C89.3992 249.967 89.467 250.546 89.3651 251.107C89.2632 251.669 88.9962 252.187 88.5983 252.596C88.2003 253.005 87.6895 253.285 87.1311 253.402C86.5727 253.519 85.9921 253.467 85.4635 253.253C84.9349 253.038 84.4823 252.67 84.1636 252.197C83.8449 251.724 83.6745 251.167 83.6743 250.596C83.6648 249.846 83.9534 249.122 84.4769 248.584C85.0003 248.046 85.7159 247.738 86.4663 247.728ZM86.4065 248.404C86.8434 248.392 87.2741 248.51 87.6434 248.744C88.0128 248.977 88.304 249.316 88.4798 249.716C88.6556 250.116 88.7081 250.56 88.6305 250.99C88.5529 251.42 88.3487 251.817 88.0441 252.131C87.7395 252.444 87.3483 252.66 86.9206 252.75C86.4929 252.84 86.048 252.8 85.643 252.636C85.238 252.471 84.8911 252.19 84.6469 251.827C84.4027 251.465 84.2721 251.038 84.2719 250.601C84.2643 250.027 84.4847 249.473 84.8849 249.061C85.2851 248.649 85.8323 248.413 86.4065 248.404Z" fill="#E9BEBB"/>
<path fill-rule="evenodd" clip-rule="evenodd" d="M71.0126 249.195C67.188 250.352 65.6988 246.246 62.7826 246.348C62.6671 246.351 62.5537 246.38 62.4507 246.432C62.3478 246.485 62.2579 246.559 62.1877 246.651C62.1175 246.743 62.0688 246.849 62.0452 246.962C62.0215 247.075 62.0236 247.192 62.0511 247.304C62.0894 247.477 62.1324 247.658 62.1731 247.83C62.2198 248.032 62.3166 248.218 62.4545 248.371C62.5924 248.525 62.7669 248.642 62.9619 248.71C65.0893 249.475 66 253.876 69.1505 253.455L71.0126 249.205V249.195Z" fill="#FFDEDC"/>
<path fill-rule="evenodd" clip-rule="evenodd" d="M69.6381 247.969C68.3378 251.555 66.5306 250.567 64.2455 248.555C61.9603 246.542 59.1588 245.729 59.0345 247.027L69.9608 255.578L72.8747 249.183L69.6381 247.969Z" fill="#E6BEBE"/>
<path fill-rule="evenodd" clip-rule="evenodd" d="M77.0028 241.797C79.8713 241.797 82.1827 243.948 82.1827 246.604C82.1827 249.26 79.8617 251.413 77.0028 251.413C74.144 251.413 71.8229 249.262 71.8229 246.604C71.8229 243.946 74.144 241.797 77.0028 241.797Z" fill="#FFDEDC"/>
<path fill-rule="evenodd" clip-rule="evenodd" d="M70.5274 245.703C75.4611 246.881 80.1079 246.575 84.0425 245.942C85.0345 250.12 82.8473 252.986 76.9216 253.711C72.442 251.698 70.6899 249.006 70.5274 245.698V245.703Z" fill="#DDA6A3"/>
<path fill-rule="evenodd" clip-rule="evenodd" d="M86.4233 253.689C86.5174 254.436 86.4518 255.194 86.2307 255.914C86.0097 256.633 85.6382 257.297 85.141 257.863C84.6437 258.428 84.032 258.88 83.3465 259.191C82.6609 259.502 81.9172 259.664 81.1645 259.665H72.7265C71.9111 259.665 71.1067 259.478 70.3755 259.117C69.6443 258.756 69.006 258.232 68.5101 257.585C68.0143 256.937 67.6742 256.185 67.5162 255.385C67.3582 254.585 67.3866 253.759 67.5992 252.972C68.0438 251.313 69.0334 249.626 70.5704 247.895C70.809 247.627 71.1016 247.412 71.4292 247.265C71.7567 247.118 72.1117 247.042 72.4707 247.042H81.8625C82.2287 247.041 82.5907 247.12 82.9236 247.273C83.2566 247.426 83.5526 247.648 83.7915 247.926C85.2318 249.536 86.1487 251.546 86.4209 253.689H86.4233Z" fill="#FFDEDC"/>
<path fill-rule="evenodd" clip-rule="evenodd" d="M66.3179 253.474C73.9241 254.982 80.2944 254.985 87.6854 253.474L87.9244 254.93C79.9167 256.5 73.2954 256.651 66.153 254.767L66.3131 253.474H66.3179Z" fill="#DDA6A3"/>
<path fill-rule="evenodd" clip-rule="evenodd" d="M128.149 232.881L127.882 225.313L207.564 217.674L206.549 225.624L208.167 261.355L200.384 262.17L197.491 226.513L136.076 232.546L131.924 267.424L123.29 268.452L128.149 232.881Z" fill="#DFE2DB"/>
<path fill-rule="evenodd" clip-rule="evenodd" d="M205.382 190.051L132.952 196.242L126.075 228.311L133.87 227.429L137.391 200.066L204.718 194.434L205.382 190.051Z" fill="#DFE2DB"/>
<path fill-rule="evenodd" clip-rule="evenodd" d="M194.049 240.196C196.487 218.84 201.985 198.902 210.591 178.519L205.301 175.524C195.517 195.689 188.606 217.717 184.325 241.443L194.049 240.196Z" fill="#DFE2DB"/>
<path fill-rule="evenodd" clip-rule="evenodd" d="M186.254 219.586L169.84 221.159L249.408 279.283L265.822 277.712L186.254 219.586Z" fill="#F1B5B5"/>
<path fill-rule="evenodd" clip-rule="evenodd" d="M167.385 221.35L147.679 223.236L222.844 281.754L242.55 279.868L167.385 221.35Z" fill="#F1B5B5"/>
<path fill-rule="evenodd" clip-rule="evenodd" d="M145.575 225.959L125.161 227.914L197.573 284.699L217.986 282.746L145.575 225.959Z" fill="#F1B5B5"/>
<path fill-rule="evenodd" clip-rule="evenodd" d="M203.094 178.601L195.883 187.67L276.433 234.882L283.645 225.813L203.094 178.601Z" fill="#F1B5B5"/>
<path fill-rule="evenodd" clip-rule="evenodd" d="M193.49 187.782L190.16 198.763L270.88 250.144L274.21 239.161L193.49 187.782Z" fill="#F1B5B5"/>
<path fill-rule="evenodd" clip-rule="evenodd" d="M192.978 292.267L192.711 284.699L272.393 277.06L271.378 285.01L272.996 320.741L265.213 321.556L262.32 285.899L200.905 291.933L196.753 326.81L188.119 327.838L192.978 292.267Z" fill="#DFE2DB"/>
<path fill-rule="evenodd" clip-rule="evenodd" d="M191.391 203.597L190.16 216.309L268.994 272.25L270.225 259.538L191.391 203.597Z" fill="#F1B5B5"/>
<path fill-rule="evenodd" clip-rule="evenodd" d="M192.978 292.267L193.251 284.699L272.393 277.06L271.378 285.01L272.996 320.741L265.213 321.556L262.32 285.899L200.905 291.933L196.753 326.81L188.119 327.838L192.978 292.267Z" fill="#DFE2DB"/>
<path fill-rule="evenodd" clip-rule="evenodd" d="M272.393 277.06C274.839 255.704 280.337 235.766 288.932 215.388L283.645 212.396C273.861 232.561 266.951 254.588 262.669 278.315L272.393 277.067V277.06Z" fill="#DFE2DB"/>
<path fill-rule="evenodd" clip-rule="evenodd" d="M136.542 309.566C136.542 309.566 148.271 302.83 157.262 303.982C162.14 304.609 162.633 308.823 158.88 311.753C152.973 316.367 145.446 318.793 145.446 318.793L136.542 309.566Z" fill="#A79084"/>
<path fill-rule="evenodd" clip-rule="evenodd" d="M157.666 318.097C157.666 318.097 170.39 310.749 180.135 312.007C185.427 312.69 185.963 317.285 181.892 320.481C175.481 325.5 167.311 328.158 167.311 328.158L157.651 318.097H157.666Z" fill="#A79084"/>
<path fill-rule="evenodd" clip-rule="evenodd" d="M163.5 286.822C165.071 296.414 171.185 307.719 164.813 315.205C164.017 316.14 162.504 318.186 162.853 319.357C162.853 319.357 170.294 321.195 174.432 321.556C179.851 322.034 180.018 317.416 180.018 317.416C179.623 313.214 177.594 310.723 177.659 307.654C177.826 299.823 180.644 293.159 181.115 286.984L163.5 286.822Z" fill="#FFBF9F"/>
<path fill-rule="evenodd" clip-rule="evenodd" d="M141.892 273.457L158.242 276.947C158.768 283.208 156.884 288.218 155.498 296.113C154.037 304.434 159.181 305.605 158.784 308.756C158.094 314.227 145.876 315.535 141.49 309.726C147.832 302.39 143.816 287.855 141.894 273.467L141.892 273.457Z" fill="#FFBF9F"/>
<path fill-rule="evenodd" clip-rule="evenodd" d="M184.125 318.047C171.393 320.526 166.345 319.314 165.269 314.024C162.317 314.249 159.731 315.458 158.435 316.618C146.464 327.255 164.053 332.812 173.421 327.838C176.753 326.067 181.196 322.644 184.125 318.038V318.047Z" fill="#FFDEDC"/>
<path fill-rule="evenodd" clip-rule="evenodd" d="M161.034 308.94C150.729 312.267 143.13 312.272 142.054 306.98C138.837 307.31 135.571 308.777 134.07 310.326C125.035 319.632 139.528 324.341 148.427 319.613C151.761 317.844 158.944 314.507 161.034 308.942V308.94Z" fill="#FFDEDC"/>
<path fill-rule="evenodd" clip-rule="evenodd" d="M176.855 239.961L193.619 248.944C183.015 258.381 171.284 263.863 159.384 268.748C160.242 272.721 160.25 276.835 158.517 281.238C151.46 280.134 145.073 278.131 139.96 274.44C139.96 274.44 138.414 258.099 143.115 253.209C151.209 244.792 176.865 239.961 176.865 239.961H176.855Z" fill="#AAAAB9"/>
<path fill-rule="evenodd" clip-rule="evenodd" d="M151.831 283.169C150.59 278.42 150.413 273.13 153.325 266.31C153.532 265.829 153.868 265.415 154.298 265.115C167.335 255.996 179.963 250.971 192.378 248.089L190.679 260.712L163.849 275.645L158.751 284.264L151.819 283.172L151.831 283.169Z" fill="#8E8EA7"/>
<path fill-rule="evenodd" clip-rule="evenodd" d="M188.511 249.188L216.433 252.343C221.149 269.047 207.483 275.623 181.772 279.376C182.523 282.45 182.153 287.066 181.772 291.273C172.225 291.433 165.917 289.504 159.619 287.066C159.619 287.066 159.717 276.677 160.833 269.827C162.607 258.931 188.513 249.188 188.513 249.188H188.511Z" fill="#AAAAB9"/>
<path fill-rule="evenodd" clip-rule="evenodd" d="M190.088 183.276C190.088 183.276 190.841 188.6 189.355 191.262C188.456 192.874 184.335 190.744 182.035 192.909C179.736 195.075 179.253 202.71 179.253 202.71C187.251 210.734 199.949 209.212 210.968 202.559C210.968 202.559 212.426 198.238 210.701 196.679C208.865 195.022 203.668 194.936 203.391 192.948C202.894 189.405 204.333 182.638 204.333 182.638L190.088 183.286V183.276Z" fill="#FFBF9F"/>
<path fill-rule="evenodd" clip-rule="evenodd" d="M186.687 179.994L207.995 179.872L205.571 186.192C200.15 192.352 192.579 193.065 188.028 186.133L186.687 179.994Z" fill="#E8AB8D"/>
<path fill-rule="evenodd" clip-rule="evenodd" d="M197.444 157.924C211.143 160.157 210.022 169.637 208.889 175.651C207.476 183.157 199.167 188.87 195.39 188.518C189.892 188.007 184.476 182.963 184.476 175.326C184.476 167.689 186.998 156.225 197.444 157.924Z" fill="#FFBF9F"/>
<path fill-rule="evenodd" clip-rule="evenodd" d="M196.299 160.475C196.299 160.475 195.914 164.4 202.067 167.151C208.219 169.902 209.395 171.15 208.731 175.811C208.231 179.337 204.333 183.599 204.333 183.599C204.333 183.599 210.548 186.061 212.881 183.472C216.748 179.186 214.74 178.158 217.386 175.892C220.033 173.626 220.405 170.065 217.386 167.799C214.367 165.533 218.194 165.533 217.386 159.705C216.578 153.877 211.681 151.126 208.086 151.613C201.665 152.481 203.037 154.202 198.342 151.936C193.648 149.67 186.548 147.99 184.935 153.576C183.501 158.553 182.984 159.686 180.718 162.437C178.452 165.188 179.162 170.153 180.921 173.143C182.721 176.201 184.705 177.573 184.705 177.573C184.705 177.573 183.95 167.703 187.297 166.505C195.546 163.546 196.299 160.475 196.299 160.475Z" fill="#ECECEC"/>
<path fill-rule="evenodd" clip-rule="evenodd" d="M197.551 153.753C191.277 149.503 186.795 149.747 185.32 159.217C185.038 161.043 183.697 163.063 181.77 164.741C184.519 162.896 186.19 162.294 188.238 154.989C189.063 152.044 194.542 151.97 197.561 153.753H197.551Z" fill="white"/>
<path fill-rule="evenodd" clip-rule="evenodd" d="M197.066 156.303C192.931 155.046 190.373 158.651 188.021 162.92C190.328 156.891 193.139 153.598 197.066 156.303Z" fill="white"/>
<path fill-rule="evenodd" clip-rule="evenodd" d="M199.676 157.929C194.864 166.635 207.232 163.584 210.672 170.932C207.82 163.312 199.846 164.921 199.676 157.929Z" fill="white"/>
<path fill-rule="evenodd" clip-rule="evenodd" d="M202.165 154.967C213.199 149.708 216.074 157.993 214.85 169.548C214.745 156.447 209.878 152.866 202.165 154.967Z" fill="white"/>
<path fill-rule="evenodd" clip-rule="evenodd" d="M201.407 169.955C202.076 169.956 202.729 170.155 203.285 170.527C203.84 170.899 204.273 171.428 204.528 172.046C204.784 172.664 204.85 173.344 204.719 174C204.588 174.656 204.265 175.258 203.792 175.73C203.319 176.203 202.716 176.525 202.06 176.655C201.404 176.785 200.724 176.718 200.107 176.462C199.489 176.205 198.961 175.772 198.589 175.216C198.218 174.66 198.02 174.006 198.02 173.337C198.021 172.44 198.378 171.579 199.013 170.945C199.649 170.311 200.509 169.955 201.407 169.955Z" fill="#D59F85"/>
<path fill-rule="evenodd" clip-rule="evenodd" d="M190.22 168.305C190.889 168.306 191.542 168.505 192.098 168.878C192.653 169.25 193.086 169.779 193.341 170.397C193.597 171.015 193.663 171.695 193.532 172.351C193.401 173.006 193.078 173.609 192.605 174.081C192.132 174.554 191.529 174.875 190.873 175.005C190.217 175.136 189.537 175.068 188.92 174.812C188.302 174.556 187.774 174.122 187.403 173.566C187.031 173.01 186.833 172.356 186.833 171.688C186.834 170.79 187.191 169.93 187.827 169.296C188.462 168.662 189.322 168.305 190.22 168.305Z" fill="#D59F85"/>
<path d="M201.407 169.955C202.076 169.956 202.729 170.155 203.285 170.527C203.84 170.899 204.273 171.428 204.528 172.046C204.784 172.664 204.85 173.344 204.719 174C204.588 174.656 204.265 175.258 203.792 175.731C203.319 176.203 202.716 176.525 202.06 176.655C201.404 176.785 200.724 176.718 200.107 176.462C199.489 176.205 198.961 175.772 198.589 175.216C198.218 174.66 198.02 174.006 198.02 173.337C198.021 172.44 198.378 171.579 199.013 170.945C199.649 170.311 200.509 169.955 201.407 169.955V169.955ZM190.22 168.315C190.889 168.316 191.542 168.515 192.098 168.887C192.653 169.26 193.086 169.788 193.341 170.406C193.597 171.024 193.663 171.704 193.532 172.36C193.401 173.016 193.078 173.618 192.605 174.091C192.132 174.563 191.529 174.885 190.873 175.015C190.217 175.145 189.537 175.078 188.92 174.822C188.302 174.566 187.774 174.132 187.403 173.576C187.031 173.02 186.833 172.366 186.833 171.697C186.834 170.8 187.191 169.94 187.827 169.305C188.462 168.671 189.322 168.315 190.22 168.315V168.315Z" stroke="#787878" stroke-width="2" stroke-linecap="round" stroke-linejoin="round"/>
<path fill-rule="evenodd" clip-rule="evenodd" d="M193.476 171.688C195.077 171.391 196.765 171.817 198.204 172.493L198.063 173.555C196.43 172.713 194.893 172.096 193.088 172.881L193.476 171.685V171.688Z" fill="#787878"/>
<path fill-rule="evenodd" clip-rule="evenodd" d="M204.942 173.143L208.815 172.575C208.904 172.952 208.928 173.341 208.886 173.727L204.615 174.547C204.761 174.347 204.865 174.119 204.92 173.878C204.976 173.637 204.982 173.387 204.937 173.143H204.942Z" fill="#787878"/>
<path fill-rule="evenodd" clip-rule="evenodd" d="M187.053 170.658L185.444 168.822C185.306 169.176 185.199 169.541 185.126 169.914L186.852 172.12C186.818 171.624 186.887 171.126 187.053 170.658Z" fill="#787878"/>
<path d="M195.398 173.727C193.698 175.981 193.963 177.059 196.299 176.884" stroke="#D09370" stroke-width="2" stroke-linecap="round" stroke-linejoin="round"/>
<path fill-rule="evenodd" clip-rule="evenodd" d="M192.302 181.923C192.825 184.137 195.467 183.807 196.299 182.628C194.931 182.689 193.567 182.448 192.302 181.923Z" fill="#E17E61"/>
<path fill-rule="evenodd" clip-rule="evenodd" d="M201.66 172.218C202.447 172.381 203.001 172.936 202.896 173.438C202.791 173.939 202.064 174.229 201.278 174.066C200.491 173.904 199.937 173.349 200.042 172.847C200.147 172.345 200.871 172.056 201.66 172.218Z" fill="#F3DCD1"/>
<path fill-rule="evenodd" clip-rule="evenodd" d="M200.2 172.541C201.254 172.407 202.177 172.603 202.908 173.28C202.729 172.12 200.874 171.716 200.2 172.541Z" fill="#4A423E"/>
<path fill-rule="evenodd" clip-rule="evenodd" d="M201.39 172.429C201.532 172.429 201.671 172.471 201.789 172.55C201.906 172.628 201.998 172.74 202.053 172.871C202.107 173.002 202.121 173.147 202.093 173.286C202.066 173.425 201.998 173.553 201.897 173.653C201.797 173.753 201.669 173.822 201.53 173.849C201.391 173.877 201.247 173.863 201.116 173.808C200.985 173.754 200.873 173.662 200.794 173.544C200.715 173.426 200.673 173.288 200.673 173.146C200.673 172.956 200.749 172.773 200.883 172.639C201.018 172.504 201.2 172.429 201.39 172.429Z" fill="#423935"/>
<path fill-rule="evenodd" clip-rule="evenodd" d="M190.83 170.583C191.618 170.746 192.171 171.301 192.065 171.802C191.96 172.304 191.236 172.594 190.449 172.431C189.663 172.269 189.106 171.714 189.214 171.212C189.321 170.71 190.043 170.421 190.83 170.583Z" fill="#F3DCD1"/>
<path fill-rule="evenodd" clip-rule="evenodd" d="M189.371 170.911C190.426 170.777 191.348 170.973 192.077 171.65C191.898 170.49 190.045 170.086 189.371 170.911Z" fill="#4A423E"/>
<path fill-rule="evenodd" clip-rule="evenodd" d="M190.562 170.794C190.703 170.796 190.841 170.84 190.957 170.92C191.073 171.001 191.163 171.113 191.216 171.245C191.268 171.376 191.281 171.52 191.252 171.658C191.223 171.796 191.153 171.923 191.053 172.022C190.952 172.121 190.824 172.188 190.685 172.215C190.547 172.242 190.403 172.227 190.273 172.172C190.142 172.118 190.031 172.026 189.953 171.908C189.875 171.79 189.833 171.652 189.833 171.511C189.833 171.416 189.852 171.321 189.888 171.234C189.925 171.146 189.979 171.066 190.047 170.999C190.115 170.933 190.195 170.88 190.284 170.845C190.372 170.81 190.467 170.792 190.562 170.794Z" fill="#423935"/>
<path fill-rule="evenodd" clip-rule="evenodd" d="M219.588 206.742C215.555 196.844 205.767 194.908 205.767 194.908C205.767 194.908 199.676 207.483 189.199 205.789C181.311 204.512 185.838 192.415 185.838 192.415C171.523 200.429 172.88 223.47 174.185 243.222C181.995 251.194 202.284 256.706 217.159 257.303C217.159 257.303 225.361 220.905 219.588 206.742Z" fill="#F8F8F7"/>
<path fill-rule="evenodd" clip-rule="evenodd" d="M176.478 227.3C181.039 230.668 186.677 232.853 193.392 233.854C187.502 234.456 181.395 234.117 174.859 231.913L176.478 227.3Z" fill="#CACACA"/>
<path fill-rule="evenodd" clip-rule="evenodd" d="M199.382 240.375C193.043 242.232 186.541 240.078 179.958 237.901C185.432 240.081 190.033 242.741 200.037 242.442L199.389 240.384L199.382 240.375Z" fill="#CACACA"/>
<path fill-rule="evenodd" clip-rule="evenodd" d="M205.767 194.664C205.767 194.664 218.022 196.767 221.646 205.789C225.344 214.989 216.674 254.181 216.674 254.181L189.663 252.836C194.339 239.548 189.379 208.951 205.769 194.664H205.767Z" fill="#FFDEDC"/>
<path fill-rule="evenodd" clip-rule="evenodd" d="M220.121 210.519C220.121 210.519 211.571 201.572 206.111 214.16C204.531 217.803 204.964 226.245 203.945 237.54C203.467 242.83 197.068 244.711 191.516 253.493L222.191 259.687C229.066 243.348 231.081 234.958 220.126 210.519H220.121Z" fill="#E2C6C4"/>
<path fill-rule="evenodd" clip-rule="evenodd" d="M122.372 228.6C120.352 227.818 118.667 223.131 123.67 222.404C126.622 221.974 133.64 224.826 131.214 228.141C129.851 229.993 129.495 224.998 126.259 228.858V315.289H122.372V228.6Z" fill="#7A7A80"/>
<path fill-rule="evenodd" clip-rule="evenodd" d="M135.215 224.283C131.869 223.566 130.014 227.049 126.075 228.215C125.962 228.248 125.844 228.258 125.727 228.242C125.611 228.227 125.499 228.187 125.399 228.126C125.299 228.064 125.213 227.982 125.147 227.885C125.081 227.788 125.036 227.678 125.016 227.562C124.994 227.428 125.002 227.291 125.039 227.16C125.077 227.03 125.143 226.909 125.233 226.807C125.879 226.09 127.399 224.378 127.755 223.888C128.212 223.262 127.012 222.739 125.166 224.025C121.837 226.343 118.533 223.685 119.15 222.681C119.766 221.677 120.637 220.324 121.863 219.447C123.726 218.163 125.98 217.571 128.233 217.774C130.196 217.925 131.869 217.705 134.448 217.227L135.227 224.285L135.215 224.283Z" fill="#FFBF9F"/>
<path fill-rule="evenodd" clip-rule="evenodd" d="M187.842 192.293C177.446 188.167 165.133 205.53 155.003 208.198C147.045 210.292 136.119 213.094 130.059 216.27C129.216 219.234 129.868 222.696 132.909 226.953C142.494 227.393 152.082 227.089 161.667 224.52C162.229 224.37 162.762 224.128 163.245 223.802L178.194 213.698C177.955 207.407 180.125 202.401 183.548 196.863C184.478 195.359 185.248 193.679 187.851 192.297L187.842 192.293Z" fill="#FFDEDC"/>
<path fill-rule="evenodd" clip-rule="evenodd" d="M186.027 192.881C177.948 192.553 168.425 205.836 169.355 223.637C176.97 214.265 181.433 205.492 186.027 192.881Z" fill="#E2C6C4"/>
<path fill-rule="evenodd" clip-rule="evenodd" d="M188.814 191.688C187.657 191.372 177.255 201.092 176.798 232.133C176.714 237.87 173.982 243.463 173.982 243.463C173.851 241.993 171.463 241.79 171.377 240.384C169.582 211.6 175.428 197.788 185.054 192.231C186.011 191.676 187.371 191.619 188.814 191.688Z" fill="#FFDEDC"/>
<path fill-rule="evenodd" clip-rule="evenodd" d="M193.619 267.08L185.078 271.45L183.042 274.507C182.682 275.046 182.177 275.471 181.584 275.733C180.991 275.994 180.336 276.08 179.695 275.982C178.93 275.866 178.201 275.577 177.564 275.138C176.927 274.698 176.398 274.12 176.017 273.446C175.637 272.772 175.414 272.021 175.367 271.248C175.319 270.476 175.448 269.703 175.744 268.987C175.765 268.935 175.785 268.889 175.801 268.854C175.828 268.784 175.868 268.72 175.918 268.665C177.491 266.879 179.112 264.24 181.486 263.306C184.309 262.166 187.326 261.579 190.371 261.575L193.609 267.073L193.619 267.08Z" fill="#FFBF9F"/>
<path fill-rule="evenodd" clip-rule="evenodd" d="M175.383 271.349C176.43 269.829 178.665 267.826 181.008 266.413C178.667 267.317 176.428 269.368 175.383 271.349Z" fill="#D99D7F"/>
<path fill-rule="evenodd" clip-rule="evenodd" d="M176.44 273.735C177.489 272.214 179.721 270.211 182.064 268.799C179.724 269.702 177.484 271.753 176.44 273.735Z" fill="#D99D7F"/>
<path fill-rule="evenodd" clip-rule="evenodd" d="M178.682 276.01C179.504 274.356 181.428 272.057 183.548 270.326C181.361 271.552 179.435 273.9 178.682 276.01Z" fill="#D99D7F"/>
<path fill-rule="evenodd" clip-rule="evenodd" d="M222.27 209.898C220.721 205.552 212.572 202.918 208.915 211.112C204.328 221.391 209.632 237.645 204.823 242.612C200.773 246.793 194.544 249.986 186.092 260.461C188.004 264.486 190.538 267.312 193.741 268.748C203.953 264.647 212.625 258.709 219.865 251.031C220.473 250.382 220.883 249.572 221.046 248.698C222.079 242.961 225.855 219.99 222.258 209.898H222.27Z" fill="#FFDEDC"/>
<path fill-rule="evenodd" clip-rule="evenodd" d="M193.476 263.693C194.245 263.693 194.872 264.245 194.872 264.924C194.872 265.603 194.245 266.157 193.476 266.157C192.706 266.157 192.08 265.605 192.08 264.924C192.08 264.243 192.704 263.693 193.476 263.693Z" fill="#E2C6C4"/>
<path fill-rule="evenodd" clip-rule="evenodd" d="M134.718 222.404C135.488 222.404 136.114 222.956 136.114 223.638C136.114 224.319 135.488 224.869 134.718 224.869C133.948 224.869 133.322 224.316 133.322 223.638C133.322 222.959 133.946 222.404 134.718 222.404Z" fill="#E2C6C4"/>
<path fill-rule="evenodd" clip-rule="evenodd" d="M173.463 234.803C174.233 234.803 174.859 235.355 174.859 236.036C174.859 236.718 174.233 237.267 173.463 237.267C172.694 237.267 172.068 236.715 172.068 236.036C172.068 235.357 172.691 234.803 173.463 234.803Z" fill="#E2C6C4"/>
<path fill-rule="evenodd" clip-rule="evenodd" d="M174.018 227.3C174.788 227.3 175.414 227.852 175.414 228.531C175.414 229.209 174.788 229.764 174.018 229.764C173.248 229.764 172.622 229.212 172.622 228.531C172.622 227.849 173.248 227.3 174.018 227.3Z" fill="#E2C6C4"/>
<path fill-rule="evenodd" clip-rule="evenodd" d="M174.816 221.128C175.586 221.128 176.212 221.68 176.212 222.361C176.212 223.042 175.586 223.592 174.816 223.592C174.047 223.592 173.42 223.04 173.42 222.361C173.42 221.682 174.044 221.128 174.816 221.128Z" fill="#E2C6C4"/>
<path fill-rule="evenodd" clip-rule="evenodd" d="M175.402 213.885C176.174 213.885 176.798 214.437 176.798 215.116C176.798 215.795 176.174 216.349 175.402 216.349C174.63 216.349 174.006 215.797 174.006 215.116C174.006 214.435 174.632 213.885 175.402 213.885Z" fill="#E2C6C4"/>
<path fill-rule="evenodd" clip-rule="evenodd" d="M272.393 247.027L199.963 253.218L192.926 284.924L200.924 284.083L204.404 257.043L271.731 251.414L272.393 247.027Z" fill="#DFE2DB"/>
</svg>
