<svg fill="none" version="1.1" viewBox="0 0 296.06 309.85" xmlns="http://www.w3.org/2000/svg">
 <g clip-rule="evenodd" fill-rule="evenodd">
  <path d="m204.71 146.21c7.281 22.209 41.441 28.655 54.873 11.531 38.798 10.324 51.333-37.381 14.361-61.55 12.43-9.126 2.84-24.059-8.533-26.707 21.592-20.583-3.686-34.347-15.096-22.338-3.011-16.924-12.649-21.922-28.61-15.537-8.751-32.102-26.308-38.47-51.895-21.365-12.214-19.601-45.151-9.8674-36.969 18.939-10.74-11.952-34.739 2.2374-15.059 16.996-13.69-2.474-25.816 27.401-6.32 33.02-23.455 30.575-3.419 84.423 65.044 59.805l28.206 7.207z" fill="#bed7be"/>
  <g fill="#98b9a3">
   <path d="m110.53 80.133c16.802-5.1058 28.445 0.7841 36.677 9.7291-8.457-14.359-23.05-18.616-36.677-9.7291z"/>
   <path d="m116.73 46.092c9.992 3.5998 17 4.7376 25.696 3.1576-7.484 4.2214-18.859 2.9808-25.696-3.1576z"/>
   <path d="m170.26 10.401c2.696 7.7687 1.169 16.754-6.657 21.853 10.075-2.572 12.853-13.212 6.657-21.853z"/>
   <path d="m221.61 31.04c-5.438 3.3943-9.533 10.687-8.497 16.015-4.542-6.215-0.151-15.884 8.497-16.015z"/>
   <path d="m250.75 46.577c3.373 12.43-1.836 19.228-15.298 20.638 9.499-3.4206 14.861-10.092 15.298-20.638z"/>
   <path d="m274.05 97.081c-13.434-0.957-26.87 2.899-40.304 13.596 10.408-14.283 24.068-18.09 40.304-13.596z"/>
  </g>
  <path d="m225.9 259.54c-24.651-45.675-19.909-113.88-16.995-121.4 3.05-7.888 15.877-12.301 23.794-9.2 5.22 2.046 21.886 11.49 31.055 14.82 0.143 0.048 0.3 0.042 0.439-0.018 0.138-0.06 0.25-0.17 0.313-0.307 0.063-0.138 0.073-0.294 0.028-0.438-0.046-0.144-0.143-0.267-0.273-0.344-9.275-5.182-14.378-10.654-13.946-16.493 6.239-0.031 12.191-1.305 17.821-2.489 1.642-0.344 3.518-0.138 5.175-0.294 0.163-0.025 0.312-0.106 0.422-0.229 0.111-0.123 0.175-0.28 0.183-0.445s-0.041-0.327-0.139-0.46c-0.099-0.133-0.239-0.228-0.399-0.269-1.329-0.289-2.63-0.717-3.691-0.597-7.171 0.717-9.614-0.254-14.328-0.067 0 0 0.309-2.795 1.912-3.94 1.839-1.321 3.524-3.315 4.829-5.122 0.094-0.133 0.137-0.296 0.12-0.458s-0.093-0.312-0.213-0.422c-0.12-0.111-0.276-0.173-0.439-0.177-0.163-3e-3 -0.321 0.053-0.446 0.158-3.607 3.108-9.181 7.41-13.357 8.342-3.208 0.718-10.757-0.877-16.733-0.741-11.366 0.256-22.108 1.712-22.108 1.712s-1.618-17.562 1.618-23.471c3.237-5.909 10.743-10.685 17.806-9.55 8.017 1.289 21.389 0.383 27.649-0.16 0.127 4e-3 0.25-0.042 0.343-0.129 0.093-0.086 0.147-0.206 0.151-0.333s-0.042-0.25-0.129-0.343c-0.087-0.092-0.207-0.147-0.334-0.151-6.63-0.868-15.776-0.585-20.079-3.676 0 0 3.232-2.7587 9.758-7.0972 5.242-3.4852 10.314-8.5025 10.314-8.5025 8.957-6.4683-2.017-0.1817-12.413 5.7918-3.107 1.788-7.888 3.0597-12.669 3.4326-11.916 0.9274-24.604 11.493-24.604 11.493s-0.287-16.056 2.582-22.989c1.989-4.8261 10.338-12.301 14.98-16.204 0.091-0.079 0.151-0.1881 0.168-0.3074s-9e-3 -0.2407-0.074-0.3422-0.164-0.1762-0.28-0.2106c-0.115-0.0343-0.239-0.026-0.349 0.0235l-19.302 9.1097c-4.227-8.5168-4.145-12.753-6.065-19.47-2.648-9.2746-5.651-14.82-9.107-18.884-0.101-0.1242-0.245-0.2052-0.403-0.2265-0.159-0.0214-0.319 0.0186-0.449 0.1118s-0.219 0.2325-0.25 0.3893c-0.03 0.1569 1e-3 0.3195 0.086 0.4545 2.063 3.2079 4.303 5.866 5.555 9.485 3.206 9.2746 3.39 19.84 1.977 26.691-1.747-1.31-4.862-1.1809-6.561-2.5601-4.643-3.7625-5.936-10.673-12.775-14.796-0.048-0.028-0.104-0.0384-0.159-0.0292-0.055 0.0091-0.105 0.0372-0.142 0.0794-0.035 0.0428-0.054 0.0964-0.054 0.1518s0.019 0.109 0.054 0.1518c5.866 6.987 8.19 15.112 15.502 22.99 5.395 5.8158-0.163 20.396-0.163 20.396s-15.281-10.737-20.318-18.453c-2.431-3.717-3.124-12.566-4.998-18.568-0.688-2.2299-1.644-4.3681-2.847-6.3679-0.062-0.1034-0.161-0.1803-0.276-0.2164s-0.24-0.0287-0.35 0.0207-0.198 0.1374-0.248 0.2474-0.058 0.2345-0.022 0.3499c1.527 5.2588 2.235 12.514 0.733 13.69-0.659 0.5163-2.333-5.2923-5.383-7.0922-2.482-1.4723-4.848-3.1321-7.078-4.9648-0.095-0.0747-0.214-0.1125-0.334-0.1064-0.121 6e-3 -0.236 0.0554-0.323 0.1392s-0.141 0.1962-0.152 0.3167c-0.011 0.1204 0.022 0.2408 0.092 0.3389 2.109 2.7561 4.462 5.3162 7.03 7.6492 3.466 3.074 6.889 8.3973 10.504 15.884 2.818 5.8493 12.14 17.187 12.14 17.187s-4.859 0.079-7.692-1.601c-4.745-2.8163-9.999-5.1493-13.637-9.0839-10.67-11.507-21.991-17.543-22.254-15.114-9e-3 0.0845 6e-3 0.1698 0.044 0.2458 0.038 0.0759 0.098 0.1391 0.171 0.1821 1.245 0.7362 8.087 4.8046 10.417 6.7145 2.027 1.6613 6.105 5.7369 5.108 6.7647-0.996 1.0279-7.845 0.5737-12.049 1.0661-4.088 0.4781-8.161 1.5203-11.474 2.5505-0.098 0.0339-0.18 0.1036-0.23 0.1951-0.049 0.0916-0.062 0.1983-0.036 0.299s0.089 0.1879 0.176 0.2443c0.088 0.0564 0.193 0.0778 0.295 0.06 5.737-1.1665 13.838-2.2517 21.05-1.1761 10.336 1.5418 28.228 14.464 29.621 21.853 0.526 2.772 1.781 9.224 1.781 9.224s-13.606 2.307-19.438 0.062c-4.967-1.912-15.325-10.491-23.665-15.69-1.699-1.064-3.313-1.955-4.781-2.699-0.108-0.066-0.228-0.109-0.353-0.129-0.125-0.019-0.253-0.014-0.376 0.016s-0.238 0.084-0.341 0.159c-0.102 0.075-0.188 0.169-0.254 0.277s-0.109 0.228-0.129 0.353c-0.019 0.125-0.014 0.253 0.016 0.376s0.084 0.239 0.159 0.341 0.169 0.188 0.277 0.254c4.063 2.814 8.706 6.139 10.728 7.991 1.926 1.764 6.425 8.844 6.425 8.844s-1.673 4.454-8.156 7.085c-3.411 1.382-12.43 2.938-18.128 3.825-0.129 0.01-0.248 0.071-0.332 0.169s-0.126 0.226-0.115 0.355c0.01 0.128 0.071 0.248 0.169 0.331 0.098 0.084 0.225 0.126 0.354 0.116 4.781 0.169 11.775 0.279 15.537-0.323 4.822-0.772 13.549-7.367 18.925-5.737 16.587 5.036 19.077 13.484 19.4 18.477 1.685 26.055 4.37 93.39-6.693 128.66 19.362-6.525 38.007-5.44 56.09 1.944z" fill="#787880"/>
  <g fill="#5a5a6a">
   <path d="m167.95 109.45c27.729 14.646 4.284 86.271 17.966 115.33-9.391-30.597 9.545-107.32-17.966-115.33z"/>
   <path d="m184.46 89.348c0.112 33.912 9.454 75.313 4.384 115.77 1.912-35.213-6.784-80.794-4.384-115.77z"/>
   <path d="m185.67 80.563c5.737 11.337 7.598 25.581 5.584 42.733 0.358-12.669-1.408-26.837-5.584-42.733z"/>
   <path d="m202.67 65.743c-9.893 29.729-4.13 55.346-7.264 91.991 0.574-36.078-3.824-77.001 7.264-91.991z"/>
   <path d="m211.9 123.94c-12.274 12-10.804 55.617-9.712 87.966-3.466-26.844-4.556-78.528 9.712-87.966z"/>
  </g>
  <path d="m19.226 247.47 4.9241 1.912c3.8031 12.545 5.8875 25.391 2.8684 39.14h-6.9392c6.1409-8.926 3.8485-24.1-0.8605-41.064z" fill="#6e6e70"/>
  <path d="m67.834 247.47-4.9243 1.912c-3.8031 12.545-5.8875 25.391-2.8684 39.14h6.9317c-6.1405-8.926-3.8506-24.1 0.861-41.064z" fill="#6f6f70"/>
 </g>
 <path d="m43.466 257.77c14.6 0 26.454 3.77 26.454 8.414 0 4.645-11.854 8.414-26.454 8.414-14.6 0-26.452-3.769-26.452-8.414 0-4.644 11.851-8.414 26.452-8.414z" stroke="#75757f" stroke-linecap="round" stroke-linejoin="round" stroke-width="10"/>
 <g clip-rule="evenodd" fill-rule="evenodd">
  <path d="m7.0252 247.47 6.5066 2.541c5.0198 16.575 7.7806 33.549 3.7792 51.715h-9.148c8.1153-11.794 5.0867-31.842-1.1378-54.261z" fill="#93939b"/>
  <path d="m80.032 247.47-6.504 2.541c-5.02 16.575-7.781 33.549-3.779 51.715h9.147c-8.115-11.794-5.086-31.842 1.136-54.261z" fill="#93939b"/>
  <path d="m43.466 221.97c23.988 0 43.462 7.396 43.462 16.508s-19.474 16.51-43.462 16.51c-23.987 0-43.466-7.398-43.466-16.51s19.474-16.508 43.459-16.508z" fill="#75757f"/>
  <path d="m43.266 216.99c22.56 0 40.875 7.41 40.875 16.51s-18.315 16.508-40.875 16.508c-22.56 0-40.875-7.396-40.875-16.508s18.315-16.51 40.875-16.51z" fill="#d7d7dd"/>
  <path d="m58.6 203.12c3.8604 0 6.9961 0.87 6.9961 1.941s-3.1357 1.955-6.9961 1.955c-3.8605 0-6.9966-0.87-6.9966-1.943s3.1338-1.941 6.9966-1.941z" fill="#747573"/>
  <path d="m59.867 214.04c0.9824-7.527 2.0533-16.732 5.3022-23.067-2.8497 7.411-3.5979 16.377-4.5039 23.027z" fill="#a0b484"/>
  <path d="m64.839 187.38c0-0.209 0.083-0.41 0.231-0.558s0.348-0.231 0.558-0.231c0.209 0 0.409 0.083 0.557 0.231s0.231 0.349 0.231 0.558c0.109-0.177 0.282-0.304 0.483-0.356s0.414-0.025 0.595 0.076c0.089 0.048 0.167 0.114 0.23 0.193s0.11 0.17 0.137 0.267 0.034 0.199 0.021 0.299c-0.014 0.1-0.047 0.197-0.098 0.283 0.181-0.101 0.394-0.128 0.595-0.076s0.374 0.18 0.483 0.356c0.051 0.087 0.085 0.183 0.098 0.284 0.014 0.1 7e-3 0.202-0.02 0.299s-0.074 0.188-0.137 0.267-0.141 0.145-0.231 0.192c0.104-5e-3 0.208 0.01 0.306 0.046 0.098 0.035 0.187 0.091 0.263 0.162 0.075 0.072 0.136 0.158 0.177 0.253 0.041 0.096 0.062 0.199 0.062 0.303s-0.021 0.207-0.062 0.303c-0.041 0.095-0.102 0.181-0.177 0.253-0.076 0.071-0.165 0.127-0.263 0.162-0.098 0.036-0.202 0.052-0.306 0.046 0.089 0.048 0.168 0.113 0.23 0.192 0.063 0.079 0.11 0.17 0.137 0.267 0.027 0.098 0.034 0.199 0.021 0.3-0.014 0.1-0.047 0.196-0.098 0.283-0.109 0.177-0.282 0.305-0.483 0.357s-0.414 0.024-0.595-0.077c0.051 0.086 0.085 0.183 0.098 0.283 0.014 0.1 7e-3 0.202-0.02 0.3-0.027 0.097-0.074 0.188-0.137 0.267s-0.142 0.144-0.231 0.192c-0.181 0.102-0.394 0.129-0.595 0.077s-0.374-0.18-0.483-0.357c0 0.209-0.083 0.41-0.231 0.558s-0.348 0.231-0.557 0.231c-0.21 0-0.41-0.083-0.558-0.231s-0.231-0.349-0.231-0.558c-0.109 0.177-0.282 0.305-0.483 0.357s-0.4143 0.025-0.5953-0.077c-0.0889-0.048-0.1672-0.114-0.2301-0.193s-0.1091-0.17-0.1359-0.267-0.0336-0.199-0.02-0.299 0.0473-0.197 0.0991-0.283c-0.181 0.101-0.3944 0.129-0.5954 0.077s-0.3739-0.18-0.4826-0.357c-0.0514-0.087-0.0847-0.183-0.098-0.283-0.0132-0.101-0.0061-0.202 0.0209-0.3 0.027-0.097 0.0733-0.188 0.1363-0.267 0.0629-0.079 0.1412-0.144 0.23-0.192-0.1039 6e-3 -0.2079-0.01-0.3056-0.046-0.0977-0.035-0.1871-0.091-0.2627-0.162-0.0756-0.072-0.1358-0.158-0.177-0.253-0.0411-0.096-0.0624-0.199-0.0624-0.303s0.0213-0.207 0.0624-0.303c0.0412-0.095 0.1014-0.181 0.177-0.253 0.0756-0.071 0.165-0.127 0.2627-0.162 0.0977-0.036 0.2017-0.051 0.3056-0.046-0.0891-0.047-0.1676-0.113-0.2307-0.192s-0.1096-0.17-0.1367-0.267c-0.027-0.097-0.034-0.199-0.0206-0.299 0.0135-0.101 0.047-0.197 0.0988-0.284 0.1091-0.176 0.282-0.304 0.4829-0.356 0.2008-0.052 0.414-0.025 0.5951 0.076-0.0518-0.086-0.0855-0.183-0.0991-0.283s-0.0068-0.201 0.02-0.299c0.0268-0.097 0.073-0.188 0.1359-0.267s0.1412-0.145 0.2301-0.193c0.1811-0.101 0.3943-0.128 0.5953-0.076s0.374 0.179 0.483 0.356z" fill="#f1b5b5"/>
  <path d="m65.628 189.03c0.239-0.015 0.477 0.042 0.683 0.163 0.206 0.122 0.371 0.303 0.474 0.519 0.102 0.217 0.137 0.459 0.1 0.696s-0.145 0.457-0.308 0.632c-0.164 0.174-0.377 0.296-0.61 0.349-0.234 0.052-0.478 0.034-0.701-0.054s-0.414-0.241-0.549-0.438c-0.135-0.198-0.208-0.432-0.208-0.672-0.01-0.306 0.102-0.604 0.312-0.829 0.21-0.224 0.5-0.355 0.807-0.366z" fill="#fff"/>
  <path d="m59.484 218.58c-1.0876-7.511-2.541-16.661-1.1259-23.641-0.7434 7.888 0.9562 16.733 1.8812 23.388z" fill="#a0b484"/>
  <path d="m57.07 191.56c-0.0565-0.202-0.0305-0.417 0.0722-0.6 0.1026-0.182 0.2736-0.316 0.4752-0.373 0.2016-0.056 0.4173-0.03 0.5998 0.072 0.1824 0.103 0.3166 0.274 0.373 0.476 0.0571-0.199 0.1882-0.367 0.3662-0.471s0.3893-0.136 0.59-0.089c0.0986 0.022 0.1918 0.064 0.2739 0.123s0.1515 0.134 0.2039 0.22c0.0525 0.087 0.0869 0.183 0.1014 0.283 0.0144 0.1 0.0084 0.202-0.0175 0.299 0.1467-0.146 0.3443-0.23 0.5514-0.234 0.2072-4e-3 0.4078 0.072 0.5601 0.213 0.073 0.07 0.131 0.154 0.1707 0.247 0.0396 0.093 0.0601 0.193 0.0601 0.294s-0.0205 0.201-0.0601 0.294c-0.0397 0.094-0.0977 0.178-0.1707 0.248 0.0975-0.031 0.2003-0.042 0.3021-0.033 0.1019 0.01 0.2008 0.04 0.2908 0.089 0.09 0.048 0.1693 0.115 0.2331 0.194 0.0639 0.08 0.1111 0.172 0.1387 0.271 0.0275 0.098 0.035 0.201 0.022 0.303-0.0131 0.101-0.0464 0.199-0.0981 0.287-0.0516 0.089-0.1205 0.166-0.2025 0.227-0.0821 0.061-0.1755 0.105-0.2749 0.129 0.0986 0.023 0.1918 0.065 0.2738 0.124 0.0821 0.059 0.1513 0.134 0.2035 0.221 0.0523 0.086 0.0865 0.183 0.1006 0.283 0.014 0.1 0.0077 0.202-0.0186 0.3-0.0571 0.198-0.1882 0.367-0.3662 0.471s-0.3892 0.135-0.5899 0.088c0.0729 0.07 0.131 0.154 0.1706 0.247 0.0397 0.093 0.0601 0.193 0.0601 0.295 0 0.101-0.0204 0.201-0.0601 0.294-0.0396 0.093-0.0977 0.177-0.1706 0.247-0.1475 0.146-0.3453 0.229-0.5527 0.233-0.2073 4e-3 -0.4083-0.071-0.5612-0.212 0.0471 0.199 0.0157 0.407-0.0877 0.583-0.1033 0.176-0.2706 0.304-0.4669 0.359-0.1962 0.055-0.406 0.032-0.5856-0.064s-0.3149-0.258-0.3777-0.452c-0.0571 0.198-0.1882 0.367-0.3662 0.471s-0.3893 0.136-0.59 0.088c-0.0984-0.022-0.1913-0.064-0.2731-0.123-0.0819-0.059-0.151-0.134-0.2032-0.22-0.0522-0.087-0.0865-0.183-0.1007-0.283-0.0143-0.1-0.0083-0.201 0.0177-0.299-0.1464 0.147-0.3441 0.231-0.5514 0.235s-0.4081-0.072-0.5601-0.213c-0.0729-0.07-0.1309-0.154-0.1705-0.247-0.0397-0.093-0.0601-0.193-0.0601-0.293 0-0.101 0.0204-0.201 0.0601-0.294 0.0396-0.093 0.0976-0.177 0.1705-0.247-0.0966 0.027-0.1975 0.035-0.297 0.023s-0.1956-0.043-0.283-0.093c-0.0873-0.049-0.1641-0.115-0.226-0.194-0.0619-0.078-0.1076-0.169-0.1346-0.265-0.027-0.097-0.0348-0.198-0.0228-0.297 0.012-0.1 0.0435-0.196 0.0927-0.283s0.115-0.164 0.1939-0.226c0.0788-0.062 0.1691-0.108 0.2656-0.135-0.0986-0.022-0.1918-0.064-0.2738-0.123-0.0821-0.059-0.1513-0.135-0.2035-0.221-0.0523-0.087-0.0865-0.183-0.1006-0.283-0.014-0.101-0.0077-0.203 0.0186-0.3 0.0571-0.198 0.1882-0.367 0.3662-0.471s0.3892-0.136 0.5899-0.089c-0.0729-0.069-0.1309-0.153-0.1705-0.246s-0.06-0.193-0.06-0.294 0.0204-0.201 0.06-0.293c0.0396-0.093 0.0976-0.177 0.1705-0.247 0.1462-0.147 0.3437-0.232 0.551-0.236 0.2073-5e-3 0.4082 0.071 0.5606 0.212z" fill="#d6aeae"/>
  <path d="m58.277 192.94c0.2261-0.08 0.4708-0.089 0.7024-0.027 0.2315 0.061 0.4393 0.191 0.5962 0.372s0.2557 0.405 0.2837 0.643-0.0162 0.479-0.1269 0.692c-0.1106 0.212-0.2826 0.386-0.4936 0.5s-0.4512 0.161-0.6896 0.136c-0.2383-0.024-0.4637-0.12-0.647-0.274-0.1832-0.155-0.3158-0.361-0.3806-0.591-0.0915-0.293-0.0634-0.61 0.0781-0.882 0.1416-0.272 0.3851-0.476 0.6773-0.569z" fill="#fff"/>
  <path d="m59.059 213.99c-0.9561-7.53-1.9864-16.732-5.2086-23.088 2.8207 7.41 3.5306 16.39 4.4103 23.043z" fill="#a0b484"/>
  <path d="m54.194 187.3c0-0.209-0.0831-0.409-0.2311-0.557-0.1479-0.148-0.3485-0.231-0.5577-0.231s-0.4099 0.083-0.5578 0.231c-0.148 0.148-0.2311 0.348-0.2311 0.557-0.1078-0.177-0.2802-0.305-0.4809-0.358-0.2006-0.052-0.4138-0.025-0.5947 0.076-0.0894 0.047-0.1683 0.112-0.2319 0.191-0.0636 0.078-0.1106 0.169-0.1381 0.266s-0.0349 0.199-0.0219 0.3c0.0131 0.1 0.0464 0.196 0.0979 0.283-0.1806-0.101-0.3934-0.13-0.5941-0.078-0.2008 0.051-0.3741 0.177-0.484 0.353-0.0523 0.087-0.0865 0.183-0.1004 0.283-0.014 0.101-0.0075 0.203 0.0191 0.3 0.0266 0.098 0.0727 0.189 0.1356 0.268 0.0628 0.08 0.1412 0.145 0.2302 0.194-0.1039-6e-3 -0.2079 9e-3 -0.3056 0.045s-0.1871 0.091-0.2627 0.163c-0.0756 0.071-0.1359 0.157-0.177 0.253-0.0412 0.095-0.0624 0.198-0.0624 0.302s0.0212 0.207 0.0624 0.303c0.0411 0.096 0.1014 0.182 0.177 0.253 0.0756 0.072 0.165 0.127 0.2627 0.163 0.0977 0.035 0.2017 0.051 0.3056 0.045-0.0892 0.047-0.1679 0.112-0.2313 0.191-0.0633 0.079-0.11 0.169-0.1373 0.267-0.0273 0.097-0.0345 0.199-0.0213 0.299s0.0467 0.196 0.0982 0.283c0.1075 0.177 0.2797 0.306 0.4804 0.359 0.2007 0.054 0.4141 0.027 0.5953-0.075-0.052 0.087-0.0859 0.183-0.0996 0.284-0.0138 0.1-0.0073 0.202 0.0193 0.299 0.0266 0.098 0.0726 0.189 0.1352 0.268 0.0627 0.08 0.1408 0.146 0.2296 0.194 0.1805 0.102 0.3933 0.13 0.5941 0.079 0.2007-0.052 0.374-0.178 0.4839-0.354 0 0.209 0.0831 0.41 0.231 0.558 0.148 0.148 0.3486 0.231 0.5578 0.231s0.4099-0.083 0.5578-0.231 0.231-0.349 0.231-0.558c0.1088 0.177 0.2814 0.305 0.4821 0.358 0.2008 0.053 0.4142 0.027 0.596-0.073 0.089-0.048 0.1675-0.114 0.2307-0.192 0.0632-0.079 0.1098-0.17 0.137-0.267 0.0272-0.098 0.0345-0.2 0.0215-0.3-0.0131-0.1-0.0463-0.197-0.0976-0.284 0.1807 0.103 0.3942 0.132 0.5957 0.081s0.3753-0.179 0.4848-0.356c0.0518-0.086 0.0855-0.183 0.0991-0.283s0.0068-0.202-0.02-0.299-0.0731-0.188-0.136-0.267-0.1411-0.145-0.23-0.193c0.1039 6e-3 0.2079-9e-3 0.3056-0.045s0.1871-0.091 0.2627-0.163c0.0756-0.071 0.1358-0.157 0.177-0.253 0.0412-0.095 0.0624-0.198 0.0624-0.302 0-0.105-0.0212-0.207-0.0624-0.303s-0.1014-0.182-0.177-0.253c-0.0756-0.072-0.165-0.127-0.2627-0.163s-0.2017-0.051-0.3056-0.045c0.089-0.048 0.1675-0.113 0.2307-0.192s0.11-0.17 0.1374-0.267 0.035-0.199 0.0223-0.299-0.0455-0.197-0.0964-0.284c-0.1087-0.177-0.2815-0.305-0.4824-0.358-0.2008-0.052-0.4142-0.025-0.5956 0.076 0.0523-0.087 0.0864-0.183 0.1004-0.284 0.014-0.1 0.0075-0.202-0.0191-0.3-0.0266-0.097-0.0727-0.189-0.1356-0.268s-0.1412-0.145-0.2302-0.193c-0.1804-0.102-0.3934-0.131-0.5943-0.08-0.2009 0.052-0.3743 0.179-0.4837 0.355z" fill="#d6aeae"/>
  <path d="m53.398 188.95c-0.2392-0.016-0.4778 0.04-0.6847 0.161s-0.3727 0.301-0.4758 0.518c-0.103 0.216-0.1386 0.459-0.102 0.696 0.0365 0.237 0.1434 0.457 0.3069 0.632 0.1634 0.176 0.3758 0.298 0.6096 0.351s0.4781 0.035 0.7013-0.053c0.2231-0.087 0.4148-0.24 0.5501-0.438s0.2079-0.432 0.2085-0.672c0.0097-0.306-0.102-0.603-0.3107-0.827s-0.4974-0.356-0.8032-0.368z" fill="#fff"/>
  <path d="m65.596 205.41c-4.6631 1.475-9.3219 1.547-13.993 0 2.9473 7.023 4.4365 14.127 3.4971 21.365 2.333 1.064 4.666 1.095 6.9966 0-0.5641-7.467 0.827-14.545 3.499-21.365z" fill="#bfc7b5"/>
  <path d="m25.77 218.13c4.1974 0 7.6061 1.128 7.6061 2.517s-3.4087 2.52-7.6061 2.52c-4.1975 0-7.6038-1.129-7.6038-2.525s3.4087-2.517 7.6085-2.517z" fill="#d3b4b2"/>
  <path d="m25.974 219.92c3.4852 0 6.313 1.023 6.313 2.285 0 1.263-2.8278 2.288-6.313 2.288-3.4851 0-6.3129-1.025-6.3129-2.288 0-1.262 2.8278-2.285 6.3129-2.285z" fill="#f6f6f6"/>
  <path d="m32.748 222.64c1.5729 0 2.8517 1.178 2.8517 2.629s-1.2788 2.63-2.8517 2.63-2.8541-1.179-2.8541-2.63 1.2788-2.629 2.8541-2.629zm0 0.562c1.2406 0 2.2445 0.925 2.2445 2.067 0 1.143-1.0015 2.065-2.2445 2.065s-2.2446-0.927-2.2446-2.07c0-1.142 1.0064-2.067 2.2446-2.067z" fill="#dda6a3"/>
  <path d="m33.377 220.44c-5.1273 2.98-10.195 2.954-15.215 0 0.5649 3.386 1.8629 6.607 3.8031 9.439 2.7537 0.598 5.2875 0.591 7.6085 0 1.9406-2.831 3.2386-6.053 3.8031-9.439z" fill="#dda6a3"/>
  <g fill="#fff">
   <path d="m19.823 223.96c0.2373-4e-3 0.4704 0.062 0.6698 0.191 0.1993 0.129 0.3559 0.314 0.4496 0.532 0.0938 0.218 0.1206 0.459 0.0769 0.692s-0.1558 0.448-0.322 0.618c-0.1663 0.169-0.3792 0.285-0.6116 0.333s-0.4738 0.025-0.6934-0.064c-0.2197-0.09-0.4076-0.243-0.5399-0.44s-0.203-0.429-0.2031-0.667c0-0.313 0.123-0.614 0.3425-0.837 0.2195-0.224 0.518-0.352 0.8312-0.358z"/>
   <path d="m24.841 221.98c0.2195 3e-3 0.4331 0.072 0.6138 0.197s0.3205 0.3 0.4018 0.504 0.1005 0.427 0.0552 0.642-0.1531 0.412-0.3099 0.566c-0.1568 0.153-0.3555 0.257-0.5712 0.299-0.2156 0.041-0.4387 0.017-0.6411-0.068s-0.3751-0.228-0.4963-0.411c-0.1213-0.183-0.1858-0.398-0.1854-0.618 0.0013-0.147 0.0316-0.293 0.0892-0.429 0.0577-0.135 0.1415-0.258 0.2468-0.362 0.1052-0.103 0.2298-0.184 0.3666-0.239s0.283-0.083 0.4305-0.081z"/>
   <path d="m24.415 227.36c0.2189-0.013 0.4367 0.041 0.6251 0.153 0.1883 0.112 0.3387 0.278 0.4314 0.477 0.0928 0.199 0.1238 0.421 0.0889 0.637-0.0348 0.217-0.1339 0.418-0.2844 0.577-0.1505 0.16-0.3454 0.271-0.5595 0.318-0.2141 0.048-0.4375 0.03-0.6413-0.051s-0.3785-0.222-0.5017-0.403c-0.1231-0.182-0.1888-0.396-0.1887-0.615-0.0078-0.282 0.0963-0.555 0.2894-0.759 0.1931-0.205 0.4595-0.325 0.7408-0.334z"/>
   <path d="m29.069 224.32c0.2041 0.019 0.3984 0.096 0.5592 0.223s0.2812 0.298 0.3466 0.492c0.0653 0.194 0.0728 0.403 0.0215 0.602-0.0513 0.198-0.1592 0.377-0.3106 0.515-0.1513 0.139-0.3395 0.23-0.5418 0.263-0.2022 0.033-0.4096 6e-3 -0.5971-0.076-0.1875-0.083-0.3468-0.218-0.4587-0.39-0.1118-0.172-0.1713-0.372-0.1712-0.577 0.0142-0.292 0.1434-0.567 0.3592-0.764 0.2159-0.197 0.5009-0.3 0.7929-0.288z"/>
   <path d="m32.913 222.02c0.2301-8e-3 0.4575 0.052 0.653 0.174 0.1955 0.121 0.3502 0.299 0.4441 0.509 0.094 0.21 0.1229 0.444 0.0832 0.67-0.0398 0.227-0.1465 0.437-0.3063 0.603-0.1599 0.165-0.3656 0.279-0.5909 0.327-0.2252 0.048-0.4596 0.028-0.673-0.059-0.2134-0.086-0.3962-0.234-0.5248-0.425s-0.1971-0.416-0.1968-0.647c-0.0045-0.299 0.1099-0.589 0.3182-0.805 0.2082-0.216 0.4935-0.34 0.7933-0.347z"/>
  </g>
  <path d="m41.086 219.92c0.3711-0.014 0.738 0.083 1.0536 0.279 0.3155 0.196 0.5653 0.481 0.7173 0.82 0.1519 0.339 0.199 0.716 0.1353 1.082-0.0638 0.365-0.2355 0.704-0.493 0.971-0.2576 0.268-0.5893 0.452-0.9525 0.53s-0.7413 0.045-1.0857-0.094-0.6394-0.378-0.8471-0.686c-0.2076-0.308-0.3185-0.671-0.3183-1.042-0.0089-0.484 0.1746-0.952 0.5103-1.3 0.3357-0.349 0.7961-0.55 1.2801-0.56z" fill="#f1b5b5"/>
  <path d="m50.611 227.9c0.5703-0.016 1.1322 0.14 1.6139 0.445 0.4817 0.306 0.8612 0.749 1.0901 1.271 0.2289 0.523 0.2967 1.102 0.1948 1.663-0.1019 0.562-0.3689 1.08-0.7668 1.489-0.398 0.409-0.9088 0.689-1.4672 0.806s-1.139 0.065-1.6676-0.149c-0.5286-0.215-0.9812-0.583-1.2999-1.056s-0.4891-1.03-0.4893-1.601c-0.0095-0.75 0.2791-1.474 0.8026-2.012 0.5234-0.538 1.239-0.846 1.9894-0.856zm-0.0598 0.676c0.4369-0.012 0.8676 0.106 1.2369 0.34 0.3694 0.233 0.6606 0.572 0.8364 0.972s0.2283 0.844 0.1507 1.274-0.2818 0.827-0.5864 1.141c-0.3046 0.313-0.6958 0.529-1.1235 0.619s-0.8726 0.05-1.2776-0.114c-0.405-0.165-0.7519-0.446-0.9961-0.809-0.2442-0.362-0.3748-0.789-0.375-1.226-0.0076-0.574 0.2128-1.128 0.613-1.54s0.9474-0.648 1.5216-0.657z" fill="#e9bebb"/>
  <path d="m35.157 229.36c-3.8246 1.157-5.3138-2.949-8.23-2.847-0.1155 3e-3 -0.2289 0.032-0.3319 0.084-0.1029 0.053-0.1928 0.127-0.263 0.219s-0.1189 0.198-0.1425 0.311c-0.0237 0.113-0.0216 0.23 0.0059 0.342 0.0383 0.173 0.0813 0.354 0.122 0.526 0.0467 0.202 0.1435 0.388 0.2814 0.541 0.1379 0.154 0.3124 0.271 0.5074 0.339 2.1274 0.765 3.0381 5.166 6.1886 4.745l1.8621-4.25z" fill="#ffdedc"/>
  <path d="m33.783 228.14c-1.3003 3.586-3.1075 2.598-5.3926 0.586-2.2852-2.013-5.0867-2.826-5.211-1.528l10.926 8.551 2.9139-6.395z" fill="#e6bebe"/>
  <path d="m41.148 221.97c2.8685 0 5.1799 2.151 5.1799 4.807s-2.321 4.809-5.1799 4.809c-2.8588 0-5.1799-2.151-5.1799-4.809s2.3211-4.807 5.1799-4.807z" fill="#ffdedc"/>
  <path d="m34.672 225.87c4.9337 1.178 9.5805 0.872 13.515 0.239 0.992 4.178-1.1952 7.044-7.1209 7.769-4.4796-2.013-6.2317-4.705-6.3942-8.013z" fill="#dda6a3"/>
  <path d="m50.568 233.86c0.0941 0.747 0.0285 1.505-0.1926 2.225-0.221 0.719-0.5925 1.383-1.0897 1.949-0.4973 0.565-1.109 1.017-1.7945 1.328-0.6856 0.311-1.4293 0.473-2.182 0.474h-8.438c-0.8154 0-1.6198-0.187-2.351-0.548s-1.3695-0.885-1.8654-1.532c-0.4958-0.648-0.8359-1.4-0.9939-2.2s-0.1296-1.626 0.083-2.413c0.4446-1.659 1.4342-3.346 2.9712-5.077 0.2386-0.268 0.5312-0.483 0.8588-0.63 0.3275-0.147 0.6825-0.223 1.0415-0.223h9.3918c0.3662-1e-3 0.7282 0.078 1.0611 0.231 0.333 0.153 0.629 0.375 0.8679 0.653 1.4403 1.61 2.3572 3.62 2.6294 5.763z" fill="#ffdedc"/>
  <path d="m30.463 233.64c7.6062 1.508 13.976 1.511 21.368 0l0.239 1.456c-8.0077 1.57-14.629 1.721-21.771-0.163l0.1601-1.293z" fill="#dda6a3"/>
  <g fill="#dfe2db">
   <path d="m92.294 213.05-0.267-7.568 79.682-7.639-1.015 7.95 1.618 35.731-7.783 0.815-2.893-35.657-61.415 6.033-4.152 34.878-8.634 1.028z"/>
   <path d="m169.53 170.22-72.43 6.191-6.877 32.069 7.795-0.882 3.521-27.363 67.327-5.632z"/>
   <path d="m158.19 220.36c2.438-21.356 7.936-41.294 16.542-61.677l-5.29-2.995c-9.784 20.165-16.695 42.193-20.976 65.919z"/>
  </g>
  <g fill="#f1b5b5">
   <path d="m150.4 199.75-16.414 1.573 79.568 58.124 16.414-1.571z"/>
   <path d="m131.53 201.52-19.706 1.886 75.165 58.518 19.706-1.886z"/>
   <path d="m109.72 206.13-20.414 1.955 72.412 56.785 20.413-1.953z"/>
   <path d="m167.24 158.77-7.211 9.069 80.55 47.212 7.212-9.069z"/>
   <path d="m157.63 167.95-3.33 10.981 80.72 51.381 3.33-10.983z"/>
  </g>
  <path d="m157.12 272.44-0.267-7.568 79.682-7.639-1.015 7.95 1.618 35.731-7.783 0.815-2.893-35.657-61.415 6.034-4.152 34.877-8.634 1.028z" fill="#dfe2db"/>
  <path d="m155.54 183.77-1.231 12.712 78.834 55.941 1.231-12.712z" fill="#f1b5b5"/>
  <path d="m157.12 272.44 0.273-7.568 79.142-7.639-1.015 7.95 1.618 35.731-7.783 0.815-2.893-35.657-61.415 6.034-4.152 34.877-8.634 1.028z" fill="#dfe2db"/>
  <path d="m236.54 257.23c2.446-21.356 7.944-41.294 16.539-61.672l-5.287-2.992c-9.784 20.165-16.694 42.192-20.976 65.919l9.724-1.248z" fill="#dfe2db"/>
  <path d="m100.69 289.73s11.729-6.736 20.72-5.584c4.878 0.627 5.371 4.841 1.618 7.771-5.907 4.614-13.434 7.04-13.434 7.04z" fill="#a79084"/>
  <path d="m121.81 298.27s12.724-7.348 22.469-6.09c5.292 0.683 5.828 5.278 1.757 8.474-6.411 5.019-14.581 7.677-14.581 7.677l-9.66-10.061z" fill="#a79084"/>
  <path d="m127.64 266.99c1.571 9.592 7.685 20.897 1.313 28.383-0.796 0.935-2.309 2.981-1.96 4.152 0 0 7.441 1.838 11.579 2.199 5.419 0.478 5.586-4.14 5.586-4.14-0.395-4.202-2.424-6.693-2.359-9.762 0.167-7.831 2.985-14.495 3.456-20.67z" fill="#ffbf9f"/>
  <path d="m106.04 253.63 16.35 3.49c0.526 6.261-1.358 11.271-2.744 19.166-1.461 8.321 3.683 9.492 3.286 12.643-0.69 5.471-12.908 6.779-17.294 0.97 6.342-7.336 2.326-21.871 0.404-36.259z" fill="#ffbf9f"/>
  <path d="m148.27 298.22c-12.732 2.479-17.78 1.267-18.856-4.023-2.952 0.225-5.538 1.434-6.834 2.594-11.971 10.637 5.618 16.194 14.986 11.22 3.332-1.771 7.775-5.194 10.704-9.8z" fill="#ffdedc"/>
  <path d="m125.18 289.11c-10.305 3.327-17.904 3.332-18.98-1.96-3.217 0.33-6.483 1.797-7.984 3.346-9.035 9.306 5.458 14.015 14.357 9.287 3.334-1.769 10.517-5.106 12.607-10.671z" fill="#ffdedc"/>
  <path d="m141 220.13 16.764 8.983c-10.604 9.437-22.335 14.919-34.235 19.804 0.858 3.973 0.866 8.087-0.867 12.49-7.057-1.104-13.444-3.107-18.557-6.798 0 0-1.546-16.341 3.155-21.231 8.094-8.417 33.75-13.248 33.75-13.248z" fill="#aaaab9"/>
  <path d="m115.98 263.34c-1.241-4.749-1.418-10.039 1.494-16.859 0.207-0.481 0.543-0.895 0.973-1.195 13.037-9.119 25.665-14.144 38.08-17.026l-1.699 12.623-26.83 14.933-5.098 8.619-6.932-1.092z" fill="#8e8ea7"/>
  <path d="m152.66 229.36 27.922 3.155c4.716 16.704-8.95 23.28-34.661 27.033 0.751 3.074 0.381 7.69 0 11.897-9.547 0.16-15.855-1.769-22.153-4.207 0 0 0.098-10.389 1.214-17.239 1.774-10.896 27.68-20.639 27.68-20.639z" fill="#aaaab9"/>
  <path d="m154.23 163.44s0.753 5.324-0.733 7.986c-0.899 1.612-5.02-0.518-7.32 1.647-2.299 2.166-2.782 9.801-2.782 9.801 7.998 8.024 20.696 6.502 31.715-0.151 0 0 1.458-4.321-0.267-5.88-1.836-1.657-7.033-1.743-7.31-3.731-0.497-3.543 0.942-10.31 0.942-10.31l-14.245 0.648z" fill="#ffbf9f"/>
  <path d="m150.83 160.16 21.308-0.122-2.424 6.32c-5.421 6.16-12.992 6.873-17.543-0.059z" fill="#e8ab8d"/>
  <path d="m161.59 138.09c13.699 2.233 12.578 11.713 11.445 17.727-1.413 7.506-9.722 13.219-13.499 12.867-5.498-0.511-10.914-5.555-10.914-13.192s2.522-19.101 12.968-17.402z" fill="#ffbf9f"/>
  <path d="m160.44 140.64s-0.385 3.925 5.768 6.676c6.152 2.751 7.328 3.999 6.664 8.66-0.5 3.526-4.398 7.788-4.398 7.788s6.215 2.462 8.548-0.127c3.867-4.286 1.859-5.314 4.505-7.58 2.647-2.266 3.019-5.827 0-8.093s0.808-2.266 0-8.094-5.705-8.579-9.3-8.092c-6.421 0.868-5.049 2.589-9.744 0.323-4.694-2.266-11.794-3.946-13.407 1.64-1.434 4.977-1.951 6.11-4.217 8.861s-1.556 7.716 0.203 10.706c1.8 3.058 3.784 4.43 3.784 4.43s-0.755-9.87 2.592-11.068c8.249-2.959 9.002-6.03 9.002-6.03z" fill="#ececec"/>
  <g fill="#fff">
   <path d="m161.7 133.92c-6.274-4.25-10.756-4.006-12.231 5.464-0.282 1.826-1.623 3.846-3.55 5.524 2.749-1.845 4.42-2.447 6.468-9.752 0.825-2.945 6.304-3.019 9.323-1.236z"/>
   <path d="m161.21 136.47c-4.135-1.257-6.693 2.348-9.045 6.617 2.307-6.029 5.118-9.322 9.045-6.617z"/>
   <path d="m163.82 138.1c-4.812 8.706 7.556 5.655 10.996 13.003-2.852-7.62-10.826-6.011-10.996-13.003z"/>
   <path d="m166.31 135.14c11.034-5.259 13.909 3.026 12.685 14.581-0.105-13.101-4.972-16.682-12.685-14.581z"/>
  </g>
  <path d="m165.55 150.12c0.669 1e-3 1.322 0.2 1.878 0.572 0.555 0.372 0.988 0.901 1.243 1.519 0.256 0.618 0.322 1.298 0.191 1.954s-0.454 1.258-0.927 1.73c-0.473 0.473-1.076 0.795-1.732 0.925s-1.336 0.063-1.953-0.193c-0.618-0.257-1.146-0.69-1.518-1.246-0.371-0.556-0.569-1.21-0.569-1.879 1e-3 -0.897 0.358-1.758 0.993-2.392 0.636-0.634 1.496-0.99 2.394-0.99z" fill="#d59f85"/>
  <path d="m154.36 148.47c0.669 1e-3 1.322 0.2 1.878 0.573 0.555 0.372 0.988 0.901 1.243 1.519 0.256 0.618 0.322 1.298 0.191 1.954-0.131 0.655-0.454 1.258-0.927 1.73-0.473 0.473-1.076 0.794-1.732 0.924-0.656 0.131-1.336 0.063-1.953-0.193-0.618-0.256-1.146-0.69-1.517-1.246-0.372-0.556-0.57-1.21-0.57-1.878 1e-3 -0.898 0.358-1.758 0.994-2.392 0.635-0.634 1.495-0.991 2.393-0.991z" fill="#d59f85"/>
 </g>
 <path d="m165.55 150.12c0.669 1e-3 1.322 0.2 1.878 0.572 0.555 0.372 0.988 0.901 1.243 1.519 0.256 0.618 0.322 1.298 0.191 1.954s-0.454 1.258-0.927 1.731c-0.473 0.472-1.076 0.794-1.732 0.924s-1.336 0.063-1.953-0.193c-0.618-0.257-1.146-0.69-1.518-1.246-0.371-0.556-0.569-1.21-0.569-1.879 1e-3 -0.897 0.358-1.758 0.993-2.392 0.636-0.634 1.496-0.99 2.394-0.99zm-11.187-1.64c0.669 1e-3 1.322 0.2 1.878 0.572 0.555 0.373 0.988 0.901 1.243 1.519 0.256 0.618 0.322 1.298 0.191 1.954s-0.454 1.258-0.927 1.731c-0.473 0.472-1.076 0.794-1.732 0.924s-1.336 0.063-1.953-0.193c-0.618-0.256-1.146-0.69-1.517-1.246-0.372-0.556-0.57-1.21-0.57-1.879 1e-3 -0.897 0.358-1.757 0.994-2.392 0.635-0.634 1.495-0.99 2.393-0.99z" stroke="#787878" stroke-linecap="round" stroke-linejoin="round" stroke-width="2"/>
 <g clip-rule="evenodd" fill="#787878" fill-rule="evenodd">
  <path d="m157.62 151.86c1.601-0.297 3.289 0.129 4.728 0.805l-0.141 1.062c-1.633-0.842-3.17-1.459-4.975-0.674l0.388-1.196z"/>
  <path d="m169.09 153.31 3.873-0.568c0.089 0.377 0.113 0.766 0.071 1.152l-4.271 0.82c0.146-0.2 0.25-0.428 0.305-0.669 0.056-0.241 0.062-0.491 0.017-0.735z"/>
  <path d="m151.2 150.83-1.609-1.836c-0.138 0.354-0.245 0.719-0.318 1.092l1.726 2.206c-0.034-0.496 0.035-0.994 0.201-1.462z"/>
 </g>
 <path d="m159.54 153.9c-1.7 2.254-1.435 3.332 0.901 3.157" stroke="#d09370" stroke-linecap="round" stroke-linejoin="round" stroke-width="2"/>
 <g clip-rule="evenodd" fill-rule="evenodd">
  <path d="m156.45 162.09c0.523 2.214 3.165 1.884 3.997 0.705-1.368 0.061-2.732-0.18-3.997-0.705z" fill="#e17e61"/>
  <path d="m165.8 152.39c0.787 0.163 1.341 0.718 1.236 1.22-0.105 0.501-0.832 0.791-1.618 0.628-0.787-0.162-1.341-0.717-1.236-1.219s0.829-0.791 1.618-0.629z" fill="#f3dcd1"/>
  <path d="m164.34 152.71c1.054-0.134 1.977 0.062 2.708 0.739-0.179-1.16-2.034-1.564-2.708-0.739z" fill="#4a423e"/>
  <path d="m165.53 152.6c0.142 0 0.281 0.042 0.399 0.121 0.117 0.078 0.209 0.19 0.264 0.321 0.054 0.131 0.068 0.276 0.04 0.415-0.027 0.139-0.095 0.267-0.196 0.367-0.1 0.1-0.228 0.169-0.367 0.196-0.139 0.028-0.283 0.014-0.414-0.041-0.131-0.054-0.243-0.146-0.322-0.264s-0.121-0.256-0.121-0.398c0-0.19 0.076-0.373 0.21-0.507 0.135-0.135 0.317-0.21 0.507-0.21z" fill="#423935"/>
  <path d="m154.97 150.75c0.788 0.163 1.341 0.718 1.235 1.219-0.105 0.502-0.829 0.792-1.616 0.629-0.786-0.162-1.343-0.717-1.235-1.219 0.107-0.502 0.829-0.791 1.616-0.629z" fill="#f3dcd1"/>
  <path d="m153.52 151.08c1.055-0.134 1.977 0.062 2.706 0.739-0.179-1.16-2.032-1.564-2.706-0.739z" fill="#4a423e"/>
  <path d="m154.71 150.96c0.141 2e-3 0.279 0.046 0.395 0.126 0.116 0.081 0.206 0.193 0.259 0.325 0.052 0.131 0.065 0.275 0.036 0.413s-0.099 0.265-0.199 0.364c-0.101 0.099-0.229 0.166-0.368 0.193-0.138 0.027-0.282 0.012-0.412-0.043-0.131-0.054-0.242-0.146-0.32-0.264s-0.12-0.256-0.12-0.397c0-0.095 0.019-0.19 0.055-0.277 0.037-0.088 0.091-0.168 0.159-0.235 0.068-0.066 0.148-0.119 0.237-0.154 0.088-0.035 0.183-0.053 0.278-0.051z" fill="#423935"/>
  <path d="m183.73 186.91c-4.033-9.898-13.821-11.834-13.821-11.834s-6.091 12.575-16.568 10.881c-7.888-1.277-3.361-13.374-3.361-13.374-14.315 8.014-12.958 31.055-11.653 50.807 7.81 7.972 28.099 13.484 42.974 14.081 0 0 8.202-36.398 2.429-50.561z" fill="#f8f8f7"/>
  <path d="m140.62 207.47c4.561 3.368 10.199 5.553 16.914 6.554-5.89 0.602-11.997 0.263-18.533-1.941z" fill="#cacaca"/>
  <path d="m163.53 220.54c-6.339 1.857-12.841-0.297-19.424-2.474 5.474 2.18 10.075 4.84 20.079 4.541l-0.648-2.058z" fill="#cacaca"/>
  <path d="m169.91 174.83s12.255 2.103 15.879 11.125c3.698 9.2-4.972 48.392-4.972 48.392l-27.011-1.345c4.676-13.288-0.284-43.885 16.106-58.172z" fill="#ffdedc"/>
  <path d="m184.27 190.69s-8.55-8.947-14.01 3.641c-1.58 3.643-1.147 12.085-2.166 23.38-0.478 5.29-6.877 7.171-12.429 15.953l30.675 6.194c6.875-16.339 8.89-24.729-2.065-49.168z" fill="#e2c6c4"/>
  <path d="m86.517 208.77c-2.02-0.782-3.705-5.469 1.298-6.196 2.952-0.43 9.97 2.422 7.544 5.737-1.363 1.852-1.719-3.143-4.955 0.717v86.431h-3.887z" fill="#7a7a80"/>
  <path d="m99.36 204.45c-3.346-0.717-5.201 2.766-9.14 3.932-0.113 0.033-0.231 0.043-0.348 0.027-0.116-0.015-0.228-0.055-0.328-0.116-0.1-0.062-0.186-0.144-0.252-0.241s-0.111-0.207-0.131-0.323c-0.022-0.134-0.014-0.271 0.023-0.402 0.038-0.13 0.104-0.251 0.194-0.353 0.646-0.717 2.166-2.429 2.522-2.919 0.457-0.626-0.743-1.149-2.589 0.137-3.329 2.318-6.633-0.34-6.016-1.344 0.616-1.004 1.487-2.357 2.713-3.234 1.863-1.284 4.117-1.876 6.37-1.673 1.963 0.151 3.636-0.069 6.215-0.547l0.779 7.058z" fill="#ffbf9f"/>
  <path d="m151.99 172.46c-10.396-4.126-22.709 13.237-32.839 15.905-7.958 2.094-18.884 4.896-24.944 8.072-0.843 2.964-0.191 6.426 2.85 10.683 9.585 0.44 19.173 0.136 28.758-2.433 0.562-0.15 1.095-0.392 1.578-0.718l14.949-10.104c-0.239-6.291 1.931-11.297 5.354-16.835 0.93-1.504 1.7-3.184 4.303-4.566z" fill="#ffdedc"/>
  <path d="m150.17 173.05c-8.079-0.328-17.602 12.955-16.672 30.756 7.615-9.372 12.078-18.145 16.672-30.756z" fill="#e2c6c4"/>
  <path d="m152.96 171.86c-1.157-0.316-11.559 9.404-12.016 40.445-0.084 5.737-2.816 11.33-2.816 11.33-0.131-1.47-2.519-1.673-2.605-3.079-1.795-28.784 4.051-42.596 13.677-48.153 0.957-0.555 2.317-0.612 3.76-0.543z" fill="#ffdedc"/>
  <path d="m157.76 247.25-8.541 4.37-2.036 3.057c-0.36 0.539-0.865 0.964-1.458 1.226-0.593 0.261-1.248 0.347-1.889 0.249-0.765-0.116-1.494-0.405-2.131-0.844-0.637-0.44-1.166-1.018-1.547-1.692-0.38-0.674-0.603-1.425-0.65-2.198-0.048-0.772 0.081-1.545 0.377-2.261 0.021-0.052 0.041-0.098 0.057-0.133 0.027-0.07 0.067-0.134 0.117-0.189 1.573-1.786 3.194-4.425 5.568-5.359 2.823-1.14 5.84-1.727 8.885-1.731l3.238 5.498z" fill="#ffbf9f"/>
  <g fill="#d99d7f">
   <path d="m139.53 251.52c1.047-1.52 3.282-3.523 5.625-4.936-2.341 0.904-4.58 2.955-5.625 4.936z"/>
   <path d="m140.58 253.9c1.049-1.521 3.281-3.524 5.624-4.936-2.34 0.903-4.58 2.954-5.624 4.936z"/>
   <path d="m142.83 256.18c0.822-1.654 2.746-3.953 4.866-5.684-2.187 1.226-4.113 3.574-4.866 5.684z"/>
  </g>
  <path d="m186.41 190.07c-1.549-4.346-9.698-6.98-13.355 1.214-4.587 10.279 0.717 26.533-4.092 31.5-4.05 4.181-10.279 7.374-18.731 17.849 1.912 4.025 4.446 6.851 7.649 8.287 10.212-4.101 18.884-10.039 26.124-17.717 0.608-0.649 1.018-1.459 1.181-2.333 1.033-5.737 4.809-28.708 1.212-38.8z" fill="#ffdedc"/>
  <g fill="#e2c6c4">
   <path d="m157.62 243.86c0.769 0 1.396 0.552 1.396 1.231s-0.627 1.233-1.396 1.233c-0.77 0-1.396-0.552-1.396-1.233s0.624-1.231 1.396-1.231z"/>
   <path d="m98.863 202.57c0.77 0 1.396 0.552 1.396 1.234 0 0.681-0.626 1.231-1.396 1.231s-1.396-0.553-1.396-1.231c0-0.679 0.624-1.234 1.396-1.234z"/>
   <path d="m137.61 214.97c0.77 0 1.396 0.552 1.396 1.233 0 0.682-0.626 1.231-1.396 1.231-0.769 0-1.395-0.552-1.395-1.231s0.623-1.233 1.395-1.233z"/>
   <path d="m138.16 207.47c0.77 0 1.396 0.552 1.396 1.231 0 0.678-0.626 1.233-1.396 1.233s-1.396-0.552-1.396-1.233c0-0.682 0.626-1.231 1.396-1.231z"/>
   <path d="m138.96 201.3c0.77 0 1.396 0.552 1.396 1.233s-0.626 1.231-1.396 1.231c-0.769 0-1.396-0.552-1.396-1.231s0.624-1.233 1.396-1.233z"/>
   <path d="m139.55 194.05c0.772 0 1.396 0.552 1.396 1.231s-0.624 1.233-1.396 1.233-1.396-0.552-1.396-1.233 0.626-1.231 1.396-1.231z"/>
  </g>
  <path d="m236.54 227.2-72.43 6.191-7.037 31.706 7.998-0.841 3.48-27.04 67.327-5.629z" fill="#dfe2db"/>
 </g>
</svg>
